<svg width="99" height="36" viewBox="0 0 99 36" fill="none" xmlns="http://www.w3.org/2000/svg">
<g id="Group">
<path id="Vector" fill-rule="evenodd" clip-rule="evenodd" d="M25.6925 12.8101C29.9162 12.8101 32.8161 15.0165 32.8161 17.7903C32.8161 20.5641 29.9793 22.7706 25.6925 22.7706C21.4057 22.7706 18.5688 20.5641 18.5688 17.7903C18.5688 15.0165 21.4687 12.8101 25.6925 12.8101ZM13.7777 22.5814C12.0125 22.5814 10.3735 22.8336 8.16702 22.8336C3.94327 22.7706 0.854248 20.6902 0.854248 17.8534C0.854248 14.8274 4.13239 12.8101 8.41919 12.8101C10.4995 12.8101 12.4538 13.3774 13.6516 14.5752L12.5799 15.2056C11.7604 14.26 10.8148 13.5035 8.98656 13.5035C5.64538 13.5035 4.25847 15.1426 4.25847 17.9164C4.25847 20.2489 5.51929 22.2032 8.73439 22.2032C9.61696 22.2032 10.5626 21.8249 10.8147 21.1945V18.0425H8.54527V17.1599H13.7146L13.7777 22.5814ZM72.2799 17.7273C75.2428 17.7273 76.2515 17.0969 76.2515 15.6469C76.2515 14.5752 75.495 13.6926 72.3429 13.6926H69.8213V17.7273H72.2799ZM66.7322 22.5184V13.0622H75.1167C78.3318 13.0622 79.4666 14.3861 79.4666 15.836C79.4666 17.4121 77.8275 18.1686 75.1797 18.2947H75.0537L79.4666 22.4554H75.558L71.4603 18.4207H69.8843V22.5184H66.7322ZM54.2501 15.5209L51.3502 19.9968H57.0239L54.2501 15.5209ZM62.1933 22.5184H58.5369L57.4652 20.8163H50.7828L49.7111 22.5184H48.5134L54.8805 12.9362H56.0152L62.1933 22.5184ZM46.496 13.0622H47.8199L43.0288 18.2316V22.5814H39.7506V18.4207L34.7704 13.1253H38.6789L42.5244 17.349L46.496 13.0622ZM88.1032 21.888H89.4901C93.3356 21.888 94.7225 20.375 94.7225 17.9164C94.7225 15.5208 93.4617 13.7557 89.6792 13.7557H88.1032V21.888ZM84.825 13.0622H90.1205C95.9203 13.0622 98.0637 14.8904 98.0637 17.8534C98.0637 20.8793 95.9203 22.5184 90.7509 22.5184H84.825V13.0622ZM25.6925 22.1402C28.7184 22.1402 29.538 19.6185 29.538 17.7903C29.538 15.8991 28.5293 13.4405 25.6925 13.4405C22.9817 13.4405 21.91 15.9621 21.91 17.7903C21.91 19.6815 22.6665 22.1402 25.6925 22.1402Z" fill="#202020"/>
</g>
</svg>
