<svg width="98" height="36" viewBox="0 0 98 36" fill="none" xmlns="http://www.w3.org/2000/svg">
<g id="Group">
<g id="Group_2">
<path id="Vector" d="M17.1197 32.5754C25.2679 32.5754 31.8733 25.97 31.8733 17.8219C31.8733 9.67372 25.2679 3.06836 17.1197 3.06836C8.97157 3.06836 2.36621 9.67372 2.36621 17.8219C2.36621 25.97 8.97157 32.5754 17.1197 32.5754Z" fill="#202020"/>
<path id="Vector_2" d="M76.2981 22.3026C75.0413 22.3026 74.6041 23.2316 74.4949 24.4337L77.8281 23.9419C77.7734 23.0677 77.3363 22.3026 76.2981 22.3026ZM79.522 28.0402H79.6313V28.4227C79.6313 29.9526 78.2106 30.2259 77.0084 30.2259C74.2217 30.2259 72.0906 28.368 72.0906 25.4719C72.0906 22.8491 73.7299 20.9912 76.4074 20.9912C78.5384 20.9912 79.9591 22.248 79.9591 24.3791C79.9591 24.6523 79.9591 24.8162 79.8498 25.0348L74.3309 25.7998C74.4948 27.4391 75.5877 28.5319 77.5002 28.5319C78.2652 28.5319 79.0302 28.4227 79.522 28.0402Z" fill="#202020"/>
<path id="Vector_3" d="M72.3087 28.2589V28.5867C72.3087 29.7889 71.1065 30.1167 70.123 30.1167C68.2651 30.1167 67.1723 29.0239 67.1723 27.166V22.74H66.134V21.1007H67.1723V19.4067H69.5766V21.1007H71.9808V22.74H69.5765V27.0567C69.5765 27.9856 70.0683 28.4774 70.9972 28.4774C71.3251 28.4774 71.7622 28.3681 72.0901 28.1496L72.3087 28.2589Z" fill="#202020"/>
<path id="Vector_4" d="M80.2864 22.412C80.3957 21.5377 81.1606 21.1552 81.9256 21.1552C82.8546 21.1552 83.5649 21.7562 83.5649 22.7944V23.0677H83.6742C84.4392 22.0295 85.0949 21.0459 86.4063 21.0459C86.5703 21.0459 86.6796 21.0459 86.8435 21.1552L86.6796 23.4502C86.4064 23.3409 86.1878 23.3409 85.9146 23.3409C85.0403 23.3409 84.3846 23.9966 83.7289 24.707V29.898H81.3246V23.0677C81.3246 22.7398 81.2153 22.3027 80.8328 22.3027C80.7235 22.3027 80.5596 22.3027 80.505 22.412C80.4321 22.4848 80.3592 22.4848 80.2864 22.412Z" fill="#202020"/>
<path id="Vector_5" d="M96.023 28.6412C96.0959 28.6412 96.0959 28.6412 96.023 28.6412C96.1323 28.6412 96.1323 28.7505 96.1323 28.7505C96.0231 29.4062 95.4766 30.0073 94.4931 30.0073C93.4002 30.0073 92.6899 29.2423 92.6899 28.0402V23.9419C92.6899 23.3409 92.2527 23.013 91.8156 23.013C90.9413 23.013 90.1763 23.8873 89.6845 24.3791V29.898H87.2256V21.2098H89.6299V22.8491H89.7391C90.668 21.8109 91.7609 20.9912 93.127 20.9912C93.6188 20.9912 94.1652 21.1552 94.4931 21.483C95.0941 21.9748 95.1488 22.7398 95.1488 23.5048V27.9855C95.1488 28.4226 95.3127 28.7505 95.6406 28.7505C95.8591 28.8051 95.9684 28.6959 96.023 28.6412Z" fill="#202020"/>
<path id="Vector_6" d="M59.7401 28.0948C60.3412 28.4227 60.9969 28.5866 61.7619 28.5866C62.5269 28.5866 63.1826 28.3134 63.1826 27.6576C63.1826 27.0566 62.5815 26.7834 61.7619 26.4009C60.669 25.7998 59.6308 25.1988 59.6308 23.7781C59.6308 22.412 60.7237 21.0459 63.2919 21.0459C63.9476 21.0459 64.658 21.1552 65.1497 21.2098L64.8765 22.8491C64.4394 22.6852 63.8383 22.5759 63.2372 22.5759C62.363 22.5759 61.8712 22.9038 61.8712 23.4502C61.8712 23.9966 62.5269 24.3245 63.2919 24.707C64.3848 25.1987 65.4229 25.9091 65.4229 27.3298C65.4229 28.532 64.494 30.2259 61.7619 30.2259C60.2319 30.2259 59.303 29.6248 59.303 28.532V28.2587C59.303 28.2587 59.303 28.1495 59.4123 28.1495C59.558 28.113 59.6672 28.0948 59.7401 28.0948Z" fill="#202020"/>
<path id="Vector_7" d="M55.2054 22.3026C53.9486 22.3026 53.5115 23.2316 53.4022 24.4337L56.7354 23.9419C56.7354 23.0677 56.2436 22.3026 55.2054 22.3026ZM58.5386 28.0402H58.6479V28.4227C58.6479 29.9526 57.2272 30.2259 56.025 30.2259C53.2383 30.2259 51.1072 28.368 51.1072 25.4719C51.1072 22.8491 52.7465 20.9912 55.424 20.9912C57.555 20.9912 58.9757 22.248 58.9757 24.3791C58.9757 24.6523 58.9757 24.8162 58.8664 25.0348L53.3476 25.7998C53.5115 27.4391 54.6043 28.5319 56.5168 28.5319C57.2818 28.5319 57.9375 28.4227 58.5386 28.0402Z" fill="#202020"/>
<g id="Group_3">
<path id="Vector_8" d="M65.7515 8.80557C64.4947 8.80557 64.0576 9.73452 63.9483 10.9367L67.2815 10.4449C67.2269 9.57059 66.7897 8.80557 65.7515 8.80557ZM69.0301 14.543H69.194V14.9256C69.194 16.4556 67.7733 16.7288 66.5712 16.7288C63.7844 16.7288 61.6533 14.8709 61.6533 11.9748C61.6533 9.352 63.2926 7.49414 65.9701 7.49414C68.1012 7.49414 69.5219 8.75093 69.5219 10.882C69.5219 11.1552 69.5219 11.3192 69.4126 11.5377L63.8937 12.3027C64.0576 13.942 65.1505 15.0348 67.063 15.0348C67.7187 15.0348 68.4837 14.9255 69.0301 14.543Z" fill="#202020"/>
<path id="Vector_9" d="M82.8546 14.7618V15.0897C82.8546 16.2918 81.5978 16.6196 80.6689 16.6196C78.811 16.6196 77.7182 15.5268 77.7182 13.6689V9.2429H76.6799V7.60359H77.7182V5.90967H80.1224V7.60359H82.5267V9.2429H80.1224V13.5596C80.1224 14.4886 80.6142 14.9804 81.5431 14.9804C81.871 14.9804 82.4174 14.8711 82.636 14.6525C82.7453 14.6889 82.8181 14.7254 82.8546 14.7618Z" fill="#202020"/>
<path id="Vector_10" d="M70.1775 14.5977C70.7786 14.9256 71.4343 15.0895 72.1993 15.0895C72.9643 15.0895 73.62 14.8163 73.62 14.1606C73.62 13.5595 73.019 13.2863 72.254 12.9038C71.0518 12.3027 70.1229 11.7017 70.1229 10.2809C70.1229 8.91488 71.2157 7.54883 73.7839 7.54883C74.4396 7.54883 75.15 7.6581 75.6418 7.71274L75.3686 9.35204C74.9314 9.18812 74.3304 9.0788 73.7293 9.0788C72.855 9.0788 72.3632 9.40669 72.3632 9.95312C72.3632 10.4449 72.9643 10.8274 73.7839 11.2099C74.8768 11.7017 75.915 12.412 75.915 13.8328C75.915 15.0349 75.0407 16.7288 72.3632 16.7288C70.8333 16.7288 69.9043 16.1277 69.9043 15.0349V14.7617C69.9043 14.7617 69.9043 14.6524 70.0136 14.6524C70.1229 14.5977 70.1775 14.5977 70.1775 14.5977Z" fill="#202020"/>
<path id="Vector_11" d="M54.3857 6.34691V9.84405C55.6424 9.73476 56.2435 9.51617 56.7899 9.18831C57.2817 8.86046 57.6642 8.31404 57.6642 7.82225C57.6642 7.4944 57.5549 7.22119 57.391 6.94798C57.1178 6.67476 56.79 6.51083 56.3528 6.34691C56.0796 6.23762 55.7517 6.23762 55.3146 6.23762C54.9867 6.29226 54.6589 6.29226 54.3857 6.34691ZM54.3857 14.8712C54.6589 14.9804 55.0414 14.9805 55.4239 14.9805C56.3528 14.9805 56.79 14.8165 57.1178 14.5433C57.4457 14.3794 57.7189 14.0515 57.8828 13.669C58.0467 13.3412 58.156 12.904 58.156 12.4123C58.0467 11.6473 57.555 11.0462 56.7353 10.7729C56.4621 10.6637 56.1342 10.6637 55.6971 10.6637C55.2599 10.6637 54.8228 10.773 54.4403 10.8276L54.3857 14.8712ZM55.0414 16.5651C53.9485 16.5651 52.8557 16.4558 51.7082 16.2372H51.5989V5.14476H51.7082C53.2382 4.87155 54.4403 4.81689 55.4239 4.81689C56.79 4.81689 57.6096 4.98082 58.4839 5.30868C58.9757 5.58189 59.3582 5.80048 59.5767 6.23762C59.7407 6.56547 59.9046 6.89333 59.9046 7.33047C59.9046 7.60369 59.7953 7.98617 59.4674 8.58724C59.1396 9.02438 58.7024 9.46152 58.1014 9.6801C58.5385 9.78938 58.8664 9.95332 59.1942 10.1173C59.7953 10.4451 60.2324 10.8822 60.451 11.374C60.6696 11.8658 60.7789 12.4122 60.7242 13.0679C60.615 14.2701 59.7953 15.2537 58.5932 15.8547C57.8282 16.1826 57.0632 16.3465 56.025 16.4558C55.9157 16.5651 55.4785 16.5651 55.0414 16.5651Z" fill="#202020"/>
</g>
<path id="Vector_12" d="M47.2274 20.0074C47.3913 19.8981 47.5553 19.8982 47.6646 19.8982C48.2656 20.0075 48.5935 20.991 48.5388 22.7942C48.5388 23.6685 48.3749 24.9253 47.9378 26.0181C47.7738 26.5099 47.5006 26.9471 47.2821 27.2749C47.0635 27.6028 46.681 27.7667 46.4078 27.7667H46.1346L44.7685 18.4228H42.0364L43.0746 24.7067C42.9653 25.1439 42.8014 25.9635 42.4735 26.6738C42.1456 27.3296 41.8178 27.7667 41.2714 27.876H40.7796L39.4135 18.5321H36.6814L38.5392 30.0071H38.6485C38.9764 30.1164 39.4135 30.171 39.7414 30.171C40.0692 30.171 40.3424 30.171 40.6157 30.0617C41.2714 29.8978 41.9817 29.4606 42.4735 28.8596C42.9106 28.3678 43.2385 27.7667 43.4024 27.1656L43.8396 29.9524H43.9488C44.4406 30.0617 44.8231 30.1164 45.151 30.1164H45.4789C46.1346 30.1164 46.8449 29.9524 47.446 29.5153C47.9378 29.1874 48.4842 28.641 48.8667 28.0946C49.4678 27.2203 49.9049 26.1274 50.2328 24.8706C50.506 23.7778 50.6699 22.5757 50.6699 21.4828C50.6699 20.5539 50.506 19.7889 50.2328 19.2971C49.9049 18.696 49.3585 18.3682 48.7028 18.3682C48.3749 18.3682 48.0471 18.5321 47.6646 18.8053C47.5006 18.9692 47.1728 19.4064 47.1728 20.0621V20.1714C47.1728 20.0621 47.191 20.0074 47.2274 20.0074Z" fill="#202020"/>
<g id="Group_4">
<path id="Vector_13" d="M25.3703 13.9967C25.4796 13.9421 25.6435 13.9421 25.8074 13.9967C26.5178 14.106 26.7364 15.2535 26.6817 16.9474C26.6271 18.8053 25.8621 21.9199 24.496 21.9199C24.3867 21.9199 24.2774 21.9199 24.1135 21.8653L22.7474 12.6853H20.2339L21.2721 18.696C21.1081 19.8982 20.5617 21.6467 19.4689 21.8106C19.3596 21.8106 19.0864 21.8653 18.9771 21.8106L17.611 12.6853H15.0975L16.9553 23.7231C17.5564 23.8871 18.2667 23.8871 18.8131 23.7778C20.1792 23.5046 21.2721 22.0839 21.5453 20.6632L22.0371 23.7231C22.6382 23.8324 22.966 23.8324 23.5124 23.8324C24.8785 23.8324 26.026 23.0674 26.7364 21.9199C27.9385 20.1167 28.4303 17.5485 28.4303 15.4721C28.4303 13.7235 27.8838 12.4121 26.5724 12.4121C25.9167 12.4121 25.2063 12.9585 25.1517 13.8875V13.9421C25.3156 13.9967 25.3703 13.9967 25.3703 13.9967ZM8.59496 17.4939C9.90639 17.3846 10.5074 17.1114 11.0539 16.7835C11.6549 16.401 11.8735 15.9093 11.9282 15.4175C11.9282 14.8164 11.6549 14.2153 10.5621 13.9967C10.0157 13.8875 9.30532 13.8875 8.59496 13.9967V17.4939ZM9.68782 22.521C10.5075 22.521 10.9992 22.3571 11.4364 22.0839C12.1467 21.6467 12.5839 20.8271 12.4746 19.9528C12.42 19.1332 11.8189 18.5321 10.9992 18.2589C10.3982 18.0949 9.57851 18.0949 8.64959 18.3135V22.3024C8.9228 22.4664 9.30532 22.521 9.68782 22.521ZM12.3653 17.2753C12.8024 17.33 13.2396 17.4939 13.6221 17.7124C14.7696 18.3135 15.1521 19.3517 15.0428 20.4992C14.9335 21.6467 14.1685 22.6303 13.021 23.1767C12.3106 23.5592 11.5457 23.7231 10.5621 23.7778C9.19602 23.8871 7.61139 23.7778 6.19067 23.5592V12.7946C7.39281 12.6307 8.70423 12.4121 9.85173 12.4121C11.1085 12.4121 11.9828 12.5214 12.8571 12.9585C13.8953 13.4503 14.2231 14.2153 14.2231 14.9257C14.2232 15.636 13.786 16.6196 12.3653 17.2753Z" fill="white"/>
<path id="Vector_14" d="M28.2123 22.6853L28.1576 23.0133H28.267C28.3763 23.0133 28.4856 22.9586 28.4856 22.8493C28.4309 22.6853 28.3216 22.6853 28.2123 22.6853ZM28.2123 23.1226H28.103V23.5599H27.939V22.6306H28.2123C28.3763 22.6306 28.5949 22.6853 28.5949 22.9039C28.5949 23.0132 28.4856 23.1226 28.3763 23.1773C28.4856 23.3959 28.5949 23.5599 28.6496 23.5599H28.7042C28.7042 23.6145 28.6496 23.6692 28.5949 23.6692C28.4309 23.5599 28.3216 23.3412 28.2123 23.1226ZM28.267 22.412C27.939 22.412 27.6657 22.6853 27.6657 23.0679C27.6657 23.4505 27.939 23.7238 28.267 23.7238C28.5949 23.7238 28.8682 23.4505 28.8682 23.0679C28.8682 22.6853 28.5949 22.412 28.267 22.412ZM28.267 23.7785C27.8297 23.7785 27.5564 23.4505 27.5564 23.0133C27.5564 22.576 27.8844 22.248 28.267 22.248C28.7042 22.248 28.9775 22.576 28.9775 23.0133C28.9775 23.4505 28.6496 23.7785 28.267 23.7785Z" fill="#202020"/>
</g>
</g>
</g>
</svg>
