<svg width="98" height="36" viewBox="0 0 98 36" fill="none" xmlns="http://www.w3.org/2000/svg">
<g id="Group">
<g id="layer1">
<g id="g538">
<path id="path27" d="M60.1411 23.4348H54.6769L50.657 15.0673C48.4535 16.2584 47.2028 19.0277 44.9844 20.8441C43.8529 21.7672 42.5278 22.601 40.8603 23.1668C40.1158 23.4199 38.8354 23.7474 38.359 23.7921C38.1505 23.807 38.0314 23.807 37.9867 23.7325C37.9719 23.673 38.0165 23.6283 38.225 23.5241C38.4781 23.405 39.4756 22.9881 40.1009 22.5563C40.89 22.0055 41.3367 21.4248 41.3814 20.9633C41.1729 20.204 39.6245 18.5066 41.2027 15.4098C41.7685 14.2931 42.2449 13.504 42.6022 12.7C43.0042 11.7769 43.2871 10.4816 43.3764 9.51387C43.3864 9.47417 43.4012 9.46922 43.4211 9.499C44.1953 10.2732 47.1582 13.3254 46.7264 16.3775C47.709 15.9904 49.4361 14.844 50.2252 14.2336C51.059 13.5785 51.595 12.9085 52.4734 12.8936C53.2625 12.8787 53.337 13.2658 53.9623 13.3403C54.1261 13.3552 54.3494 13.3254 54.4685 13.2807C54.5131 13.2658 54.4983 13.2063 54.4387 13.1914C53.5752 12.9829 53.3816 12.2832 52.265 12.2832C51.2674 12.2832 50.4783 13.2063 49.8977 13.5785L47.0837 7.72723C45.9075 5.28549 46.2648 3.49884 48.8555 0L60.1411 23.4348Z" fill="#202020"/>
<path id="path42" d="M70.7566 35.4797L68.836 33.2166C69.8484 32.9784 70.4589 32.3977 70.4589 31.4002C70.4589 30.2686 69.4911 29.688 68.2851 29.688H64.4736V35.4797H65.4861V33.2911H67.764L69.5209 35.4797H70.7566ZM65.4712 30.5813H68.3C68.9998 30.5813 69.4167 30.9089 69.4167 31.4448C69.4167 32.0106 68.9849 32.368 68.3 32.368H65.4712V30.5813Z" fill="#202020"/>
<path id="path57" d="M29.9914 29.688L26.9988 35.4797H28.1452L28.7854 34.1844H32.1949L32.8351 35.4797H34.0113L31.0038 29.688H29.9914ZM29.2321 33.2911L30.4976 30.7451L31.7483 33.2911H29.2321Z" fill="#202020"/>
<path id="path72" d="M39.3565 30.447C40.3094 30.447 41.0985 30.8044 41.5005 31.4446L42.3193 30.8937C41.7536 30.0897 40.7412 29.5239 39.3565 29.5239C37.1381 29.5239 35.8577 30.983 35.8577 32.5761C35.8577 34.1692 37.1381 35.6283 39.3565 35.6283C40.7263 35.6283 41.7387 35.0625 42.3193 34.2585L41.5005 33.7076C41.0985 34.3478 40.3094 34.7052 39.3565 34.7052C37.8528 34.7052 36.8999 33.8714 36.8999 32.5761C36.8999 31.2957 37.8528 30.447 39.3565 30.447Z" fill="#202020"/>
<path id="path87" d="M48.5584 30.447C49.5113 30.447 50.3004 30.8044 50.7024 31.4446L51.5213 30.8937C50.9555 30.0897 49.943 29.5239 48.5584 29.5239C46.34 29.5239 45.0596 30.983 45.0596 32.5761C45.0596 34.1692 46.34 35.6283 48.5584 35.6283C49.9282 35.6283 50.9555 35.0625 51.5213 34.2585L50.7024 33.7076C50.3004 34.3478 49.5262 34.7052 48.5584 34.7052C47.0695 34.7052 46.1018 33.8714 46.1018 32.5761C46.1018 31.2957 47.0546 30.447 48.5584 30.447Z" fill="#202020"/>
<path id="path102" d="M57.7593 29.5391C55.5409 29.5391 54.2605 30.9982 54.2605 32.5913C54.2605 34.1843 55.526 35.6434 57.7593 35.6434C59.9926 35.6434 61.2582 34.1992 61.2582 32.5913C61.2582 30.9833 59.9778 29.5391 57.7593 29.5391ZM57.7593 34.7352C56.2556 34.7352 55.3027 33.9015 55.3027 32.5913C55.3027 31.2811 56.2556 30.4473 57.7593 30.4473C59.2631 30.4473 60.216 31.2811 60.216 32.5913C60.2308 33.8866 59.2482 34.7352 57.7593 34.7352Z" fill="#202020"/>
</g>
</g>
</g>
</svg>
