<svg width="99" height="36" viewBox="0 0 99 36" fill="none" xmlns="http://www.w3.org/2000/svg">
<g id="Group">
<path id="path4191" fill-rule="evenodd" clip-rule="evenodd" d="M50.7152 13.0613C48.8364 13.0488 47.3154 13.5342 46.0885 14.4798C44.8487 15.426 44.2354 16.576 44.2354 18.0073C44.2354 19.1831 44.8487 20.2569 45.8455 21.1005C47.0471 22.1228 48.7084 22.5829 50.7532 22.5829C51.6094 22.5829 52.4918 22.4422 53.1563 22.2634C54.1404 22.0078 55.4439 21.4198 55.8399 20.5507L55.8145 19.2601C55.7891 18.3654 55.853 18.3269 56.7732 18.3143V18.0073H53.3096V18.3143C53.6676 18.3143 53.9102 18.3016 54.1274 18.442C54.3322 18.5954 54.2807 19.2855 54.2807 19.554L54.2683 20.3336C53.9742 20.896 53.2966 21.2026 52.8113 21.3944C52.3639 21.5734 51.5456 21.7649 50.7791 21.7777C49.5008 21.7905 48.504 21.4325 47.6732 20.9087C46.8297 20.3588 46.0117 19.2218 46.0117 17.8031C46.0117 16.4355 46.881 15.3105 47.9035 14.6075C48.5681 14.1477 49.6925 13.7514 50.8044 13.7644C51.7632 13.7773 52.6581 14.007 53.3096 14.378C54.0511 14.7869 54.8435 15.6177 55.1371 16.231L55.431 16.116L54.9582 14.1094C54.3705 13.7514 53.6416 13.4956 52.9516 13.3298C52.1977 13.1506 51.4308 13.0743 50.7152 13.0613ZM5.78556 13.2733C4.47889 13.278 3.17729 13.2973 0.819318 13.2875L0.806641 13.5817C1.12611 13.5817 1.24133 13.5687 1.43293 13.722C1.61195 13.8758 1.63739 14.0415 1.63739 14.6042V20.6237C1.63739 21.1349 1.67572 21.659 1.56063 21.7995C1.3946 21.9913 1.27946 22.0296 0.870482 22.0169V22.3234H5.72729C7.05653 22.3234 9.24194 22.2852 10.1364 21.5824C10.4816 21.3907 11.1077 20.8028 11.0949 19.8058C11.0949 18.5917 10.5711 18.2209 10.0982 17.9526C9.67637 17.7226 9.01181 17.5438 8.23221 17.4159C8.85837 17.1988 8.99892 17.1346 9.39511 16.8279C9.80409 16.5338 10.0728 15.9461 10.0728 15.3582C10.0728 13.8244 8.41106 13.339 7.13316 13.2751C6.65706 13.2719 6.22112 13.2718 5.78556 13.2733ZM97.9907 13.2875L94.821 13.3002V13.5688C95.3448 13.5942 95.4987 13.6072 95.6006 13.9777C95.6515 14.1185 95.6391 14.4376 95.6391 14.8849V20.7258C95.6391 21.7865 95.7289 22.0295 94.8851 22.0295V22.3234H98.0161L98.0037 22.0295C97.1474 22.0295 97.1853 21.697 97.1853 20.7258V14.8849C97.1853 13.8369 97.1599 13.5688 97.9907 13.5688V13.2875ZM15.0186 13.3005V13.6326C15.3254 13.6326 15.4534 13.6455 15.6322 13.7479C15.8368 13.8757 16.0924 14.4634 16.3991 15.064L20.2334 22.3234H21.5242C22.3166 20.7515 23.5945 18.1955 24.5786 16.2655C25.2432 14.9876 25.7291 13.9652 25.9207 13.7225C26.0358 13.5817 26.3553 13.6326 26.5596 13.6326V13.3005L23.8758 13.3131V13.6326C23.9014 13.6326 24.6554 13.5306 24.5786 14.0159C24.5147 14.3994 21.5242 19.9975 21.1536 20.8922L18.1754 15.2817C17.9582 14.8722 17.7793 14.5656 17.69 14.323C17.447 13.7478 17.8179 13.6326 18.3292 13.6326V13.3005H15.0186ZM83.2356 13.309C83.0446 13.3075 82.8414 13.3082 82.6255 13.3093C82.3377 13.3107 82.0274 13.3131 81.6949 13.3131H77.6058V13.5943C78.168 13.5943 78.3983 13.7606 78.3983 14.4122V21.5309C78.3983 22.0165 78.0402 22.0035 77.6058 21.9908V22.3234H80.8009V21.9908C80.2766 21.9908 79.9699 21.9401 79.9569 21.3138V18.6554C80.3019 18.6808 80.6089 18.6554 81.1457 18.6554C81.3374 18.6554 82.3595 18.6682 82.6666 18.6554C83.8294 18.6554 84.3662 20.0356 84.9929 21.007C85.5166 21.8249 85.2865 22.3234 88.6353 22.3234C88.6353 22.2467 88.61 22.0804 88.61 22.0037C87.1785 22.0165 86.9098 21.16 86.2961 20.061C85.7214 19.0642 85.5675 18.4125 84.0851 18.2462C86.3344 17.8247 86.9227 16.8022 86.9227 15.6389C86.9097 14.4636 86.041 13.7345 84.6219 13.415C84.2698 13.3361 83.8085 13.3136 83.2356 13.309ZM31.7868 13.3128V13.5941C32.2342 13.5941 32.362 13.6324 32.4899 13.8117C32.6176 13.9775 32.6176 14.2587 32.6176 14.7575V21.3265C32.6176 21.9145 32.3877 22.0165 31.838 22.0293V22.3234H39.877L40.8098 20.4575L40.5162 20.3422C40.2093 20.8407 39.5064 21.3265 38.3943 21.3265H34.1641V14.361C34.1641 13.9391 34.2408 13.8117 34.3429 13.7094C34.4964 13.5816 34.5731 13.6071 34.9693 13.5941V13.3128H31.7868ZM65.8474 13.3131L62.1281 20.3936C61.7961 21.0328 61.6683 21.25 61.515 21.5438C61.3357 21.8505 61.2333 22.0553 60.6196 22.0681V22.3234H63.3934L63.4063 22.0298C62.9075 22.0426 62.6909 22.0039 62.6779 21.5565C62.6779 21.4159 62.8056 21.1863 62.9974 20.8413L63.5211 19.9209H68.8889L69.5283 21.007C69.9503 21.7101 69.8346 21.9658 69.0807 22.0042V22.3234H72.4037V21.9783C71.6113 21.9783 71.6496 21.7615 70.9466 20.4706L67.0234 13.3131H65.8474ZM81.6296 13.9632C82.612 13.9573 83.6076 14.0065 84.2386 14.3098C84.7754 14.5655 85.2227 14.8594 85.2227 15.7542C85.2227 17.0195 84.443 17.3518 83.8548 17.569C82.8198 17.8373 81.1198 17.7477 79.9569 17.7605V13.9901C80.4554 13.9901 81.0401 13.9668 81.6296 13.9632ZM5.90288 14.0372C6.68593 14.0362 7.45267 14.0673 7.87448 14.3354C8.4239 14.6934 8.55169 14.9491 8.55169 15.4859C8.55169 15.8179 8.28352 16.3936 8.00242 16.6108C7.3377 17.1476 6.14911 17.173 5.2672 17.173H3.15828V14.0415H5.12634C5.37879 14.0415 5.64186 14.0376 5.90288 14.0372ZM66.1539 14.6681L68.4164 18.911H64.007L66.1539 14.6681ZM5.83447 17.9746C7.13378 17.9711 8.05623 18.0212 8.70497 18.5021C9.05003 18.7576 9.38244 19.2049 9.38244 19.742C9.38244 21.2244 7.52943 21.3267 5.7017 21.3267H3.15828V17.9781C3.84837 17.9781 4.56425 17.9909 5.25454 17.9781C5.45583 17.9765 5.64885 17.9751 5.83447 17.9746Z" fill="#202020"/>
</g>
</svg>
