<svg width="85" height="31" viewBox="0 0 85 31" fill="none" xmlns="http://www.w3.org/2000/svg">
<g id="Group">
<path id="Vector" d="M15.143 13.7632C15.1142 13.7992 15.0998 14.9705 15.0926 17.9529L15.0855 22.0924L7.79118 17.8379C3.78113 15.5023 0.453781 13.562 0.396289 13.5333C0.324424 13.4973 0.28852 13.4901 0.252587 13.5261C0.223841 13.5548 0.209473 15.6748 0.209473 21.884C0.209473 26.4546 0.216657 30.2275 0.23103 30.2562C0.252589 30.3065 0.48256 30.3137 2.42291 30.3137C3.61587 30.3137 4.59321 30.3065 4.60039 30.3065C4.60758 30.3065 4.61477 28.517 4.62915 26.3395L4.6507 22.387L11.9809 26.6845C16.0125 29.0489 19.3327 30.9748 19.3614 30.9605C19.4045 30.9461 19.4117 29.5591 19.4117 22.3654C19.4117 15.7467 19.4046 13.7776 19.3686 13.7417C19.2896 13.6914 15.2005 13.6986 15.143 13.7632Z" fill="#202020"/>
<path id="Vector_2" d="M32.8585 9.33647C33.6849 9.33647 33.8071 9.32926 33.8215 9.27896C33.8359 9.24303 33.8431 8.94839 33.8431 8.625C33.8431 8.29442 33.8574 8.02852 33.8718 8.02852C33.9149 8.02852 36.2577 7.662 36.3943 7.63325L36.4949 7.61169V8.43095C36.4949 8.8837 36.5093 9.2718 36.5236 9.29336C36.5452 9.32929 36.768 9.33646 37.5082 9.32927L38.4568 9.32207L38.464 6.65589C38.4712 4.01127 38.4712 3.98971 38.3921 3.80286C38.349 3.70225 38.2484 3.55853 38.1693 3.48666C37.8891 3.22795 38.0256 3.24233 35.1438 3.24233C32.2333 3.24233 32.3842 3.22795 32.1111 3.50822C31.838 3.7813 31.8452 3.6232 31.8452 6.61278C31.8452 8.08601 31.8524 9.30054 31.8668 9.31491C31.9027 9.32929 32.3411 9.33647 32.8585 9.33647ZM33.8431 4.65807H36.5021V5.52044C36.5021 6.17441 36.4877 6.38284 36.4518 6.39721C36.3583 6.43314 33.879 6.814 33.8575 6.79244C33.8503 6.78525 33.8431 6.2966 33.8431 5.71449V4.65807Z" fill="#202020"/>
<path id="Vector_3" d="M58.3337 1.81215C58.4989 1.99181 58.6283 2.07083 58.8511 2.11395C59.0307 2.14989 61.6466 2.16428 61.7329 2.12835C61.8047 2.09961 61.8119 1.9846 61.7544 1.81931C61.7041 1.68277 61.9197 1.75462 59.6847 1.10784C58.8439 0.863502 58.1324 0.669482 58.1037 0.683856C58.0318 0.712601 58.0103 0.892254 58.0534 1.15816C58.1037 1.48873 58.1612 1.6253 58.3337 1.81215Z" fill="#202020"/>
<path id="Vector_4" d="M58.7796 9.37259C60.4037 9.37259 61.762 9.35821 61.7835 9.34384C61.8195 9.32228 61.8267 9.15699 61.8195 8.63957L61.8123 7.97125L59.7426 7.96405L57.6729 7.95685V6.95794L58.1831 6.93639C58.4634 6.92201 58.8658 6.91483 59.0742 6.91483C59.3329 6.91483 59.4695 6.90045 59.4911 6.86451C59.5414 6.79984 59.7426 5.76498 59.7138 5.7003C59.6923 5.65 59.5557 5.64283 58.679 5.64283H57.6657L57.6729 5.14693L57.68 4.65108L59.7354 4.62952L61.7907 4.60796V3.26409L58.7796 3.2569C56.3937 3.24971 55.7613 3.25692 55.7397 3.29285C55.7253 3.3216 55.7109 4.67983 55.7109 6.31834C55.7109 8.58209 55.7181 9.30793 55.7541 9.33668C55.8116 9.36542 56.5302 9.37259 58.7796 9.37259Z" fill="#202020"/>
<path id="Vector_5" d="M49.2436 9.3362C50.0341 9.3362 50.1563 9.32899 50.1707 9.27869C50.185 9.24276 50.1922 8.71099 50.1922 8.08576V6.95027L50.7024 6.92871C50.9827 6.91434 51.3852 6.90715 51.5936 6.90715C51.8523 6.90715 51.9889 6.89277 52.0176 6.85684C52.0607 6.79935 52.2476 5.89389 52.2476 5.73578V5.62796H50.185L50.1922 5.1321L50.1994 4.63624L51.996 4.62904C53.3758 4.62186 53.7998 4.6075 53.8214 4.57157C53.8573 4.51408 53.8645 3.37861 53.8286 3.29238C53.807 3.24207 53.5267 3.23486 51.0402 3.23486H48.2734V6.2604C48.2734 7.92047 48.2878 9.29307 48.295 9.30745C48.3237 9.32901 48.7477 9.3362 49.2436 9.3362Z" fill="#202020"/>
<path id="Vector_6" d="M43.8599 5.62788L42.8466 5.62072V4.64333L44.6575 4.62177L46.4686 4.60022V3.25635H40.9349L40.9278 6.25312C40.9206 7.89883 40.9278 9.26427 40.9349 9.29302C40.9493 9.32895 41.1577 9.33612 41.8764 9.32893L42.8034 9.32173L42.8106 8.13596L42.8178 6.95739L43.328 6.93584C43.6083 6.92146 44.0108 6.91428 44.2192 6.91428C44.4923 6.91428 44.6144 6.8999 44.6432 6.86397C44.6935 6.79929 44.9091 5.75723 44.8803 5.69256C44.8803 5.64225 44.6504 5.63507 43.8599 5.62788Z" fill="#202020"/>
<path id="Vector_7" d="M24.1178 9.07053C24.3981 9.3508 24.2616 9.33645 26.9781 9.33645C29.1699 9.33645 29.4143 9.32924 29.4358 9.27894C29.4718 9.1927 29.4646 8.05723 29.4287 7.99974C29.4071 7.96381 28.9831 7.94946 27.5889 7.94227L25.7779 7.93507V4.64365L27.5889 4.63649C28.9831 4.62931 29.4071 4.61491 29.4287 4.57898C29.4646 4.52149 29.4718 3.38602 29.4358 3.29979C29.4143 3.24948 29.1628 3.24231 26.9781 3.24231C24.2616 3.24231 24.3909 3.22793 24.1107 3.5082C23.8376 3.78128 23.8447 3.6663 23.8447 6.28936C23.8591 8.91961 23.8447 8.79744 24.1178 9.07053Z" fill="#202020"/>
<path id="Vector_8" d="M40.4603 13.7491C40.4028 13.7131 24.1973 13.706 24.1039 13.7419C24.0536 13.7635 24.0464 14.5324 24.0464 22.0495V30.3355L32.2677 30.3283L40.489 30.3211V26.6847L34.7902 26.6776L29.0913 26.6704V25.0391C29.0913 23.767 29.0985 23.4077 29.1416 23.3933C29.1703 23.3862 30.2986 23.3574 31.6497 23.3215C33.0726 23.2927 34.129 23.2568 34.1506 23.2352C34.2009 23.1849 34.8261 20.0301 34.7902 19.9941C34.7758 19.9798 33.4894 19.9582 31.9371 19.9582L29.1129 19.951L29.1057 18.6862L29.0985 17.4214L34.7973 17.4142L40.4962 17.407L40.5034 15.596C40.5034 14.1659 40.4962 13.7706 40.4603 13.7491Z" fill="#202020"/>
<path id="Vector_9" d="M83.8663 15.1575C83.5285 14.4748 82.968 14.0148 82.2422 13.8208C81.9978 13.7561 81.6601 13.7489 75.2282 13.7489C67.7111 13.7489 68.2932 13.7274 67.7255 14.0076C67.0931 14.3167 66.6403 14.8485 66.4319 15.5456L66.3457 15.8258V28.2872L66.4535 28.589C66.6475 29.128 66.9925 29.5951 67.4236 29.8898C67.6967 30.0766 67.8979 30.1629 68.2429 30.2563C68.5016 30.3282 68.7532 30.3282 75.2138 30.3282C80.9342 30.3282 81.9475 30.321 82.1703 30.2778C83.0111 30.0982 83.7442 29.4226 84.0316 28.5531L84.1179 28.2944L84.125 22.1499C84.1322 15.294 84.1466 15.7109 83.8663 15.1575ZM79.4754 22.0277L79.4682 26.6415L75.2928 26.6487C73.0003 26.6559 71.1103 26.6486 71.0959 26.6343C71.0816 26.6199 71.0744 24.543 71.0744 22.0134V17.414H79.4897L79.4754 22.0277Z" fill="#202020"/>
<path id="Vector_10" d="M59.6343 25.3337C59.6271 25.3121 59.7564 25.269 59.9217 25.233C60.7697 25.0606 61.4668 24.4066 61.6033 23.6664C61.6249 23.5299 61.6393 22.1285 61.6321 19.6276L61.6249 15.7972L61.5387 15.5385C61.3015 14.827 60.8703 14.3311 60.2451 14.0221C59.6702 13.7419 60.317 13.7634 52.2178 13.7706H44.9379L44.9307 21.9991C44.9235 26.5266 44.9307 30.2492 44.9379 30.278C44.9523 30.3139 45.4913 30.3283 47.4603 30.3283C48.8401 30.3283 49.9756 30.3211 49.9756 30.3211C49.9828 30.3139 49.99 29.1856 50.0044 27.8058L50.0259 25.2977L51.9806 25.2905C53.806 25.2833 53.9426 25.2834 54.0001 25.348C54.036 25.384 54.7977 26.5194 55.696 27.8633L57.3274 30.3139L60.1804 30.3211C62.6238 30.3283 63.0335 30.3211 63.0335 30.278C63.0335 30.2492 62.2717 29.1353 61.3446 27.7986C60.4104 26.4619 59.6415 25.3552 59.6343 25.3337ZM56.5153 21.9057H53.2598C50.6871 21.9057 49.9972 21.8985 49.9828 21.8554C49.9756 21.8267 49.9684 20.7702 49.9756 19.5054L49.9828 17.2058L53.2455 17.1986L56.5081 17.1914V21.9057H56.5153Z" fill="#202020"/>
</g>
</svg>
