<svg width="98" height="36" viewBox="0 0 98 36" fill="none" xmlns="http://www.w3.org/2000/svg">
<g id="Group">
<path id="Vector" fill-rule="evenodd" clip-rule="evenodd" d="M69.7178 25.4478C67.0496 25.4478 66.2929 23.2176 66.2929 20.908H68.6824C68.6824 21.7043 68.762 23.1779 69.8373 23.1779C70.6338 23.1779 71.032 22.461 71.032 21.7442C71.032 19.1557 66.1734 18.4787 66.1734 14.2175C66.1734 12.0671 67.3283 10.1953 69.6381 10.1953C72.2666 10.1953 72.9834 12.4255 73.0232 14.6954H70.6338C70.6338 14.1378 70.7532 12.4654 69.5585 12.4654C68.8417 12.4654 68.5629 13.1821 68.5629 13.7795C68.5629 16.2485 73.4213 17.1645 73.4213 21.3859C73.4213 23.6557 72.1073 25.4478 69.7178 25.4478ZM59.6025 25.169V10.4741H65.6558V12.7441H62.2708V16.4874H64.7399V18.8769H62.2708V22.8991H65.7753V25.169H59.6025ZM58.169 25.169H57.0539L56.6557 24.1734C56.1778 24.8903 55.4211 25.4478 54.545 25.4478C50.8414 25.4478 50.722 20.5894 50.722 17.9211C50.722 15.4122 51.1202 10.1953 54.545 10.1953C57.8902 10.1953 58.0495 13.1026 58.0495 15.7308H55.6601L55.6999 14.8148C55.6999 14.1776 55.5804 12.4654 54.6645 12.4654C53.3901 12.4654 53.5095 16.9256 53.5095 17.961C53.5095 20.1115 53.3901 23.1779 54.7839 23.1779C55.9388 23.1779 55.899 21.2265 55.899 20.4301H54.9034V18.3194H58.169V25.169ZM45.2662 25.169H42.4785V10.4741H44.8281C49.6069 10.4741 49.7662 14.0581 49.7662 17.8017C49.7662 21.2265 49.7662 25.169 45.2662 25.169ZM40.9651 10.4741V25.169H38.2572V10.4741H40.9651ZM34.3544 25.169L33.08 18.8371H32.4428V25.169H29.7748V10.4741H32.8013C35.589 10.4741 37.0227 11.7883 37.0227 14.6555C37.0227 15.9697 36.6642 17.5229 35.4695 18.2397L37.0227 25.169H34.3544ZM25.3941 12.7441V16.6865H27.8233V19.0362H25.3941V25.169H22.726V10.4741H28.6995V12.7441H25.3941ZM15.7568 25.169V10.4741H18.4249V22.8991H21.8498V25.169H15.7568ZM8.46912 25.169V10.4741H14.5621V12.7441H11.1372V16.4874H13.6462V18.8769H11.1372V22.8991H14.6816V25.169H8.46912ZM3.76982 25.4478C1.10174 25.4478 0.345061 23.2176 0.345061 20.908H2.73454C2.73454 21.5451 2.81418 23.1779 3.88929 23.1779C4.68578 23.1779 5.08404 22.461 5.08404 21.7442C5.08404 19.1557 0.225586 18.4787 0.225586 14.2175C0.225586 12.0671 1.3805 10.1953 3.69033 10.1953C6.31859 10.1953 7.03544 12.4255 7.07526 14.6954H4.72562C4.72562 14.0582 4.64596 12.4654 3.61067 12.4654C2.89385 12.4654 2.61506 13.1821 2.61506 13.7795C2.61506 16.2485 7.4735 17.1645 7.4735 21.3859C7.4735 23.6557 6.15928 25.4478 3.76982 25.4478ZM45.1467 22.8991C47.2572 22.8991 46.9386 20.6691 46.9386 18.0804C46.9386 15.8105 47.4962 12.7441 45.1467 12.7441V22.8991ZM32.8809 12.6246H32.4428V16.7264H33.0004C34.0756 16.7264 34.3544 15.5317 34.3544 14.6954C34.3544 13.6203 34.1155 12.6246 32.8809 12.6246ZM78.9171 13.4609C78.9171 12.8237 78.718 12.4654 78.2799 12.4654C77.8817 12.4654 77.7224 12.8237 77.7224 13.3016C77.7224 13.8592 77.9613 14.6157 78.1604 15.1733C78.5587 14.6954 78.9171 14.1378 78.9171 13.4609ZM78.2799 12.1467C78.9967 12.1467 79.2357 12.8237 79.2357 13.4609C79.2357 14.4166 78.6383 15.0936 78.1206 15.8105C77.802 15.0538 77.4038 14.1378 77.4038 13.3016C77.4038 12.7839 77.5631 12.1467 78.2799 12.1467ZM82.9392 25.169C81.8241 25.169 80.948 24.8504 80.2312 24.0938C79.5543 24.8903 78.5587 25.4478 77.4436 25.4478C75.1736 25.4478 74.1382 23.3769 74.1382 21.7442C74.1382 20.0319 75.0143 18.5583 76.2887 17.1246C75.6515 15.8502 75.1736 14.775 75.1736 13.3016C75.1736 11.4299 76.448 10.1953 78.2799 10.1953C80.1913 10.1953 81.2268 11.7485 81.2268 13.2618C81.2268 15.1334 80.3108 15.8901 79.2357 17.1644C79.4747 17.9211 79.9127 18.5982 80.271 19.315C80.4701 18.5982 80.5896 17.9211 80.6692 17.2043L82.7401 17.6423C82.541 19.076 82.2224 20.4699 81.625 21.7839C81.9834 22.3813 82.4613 22.6202 83.1383 22.7795V25.169H82.9392ZM82.7799 23.0185C82.0631 22.8592 81.625 22.4211 81.2666 21.8237C81.864 20.5893 82.1826 19.2752 82.3817 17.8813L80.948 17.6025C80.8285 18.4787 80.6294 19.315 80.3506 20.1115C79.8331 19.1159 79.2357 18.1999 78.8374 17.1246C79.9127 15.8502 80.8683 15.0936 80.8683 13.2618C80.8683 11.868 79.9525 10.514 78.2799 10.514C76.6471 10.514 75.4922 11.629 75.4922 13.3016C75.4922 14.8148 76.0497 15.8901 76.6471 17.2043C75.4922 18.4787 74.4567 19.9522 74.4567 21.7442C74.4567 23.2973 75.4126 25.1292 77.4436 25.1292C78.6383 25.1292 79.5145 24.492 80.1913 23.576C80.948 24.4123 81.625 24.8106 82.7799 24.8106V23.0185ZM76.8064 20.9478C76.8064 21.8238 77.2046 22.8991 78.0808 22.8991C78.5189 22.8991 78.718 22.5805 78.8773 22.3017L77.3639 19.4743C77.0055 19.8725 76.8064 20.3505 76.8064 20.9478ZM79.2755 22.3415C78.9967 22.7796 78.5985 23.2176 78.041 23.2176C77.0055 23.2176 76.4878 21.784 76.4878 20.9478C76.4878 20.0717 76.8064 19.554 77.4038 18.9168L79.2755 22.3415ZM88.1162 15.7706C88.1162 15.3325 88.1959 12.7441 87.3198 12.7441C86.2446 12.7441 86.3641 17.2043 86.3641 17.6822C86.3641 22.1424 86.7624 22.8991 87.2799 22.8991C88.3552 22.8991 88.2756 20.231 88.2756 19.5539H90.7845V19.7133C90.8243 22.0627 90.5455 25.4478 87.2401 25.4478C83.3773 25.4478 83.3375 20.1513 83.3375 17.6822C83.3375 15.3724 83.6959 10.1953 87.2401 10.1953C90.5455 10.1953 90.7845 13.4211 90.7447 15.7706V15.9697H88.1162V15.7706ZM90.4659 15.6113C90.4261 13.222 90.1075 10.514 87.2401 10.514C84.0543 10.514 83.6959 15.2131 83.6959 17.6822C83.6959 20.3505 83.7755 25.1292 87.2401 25.1292C90.1075 25.1292 90.4659 22.2618 90.5057 19.8725H88.5941C88.5941 20.7486 88.5941 23.2176 87.2799 23.2176C86.3641 23.2176 86.0455 21.8636 86.0455 17.6822C86.0455 16.6468 85.926 12.4255 87.3198 12.4255C88.5145 12.4255 88.4348 14.9343 88.4348 15.6113H90.4659ZM95.0057 22.222C94.0499 22.222 93.6519 21.3859 92.935 21.3859C92.5766 21.3859 92.258 21.6248 91.9792 21.9433L91.581 21.3461C92.0987 20.4699 92.8554 19.7531 93.8112 19.7531C94.727 19.7531 95.1252 20.5894 95.842 20.5894C96.2403 20.5894 96.519 20.3504 96.7978 20.0716L97.1961 20.6691C96.6784 21.4656 95.9217 22.222 95.0057 22.222ZM96.758 20.5097C96.5191 20.7487 96.2005 20.908 95.842 20.908C95.0455 20.908 94.6473 20.1115 93.8112 20.1115C93.0545 20.1115 92.3775 20.6691 91.9394 21.3461L92.0191 21.4655C92.258 21.2266 92.5766 21.0673 92.935 21.0673C93.7315 21.0673 94.1296 21.9034 95.0057 21.9034C95.7624 21.9034 96.3996 21.3063 96.8376 20.6691L96.758 20.5097ZM94.4482 10.2352C96.997 10.2352 97.435 12.7839 97.435 14.775C97.435 16.7662 96.997 19.315 94.4482 19.315C91.9394 19.315 91.4615 16.7662 91.4615 14.775C91.4615 12.7839 91.9394 10.2352 94.4482 10.2352ZM94.4482 18.9566C96.758 18.9566 97.1164 16.5671 97.1164 14.775C97.1164 12.9831 96.758 10.5538 94.4482 10.5538C92.1385 10.5538 91.8199 12.9831 91.8199 14.775C91.8199 16.5671 92.1385 18.9566 94.4482 18.9566ZM94.4482 17.4831C94.6871 17.4831 94.9261 17.2043 94.9261 14.775C94.9261 13.9389 94.9261 12.0671 94.4482 12.0671C94.0101 12.0671 93.9703 12.9831 93.9703 14.775C93.9703 17.045 94.2092 17.4831 94.4482 17.4831ZM95.2447 14.775C95.2447 17.4035 94.9659 17.8017 94.4482 17.8017C94.0101 17.8017 93.6519 17.4035 93.6519 14.775C93.6519 13.5406 93.6917 12.7839 93.8112 12.3459C93.9305 11.7884 94.2092 11.7087 94.4482 11.7087C95.0057 11.7087 95.2447 12.3857 95.2447 14.775Z" fill="#202020"/>
</g>
</svg>
