<svg width="98" height="36" viewBox="0 0 98 36" fill="none" xmlns="http://www.w3.org/2000/svg">
<g id="Group">
<g id="layer1">
<path id="path14148" d="M49.1003 24.0073C20.828 24.0073 0.758789 25.7401 0.758789 25.7401V26.5078H50.7673L51.2936 24.0073C50.6576 23.9854 49.8899 24.0073 49.1003 24.0073ZM52.807 24.0073L52.3464 26.5078H97.9682V25.7401C97.9902 25.7401 79.1273 24.1389 52.807 24.0073Z" fill="#202020"/>
<path id="path14156" d="M13.1078 9.13623L10.4539 21.6383H19.9949L20.3678 19.2914H13.8536L14.4677 16.4182H20.3678L20.8284 13.9177H14.9283L15.4547 11.5709H22.0567L22.4296 9.13623H13.1078ZM45.0211 12.185C41.2924 12.185 39.8009 14.159 39.1868 17.0323C38.5727 19.9056 39.9983 21.9674 42.9813 21.9674C46.5126 21.9674 48.2015 19.9933 48.8156 17.12C49.4078 14.2248 48.4427 12.185 45.0211 12.185ZM66.2966 12.185C62.5679 12.185 61.1423 14.159 60.5281 17.0323C59.914 19.9056 61.2739 21.9674 64.2349 21.9674C67.2617 21.9674 68.9506 20.5197 69.7622 18.3263H66.9766C66.6037 19.2256 65.9896 19.8398 64.6955 19.8398C63.0285 19.8398 62.875 18.4141 63.1821 16.9665C63.4892 15.5189 64.2349 14.0932 65.9018 14.0932C67.1959 14.0932 67.5469 14.9925 67.503 16.0672H70.2227C70.3982 13.7423 69.3015 12.185 66.2966 12.185ZM56.5362 12.3385C55.7027 12.3385 54.3429 12.5359 53.6629 13.2378L53.8165 12.5579H51.0967C51.009 13.1501 48.2892 26.5076 48.2892 26.5076H50.9432L52.0837 21.0461C52.6101 21.8577 54.0797 22.0331 54.7377 22.0331C57.4136 22.0331 58.6418 19.445 59.1244 17.0981C59.6288 14.6415 59.1244 12.3385 56.5362 12.3385ZM76.6931 12.3385C71.9335 12.2069 72.1529 15.2996 72.1529 15.2996H74.6533C74.6533 15.2996 74.6094 14.0932 76.3861 14.0932C76.3861 14.0932 77.9872 14.0274 77.7459 15.146C77.7459 15.146 77.7021 16.133 76.6054 16.0453C76.6054 16.0453 71.3195 15.4969 70.9246 19.3792C70.9246 19.3792 70.7053 22.0989 73.7979 22.0989C73.7979 22.0989 75.8377 22.0331 76.7589 21.0461C76.7589 21.0461 77.0222 21.6602 77.8995 21.6602H79.4129L79.8735 19.8398L79.6542 19.6862C79.6542 19.6862 79.4787 19.7082 79.5884 19.2257L80.5754 14.4441C80.9702 12.3605 76.6931 12.3385 76.6931 12.3385ZM23.3288 12.5579L22.0348 18.458C21.969 18.7651 21.8593 19.3353 21.8813 19.9056C21.9251 21.2216 23.5482 21.8796 24.4475 21.8796C25.7196 21.8796 26.5312 21.5725 27.1672 21.0461V21.6602H29.887C29.9528 21.1119 30.0186 20.6075 30.1063 20.0591L31.7075 12.5579H28.9877L27.8472 17.778C27.5182 19.116 26.5531 19.3792 25.8732 19.3792C24.7107 19.3792 24.6229 18.8747 24.8203 18.0193L26.0267 12.5579H23.3288ZM33.5718 12.5579C33.4622 13.2378 31.7513 21.6602 31.7513 21.6602H34.6247L35.6117 16.9665C35.7433 16.3743 35.6994 15.7601 36.0722 15.2337C36.3793 14.817 37.1251 14.6635 37.5857 14.6196H38.8797L39.4061 12.5798C38.1559 12.5798 37.3444 12.5578 36.2916 13.2597V12.5798L33.5718 12.5579ZM83.0539 12.5579C82.9442 13.2378 81.2334 21.6602 81.2334 21.6602H84.1067L85.0059 16.9665C85.1375 16.3743 85.1595 15.7601 85.5324 15.2337C85.8394 14.817 86.5851 14.6635 87.0458 14.6196H88.2521L88.8663 12.5798C87.616 12.5798 86.8045 12.5578 85.7517 13.2597V12.5798L83.0539 12.5579ZM44.6263 14.0713C46.2933 14.0713 46.381 15.5847 46.0739 17.0323C45.7669 18.4799 45.2624 19.8398 43.42 19.8398C41.753 19.8398 41.5995 18.4141 41.9066 16.9665C42.2136 15.497 42.9594 14.0713 44.6263 14.0713ZM55.308 14.4441C56.5582 14.4441 56.8872 15.6286 56.602 17.0104C56.295 18.4141 55.5711 19.5766 54.1674 19.5766C52.6979 19.5766 52.5443 18.2606 52.8075 17.0104C53.0927 15.7602 53.8384 14.4441 55.308 14.4441ZM77.066 17.6245C77.066 17.6245 76.6712 20.1249 74.6314 20.1249C74.6314 20.1249 73.4909 20.1907 73.4909 19.2914C73.4909 19.2914 73.5128 18.129 75.1578 17.9316C75.1797 17.9316 76.4519 17.8438 77.066 17.6245Z" fill="#202020"/>
</g>
</g>
</svg>
