<svg width="98" height="36" viewBox="0 0 98 36" fill="none" xmlns="http://www.w3.org/2000/svg">
<g id="Group">
<g id="Group_2">
<path id="Vector" d="M7.06806 13.3974C6.7247 13.0852 6.32163 12.8456 5.8832 12.6934C5.39693 12.5299 4.88637 12.4505 4.37344 12.4586H0.435303V23.1619H2.56943V19.3837H4.37198C4.88604 19.3888 5.39698 19.3037 5.8817 19.1325C6.31975 18.9794 6.72266 18.74 7.06656 18.4285C7.39751 18.1211 7.66151 17.7488 7.84202 17.3349C8.02919 16.8893 8.12261 16.41 8.11645 15.9268C8.12147 15.4437 8.02809 14.9646 7.84202 14.5187C7.66774 14.0931 7.40315 13.7104 7.06656 13.397L7.06806 13.3974ZM5.52614 17.0395C5.21432 17.3407 4.79005 17.4966 4.35738 17.469H2.57094V14.3882H4.35738C4.78829 14.3609 5.21131 14.513 5.52614 14.8085C5.80638 15.1056 5.9547 15.5034 5.93743 15.9114C5.95549 16.3273 5.80708 16.7333 5.52503 17.0395H5.52614Z" fill="#202020"/>
<path id="Vector_2" d="M18.2867 17.7523C18.6206 17.1968 18.7902 16.5581 18.7761 15.9101C18.7804 15.4269 18.6863 14.9478 18.4995 14.5021C18.3221 14.0857 18.0576 13.712 17.724 13.4062C17.3807 13.0939 16.9776 12.8544 16.5392 12.7022C16.053 12.5386 15.5424 12.4591 15.0294 12.4674H11.0928V23.1706H13.2269V19.3921H14.7756L17.4863 23.1587H19.8881L16.9486 18.9603C17.4995 18.6917 17.9634 18.273 18.2867 17.7523ZM16.1821 17.0295C15.8684 17.327 15.4448 17.4801 15.0133 17.452H13.2269V14.3861H15.0133C15.4443 14.3585 15.8675 14.5107 16.1821 14.8064C16.4624 15.1035 16.6107 15.5013 16.5934 15.9093C16.6133 16.3228 16.465 16.7266 16.1825 17.0291L16.1821 17.0295Z" fill="#202020"/>
<path id="Vector_3" d="M25.4354 12.4561H23.3013V23.1593H25.4354V12.4561Z" fill="#202020"/>
<path id="Vector_4" d="M36.6025 18.8465L30.5661 12.2661H29.8557V23.1545H31.9899V16.7397L38.0427 23.3492H38.7382V12.4609H36.604L36.6025 18.8465Z" fill="#202020"/>
<path id="Vector_5" d="M42.3967 14.452H45.7341V23.177H47.8652V14.452H51.2164V12.4741H42.3967V14.452Z" fill="#202020"/>
<path id="Vector_6" d="M56.9935 18.49H60.5963V16.6243H56.9935V14.452H61.8772V12.4741H54.8594V23.1774H62.0672V21.1992H56.9935V18.49Z" fill="#202020"/>
<path id="Vector_7" d="M71.2907 18.1654L66.8964 12.3623H66.186V23.2556H68.3198V17.5321L70.9434 20.9192H71.6388L74.2785 17.5321V23.2556H76.4126V12.3623H75.7172L71.2907 18.1654Z" fill="#202020"/>
<path id="Vector_8" d="M87.9414 14.4719C87.7639 14.0562 87.4995 13.6833 87.166 13.3783C86.8226 13.066 86.4195 12.8266 85.9811 12.6743C85.4948 12.5109 84.9843 12.4315 84.4713 12.4395H80.5276V23.1428H82.6625V19.3651H84.465C84.979 19.3701 85.49 19.2851 85.9747 19.1138C86.4137 18.9571 86.8166 18.7137 87.1596 18.3982C87.4911 18.0913 87.7552 17.7188 87.935 17.3045C88.1224 16.859 88.2158 16.3798 88.2095 15.8965C88.2184 15.4083 88.1271 14.9235 87.9414 14.4719ZM85.6233 17.0181C85.3115 17.3193 84.8872 17.4753 84.4545 17.4477H82.6681V14.3736H84.4545C84.8859 14.346 85.3093 14.4991 85.6233 14.7961C85.9038 15.0931 86.0521 15.4909 86.0345 15.899C86.0488 16.3123 85.8983 16.7143 85.6162 17.0166L85.6233 17.0181Z" fill="#202020"/>
<path id="Vector_9" d="M96.9731 18.2863C96.4241 17.7469 95.7785 17.3157 95.07 17.0151L93.8874 16.4875C93.5699 16.3463 93.2678 16.1727 92.986 15.9693C92.7735 15.7995 92.656 15.5377 92.6704 15.2661C92.6477 14.9553 92.7925 14.656 93.0503 14.4809C93.3232 14.3075 93.642 14.2202 93.9652 14.2301C94.3658 14.2211 94.7598 14.3339 95.0951 14.5535C95.4406 14.795 95.7339 15.1035 95.9576 15.4608L97.4102 14.3096C97.0989 13.7191 96.6393 13.2198 96.0765 12.8608C95.4402 12.462 94.6997 12.2612 93.9491 12.284C93.4878 12.2802 93.0289 12.3514 92.5904 12.4948C92.1901 12.6231 91.8193 12.8294 91.4994 13.102C91.193 13.3667 90.9451 13.6924 90.7718 14.0584C90.588 14.4515 90.4958 14.8811 90.5019 15.315C90.497 15.6643 90.5616 16.0109 90.6918 16.335C90.8191 16.6369 90.9953 16.9157 91.2134 17.1602C91.4475 17.4199 91.7161 17.6463 92.0116 17.8332C92.3393 18.0419 92.6801 18.2292 93.032 18.394L94.139 18.9122C94.4832 19.0624 94.8113 19.247 95.1183 19.4633C95.3568 19.6475 95.4874 19.9389 95.466 20.2395C95.485 20.5768 95.3412 20.9028 95.0794 21.1163C94.7637 21.3379 94.3823 21.4461 93.9973 21.4232C93.4465 21.4363 92.9061 21.2719 92.4558 20.9543C92.251 20.8109 92.0629 20.645 91.895 20.4597C91.7271 20.2777 91.5741 20.0825 91.4374 19.8761L89.9688 21.0108C90.7566 22.4983 92.3164 23.4138 93.9992 23.3764C94.4873 23.3806 94.973 23.3069 95.438 23.1584C95.8564 23.0229 96.2447 22.808 96.5817 22.5254C96.911 22.2484 97.1756 21.9027 97.3572 21.5126C97.5506 21.0915 97.6475 20.6325 97.6409 20.1692C97.6808 19.4773 97.4401 18.7985 96.9731 18.2863Z" fill="#202020"/>
</g>
</g>
</svg>
