<?xml version="1.0" encoding="UTF-8"?><svg id="Layer_1" xmlns="http://www.w3.org/2000/svg" viewBox="0 0 500 500"><defs><style>.cls-1{fill:none;}.cls-1,.cls-2,.cls-3{stroke-width:0px;}.cls-2{fill:#fff;}.cls-3{fill:#004b8d;}</style></defs><rect class="cls-3" x="47.5126574586" y="332.0509792602" width="404.9873425414" height="45.639045395"/><rect class="cls-3" x="47.5" y="122.3099753449" width="404.9847641702" height="197.3870899131"/><path class="cls-2" d="M163.1969068227,190.2315390358c0,3.1547543602,2.3247532316,5.7044118796,5.2003403103,5.7044118796,2.8830877948,0,5.2017466946-2.5496575194,5.2017466946-5.7044118796,0-3.1533479759-2.3186588997-5.7028882966-5.2017466946-5.7028882966-2.9768467475,0-5.2003403103,2.550946705-5.2003403103,5.7028882966"/><path class="cls-2" d="M105.4702228511,235.5874323937l13.5345736138-33.5042929446,14.6596810459,33.8304569013-28.1942546597-.3261639566ZM151.8478543958,254.1036535607c-1.3025462501-1.2282422801-2.6048581028-3.2643351362-3.9057635712-6.3107979061l-24.9063625867-58.8769891222h-3.7829393432l-23.7418763944,57.3211765012c-2.6894755576,6.1984043615-4.8206165519,8.9562067559-9.47059181,9.0464497478v3.8833786212l19.6577364158.0874302234.0201581748-3.9722152289h-.9073522645c-4.7259200097,0-5.2094818082-1.3186024707-5.2094818082-4.2762286329,0-1.219921173.4582468812-3.0561902612,1.4809226575-5.5849864136l2.0237869936-4.7008394899h32.3454322895l3.0703713028,6.8340900607c.45566851,1.1214742727.642952018,2.2304082855.642952018,3.1450268689,0,3.4740035941-2.0376164391,4.4926946149-7.1545112815,4.5829376069v3.7140265129h26.8349842433v-3.604445737c-2.3083454149,0-5.6105357282.0360971968-6.9974650357-1.2880136124"/><path class="cls-2" d="M157.1407816719,258.9961129101h24.9909800415v-3.6126496454c-5.3864518313-.1013768676-8.26203891-1.8362690882-8.26203891-7.5405637691v-39.236480914l-17.0226410508.0166422141-.0077351136,3.485020271,3.9247497591.4121877957c3.7412166092.2012301522,4.686775647,6.0749941401,4.686775647,11.2685369263l-.1469671583,23.7486739185c0,6.0180355763-2.2148208596,7.6419406367-8.1631232149,7.8459835575v3.6126496454Z"/><path class="cls-2" d="M187.6764317773,258.9961129101h25.2996813932v-3.5862799399c-6.3191190131-.3068261726-8.1012423061-.8494561113-8.1012423061-6.656534044,0,0-.6099019872-23.1754551216,0-25.4752450321,1.2821536779-4.8799190895,5.5826424398-7.9403285036,7.6127581627-8.1776558526,5.1168948424-.609198795,6.2319231871,3.5531127104,6.2319231871,3.5531127104l5.4724756704-5.1186528227s-2.0235525962-5.9847511481-8.2681332419-5.9847511481c-6.373733603,0-10.5907768971,6.6009818646-11.6286885032,11.0673067741l.1303249442-9.5669291338-16.4075823212.1137999288-.0632872931,2.8091354209h1.4795162733c7.1786542118.0222677513,6.706577885,5.8279392998,6.706577885,11.336512167l.1556398614,25.2782340328c0,6.1109741382-2.8626952226,6.4190894964-8.6199637118,6.8188542309v3.5890927085Z"/><path class="cls-2" d="M246.4989235083,228.1579729835c-1.6149979599,0-3.6183923812-.2220915192-3.6183923812-.2220915192v-32.2107709937s3.5033032668-.1291529573,5.4788043997-.1707584926c20.5336794312-.3748014133,21.1930392659,9.927783903,21.1930392659,17.0214690639,0,6.9770724635-.7519468005,15.5821519416-23.0534512844,15.5821519416M252.7702254556,190.1136371529l-27.8743022337.1776732153v3.5878035229c7.9861531917.295692297,8.6734063148,2.5565722421,9.1023535233,4.8022163575v45.7319839568c0,9.1671643994-1.3023118527,11.5057470766-9.1023535233,11.5057470766v3.2464037365h27.6804555991v-3.2464037365c-8.2632108969-.0943449461-9.5655227496-2.1414544792-9.5655227496-11.5057470766v-10.8938527116h4.5892663362c7.2480358368,0,14.185026348-.6369748848,18.713349365-2.0485159173,9.1846270043-3.2103065397,12.6183142488-11.0644940055,12.6183142488-19.3143442516-.0011719869-16.398206426-11.1158270321-22.0429641719-26.1615605657-22.0429641719"/><path class="cls-2" d="M279.7064693677,259.3402082664h25.1745131914v-3.9998741199c-5.2080754239-.1139171275-8.5266735539-1.0701412461-8.5266735539-6.7827570341l-.1429824028-58.4439399595h-16.9909974043v3.2476929221l3.1198291503.1443887871c4.546137218,0,5.6117077152,2.1401652936,5.6117077152,7.326793357l-.1544678745,46.8756087821c0,6.0180355763-2.1515335666,7.5738481973-8.0897568344,7.7778911181v3.8541961472h-.0011719869Z"/><path class="cls-2" d="M353.2165354331,245.5983101685v-36.4564107684l-17.1342142045.0263697054v3.3421550669c6.2333295714,0,8.5784753753,1.3253999948,8.5784753753,7.2156889981,0,0,.9326671818,21.6626544201-.8074989799,26.8951071717-.9884537586,2.9494222539-6.9773068609,11.1782939343-15.71657884,8.2803219057-6.8052591827-2.2608799451-6.788851366-6.8521386591-6.788851366-15.5044492096v-30.2551936383l-16.9136462683.0263697054v3.3421550669h.3834741165c6.128085147,0,8.4455720598,1.8264243982,8.4455720598,8.4440484769v18.2247480228c0,15.1991466199,3.0272421846,19.2989912231,13.6318485272,21.0131392755,5.6928092092.9312607975,13.3979199403-.8494561113,18.1503268541-9.6946757069v8.6884077473l16.6075232878-.2040429208v-3.9347116478c-.8339858841.0929385618-2.8336299473-.1443887871-4.0738264938-.4843821893-3.60596932-.9896257455-4.3626040681-4.5760228841-4.3626040681-8.9646450616"/><path class="cls-2" d="M367.7001840454,258.9961129101h2.9234041445c.2798704737-1.2227339416-.0417227339-3.2268315551,1.1544071049-3.2268315551,2.5045360234,0,5.3180077959,5.1352950368,16.3100730104,3.7362942642,7.8239502036-.9938448984,13.8585107953-6.5620718992,13.8585107953-14.7993818854,0-5.7030054953-1.8072038129-9.1547413382-7.4709477467-12.5329936018,0,0-4.6701334329-2.244237731-12.0070058773-4.6716570159-7.7442550938-2.5746208405-7.2166265876-5.8570045751-7.349529903-7.4711821441-.310107736-3.7488345241,3.7147297051-7.2713583762,7.9760741043-7.691867279,4.6942763632-.4663335909,13.0334320117,1.4198621396,14.3357438644,9.1450138468h3.492989782l-.0506298344-12.9285391834h-3.2867200861c-.3722230421,1.122880657-.8696142861,3.1283846548-1.7061785414,3.1283846548-1.4881889764,0-6.0760489283-4.4870690778-12.1549106252-4.1304334615-8.5836321176.5107518947-16.0595022094,6.5884416047-16.0595022094,14.2387033484,0,5.6002222434,2.5614945872,9.8681297693,7.5848648743,12.5870221983,5.0447004488,2.7383474116,11.0844177829,4.5829376069,14.1496323434,5.7640660133,3.0488067437,1.1560478865,5.0751721084,3.6945715303,5.0751721084,7.5655270903,0,4.5953606681-4.2676731285,7.6320959467-9.2099419215,7.6320959467-5.8432923283,0-12.356257976-1.0186910208-14.4787262673-10.6994200835h-3.0856071326v14.3551988471h-.0011719869Z"/><rect class="cls-2" x="88.3252263671" y="343.4721088819" width="3.2501540946" height="21.7528974121"/><rect class="cls-2" x="293.5919358619" y="343.4721088819" width="3.2438253653" height="21.7528974121"/><polygon class="cls-2" points="105.5792176336 343.4717572859 108.9671973886 343.4717572859 118.215111686 359.874241464 118.3531717438 359.874241464 118.3531717438 343.4717572859 121.4790952261 343.4717572859 121.4790952261 365.2246546979 118.1443236767 365.2246546979 108.8432011737 348.823576904 108.6950620285 348.8319566104 108.6950620285 365.2260610822 105.5792176336 365.2260610822 105.5792176336 343.4717572859"/><polygon class="cls-2" points="213.5496835635 343.4717572859 216.9350849473 343.4717572859 226.1829992447 359.874241464 226.3222312894 359.874241464 226.3222312894 343.4717572859 229.4483891691 343.4717572859 229.4483891691 365.2246546979 226.1096328642 365.2246546979 216.8085103612 348.823576904 216.6643559715 348.8319566104 216.6643559715 365.2260610822 213.5496835635 365.2260610822 213.5496835635 343.4717572859"/><polygon class="cls-2" points="338.3606637786 343.4717572859 341.7448931756 343.4717572859 350.996557831 359.874241464 351.1346178889 359.874241464 351.1346178889 343.4717572859 354.2631197423 343.4717572859 354.2631197423 365.2246546979 350.9217850663 365.2246546979 341.6208969607 348.823576904 341.4765081735 348.8319566104 341.4765081735 365.2260610822 338.3606637786 365.2260610822 338.3606637786 343.4717572859"/><polygon class="cls-2" points="132.3066134787 343.4717572859 148.158439608 343.4717572859 148.158439608 346.5418355919 141.760797472 346.5418355919 141.760797472 365.2246546979 138.6662832389 365.2246546979 138.6662832389 346.5418355919 132.3066134787 346.5418355919 132.3066134787 343.4717572859"/><polygon class="cls-2" points="266.1186875483 343.4717572859 281.9730920487 343.4717572859 281.9730920487 346.5418355919 275.5702931704 346.5418355919 275.5702931704 365.2246546979 272.4783573084 365.2246546979 272.4783573084 346.5418355919 266.1186875483 346.5418355919 266.1186875483 343.4717572859"/><polygon class="cls-2" points="158.3509753535 343.4717572859 172.4422427489 343.4717572859 172.4422427489 346.5238455929 161.5833152471 346.5238455929 161.5908159633 352.5668444904 171.6600586862 352.5668444904 171.6525579699 355.4148312773 161.6149588936 355.4148312773 161.6149588936 362.2530818915 172.6548411741 362.2530818915 172.6548411741 365.2246546979 158.3509753535 365.2246546979 158.3509753535 343.4717572859"/><path class="cls-2" d="M188.0751417236,353.5952630025h5.8789207303c2.3552248913,0,3.7121513339-1.2324614329,3.7121513339-3.6377301652,0-2.7702840549-1.6201547023-3.5266844056-3.7527020809-3.5266844056h-5.8458706995l.0075007162,7.1644145708ZM184.9897689884,343.4717572859h9.1668128033c4.3321324085,0,6.5003081891,2.3539357057,6.5003081891,5.9583814427,0,4.1734453811-2.6883035707,5.1616647423-3.3223484881,5.4073131983l-.0037503581.0846760541c1.1883947252.1887484916,3.0413060275,1.1575128702,3.0413060275,4.5981734367,0,2.5343630902.3164364653,4.8216127408,1.0592417679,5.7043532803h-3.3221140908c-.5278629036-.9438010574-.5430987334-2.1332505708-.5278629036-3.1963598955.0532082056-4.0194463013-1.0022832041-5.9916658709-4.195478735-5.9916658709h-5.275113075v9.1880257664h-3.1210011373v-21.7528974121Z"/><path class="cls-2" d="M246.1470930384,356.7319687644h6.6976707845l-3.1742093429-9.7612445633h-.3340162689l-3.1894451727,9.7612445633ZM247.9076517723,343.4717572859h3.2867200861l7.641823438,21.7528974121h-3.2944551997l-1.9541709712-5.9250384151h-8.2151594336l-1.9855802203,5.9250384151h-3.090763875l7.6115861758-21.7528974121Z"/><path class="cls-2" d="M371.076912726,356.7319687644h6.6962644003l-3.1702245874-9.7612445633h-.3342506663l-3.1917891465,9.7612445633ZM372.8374714599,343.4717572859h3.2867200861l7.6406514511,21.7528974121h-3.2895328547l-1.9539365738-5.9250384151h-8.2151594336l-1.9858146177,5.9250384151h-3.0945142331l7.6115861758-21.7528974121Z"/><path class="cls-2" d="M311.79383014,354.4030549792c0,4.4829671236,1.9061195079,8.6203739072,6.3584977732,8.6203739072,4.504414484,0,6.438192883-4.0291151933,6.438192883-8.5523400672,0-4.3608460877-1.933778399-8.7841590777-6.4419432411-8.7841590777-4.3703391817-.0014063843-6.3547474151,4.2067884086-6.3547474151,8.7161252377M327.5952608322,354.3447486305c0,6.2220784971-3.4451727161,11.3559671496-9.3934750714,11.3559671496-5.9422080233,0-9.4138676436-5.1089253314-9.4138676436-11.3212177378,0-6.215105175,3.4716596203-11.3823368551,9.4138676436-11.3823368551,5.9483023553-.0014063843,9.3934750714,5.1325408676,9.3934750714,11.3475874432"/><polygon class="cls-2" points="395.1492894287 343.4717572859 398.2688841817 343.4717572859 398.2688841817 362.1296130707 408.3964918525 362.1296130707 408.3964918525 365.2232483136 395.1492894287 365.2232483136 395.1492894287 343.4717572859"/><rect class="cls-1" width="500" height="500"/></svg>