<?xml version="1.0" encoding="UTF-8"?><svg id="Layer_1" xmlns="http://www.w3.org/2000/svg" viewBox="0 0 500 500"><defs><style>.cls-1{fill:#00b6ff;}.cls-1,.cls-2,.cls-3,.cls-4{stroke-width:0px;}.cls-2{fill:none;}.cls-3{fill:#1677ff;}.cls-4{fill:#000;}</style></defs><path class="cls-4" d="M108.132725749,199.7239400946v83.5793975038h18.0893268684v-83.5793975038h-18.0893268684ZM25,283.3033375984h16.6935290772l4.5782077759-15.8002603933h28.7531052647l4.3548531921,15.8002603933h21.3833767322l-24.3424321331-80.7320006884h-24.2866121936l-27.1340277154,80.7320006884ZM50.0682409985,254.3269151627l10.7754182754-37.1835997127h.4467091676l10.1612492892,37.1835997127h-21.3833767322ZM197.4069168837,284.0849664033c16.1352548562,0,30.7072521026-11.8920415432,30.7072521026-33.107921044,0-18.9826329652-10.5521385172-30.3163628745-23.5608033282-30.3163628745-6.6439196672,0-11.7804016641,2.5123836461-17.6426925264,7.3138711802v-6.0297506809h-18.0893268684v80.8436592739h18.0893268684v-20.0434362934c3.4056897429.8933060968,6.9230941905,1.3957977911,10.4962437521,1.3399404388h0ZM271.0483822693,283.3033375984h18.0893268684l-2.177426596-15.3535886385v-25.6265526324c0-13.9578282601-8.2629972165-21.6625138427-22.7790996977-21.6625138427-9.2680554308,0-15.6886205142,1.6190775493-27.3573822992,5.1364819969l3.1824099847,14.0694681392c10.6637783963-4.801487534,15.3536260513-6.8672368382,20.2667534644-6.8672368382,5.9739307414,0,8.5979916794,4.2431759002,8.5979916794,10.7754182754v.4466717548c-20.7133878064,3.9081814372-27.1339528898,6.0856080333-31.1538116189,10.0496094101-2.9590554009,2.9590554009-4.243213313,7.2022313011-4.243213313,12.115396127,0,11.7804016641,9.1563407261,18.0893268684,17.7543324055,18.0893268684,6.420639909,0,11.557121906-2.400743767,18.536036036-7.6489030559l1.2840830864,6.4764224357h0ZM138.5608033282,221.944802984v61.3585346143h18.0893268684v-61.3585346143h-18.0893268684ZM351.389512436,222.0564428631l.1116398791-.1116398791h-17.0285235401l-10.7753434498,37.2952770046h-.5583490467l-12.3945706504-37.2952770046h-20.2666786388l24.3982520727,61.5818517853-10.1613241148,18.7593157942v.446634342h15.9119002724l30.7629972165-80.6761620424ZM197.6302714675,234.7859705636c6.7555595463,0,12.115396127,5.3597991679,12.115396127,16.8052063692,0,14.6278171859-7.872182814,21.1600595612-16.6935290773,21.1600595612-2.1216066565,0-4.1873185478-.2791745233-6.1972853252-.8933060968v-33.2195983359c3.7965041453-2.624060938,6.9230941905-3.9081814372,10.7754182754-3.8523614977h0ZM251.0049833887,264.6556990961c0-1.7307548412.3349944629-3.4615470953,1.7307174284-4.801487534,2.177426596-2.177426596,6.420639909-3.7965041453,16.1352548562-6.0856080333v14.6277797731c-4.8014875341,2.6240983508-7.5371883511,3.6848642662-10.7754182754,3.6848642662-4.3548531921,0-7.0905540091-2.847378109-7.0905540091-7.4255484721Z"/><path class="cls-3" d="M137.2208254766,207.1495072731c0,5.9739494478,4.3548531921,9.9379508246,10.4404986382,9.9379508246,6.0855706205,0,10.4404238125-4.0198400227,10.4404238125-9.9379508246-.0558199395-5.8064522163-4.4106731316-9.937969531-10.4962437521-9.937969531-6.0856454461,0-10.3846786986,4.1315173147-10.3846786986,9.937969531Z"/><path class="cls-3" d="M475,261.3058292927h-41.0918559756c-11.2778725569,0-20.4901080482-9.1563407261-20.4901080482-20.4900706354h51.6439196672c5.4715512855,0,9.8822244171,4.4106731316,9.8822244171,9.8821121786l.0558199395,10.6079584568h0Z"/><path class="cls-1" d="M372.3821495914,240.8157586573h31.0979916794v20.4900706354h-21.2159169136c-5.4714016342,0-9.8820747658-4.4106731316-9.8820747658-9.8821495914h0v-10.607921044h0Z"/><path class="cls-3" d="M433.9081440244,209.6060709796v51.6439383736h0c-11.2778725569,0-20.4901080482-9.1563407261-20.4901080482-20.4342506959h0v-41.0918185628h10.6080332825c5.4714016342,0,9.8820747658,4.4665117776,9.8820747658,9.882130885Z"/><path class="cls-1" d="M433.9081440244,271.2996187633v31.0421717399h-10.6078836311c-5.4714016342,0-9.8822244171-4.4106731316-9.8822244171-9.8821121786h0v-21.1600595612h20.4901080482Z"/><rect class="cls-2" width="500" height="500"/></svg>