<?xml version="1.0" encoding="UTF-8"?><svg id="Layer_1" xmlns="http://www.w3.org/2000/svg" viewBox="0 0 500 500"><defs><style>.cls-1{fill:none;}.cls-1,.cls-2,.cls-3,.cls-4{stroke-width:0px;}.cls-2{fill:#1677ff;}.cls-3{fill:#000;}.cls-4{fill:#fff;}</style></defs><g id="layer1"><g id="g3989"><path id="path3991" class="cls-2" d="M120.0287186806,193.4988673055H43.8746476871c-9.9174966593,0-17.9488645535,8.1022856728-17.9488645535,18.1033953091v76.7986523557c0,9.9947600183,8.0313678942,18.1002177243,17.9488645535,18.1002177243h76.1540709935c9.9153769236,0,17.9425134214-8.105457706,17.9425134214-18.1002177243v-76.7986563933c0-10.0011055987-8.0271364979-18.1033912715-17.9425134214-18.1033912715"/></g><g id="g3993"><path id="path3995" class="cls-4" d="M56.2014400471,280.3982462794c-17.4312917016,0-22.58478924-13.8474463796-13.9702245029-21.4236908561,2.874697818-2.5603440332,8.1276876777-3.8103501912,10.9282946745-4.0908336267,10.3546255392-1.0319701379,19.9397728666,2.9519621864,31.2512178546,8.5203646893-7.9509289692,10.4604684879-18.0779917902,16.9941597935-28.2092880263,16.9941597935M118.1767802439,264.4540491428c-4.4835116478-1.5146147915-10.4996285873-3.8304604271-17.2005534173-6.2754343088,4.024154815-7.0554980773,7.2386069085-15.0900435564,9.3512324676-23.8220951525h-22.0862697843v-8.0229051016h27.0556006424v-4.4782183648h-27.0556006424v-13.3743253959h-11.0415460997c-1.9369277279,0-1.9369277279,1.9284588788-1.9369277279,1.9284588788v11.4458665171h-27.3636043045v4.4782183648h27.3636043045v8.0229051016h-22.5921997352v4.4771605157h43.8169059487c-1.6035215562,5.571578069-3.756369606,10.802343004-6.311422375,15.554695691-14.2178954383-4.7311856114-29.389438797-8.5658784443-38.9206050345-6.2055789216-6.0955015483,1.5146137821-10.0212198723,4.2178461746-12.3275398192,7.0502068131-10.5853628141,12.9890583748-2.9932425262,32.7182026883,19.361868802,32.7182026883,13.2176804562,0,25.9505980372-7.4322987728,35.8194033567-19.6804570114,14.7195944976,7.1359385165,43.8624161707,19.3883301701,43.8624161707,19.3883301701v-17.4619859801s-3.6600528507-.2942435488-19.7947667903-5.7430434945"/></g><g id="g3997"><path id="path3999" class="cls-2" d="M269.2229648008,210.0414951192c0,5.8457113819,4.2718252457,9.7809564039,10.2307895668,9.7809564039,5.9589638165,0,10.2307895668-3.9352445174,10.2307895668-9.7809564039,0-5.7335178058-4.271824741-9.782014253-10.2307895668-9.782014253-5.9589643212,0-10.2307895668,4.0484964472-10.2307895668,9.782014253"/></g><path id="path4001" class="cls-3" d="M240.6660916154,284.806260429h17.7636284055v-82.0729127998h-17.7636398506l.0000114451,82.0729127998Z"/><g id="g4003"><path id="path4005" class="cls-3" d="M183.6637917883,256.361783259l10.5673702951-36.539136922h.450891012l10.0064024146,36.539136922h-21.0246637217ZM209.5233648391,205.5444171626h-23.8358540041l-26.6459861849,79.26268569h16.4151983846l4.4972712564-15.5155330682h28.2198740876l4.2707668919,15.5155330682h21.025719552l-23.9469899834-79.26268569Z"/></g><path id="path4007" class="cls-3" d="M270.5720322189,284.806260429h17.7636398506v-60.2617210984h-17.7636398506v60.2617210984Z"/><g id="g4009"><path id="path4011" class="cls-3" d="M473.9630816677,224.6569964596l.1111351987-.1121936313h-16.7517795939l-10.5673713045,36.6513305533h-.562026739l-12.1423127663-36.6513305533h-19.9016701116l23.9491056816,60.4871858191-10.0064044334,18.4378573111v.4498361911h15.6277256349l30.2435984337-79.26268569Z"/></g><g id="g4013"><path id="path4015" class="cls-3" d="M321.2804126542,274.4631799601c-2.022660693,0-3.9352445174-.2243872626-6.0700990388-.8996659473v-32.6038942973c3.7097990114-2.585744524,6.7453777077-3.8230524554,10.5673702951-3.8230524554,6.6342424853,0,11.9179281376,5.2847435013,11.9179281376,16.5273919607-.0000010094,14.3904242646-7.7572376095,20.7992207392-16.415199394,20.7992207392M332.524119972,223.3081742769c-6.5209900507,0-11.5802880461,2.4735499385-17.3138058519,7.1952108706v-5.9589648258h-17.7657567317v79.3748802755h17.7657557223v-19.6751652424c3.3721596769.8996663258,6.519931697,1.3494984793,10.3429831429,1.3494984793,15.8521137965,0,30.13140082-11.6924816222,30.13140082-32.4916993333,0-18.66330635-10.3450998505-29.7937602238-23.1605760922-29.7937602238"/></g><g id="g4017"><path id="path4019" class="cls-3" d="M392.9011884915,270.1906970917c-4.7216584086,2.5857457857-7.4217147303,3.5976051829-10.5673702951,3.5976051829-4.2728835995,0-6.9708227089-2.8101329379-6.9708227089-7.307403942,0-1.6871383184.3365817377-3.3732180307,1.6850213585-4.7216581562,2.136971229-2.136971229,6.2976612523-3.7108578699,15.8531716456-5.9589638165v14.3904207317ZM410.6648285157,269.7408641181v-25.183235208c0-13.7172582657-8.0938173285-21.2490508739-22.3720444841-21.2490508739-9.1077939379,0-15.4033384827,1.5728277824-26.8714339621,5.0582386322l3.1467134139,13.8294528512c10.4562345681-4.7227167624,15.0667577544-6.7464345473,19.9016680928-6.7464345473,5.8467702403,0,8.4314574199,4.1596321743,8.4314574199,10.5684291536v.4498321535c-20.3504429019,3.8230504366-26.6459874467,5.9589648258-30.5812324688,9.8942078291-2.9223262617,2.9233851202-4.1585723064,7.0830167898-4.1585723064,11.9168687744,0,11.5802880461,8.9945435221,17.7646978733,17.4270582865,17.7646978733,6.2955445448,0,11.3537841863-2.3613583812,18.2134721777-7.5339083064l1.2362468017,6.2966034032h17.7636392671l-2.1369722384-15.0657017348Z"/></g></g><rect class="cls-1" width="500" height="500"/></svg>