<?xml version="1.0" encoding="UTF-8"?>
<svg width="140px" height="80px" viewBox="0 0 140 80" version="1.1" xmlns="http://www.w3.org/2000/svg" xmlns:xlink="http://www.w3.org/1999/xlink">
    <!-- Generator: Sketch 56.3 (81716) - https://sketch.com -->
    <title>amazon-pay</title>
    <desc>Created with Sketch.</desc>
    <g id="amazon-pay" stroke="none" stroke-width="1" fill="none" fill-rule="evenodd">
        <g id="card_amazon_pay" transform="translate(25.000000, 10.000000)">
            <path d="M2.99446106,0 C1.34066588,0 0,1.35277618 0,3.00428883 L0,57 L90,57 L90,3.00428883 C90,1.34506593 88.6579044,0 87.0055389,0 L2.99446106,0 Z" id="Rectangle-11" fill="#333E48"></path>
            <g id="Group-23" transform="translate(13.500000, 12.750000)" fill-rule="nonzero">
                <g id="Group-22" transform="translate(10.500000, 0.000000)" fill="#FFFFFF">
                    <path d="M29.6191919,0.861266874 C29.6631047,1.04897889 29.7179957,1.2366909 29.7948432,1.42440291 C31.6062467,5.90740741 33.406672,10.4014538 35.2290537,14.8844583 C35.3827485,15.2709242 35.4156831,15.5911388 35.2510101,15.9776047 C34.9436204,16.6622015 34.7130781,17.368882 34.3947103,18.0424368 C34.109277,18.6497404 33.6591707,19.0914157 33.0004785,19.2791277 C32.5393939,19.4005884 32.0673312,19.4226722 31.5842903,19.3785047 C31.353748,19.3564209 31.1232057,19.3012115 30.8926635,19.2901696 C30.5852738,19.2680858 30.4315789,19.4116303 30.4206007,19.7318449 C30.4096225,20.0410177 30.4096225,20.3501904 30.4206007,20.6483212 C30.4315789,21.1562478 30.596252,21.3881274 31.1012493,21.4764624 C31.6172249,21.5647975 32.1332004,21.6531326 32.6601542,21.6641745 C34.2300372,21.6973001 35.4815524,21.0679128 36.2939394,19.6876774 C36.6123073,19.1466251 36.9087188,18.5724472 37.139261,17.9872274 C39.3129452,12.455244 41.4756512,6.91221876 43.6383573,1.36919349 C43.7042265,1.20356525 43.7591175,1.037937 43.7810739,0.861266874 C43.8249867,0.596261682 43.7042265,0.463759086 43.4407496,0.452717203 C42.8259702,0.44167532 42.2221691,0.452717203 41.6073897,0.452717203 C41.2670654,0.452717203 41.0255449,0.607303565 40.9047847,0.927518172 C40.8608719,1.04897889 40.8059809,1.18148148 40.762068,1.30294219 L37.567411,10.5449983 C37.3368687,11.2185531 37.1063264,11.8810661 36.8538278,12.5987885 C36.8099149,12.4994116 36.7879585,12.4442021 36.7660021,12.3889927 C35.5803562,9.08746971 34.3947103,5.77490481 33.2090643,2.47338179 C33.0224349,1.95441329 32.8248272,1.42440291 32.6272196,0.905434406 C32.5284157,0.629387331 32.3308081,0.463759086 32.0343966,0.463759086 C31.3317916,0.452717203 30.6291866,0.44167532 29.9265816,0.452717203 C29.6850611,0.452717203 29.5643009,0.629387331 29.6191919,0.861266874 Z" id="Path"></path>
                    <path d="M15.7756778,12.1350294 C15.6439394,11.1633437 15.6988304,10.2026999 16.1489367,9.28622361 C16.7088251,8.12682589 17.6639288,7.4091035 18.8495747,6.98951194 C19.837613,6.64721357 20.8695641,6.58096227 21.9124934,6.63617169 C22.9115098,6.6913811 23.8885699,6.85700935 24.8546518,7.08888889 C24.8875864,7.09993077 24.9314992,7.09993077 24.975412,7.09993077 C24.9863902,7.04472136 24.9973684,7.01159571 24.9973684,6.96742818 C24.9863902,6.20553825 24.9973684,5.43260644 24.9644338,4.67071651 C24.9424774,4.12966424 24.8217172,3.59965386 24.4813929,3.15797854 C24.0861776,2.65005192 23.5262892,2.47338179 22.9334662,2.38504673 C21.7917331,2.21941848 20.65,2.30775355 19.5192451,2.51754933 C18.7946837,2.6610938 18.0701223,2.8598477 17.3565391,3.04755971 C16.9283892,3.16902042 16.7417597,3.04755971 16.7307815,2.59484251 C16.7198033,2.29671166 16.7417597,1.98753894 16.7307815,1.67836622 C16.7198033,1.31398408 16.8844763,1.07106265 17.2138224,0.960643821 C17.7627326,0.77293181 18.3006645,0.563136033 18.8605529,0.419591554 C19.7278309,0.187712011 20.6170654,0.077293181 21.517278,0.033125649 C21.6160819,0.033125649 21.7039075,0.011041883 21.7917331,1.92557081e-12 L22.8895534,1.92557081e-12 C23.2298777,0.044167532 23.5592238,0.077293181 23.8885699,0.121460713 C24.5911749,0.22083766 25.2718235,0.408549671 25.8866029,0.77293181 C26.9514886,1.40231914 27.4564859,2.38504673 27.6321372,3.57757009 C27.6870282,3.97507788 27.7089846,4.37258567 27.7089846,4.77009346 L27.7089846,14.5752856 C27.7089846,14.6525787 27.7089846,14.7409138 27.6980064,14.8292489 C27.67605,15.0832122 27.5113769,15.2488404 27.2588783,15.2598823 C26.7538809,15.2709242 26.2598618,15.2709242 25.7548644,15.2598823 C25.4913876,15.2488404 25.3157363,15.0611284 25.2608453,14.7740395 C25.1949761,14.442783 25.1510633,14.1115265 25.0961722,13.7581862 C25.030303,13.8023538 24.9863902,13.8354794 24.9424774,13.8686051 C23.8556353,14.7740395 22.6260766,15.3703011 21.2318448,15.5800969 C20.0242424,15.756767 18.8385965,15.6794739 17.7517544,15.0721703 C16.6100213,14.4317411 15.9623073,13.4269297 15.7756778,12.1350294 Z M19.8595694,13.2833853 C20.3645667,13.4821391 20.8805423,13.5042229 21.407496,13.4490135 C22.6809676,13.3165109 23.8117225,12.8196262 24.8436736,12.0687781 C24.9424774,12.0025268 24.9863902,11.9252336 24.9863902,11.792731 C24.975412,11.3620976 24.9863902,10.9204223 24.9863902,10.4897889 C24.9863902,10.0481135 24.975412,9.60643821 24.9863902,9.16476289 C24.9863902,9.01017653 24.9424774,8.94392523 24.7887826,8.92184147 C24.0203083,8.82246452 23.2628123,8.67892004 22.4943381,8.60162686 C21.7258639,8.53537556 20.9573897,8.56850121 20.2108719,8.81142264 C19.4753323,9.05434406 18.9264221,9.49601938 18.7068581,10.2579093 C18.5312068,10.854171 18.5312068,11.4504327 18.7178363,12.0466944 C18.8934875,12.6539979 19.2887028,13.0625476 19.8595694,13.2833853 Z" id="Combined-Shape"></path>
                    <path d="M1.04805054e-13,1.19252336 C1.04805054e-13,0.55209415 0.109782031,0.430633437 0.757496013,0.44167532 L1.82238171,0.44167532 C2.25053163,0.452717203 2.45911749,0.629387331 2.52498671,1.06002077 C2.56889952,1.31398408 2.60183413,1.56794739 2.64574694,1.8219107 C2.65672515,1.86607823 2.67868155,1.89920388 2.68965976,1.95441329 C2.90922382,1.78878505 3.11780968,1.61211492 3.33737374,1.45752856 C4.38030303,0.695638629 5.54399256,0.209795777 6.82844232,0.055209415 C6.96018075,0.033125649 7.09191919,0.022083766 7.22365763,-3.51718654e-13 L7.99213184,-3.51718654e-13 C8.28854333,0.044167532 8.59593301,0.066251298 8.8923445,0.132502596 C10.8464646,0.530010384 12.1418926,1.73357563 12.921345,3.54444444 C13.5580808,5.01301488 13.7227539,6.56992039 13.6678628,8.14890966 C13.62395,9.57331256 13.3494949,10.9535479 12.7127592,12.2344064 C11.8564593,13.9238145 10.5610314,15.0832122 8.68375864,15.4586362 C6.60887826,15.8671859 4.72062733,15.4144687 3.07389686,14.0342333 C3.01900585,13.9900658 2.96411483,13.9348564 2.865311,13.8575632 L2.865311,20.5599862 C2.865311,20.6483212 2.865311,20.7476982 2.8543328,20.8360332 C2.8433546,21.1010384 2.67868155,21.2887504 2.40422648,21.2887504 C1.75651249,21.2997923 1.10879851,21.2997923 0.46108453,21.2887504 C0.197607656,21.2777085 0.0329346093,21.1010384 0.0109782031,20.8249913 C1.04805054e-13,20.7366563 1.04805054e-13,20.6372793 1.04805054e-13,20.5489443 L1.04805054e-13,1.19252336 Z M2.8543328,11.6712703 C2.8433546,11.8037729 2.89824561,11.892108 2.99704944,11.9804431 C4.03997873,12.7202492 5.15975545,13.217134 6.44420521,13.2723434 C8.31049973,13.3606784 9.73766614,12.5987885 10.3634237,10.6333333 C10.6598352,9.71685704 10.7366826,8.76725511 10.7366826,7.80661128 C10.7366826,6.7576324 10.648857,5.73073728 10.2865763,4.74800969 C9.69375332,3.12485289 8.57397661,2.45129803 7.20170122,2.35192108 C5.65377459,2.24150225 4.270521,2.69421945 3.00802764,3.57757009 C2.89824561,3.65486327 2.8543328,3.73215646 2.8543328,3.87570093 L2.8543328,7.77348564 C2.8543328,9.07642783 2.865311,10.3683281 2.8543328,11.6712703 Z" id="Combined-Shape"></path>
                </g>
                <g id="Group-21" transform="translate(0.000000, 20.250000)" fill="#FF9900">
                    <path d="M56.5836784,4.85706114 C56.2527797,4.771892 55.9586475,4.85706114 55.6522598,4.97873133 C50.272092,7.21746287 44.6835805,8.65317114 38.8867255,9.33452422 C37.1096769,9.54136355 35.3203728,9.67520076 33.5310687,9.72386884 C30.2711036,9.80903797 27.0111386,9.62653268 23.7756846,9.20068701 C21.5942043,8.90867855 19.4249795,8.50716691 17.2802656,7.99615211 C12.7457279,6.91328739 8.37051166,5.35590893 4.20363909,3.27534864 C3.12515443,2.73999979 2.07118078,2.14381585 1.00495162,1.57196594 C0.539242332,1.31645854 0.245110151,1.38946065 0,1.82747335 L0,2.03431267 C0.147066091,2.22898498 0.269621166,2.44799133 0.453453779,2.6183296 C4.8654365,6.5361098 9.84117256,9.49269547 15.405173,11.4880866 C18.0891291,12.4492812 20.8466183,13.1549683 23.6531296,13.617315 C25.3689006,13.8971564 27.0846717,14.0796617 28.8249538,14.1648309 C29.192619,14.1769979 29.5602842,14.1891649 29.9279494,14.2134989 C30.013738,14.2134989 30.0995265,14.237833 30.1853151,14.25 L32.3545399,14.25 C32.4403285,14.237833 32.526117,14.2134989 32.6119056,14.2134989 C34.4379762,14.1648309 36.2640468,13.9944926 38.077862,13.7268182 C40.7005406,13.3374736 43.2741972,12.7412896 45.7865762,11.9382663 C49.4142064,10.7702325 52.8580041,9.21285403 56.0076695,7.05929162 C56.3508237,6.82811826 56.7062334,6.59694489 56.9881101,6.30493643 C57.5150969,5.76958758 57.2699868,5.03956643 56.5836784,4.85706114 L56.5836784,4.85706114 Z" id="Path"></path>
                    <path d="M63,1.29687427 C62.9037369,0.789275474 62.5186843,0.595904504 62.0855001,0.450876276 C61.3996252,0.221248248 60.6896845,0.112477077 59.9677109,0.0520486483 C58.6440926,-0.0567225227 57.3204743,0.00370590563 56.0209218,0.245419619 C54.5769746,0.511304704 53.2052247,0.982646445 51.9899025,1.82864444 C51.8455078,1.92532993 51.7011131,2.04618678 51.6168828,2.19121501 C51.5446854,2.29998618 51.5326525,2.46918578 51.5567183,2.60212833 C51.592817,2.75924224 51.7612775,2.7954993 51.9177051,2.78341361 C51.9899025,2.78341361 52.0620999,2.78341361 52.1342972,2.77132792 L54.4807114,2.51752853 C55.6358692,2.40875735 56.791027,2.33624324 57.9461848,2.42084304 C58.4395334,2.4571001 58.9208491,2.56587127 59.390132,2.68672813 C59.9075464,2.81967067 60.1361714,3.21849829 60.1602371,3.73818278 C60.1963358,4.54792372 60.0158424,5.3214076 59.8112832,6.09489149 C59.390132,7.65394494 58.8125531,9.16465565 58.2109084,10.6632807 C58.1748097,10.7599662 58.1266782,10.8687373 58.1146453,10.9654228 C58.0665137,11.267565 58.2349742,11.4488502 58.5237636,11.3884218 C58.6922241,11.3521648 58.8847504,11.2554793 59.0050794,11.1346224 C59.4502964,10.6995377 59.9075464,10.264453 60.2805661,9.78102562 C61.5680857,8.11320099 62.326158,6.20366266 62.771375,4.14909609 C62.8556053,3.78652552 62.9157697,3.41186927 62.9759342,3.0492987 C63,2.48127147 63,1.88907287 63,1.29687427 L63,1.29687427 Z" id="Path"></path>
                </g>
            </g>
            <path d="M0,57 L90,57 C90,58.6568542 88.6568542,60 87,60 L3,60 C1.34314575,60 2.02906125e-16,58.6568542 0,57 L0,57 Z" id="Rectangle" fill="#FF9900"></path>
        </g>
    </g>
</svg>