<?xml version="1.0" encoding="UTF-8"?><svg id="Layer_1" xmlns="http://www.w3.org/2000/svg" viewBox="0 0 500 500"><defs><style>.cls-1{fill:#232f3e;}.cls-1,.cls-2{fill-rule:evenodd;}.cls-1,.cls-2,.cls-3{stroke-width:0px;}.cls-2{fill:#f90;}.cls-3{fill:none;}</style></defs><g id="Symbols"><g id="amazonpay-logo-rgb_clr"><path id="Shape" class="cls-1" d="M60.1234200433,256.661294217c-.6003997798.6004026428-1.501000881.6004026428-2.1014006608.3002013214-3.002001762-2.4016019822-3.6024015419-3.6024015419-5.1034024229-6.0040035241-4.803202533,4.8032039644-8.4056055063,6.3042048455-14.7098089203,6.3042048455-7.5050044051,0-13.2088080393-4.5030026431-13.2088080393-13.8092092506,0-7.2048030837,3.9026021475-12.0080070482,9.306205176-14.4096090304,4.803202533-2.1014006608,11.4076058369-2.4016019822,16.5110111227-3.002001762v-.9006025327c0-2.1014006608.3002013214-4.5030026431-1.2007995596-6.304203414-.6004026428-1.8012007709-2.7018033036-2.4016012665-4.503005506-2.4016012665-3.3022016519,0-6.304203414,1.8012014867-7.2048045152,5.4036030285,0,.9006011012-.6003997798,1.501000881-1.501000881,1.501000881l-8.7058043226-.9006011012c-.3002000688-.3001998899-.6004003166-.3001998899-.9006003855-.6003997798-.3002002478-.6003997798-.3002002478-.9006011012-.3002002478-1.501000881,2.1014013766-10.2068059194,11.4076072683-13.5090079292,19.8132113432-13.5090079292,4.2028027532,0,9.9066049559,1.2008007227,13.2088080393,4.5030026431,4.2028013217,3.9026021475,3.9026028632,9.306205176,3.9026028632,15.3102087001v13.8092078191c0,4.2028013217,1.8012022024,6.0040035241,3.3022030834,8.1054041849.6003997798.9006011012.6003997798,1.8012022024,0,2.4016019822-1.8012022024,1.501000881-4.8032039644,4.2028041846-6.6044061668,5.7038050656h0ZM51.1174147572,235.04687924c0,3.3022030834,0,6.3042048455-1.8012022024,9.3062066075-1.501000881,2.4016019822-3.6024015419,3.9026028632-6.0040035241,3.9026028632-3.3022016519,0-5.4036037443-2.7018004407-5.4036037443-6.3042019825,0-7.5050044051,6.9046046253-9.0060052861,13.2088066078-9.0060052861v2.1013977979h.0000028629Z"/><path id="Path" class="cls-1" d="M84.1394370025,256.3610928956h-8.7058039647c-.9005982383,0-1.501000881-.6004026428-1.501000881-1.501000881v-45.3302266784c0-.9006005644.9005982383-1.501000881,1.8012022024-1.501000881h8.1054070479c.9005982383,0,1.501000881.6004003166,1.501000881,1.501000881v6.0040038819h.3002013214c2.1013920721-6.0040038819,6.0039977982-8.7058053962,11.4075986795-8.7058053962s9.0060052861,2.7018015143,11.4076044054,8.4056047906c1.8012022024-4.5030026431,5.7038022027-7.5050044051,10.2068048458-8.4056047906,4.8032039644-.6004003614,9.3062066075,1.2008007227,12.3082083695,4.8032028908,2.7018061665,3.9026025054,2.1014035238,9.3062048182,2.1014035238,14.1094073511v29.1194179507c0,.3002013214-.3001955955.9005982383-.6004026427,1.2007995596-.3001955955.3002013214-.6004026427.6004026428-1.2008052855.6004026428h-8.7058096906c-.9005982383,0-1.501000881-.9005982383-1.501000881-1.501000881v-24.3162154177c0-1.8012007709.3001955955-6.6044033039-.3002013214-8.4056055063-.6004026427-3.002001762-2.7018004407-3.9026021475-5.1034052858-3.9026021475-2.4015991193,0-4.5030026431,1.5010001653-5.4036008813,3.6024022576-.9005982383,2.4016019822-.9005982383,6.0040035241-.9005982383,8.7058053962v24.0160140963c0,.3002013214-.3002013214.9005982383-.6004026428,1.2007995596s-.6004026427.6004026428-1.2007995596.6004026428h-9.0060052861c-.9005982383,0-1.501000881-.9005982383-1.501000881-1.501000881v-24.3162154177c0-5.1034024229.9005982383-12.608406828-5.4036008813-12.608406828s-6.0040035241,7.2048045152-6.0040035241,12.608406828v24.0160140963c0,.3002013214-.3002013214.9005982383-.6004026427,1.2007995596.0000114517.3002013214-.3001898697.3002013214-.9005867865.3002013214"/><path id="Shape-2" class="cls-1" d="M182.9052881026,248.5558871692c-1.501000881-2.1014006608-3.3021973575-3.9026028632-3.3021973575-8.1054041849v-13.8092078191c0-5.7038036342.3001955955-11.1074066627-3.9026000003-15.3102087001-3.6024044048-3.3022019203-9.3062123334-4.5030026431-13.5090079292-4.5030026431-8.4056026434,0-17.7118149767,3.002001762-19.8132070488,13.5090079292,0,.3001998899,0,.9006011012.3001955955,1.2008009911s.6004026427.6003997798,1.2008052855.6003997798l8.7058096906.9006011012c.9005982383,0,1.501000881-.9006011012,1.501000881-1.501000881.6004026428-3.6024022576,3.6024044048-5.4036030285,7.2048088096-5.4036030285,1.8011964765,0,3.9026000003.6004004956,5.1034052858,2.4016012665s1.2008052855,4.2028027531,1.2008052855,6.304203414v1.2008009911c-5.1034052858.6003997798-11.7078114527.9006011012-16.5110096912,3.002001762-5.4036008813,2.4016005508-9.3062008816,7.2048045152-9.3062008816,14.4096104618,0,9.3062066075,5.7038079286,13.8092092506,13.2088123337,13.8092092506,6.3041991196,0,9.6064079289-1.501000881,14.7098132147-6.3042048455,1.501000881,2.4016019822,2.1014035238,3.6024015419,5.1034052858,6.0040035241.6004026428.3002013214,1.501000881.3002013214,2.1014035238-.3002013214h0c1.8011964765-1.501000881,5.1034052858-4.5030026431,6.9046017624-6.0040035241-.3002414024-.3002013214-.3002414024-1.2008024226-.9006440452-2.1014035238ZM165.4936801731,244.6532871689c-1.501000881,2.4016019822-3.6024044048,3.9026028632-6.0040035241,3.9026028632-3.3021973575,0-5.4036008813-2.7018004407-5.4036008813-6.3042019825,0-7.5050044051,6.9046017623-9.0060052861,13.2088123337-9.0060052861v1.8012022024c-.3002070472,3.6023986789-.3002070472,6.3041991196-1.8012079283,9.606402203Z"/><path id="Path-2" class="cls-1" d="M190.4102925077,215.8340691081v-6.6044038407c0-.3002002478,0-.9006005644.6004026428-1.2008007227s.6004026428-.6004003614,1.2008052855-.6004003614h29.1194193821c.3001955955,0,.90060969.300200203,1.2008052855.6004003614s.600391191.6004004061.600391191,1.2008007227v5.7038034552c0,.9006003855-.90060969,2.1014013766-2.101392072,4.2028020374l-15.0100088102,21.6144106826c5.7038079286,0,11.4076158571.6003997798,16.5110096912,3.6024015419.90060969.6003997798,1.501000881,1.501000881,1.501000881,2.4016019822v6.9046046253c0,.9006011012-.90060969,2.1014006608-2.101392072,1.5009980181-9.6064079289-5.1034024229-21.0140123343-4.8032039644-30.6204202632,0-.9005982383.6004026428-2.1014035238-.6003997798-2.1014035238-1.501000881v-6.6044033039c0-1.501000881.3001955955-3.002001762,1.2008052855-4.5030026431l17.4116079295-24.9166151975h-15.3102044057c-.3001955955,0-.9005982383,0-1.2008052855-.6004004956s-.9006211417-.9005960911-.9006211417-1.200795981"/><path id="Shape-3" class="cls-1" d="M247.7485215819,216.134268998c-6.6043947151,0-6.9046132141,9.0060052861-6.9046132141,14.4096090304,0,5.4036051757,0,17.4116122239,6.9046132141,17.4116122239s7.2048088096-9.6064050659,7.2048088096-15.3102101316c0-3.9026028632-.3001955955-8.4056055063-1.2008052855-12.0080070482-1.2007823821-3.3022030834-3.3021973576-4.5030040745-6.0040035241-4.5030040745ZM247.7485215819,206.828063822c13.2088123337,0,20.1134026443,11.4076065526,20.1134026443,25.5170149773,0,13.8092092506-7.8052000006,24.9166123346-20.1134026443,24.9166123346-12.9086167381,0-19.8132070488-11.4076072683-19.8132070488-25.216813656s6.9046132141-25.216813656,19.8132070488-25.216813656Z"/><path id="Path-3" class="cls-1" d="M284.9733480119,256.3610928956h-8.7058096906c-.90060969,0-1.501000881-.9005982383-1.501000881-1.501000881v-45.6304267472c0-.9006005644.90060969-1.501000881,1.8011964765-1.501000881h8.1053955961c.600391191,0,1.501000881.6004003166,1.501000881,1.2008008122v6.9046039095h.0000229035c2.7018061665-6.0040035241,6.0040035241-9.0060052861,12.3082026437-9.0060052861,3.902611452,0,7.8052000006,1.501000881,10.2068105716,5.4036030285,2.401610571,3.6024022576,2.401610571,9.6064057817,2.401610571,14.1094084247v28.5190167394c0,.9005982383-.90060969,1.501000881-1.8011964765,1.501000881h-9.0060052861c-.90060969,0-1.501000881-.6004026428-1.501000881-1.501000881v-24.6164138761c0-5.1034024229.600391191-12.3082069381-5.403612333-12.3082069381-2.401610571,0-4.2028070475,1.501000881-5.1033938341,3.6024029733-1.2008052855,2.7018018721-1.501000881,5.4036037443-1.501000881,8.7058053962v24.3162168492c-.0000229034,1.2007938338-.90060969,1.8011964765-1.80121938,1.8011964765"/><path id="Shape-4" class="cls-1" d="M357.0213903008,214.633268117c-4.5030026431,0-9.0060052861,1.501000881-12.3082026437,4.2028027531v25.8172162987c3.902611452,3.002001762,8.1053955961,4.5030026431,12.3082026437,4.5030026431,8.4056140951,0,12.9086167382-5.7038022027,12.9086167382-17.111409471s-4.503002643-17.4116122239-12.9086167382-17.4116122239h0ZM344.1127964662,213.4324678416c2.101392072-2.1014013766,4.8031982386-3.6024022576,7.5050044051-4.5030026431,2.7018061665-.9006005644,5.403612333-1.501000881,8.1053955961-1.501000881,2.7018061665,0,5.403612333.6004003166,8.1053955961,1.501000881,2.401610571,1.2008006332,4.5030026431,2.7018015143,6.0040035241,4.8032032487,1.8011964765,2.4016012665,3.002001762,4.803202533,3.902611452,7.805204295.90060969,3.3022016519,1.501000881,6.6044047354,1.2008052855,10.2068062772,0,3.6024015419-.3001955955,6.9046046253-1.501000881,10.5070061671-.90060969,3.002001762-2.101392072,5.4036037443-3.902611452,7.8052028635-1.8011964765,2.1014006608-3.902611452,3.9026028632-6.3041991196,5.1034052858-2.7018061665,1.2007995596-5.4036123331,1.8012022024-8.1053955961,1.8012022024-5.4036123331,0-10.5070061671-1.8012022024-14.4096176192-5.4036037443v21.3142107927c0,.6004026428,0,.9005982383-.600391191,1.501000881-.3001955955.3002013214-.90060969.6004026428-1.501000881.6004026428h-5.403612333c-.600391191,0-.90060969,0-1.501000881-.6004026428-.3001955955-.3002013214-.600391191-.9005982383-.600391191-1.501000881v-62.4416365073c0-.6004004956,0-.9006005644.600391191-1.501000881s.90060969-.6004003166,1.501000881-.6004003166h4.2028070475c.600391191,0,1.2008052855,0,1.501000881.6004003166.3001955955.3002002478.600391191.9006003855.600391191,1.501000881l.6004140945,3.002001762h0Z"/><path id="Shape-5" class="cls-1" d="M402.0514167314,250.0568880502c2.101392072,0,4.2028070475-.3002013214,6.3041991196-1.2007995596,2.401610571-.9006011012,4.5030026431-2.1014006608,6.304222023-3.6024015419v-9.6064050659c-1.501000881-.3002013214-3.302220261-.6003997798-4.803221142-.9006011012s-3.3021973576-.3002013214-5.1033938341-.3002013214c-6.9046132141,0-10.5070061671,2.7018004407-10.5070061671,8.1054041849,0,2.4016019822.600391191,4.2028013217,1.8011964765,5.4036037443,1.8011964765,1.501000881,3.6024158565,2.1014006608,6.0040035241,2.1014006608ZM391.2442149688,216.7346694936l-.600391191.3001998899h-.90060969c-.90060969,0-1.2008052855-.6004004956-1.2008052855-1.8012014867v-2.4016005508c0-.6004004956,0-1.2008006332.3001955955-1.8012011288.3001955955-.3002002478.90060969-.9006007433,1.501000881-.9006007433,2.401610571-.9006005644,4.8031982386-1.501000881,7.2048088096-2.1014011976,3.002001762-.6004003614,5.7038079286-.9006005644,8.7058096906-.9006005644,6.0040035241,0,10.2067876682,1.2008007227,12.9086167382,3.6024022576,2.70182907,2.4016012665,4.2027841441,6.0040035241,4.2027841441,11.1074066627v31.8212198228c0,.6003997798,0,.9006011012-.600391191,1.501000881-.300218499.3002013214-.90060969.6004026428-1.501000881.6004026428h-3.902611452c-.600391191,0-.90060969,0-1.501000881-.3002013214-.300218499-.3002013214-.600391191-.9006011012-.600391191-1.2007995596l-.600391191-3.002001762c-2.101392072,1.8012022024-4.803221142,3.3022030834-7.5050044051,4.5030026431-2.7018061665.9005982383-5.4036123331,1.501000881-8.1053955961,1.501000881-4.5030026431,0-8.1053955961-1.2007995596-10.5070061671-3.9026028632-2.7018061665-2.4016019822-3.902611452-6.0040035241-3.902611452-10.2068077087,0-4.5030026431,1.501000881-8.1054041849,4.8031982386-10.8072074885s7.5050044051-3.9026028632,12.9086167381-3.9026028632c3.902611452,0,7.8052000006.6003997798,11.7078114526,1.501000881v-6.0040035241c0-3.3022016519-.600391191-5.7038036342-2.101392072-6.9046039095s-4.2028070475-2.1014013766-7.8052000006-2.1014013766c-3.9026343555-.3001998899-8.4056369986.3002006056-12.9086396416,1.8012014867Z"/><path id="Path-4" class="cls-1" d="M453.9860334726,263.8660973007c-1.80121938,4.2028013217-3.6023929531,7.2048030837-5.7037850251,9.3062066075-2.101392072,2.1014035238-5.1033938341,2.7018004407-8.7057867871,2.7018004407-1.80121938,0-3.6023929531-.3002013214-5.4036123331-.6004026428-.600391191,0-1.2007823821-.3002013214-1.501000881-.9005982383-.300218499-.6004026428-.600391191-1.2007995596-.600391191-1.8012022024v-2.4015991193c0-1.2007995596.600391191-1.8012022024,1.501000881-1.8012022024.600391191,0,.90060969,0,1.501000881.3002013214.90060969,0,1.80121938.3002013214,2.401610571.3002013214,2.101392072,0,3.902611452-.6004026428,5.4036123331-1.8012022024,1.2007823821-1.2007995596,2.401610571-3.3022030834,3.6023929531-6.0040035241l1.80121938-4.8032039644-18.0120105722-44.1294253294c-.300218499-.6004004956-.600391191-1.501000881-.600391191-2.1014013766,0-.6004003166.300218499-1.2008006332,1.2007823821-1.2008006332h5.7037850251c.600391191,0,1.501000881,0,2.101392072.6004003166s.90060969,1.2008008122,1.2007823821,2.1014011976l12.9086167382,36.0240218602,12.6083982392-36.0240211445c.300218499-.9006003855.600391191-1.501000881,1.2007823821-2.1014011976.600391191-.3002002478,1.2007823821-.6004003166,2.101392072-.6004003166h5.1033938341c.90060969,0,1.200782382.3002002478,1.200782382,1.2008006332s-.300218499,1.501000881-.600391191,2.1014013766l-20.4135753363,51.6344290188"/><path id="Shape-6" class="cls-2" d="M202.4182995558,274.3731034679c-16.5110096912,12.3082083695-40.827219383,18.9126088105-61.5410361218,18.9126088105-27.6184185011,0-54.3362330381-10.2068048458-75.050044051-28.5190167394-1.501000881-1.501000881-.3002013214-3.3022030834,1.8012022024-2.1014035238,21.3142136556,12.3082083695,47.7318268712,19.8132127746,75.0500383251,19.8132127746,19.8132070488,0,39.0260229065-4.2028013217,57.3382290743-11.7078057268,2.7018176183-1.501000881,5.1034167375,1.501000881,2.401610571,3.6024044048M209.3229127699,266.26769642c2.1014035238,2.7018004407-2.4015991193,13.8092092506-4.5030026431,18.9126088105-.6004026427,1.501000881.6004026427,2.1014035238,2.1014035238.9005982383,9.0060052861-7.5050044051,11.1074088099-23.115415858,9.3062008816-25.216813656-1.8011964765-2.4015991193-17.4116079295-4.2028013217-27.0180158583,2.4015991193-1.501000881.9005982383-1.2008052855,2.4015991193.3001955955,2.1014035238,5.7038079286-.3001955955,17.7118149767-1.8011964765,19.8132185005.9006039641"/></g></g><rect class="cls-3" width="500" height="500"/></svg>