<?xml version="1.0" encoding="UTF-8"?><svg id="Layer_1" xmlns="http://www.w3.org/2000/svg" viewBox="0 0 500 500"><defs><style>.cls-1{fill:none;}.cls-1,.cls-2,.cls-3{stroke-width:0px;}.cls-2{fill:#016fd0;}.cls-3{fill:#fff;}</style></defs><g id="layer1"><path id="path3078" class="cls-2" d="M78.5742921279,79h342.000062778v184.62182533l-16.9280793925,26.4501162035,16.9280793925,23.5406084433v107.3874500231H78.5743130539v-174.0417914042l10.5800260786-12.166998209-10.5800470045-11.6380728926V79Z"/><path id="path3082" class="cls-3" d="M144.9640923783,317.3155712676v-53.6937459376h56.8517132053l6.0995702646,7.9515412817,6.3012654166-7.9515412817h206.357713641v49.9907664988s-5.3966034916,3.6493252011-11.6380519666,3.7030212907h-114.2645045102l-6.8770335611-8.4640606222v8.4640606222h-22.5355122306v-14.4483914614s-3.0783804973,2.0168050382-9.7336404192,2.0168050382h-7.6705261657v12.4315445712h-34.1206528321l-6.0908545899-8.122088098-6.184383301,8.122088098h-56.4951029513Z"/><path id="path3080" class="cls-3" d="M78.5742921279,223.1531374942l12.8202866824-29.888632984h22.1713476943l7.2756579709,16.7423821596v-16.7423821596h27.5610299148l4.3312090394,12.1009139334,4.1989567843-12.1009139334h123.7204465826v6.0835200305s6.5038813122-6.0835200305,17.1925839027-6.0835200305l40.1427446198.1402878352,7.1500549491,16.5232870471v-16.6635748823h23.064500325l6.3480245407,9.4912756061v-9.4912756061h23.2761039331v53.6937040856h-23.2761039331l-6.0835200305-9.522036811v9.522036811h-33.8868572119l-3.4077974276-8.4640606222h-9.1099412953l-3.3523435548,8.4640606222h-22.980900996c-9.1972863764,0-15.0765687471-5.9593033554-15.0765687471-5.9593033554v5.9593033554h-34.6496513895l-6.8770335611-8.4640606222v8.4640606222H110.2813726935l-3.4054537168-8.4640606222h-9.0808829428l-3.3813862128,8.4640606222h-15.8393576933v-23.8050711016Z"/><path id="path3046" class="cls-2" d="M95.9321835022,199.8838135817l-17.2917665546,40.2041414736h11.2578332725l3.190546418-8.0506886211h18.5481459757l3.1740175018,8.0506886211h11.5057997115l-17.2752363306-40.2041833256h-13.1093373785l-.0000026158.000041852ZM102.3298052543,209.2405350739l5.6537158959,14.06820808h-11.323960708l5.6702448121-14.06820808Z"/><path id="path3048" class="cls-2" d="M127.5070144285,240.0812168867v-40.2041833256l15.9980080844.0594298108,9.3049819825,25.9211071831,9.0821725069-25.9805369939h15.8700718147v40.2041833256h-10.0510458314v-29.6241284738l-10.6543211893,29.6241284738h-8.8147906731l-10.6840256318-29.6241284738v29.6241284738h-10.0510510629Z"/><path id="path3050" class="cls-2" d="M184.6392719151,240.0812168867v-40.2041833256h32.7981512072v8.9930696426h-22.6413035717v6.8770335611h22.1123050143v8.4640606222h-22.1123050143v7.1415380713h22.6413035717v8.7285651324l-32.7981512072-.000083704Z"/><path id="path3052" class="cls-2" d="M223.2564491055,199.8838135817v40.2041414736h10.0510458314v-14.2830342905h4.2320198481l12.0513402638,14.2830342905h12.2827817102l-13.2250581017-14.8120433109c5.4276367344-.4580280632,11.0263852868-5.1164881931,11.0263852868-12.3488869117,0-8.460377648-6.6404443212-13.043253103-14.0516346961-13.043253103h-22.3668801424v.000041852ZM233.3074949369,208.8768413724h11.4892786426c2.7561202554,0,4.7610184055,2.155921018,4.7610184055,4.2320303111,0,2.6709933292-2.5976895872,4.2320303111-4.6122346185,4.2320303111h-11.6380519666v-8.4640606222h-.000010463Z"/><path id="path3054" class="cls-2" d="M274.0406768199,240.0812168867h-10.2626494396v-40.2041833256h10.2626494396v40.2041833256Z"/><path id="path3056" class="cls-2" d="M298.3747987939,240.0812168867h-2.2152043469c-10.718124532,0-17.2256469664-8.44413908-17.2256469664-19.9367763439,0-11.7765192406,6.4346581382-20.2674069817,19.9698394077-20.2674069817h11.1090429462v9.522036811h-11.5151954809c-5.4945371235,0-9.3803887865,4.2879445557-9.3803887865,10.844559362,0,7.786016703,4.4433200294,11.0561211182,10.844559362,11.0561211182h2.64500325l-4.2320093851,8.7814660345Z"/><path id="path3058" class="cls-2" d="M320.2457225166,199.8838135817l-17.291752168,40.2041414736h11.2578267332l3.1905438022-8.0506886211h18.5481485914l3.1740122703,8.0506886211h11.5057997115l-17.2752415621-40.2041833256h-13.1093373785v.000041852ZM326.6433416529,209.2405350739l5.6537211274,14.06820808h-11.3239528607l5.6702526593-14.06820808h-.000020926Z"/><path id="path3060" class="cls-2" d="M351.8040192952,240.0812168867v-40.2041833256h12.7787067408l16.3164127126,25.2598877596v-25.2598877596h10.0510458314v40.2041833256h-12.3654393696l-16.7297010098-25.9211071831v25.9211071831h-10.0510249054Z"/><path id="path3062" class="cls-2" d="M151.8411207079,310.4385377065v-40.2041833256h32.7981407442v8.9930696426h-22.6413035717v6.8770335611h22.1122945513v8.4640606222h-22.1122945513v7.1415380713h22.6413035717v8.7285651324l-32.7981407442-.000083704Z"/><path id="path3064" class="cls-2" d="M312.5520522063,310.4385377065v-40.2041833256h32.7981407442v8.9930696426h-22.6412931087v6.8770335611h22.0065032102v8.4640606222h-22.0065032102v7.1415380713h22.6412931087v8.7285651324l-32.7981407442-.000083704Z"/><path id="path3066" class="cls-2" d="M185.9121789444,310.4385377065l15.969261006-19.8541605365-16.3494757764-20.3500646411h12.6629964806l9.7369467255,12.5803283581,9.7700097893-12.5803283581h12.167050524l-16.1345763249,20.1020916628,15.9986620216,20.1020916628h-12.6609875856l-9.4542575303-12.3819918275-9.2244797001,12.3819918275-12.4811496298.000041852Z"/><path id="path3068" class="cls-2" d="M230.9269857342,270.2411344016v40.2041833256h10.3155503416v-12.6960490814h10.5800548518c8.9522221107,0,15.7378300226-4.7493207773,15.7378300226-13.9855085686,0-7.6512114771-5.3219814122-13.5226256757-14.4318390035-13.5226256757h-22.2015962125ZM241.2425360758,279.3333513835h11.14210601c2.8921182627,0,4.9593967882,1.7725568861,4.9593967882,4.6287870764,0,2.6832141072-2.0568573826,4.6287870764-4.9924598519,4.6287870764h-11.1090429462v-9.2575741528Z"/><path id="path3072" class="cls-2" d="M271.9246616644,270.2343543809v40.2041833256h10.0510458314v-14.2830761425h4.2320093851l12.0513402638,14.2830761425h12.2827817102l-13.2250581017-14.8120851629c5.4276367344-.4580699152,11.0263852868-5.1164881931,11.0263852868-12.3489287637,0-8.4603357961-6.6404443212-13.043211251-14.0516346961-13.043211251h-22.3668906053l.000020926.000041852ZM281.9757074958,279.2274240235h11.4892681796c2.7561202554,0,4.7610184055,2.155879166,4.7610184055,4.2319884591,0,2.6710351812-2.5976895872,4.2320303111-4.6122346185,4.2320303111h-11.6380519666v-8.4640187702Z"/><path id="path3074" class="cls-2" d="M350.0054304779,310.4385377065v-8.7285651324h20.1153168883c2.9763453713,0,4.2650724489-1.6083715707,4.2650724489-3.372390653,0-1.6901084866-1.2846674355-3.398841104-4.2650724489-3.398841104h-9.0898732711c-7.9012561284,0-12.3016569529-4.8139402335-12.3016569529-12.0414004186,0-6.4463766924,4.0296969164-12.6630278696,15.7708930864-12.6630278696h19.5730826424l-4.2320303111,9.0459286927h-16.9280793925c-3.235911348,0-4.2320303111,1.6980185107-4.2320303111,3.3195316029,0,1.6666713781,1.2309504199,3.5046429081,3.7030212907,3.5046429081h9.522036811c8.8079583375,0,12.6299229538,4.9961637521,12.6299229538,11.5388837012,0,7.034062188-4.2589411339,12.7952382727-13.1094210825,12.7952382727h-21.4211823515Z"/><path id="path3076" class="cls-2" d="M386.8950835121,310.4385377065v-8.7285651324h20.1152959623c2.9763662973,0,4.2650933749-1.6083715707,4.2650933749-3.372390653,0-1.6901084866-1.2846883615-3.398841104-4.2651143009-3.398841104h-9.0898732711c-7.9012561284,0-12.3016569529-4.8139402335-12.3016569529-12.0414004186,0-6.4463766924,4.0296969164-12.6630278696,15.7708930864-12.6630278696h19.5731035684l-4.2320303111,9.0459286927h-16.9280793925c-3.235890422,0-4.2320093851,1.6980185107-4.2320093851,3.3195316029,0,1.6666713781,1.2309504199,3.5046429081,3.7030212907,3.5046429081h9.522057737c8.8079583375,0,12.6299229538,4.9961637521,12.6299229538,11.5388837012,0,7.034062188-4.2589411339,12.7952382727-13.1094420085,12.7952382727h-21.4211823515Z"/></g><rect class="cls-1" width="500" height="500"/></svg>