<?xml version="1.0" encoding="UTF-8"?>
<svg width="140px" height="80px" viewBox="0 0 140 80" version="1.1" xmlns="http://www.w3.org/2000/svg" xmlns:xlink="http://www.w3.org/1999/xlink">
    <!-- Generator: Sketch 52.5 (67469) - http://www.bohemiancoding.com/sketch -->
    <title>im/logo-pay/apple-pay</title>
    <desc>Created with Sketch.</desc>
    <g id="im/logo-pay/apple-pay" stroke="none" stroke-width="1" fill="none" fill-rule="evenodd">
        <path d="M37.63519,24.3943128 C36.4398775,25.8075829 34.5273775,26.9222749 32.6148775,26.7630332 C32.375815,24.8521327 33.3121432,22.8218009 34.4078463,21.5677725 C35.6031588,20.1146919 37.6949557,19.0796209 39.388315,19 C39.5875338,20.9905213 38.8105807,22.9412322 37.63519,24.3943128 Z M39.3683932,27.1412322 C36.5992525,26.9819905 34.2285494,28.7137441 32.9137057,28.7137441 C31.57894,28.7137441 29.5668307,27.2208531 27.3754244,27.2606635 C24.5265963,27.3004739 21.8769869,28.9127962 20.42269,31.4805687 C17.4344088,36.6161137 19.6457369,44.2199052 22.5344088,48.4 C23.9488619,50.4701422 25.6422213,52.7393365 27.8734713,52.6597156 C29.98519,52.5800948 30.8219088,51.2862559 33.3719088,51.2862559 C35.9418307,51.2862559 36.67894,52.6597156 38.91019,52.6199052 C41.2211275,52.5800948 42.6754244,50.549763 44.0898775,48.4796209 C45.7035494,46.1308057 46.3609713,43.8417062 46.400815,43.7222749 C46.3609713,43.6824645 41.938315,41.9905213 41.8984713,36.8947867 C41.8586275,32.6350711 45.3847994,30.6047393 45.5441744,30.4853081 C43.5519869,27.5393365 40.4441744,27.2208531 39.3683932,27.1412322 Z M55.3656588,21.3687204 L55.3656588,52.4009479 L60.1867525,52.4009479 L60.1867525,41.7914692 L66.8605807,41.7914692 C72.9566744,41.7914692 77.2398775,37.6113744 77.2398775,31.5601896 C77.2398775,25.5090047 73.0363619,21.3687204 67.0199557,21.3687204 L55.3656588,21.3687204 Z M60.1867525,25.4293839 L65.7449557,25.4293839 C69.9285494,25.4293839 72.3191744,27.6587678 72.3191744,31.5800948 C72.3191744,35.5014218 69.9285494,37.7507109 65.7250338,37.7507109 L60.1867525,37.7507109 L60.1867525,25.4293839 Z M86.0453463,52.6398104 C89.0734713,52.6398104 91.8824557,51.107109 93.1574557,48.678673 L93.257065,48.678673 L93.257065,52.4009479 L97.719565,52.4009479 L97.719565,36.9545024 C97.719565,32.4758294 94.1336275,29.5895735 88.6152682,29.5895735 C83.4953463,29.5895735 79.71019,32.5156398 79.5707369,36.5364929 L83.9137057,36.5364929 C84.2722994,34.6255924 86.0453463,33.371564 88.475815,33.371564 C91.4242525,33.371564 93.0777682,34.7450237 93.0777682,37.2729858 L93.0777682,38.9848341 L87.0613619,39.343128 C81.463315,39.6815166 78.43519,41.9706161 78.43519,45.9516588 C78.43519,49.9725118 81.5629244,52.6398104 86.0453463,52.6398104 Z M87.3402682,48.957346 C84.7703463,48.957346 83.1367525,47.7232227 83.1367525,45.8322275 C83.1367525,43.8815166 84.7105807,42.7469194 87.7187838,42.5677725 L93.0777682,42.2293839 L93.0777682,43.9810427 C93.0777682,46.8872038 90.6074557,48.957346 87.3402682,48.957346 Z M103.676206,60.8407583 C108.377768,60.8407583 110.589096,59.0492891 112.521518,53.6151659 L120.988315,29.8881517 L116.087534,29.8881517 L110.409799,48.2208531 L110.31019,48.2208531 L104.632456,29.8881517 L99.5922213,29.8881517 L107.76019,52.4805687 L107.321909,53.8540284 C106.584799,56.1829384 105.389487,57.078673 103.257846,57.078673 C102.879331,57.078673 102.142221,57.0388626 101.843393,56.9990521 L101.843393,60.721327 C102.122299,60.8009479 103.317612,60.8407583 103.676206,60.8407583 Z" id="apple-pay" fill="#000000" fill-rule="nonzero"></path>
    </g>
</svg>