<?xml version="1.0" encoding="UTF-8"?><svg id="Layer_1" xmlns="http://www.w3.org/2000/svg" viewBox="0 0 500 500"><defs><style>.cls-1{fill:none;}.cls-1,.cls-2{stroke-width:0px;}.cls-2{fill:#1d1d1b;}</style></defs><path class="cls-2" d="M152.4842821266,233.9283239027c.2114933075,22.0898132466,20.0050914435,29.439241698,20.2241339671,29.5336573241-.1661691967.5211840525-3.1610901946,10.4765111561-10.4236450326,20.7642054669-6.2843982911,8.8903113501-12.802951945,17.7504114287-23.0717516051,17.9354680727-10.0912994357.181282036-13.3316924171-5.7934327136-24.8732337335-5.7934327136-11.5339884985,0-15.1407201599,5.6083760695-24.6919516975,5.9747147495-9.9100173998.3625640719-17.4596045292-9.619214102-23.7931015391-18.4793141806-12.9426916818-18.1280739329-22.8338234351-51.2118221869-9.5512306372-73.547121824,6.5978645446-11.092118038,18.3848904507-18.116746507,31.1840677876-18.2942503331,9.7325099719-.181282036,18.9211810393,6.3410498278,24.8732337335,6.3410498278,5.9444962745,0,17.1121496948-7.8441686371,28.853853291-6.692282872,4.9096845892.2001658815,18.7021313123,1.9223308161,27.5584567828,14.4797999724-.7175645207.4305430345-16.4625641367,9.3095233569-16.2888313169,27.7774993064M133.51778418,179.6800564274c5.2609176334-6.1710988195,8.8072267517-14.7592758442,7.840394029-23.3096851777-7.5873584223.2945810573-16.7609166506,4.8945807543-22.1993417119,11.0619031648-4.8794733176,5.4610835149-9.1471215648,14.2003277023-7.9952394015,22.5807860276,8.4597683156.6344835241,17.0932622475-4.1619051952,22.3579616924-10.3367804236M209.6896921034,169.1166752598c4.2857505184-.7102800314,8.5902876357-1.3021857603,12.9086985987-1.7750409628,5.1580739702-.5486616145,10.3425990108-.8109140361,15.5297172935-.7855497864,8.0670001756,0,15.0198714721.9517243857,20.8661775126,2.8551722567,5.8538552566,1.9034487714,10.6540185839,4.6302123191,14.4156028213,8.1765178357,3.2570833763,3.1893583353,5.8308906563,7.0083162552,7.5646891635,11.2243013552,1.8128059526,4.3318562034,2.7116525093,9.3246289927,2.7116525093,14.9707691516,0,6.8282407972-1.2349739652,12.8029555467-3.7238093428,17.9241334433-2.39166083,5.0044892015-5.8702070893,9.4120284579-10.1819332502,12.9011493826-4.3054159383,3.4745483442-9.4114954026,6.0691303755-15.3257732022,7.7799642825-5.9180668146,1.7032846908-12.3686415058,2.5568143402-19.3630478981,2.5568143402-6.3146167661,0-11.6246259148-.456979698-15.9224926369-1.3747137019v56.7257826303h-9.4794671618v-131.1793002272h-.0000144069ZM219.1691592652,235.2992629965c2.2848912863.6533673697,4.837923815,1.1141216757,7.6628866011,1.3747137019,2.8249627861.2643666343,5.8463060404.3927753434,9.0715933861.3927753434,12.0967112485,0,21.4742207715-2.75697662,28.1287395541-8.2709370635,6.6507441745-5.5139604435,9.9817781739-13.5922844433,9.9817781739-24.2274191817,0-5.1211814983-.8724098933-9.5889992288-2.6210186948-13.3958931699-1.659430084-3.6963065687-4.2249822097-6.9139690619-7.4589425098-9.3548438659-3.2252873456-2.432183841-7.0548433422-4.2676518489-11.4924425976-5.5177332507-4.4413738635-1.2463049928-9.3472838446-1.8694574893-14.7290681744-1.8694574893-4.2978667221,0-7.9952394015.1623981904-11.08834343.4909691793-3.0893294204.3285709889-5.578164798.6911332599-7.4589425098,1.0839086033v59.2939171931h.0037602012ZM359.0763762538,277.8473727765c0,3.8068939412.0641971511,7.6175624904.2001694832,11.4244708384.1321977241,3.8068939412.5325078767,7.4778299571,1.2085373017,11.0279064801h-8.8714239028l-1.408706785-13.3958967716h-.4116627907c-1.2085373017,1.8430172241-2.753187605,3.6784852321-4.6339797237,5.51395324s-4.0636969524,3.5123160353-6.5487721289,5.0229948659c-2.4888209707,1.5106788306-5.3100091487,2.7267653485-8.4710849364,3.6444993525-3.3796572904.9467927234-6.8762409898,1.4108966339-10.3858773415,1.3784955135-4.7019802967,0-8.8374236163-.7553394153-12.4064164004-2.266003839-3.5614147541-1.5106788306-6.4845749778-3.4783301557-8.7694518572-5.9067285834-2.2685970812-2.4088770768-4.0169897792-5.2589943121-5.1362907358-8.3729019057-1.1205399501-3.0263280421-1.7008787383-6.2259422901-1.7146229219-9.4530304983,0-11.1600970007,4.8039523423-19.759605053,14.4156028213-25.8022987652,9.6116504789-6.0426937121,24.0989996674-8.9318536493,43.4620763793-8.667487015v-2.5605889483c0-2.5001664053-.2379443778-5.359115071-.7062262896-8.5730713889-.4721429613-3.2192292438-1.5334993619-6.3238948103-3.130878923-9.1584525925-1.6126508763-2.8853853291-4.0297254797-5.3137909603-7.2549984185-7.2814422854-3.2252729388-1.9714295349-7.59868945-2.9571425015-13.1050934739-2.9571425015-4.173247028,0-8.3011411315.6231524964-12.4026129785,1.8694574893-4.101471847,1.2463049928-7.8290557978,2.9835827667-11.1903010687,5.2193753342l-3.0251322693-6.8962233616c4.2978667221-2.8853853291,8.7392549926-4.9512304901,13.3052629571-6.1975354829,4.6676918722-1.2590478968,9.4829104111-1.8877794657,14.3174053837-1.8694574893,6.7224905418,0,12.198697701,1.1141216757,16.4361130663,3.3461396351,4.2336695711,2.2320179595,7.5609145554,5.1211814984,9.981763767,8.6637124069,2.441162942,3.5951917336,4.1221601569,7.651180994,4.9398958607,11.919211024.8647886426,4.312446506,1.3049770974,8.6992470283,1.3142839555,13.0975370543v37.2305370082l-.00757803-.0000288138ZM349.5968946851,249.6808727348c-5.3522501826-.1252175805-10.7071800488.0715230603-16.0358029137.5891630151-5.574375783.5211840525-10.718215735,1.6768480274-15.4201960317,3.4443370727-4.7095295128,1.7750382615-8.6032826604,4.3658456848-11.6926120808,7.7799642825-3.0893294204,3.4141185977-4.6415289399,7.9461406827-4.6415289399,13.5960590514,0,6.6885046622,1.9487638778,11.6170766986,5.8538696635,14.7668286621,3.8899785395,3.1497519634,8.2595916289,4.7284025532,13.1013188658,4.7284025532,3.8975277557,0,7.3947453587-.5211840525,10.4840747791-1.5786505898,3.0931040285-1.0499173211,5.7745452663-2.4623987142,8.0632255676-4.2298805561,2.2886803013-1.7674818419,4.1996692846-3.7766826696,5.7481230097-6.004926021,1.5484537252-2.2395671756,2.7229907404-4.532022085,3.5349636838-6.8999979696.6722548169-2.6285679109,1.0121424266-4.532022085,1.0121424266-5.7178973313v-20.4733949657l-.00757803-.0000072034ZM377.6123527762,205.750496435l24.5937614634,61.4541815818c1.371277656,3.4780348143,2.6507545386,6.9915682327,3.8371052127,10.536948106,1.2085373017,3.6105134729,2.2849056932,6.9302092411,3.2252729387,9.9477778874h.4041135745c.9441706674-2.8853853291,2.016735637-6.1371093382,3.2252729387-9.7513974191,1.2123119098-3.6067388648,2.5568215437-7.3192099765,4.0335000878-11.1336603372l22.9924344114-61.0576280286h10.0761865965l-28.0229784935,69.3398889164c-2.5658402638,6.6990216999-5.2223575627,13.3629481889-7.9688027381,19.9899786043-2.2630648312,5.4997768494-4.7862030402,10.8888798849-7.5609145554,16.1490987836-2.3122211776,4.3996082574-4.9071921953,8.6446880941-7.7686332548,12.7085435224-2.5182398627,3.5624376441-5.4632985759,6.8030395256-8.7694518572,9.6494253735-3.7578096293,3.2781606725-7.2248015539,5.6801368437-10.3858773415,7.1908012674-3.1573011796,1.5106788306-5.272263068,2.4623987142-6.3486026456,2.8551740576l-3.2328509687-7.6817740484c2.7653758433-1.2266755902,5.4598697335-2.6073321388,8.0707747837-4.1354721335,3.1575028762-1.8612131401,6.0693680894-4.1107498913,8.6674798115-6.6960538783,2.4246238196-2.3642012766,5.0796428009-5.4761927524,7.9688027381-9.3586220757,2.8891599372-3.8711054991,5.4761783455-8.5655221728,7.7648586467-14.0832500209.8044237272-2.0998346423,1.2085373017-3.4821047638,1.2085373017-4.1392467415,0-.9139593959-.4003389665-2.2962295174-1.2085373017-4.1354721335l-34.8889905835-87.6568013048h10.0875104207l.0000288138.0075600213Z"/><rect class="cls-1" width="500" height="500"/></svg>