<?xml version="1.0" encoding="UTF-8"?><svg id="Layer_1" xmlns="http://www.w3.org/2000/svg" viewBox="0 0 500 500"><defs><style>.cls-1{fill:none;}.cls-1,.cls-2,.cls-3{stroke-width:0px;}.cls-2{fill:#1d1d1b;}.cls-2,.cls-3{fill-rule:evenodd;}.cls-3{fill:#f39200;}</style></defs><path class="cls-3" d="M146.875,294.4853127003H39.4599989057l16.9434383511-42.8498446941-16.3757801056-46.0162460804,72.5798428059-.104534626-4.3800026178-11.7646872997H25l20.9789067507,57.8854680061-14.6367207169,42.8498446941h-.0932782888l-3.9332807064,11.7646872997h115.0401547551l4.5192182064-11.7646872997Z"/><path class="cls-2" d="M115.078279376,244.7523474693c0-11.8626594543-4.5646816492-24.3046939373-23.3123391867-24.3046939373-7.7292233706,0-15.1996940374,2.1032810211-20.2631235123,5.1881253719l2.5317102671,7.2820365429c4.8145383596-2.9564023018,10.401570797-4.4981360435,16.0912513733-4.4404685497,12.5339090824-.1214146614,13.9340668917,8.8898420334,13.9340668917,13.7043714523v1.2337446213c-23.6962527037-.12139678-36.8723452091,7.7868819237-36.8723452091,22.2290754318,0,8.647030592,6.3389092684,17.1628117561,18.7575012446,17.1628117561,7.3528110981.1518666744,14.3310964107-3.1570315361,18.7476575375-8.8898420334h.3740608692l.8920311928,7.5346827507h10.0115597248c-.6529659033-4.7465622425-.9506195784-9.5324993134-.8920311928-14.3212616444v-22.3785817623ZM104.3092191219,261.2978041172c.0023424625,1.1709451675-.1687467098,2.3357927799-.5081266165,3.4589231014-2.2565603256,6.179523468-8.3498418331,10.229998827-15.0749981403,10.020929575-5.571565032,0-10.3856295347-3.2156288624-10.3856295347-10.3762507439,0-11.6099953651,13.8089060783-13.7039065361,25.9687542915-13.4610950947v10.3762507439-.0187575817ZM119.1540658474,221.6532886028l23.3123481274,59.7707748413h10.644364357l24.0703225136-59.7707748413h-11.6512656212l-11.910456419,33.4935843945c-2.0329713821,5.5621862411-3.8357913494,10.4976654053-5.1979780197,15.4429793358h-.3834307194c-1.2656271458-4.9453139305-2.8767228127-9.8807930946-4.9387514591-15.4429793358l-12.0346784592-33.465474844-11.9104743004-.0281095505ZM226.232033968,244.7523474693c0-11.8626594543-4.5646905899-24.3046939373-23.3123481274-24.3046939373-7.7292144299,0-15.1996850967,2.1032810211-20.2631235123,5.1881253719l2.5317192078,7.2820365429c4.8037469387-2.9611051083,10.3795230389-4.5121908188,16.0626590252-4.4685959816,12.5339090824-.1214146614,13.934057951,8.8898420334,13.934057951,13.7043714523v1.2337446213c-23.696243763-.12139678-36.8723452091,7.7868819237-36.8723452091,22.2295403481,0,8.6465656757,6.3389003277,17.1628117561,18.7575101852,17.1628117561,7.3528110981.1514017582,14.3310785294-3.1574964523,18.7476575375-8.8903069496h.3740608692l.8920311928,7.5346827507h10.0593745708c-.6525099277-4.7465622425-.9506285191-9.5324993134-.8920311928-14.321243763v-22.3504722118h-.0192224979ZM215.4629647732,261.2978041172c.0023424625,1.1709451675-.1687467098,2.3357927799-.5081176758,3.4589231014-2.2560954094,6.179523468-8.3498418331,10.229998827-15.0749981403,10.020929575-5.5715739727,0-10.3856384754-3.2156288624-10.3856384754-10.3762507439,0-11.6099953651,13.8089060783-13.7039065361,25.9687542915-13.4610950947v10.3762507439-.0187575817ZM250.0721871853,281.4240634441v-59.7707748413h-11.143130064v59.7707748413h11.143130064ZM244.500631094,198.2275009155c-1.8642246723-.0492185354-3.6670446396.6506234407-4.9856364727,1.9359380007-1.3185918331,1.2857794762-2.0367085934,3.0431270599-1.9860863686,4.8600018024-.0773370266,1.7685949802.6004750729,3.4893751144,1.8726468086,4.752650857,1.2721896172,1.2628108263,3.0248522759,1.9556254149,4.8403143883,1.9125044346,4.4301688671,0,7.0865750313-2.9634386301,7.0865750313-6.6651552916.0717043877-1.8000036478-.6210923195-3.5489112139-1.9153118134-4.8351556063-1.2937545776-1.2862533331-3.0745446682-1.9954741001-4.9223542213-1.9607841968h.0098526478ZM263.2773458958,281.4240634441h11.143130064v-87.6740634441h-11.143130064v87.6740634441ZM333.4829688072,244.7523474693c0-11.8626594543-4.5548558235-24.3046939373-23.312330246-24.3046939373-7.7198624611,0-15.1996850967,2.1032810211-20.2631235123,5.1881253719l2.5317192078,7.2820365429c4.8149943352-2.9564023018,10.4015350342-4.4981360435,16.0917162895-4.4404685497,12.5910758972-.1495420933,13.9335751534,8.9085817337,13.9335751534,13.6762440205v1.2337446213c-23.6957788467-.12139678-36.8624925613,7.7868819237-36.8624925613,22.2295403481,0,8.6465656757,6.3290476799,17.1628117561,18.7476396561,17.1628117561,7.3532938957.1514017582,14.3311142922-3.1574964523,18.7476754189-8.8903069496h.383913517l.8821606636,7.5346827507h10.0115776062c-.6478071213-4.7470271587-.9459257126-9.5324993134-.8920311928-14.321243763v-22.3504722118ZM322.7138996124,261.2978041172c.0023603439,1.1709451675-.1687288284,2.3357927799-.5081176758,3.4589231014-2.2537350655,6.1814010143-8.3488941193,10.2328062057-15.0750160217,10.020929575-5.5715560913,0-10.385620594-3.2156288624-10.385620594-10.3762507439,0-11.6099953651,13.8089060783-13.7039065361,25.9687542915-13.4610950947v10.3574931621Z"/><path class="cls-3" d="M344.2534327507,266.0176515579c0,5.3114175796-.2564191818,11.3615691662-.5034327507,15.4387593269h9.4148397446l.627207756-9.7626686096h.2470135689c4.6457648277,7.7896893024,11.6760849953,11.1187577248,20.4642176628,11.1187577248,13.5478019714,0,27.3613929748-10.6232821941,27.3613929748-31.9912433624,0-18.0384457111-10.5454444885-30.3918778896-25.7366895676-30.3918778896-9.7856283188,0-16.8159484863,4.199051857-20.7018971443,10.8759284019h-.256383419v-37.5553071499h-10.9162688255v72.2676515579ZM355.1697015762,246.8659460545c.0009298325-1.5450060368.2118587494-3.0829846859.6271719933-4.5731306076,2.2607803345-8.1543803215,9.2915654182-13.3349955082,16.692173481-13.3349955082,11.9231343269,0,18.2029724121,10.286718607,18.2029724121,22.2374975681,0,13.7095212936-6.7832708359,22.9767143726-18.449985981,22.9767143726-7.85343647.0539124012-14.7135972977-5.2157878876-16.5688991547-12.7274930477-.3623485565-1.2871921063-.531578064-2.619856596-.5034327507-3.9557933807v-10.6227993965ZM423.9727973938,281.465780735v-59.8017096519h-11.0399723053v59.7923398018l11.0399723053.0093698502ZM418.4528112411,198.238748312c-1.8468618393-.0496834517-3.6328196526.6506234407-4.9392342567,1.9364118576-1.3063788414,1.2862443924-2.0179510117,3.0440568924-1.9678115845,4.8618704081-.076854229,1.7690598965.5948424339,3.4907788038,1.8553376198,4.7540634871,1.2604594231,1.2637495995,2.9967069626,1.956564188,4.7952890396,1.9134342671,4.3889164925,0,7.0209503174-2.9643684626,7.0209503174-6.6674977541.0707745552-1.800468564-.6154775619-3.5503149033-1.8975019455-4.8370331526-1.2820243835-1.2867182493-3.0459165573-1.9959390163-4.8763990402-1.9612491131h.0093698502ZM438.3109211922,281.465780735h11.0390782356v-87.715780735h-11.0390782356v87.715780735ZM463.9609217644,281.465780735h11.0390782356v-87.715780735h-11.0578179359l.0187397003,87.715780735Z"/><rect class="cls-1" width="500" height="500"/></svg>