<?xml version="1.0" encoding="UTF-8"?><svg id="Layer_1" xmlns="http://www.w3.org/2000/svg" xmlns:xlink="http://www.w3.org/1999/xlink" viewBox="0 0 500 500"><defs><style>.cls-1{fill:none;}.cls-1,.cls-2,.cls-3,.cls-4{stroke-width:0px;}.cls-2{fill:#1e3764;}.cls-3{fill:url(#linear-gradient);}.cls-4{fill:url(#linear-gradient-2);}</style><linearGradient id="linear-gradient" x1="70.5105175509" y1="-2876.6369097432" x2="235.1078079399" y2="-2815.5008073913" gradientTransform="translate(0 -2626.5692749023) scale(1 -1)" gradientUnits="userSpaceOnUse"><stop offset="0" stop-color="#005ab9"/><stop offset="1" stop-color="#1e3764"/></linearGradient><linearGradient id="linear-gradient-2" x1="263.6233114624" y1="-2835.0990797561" x2="438.3920907219" y2="-2775.4723745104" gradientTransform="translate(0 -2626.5692749023) scale(1 -1)" gradientUnits="userSpaceOnUse"><stop offset="0" stop-color="#fba900"/><stop offset="1" stop-color="#ffd800"/></linearGradient></defs><path id="Bancontact" class="cls-2" d="M25,388.6013301312v-65.0013746615h20.0571385589c14.578690187,0,23.9578690187,5.4786834312,23.9578690187,16.8075614915,0,6.407324308-2.9717761706,10.8645967985-7.1501899976,13.4645091823,6.0363224052,2.7854916883,9.5647189596,8.171365879,9.5647189596,15.5073702403,0,13.0933897499-9.5647189596,19.221972924-24.4217193385,19.221972924l-22.0078172012-.0000391765ZM37.9075753861,350.6217438982h9.5640921349c5.8501554526,0,8.3574544786-2.8787318708,8.3574544786-8.171365879,0-5.6646545012-4.5501209075-7.5215444892-10.678586552-7.5215444892h-7.2429600615v15.6929103682ZM37.9075753861,377.2724128943h7.9851205732c7.8008340948,0,12.3509550023-1.9500518175,12.3509550023-8.078595815,0-6.0357739336-3.900103635-8.54295543-11.2358337605-8.54295543h-9.1002418151v16.621551245ZM96.4599027168,389.7155503124c-12.7214084335,0-19.1288110945-6.2213140615-19.1288110945-14.5787293635,0-9.1932861149,7.5218970782-14.5791994821,18.6649607747-14.6719303695,2.7686849495.0505769225,5.5304748267.2989170558,8.2640575899.7431007488v-2.2288713045c0-5.6641843826-3.2494595378-8.3573761255-9.4713220709-8.3573761255-4.1915771468-.0524573968-8.35369353.704315967-12.2575581136,2.2288713045l-2.3217588981-10.0286868091c3.992873699-1.6717416256,10.4002763601-2.7859618069,16.0648916847-2.7859618069,13.6503627226,0,20.4288456395,7.2432342973,20.4288456395,19.7790634263v25.8147981833c-3.8073335711,1.9500518175-10.9568967438,4.085722116-20.2433055116,4.085722116h0ZM104.2601099869,379.2225038884v-9.9358775686c-2.165052709-.4814405895-4.3746099757-.7305642537-6.5923159643-.7431007488-4.2724375404,0-7.6152939669,1.6717416256-7.6152939669,6.0362048756,0,3.9001428116,2.7862360427,5.9430038696,7.7080640308,5.9430038696,2.2377643808.0729859076,4.4623654416-.3719421399,6.4995459003-1.3001912512v-.0000391766ZM125.7257237737,388.6012909546v-44.4796022518c6.6725495331-2.6803418354,13.7945324166-4.0669565499,20.9854660233-4.0857221161,13.5575926586,0,21.3577999287,6.6856344999,21.3577999287,19.0359626775v29.529400867h-12.8141784974v-28.6007599902c0-6.4072851314-2.9717761706-9.3787478897-8.6363914952-9.3787478897-2.8125626825-.0394507831-5.6000523747.5309205688-8.1719143507,1.6717416256v36.3078054308l-12.7207816087-.0000783531ZM212.8512308052,342.8218500405l-2.4145289621,10.1214960496c-3.3165297867-1.4373483432-6.8781480532-2.2254237684-10.493046424-2.321680545-7.5212702534,0-11.6069140163,5.2931433033-11.6069140163,14.0220698032,0,9.5644055473,4.2711838909,14.4859592996,12.2575581136,14.4859592996,3.5641255655-.0975496027,7.0705832535-.9190034461,10.3075062961-2.4144114324l2.0421950567,10.307427943c-4.2041136419,1.8711110747-8.7705319931,2.7905846394-13.371425706,2.6927216243-15.4142475874,0-24.3289492745-9.5643663707-24.3289492745-24.7006171786,0-15.0430498019,8.8219316232-24.9789273705,23.5861619381-24.9789273705,4.81401413-.0236626346,9.5828968776.9239396911,14.0214429784,2.78604016v-.0000783531ZM240.5349461766,389.7155503124c-14.2997531703,0-23.2144548575-9.9359167451-23.2144548575-24.8861573065,0-14.857509674,8.9147016871-24.7933872426,23.2144548575-24.7933872426,14.3931500591,0,23.1223116183,9.9358775686,23.1223116183,24.7933872426,0,14.9502405614-8.7291615592,24.8861573065-23.1223116183,24.8861573065ZM240.5349461766,379.129773001c6.592942789,0,10.0291961042-5.4786834312,10.0291961042-14.3003799951,0-8.7289656765-3.4362533152-14.2076099311-10.0291961042-14.2076099311-6.500172725,0-10.1213393434,5.4786834312-10.1213393434,14.2076099311,0,8.8216965639,3.6211666184,14.3003799951,10.1213393434,14.3003799951ZM271.0725946645,388.6013693077v-44.4796806049c6.6731763578-2.6803418354,13.7951592413-4.0669173734,20.9860928481-4.0857221161,13.5575926586,0,21.3577999287,6.6856344999,21.3577999287,19.0359626775v29.529400867h-12.8141784974v-28.6007599902c0-6.4072851314-2.9717761706-9.3787478897-8.6363914952-9.3787478897-2.8131895072-.0394507831-5.6006791995.5309205688-8.1719143507,1.6717416256v36.3078054308h-12.7214084334ZM342.3162428403,389.7155503124c-11.0502936326,0-16.7149089572-6.035734757-16.7149089572-18.2932928706v-20.0573736182h-6.3146325971v-10.2146970556h6.3152594219v-10.3074671196l12.8141784974-.6498605663v10.9573276859h10.3075062961v10.2146970556h-10.3075062961v19.8717943137c0,5.3859133673,2.2289888342,7.8930948637,6.4074026611,7.8930948637,1.6560710067-.004152714,3.3065005906-.190985668,4.9212011634-.5570905024l.6506440973,10.3074671196c-2.6520955448.5872956203-5.3631126167.8676429927-8.0791442867.8354006942ZM374.6610271011,389.7155503124c-12.7214084334,0-19.1288110945-6.2213140615-19.1288110945-14.5787293635,0-9.1932861149,7.5212702534-14.5791603056,18.6649607747-14.6719303695,2.7686849495.0506160991,5.5304748267.2989562323,8.2640575899.7431007488v-2.228832128c0-5.6641843826-3.2500863625-8.357415302-9.4719488957-8.357415302-4.1903234973-.0524573968-8.3524398806.7043551436-12.2575581136,2.2289104811l-2.3211320734-10.0286868091c3.992873699-1.6717808022,10.4002763601-2.7859618069,16.0648916847-2.7859618069,13.6503627226,0,20.4288456395,7.2431951208,20.4288456395,19.7790242498v25.8148373599c-3.8067067463,1.950012641-10.9575235686,4.0856829395-20.2433055116,4.0856829395ZM382.4612343712,379.2225430649v-9.9359167451c-2.165052709-.4814405895-4.3752368005-.7305642537-6.592942789-.7431007488-4.2711838909,0-7.6140403174,1.6717416256-7.6140403174,6.0362048756,0,3.9001428116,2.7856092179,5.9430038696,7.7068103813,5.9430038696,2.2383912055.0730250841,4.4623654416-.3719029634,6.500172725-1.3001912512ZM438.7475902071,342.8219283936l-2.4145289621,10.1214568731c-3.3171566115-1.4373483432-6.8794017027-2.2254629449-10.493046424-2.3216413685-7.5212702534,0-11.6069140164,5.2931041267-11.6069140164,14.0220698032,0,9.5643663707,4.2711838909,14.485920123,12.2575581136,14.485920123,3.5634987408-.0975104262,7.0705832535-.9190034461,10.3068794714-2.4144114324l2.0428218815,10.3074671196c-4.2041136419,1.8710327216-8.7699051684,2.7905062864-13.3714257059,2.6926824478-15.4148744122,0-24.3289492746-9.5643663707-24.3289492746-24.7006171786,0-15.0430106254,8.8206779737-24.9789665471,23.5861619381-24.9789665471,4.8133873053-.0236626346,9.5822700528.9239005146,14.0214429785,2.78604016ZM466.9221093628,389.7155503124c-11.0502936326,0-16.7149089572-6.035734757-16.7149089572-18.2932928706v-20.0573736182h-6.3146325971v-10.2146970556h6.3146325971v-10.3074671196l12.8148053222-.6498605663v10.9573276859h10.3068794713v10.2146970556h-10.3068794713v19.8717943137c0,5.3859133673,2.2283620094,7.8930948637,6.4074026611,7.8930948637,1.6554441819-.004152714,3.3065005906-.190985668,4.9212011634-.5570905024l.6493904478,10.3074671196c-2.6514687201.5872956203-5.362485792.8676429927-8.0778906372.8354006942Z"/><path id="blue-symbol" class="cls-3" d="M114.3839566293,291.0994052568c67.8080216854,0,101.7123459404-45.2054653199,135.6166701954-90.410950228H25v90.410950228h89.3839566293Z"/><path id="yellow-symbol" class="cls-4" d="M385.6160433707,110.2774656242c-67.8073948606,0-101.7117191156,45.2055044964-135.6154165459,90.4109894046h224.9993731753v-90.4109894046h-89.3839566293Z"/><rect class="cls-1" width="500" height="500"/></svg>