<?xml version="1.0" encoding="UTF-8"?><svg id="Layer_1" xmlns="http://www.w3.org/2000/svg" viewBox="0 0 500 500"><defs><style>.cls-1{fill:none;}.cls-1,.cls-2{stroke-width:0px;}.cls-2{fill:#002d73;}</style></defs><path class="cls-2" d="M197.5620076939,243.0885983863c2.506015831-12.4233362075,8.7710554087-22.1298907437,21.9728805657-24.7566647208,8.9215343812-1.7747667061,18.888553389-1.1767541715,26.7144434862,3.8485396795.1150721555.0738564075.1494954499.2258721343.0767147703.3394997408-.0039340908.0059626064-.0078681816.0117715373-.0118022724.0173653226l-10.3859996765,13.5100673172c-.0698301115.0921745177-.1553965861.1104004227-.2566994238.0546777149-3.7039464756-2.0534109801-7.7963844163-2.7939728356-12.2782973449-2.2216855665-6.9289173978.8841869043-8.4622292819,7.0733415588-9.5490218617,12.9056311499-.9038573582,4.8323543594-2.681082871,16.4004868472,2.4883124225,19.5159793993,1.157606214.6966414201,2.8168090032,1.0845796537,4.976624845,1.1638761711,4.0885038499.1522001373,7.9104730491-.8820354484,11.4649240747-3.1026145518.0855664746-.0526799344.1957210166-.0270161391.2488312423.0573209322.0019670454.0033501242.0039340908.0067309835.0059011362.010204048l6.5237060468,12.6741037601c.0413079532.0792657823.0127857951.1769726152-.0639289753.2218765733-8.5271417799,4.9770551362-19.3232704209,6.3242046148-28.8762263734,4.1378951304-17.9276517144-4.1057462322-15.7029233746-25.2035682137-13.0503626617-38.3760721003Z"/><path class="cls-2" d="M243.7285630743,237.8897281469c3.2220203542-10.9315474223,10.9633274995-18.1720571045,22.4361197558-19.8568161163,10.7774417098-1.5818579497,24.750348661-.4887032074,29.4053615842,11.1083817297,2.9997442247,7.4687791531,2.0191720962,16.9566996672.6304380485,25.1392704174-2.4883124225,14.6449910389-9.2765860747,26.0555754847-25.3807867095,27.9492869669-8.837934952,1.0353113136-20.8369118511.1286263277-26.3839798601-8.0217647892-2.5365050346-3.7263830871-3.6301822733-9.0056563069-3.7423038607-13.5550942156-.1839187443-7.6842013587.8281261106-15.271986758,3.0351510418-22.7632639928ZM266.8974072391,234.3112422854c-4.253735663,1.2088723345-6.4882992297,5.4753937925-7.337079317,9.5232658611-.9382806526,4.4540669422-1.4870863173,8.9563572317-1.6454334715,13.5068708684-.1612977223,4.613735705.8123897474,9.1792480629,6.147016854,10.1277327634,7.3695355659,1.3085462128,12.7120308541-1.7812210738,14.4774540946-9.0860285523.9904073555-4.1068219602,1.6119936998-8.5265885484,1.8647590328-13.2592997646.0963852243-1.8347615906-.0029505681-3.5666528541-.2989908998-5.1956737906-1.1831778041-6.5267795553-8.0383309996-7.0829923753-13.2077262932-5.6168673854Z"/><path class="cls-2" d="M77.8879494892,244.0788828015c7.294787841-.2604491041,12.5231944963,4.2086165593,12.349110979,11.8606997549-.0029505681.1075420599-.0904840881.192954859-.1986715847.1928933889H28.3754498949c-.1268744279,0-.1829352216-.0621463404-.1681823811-.1864697563l1.5018391578-11.6967280803c.0147528404-.1135968715.0796653384-.1703953072.1927704485-.1703953072,8.6058235956-.0064543677,17.2047625324-.0064543677,25.7958332875,0,2.2050578859,0,3.653786818-.1307470485,4.3461867965-.3922411455,2.7843527542-1.0610365792,3.4590493241-4.2761722745,3.5721544342-6.9961964973.1131051101-2.630001161-.9097584944-4.4111607646-3.7137817025-4.4176151323-9.4742741368-.017150177-18.9387130466-.0203466258-28.3962672975-.0096200814-.1150721555.0008605824-.2094903344-.0920208423-.2104738571-.2074003487,0-.00912832,0-.0182566401.0019670454-.0273234899l1.6198618814-13.5904549301c.0147528404-.1230479099.1190062463-.216451831.2448971515-.218634022,9.9562002581-.0642977963,19.9428897198-.0535866194,29.9581013397.0321488981,7.8494946419.0643131638,17.3424557099,2.7136005902,17.883393193,12.294740615.2685016962,4.7305597603-.7917357708,9.2071247843-3.1797288782,13.4296950718-.0196704539.0319337526-.0078681816.0736105268.0255715901.0930351001.0118022724.0067617185.0245880674.0101733129.0383573852.0098659621Z"/><path class="cls-2" d="M114.3736909666,272.8223336108c-.0186869312-.1184837499-.1209732917-.205709919-.2409630607-.2057713892l-18.2138568191-.0096508165c-.165231813-.0000922052-.3137437402.1003193151-.3766891928.2540254715l-3.4629834149,8.5362086297c-.0599948845.1457457696-.1681823812.2186493895-.3265295353.2186493895l-16.1759977917-.0032271838c-.119989769,0-.1563801088-.0557227078-.110154542-.1671681233l9.6208190185-22.0045069674c.0481926121-.1093246947.1337590867-.1650781376.2537488557-.1671988584,2.9771232027-.0321488981,7.7196696459,1.0384770273,7.9921054329-3.5495641473.197688062-3.3265811109-.6530590706-6.3413547918-2.5522413978-9.0441981026-.0639289753-.0921745177-.0747477249-.1896969401-.0295056809-.2925672672l12.2153518923-27.9814819677c.0481926121-.1135507688.1612977222-.1877606298.285221582-.1896969401,6.9033458077-.1350345927,14.9062699903-1.2056912533,18.5993977162,6.3209927985.4996295299,1.0224025782.9559840611,2.6343040728,1.3700471164,4.8355815433,3.258410694,17.3510922686,6.5060026383,34.7032910002,9.7417923102,52.0565347246.0216374993.1200512392-.0285221582.1800768587-.1504789726.1800768587l-16.7159517521.0096508165c-.2183420387,0-.3452164665-.1082489668-.3786562382-.3247469004l-1.3444755263-8.4719415685ZM101.3429987588,258.2866365316c-.0285221582.0650661734.0009835227.1408896263.0658960207.1693195792.0157363631.0067924536.032456249.0104191936.0491761348.0107265444l10.7262985296-.0064236326c.0708136342.0010757279.1288414733-.0555997674.129824996-.1265978121,0-.0082370026,0-.0164432701-.0009835227-.0245265972l-3.1315362661-17.9276824495c-.0127857951-.0699223167-.0806488611-.1164244992-.1494954499-.1038538498-.042291476.0075915658-.0786818157.0356834328-.0944181789.0749014004l-7.5947622635,17.9341368172Z"/><path class="cls-2" d="M333.5595920948,252.5893661657c.0137693178.0679552713.0806488611.1120601172.1475284045.0985674153.0403244306-.0079911219.0747477249-.0351916715.0914676108-.0728421497l14.3623819391-34.000241315c.1180227236-.278644274.3255460126-.417966411.6265039578-.417966411l20.7179056048-.0064236326c.2045727209,0,.2930897636.1018099666.2665346508.3054452675l-7.7894997574,62.9591143301c-.0108187497.102870327-.0688465888.1543515932-.1730999946.1543515932l-15.925199504.0096508165c-.1711329492,0-.2468641969-.0847058922-.2252266975-.2540254715l4.4042146356-35.6913932244c.0059011362-.0672176293-.0432749987-.1265056069-.110154542-.132406743-.0511431802-.004395117-.0983522697.0226824922-.1209732917.0680782117l-15.1816563454,35.839321185c-.0481926121.1071732388-.1288414733.1607752258-.2439136288.1607752258l-10.2886309296.0128472652c-.0668795434,0-.1062204512-.0332246261-.1190062463-.0996738783l-6.5630469547-36.2315623304c-.0009835227-.0390642921-.0334397717-.070014522-.0717971569-.0691232045-.0383573852.0008605824-.0698301115.0332860963-.0688465888.0723196533l-4.4465061115,36.2122914326c-.0068846589.0625151614-.0609784072.1098164561-.1258909052.1093246947h-14.5158114797c-.1121215874,0-.1612977223-.0557227078-.1485119272-.1671988584l7.8003185071-63.0170038613c.0147528404-.1264595042.1209732917-.222660318.2478477195-.2250576546,3.6164129556-.0321488981,7.2436446608-.0278613539,10.8856292064.0128626328,4.9038441655.0578741637,8.9313696082,1.8840760333,11.1187240855,6.407804044.5271681654,1.0910032863,1.0228636045,2.9139933397,1.4851192719,5.4689701599,1.3631624575,7.5106096027,2.6850169618,15.0083104701,3.9635964675,22.4931948073Z"/><path class="cls-2" d="M404.1588183052,272.7901847127c-.0177034086-.1037616445-.1072039739-.1798924482-.2124409025-.1800461237h-18.3426982924c-.1042534058-.0001844105-.1996551074.0631605982-.2409630607.1607444907l-3.5269123902,8.7130890397c-.0344232944.0835686941-.0963852243.1253991438-.1868693123.1253991438l-16.2232068811.0096508165c-.1612977223,0-.2094903344-.0729036199-.1445778364-.2186801246l27.4668383491-62.984824228c.0599948845-.1371706811.165231813-.2068317496.3147272629-.2089832055,6.8620378545-.096462062,14.6318671579-1.1381509056,18.3043409072,6.3145691659.5104482796,1.0352805785.982539174,2.698571134,1.4182397286,4.9899024014,3.2918504657,17.344699371,6.5797668405,34.6818379114,9.8637491246,52.0115385613.0127857951.0621463404-.0127857951.0932502457-.0767147703.0932502457l-16.8644636793-.0064236326c-.0983522697,0-.1544130634-.0482540823-.1691659038-.1447007767l-1.3798823434-8.6744857739ZM398.8310758575,240.3331980815c-.0118022724-.060916937-.0708136342-.1004422554-.1317920413-.0882404269-.0354068171.0070075992-.064912498.0302125878-.0806488611.0625458965l-7.6232844217,18.0048582461c-.0245880674.0569521112.0009835227.123278423.0580278391.1481431062.0147528404.0061777519.0295056809.0093742007.045242044.0094049358l10.7715405736-.0096508165c.0609784072.0009220525.1131051101-.0487151086.1140886328-.110861449,0-.0070075992-.0009835227-.0140459335-.0019670454-.0209613275l-3.15120672-17.9952381647Z"/><path class="cls-2" d="M420.6426587009,233.343486687l1.8873800549-14.9890549398c.0108187497-.08934689.0865499973-.1566567245.1770340854-.157548042l52.113917127-.0032118163c.0993357924.0009988902.1799846535.0824007609.1790011308.1818287585,0,.0069307615-.0009835227.013861523-.0019670454.0207308143l-1.8834459641,14.9922513886c-.0118022724.0893161549-.0865499973.1566259894-.1770340854.157548042h-18.59349658c-.0914676108-.000737642-.1681823811.0669717486-.1809681762.1575173069l-5.8765481124,47.9122466967c-.0118022724.0905455583-.0885170427.1582242138-.1799846535.157548042h-16.4838403957c-.0993357923-.0009835227-.1799846535-.082431496-.1780176081-.1818594936,0-.006915394,0-.013861523.0009835227-.0207154468l5.8647458401-47.8221621648c.0118022724-.0986596205-.0580278391-.1887441525-.1563801088-.2011918616-.0068846589-.0008605824-.0137693178-.0013216086-.0206539766-.0013830788h-16.3136909692c-.0993357924-.0009835227-.1790011308-.0824007609-.1780176081-.1818287585,0-.006946129,0-.013861523.0009835227-.0207154468Z"/><path class="cls-2" d="M156.1763561419,248.3261026266c-.0265551128-.0602407652-.097368747-.0855050044-.1583471542-.0564296147-.0373738625.0180107594-.0629454526.0538478676-.0688465888.0950021455l-4.1357129394,33.2318181057c-.0127857951.100657401-.0993357924.1762349732-.2016221528.1768496749h-15.455075655c-.1249073825,0-.1790011308-.0611013475-.1642482903-.1833040426l7.8022855525-63.0555610245c.0137693178-.1200205041.0796653384-.1800461237.2006386301-.1800461237,2.9171283182,0,5.8234378868-.0021360884,8.7189287057-.0064236326,5.8057344783-.0096508164,9.8253917395,2.0287614425,12.2979677988,7.5909664806,1.5883891551,3.5666835892,5.0857958643,10.9508183202,10.4912366051,22.1524041929.0196704539.044135581.0717971569.0624536912.1160556782.0408776621.0265551128-.0133390266.0462255667-.0396482587.0511431802-.0697993764l3.6232976144-29.5311910192c.0147528405-.1178844157.0826159065-.1768343074.2026056755-.1768343074h15.5062188352c.1632647677,0,.2350619245.0814633408.2153914706.2443439199l-7.7708128262,62.7983698393c-.0147528405.1269973682-.1209732917.2225220101-.2468641969.2218765733l-15.09215578-.0096508165c-.0944181789,0-.1622812449-.0428754426-.2026056755-.1286263277l-15.7294784874-33.1546423091Z"/><path class="cls-2" d="M25.0019670454,281.6157948959l1.617894836-13.0856772736c.0147528404-.1157483274.0806488611-.174698219.1986715847-.1768189398,9.4034605026-.0086058236,18.7951187328-.0107265444,28.1749746907-.0064543677,5.2982367668,0,7.0734952343-3.7745756992,6.6259924073-8.6134151614-.0108187497-.1131358452.0727806796-.2134858953.184902267-.2241509696.0078681816-.0006147017.0137693177-.0009220525.0206539766-.0008913174h16.8861011787c.0727806796-.0000307351.132775564.0584888654.1347426094.1318227764.2871886274,15.8924973744-10.3210871786,22.2006275401-24.8270634313,22.2585017038-9.580494588.0364518099-19.160989176.0471476193-28.7395167186.0321488981-.1553965861-.0005224964-.2793204458-.126198256-.2793204458-.2806727895,0-.0114949215.0009835227-.022989843.0019670454-.0343925593Z"/><rect class="cls-1" width="500" height="500"/></svg>