<?xml version="1.0" encoding="UTF-8"?><svg id="Layer_1" xmlns="http://www.w3.org/2000/svg" xmlns:xlink="http://www.w3.org/1999/xlink" viewBox="0 0 500 500"><defs><style>.cls-1{fill:none;}.cls-1,.cls-2{stroke-width:0px;}.cls-2{fill:url(#linear-gradient);}</style><linearGradient id="linear-gradient" x1="48.0277150413" y1="411.7267895368" x2="382.500020037" y2="77.2544845411" gradientTransform="translate(0 502) scale(1 -1)" gradientUnits="userSpaceOnUse"><stop offset="0" stop-color="#ff8c28"/><stop offset="1" stop-color="#d9007e"/></linearGradient></defs><path class="cls-2" d="M291.5810472518,387.4525975882l25.366845445,34.9559363122h-20.0641623284l-21.4321779145-29.8226721837v29.8226721837h-17.0024538666v-62.7982631456c.1371931984-1.5192839597,1.4800205824-2.639652006,2.9993045421-2.5024786878l.0103178191.0009542492h13.9928116252v27.7901612121l21.7448734393-27.7901214517h18.8915889004l-24.5069476617,30.3438115116ZM229.3169648395,397.5367847331c-3.7131823222-6.7358460887-26.2267432283-40.3889142009-26.2267432283-40.3889142009h-17.836248959v65.2997478238h16.5334006392v-41.2487722238l27.3602322006,41.2097275286h16.4552118478v-65.2997875842h-16.2858525004v40.4279986565ZM157.6592138378,357.1478705322l19.7124022281,65.2997478238h-17.4193414727l-3.2311175097-10.9962107891h-22.4875079157l-3.1138542029,10.9962107891h-17.497520324l19.4127381685-63.097897385c.3775944085-1.4411945693,1.7489896271-2.3923424294,3.2311175097-2.2409348945l21.3930835188.0390844556ZM153.8287781489,398.8396529331l-7.9865784877-29.2233241842h-.7947503972l-7.9865784877,29.2233241842h16.7679073727ZM110.0524086159,404.350799733c0,13.2501870889-10.9962107891,18.0577341674-25.9140477034,18.0577341674h-26.5133609125v-62.3682943738c.0069381867-1.6261598667,1.3308445989-2.9388091207,2.9570243458-2.9318908143.0131905068.0000397604.0263810135.0001988019.0395715203.0004373642h23.8685450269c12.0645623155,0,22.9695627881,3.7653081831,22.9695627881,16.2207249945,0,7.8172092002-3.0878012125,13.3153145947-9.7324270446,15.1262807174,6.957321357,1.3549940609,12.3772578404,6.4622548996,12.3772578404,15.8819665392l-.0521258609.0130414053ZM73.2203339448,383.3355293049h9.1200724302c6.6837102877,0,9.628195203-2.149724578,9.628195203-7.2569854167s-3.1529386584-7.0615631387-9.2243092418-7.0615631387h-9.5109368662l-.0130215251,14.3185485554ZM94.0662201752,402.6700886221c0-5.4850639892-3.2311175097-7.8172092002-10.1102600155-7.8172092002h-10.735626215v15.6344184004h10.1884338967c6.7749106641-.0520861005,10.6965467294-2.2148520838,10.6965467294-7.8172092002h-.0390943957ZM255.7651932761,195.8658446779c0-18.8134199893,11.3610122947-34.2002902508,32.8583375952-34.2002902508,20.1293097144,0,31.5033634144,15.3868702615,31.5033634144,34.2002902508.2294372848,8.4830961991-2.6007663523,16.7656012706-7.9735470225,23.3343742338l11.4000967503,8.6119595974-9.3415626086,9.7324270446-12.9505130891-9.6803011837c-4.0273887416,1.5747894531-8.3134982893,2.3834162237-12.6378175643,2.3842511917-20.090245139-.0000198802-32.8583574754-13.9798099803-32.8583574754-34.3827108838ZM273.4711673433,195.8658446779c0,13.9667486947,6.2928557918,20.4680681698,15.152363528,20.4680681698,7.5827024667,0,13.7973694671-6.5143410002,13.7973694671-20.4680681698,0-13.7582850115-6.2146868806-20.2856574769-13.7973694671-20.2856574769-8.8595077362-.0000099401-15.152363528,6.5273525852-15.152363528,20.2856574769ZM330.3153331525,163.4895619551v39.6071853288c0,17.7190154725,9.563047817,26.8781773283,28.8585226786,26.8781773283,19.8296555949,0,27.4774855674-11.8561085723,27.4774855674-28.4546367174v-38.0307259397h-16.7549057278v38.4346119009c0,7.9865884278-3.7001409168,14.2273183587-11.2698019782,14.2273183587-8.1820107058,0-11.5303915223-6.0453076529-11.5303915223-14.9178369143v-37.7440933453h-16.7809090177ZM415.2753573435,215.7866907091v-14.6442457252h23.6340482335v-12.103636831h-23.6340482335v-12.820218317h26.3961224559v-12.7290278807h-39.3205924948c-1.48393698-.0236574273-2.7238247348,1.1243838449-2.8142000833,2.6057364001v62.6288839179h42.8383127787v-13.0286820003l-27.0996426565.0911904363ZM201.7873732914,187.6186865861l27.3602322006,41.2227490537h16.4552118478v-65.3518736848h-16.2858525004v40.3889142009c-3.7131823222-6.7358262085-26.2267432283-40.3889142009-26.2267432283-40.3889142009h-17.836248959v65.2997478238h16.5334006392v-41.1706231928ZM131.1197949649,228.8414356399h-17.497520324l19.4127381685-63.0718543347c.3876239649-1.4326361471,1.7542777579-2.3749671425,3.2311175097-2.2279034292h21.4582408449l19.712392288,65.2997577639h-17.4844888588l-3.2311175097-11.0092323142h-22.4875079157l-3.1138542029,11.0092323142ZM137.112986697,205.2595132672h16.7679173128l-7.9865784877-29.2363655895h-.7947503972l-7.9865884278,29.2363655895ZM84.1904867735,228.8283942345h-26.5654867735v-62.3552629086c.0069381867-1.6261797469,1.3308445989-2.9388290009,2.9570243458-2.9318908143.0131905068.0000596406.0263810135.0001988019.0395715203.0004373642h23.8685450269c12.0645623155,0,22.9695627881,3.7522568376,22.9695627881,16.2207051143,0,7.8171992601-3.0878012125,13.3022831295-9.7324270446,15.1132691323,6.9573114169,1.3028682,12.3772479003,6.5143410002,12.3772479003,15.8949880643.0000099401,13.2501870889-10.9440849282,18.0577540476-25.9140377633,18.0577540476ZM73.2203389148,189.7423482336h9.1200774002c6.6837102877,0,9.628195203-2.1367030528,9.628195203-7.2439440113s-3.1529386584-7.0615432585-9.2243092418-7.0615432585h-9.5109368662l-.0130264952,14.3054872699ZM83.4087678415,216.9071581563c6.7749106641,0,10.6965467294-2.1757875084,10.6965467294-7.8172092002s-3.2311175097-7.8172092002-10.1102600155-7.8172092002h-10.7747206107v15.6344184004h10.1884338967ZM288.5974679409,145.5230082839c9.6542581335,0,17.5105517892-3.2571705001,21.731832034-6.5143410002l-6.5143410002-12.4033008906c-3.2571705001,2.3712197265-6.0974136336,4.6903235321-13.198061228,4.6903235321-11.8300456419,0-17.3542139669-8.4034959142-17.3542139669-20.2335415561,0-11.5303815822,5.7977595141-19.3736487428,17.041518442-19.3736487428,4.8188390271.1072039302,9.5398277538,1.3813353141,13.7582850115,3.7131723821l6.5143410002-12.0645573455c-5.2114728001-3.4526027181-13.1068509115-5.7847330189-21.6927475784-5.7847330189-22.8522994812,0-33.1189072591,16.0643623219-33.1189072591,33.8745781708s9.8627416969,34.0960484691,32.8322945449,34.0960484691ZM201.7873732914,103.0364754857l27.3602322006,41.2227490537h16.4552118478v-65.2997527939h-16.2858525004v40.3889092309c-3.7131823222-6.7228046834-26.2267432283-40.3889142009-26.2267432283-40.3889142009h-17.836248959v65.2997478238h16.5334006392v-41.2227391136ZM131.1197949649,144.2592245394h-17.497520324l19.4127381685-63.0718443946c.3828924794-1.4359710491,1.752836444-2.3805683863,3.2311175097-2.2279034292h21.4582408449l19.712392288,65.2997577639h-17.4844888588l-3.2311175097-11.0092323142h-22.4875079157l-3.1138542029,11.0092223741ZM137.112986697,120.6773121069h16.7679173128l-7.9865784877-29.2363606195h-.7947503972l-7.9865884278,29.2363606195ZM84.1904867735,144.2462030143h-26.5654867735v-62.3683043139c.0067940553-1.6189831178,1.3247463503-2.9259217869,2.943729468-2.9191277316.0176237894.0000745507.0352475787.000308143.052866398.0007007767h23.8685450269c12.0645623155,0,22.9695727282,3.7522618077,22.9695727282,16.2207100844,0,7.8172092002-3.0878012125,13.3022831295-9.7324270446,15.1132691323,6.957321357,1.3028682,12.3772479003,6.5143410002,12.3772479003,15.8949880643,0,13.2501771488-10.9440948683,18.0577639877-25.9140477034,18.0577639877ZM73.2203389148,105.1601570134h9.1200774002c6.6837102877,0,9.628195203-2.1497345181,9.628195203-7.2569754766s-3.1529386584-7.0615432585-9.2243092418-7.0615432585h-9.5109368662l-.0130264952,14.3185187351ZM83.4087678415,132.2207251544c6.7749106641,0,10.6965467294-2.1627659833,10.6965467294-7.8172092002s-3.2311175097-7.8172092002-10.1102600155-7.8172092002h-10.7747206107v15.6344184004h10.1884338967ZM332.6083541475,144.2071086186h-17.4975103839l19.4127282284-63.0718493647c.3774055467-1.4339979401,1.7430156297-2.3794401854,3.2180860445-2.2279034292h21.4582408449l19.7124022281,65.2997527939h-17.4714673336l-3.2311274498-11.0092323142h-22.4744764505l-3.126875728,11.0092323142ZM338.6145574646,120.6251961861h16.7679073727l-7.9865486675-29.1842446986h-.794730517l-7.9866281882,29.1842446986ZM132.0839146497,326.3480869589H57.625v16.7027798669h74.4589245898l-.0000099401-16.7027798669ZM247.1011078178,248.1759949571h23.1780364114c12.5857115835,0,23.3734586894,2.6057364001,23.3734586894,18.8785673753,0,7.2830284669-4.0258579668,14.7354361615-11.5824975031,16.2467680448,3.7652883029,1.3028682,7.5566395362,6.0974136337,9.6151736779,11.3349493642l7.4654292197,18.8394829197h-17.5887207004l-7.739040289-17.9665437311c-1.5895007945-3.6610564612-2.6969467166-5.4720424641-6.0453076529-5.4720424641h-6.8009735946v23.4516276005h-16.4161472725v-62.7070727093c.1399167845-1.3527475993,1.1918373331-2.4316256869,2.5406088942-2.6057364001h-.0000198802ZM260.9636246709,277.1387494773h8.2080736362c4.9118186806,0,8.7682974198-2.6057364001,8.7682974198-8.8204232807s-3.9086046001-7.5566395362-8.7682974198-7.5566395362h-8.2080736362v16.3770628169ZM144.9301958972,248.1759949571v65.2997478238h16.7679173128v-62.6940114238c-.0490444313-1.3786713685-1.1259742602-2.5004906687-2.5015045584-2.6057364001h-14.2664127544ZM231.9357426449,312.5898019474v-33.7833827645c.1447675512-1.489662475-.9454820057-2.8146175673-2.4351444807-2.9593851185-.0567380652-.0055068129-.1136152918-.0092244086-.1705919193-.0111527872h-21.2497771617v13.3413775252h8.0777788641v11.5043285919c-2.4147474047.3122979211-4.8483213504.4559720617-7.2830284669.4299488916-12.286057464,0-18.9436948812-7.8172092002-18.9436948812-20.4159423088,0-11.8170042366,5.7456535334-19.9859934172,18.0577540476-19.9859934172,5.2307764656.2024598656,10.3761675107,1.3915736125,15.1653850531,3.5047186389l6.5925099113-11.2307175226c-5.3287261669-3.5959090752-13.5889057838-6.110455039-23.0086571838-6.110455039-21.406114984,0-34.2393747064,13.8364539227-34.2393747064,33.8745732008,0,22.3963075393,12.8332597224,33.9918265675,37.1838695618,33.9918265675,7.4709956732-.0206555185,14.9227870819-.757991924,22.2529713619-2.2018703191v.0521258609ZM366.782601348,280.7476999578c0,18.9046104256-11.3349692444,33.9918265675-31.3600471172,33.9918265675-21.3800719337,0-32.6889583675-15.087216142-32.6889583675-33.9918265675s11.3088864338-33.8745732008,32.6889583675-33.8745732008c20.0250778728,0,31.3600471172,15.1002376671,31.3600471172,33.8745732008ZM349.1678375973,280.7476999578c0-13.6931376255-6.1886239501-19.9859934172-13.7452436062-19.9859934172-8.8074017555,0-15.0741946168,6.2928557918-15.0741946168,19.9859934172s6.2667928613,20.1553726449,15.0741946168,20.1553726449c7.556619656-.0521258609,13.7452436062-6.3189187222,13.7452436062-20.1553726449ZM403.3150368097,272.6959840241c-5.6414018116-1.6937326361-10.1363130058-3.4135083224-10.1363130058-6.8009735946s3.5047186389-5.7716965836,9.6933425891-5.7716965836c5.1333038889,0,9.7193856393,2.0845970721,14.2012554283,4.755460978l9.0549498944-10.3187137586c-4.1170682833-3.9086046001-12.1948272673-7.6348084474-22.6308142729-7.6348084474-15.7907562227,0-27.9204559842,7.6348084474-27.9204559842,21.3019030226,0,12.6769020198,10.9701677388,16.4291687976,20.3898793784,19.1260956339,7.8172092002,2.2279133693,13.7582850115,3.5828875501,13.7582850115,7.9735470225,0,4.6772920669-5.3287261669,5.4981053945-9.5500064117,5.4981053945-7.4393662893,0-15.5171650336-3.9086046001-19.6733177725-6.3840462281l-7.4393662893,13.198061228c4.5730801054,3.1529386584,14.826646478,7.1006277141,25.8619417227,7.1006277141,17.2499622451,0,28.0116663006-9.2503721723,28.0116663006-22.7220245894-.0000795208-13.1329138419-13.6280697602-16.2858723806-23.6210465886-19.373663653v.0521258609ZM74.3277699268,275.7316494356l15.9080244996,37.6919674844h8.9246451822l16.1555676684-37.6919674844v37.6919674844h16.715801392v-65.2476219629h-20.6113745269l-16.0773987572,36.8320895813-15.3608172712-36.8320895813h-22.3572181137v65.2997478238h16.7027699268v-37.7440933453Z"/><rect class="cls-1" width="500" height="500"/></svg>