<?xml version="1.0" encoding="UTF-8"?><svg id="Layer_1" xmlns="http://www.w3.org/2000/svg" viewBox="0 0 500 500"><defs><style>.cls-1{fill:none;}.cls-1,.cls-2{stroke-width:0px;}.cls-2{fill:#5c277a;}</style></defs><path class="cls-2" d="M305.5104090323,356.794422249c0-7.0809783665.0241090267-14.1620550036-.0052410927-21.2429350996-.1341719745-32.6825044717-.2903565386-65.3649434297-.4245285132-98.0474479014-.020964371-5.3485679132-1.1132081011-10.4258110059-3.9591214671-15.4316442098h29.9014823854v7.7765368888c1.9350114451-1.5894924052,3.3259974623-2.5738023815,4.5314487959-3.7483312678,8.2830229899-8.0691208918,17.8689816387-8.1610037992,27.918252887-4.360032306,7.0230642916,2.6564806197,11.9633183224,7.8285219775,15.53145427,14.3222031441,8.9025201535,16.2044760934,6.7568167797,40.7833012179-4.8616376395,55.2127174656-7.9088089672,9.8219060932-18.4392125304,14.6251710621-30.8396379886,15.5953300879-3.1645718054.2475433622-6.3563972932.2047956994-9.5345959398.1568724575-1.6467513436-.0248624337-2.631028563.3742795364-2.3207558719,2.218783861,1.0754722333,6.3962951118-1.5513634555,11.4891959691-5.0880528465,16.6173104183-7.0157267617,10.17148698-13.5702373611,20.6598635307-20.3155237367,31.0172782761-.1781971537-.028858767-.3553460888-.0577502908-.5335432425-.0866418146ZM331.1372561668,265.6110697446c.0786163913.0000655137.1593292197.0001310273.2389938296.000196541,0,7.2692973806-.0440251791,14.539217141.0587002389,21.8071059779.0115304041.8628804084.6184489451,2.2319193497,1.2893088177,2.4930240394,8.4748469847,3.2960249631,18.3364871124,1.5163791613,22.1624848235-8.6752860258,1.4150950438-3.7707369394,2.2012589571-7.8788037112,2.6142570662-11.9006545071.7547173567-7.3601648263.3238995323-14.7039512376-2.5262067079-21.676668282-2.0408815188-4.9936149064-5.6257889631-8.2455491767-11.1478042897-8.9334753576-3.7893100618-.4721241867-7.2421419688.6685996514-10.6090199545,2.3337275764-1.5660385152.7751248616-2.1436069368,1.7460045377-2.1194979101,3.4951209741.0922432325,7.0179214693.0387840864,14.0377428348.0387840864,21.0569090637Z"/><path class="cls-2" d="M292.8542182477,269.6418631551h-51.694994279c-.4612161624,9.6572702671,7.6792491045,18.9044250261,17.4696103707,20.3690483964,9.2798788319,1.3883982276,17.9224407848-.8063748772,26.3763233985-4.2952720536,2.0807138237-.8584909933,4.1268364352-1.7995619542,6.5859571558-2.8770978678-.4056605792.8441762587-.606918541,1.4149312597-.9276734176,1.9087077109-4.4591217159,6.8708433039-8.9088094648,13.7483034874-13.4392100422,20.5719769565-.5545076135.8345129939-1.470650627,1.7668378813-2.3773596736,1.9794297062-12.3375323451,2.8931487144-24.7002219354,3.4023863892-36.8574606898-.7469212312-11.8438214076-4.0421272736-19.6645800165-12.2375912576-22.9276843657-24.3016368314-3.9507357187-14.6007344672-3.0345927051-28.9105227728,4.8060820563-42.131965411,7.7106956611-13.0011202015,19.6457120826-19.5264117087,34.5943568382-20.2856822648,4.7840694667-.2430229197,9.7473843056.1645047988,14.4213908245,1.2057789019,10.1174054541,2.2544232917,16.9643690292,8.6807564163,20.7127985675,18.2955410753,3.763104598,9.6510137126,3.8930836984,19.7203321407,3.2578632565,30.3080929127ZM266.9516896343,251.6580360714c-.196016869-5.8317639084-1.1069187898-11.0661087564-6.1614286427-14.3024835326-4.1247399981-2.6405935573-8.6666709796-2.5987630857-12.828098627-.0958464838-5.2903590268,3.1814088159-6.6268376793,8.5773431049-7.442351712,14.3983300163h26.4318789817Z"/><path class="cls-2" d="M52.8457130655,244.2783481747c4.872119825-7.4780238996,9.7306128088-14.9642042497,14.6446613758-22.4153675489.319706658-.4866027055,1.0262059614-.9582027829,1.5911957604-1.0097947897,11.0157287523-1.0042261287,22.04927722-1.7120029484,32.9276893421,1.0189011884,7.0429804441,1.7680826409,13.0670924566,5.3528590579,15.5775758862,12.4825468303,1.377359176,3.9111654684,1.7148855494,8.3249189751,1.8008394706,12.5266702799.2463313595,12.1141635233.1100629479,24.2358283605.1551363455,36.3544140558.0293501194,8.158547037-.5125788714,16.4164782953,4.2798763437,24.0860313782h-30.0891135061c-.0890985768-1.5688556025-.1771489351-3.0959462472-.2840672273-4.983493046-.7693924164.5626640641-1.3511537122.8632079767-1.7704411326,1.3141384946-5.675055235,6.0935564915-13.0115368734,6.6097386142-20.6037838382,6.0234568759-2.5628943572-.197949522-5.1645728007-.6587726025-7.6132113358-1.4281650189-8.2065030357-2.5780935262-13.7997972237-7.8882704349-15.4077644809-16.5014822684-1.6656192775-8.9229276584.3270441879-16.9858575094,7.2767331809-23.2771997388,4.9979060511-4.5264042441,11.287217357-6.7413883128,17.4769479006-9.0371179668,6.1823930137-2.2930763508,12.3993772396-4.4979058023,18.6352293994-6.6437729603,1.6142565685-.5557196162,2.3239005275-1.3862690337,2.0555565785-3.1038406431-.2830190088-1.8124353883-.2976940685-3.6752507807-.6834384952-5.4616772462-1.1687636844-5.4316392334-4.0314485471-7.7297928928-9.6069230198-8.0886439623-5.623692526-.3619629684-10.9937161627.7926497655-16.1928801756,2.727399156-3.9863751494,1.4829999518-7.853253384,3.2810878487-11.7725425461,4.9435952274-.7023064292.2979233663-1.3951788914.617892079-2.0922442278.9276734176-.1016771995-.1514348238-.2033543989-.3028368907-.3050315983-.4542717145ZM93.9914358474,278.569311256h-.0366876493c0-2.6728590345-.0628931131-5.347650722.0220125896-8.0177909397.0524109275-1.6194976613-.5503147393-2.2310676721-2.1834392417-2.1954609982-4.0115323946.0875917627-8.0272576635.0221436169-12.0387900581.0968947023-.7002099921.0130372182-1.5031454021.2535051052-2.0712798568.6532694551-5.2557678146,3.6927429278-6.7473828127,12.9165420672-3.0052425857,18.2770334665,3.5094357087,5.0284681732,11.5482237762,6.180034522,17.1488554941,2.525420544,1.5283026473-.9974782218,2.3658292696-2.1155998474,2.210692924-4.0758012945-.1897275577-2.4073976865-.0461216162-4.8411646209-.0461216162-7.2635649354Z"/><path class="cls-2" d="M130.7126281255,222.3886622291h33.8668931638c.6603776871,4.8056562175,6.4811353008,16.3799216733,11.2075527471,21.9792758749,3.2840687202-5.7757824864,6.6048250898-11.3187949409,9.5670907149-17.0462283466.6708598726-1.2956963995.0985325438-3.2324439566.0985325438-5.0058004471h28.4937248715c-.5377361167.9172567458-.9475895701,1.6841596431-1.419287918,2.410378558-8.0209683521,12.3336015255-16.026213426,24.6778490207-24.1111231098,36.9701769408-.9140465765,1.3896429871-.9423484773,2.3671722996-.0587002389,3.7842982669,6.0555585691,9.7176738611,11.8584964673,19.5959872151,18.0765289118,29.2078237593,2.9119511346,4.5025245153,6.5639445663,8.5276509942,9.7337574645,12.5800639123h-33.8113375806c-.7945496616-8.0925092682-6.569185659-13.5377753428-10.0628980895-20.6999578902-3.3637333301,5.1579231643-6.805034833,9.6252668444-9.3459166006,14.5558903673-2.631028563,5.1049881274-6.0660407546,6.9747807246-11.8375320963,6.4983653932-7.0576555038-.5827112439-14.2023131473-.1387579307-21.3993817184-.1387579307.0702306429-.3477792611.0356394307-.6572657883.1729560609-.7852794788,5.7389965667-5.3804075517,9.9046170883-11.9566359291,14.114262789-18.4993213129,4.6593314591-7.2405368841,9.2851199246-14.5034139261,14.0094409339-21.7007445518.8909857683-1.3570171847,1.0670864849-2.3231798773.1205451334-3.7893755755-6.1624768612-9.5513346798-12.0891045485-19.2579694892-18.3595479205-28.7375667119-2.7201271398-4.1121286187-6.0733782844-7.8058214945-9.055560062-11.5832408272Z"/><path class="cls-2" d="M425.0094202818,184.0828419349c0,1.7162777147-.0031446557,3.4325390509,0,5.1488003872.0188679339,9.7820410315.0943396696,19.5645570369.0157232783,29.3457955261-.0178197154,2.1373176255.4853251891,2.9140475717,2.78511669,2.8459133659,5.850107733-.1732508724,11.707552996-.0576192635,17.8092331812-.0576192635-.2547171079.6211350051-.3846962082,1.1570039825-.667715217,1.5945697139-2.9035653862,4.491813032-5.7631055933,9.0149743499-8.8123733581,13.4067152671-.58595417.8427349582-1.9046131071,1.5307594096-2.9486387839,1.6306677402-2.467506469.2363405264-4.974845243.0758975745-7.7672994628.0758975745,0,1.163063996-.0010482186,2.0544100894,0,2.9457561829.0104821855,12.2904607808.0262054638,24.580856048.0335429936,36.8713168287.0073375299,10.9299058584,5.8846989452,15.4122849234,16.437115098,12.2289762114,3.5293518612-1.064957291,6.8343849524-2.8739532122,10.6058752989-4.4999039689-1.8626843651,2.8579678793-3.5775699145,5.4834932948-5.2872143712,8.1115737432-2.41614376,3.7126263234-4.780924811,7.4609248344-7.2819742737,11.114850919-.5628933619.8214430188-1.5094347134,1.6390534886-2.4392045681,1.9098541999-7.4528338975,2.1702709961-15.0157307429,2.5165106863-22.5262166607.4600369166-9.5262101914-2.6082953231-15.2610138838-10.4470701884-15.4297770705-21.2462435395-.2243187699-14.293934-.1603774383-28.5920608743-.2788261346-42.8878947704-.0482180533-5.8667482025.3878408639-4.7472180333-4.7725390626-4.8165642418-1.5817617934-.0212919393-3.165620024-.0033411966-5.4182416901-.0033411966,11.9738005079-18.4011818511,23.6698230998-36.3719062029,35.3637492546-54.342646933.1928722134.0544909862.3867926453.1089819725.5796648587.1634893371Z"/><path class="cls-2" d="M53.008186941,143.3164268628c3.6215950936,0,6.9612193971.0380143009,10.3008437005-.0165585774,1.5932921975-.026058058,1.6939211784.9343230541,1.6949693969,2.121823645.0073375299,4.7622042829.041928742,9.5243266737.0649895502,14.2865145781.0041928742.9059228827.0010482186,1.8118785222.0010482186,2.7641686974,2.610064192-.350694619,4.965411276-.8893970621,7.3291441085-.9446742122,8.8909897495-.2077929493,14.8731730199,4.4378133982,17.0859623811,13.0900877511,1.3595394606,5.3158110835,1.1446546577,10.6072510857-.5461218651,15.7998801111-2.6016784435,7.9906846631-8.5220168195,11.9055516532-16.5670941983,12.8543859828-5.9496884954.7017331846-11.8417249705.2428591355-17.5534678548-1.7725703266-1.3343822154-.470912184-1.9433971935-1.1706472021-1.9402525379-2.7226657941.0366876493-17.7967036939-.0083857484-35.5935875503-.0230608081-53.3904386499-.0010482185-.5663819642.0807128284-1.1328458206.1530399085-2.0699532051ZM65.1517988541,182.4920392565c.0220125896-.0000163784.0450733977-.0000163784.0660377687-.0000163784,0,3.838707361.0890985768,7.6803464583-.0387840864,11.5148445667-.0587002388,1.7387325214.6698116541,2.3360860682,2.2348019507,2.5652037136,4.3605891721.6381685566,8.0408845046-1.3215906734,9.4706546082-5.5922623479,1.9549275976-5.8429667442,1.9622651274-11.837679502.102725418-17.7031993234-1.3595394606-4.2908171248-5.098535032-6.0932125448-9.5429816882-5.1439687548-1.6373173767.3498920766-2.4004204818,1.0212760585-2.334382713,2.8447996337.1383648487,3.8337447013.041928742,7.6759079079.041928742,11.5145988905Z"/><path class="cls-2" d="M222.0397175988,202.4690702932c-4.6855369229,0-8.8522056631.0821377505-13.0083922177-.0755536278-.749476264-.0284493066-1.7096444567-.8935408011-2.1530409037-1.6258852431-3.2442364153-5.3614085905-6.3784098828-10.789182518-9.5555603108-16.1911276852-.4496857584-.7647900818-.9444449144-1.5031454021-1.8794558619-2.1673720167v19.9474352411h-12.0838634558v-59.2376310252h11.882605494v35.9629863191c.2064990545.0642361431.4119498905.1284395293.6184489451.192659294.7725370721-1.1199560081,1.5607974224-2.228971235,2.3144665606-3.3617842987,2.8668777369-4.3163346952,5.6813445463-8.6702578524,8.6299833303-12.9310369644.4727465665-.682521304,1.5125793691-1.3259473317,2.3186594348-1.3626186026,3.3385760849-.1518279057,6.6886825738-.0637120338,10.4591247017-.0637120338-.492662719.8309424995-.7966460988,1.4485070101-1.1949691481,1.9978390445-3.3375278663,4.6033664156-6.609017964,9.2588325688-10.0828142419,13.7575081566-1.4203361366,1.8396563138-1.6446549065,3.1230197669-.1593292197,5.1588567339,4.6750547374,6.4070557303,9.0744279959,13.0146487722,13.8941368933,19.9994367083Z"/><path class="cls-2" d="M150.6937701444,202.4017550082h-11.9538843554c-.081761047-.8555920138-.2180294586-1.6530570333-.2232705514-2.4512590815-.0639413316-11.2009358676-.0649895502-22.4025432501-.2044026175-33.6024472775-.0230608081-1.8345626268.5597487062-2.7055503506,2.292453971-3.1850120672,8.0964400878-2.2401085571,16.2704483484-3.1347958472,24.5178319076-1.1232644479,6.6750557327,1.6280471938,9.6478035433,5.6114578501,9.6750572256,12.4442540963.0335429936,8.4429418326.0314465565,16.8860802061.0345912122,25.3291203092,0,.8128771079-.0807128284,1.625803351-.1299791003,2.5651545784h-12.0849116743c0-3.8806361031.0104821855-7.688977883-.0020964371-11.4972213923-.0188679339-5.3496980239-.0744235171-10.6993632909-.07232708-16.0490121795.0010482186-2.3477802564-.214884803-4.6313898834-2.5733765427-5.8325500723-2.7777791601-1.4145545561-5.71488754-1.0993355838-8.5178239453-.0821868858-.4800840963.1738241169-.7463316083,1.5192945192-.749476264,2.3251452871-.0429769606,9.3623769075-.0167714968,18.7250486265-.0083857484,28.0876548318.0010482186.9166507444,0,1.8333342457,0,3.0716243011Z"/><path class="cls-2" d="M99.739866381,169.8743541252c-.5880506071-1.45315848-1.3899377986-3.43234251-2.3176112162-5.7192278199,8.5167757268-2.8932797417,16.8951866048-4.7104484919,25.4989644713-1.301281439,4.4413020005,1.760270137,6.9224353107,5.4152935754,7.1153075241,10.080406615.3563943073,8.6740576447.3301888436,17.3651652192.3480085589,26.0494266163.0020964371.6697625188-.7631031051,1.7403703629-1.3962271099,1.952061375-8.7631070862,2.926691708-17.6436146502,3.6889758924-26.5356526182.6770181566-4.1970670781-1.4216791666-6.8081794886-4.4327852248-7.3668799763-8.957060275-.6289311306-5.0870373848.9171912321-9.2423067482,5.4088077231-12.0240986199,4.8186606789-2.9837213486,10.2662524884-3.9627410968,15.7589176955-4.4509161301,2.4727475618-.2196345433,2.9800853405-1.0930954077,2.5807140725-3.2744382123-.5083859972-2.7752405058-2.1740052747-4.5596196695-5.4308203127-4.4459534704-4.3647820463.1523028798-8.7096479401.8722488617-13.6635288121,1.4140632037ZM119.0071715667,180.539879611c-3.5398340467,1.1223636351-6.6540913617,1.7256789248-9.3941346539,3.0816806478-3.0796661028,1.5232253387-3.4528319069,4.6604615698-3.1593307127,7.8169588167.2211741143,2.3725771765,1.3742145203,4.3651587498,3.6498969945,4.8756084274,2.3595399583.5292684762,4.893084196.3909855195,7.3438191682.3162999478.534591461-.0163129012,1.4758917198-.9889123108,1.4905667795-1.5407666211.1215933519-4.5554431737.0691824244-9.1155050604.0691824244-14.5497812186Z"/><rect class="cls-1" width="500" height="500"/></svg>