<?xml version="1.0" encoding="UTF-8"?><svg id="Layer_1" xmlns="http://www.w3.org/2000/svg" xmlns:xlink="http://www.w3.org/1999/xlink" viewBox="0 0 500 500"><defs><style>.cls-1{fill:none;}.cls-1,.cls-2,.cls-3,.cls-4,.cls-5,.cls-6,.cls-7,.cls-8,.cls-9,.cls-10{stroke-width:0px;}.cls-2{fill:url(#linear-gradient);}.cls-2,.cls-3,.cls-4,.cls-5,.cls-6,.cls-7,.cls-8,.cls-9{fill-rule:evenodd;}.cls-3{fill:url(#linear-gradient-9);}.cls-4{fill:url(#linear-gradient-3);}.cls-5{fill:url(#linear-gradient-2);}.cls-6{fill:url(#linear-gradient-4);}.cls-7{fill:url(#linear-gradient-5);}.cls-8{fill:url(#linear-gradient-7);}.cls-9{fill:url(#linear-gradient-6);}.cls-10{fill:url(#linear-gradient-8);}</style><linearGradient id="linear-gradient" x1="587.9086092919" y1="-3545.0649533791" x2="5475.8931615809" y2="-8363.9596477939" gradientTransform="translate(0 -2811.8236653193) scale(1 -1)" gradientUnits="userSpaceOnUse"><stop offset="0" stop-color="#4b8bd2"/><stop offset="1" stop-color="#3765ba"/></linearGradient><linearGradient id="linear-gradient-2" x1="648.8065966461" y1="-3686.9659865946" x2="6139.7609008619" y2="-9250.5957911257" gradientTransform="translate(0 -2811.8236653193) scale(1 -1)" gradientUnits="userSpaceOnUse"><stop offset="0" stop-color="#7b797a"/><stop offset="1" stop-color="#4e4c4d"/></linearGradient><linearGradient id="linear-gradient-3" x1="441.9104957581" y1="-3029.058162874" x2="441.9104957581" y2="-9641.1587640699" gradientTransform="translate(0 -2811.8236653193) scale(1 -1)" gradientUnits="userSpaceOnUse"><stop offset="0" stop-color="#4a8ad1"/><stop offset="1" stop-color="#3c62ad"/></linearGradient><linearGradient id="linear-gradient-4" x1="372.8492546082" y1="-3029.1726610124" x2="372.8492546082" y2="-9629.8730394304" xlink:href="#linear-gradient-3"/><linearGradient id="linear-gradient-5" x1="324.858587244" y1="-3029.1726610124" x2="324.858587244" y2="-9629.8730394304" xlink:href="#linear-gradient-3"/><linearGradient id="linear-gradient-6" x1="276.3514900208" y1="-3029.1726610124" x2="276.3514900208" y2="-9652.6734849874" gradientTransform="translate(0 -2811.8236653193) scale(1 -1)" gradientUnits="userSpaceOnUse"><stop offset="0" stop-color="#7a7879"/><stop offset="1" stop-color="#4e4c4d"/></linearGradient><linearGradient id="linear-gradient-7" x1="236.3234996796" x2="236.3234996796" xlink:href="#linear-gradient-6"/><linearGradient id="linear-gradient-8" x1="196.9819927216" x2="196.9819927216" xlink:href="#linear-gradient-6"/><linearGradient id="linear-gradient-9" x1="154.5208565308" x2="154.5208565308" y2="-9652.8737565944" xlink:href="#linear-gradient-6"/></defs><path class="cls-2" d="M48.7870025635,218.8850026206c3.3354949951.8939933777,6.4459991455.0995063782,6.9479942322-1.7735099792.5020046234-1.8734931946-1.7949962616-4.1164970398-5.1305007935-5.0104904175-3.3349990845-.893497467-6.4459991455-.0995063782-6.9479942322,1.7740058899-.5020046234,1.8729972839,1.7949962616,4.1164970398,5.1305007935,5.0099945068ZM63.0650043488,220.8334927634c2.9899978638,1.4585113525,6.0754966736,1.2849998474,6.8909931183-.3870010376.8155059814-1.6724967956-.9474945068-4.2104911804-3.9375019073-5.6689834595-2.9904937744-1.4580154419-6.0754966736-1.2849998474-6.8909931183.3874969482-.8160018921,1.672000885.9469985962,4.2099952698,3.9375019073,5.6684875488ZM75.8244991302,223.2979970054c2.4725055695,1.9314956665,5.2795028687,2.4705123901,6.2699985504,1.2030029297.9899997711-1.267490387-.2114963532-3.8610076904-2.6840019226-5.7925033569-2.4729919434-1.9319915771-5.2799987793-2.4704933167-6.2699985504-1.2030029297-.9904956818,1.2670135498.2115058899,3.8605117798,2.6840019226,5.7925033569ZM92.6054954529,250.0079922752c1.5320014954,3.0065155029,4.0265083313,4.8055076599,5.5720043182,4.0180015564,1.5454959869-.78748703,1.5565013885-3.862991333.0244998932-6.8694877624s-4.0264987946-4.8055076599-5.5720043182-4.0180015564c-1.5450000763.78748703-1.5559959412,3.862991333-.0244998932,6.8694877625ZM86.7669963837,226.3854985313c2.1075057983,2.1070098877,4.6020030975,3.0290031433,5.5720043182,2.0590019226.9700012207-.9700012207.0479984283-3.4645080566-2.0594978333-5.5719947815-2.107000351-2.1070098877-4.6015071869-3.0290031433-5.5714988709-2.0590019226-.9700012207.9700012207-.0480079651,3.4644889831,2.0589923859,5.5719947815ZM78.6979961395,234.3969922141c2.4420070648,2.4420166016,5.49700737,3.3455085754,6.8235015869,2.0190048218,1.3269996643-1.3269996643.423002243-4.3819999695-2.0184993744-6.8235015869-2.4419975281-2.4415016174-5.4969978333-3.3454895019-6.8235015869-2.0189857483-1.3269996643,1.3269996643-.4229927063,4.3819999695,2.0184993744,6.8234825134ZM89.950504303,237.3895077781c1.9319915772,2.4724960327,4.4949913025,3.6974906921,5.7249927521,2.736492157,1.2300014496-.9609985352.6615066528-3.7445068359-1.2704944611-6.2170028687-1.9320011139-2.4724960327-4.4950008392-3.6980056763-5.7250022888-2.7369880676-1.2300014496.9609985352-.6614971161,3.7444877624,1.2705039978,6.2174987793ZM80.9455013275,247.8185086326c1.9219970703,3.0754852295,5.0189971924,4.6064949036,6.9180011749,3.4199905395,1.8984985351-1.186504364,1.8799972534-4.641494751-.0419998169-7.7165031433-1.9215011597-3.075504303-5.0185012817-4.6069908142-6.9175052643-3.4204864502-1.8989944458,1.1864852905-1.8799972534,4.641494751.0415039062,7.716999054ZM94.28150177,264.3984990195c.8274936676,3.3200073242,3.0364990234,5.6279945373,4.9335002899,5.1550102234,1.8974971771-.4730033874,2.7639961243-3.5480117798,1.9365024567-6.8680000305-.8280086517-3.3195114136-3.0370044708-5.6275177002-4.9340057373-5.1545143127s-2.7639961243,3.5474967956-1.9359970093,6.8675041199ZM65.1580047607,232.1865086631c3.0329990387,2.0459938049,6.5064907074,2.1994972229,7.7584934235.3429985046,1.2520027161-1.8560028076-.1914978027-5.0189971924-3.2244968414-7.0645141601-3.032503128-2.0459938049-6.5060043335-2.1994972229-7.7579975128-.3429985046-1.2520027161,1.8560028076.1914978027,5.0189971924,3.2240009308,7.0645141602Z"/><path class="cls-5" d="M33.736000061,288.2659916953c4.8250007629,0,8.7364959717-3.9114952087,8.7364959717-8.736000061,0-4.8249816895-3.9114952087-8.7364959717-8.7364959717-8.7364959717-4.8245000839,0-8.736000061,3.9115142822-8.736000061,8.7364959717,0,4.8245048523,3.9114999771,8.736000061,8.736000061,8.736000061ZM33.6789989471,265.883007534c4.6675014496,0,8.4510040283-3.5280036926,8.4510040283-7.8795051575,0-4.3519973755-3.7835025787-7.8800010681-8.4510040283-7.8800010681-4.6670007706,0-8.4504985809,3.5280036926-8.4504985809,7.8800010681,0,4.3515014648,3.7834978104,7.8795051575,8.4504985809,7.8795051575ZM33.7075042725,245.9555058555c4.3359947205,0,7.8514957428-2.8120040894,7.8514957428-6.2810134888,0-3.4689903259-3.5155010223-6.2809944153-7.8514957428-6.2809944153-4.3360042572,0-7.8510046005,2.8120040894-7.8510046005,6.2809944153,0,3.4690093994,3.5150003433,6.2810134888,7.8510046005,6.2810134888ZM33.6505031586,230.252991207c3.8945007324,0,7.0519924164-2.1599960327,7.0519924164-4.8249816894,0-2.6645088196-3.157491684-4.8245048523-7.0519924164-4.8245048523-3.8945055008,0-7.0515012741,2.1599960327-7.0515012741,4.8245048523,0,2.6649856567,3.1569957733,4.8249816894,7.0515012741,4.8249816894ZM49.5154953003,263.6935048179c3.2220077515,3.2225036621,8.138999939,3.5294914246,10.9820079803.6864929199,2.8429985046-2.8429985046,2.5354957581-7.7599906921-.6865024567-10.9819984436-3.2219982147-3.2220077515-8.138999939-3.5294914246-10.9819984436-.6864929199s-2.5360012054,7.7599906921.6864929199,10.9819984436ZM50.0949954986,245.7230000571c3.6595058441,2.1129989624,7.9685020447,1.5010070801,9.624004364-1.3665008545,1.6555023193-2.8675079346.031003952-6.905002594-3.6285018921-9.0175056458-3.6594963074-2.1129989624-7.9685020447-1.5009880066-9.6239948273,1.3665008545-1.6555023193,2.8675079346-.031003952,6.905002594,3.6284923553,9.0175056458ZM67.4285030365,262.9994969444c2.1129989624,3.6594963074,6.1504936218,5.2840042114,9.0180015564,3.6285018921,2.8674983978-1.6555023193,3.4794998169-5.9644889832,1.3664913178-9.624004364-2.1129989624-3.6594963074-6.1499977112-5.2839851379-9.0179920197-3.6285018921-2.8675079346,1.6555023193-3.4790039062,5.9645080566-1.3665008545,9.624004364ZM55.1484966278,288.0374913291c4.3835067749,0,7.937002182-3.8089942932,7.937002182-8.5074996948,0-4.6989822388-3.5534954071-8.5079956055-7.937002182-8.5079956055-4.3834972382,0-7.9369926453,3.8090133667-7.9369926453,8.5079956055,0,4.6985054016,3.5534954071,8.5074996948,7.9369926453,8.5074996948ZM73.4774971008,287.295494564c3.468503952,0,6.281003952-3.514995575,6.281003952-7.8514862061,0-4.3360137939-2.8125-7.8510093689-6.281003952-7.8510093689-3.4689998627,0-6.2809944153,3.514995575-6.2809944153,7.8510093689,0,4.3364906311,2.8119945526,7.8514862061,6.2809944153,7.8514862061ZM87.7235031128,286.6099934654c2.6649951935,0,4.8250007629-3.1954956055,4.8250007629-7.1369934082,0-3.9419937134-2.1600055695-7.1375083923-4.8250007629-7.1375083923-2.6644992828,0-4.8250007629,3.195514679-4.8250007629,7.1375083923,0,3.9414978027,2.1605014801,7.1369934082,4.8250007629,7.1369934082Z"/><path class="cls-4" d="M408.8209915161,217.3484997825l16.0445022583,41.5685081482-4.4535064697,24.3244934082,17.9290008545.1140022278,4.5680236816-24.0960121155,32.0909881592-41.9109916687-21.0150146484-.1140022278-13.8164901733,20.2129936218s-2.7410125732,4.7965049744-3.6544799805,6.852016449c-.5140304565.0284957886-.5995178223,0-.5995178223,0,0,0-.5139923096-5.1390075684-1.7414855957-8.9075088501s-5.8815002441-17.9574966431-5.8815002441-17.9574966431l-19.4705200195-.0860023498Z"/><path class="cls-6" d="M374.847984314,217.3489956931l-37.114982605,66.0070037842h19.0715026855l7.194480896-13.5899925232h24.096031189l1.7129898071,13.5899925232h18.1575012207l-10.2780151367-65.8930015564-22.8395080566-.1140022278ZM383.6410140991,230.8245091514h-.4570007324s-5.2530288696,12.390499115-6.5090179443,14.5599937439c-1.2564849854,2.1699905396-5.6529998779,11.5345001221-5.6529998779,11.5345001221l15.4170227051.0569915772-2.1700286865-17.1869850159s-.5134963989-4.9105072022-.5134963989-6.1665153503l-.1144790649-2.7979850769Z"/><path class="cls-7" d="M307.0140075684,217.3489956931l-12.5619888306,65.8925056458,17.7004623413.1144981384,4.3400192261-22.2690010071s10.7344818115,0,14.5029830933-.1140022278c3.7685012817-.1144981384,11.9910049439-2.2839927673,15.5310058594-5.4814910889,3.5400009155-3.1980133057,7.9940032959-8.9075088501,8.5650253296-17.5870132446.1139831543-2.2839927673,1.3704681397-10.5060005188-5.0250244141-15.6449890137-6.3949966431-5.1390075684-14.7314834595-4.7965049744-14.7314834595-4.7965049744l-28.3209991455-.1140022278ZM322.2594833374,230.8245091514l-3.1979751587,16.6729927063,9.4784927368.0569915771s5.4244995117.2285003662,7.7085113525-3.7685012817c2.2839736939-3.9969825745,1.3705062866-7.9939842224,1.3705062866-7.9939842224,0,0-.3995132446-2.9120063782-2.8550338745-4.1680145264-2.4549865723-1.2564849854-8.6219787598-.7994842529-8.6219787598-.7994842529h-3.882522583Z"/><path class="cls-9" d="M279.3780136108,269.4235043601v-52.074508667h-18.5005187988v66.2350082397h28.2075119019l2.7404785156-14.1604995728h-12.4474716187Z"/><path class="cls-8" d="M233.4684944153,269.4235043601v-52.074508667h-18.5000038147v66.2350082397h42.710018158v-14.1604995728h-24.2100143433Z"/><path class="cls-10" d="M206.2319946289,217.3489956931h-18.5000038147v66.2350082397h18.5000038147v-66.2350082397Z"/><path class="cls-3" d="M127.9504966736,217.3489956931v66.2370109558h29.2350006103s13.2469940186-.1735115051,18.9570045471-5.655002594c5.7094955444-5.4815101623,4.9105072022-12.8470039368,4.9105072022-12.8470039368,0,0-.1145172119-6.7374992371-3.7685012817-10.6204986572-3.6544990539-3.8825035095-10.2780151367-4.9105072022-10.2780151367-4.9105072022l.0570106506-.4284858704s9.6500015259-1.8840026856,11.219997406-9.1355133057c.9989929199-2.969493866.8564949036-5.9384918213.8564949036-5.9384918213,0,0,.3709983826-6.5665054321-3.8254928589-10.9060096741-4.1970062256-4.3394851685-9.9354934692-4.9674987793-11.1915016174-5.2244949341-1.2565040588-.2569961548-5.1959991455-.5139923096-6.6810035706-.5425071716-1.4844894409-.0284957886-29.4915008545-.0284957886-29.4915008545-.0284957886ZM145.3655052185,230.3104977683l-.0570106506,12.7899932861,9.7070121765.0575065613s5.4244995117.0855064392,6.4809989929-3.5689926147c1.0560035706-3.6540031433-.1715087891-6.6805076599-.1715087891-6.6805076599,0,0-.7709884644-1.6275024414-2.7980041504-2.1409988403-2.0269966126-.5139923096-3.7685012817-.3999900818-3.7685012817-.3999900818l-9.3929862976-.0570106506ZM145.3149986267,256.2335019187l-.063495636,14.2679977417,10.3714942932.0639915466s6.0515022278.095500946,7.2294998169-3.9809989929c.3810119629-1.3175010681.6425094604-1.6144943237.6480026245-3.6989974976.0054931641-2.0839881897-.8390045166-3.753490448-.8390045166-3.753490448,0,0-.860004425-1.8155097961-3.1209945679-2.389011383-2.2610092163-.5729866028-4.2040061951-.4454994202-4.2040061951-.4454994202l-10.0214958191-.0639915466Z"/><rect class="cls-1" x="0" width="500" height="500"/></svg>