<?xml version="1.0" encoding="UTF-8"?><svg id="Layer_1" xmlns="http://www.w3.org/2000/svg" viewBox="0 0 500 500"><defs><style>.cls-1{fill:none;}.cls-1,.cls-2{stroke-width:0px;}.cls-2{fill:#000;}</style></defs><path class="cls-2" d="M25,324.3584324665v-81.5390014648h3.0854988098v38.0190086365h.2204990387c5.2865028381-10.4685020447,14.9855041504-16.3080024719,27.1055030823-16.3080024719,17.9605007172,0,30.7419967651,13.6674880981,30.7419967651,30.6319999695,0,17.1889877319-13.1120014191,30.6324958801-30.7419967651,30.6324958801-12.451505661,0-21.9274997711-5.9505081177-27.1055030823-15.9770011902h-.2204990387v14.544506073l-3.0854988098-.0040054321ZM55.3009986877,267.3914219685c-15.2060031891,0-27.5479984283,11.6795158386-27.5479984283,27.7670097351,0,15.3170013428,11.6804981232,27.7675056458,27.3274993897,27.7675056458,16.96849823,0,27.9874992371-12.5615119934,27.9874992371-27.7675056458.0014972687-16.3080024719-12.4504947662-27.7670097351-27.7670001984-27.7670097351Z"/><path class="cls-2" d="M126.4819908142,325.7909275837c-17.5204944611,0-30.7414913177-13.2229995727-30.7414913177-30.6324958801,0-17.5200080872,13.4414958954-30.6319999695,30.7414913177-30.6319999695,17.6300048828,0,30.7430076599,13.4435081482,30.7430076599,30.6319999695,0,17.5205039978-13.2225036621,30.6324958801-30.7430076599,30.6324958801ZM154.1394996643,295.1584317036c0-15.7559967041-11.7900085449-27.7670097351-27.7669906616-27.7670097351-15.6470108032,0-27.5465106964,12.011013031-27.5465106964,27.7670097351,0,15.6469917297,11.7884922028,27.7675056458,27.6559925079,27.7675056458s27.6575088501-12.011013031,27.6575088501-27.7675056458Z"/><path class="cls-2" d="M221.4629936218,324.3584324665v-31.3994979858c0-16.6329956055-8.38098526-25.5635070801-23.689994812-25.5635070801-14.8760032654,0-23.6915016174,9.0345001221-23.6915016174,23.1394958496v33.8275146484h-3.0839920044v-58.4035110474h3.0839920044v11.2395095825h.2205085754c3.8564872742-8.3745002747,13.5529899597-12.6720046997,23.1394958496-12.6720046997,17.9615020752,0,27.1069908142,10.5730056763,27.1069908142,27.9874992371v31.8485069275l-3.0854988098-.0040054321Z"/><path class="cls-2" d="M297.8224945068,305.9574391194c-4.408493042,12.6709938049-15.757484436,19.8334884643-28.9805030823,19.8334884643-17.4069976807,0-30.7419967651-12.8940010071-30.7419967651-30.5224990845,0-17.2984886169,13.1120109558-30.7419967651,30.7419967651-30.7419967651,12.5615119934,0,24.9035072327,7.4925041199,29.0900230408,20.3854942322h-3.4155273438c-4.18800354-11.346988678-14.2144775391-17.5205039978-25.7879829407-17.5205039978-15.4265022278,0-27.5465011597,11.6795158386-27.5465011597,27.7670097351,0,15.9770011902,12.3404884338,27.7675056458,27.6560020447,27.7675056458,11.6809844971,0,22.0384979248-6.8340110779,25.5635070801-16.96849823h3.4209823608Z"/><path class="cls-2" d="M364.9240112305,324.3584324665v-14.544506073h-.2205276489c-5.2864837646,10.1375007629-14.653968811,15.9770011902-27.1054840088,15.9770011902-17.9600143433,0-30.7419967651-13.6674880981-30.7419967651-30.6324958801,0-16.9644927978,12.8939819336-30.6319999695,30.7419967651-30.6319999695,11.569519043,0,23.1394958496,6.5010070801,27.1054840088,16.3084983826h.2205276489v-14.8760032654h3.0854797363v58.3995056152h-3.0854797363ZM365.2555084228,295.1584317036c0-15.6464958191-11.7905044556-27.7670097351-27.7675247192-27.7670097351-15.2054977417,0-27.5465011597,11.5700149536-27.5465011597,27.7670097351,0,15.0964927673,10.9085083008,27.7675056458,27.9875183105,27.7675056458,15.645980835,0,27.3265075684-12.341003418,27.3265075684-27.7675056458Z"/><path class="cls-2" d="M385.7490158081,324.3584324665v-58.3995056152h3.0854797363v10.5730056763h.220489502c3.4160232544-7.1624946594,9.6965026855-11.5694999695,20.3840255737-12.0104980469v2.9744911194c-14.2130279541.2205085754-20.6045150757,10.5730056763-20.6045150757,23.4670066833v33.3864974976l-3.0854797363.0090026855Z"/><path class="cls-2" d="M471.9150161743,324.3584324665v-14.544506073h-.2200317383c-5.179977417,10.026512146-14.6549987793,15.9770011902-27.1069717407,15.9770011902-17.9600143433,0-30.7430267334-13.5529899597-30.7430267334-30.6324958801,0-16.96849823,12.7830123901-30.6319999695,30.7430267334-30.6319999695,11.7919921875,0,23.1419754028,6.611995697,27.1069717407,16.3084983826h.2200317383v-38.015499115h3.0849838257v81.5390014648h-3.0849838257ZM472.2449874878,295.1584317036c0-15.6464958191-11.7899703979-27.7670097351-27.7674865723-27.7670097351-14.9855041504,0-27.5469970703,11.3465118408-27.5469970703,27.7670097351,0,15.2059936523,11.0194778442,27.7675056458,27.9880142212,27.7675056458,15.6464767456,0,27.3264694214-12.341003418,27.3264694214-27.7675056458Z"/><path class="cls-2" d="M180.501499176,188.7509323902c-4.733505249.7324981689-10.9395027161,1.9754981995-16.8294906616,4.0219974518-2.5785064697.8960056305-6.9225120544,2.6935005188-11.2745094299,4.4315052032-4.3515014648,1.7379951477-8.7159919739,3.4179973602-11.3335037231,4.0784931183-2.6174926758.6599998474-5.7634925842.7555007935-8.9459991455,1.1785030365-3.1819915772.4224967956-6.3965034485,1.1810016632-9.1544914246,3.1704998016-2.7580070496,1.9894981384-3.9045143127,4.8469924927-4.2205047607,7.3265075684-.3160095215,2.4794960022.2039909363,4.5809936523.7905006409,5.0594902039-.4524993897-5.3084945679,2.4810028076-9.1240024567,5.904006958-11.0499954224,3.423500061-1.9264984131,7.3394966125-1.9624996185,8.8519859314.2859973908.9284973144,1.3809967041.6240081787,3.0015087128-.2334976196,4.3945026398-.8574867248,1.3924980164-2.2694969177,2.5539970398-3.5549926758,3.0144882202-1.2854957581.4600143433-3.8165092468,1.5575027466-5.8794975281,3.5110092163-2.0630073547,1.9535064697-3.653011322,4.7604942322-3.045501709,8.6580085754,1.4184951782-2.4870109558,2.9769897461-3.7865066528,4.1774940491-4.465007782,1.200504303-.6780052185,2.0475006104-.7335090637,2.0475006104-.7335090637-.7794952393,1.28200531-1.438999176,2.6335144043-1.9700050354,4.0370178223-.9140014648,2.3954963684-1.6919898987,5.5444908142-1.1499977112,8.5704994202.5414962769,3.0264854431,1.1499977112,5.6564903259,1.0650062561,8.4029960632-.0855064392,2.7464866638-.8640098572,5.6040000916-3.0945014954,9.0694999695-1.3439941406,2.0839881897-4.3560028076,4.2115020752-7.0325088501,5.8194923401-2.6769828796,1.6074943542-5.0169944763,2.6935005188-5.0169944763,2.6935005188,5.8679962158-1.3825035095,11.3955116272-4.9474906921,15.9095001221-9.4955062866,4.514503479-4.5475006104,8.0114936829-10.077495575,9.816493988-15.3849983215,1.8050003052-5.3069877625,1.5795135498-11.0579872131,1.5060043335-16.1870002747-.0734901428-5.128993988,0-9.6344947815,2.4200057983-12.4529933929,2.420501709-2.8184986115,6.348991394-5.3559970856,10.7950019836-7.6150035858,4.4459915161-2.2589969635,9.3969917297-4.2549991608,13.845500946-5.9844970703,4.4484901428-1.7290019989,10.3434944153-3.0579948425,15.1325035095-3.952999115,4.7884941101-.8950042725,8.4659957886-1.3539981842,8.4659957886-1.3539981842,0,0-3.261013031.2194976807-7.9915046692.951499939Z"/><path class="cls-2" d="M108.9735031128,250.4489399739s1.5469932556-1.3075065613,2.9075050354-3.8565063477c1.3604927063-2.549495697,2.5129890442-6.3350105286,1.72498703-11.294002533-1.1450004578-7.2080039978-5.9814929962-12.316493988-9.9114990234-15.7744979858-3.9299964905-3.4584999085-6.9624996185-5.2675056458-4.484500885-5.872001648,3.0945014954-.7545089722,7.0570087433,2.6174926758,10.4440021515,5.5444908142,3.3874988556,2.9270172119,6.174993515,5.4050064087,6.9139957428,2.8675079346,1.4865112305-5.0905036926-2.8495025635-10.877494812-8.7754917145-15.9714984894-5.9265041351-5.094499588-13.4485054016-9.4964981079-18.3225059509-11.8124961853-6.9849967957-3.3125019073-20.3234958649-8.6105060577-31.8699932098-12.9285049438-11.5465068817-4.3184947968-21.3024997711-7.6620006561-21.1245059967-7.0804977417,1.186504364,3.8179969788,4.777507782,5.9700012207,10.7019996643,8.0770015716,5.9250068665,2.107000351,14.1680049896,4.170999527,24.6675014496,7.8125,3.1115055084,1.0789966583,8.2190036774,3.0340003967,12.623500824,4.7989940643,4.4044971466,1.765499115,8.1035041809,3.3460044861,8.3975028992,3.6775016785s-2.8814983368-.9105014801-7.1909999847-2.6010036469c-4.3090057373-1.6899967194-9.7440052032-3.829498291-13.9925003052-5.2979946137-5.859003067-2.0279979706-11.6829967499-3.9404964447-15.9885025024-5.1949977875-4.3050003052-1.2545013428-7.0914936066-1.8515014649-6.8814945221-1.2505054474,1.0524940491,2.9940032959,4.3064975738,5.089006424,9.2179965973,6.9550037384,4.9114990234,1.8655014038,11.4754962921,3.5044956207,19.1555023193,5.5869960785,2.3645019531.6445026398,6.0769939423,1.6324996948,9.2574977875,2.531003952,3.1809997559.8984947205,5.8284950256,1.7070007324,6.0604953766,1.985502243.232000351.2784919739-2.4499988556-.4125022888-5.7624912262-1.3265037537-3.3125019073-.9144973755-7.2440052032-2.0530033112-9.4940090179-2.6640033722-6.1489963532-1.676492691-11.0949993134-3.0544948578-14.4139957428-3.7704944611-3.3189964295-.7155036926-5.0094985962-.764503479-4.6420001984.2285003662,1.1540031433,3.1524944305,4.1650009155,4.8995018005,8.467502594,6.188993454,4.3029975891,1.2895011902,9.8999977112,2.1185016632,16.234998703,3.4555053711,1.4659976959.3094959259,3.6654949188.7439994812,5.544500351,1.1670017242,1.8784999847.4229927063,3.451499939.8379936218,3.655500412,1.1100006104.2034950256.2724933624-1.2405014038.019493103-3.1834983826-.386505127-1.9435024261-.40599823-4.3840026855-.9684944153-6.1894989014-1.3245010376-3.0945014954-.611000061-6.1515045166-1.1499977112-8.1490039825-1.1600017548-1.9970035553-.0104999542-2.936000824.4925060272-1.8050003052,1.9765090942,1.7910003662,2.3309993744,3.1639957428,3.798494339,4.8404979706,4.9589920044,1.6760063171,1.1605072022,3.6530017853,2.0140075684,6.6440010071,3.121509552,12.3180007935,4.551486969,19.1849994659,8.9639854431,23.1075000763,12.9119873047,3.9225101471,3.9480018616,4.8994922638,7.4295043945,5.4449939728,10.122013092.8475112915,4.2059898377-.1104927063,7.8289985657-1.2814903259,10.3999900818-1.1709976196,2.5710105896-2.5489997864,4.089012146-2.5489997864,4.089012146Z"/><path class="cls-2" d="M131.0424995422,208.4709336109c-.40599823-.4055023193-.9399986267-.6580066681-1.5110015869-.714006424s-1.143989563.0874996185-1.6209983826.4065036774c-.4775047302.3190040588-.8289909363.793504715-.9955024719,1.3430023193-.1664924622.5490016937-.1375007629,1.1390018463.0825119019,1.6689968109.2194976807.5305099487.6159973145.9679985046,1.1224937439,1.2384986877.5060005188.2705001831,1.0904884338.3569984436,1.6530036926.2449989319.562992096-.1119995117,1.0694885254-.4154968262,1.4340019226-.8589935303.3639984131-.4440116882.5629920959-1.0000038147.5629920959-1.5740013123.0004959106-.3260040283-.063495636-.6490039825-.1885032654-.9500026703-.1244926453-.3009986877-.3079986572-.5745029449-.5389976501-.8049964905ZM129.3305015564,209.5929314442c0,.2744960785-.109500885.5384922028-.3034973145.7325077057-.1945114136.1944923401-.4580116272.3034973145-.7324981689.3034973145-.2750015259,0-.5385017395-.1090049744-.7330131531-.3034973145-.1939964294-.1940155029-.3030014038-.4580116272-.3030014038-.7325077057-.0004959106-.0594997406.0050163269-.1185035706.0155067444-.1764965057-.0110054016-.0425052643-.016002655-.0855064392-.0155067444-.1290035248.0055122376-.1039981842.0360107422-.205001831.0885009766-.2950000763.0530052185-.0895023346.1265144348-.1655006409.2145004272-.2210044861.1785087586-.1189994812.3849983215-.1894950867.5994987488-.2049922943.0885009766-.0135040283.1785087586-.0135040283.2670097351,0,.2145004272.0149917603.4215049744.0859928131.6004905701.2049922943.0885009766.0555038452.1620101929.1310062409.2145004272.2210044861.0525093079.0895023346.0825119019.1910018921.0875091553.2950000763,0,.0434970856-.0049972534.0864982605-.0155067444.1290035248.010509491.0579929352.0155067444.1169967651.0155067444.1764965057Z"/><path class="cls-2" d="M128.1609916687,208.566434557c-.2145004272.0154972076-.4209899902.0859928131-.5994987488.2049922943-.0879859924.0555038452-.1614952087.1300048828-.2145004272.2200031281-.0524902344.0895023346-.082988739.1920032501-.0885009766.2960014343-.0004959106.0434970856.0045013428.0864982605.0155067444.1290035248.0365066528-.2185058594.142993927-.4205036163.3025054932-.5735015869.1599884033-.153503418.3649902344-.2510070801.584487915-.279006958v.0025081635Z"/><path class="cls-2" d="M129.0284919739,208.7714268513c-.1789855957-.1189994812-.3859901428-.1900005341-.6004905701-.2049922943.2269935608.0284957886.4384994507.1309967041.6004905701.2929973602.1505088806.1519966126.2500152588.3460025787.2865028381.5570030212.010509491-.0425052643.0155067444-.0855064392.0155067444-.1290035248-.0049972534-.1039981842-.0349998474-.2054977417-.0875091553-.2950000763-.0524902344-.0899982452-.1259994507-.1655006409-.2145004272-.2210044861Z"/><path class="cls-2" d="M114.1114997864,246.3964344807s-.1469993591,1.9470024109-.9799957275,4.7784996033-2.3505020142,6.5449905396-5.094499588,10.077495575c-2.0540046692,2.6474952698-4.0370082855,4.0205001831-6.0715007782,5.4014968872-2.0345020294,1.3809967041-4.1260051727,2.7695083618-6.3864994049,5.4465103149-1.8720054627,2.217502594-3.330001831,4.7534942627-4.3040084839,7.487487793-.7374954224,2.0720100403-.9025001526,3.4735107422-.9025001526,3.4735107422-.128993988-2.0460128784.2980041504-4.8405075073,1.2275028229-7.8650093079,1.0000038147-3.2479858398,2.4310016632-6.346988678,4.2549991608-9.2144966126,1.5754985809-2.4494934082,3.2235050201-4.1015052795,4.4729995728-5.1364898682,1.2495040894-1.0354995728,2.108001709-1.4575004578,2.108001709-1.4575004578-1.4179992676-.3170013428-2.9294967651.0799942017-4.0859985352.5574989319-.68400383.2799987793-1.3395023346.625-1.9575023651,1.0314941406,0,0,.0979995727-.7634925842.8384990692-1.8244934082.7400035858-1.0615158081,2.122001648-2.4230003357,4.6905040741-3.6105155945,2.7799987793-1.2895011902,4.8855018616-1.721496582,6.7679977417-2.7579879761,1.8824958801-1.0365104675,3.5384941101-2.6754951477,5.422000885-6.3875007629Z"/><rect class="cls-1" width="500" height="500"/></svg>