<?xml version="1.0" encoding="UTF-8"?><svg id="Layer_1" xmlns="http://www.w3.org/2000/svg" viewBox="0 0 500 500"><defs><style>.cls-1{fill:none;}.cls-1,.cls-2{stroke-width:0px;}.cls-2{fill:#484847;}</style></defs><path class="cls-2" d="M61.9566078955,213.5226535159v19.5086508567c0,10.4434721445,2.4894245466,10.8351791645,8.2332044522,10.8351791645,6.8944347831,0,12.6382146888-5.3195244654,12.6382146888-14.7769254762,0-11.4260317512-7.8494842476-15.5669045451-15.3182540815-15.5669045451h-5.5531650595ZM77.4679673354,247.8087451272H25v-3.7436313019c6.1300001648-.1986302882,10.1482939481-.9855749397,10.5320141527-2.3628568995.5743255085-.9855558553.5743255085-2.7605755011.5743255085-4.3369839431v-47.0918862924c0-1.5759027058,0-3.1523016056-.5743255085-4.3339781523-.3837202046-1.1811708105-4.402013988-2.166736208-10.5320141527-2.3658531481v-3.7431351078h53.0417966499c14.3606950203,0,26.6151990466,4.5330855502,26.6151990466,14.7769350184,0,9.4579067469-8.0430953424,14.3852184561-21.4457541917,15.9616268981v.1961111492c16.850129109.7894447061,27.1890283611,7.4862702157,27.1890283611,17.7336312109,0,12.6101988103-13.0189291026,19.3100205685-32.9323025305,19.3100205685ZM61.9566078955,183.7726723299v26.0068556203h6.8944347831c5.7437799056,0,10.9132343028-3.74314465,10.9132343028-13.5957642078,0-9.0626786577-3.6375793696-12.4110914125-11.6806747119-12.4110914125h-6.126994374ZM161.7255882237,249.0129317071c-14.293174463,0-42.4172232257-6.7513496001-42.4172232257-35.2076002676,0-17.3649208758,19.4516076273-33.7642958749,46.8727593738-33.7642958749,22.2632147763,0,42.4172232257,13.2640775813,42.4172232257,33.5221531869,0,24.8396832068-27.1860130281,35.4497429556-46.8727593738,35.4497429556ZM164.5401916212,244.9155903974c7.4992857669,0,17.8101786827-3.8587101487,17.8101786827-29.4218060865,0-21.4652584341-10.5460316342-31.3524016459-20.6247820802-31.3524016459-7.9670440646,0-16.169245932,6.2705757511-16.169245932,27.0099213997,0,21.7044048735,8.4373215014,33.7642863327,18.9838493295,33.7642863327ZM297.8913646144,248.0503725367h-17.810197767c-7.2671432971-9.6475005784-28.359683675-32.5565882258-43.8260135065-47.7517671028h-.2351387184v31.8336907733c0,2.8961509784-.2356349124,5.7893057081.2351387184,8.2011713105.4672621037,2.6510120418,2.5789684851,3.8587101487,14.0605357992,4.0978565881v3.6190484309h-31.8737107305v-3.6190484309c7.5017858214-.2391464394,9.3753572359-1.4468445463,9.8431155336-4.0978565881.4702774367-2.4118656024.4702774367-5.3050203322.4702774367-8.2011713105v-37.6199906906c-3.5170042196-6.0284426053-9.6104959542-9.6475101206-17.3424013005-9.6475101206v-3.6165674607h37.4969059439c9.8436308121,12.0568852107,28.5918452292,31.5915480853,41.7173224581,44.3743460815h.2351578027v-28.4587507221c0-2.8931547298-.2351578027-5.7863094596-.4702774367-8.1986903404-.4677582978-2.6540082904-2.3438297668-3.8582044125-14.0610319933-4.1003375582v-3.6165674607h32.1063112255v3.6165674607c-7.7344054008.2421331458-9.6079577309,1.4463292679-10.0782351676,4.1003375582-.7029161005,2.4123808808-.4677582978,5.3055356106-.4677582978,8.1986903404v50.8865492421ZM352.0312863697,191.3775138351v33.7612900841c0,9.1662305354,4.2173820968,15.6759527259,16.6394852,15.6759527259,11.7172022265,0,19.4486304631-3.1352974177,19.4486304631-18.0878374127v-25.5630959378c0-2.8931547298,0-5.7863094596-.4673002725-8.1986903404-.4677582978-2.6540082904-2.3443259608-3.8582044125-10.0757541974-4.1003375582v-3.6165674607h27.8889291287v3.6165674607c-11.7196831967.2421331458-10.3138891644,2.8931547298-10.3138891644,12.2990278986v27.4936914972c0,16.8806545842-14.763413731,24.3554169153-30.9356368272,24.3554169153-29.2947613297,0-37.7325790251-10.1287897058-37.7325790251-26.2860124747v-31.3494053973c0-1.4468254619,0-3.1352878755-.4677582978-4.1008432945-.4702774367-1.2046827739-4.2199012358-2.1697419988-10.3108738314-2.4118751446v-3.6165674607h46.8697631252v3.6165674607c-5.8583339318.2421331458-9.6079958997,1.2071923707-10.0757541974,2.4118751446-.4672621037.9655554189-.4672621037,2.6540178326-.4672621037,4.1008432945ZM467.8909517555,197.6881190855h-3.5570241768c-3.7421427198-5.0053573052-8.0446030088-12.7107639817-17.4059523054-12.7107639817-2.8086109004,0-8.9836311314,1.9246030623-8.9836311314,8.8580654145,0,6.7428475062,7.2976783145,8.8610616631,21.8970044957,17.9122324361,11.7917458377,7.1260715167,15.1586513624,13.0969842408,15.1586513624,19.2609927812,0,12.3245437226-14.5983337932,18.4885713473-34.9974811791,18.4885713473-14.5983337932,0-21.1510721894-1.155674071-27.3260924205-3.0802771333-.5628367082-.1930958163-.9350585703-.5793256176-.9350585703-1.1556549866v-15.6014091147h3.7441656647c2.8055955674,5.5846829228,6.5497230633,15.7915277668,18.151846443,15.7915277668,7.1130559655,0,14.0385124179-4.4290279362,14.0385124179-11.3624998306,0-6.1635123464-2.2462703862-9.4373814899-17.4044255546-16.7565679073-12.9153963092-6.3541271925-19.4656155665-14.0595243268-19.4656155665-19.2579965326,0-10.5930460188,10.291369589-17.1427881664,34.0639493597-17.1427881664,8.7980163944,0,16.2823018339.1926091644,21.8955159136,1.3482641511.9355165956.3862202591,1.1256352476.9625496281,1.1256352476,1.3487698873v14.059533869ZM148.1773536789,302.891206532h3.4584724081l-2.7160516289,11.4345243029c-.4932741217,1.5243653217-2.4699203042,2.031666467-6.175020231,3.0487497278-2.9626982319.5097821155-11.8512700373,2.7950991552-20.7423609815,2.7950991552-27.1640087312,0-42.969038701-10.6705954208-42.969038701-29.2226986887,0-12.4516075637,9.1377184629-28.7158937374,44.69703442-28.7158937374,9.8766467996,0,15.0630958424,1.2712109431,20.2490677755,2.5419447765,3.2123219991.7634326881,4.4470435964,2.0341665216,4.4470435964,3.3048812706v10.1638095539h-3.4584914925c-3.9512503358-5.8438297986-9.6304963906-12.958908709-20.4956952941-12.958908709-13.3356154018,0-21.4847722186,10.4174601265-21.4847722186,24.9002379632-.2461408668,14.7399017676,5.6792460548,26.937877843,20.7428476334,26.937877843,9.6304963906,0,18.7677186595-5.8438297986,24.4469647143-14.2296234581ZM204.0002320025,302.3809091381h-24.940238836l-3.4584724081,7.6248610259c-1.727995719,3.81267861-.7394245307,6.0979765653,4.447024512,6.0979765653v3.0512497824h-23.7080363776v-3.0512497824c3.4584724081,0,8.6419442867-1.2712300275,12.1004166948-6.3511309439,2.9626791475-4.0663100982,17.2868657376-29.9866275708,26.4245842005-47.5216284935h8.8880756113c5.4331147302,9.1492263476,21.9805559371,38.1187706576,26.1779566819,46.2504175504,1.9746232376,3.809663277,7.656369347,7.622341887,12.3470442135,7.622341887v3.0512497824h-38.77113222v-3.0512497824c4.9398215241,0,6.4211706401-2.031666467,4.6931749211-5.5906945043l-4.2003969934-8.1321430868ZM181.5298943864,298.0614446613h20.0034326449l-9.6304963906-19.3125397075-10.3729362543,19.3125397075ZM281.3103921415,267.0607300783v23.886150951h5.1864490427c10.1232743183,0,11.6046425186-7.3687103987,11.6046425186-12.4516075637,0-8.6394442321-3.4584724081-11.4345433873-10.3729362543-11.4345433873h-6.4181553071ZM248.2179906979,266.0436659019v-3.0487497278h49.3906959929c14.5703179147,0,25.4355168182,4.5731150495,25.4355168182,14.9930561462,0,6.0974994556-5.928373628,12.4516266481-17.5330161466,14.7369246034,7.6533730984,7.6248610259,17.2869039064,16.2637899796,26.6707346095,24.3959330665v2.0341665216h-23.2152393656c-7.1605760864,0-14.8164683237-15.7565079187-22.9656155984-24.3959330665h-4.6906748665v16.0076393524c0,1.270714749,0,2.5414485825.4927588433,3.5590280373.495812345,1.0170832608,3.9512694202,1.7780158944,9.3838688719,1.7780158944v3.0512497824h-42.9690291589v-3.0512497824c5.4330956458,0,9.1377184629-.7609326336,9.6304963906-1.7780158944.246646603-1.0175794548.246646603-2.2883132883.246646603-3.5590280373v-39.1328576699c0-1.2707147491,0-2.5414485825-.246646603-3.5560317887-.4927779277-1.0170832608-3.9512503358-1.7805159489-9.6304963906-2.0341474372ZM341.3306712099,262.9949161741h45.6855769817c22.4728567551,0,40.0063690957,10.1633133598,40.0063690957,26.6812310218,0,23.885654757-24.4504953257,29.4788493159-45.6856151505,29.4788493159h-40.0063309269v-3.0512497824c5.4330956458,0,8.8915680539-.7609326336,9.384365066-1.7780158944.4927588433-1.0175794548.4927588433-2.2883132883.4927588433-3.5590280373v-39.1328576699c0-1.2707147491,0-2.5414485825-.4927588433-3.5560317887-.492797012-1.0170832608-3.9512694202-1.7805159489-9.384365066-2.0341474372v-3.0487497278ZM374.4200573206,266.2972973901v41.4206556797c0,6.8614283378-.4927588433,8.3857936595,4.9398406085,8.3857936595,12.8428374741,0,24.447441824-6.3511309439,24.447441824-26.4275995335,0-15.2472029129-9.3838688719-23.3788498057-27.4101400559-23.3788498057h-1.9771423766Z"/><rect class="cls-1" x="0" width="500" height="500"/></svg>