<?xml version="1.0" encoding="UTF-8"?><svg id="Layer_1" xmlns="http://www.w3.org/2000/svg" viewBox="0 0 500 500"><defs><style>.cls-1{fill:#008ad2;}.cls-1,.cls-2,.cls-3,.cls-4,.cls-5,.cls-6{stroke-width:0px;}.cls-1,.cls-2,.cls-4,.cls-5,.cls-6{fill-rule:evenodd;}.cls-2{fill:#5fbbea;}.cls-3{fill:none;}.cls-4{fill:#2ca9e1;}.cls-5{fill:#b1b3b2;}.cls-6{fill:#6f6f6f;}</style></defs><path class="cls-5" d="M152.1088415136,296.1046408898h3.9361218809c-3.5841475118,6.8191378759-8.992160588,10.2289386105-16.2240213981,10.2289386105-5.2481446774,0-9.6479491048-1.7626355754-13.2003048081-5.2874253022-3.48786273-3.7883960629-5.2958234749-8.2849488655-5.4239000652-13.4900863404,0-5.4355968832,1.728044376-9.9648508506,5.1841152975-13.5887247502,3.48786273-3.5906913109,7.8881129203-5.4023964639,13.1998412147-5.4355968832,5.120068087,0,9.3600041156,1.6471829898,12.7202538487,4.9415311388,1.5359384057,1.4821794026,2.7357894314,3.2116145587,3.6000523313,5.188323299h-3.9842642718c-1.1839640366-1.9108071563-2.4319574532-3.3107165619-3.7439980801-4.2002096408-.0317918085-.0327189953-.0799341994-.065901584-.1439635793-.0986205793-2.3679280733-1.6471829898-5.1359729065-2.4707566541-8.3041166693-2.4707566541-4.351644206,0-7.9680471197,1.5648951623-10.8478001305,4.6942575547-2.7199024424,2.9321034032-4.0800854602,6.5391452964-4.0800854602,10.8216249342,0,4.2497428119,1.4560042063,7.9063357068,4.3680126189,10.9697786846,2.9120084126,3.030741813,6.4480135335,4.5629179801,10.6080153627,4.5956369754,3.3920415416,0,6.3199369432-1.0049456645,8.7841497983-3.0143555696.9600662579-.7576899109,2.1440302945-2.0421467309,3.5518921099-3.8543154774ZM158.6970742182,305.6908785817l15.2162763428-36.5164314386h3.9842464413l15.2639551403,36.5164314386h-3.88797949l-5.135955076-12.3038043368h-16.5124299807l-5.1840974669,12.3038043368h-3.7440159107ZM168.9694836247,290.0763755135h13.7761591255l-6.816338485-16.7512697312-6.9598206404,16.7512697312ZM211.4795892402,292.0530664233l9.9363398569,13.6378121584h-4.4161550098l-11.9518299677-16.5535471487c3.6477132983,0,6.2876815413-.2140731649,7.9199047288-.6422373253,3.5841475118-.9881136582,5.3757576743-3.5579723155,5.3757576743-7.7086309548,0-3.3929687283-1.2480112471-5.7155538016-3.7440159107-6.9672916263-1.8238477339-.8894930789-4.5437501763-1.3340078216-8.1596894966-1.3340078216h-4.9919914967v33.2057148767h-3.5523735338v-36.5164314386h8.7841497982c4.5119761983,0,7.8240835404.5926863237,9.9363398569,1.7785225644,3.5518921099,1.9767087403,5.3276152834,5.3037758846,5.3276152834,9.9816650264,0,5.3696774686-2.3515774909,8.8285656115-7.0556596594,10.3771101914-1.0240956378.3622447458-2.1603808769.60951833-3.4083921239.741321498ZM229.8224107539,305.6908785817v-36.5164314386h8.3522590602c5.3762212677,0,9.488080706.7244894917,12.3360419082,2.1739498989.416003749.2304415778.816120509.461346749,1.1998688561.6917883269,4.8961881388,2.9980049872,7.5683939531,7.6095289516,8.0161895107,13.8359805038.0322375714.5599673284.0481423909,1.1199346567.0481423909,1.6799019851,0,6.7864010501-2.6240812539,11.8429211811-7.8722259313,15.1699883254l-.3360695496.2472557536c-3.0078296011,1.8117051531-7.0720102418,2.7175666449-12.1920961593,2.7175666449h-9.5521100859ZM233.3747664572,302.3801620197h4.9438669363c5.3121918878,0,9.2319453558-.8399420773,11.7601875908-2.5198440624.3519743691-.2308873407.6880439187-.4776973314,1.0077450554-.741321498,3.1363697848-2.6025598221,4.8162717699-6.193251133,5.0401517181-10.7720739326.0322554019-.2968067552.0481423909-.6095004994.0481423909-.93902625,0-4.6447243836-1.5041465972-8.3508682801-4.5119583678-11.117968096-.6081097193-.5272483331-1.248011247-1.0049456645-1.9201503462-1.4330919943-2.5282600655-1.5812814058-6.3358239322-2.3716724814-11.4241180412-2.3716724814h-4.9438669363v29.8949983147Z"/><path class="cls-6" d="M127.4559076705,207.7690415018v-4.9274985234h8.4527518436c6.0488417908,0,10.501905967,1.0540152422,13.359691783,3.1625360658,3.1433771772,2.4025192727,4.7148339692,6.054904166,4.7148339692,10.9581086124,0,5.2462724733-1.9524057482,8.9972957764-5.8581266007,11.2525706549,5.2869438783,2.2066688942,8.191927068,5.9329256118,8.7159124168,11.1791980851.095357595.6861717146.143018562,1.4218766003.143018562,2.2062053008,0,5.0504399254-1.500402189,8.9482083682-4.5007429737,11.6938224134l-1.4288839928,1.02971225c-3.4771109294,1.8631283588-8.2873024935,2.8194502085-14.4314840489,2.8685376167h-9.1669709586v-4.9279621168h8.5953246428c5.2392650808,0,9.0496461689-.6618687225,11.4311254336-1.9855883368,2.1907819052-1.1278870665,3.5243261335-3.2850049591,4.0006148542-6.4718529323.095357595-.6375478998.1430363926-1.2751136301.1430363926-1.9121979365,0-4.412874195-1.6434385816-7.4772621902-4.9298521514-9.1936097482-2.0477455127-1.0297122501-5.9057875677-1.5443365784-11.5736804023-1.5443365784h-7.6665687695v-4.9275163539h7.8095873316c4.1913300443,0,7.287028424-.4660005135,9.2875587326-1.3975736081,2.714767254-1.2746322062,4.0721330505-3.8734654507,4.0721330505-7.7955547162,0-3.1382419889-.857237677-5.4673708612-2.5717130309-6.986940854-.1907151901-.1472354789-.3575731509-.2697043722-.50014595-.3678613581-1.809832949-1.2746411214-5.2631044796-1.9121979365-10.3593331678-1.9121979365h-7.7380869658ZM167.3475486444,202.8415429784h5.2869438783v33.9044927655c0,4.9522829395.8095588795,8.7033062426,2.4286944689,11.2525884854,1.809832949,2.8437532006,4.6199399675,4.511031181,8.4303210556,5.0013525171.6193251133.0981569859,1.2381866332.1472443941,1.8575117465.1472443941,3.9057386831,0,7.0014370628-1.3242010383,9.2875587325-3.9716402671.3332701587-.3430947726.6431645121-.7357227162.9287558733-1.1769566442,1.6191355894-2.5492822429,2.4291580623-6.300305546,2.4291580623-11.2525884854v-33.9044927655h5.2864802849v33.9044927655c0,6.0801521754-1.0713108419,10.7379641571-3.214877543,13.973881708-.1430363926.24540138-.3094307599.4903213362-.50014595.7357227162-2.857785816,3.824395873-6.9060616373,6.0062981816-12.1448631247,6.5452255021-.7146827083.0981569859-1.4289018233.1472265636-2.1435845316.1472265636-5.2864802849,0-9.6208288913-1.7406505502-13.0025822256-5.2215058877-.4286099232-.4903213362-.8333982782-.9806248418-1.2143472344-1.470946178-2.3338004673-3.1382419889-3.5719871005-7.5020287757-3.715023493-13.0913960216v-35.5227011681ZM224.0774009413,257.1922339776v-49.4231924758h-12.0738441828v-4.9274985234h29.4341508201v4.9274985234h-12.0738441828v49.4231924758h-5.2864624544ZM261.2094130851,257.1922339776v-49.4231924758h-12.0738263523v-4.9274985234h29.4341151591v4.9274985234h-12.0733449284v49.4231924758h-5.2869438783ZM287.2902859035,257.1922339776v-54.3506909991h28.8629680977v4.9274985234h-23.5760063888v19.4898585535h22.7898233147v4.9274985234h-22.7898233147v20.0778732821h23.5760063888v4.9279621168h-28.8629680977ZM346.9181318282,236.8932801381l14.7885936063,20.2989538395h-6.5728271396l-17.7893979844-24.6379740408c5.4299624404,0,9.3590947594-.3187739499,11.7882528216-.9563396802,5.3341412519-1.4709640085,8.0012297084-5.2953598815,8.0012297084-11.4732054494,0-5.0499585014-1.8575117465-8.506965525-5.5725352395-10.3700938837-2.714767254-1.3237196144-6.7630430752-1.9855794216-12.1448987857-1.9855794216h-7.430046986v49.4231924758h-5.2869260478v-54.3506909991h13.0740825913c6.7158635321,0,11.6452164291.8824767712,14.7885936063,2.6474392288,5.2869617088,2.9419191018,7.9301929361,7.894193126,7.9301929361,14.8563673944,0,7.991868688-3.5009503281,13.1404655993-10.5019237975,15.444827886-1.5242237573.5393909139-3.214877543.9067886786-5.0723892895,1.1031026504ZM372.2979087909,257.1922339776v-54.3506909991h26.7908839319v4.9274985234h-21.5044214774v19.6366215237h20.7182384033v4.9279799473h-20.7182384033v24.8585910048h-5.2864624544ZM409.1798301291,257.1922339776v-54.3506909991h5.2869617088v49.4227288824h21.8610674415v4.9279621168h-27.1480291503ZM451.2833108466,257.1922339776v-18.1661389391l-18.2909347146-36.1845520601h5.8576451768l15.0040575514,30.4479582506,15.3593127353-30.4479582506h5.7866084045l-18.430226699,36.1845520601v18.1661389391h-5.2864624544Z"/><path class="cls-2" d="M30.3427022834,220.3046781966l29.5668811749-19.0079532204c5.403332566-3.4733665212,12.5992113965-1.9093896304,16.0730415111,3.4939429356.0687188054.1075001759.1360200848.2154728604.200994482.3248541556l38.5796003469,64.5796296097c3.2055432683,5.3659330605,1.5962322927,12.3066037276-3.6435052967,15.7145322582l-29.3046656191,19.0598400195c-5.3851008643,3.5023411083-12.5893867827,1.9762273164-16.0917368062-3.4084099545-.0747900958-.1154525856-.1481715809-.2322959514-.2187536751-.3505657584l-38.841356767-64.6310349849c-3.238257806-5.3888452724-1.6088473822-12.375322533,3.6795006492-15.7748350604Z"/><path class="cls-4" d="M72.3601507652,216.2269463643l31.7735589844-20.8089154881c4.1614015246-2.7255012241,9.2267923369-2.6796946307,12.3280984137,2.8217949212.8815495844,1.5635043822,1.3957103193,3.1868479732,1.3957103193,4.9349784245.4057155418,3.9552807694.6085733127,7.3753607961.6085733127,10.2593128931,0,4.3264140271-2.3744718723,28.6633733111-2.552090549,39.6630894306-.1187244851,7.3332807803.4001078448,14.6567726078,1.5555608877,21.9704219909.2388486657,3.371946551-1.3391519253,6.6064733217-4.1090600474,8.4228500697l-32.0736376391,21.0299871303c-4.1600018292,2.7278370216-9.6801866762,1.4672196003-12.3299706177-2.8152422069-.9091244761-1.4695553978-1.0278489612-2.8054354236-1.3980372015-5.2126262912-.3697335622-2.4071908676-.6324216267-5.0579109112,0-16.5278355458.6324127114-11.4699424651,2.2066688942-25.8859852879,2.2066688942-31.9656738699,0-5.1280204968-.7567448936-11.3778478544-1.1886356316-16.3918243762-.2262335762-2.63294302-.4683541415-2.9157349903-.3052227584-6.6672218868.1631224679-3.7514868965,1.2307067321-6.841568664,4.0884836329-8.7130951954Z"/><path class="cls-1" d="M80.1267398095,211.4602255961l34.3120983419,57.4365825955c3.3621219371,5.6281486163,1.7023238579,12.9927576117-3.7234394962,16.5217553402l-28.9994428607,18.8611902502c-2.115528216,1.3760700069-4.495144192,1.9687563305-6.8182017738,1.8528401516-2.3637200717-.4412517585-4.5484217712-1.8570481531-5.940860191-4.1076692672-.9091244761-1.4695553978-1.0278489612-2.8049539997-1.3980372015-5.2121448673-.3697335622-2.4072086981-.6324216267-5.0579109112,0-16.5278533763.6324127114-11.4699246346,2.2066688942-25.8859674574,2.2066688942-31.9661196328,0-5.1280204968-.7567448936-11.377384261-1.1886356316-16.3918243762-.2262335762-2.6329608505-.4683541415-2.9157349903-.3052227584-6.6672218868.1631224679-3.7510233031,1.2307067321-6.8415686639,4.0884836329-8.7131130259l7.7665890443-5.0864219049Z"/><rect class="cls-3" x="0" width="500" height="500"/></svg>