<?xml version="1.0" encoding="UTF-8"?>
<svg width="140px" height="80px" viewBox="0 0 140 80" version="1.1" xmlns="http://www.w3.org/2000/svg" xmlns:xlink="http://www.w3.org/1999/xlink">
    <!-- Generator: Sketch 52.5 (67469) - http://www.bohemiancoding.com/sketch -->
    <title>im/logo-pay/byjuno</title>
    <desc>Created with Sketch.</desc>
    <g id="im/logo-pay/byjuno" stroke="none" stroke-width="1" fill="none" fill-rule="evenodd">
        <path d="M42.2653061,30.0217391 L47.6694946,30.0217391 L51.5031555,39.2697314 L54.3845437,30.0217391 L56.6326531,30.0217391 L51.3207223,45.5658633 C50.7507532,47.3975432 49.6429664,48.9958902 47.9973619,50.3609042 C45.5289552,52.4084252 42.8872449,50.9720287 42.7067978,50.1921906 C42.5263506,49.4123526 42.8107799,48.008239 44.1166432,48.23811 C45.4225065,48.4679811 44.7379093,48.3997818 45.8004748,48.5281096 C46.8630404,48.6564374 48.953703,47.9517761 49.1366487,46.518177 C49.3195945,45.0845779 48.6036041,43.8571842 47.6694946,41.3929436 C47.046755,39.7501166 45.2453588,35.9597151 42.2653061,30.0217391 Z M65.1632653,30.0217391 L70.2350301,30.0217391 C70.2607173,36.4096293 70.28005,39.6837766 70.2930281,39.844181 C70.3124953,40.0847876 70.5462356,41.7470862 72.2231677,41.7470862 C73.9000998,41.7470862 74.4458189,40.1165628 74.4458189,39.9156587 C74.4458189,39.7817227 74.4458189,36.4837495 74.4458189,30.0217391 L79.5306122,30.0217391 L79.5306122,44.1453888 L74.4458189,44.1453888 L74.4458189,42.5904706 C72.4521673,43.8288713 70.8238302,44.3875241 69.5608076,44.2664292 C67.6662738,44.0847867 65.5694362,44.2664292 65.2746383,40.7553414 C65.2251466,38.5963788 65.1880223,35.0185114 65.1632653,30.0217391 Z M82.2244898,30.2558874 L87.338653,30.2558874 L87.338653,31.6663157 C88.8949358,30.6884428 90.5001159,30.1454892 92.1541933,30.0374547 C94.6353095,29.8754031 96.4524488,30.9675786 96.5453741,33.2685159 C96.6073243,34.8024741 96.6073243,38.4738383 96.5453741,44.2826087 L91.5783202,44.2826087 C91.5410511,37.874242 91.5224166,34.6132192 91.5224166,34.4995404 C91.5224166,34.3290223 91.0505745,32.6561282 89.434092,32.74238 C87.8176095,32.8286317 87.4646889,34.1830777 87.338653,34.546507 C87.2546291,34.7887931 87.2546291,38.0341604 87.338653,44.2826087 L82.2763472,44.2826087 L82.2244898,30.2558874 Z M57.8740638,30.0217391 L62.8822994,30.0217391 C62.93039,39.1619679 62.93039,44.2401362 62.8822994,45.2562442 C62.8101636,46.780406 62.0404988,52.1034737 55.7346939,52.3043478 C56.5725392,50.8003253 57.5078408,49.9237097 57.7500551,46.5360373 C57.9115312,44.277589 57.9528675,38.7728229 57.8740638,30.0217391 Z M106.969371,30.0904999 C110.054215,29.5917507 115.308454,31.7840394 114.985807,37.3928603 C114.663159,43.0016813 111.197049,44.692712 106.906349,45.136669 C102.61565,45.580626 97.979878,42.0166266 98.9724225,36.5265721 C99.9649669,31.0365177 103.884527,30.5892491 106.969371,30.0904999 Z M106.89415,31.6986901 C106.207245,31.7734021 104.418661,31.7967088 104.196442,35.4730272 C103.974223,39.1493456 104.868034,43.375417 107.316518,43.249099 C109.765002,43.122781 109.841007,39.9537417 109.775455,37.3035973 C109.709903,34.6534528 108.660513,31.6986901 106.89415,31.6986901 Z M27,22 L32.0318129,22 L32.0318129,31.4243303 C33.8852805,30.1880271 35.4882271,29.6309217 36.8406527,29.7530142 C38.8692912,29.9361531 41.6569113,30.2035059 42.2242835,36.1933739 C42.7916557,42.1832419 37.3184004,44.2276635 35.4029061,44.2780658 C33.4874119,44.3284681 29.6250973,43.942665 29.1895348,43.9512028 C28.8991598,43.9568947 28.1693149,43.9540488 27,43.942665 L27,22 Z M34.1696297,32.250256 C33.1120995,32.3498478 31.6542862,32.2229446 31.6905164,37.053269 C31.7267465,41.8835933 32.4021586,42.6374446 33.9347842,42.7542576 C35.4674098,42.8710706 36.8933966,41.6987202 36.970661,37.5910065 C37.0479253,33.4832929 35.2271599,32.1506642 34.1696297,32.250256 Z M66.5102041,52.9570803 C66.5102041,52.8043936 66.5633202,52.6765204 66.669554,52.5734568 C66.7757878,52.4703933 66.9075945,52.4188623 67.0649779,52.4188623 L68.9299624,52.4188623 C69.6460571,52.4188623 70.2244326,52.6326205 70.6651062,53.0601434 C71.113649,53.4953006 71.3379171,54.0678672 71.3379171,54.7778605 C71.3379171,55.4649508 71.1254526,56.0146148 70.7005173,56.426869 C70.2519745,56.8467575 69.6617954,57.0566986 68.9299624,57.0566986 L67.336463,57.0566986 L67.336463,60.1714924 C67.336463,60.2783731 67.2951505,60.3699838 67.2125242,60.4463272 C67.1298979,60.5226705 67.033502,60.5608416 66.9233336,60.5608416 C66.8131651,60.5608416 66.7167692,60.5226705 66.6341429,60.4463272 C66.5515166,60.3699838 66.5102041,60.2783731 66.5102041,60.1714924 L66.5102041,52.9570803 Z M68.906355,56.2894516 C69.4099821,56.2894516 69.8113038,56.1520356 70.1103324,55.8771995 C70.3778842,55.6176321 70.5116581,55.2511894 70.5116581,54.7778605 C70.5116581,54.2816287 70.3660806,53.8922833 70.0749213,53.6098129 C69.7837619,53.3273424 69.3942437,53.1861093 68.906355,53.1861093 L67.336463,53.1861093 L67.336463,56.2894516 L68.906355,56.2894516 Z M76.2914288,59.7706917 C76.2914288,59.8852068 76.256018,59.9882688 76.1851955,60.0798808 C76.1143729,60.1714929 76.0238788,60.2363838 75.9137104,60.2745554 C75.6304202,60.3661675 75.3412325,60.436784 75.0461385,60.4864072 C74.7510445,60.5360304 74.4500532,60.5608416 74.1431555,60.5608416 C73.4270608,60.5608416 72.8801616,60.3967059 72.5024413,60.0684294 C72.1561977,59.7706903 71.9830785,59.3469909 71.9830785,58.7973187 C71.9830785,58.2629151 72.1561977,57.8392158 72.5024413,57.526208 C72.6834323,57.3658869 72.9116348,57.249465 73.1870559,57.1769388 C73.4624769,57.1044126 73.7811736,57.0681501 74.1431555,57.0681501 L75.4887772,57.0681501 L75.4887772,56.3467089 C75.4887772,56.0031637 75.3746759,55.7455087 75.14647,55.5737362 C74.918264,55.4019636 74.6153054,55.3160786 74.2375851,55.3160786 C74.0015099,55.3160786 73.7733074,55.348524 73.5529705,55.4134159 C73.3326337,55.4783077 73.1083657,55.5756441 72.8801597,55.7054278 C72.8172063,55.7435995 72.7542539,55.762685 72.6913005,55.762685 C72.5811321,55.762685 72.4867034,55.7302396 72.4080117,55.6653477 C72.32932,55.6004559 72.2899747,55.5107538 72.2899747,55.3962387 C72.2899747,55.2511863 72.3568617,55.136673 72.4906376,55.0526953 C72.7660586,54.8847399 73.0532791,54.7664094 73.3523077,54.6977004 C73.6513362,54.6289914 73.9464257,54.5946374 74.2375851,54.5946374 C74.5130061,54.5946374 74.7746522,54.6308999 75.0225311,54.7034261 C75.27041,54.7759523 75.4887763,54.88474 75.6776364,55.0297924 C75.8664966,55.1748448 76.0160086,55.3561576 76.126177,55.5737362 C76.2363454,55.7913147 76.2914288,56.0451526 76.2914288,56.3352574 L76.2914288,59.7706917 Z M75.4887772,57.7895913 L74.1431555,57.7895913 C73.844127,57.7895913 73.6041208,57.8201282 73.4231299,57.8812029 C73.2421389,57.9422776 73.1044304,58.0224369 73.0100004,58.1216833 C72.9155703,58.2209296 72.8545851,58.3297173 72.827043,58.4480495 C72.7995009,58.5663817 72.7857301,58.6828036 72.7857301,58.7973187 C72.7857301,58.9118337 72.7995009,59.0301642 72.827043,59.1523136 C72.8545851,59.274463 72.9155703,59.3870677 73.0100004,59.4901313 C73.1044304,59.5931948 73.2421389,59.6771713 73.4231299,59.7420631 C73.6041208,59.806955 73.844127,59.8394004 74.1431555,59.8394004 C74.5995675,59.8394004 75.0481036,59.7745095 75.4887772,59.6447258 L75.4887772,57.7895913 Z M79.1464395,60.4463272 L77.1752218,55.121404 C77.1673526,55.098501 77.1614508,55.0775068 77.1575162,55.058421 C77.1535816,55.0393352 77.1516144,55.0183411 77.1516144,54.995438 C77.1516144,54.8961917 77.1870251,54.8064896 77.2578477,54.726329 C77.3286702,54.6461685 77.4270334,54.6060888 77.5529401,54.6060888 C77.639501,54.6060888 77.7162243,54.6270829 77.7831123,54.6690718 C77.8500002,54.7110606 77.8991818,54.774043 77.9306585,54.8580207 L79.5477653,59.3355367 L80.9406018,54.8694721 C80.9642093,54.7854944 81.0114237,54.718695 81.0822462,54.6690718 C81.1530688,54.6194486 81.2317593,54.5946374 81.3183202,54.5946374 C81.4284886,54.5946374 81.5248845,54.6308999 81.6075108,54.7034261 C81.6901371,54.7759523 81.7314497,54.8694715 81.7314497,54.9839866 C81.7314497,55.0068896 81.7294824,55.0278837 81.7255478,55.0469696 C81.7216132,55.0660554 81.7157115,55.0870495 81.7078423,55.1099525 L79.6067838,61.568569 C79.4651387,62.0037262 79.213329,62.3510833 78.8513471,62.6106508 C78.4893651,62.8702182 78.0486981,63 77.5293327,63 C77.4191643,63 77.3267029,62.965646 77.2519458,62.896937 C77.1771887,62.8282279 77.1398107,62.7366173 77.1398107,62.6221022 C77.1398107,62.5228558 77.1771887,62.4388794 77.2519458,62.3701704 C77.3267029,62.3014613 77.4191643,62.2632902 77.5293327,62.2556559 C78.2296891,62.2174842 78.6742906,61.9121153 78.8631508,61.3395401 L79.1464395,60.4463272 Z M85.4886481,54.9839866 C85.4886481,54.8771059 85.5279934,54.7854952 85.6066851,54.7091518 C85.6853768,54.6328085 85.7798055,54.5946374 85.8899739,54.5946374 C86.0001423,54.5946374 86.0945709,54.6328085 86.1732627,54.7091518 C86.2519544,54.7854952 86.2912997,54.8771059 86.2912997,54.9839866 L86.2912997,60.1714924 C86.2912997,60.2783731 86.2519544,60.3699838 86.1732627,60.4463272 C86.0945709,60.5226705 86.0001423,60.5608416 85.8899739,60.5608416 C85.7798055,60.5608416 85.6853768,60.5226705 85.6066851,60.4463272 C85.5279934,60.3699838 85.4886481,60.2783731 85.4886481,60.1714924 L85.4886481,54.9839866 Z M85.8899739,53.3464296 C85.7404596,53.3464296 85.6145547,53.2948986 85.5122555,53.191835 C85.4099563,53.0887715 85.3588074,52.9647154 85.3588074,52.819663 C85.3588074,52.6746106 85.4099563,52.552463 85.5122555,52.4532166 C85.6145547,52.3539703 85.7404596,52.3043478 85.8899739,52.3043478 C86.0394882,52.3043478 86.165393,52.3539703 86.2676923,52.4532166 C86.3699915,52.552463 86.4211403,52.6746106 86.4211403,52.819663 C86.4211403,52.9647154 86.3699915,53.0887715 86.2676923,53.191835 C86.165393,53.2948986 86.0394882,53.3464296 85.8899739,53.3464296 Z M88.0824039,52.693697 C88.0824039,52.5868163 88.1217492,52.4952057 88.2004409,52.4188623 C88.2791326,52.3425189 88.3735613,52.3043478 88.4837297,52.3043478 C88.5938981,52.3043478 88.6883267,52.3425189 88.7670185,52.4188623 C88.8457102,52.4952057 88.8850555,52.5868163 88.8850555,52.693697 L88.8850555,54.7091518 L90.2424809,54.7091518 C90.3526493,54.7091518 90.4451107,54.7454144 90.5198678,54.8179406 C90.5946249,54.8904668 90.6320029,54.9801689 90.6320029,55.0870496 C90.6320029,55.1939303 90.5946249,55.2817239 90.5198678,55.3504329 C90.4451107,55.419142 90.3526493,55.453496 90.2424809,55.453496 L88.8850555,55.453496 L88.8850555,59.0148962 C88.8850555,59.259195 88.9578442,59.4519591 89.1034239,59.5931943 C89.2490036,59.7344295 89.42409,59.8050461 89.6286885,59.8050461 C89.7152494,59.8050461 89.8254162,59.7974119 89.9591921,59.7821432 C90.092968,59.7668745 90.1913312,59.7592403 90.2542846,59.7592403 C90.3408455,59.7592403 90.4254378,59.7916857 90.5080641,59.8565776 C90.5906904,59.9214695 90.6320029,60.0111716 90.6320029,60.1256866 C90.6320029,60.2172987 90.602494,60.2993665 90.5434752,60.3718927 C90.4844564,60.4444189 90.4037986,60.4883157 90.3014994,60.5035844 C90.191331,60.5188531 90.0791969,60.532213 89.9650939,60.5436645 C89.8509909,60.555116 89.7388569,60.5608416 89.6286885,60.5608416 C89.4162209,60.5608416 89.21556,60.5226705 89.0266998,60.4463272 C88.8378397,60.3699838 88.6745568,60.2631047 88.5368463,60.1256866 C88.3991358,59.9882686 88.2889691,59.8222242 88.2063427,59.6275486 C88.1237164,59.4328731 88.0824039,59.2210234 88.0824039,58.9919933 L88.0824039,52.693697 Z M95.0620122,57.8239456 L95.0620122,58.4652267 C95.0620122,58.8774809 95.1820153,59.2095695 95.4220251,59.4615027 C95.6620348,59.7134358 95.9945023,59.8394004 96.4194376,59.8394004 C96.6555128,59.8394004 96.8856826,59.8088635 97.1099541,59.7477888 C97.3342255,59.6867142 97.5525917,59.6103719 97.7650594,59.5187599 C97.8201436,59.4958569 97.8752269,59.4844055 97.9303112,59.4844055 C98.0404796,59.4844055 98.1349082,59.5187595 98.2135999,59.5874686 C98.2922917,59.6561776 98.3316369,59.7439712 98.3316369,59.8508519 C98.3316369,60.0111729 98.2568809,60.1256863 98.1073666,60.1943953 C97.8398148,60.324179 97.5663652,60.4176983 97.2870095,60.4749558 C97.0076539,60.5322133 96.7184662,60.5608416 96.4194376,60.5608416 C96.0968016,60.5608416 95.8017121,60.5093106 95.5341602,60.4062471 C95.2666083,60.3031835 95.0384058,60.1600419 94.8495456,59.9768178 C94.6606855,59.7935937 94.515108,59.5741098 94.4128088,59.3183596 C94.3105095,59.0626093 94.2593607,58.7782345 94.2593607,58.4652267 L94.2593607,56.6902523 C94.2593607,56.3772445 94.3105095,56.0928697 94.4128088,55.8371194 C94.515108,55.5813692 94.6606855,55.3618853 94.8495456,55.1786612 C95.0384058,54.9954371 95.2666083,54.8522955 95.5341602,54.7492319 C95.8017121,54.6461684 96.0968016,54.5946374 96.4194376,54.5946374 C96.7420737,54.5946374 97.035196,54.6461684 97.2988132,54.7492319 C97.5624305,54.8522955 97.7886658,54.9954371 97.977526,55.1786612 C98.1663861,55.3618853 98.3119636,55.5813692 98.4142628,55.8371194 C98.5165621,56.0928697 98.5677109,56.3772445 98.5677109,56.6902523 L98.5677109,57.2857276 C98.5677109,57.4384143 98.5145948,57.5662875 98.408361,57.6693511 C98.3021271,57.7724146 98.1703205,57.8239456 98.012937,57.8239456 L95.0620122,57.8239456 Z M97.7650594,56.6329951 C97.7650594,56.2207409 97.6470236,55.898195 97.4109484,55.6653477 C97.1748732,55.4325005 96.8443729,55.3160786 96.4194376,55.3160786 C95.9945023,55.3160786 95.6620348,55.4325005 95.4220251,55.6653477 C95.1820153,55.898195 95.0620122,56.2207409 95.0620122,56.6329951 L95.0620122,57.1025044 L97.7650594,57.1025044 L97.7650594,56.6329951 Z M103.826053,59.7706917 C103.826053,59.8852068 103.790642,59.9882688 103.71982,60.0798808 C103.648997,60.1714929 103.558503,60.2363838 103.448335,60.2745554 C103.165045,60.3661675 102.875857,60.436784 102.580763,60.4864072 C102.285669,60.5360304 101.984678,60.5608416 101.67778,60.5608416 C100.961685,60.5608416 100.414786,60.3967059 100.037066,60.0684294 C99.6908222,59.7706903 99.517703,59.3469909 99.517703,58.7973187 C99.517703,58.2629151 99.6908222,57.8392158 100.037066,57.526208 C100.218057,57.3658869 100.446259,57.249465 100.72168,57.1769388 C100.997101,57.1044126 101.315798,57.0681501 101.67778,57.0681501 L103.023402,57.0681501 L103.023402,56.3467089 C103.023402,56.0031637 102.9093,55.7455087 102.681094,55.5737362 C102.452888,55.4019636 102.14993,55.3160786 101.77221,55.3160786 C101.536134,55.3160786 101.307932,55.348524 101.087595,55.4134159 C100.867258,55.4783077 100.64299,55.5756441 100.414784,55.7054278 C100.351831,55.7435995 100.288878,55.762685 100.225925,55.762685 C100.115757,55.762685 100.021328,55.7302396 99.9426362,55.6653477 C99.8639445,55.6004559 99.8245992,55.5107538 99.8245992,55.3962387 C99.8245992,55.2511863 99.8914861,55.136673 100.025262,55.0526953 C100.300683,54.8847399 100.587904,54.7664094 100.886932,54.6977004 C101.185961,54.6289914 101.48105,54.5946374 101.77221,54.5946374 C102.047631,54.5946374 102.309277,54.6308999 102.557156,54.7034261 C102.805034,54.7759523 103.023401,54.88474 103.212261,55.0297924 C103.401121,55.1748448 103.550633,55.3561576 103.660801,55.5737362 C103.77097,55.7913147 103.826053,56.0451526 103.826053,56.3352574 L103.826053,59.7706917 Z M103.023402,57.7895913 L101.67778,57.7895913 C101.378751,57.7895913 101.138745,57.8201282 100.957754,57.8812029 C100.776763,57.9422776 100.639055,58.0224369 100.544625,58.1216833 C100.450195,58.2209296 100.38921,58.3297173 100.361668,58.4480495 C100.334125,58.5663817 100.320355,58.6828036 100.320355,58.7973187 C100.320355,58.9118337 100.334125,59.0301642 100.361668,59.1523136 C100.38921,59.274463 100.450195,59.3870677 100.544625,59.4901313 C100.639055,59.5931948 100.776763,59.6771713 100.957754,59.7420631 C101.138745,59.806955 101.378751,59.8394004 101.67778,59.8394004 C102.134192,59.8394004 102.582728,59.7745095 103.023402,59.6447258 L103.023402,57.7895913 Z M106.107798,57.6063681 C105.832377,57.4918531 105.592371,57.3219916 105.387772,57.0967787 C105.183174,56.8715658 105.080876,56.5566541 105.080876,56.1520343 C105.080876,55.9153698 105.132025,55.7016116 105.234324,55.5107532 C105.336623,55.3198948 105.474332,55.155759 105.647454,55.0183409 C105.820575,54.8809229 106.023203,54.7759523 106.255344,54.7034261 C106.487485,54.6308999 106.733393,54.5946374 106.993075,54.5946374 C107.284235,54.5946374 107.545881,54.6213571 107.778021,54.6747975 C108.010162,54.7282379 108.228528,54.7969459 108.433127,54.8809236 C108.598379,54.9572669 108.681004,55.0794145 108.681004,55.2473699 C108.681004,55.3542506 108.641659,55.4401356 108.562967,55.5050275 C108.484276,55.5699193 108.389847,55.6023648 108.279678,55.6023648 C108.232463,55.6023648 108.181315,55.5909134 108.12623,55.5680104 C107.756379,55.400055 107.347188,55.3160786 106.898646,55.3160786 C106.780608,55.3160786 106.662572,55.331347 106.544535,55.3618844 C106.426497,55.3924217 106.318298,55.438227 106.219933,55.4993017 C106.121568,55.5603764 106.04091,55.6424443 105.977957,55.7455079 C105.915004,55.8485714 105.883528,55.9726275 105.883528,56.1176799 C105.883528,56.34671 105.948447,56.5222971 106.078289,56.6444465 C106.20813,56.7665959 106.339937,56.8543895 106.473712,56.9078298 L107.58326,57.3429848 C107.937373,57.4804029 108.222626,57.6808012 108.439028,57.9441858 C108.655431,58.2075704 108.76363,58.5148479 108.76363,58.8660274 C108.76363,59.1026918 108.716416,59.3240843 108.621986,59.5302113 C108.527556,59.7363384 108.395749,59.9157426 108.226562,60.0684294 C108.057375,60.2211161 107.856714,60.3413551 107.624573,60.42915 C107.392433,60.5169449 107.14259,60.5608416 106.875038,60.5608416 C106.568141,60.5608416 106.288789,60.5322133 106.036976,60.4749558 C105.785162,60.4176983 105.545156,60.3356304 105.31695,60.2287497 C105.159566,60.1600406 105.080876,60.0417102 105.080876,59.8737548 C105.080876,59.7668741 105.118254,59.6790805 105.193011,59.6103715 C105.267768,59.5416624 105.364164,59.5073084 105.482202,59.5073084 C105.513678,59.5073084 105.54122,59.5111256 105.564828,59.5187599 C105.588435,59.5263942 105.615977,59.5378456 105.647454,59.5531142 C105.836314,59.6370919 106.035007,59.7057999 106.24354,59.7592403 C106.452073,59.8126807 106.674374,59.8394004 106.910449,59.8394004 C107.18587,59.8394004 107.429811,59.7649668 107.642279,59.6160972 C107.854746,59.4672276 107.960979,59.2591951 107.960979,58.9919933 C107.960979,58.7476945 107.899993,58.556839 107.778021,58.4194209 C107.656049,58.2820029 107.469159,58.1598553 107.217346,58.0529746 L106.107798,57.6063681 Z M111.517031,60.4463272 L109.545813,55.121404 C109.537944,55.098501 109.532042,55.0775068 109.528107,55.058421 C109.524173,55.0393352 109.522205,55.0183411 109.522205,54.995438 C109.522205,54.8961917 109.557616,54.8064896 109.628439,54.726329 C109.699261,54.6461685 109.797625,54.6060888 109.923531,54.6060888 C110.010092,54.6060888 110.086815,54.6270829 110.153703,54.6690718 C110.220591,54.7110606 110.269773,54.774043 110.30125,54.8580207 L111.918356,59.3355367 L113.311193,54.8694721 C113.3348,54.7854944 113.382015,54.718695 113.452837,54.6690718 C113.52366,54.6194486 113.60235,54.5946374 113.688911,54.5946374 C113.79908,54.5946374 113.895476,54.6308999 113.978102,54.7034261 C114.060728,54.7759523 114.102041,54.8694715 114.102041,54.9839866 C114.102041,55.0068896 114.100074,55.0278837 114.096139,55.0469696 C114.092204,55.0660554 114.086303,55.0870495 114.078433,55.1099525 L111.977375,61.568569 C111.83573,62.0037262 111.58392,62.3510833 111.221938,62.6106508 C110.859956,62.8702182 110.419289,63 109.899924,63 C109.789755,63 109.697294,62.965646 109.622537,62.896937 C109.54778,62.8282279 109.510402,62.7366173 109.510402,62.6221022 C109.510402,62.5228558 109.54778,62.4388794 109.622537,62.3701704 C109.697294,62.3014613 109.789755,62.2632902 109.899924,62.2556559 C110.60028,62.2174842 111.044882,61.9121153 111.233742,61.3395401 L111.517031,60.4463272 Z" id="Combined-Shape" fill="#64B439"></path>
    </g>
</svg>