<?xml version="1.0" encoding="UTF-8"?><svg id="Layer_1" xmlns="http://www.w3.org/2000/svg" viewBox="0 0 500 500"><defs><style>.cls-1{fill:none;}.cls-1,.cls-2{stroke-width:0px;}.cls-2{fill:#000;}</style></defs><path class="cls-2" d="M414.9640635317,281.0747917335c-9.4186030663,0-16.7595580708-7.717001637-16.7595580708-17.087807724,0-9.3703588687,7.3409550045-17.087807724,16.7595580708-17.087807724s16.7595580708,7.7174488553,16.7595580708,17.087807724c0,9.3708060869-7.3409550045,17.087807724-16.7595580708,17.087807724ZM410.2550005149,299.1272874857c8.0331976945,0,18.2833710921-3.0316028528,23.962071352-14.8828856166l.553766893.2755545695c-2.4929732316,6.4767675578-2.4929732316,10.3354941151-2.4929732316,11.3001736248v1.5157971672h20.2221344718v-66.6974370941h-20.2221344718v1.5158440186c0,.9646369175,0,4.8231398656,2.4929732316,11.2999457565l-.553766893.2756056802c-5.6787002599-11.8511549872-15.9288736575-14.8828898759-23.962071352-14.8828898759-19.2529742614,0-32.8268734515,15.1584912968-32.8268734515,35.1399882938,0,19.9818547715,13.5738991901,35.1403034761,32.8268734515,35.1403034761ZM342.2471991362,228.8469957158c-9.1416855461,0-16.3441988273,3.169514303-22.1617667325,14.8828898759l-.5538009668-.2756056802c2.4929902685-6.4768058908,2.4929902685-10.335308839,2.4929902685-11.2999457565v-1.5158440186h-20.2221344718v66.6974370941h20.7763783975v-35.1403034761c0-9.2328030635,5.4017657027-15.0204414219,14.1276660831-15.0204414219,8.7263603763,0,13.0200641495,4.9609618722,13.0200641495,14.8828856166v35.2778592814h20.7763783975v-42.443743261c0-15.1586275919-11.912019257-26.0451882538-28.2557751252-26.0451882538ZM271.74596453,243.7298855916l-.5542439258-.2756056802c2.4934332275-6.4768058908,2.4934332275-10.335308839,2.4934332275-11.2999457565v-1.5158440186h-20.2221344718v66.6974370941h20.7759354385l.1389017191-32.1087006233c0-9.3703588687,4.9859635002-15.0204456811,13.1580629138-15.0204456811,2.2160897851,0,4.0168373636.2755588287,6.0944683886.8266764862v-20.3949672759c-9.1416855461-1.929273835-17.3138019966,1.5158440186-21.8844232901,13.0913954552ZM205.677352453,281.0747917335c-9.4185860295,0-16.7595410339-7.717001637-16.7595410339-17.087807724,0-9.3703588687,7.3409550045-17.087807724,16.7595410339-17.087807724,9.4186030663,0,16.7595580708,7.7174488553,16.7595580708,17.087807724,0,9.3708060869-7.3409550045,17.087807724-16.7595580708,17.087807724ZM200.9678464772,299.1272874857c8.0336406535,0,18.283388129-3.0316028528,23.9620543151-14.8828856166l.5542439258.2755545695c-2.4934332275,6.4767675578-2.4934332275,10.3354941151-2.4934332275,11.3001736248v1.5157971672h20.2225774307v-66.6974370941h-20.2225774307v1.5158440186c0,.9646369175,0,4.8231398656,2.4934332275,11.2999457565l-.5542439258.2756056802c-5.6786661861-11.8511549872-15.9284136616-14.8828898759-23.9620543151-14.8828898759-19.2525398209,0-32.8264134557,15.1584912968-32.8264134557,35.1399882938,0,19.9818547715,13.5738736348,35.1403034761,32.8264134557,35.1403034761ZM139.1929552104,297.3359272305h20.7763783975v-96.4632147162h-20.7763783975v96.4632147162ZM123.9568012757,200.8727125143h-21.1917291226c0,17.225545611-10.6651748666,32.6596415231-26.8707509537,43.6840284508l-6.371407205,4.4098016225v-48.0938300734h-22.0229139944v96.4632147162h22.0229139944v-47.8182669854l36.4278383355,47.8182669854h26.8708425269l-35.0429419406-45.7513479015c15.9284051432-11.437593135,26.3165900827-29.2143916337,26.1781483595-50.7118668147Z"/><rect class="cls-1" width="500" height="500"/></svg>