<?xml version="1.0" encoding="UTF-8"?><svg id="Layer_1" xmlns="http://www.w3.org/2000/svg" viewBox="0 0 500 500"><defs><style>.cls-1{fill:none;}.cls-1,.cls-2,.cls-3{stroke-width:0px;}.cls-2{fill:#baec9f;}.cls-3{fill:#004d8c;}</style></defs><path class="cls-2" d="M43.4850338792,280.2248284685c-8.2183128556,4.7467168544-18.4850338792-1.1846174321-18.4850338792-10.669822844v-48.7586973496c0-9.4852001162,10.2667210236-15.4165351873,18.4850338792-10.6698218633l50.8235621115,29.3440642072-50.8235605425,40.7625061466-.0000015691-.008228297Z"/><path class="cls-3" d="M443.6485943818,286.3453759271c2.5255536774-.4442338907,4.5410408121-1.077674677,6.0465116149-1.9003286353,1.5218897386-.8391042759,2.7394517403-1.9003286354,3.6443510102-3.2001233959.8555420408-1.2257526406,1.8592059796-2.9780095887,2.6242681356-5.00996587h-1.8262676863c-4.648014949-11.0646932292-9.6661840106-25.6750292869-13.0555143021-38.2122769929,1.5465934585-.2961559271,3.9816421458-.5182728724,5.6105060212-.5182728724l9.8553783535,30.2654398808c.4689187815,1.4972299531,1.0283174479,3.2330303074,1.2586846575,4.886566521h.312612521c.312612521-1.6535362137.7897658759-3.3893365679,1.340929969-4.9688306616l9.9294393025-30.191400899c1.4725325095,0,4.0556779894.1480779636,5.6105060212.5182728725,0,0-11.2127774691,32.9966507714-13.2118205626,38.212280131-1.9990430935,5.2156293596-3.6443510102,8.0537830054-6.3673336039,10.6780448646-2.5749109065,2.476190172-6.1946084075,4.0145490573-10.8425731457,4.639767823-.5100414373-1.7275720573-.9049243753-3.7266214271-.9131338432-5.1991727657h-.0165444628ZM404.3997810585,240.3672466972c0-10.9906573856-8.7777287819-16.4695326227-17.7775399893-16.4695326227-4.7220256872,0-8.1854169277.3701949089-13.5737903127,1.0365441758v51.3006997756h6.1205474585v-18.8140982869h7.0830385308c8.7777287819,0,18.1477443127-5.9148808308,18.1477443127-17.0536130418ZM398.1311619128,240.3672466972c0,7.7493987813-5.8984399277,11.8955754845-12.7593709277,11.8955754845h-6.1945833021v-22.894459598c3.0273605414-.2961559271,5.5364701776-.4442338907,7.305171167-.4442338907,5.6845418648,0,11.6570176361,3.7759817943,11.6570176361,11.451343163l-.0082345733-.0082251588ZM440.2016973933,271.2167701352h-4.0556779894c-1.6946651458,0-2.2129411564-.6663476978-2.2129411564-2.4350549635v-28.1841232322c-3.1754322286-2.5090939453-8.7036678329-3.611450375-13.6478261563-3.611450375-3.759534615,0-6.7128593128.5182728725-9.962327385,1.4725513386,0,1.6946682839.2961433744,3.9076063021.7403835414,5.3143438178,2.1389053128-.9625036249,5.8243789787-1.6206293022,9.0738721564-1.6206293022,3.0273605414,0,6.4166908329.7403898178,8.2594527713,1.7687072657v10.6945014585l-8.1113559787.3701949089c-9.0738721564.3701949089-13.7218619999,3.5374113933-13.7218619999,11.5829692399,0,7.0830510835,4.573954,10.3983455314,11.1387416255,10.3983455314,3.8335704585,0,7.305171167-1.0365457449,10.9166089893-3.9816484221h.2961433744c1.2504249788,3.0273668178,3.8335704586,3.9816421458,6.7868951564,3.9816421458s4.4999181564-1.1846237085,4.4999181564-4.0556842657v-1.6946651458h-.0000251054ZM428.3966080699,268.9297931352c-2.5090845308,1.8427431093-6.3426549893,3.1754447813-9.6661840106,3.1754447813-4.3518464692,0-6.1205474585-1.6946651458-6.1205474585-5.898427375,0-4.7960740835,1.7687009894-6.6388171928,7.4532428542-6.8609341381l8.3334886149-.3701949089v9.9623399377-.008228297ZM92.613930845,238.6808067102l-45.6737497131-16.6258373141c-7.7494003504-2.8217033282-15.6551053922,3.8088871367-14.2154609651,11.928482396l8.4404298009,47.8702342756c1.4314176992,8.127818849,11.1222803244,11.6487830628,17.4402629755,6.3508895626l37.2333199122-31.2443969614c6.3179826512-5.306118659,4.5328250679-15.4576686305-3.2248020104-18.2793719587ZM143.1248788664,277.0000327345c-15.0627919689,0-23.1330315682-9.2219501199-23.1330315682-26.7444788051,0-18.5179407907,9.9129827086-26.5881756827,22.3597348389-26.5881756827,4.8372092919,0,11.2209994897.9954105364,14.1414235524,2.4597351472-.1563062605,2.9204209245-.8473325729,6.8362539545-1.5383588852,10.1433232437-3.5374145314-1.686439987-7.9879754587-2.6160398386-11.9860741984-2.6160398386-5.9971418332,0-10.7603152815,3.4551472527-10.7603152815,16.5188898518s3.6854862186,16.8314992346,11.2209994897,16.8314992346c4.3765250837,0,9.526334344-1.6124010052,12.5290162709-3.611450375.765062156,3.0767240468,1.3820526247,6.5318744377,1.6124072816,10.1433248127-3.8417924792,2.3034335939-9.9129827086,3.4551441145-14.4458015002,3.4551441145v.008228297ZM193.1257854505,259.247158807h-22.1293864585v.4606873464c0,5.0757765549,1.9990430935,7.527281836,8.8353080316,7.527281836,3.5374145314,0,8.3746238234-1.077674677,10.8343511251-2.4597335781.9213684165,2.6900756822,1.7687009894,6.5318744377,2.2293977503,9.7566764481-3.5374145314,1.6124010052-9.6086047609,2.4597335781-13.2200425832,2.4597335781-12.6771005108,0-19.8259654173-6.918516526-19.8259654173-20.2866464873,0-14.1414204142,7.3792070106-21.3643211643,17.6788380839-21.3643211643,11.2209994897,0,15.9101245418,7.1488617683,15.9101245418,17.8269097711,0,1.6946682839-.0740358436,4.2284408438-.3043779477,6.0711870913l-.008247126.0082251588ZM182.9824606378,250.2555507912c0-4.763167172-1.6864431252-7.1488617683-5.6105060212-7.1488617683s-6.3015323336,2.7641178022-6.3015323336,9.2219501199h11.8379899585c.0740358436-.4606873464.0740358436-1.6946682839.0740358436-2.0730883516h.0000125527ZM242.1724104303,276.2267360052v-27.2792051333c0-2.8463819427-.9213684165-4.5328219297-4.6891376048-4.5328219297-2.3856914581,0-4.5328187915.7650684323-6.22749649,2.0730883516v29.7389387113h-10.3736669169v-27.2051661515c0-2.9944599063-.8473325729-4.6068609115-4.3765250837-4.6068609115-2.2293977503,0-4.6068671878.7650684323-6.5318744377,2.0730883516v29.7389387113h-10.3736669169v-39.7341855605c2.9944599063-.3866483646,7.0665944896-.6169904688,10.3736669169-.6169904688v3.9980987397h.5347200518c3.7677566356-3.3811082709,6.4578385941-4.5328219297,10.2173606563-4.5328219297s6.992558646,1.3080199193,8.6872237917,5.0757734167c3.9158283228-3.9980987397,7.2229007501-5.0757734167,11.3772931976-5.0757734167,6.7622165418,0,11.7557320943,3.6854893568,11.7557320943,12.4467552685v28.4309219302h-10.3736543642l.0000251054.0082220206ZM276.4441773477,276.9918044375c-6.3755681772,0-12.4467584067-1.5383651616-16.6751866978-4.9194734325v-52.3290195771c2.994472459-.3866475801,7.0665944896-.6910294505,10.3736543642-.6910294505v20.516989376h.5347200518c2.994472459-3.3070692891,5.8408481254-4.2284408438,9.3782501041-4.2284408438,8.1442691665,0,14.6021077607,5.3801576407,14.6021077607,19.2089686721s-6.6881806982,22.4419989795-18.2135706884,22.4419989795l.0000251054.0000062763ZM276.7485552954,244.4064806453c-2.5337631453,0-4.9935155525.8473325729-6.6059102813,2.3856977345v19.8259591409c1.3820526247.9954105364,3.6114629277,1.4560947447,5.6845418648,1.4560947447,5.8408481254,0,7.7576208019-3.611450375,7.7576208019-12.6030583908s-2.3034210412-11.0646963674-6.8362523854-11.0646932292ZM322.0850279948,246.5618331375c-.9213684165-.2303421041-2.5337631453-.4606873464-3.7677440828-.4606873464-2.8463756664,0-4.9935155525.5347263282-7.4532428542,2.229391474v27.8961987402h-10.3736543642v-39.7341855605c2.994472459-.3866483646,7.0665944896-.6169904688,10.3736543642-.6169904688v5.1498123985h.5347200518c3.7677440829-5.2238513802,6.22749649-5.6845387267,8.7612596353-5.6845387267.6910263124,0,1.9990430935.1563031224,2.8463756664.4606873464,0,3.611450375-.3866483646,7.2229007501-.9213684165,10.7603121433ZM354.160297797,276.9918044375c-3.4551566672,0-6.0711902295-.9213746928-7.4532428542-4.1461767032h-.4606842082c-3.1507536141,2.7641178022-6.5318744377,4.1461767032-10.5299606247,4.1461767032-6.9925586459,0-12.0683446153-3.5374145314-12.0683446153-11.6076478544,0-8.8353017553,5.4541997607-11.8379899585,15.0627919689-12.2164100262l6.3015323336-.2303421041v-6.8362555236c-1.9167726766-1.151716797-4.6891376047-1.5383620234-7.4532428542-1.5383620234-3.2248145631,0-6.7622165418.6910294505-9.065637583,1.6946682839-.6169904688-2.5337725599-1.3080167811-5.9971481095-1.4643230416-9.2959891017,3.5374019787-.9954105364,7.3792070106-1.6124010052,11.3772931976-1.6124010052,5.9971543859,0,12.5290288236,1.4560978829,16.5188804372,4.6891281902v23.8980968623c0,1.9990493698.5347200518,2.6900756822,2.3856914581,2.6900756822h4.1461829796v3.4551441145c0,5.3061155208-3.1507536141,6.9185228024-7.2969365937,6.9185228024v-.008228297ZM345.012389797,259.7818851352l-6.3015323336.2303421041c-3.3810957182.1563031223-4.6891376047,1.0776778152-4.6891376047,4.689125052,0,3.0767240468,1.3080167811,4.3024829638,4.2284533965,4.3024829638,2.2293851976,0,5.0757859694-.5347263282,6.7622165418-1.8427431093v-7.3792070106Z"/><rect class="cls-1" width="500" height="500"/></svg>