<?xml version="1.0" encoding="UTF-8"?>
<svg width="140px" height="80px" viewBox="0 0 140 80" version="1.1" xmlns="http://www.w3.org/2000/svg" xmlns:xlink="http://www.w3.org/1999/xlink">
    <title>im/logo-pay/cardklarna</title>
    <g id="im/logo-pay/cardklarna" stroke="none" stroke-width="1" fill="none" fill-rule="evenodd">
        <g id="cardklarna" transform="translate(25.000000, 10.000000)">
            <rect id="Rectangle-11" fill="#FFFFFF" x="0" y="0" width="90" height="60" rx="4"></rect>
            <g id="card_klarna_sofort" transform="translate(13.000000, 7.000000)" fill-rule="nonzero">
                <g id="Group-35">
                    <path d="M10.4597701,0 L53.7931034,0 C55.4436096,0 56.7816092,1.34314575 56.7816092,3 L56.7816092,21.75 C56.7816092,23.4068543 55.4436096,24.75 53.7931034,24.75 L10.4597701,24.75 C8.80926397,24.75 7.47126437,23.4068543 7.47126437,21.75 L7.47126437,3 C7.47126437,1.34314575 8.80926397,0 10.4597701,0 Z" id="Rectangle" fill="#FEB3C7"></path>
                    <g id="klarna" transform="translate(12.701149, 7.500000)" fill="#000000">
                        <path d="M8.3614502,8.73856552 L10.2622551,8.73856552 L10.2622551,3.10344827e-05 L8.3614502,3.10344827e-05 L8.3614502,8.73856552 Z M14.1367411,2.74223793 C14.8130652,2.74223793 15.4390096,2.95218621 15.9518372,3.30815173 L15.9518372,3.30815173 L15.9518372,2.90392759 L17.5045783,2.90392759 L17.5045783,8.73856552 L15.9518372,8.73856552 L15.9518372,8.3343414 C15.4390096,8.69015175 14.8130652,8.9001 14.1367411,8.9001 C12.4007001,8.9001 10.9933948,7.52154825 10.9933948,5.82116896 C10.9933948,4.12078966 12.4007001,2.74223793 14.1367411,2.74223793 Z M20.3974519,2.90392759 L20.3974519,3.68553104 C20.7505852,3.21737586 21.4272262,2.90408276 22.1632771,2.90408276 L22.1632771,2.90408276 L22.1632771,4.60182414 C22.1559895,4.60182414 22.1490187,4.60306552 22.1420479,4.60104827 C21.4408508,4.40428966 20.4191563,4.79346207 20.4191563,5.68073793 L20.4191563,5.68073793 L20.4191563,8.73856552 L18.6214873,8.73856552 L18.6214873,2.90392759 L20.3974519,2.90392759 Z M14.2828107,4.25516896 C13.3515779,4.25516896 12.5968326,4.95623793 12.5968326,5.82116896 C12.5968326,6.6861 13.3515779,7.38716896 14.2828107,7.38716896 C15.2138851,7.38716896 15.9687888,6.6861 15.9687888,5.82116896 C15.9687888,4.95623793 15.2138851,4.25516896 14.2828107,4.25516896 Z M26.6082581,2.74673793 C25.8956543,2.74673793 25.2213898,2.96335862 24.7706655,3.56108275 L24.7706655,2.90392759 L24.7467431,2.90392759 L24.7467431,2.90361724 L23.087856,2.90361724 L23.087856,2.90392759 L22.994701,2.90392759 L22.994701,8.73856552 L24.79237,8.73856552 L24.79237,5.54713448 C24.79237,4.65985862 25.3999369,4.22537586 26.1313935,4.22537586 C26.9152893,4.22537586 27.3658552,4.68406552 27.3658552,5.53503103 L27.3658552,8.73856552 L29.1473646,8.73856552 L29.1473646,5.02808275 C29.1473646,3.67001379 28.0450309,2.74673793 26.6082581,2.74673793 L26.6082581,2.74673793 Z M32.9209328,2.74223793 C33.5972569,2.74223793 34.2232013,2.95218621 34.7360288,3.30815173 L34.7360288,3.30815173 L34.7360288,2.90392759 L36.2886115,2.90392759 L36.2886115,8.73856552 L34.7360288,8.73856552 L34.7360288,8.3343414 C34.2232013,8.69015175 33.5972569,8.9001 32.9209328,8.9001 C31.1848918,8.9001 29.7774281,7.52154825 29.7774281,5.82116896 C29.7774281,4.12078966 31.1848918,2.74223793 32.9209328,2.74223793 Z M38.1824456,6.66887586 C38.8006271,6.66887586 39.3018895,7.15984138 39.3018895,7.7654793 C39.3018895,8.3709621 38.8006271,8.86192755 38.1824456,8.86192755 C37.5641058,8.86192755 37.0628434,8.3709621 37.0628434,7.7654793 C37.0628434,7.15984138 37.5641058,6.66887586 38.1824456,6.66887586 Z M33.0670023,4.25516896 C32.1357696,4.25516896 31.3810243,4.95623793 31.3810243,5.82116896 C31.3810243,6.6861 32.1357696,7.38716896 33.0670023,7.38716896 C33.9980767,7.38716896 34.7528221,6.6861 34.7528221,5.82116896 C34.7528221,4.95623793 33.9980767,4.25516896 33.0670023,4.25516896 Z M37.5042204,2.93791034 C37.5978507,2.93791034 37.6624889,2.99330689 37.6624889,3.07601379 C37.6624889,3.13591034 37.6360316,3.18013448 37.5839092,3.20263448 L37.5839092,3.20263448 L37.6648653,3.37922069 L37.5782058,3.37922069 L37.5053295,3.21628966 L37.4188285,3.21628966 L37.4188285,3.37813448 L37.3389813,3.37813448 L37.3389813,2.93791034 Z M0,8.73856552 L1.9812857,8.73856552 L1.9812857,3.10344827e-05 L0,3.10344827e-05 L0,8.73856552 Z M7.06646946,0.000806896552 C7.03937848,1.8738931 6.27734552,3.61151379 4.93578729,4.90053103 L4.93578729,4.90053103 L7.62254753,8.73856552 L5.20907354,8.73856552 L2.25330453,4.51911724 C3.94007478,3.67637586 5.10356128,1.97351379 5.14285113,0.000806896552 L5.14285113,0.000806896552 Z M37.4845756,2.74673793 C37.7179382,2.74673793 37.9074167,2.93449655 37.9074167,3.1653931 C37.9074167,3.39613448 37.7179382,3.58404827 37.4845756,3.58404827 C37.2512129,3.58404827 37.0628434,3.39613448 37.0628434,3.1653931 C37.0628434,2.93449655 37.2512129,2.74673793 37.4845756,2.74673793 Z M37.4845756,2.82696207 C37.2963645,2.82696207 37.1437995,2.97872069 37.1437995,3.1653931 C37.1437995,3.35206552 37.2963645,3.50366896 37.4845756,3.50366896 C37.6729451,3.50366896 37.8255101,3.35206552 37.8255101,3.1653931 C37.8255101,2.97872069 37.6729451,2.82696207 37.4845756,2.82696207 Z" id="Shape"></path>
                    </g>
                    <path d="M17.5193678,27.795 C18.418908,27.795 19.2452299,28.215 19.6113218,29.034 L19.6113218,29.034 L18.4293678,29.7795 C18.2097126,29.412 17.8959195,29.1705 17.4775287,29.1705 C16.9859195,29.1705 16.6721264,29.5065 16.6721264,29.937 C16.6721264,30.3871875 17.0164817,30.5640469 17.5860692,30.7419111 L17.5860692,30.7419111 L17.9781297,30.8604611 C19.0454399,31.201536 19.8937356,31.77408 19.8937356,33.024 C19.8937356,34.431 18.8059195,35.3865 17.3833908,35.3865 C16.3897126,35.3865 15.5320115,34.9245 15.009023,34.2105 L15.009023,34.2105 L15.9922414,33.213 C16.2851149,33.591 16.7662644,34.0005 17.4043103,34.0005 C18.0005172,34.0005 18.4084483,33.6435 18.4084483,33.0765 C18.4084483,32.5391471 18.033851,32.3614827 17.4211784,32.1756436 L17.4211784,32.1756436 L17.1637356,32.1 C15.7621264,31.6905 15.1972989,30.9555 15.1972989,30.0105 C15.1972989,28.824 16.0968391,27.795 17.5193678,27.795 Z M23.4814368,30.0315 C24.9876437,30.0315 26.2114368,31.239 26.2114368,32.709 C26.2114368,34.179 24.9876437,35.3865 23.4814368,35.3865 C21.9752299,35.3865 20.7514368,34.179 20.7514368,32.709 C20.7514368,31.239 21.9752299,30.0315 23.4814368,30.0315 Z M23.4814368,31.3755 C22.7492529,31.3755 22.1739655,31.953 22.1739655,32.709 C22.1739655,33.465 22.7492529,34.0425 23.4814368,34.0425 C24.2136207,34.0425 24.788908,33.465 24.788908,32.709 C24.788908,31.953 24.2136207,31.3755 23.4814368,31.3755 Z M33.5332759,30.0315 C35.0394828,30.0315 36.2632759,31.239 36.2632759,32.709 C36.2632759,34.179 35.0394828,35.3865 33.5332759,35.3865 C32.027069,35.3865 30.8032759,34.179 30.8032759,32.709 C30.8032759,31.239 32.027069,30.0315 33.5332759,30.0315 Z M30.0815517,27.9 L30.0815517,29.244 C29.2866092,29.2125 28.7113218,29.6115 28.7113218,30.4935 L28.7113218,30.4935 L28.7113218,31.0395 C29.0251149,30.7035 29.4748851,30.5355 30.0397126,30.5355 L30.0397126,30.5355 L30.0397126,31.9005 C29.2552299,31.9215 28.7113218,32.4255 28.7113218,33.129 L28.7113218,33.129 L28.7113218,35.25 L27.2887931,35.25 L27.2887931,30.42 C27.2887931,29.055 28.1360345,27.9 29.8723563,27.9 L29.8723563,27.9 L30.0815517,27.9 Z M33.5332759,31.3755 C32.801092,31.3755 32.2258046,31.953 32.2258046,32.709 C32.2258046,33.465 32.801092,34.0425 33.5332759,34.0425 C34.2654598,34.0425 34.8407471,33.465 34.8407471,32.709 C34.8407471,31.953 34.2654598,31.3755 33.5332759,31.3755 Z M38.7631609,30.7455 L38.7631609,30.168 L37.3824713,30.168 L37.3824713,35.25 L38.805,35.25 L38.805,32.9295 C38.805,32.0895 39.2966092,31.617 40.1543103,31.617 L40.1543103,30.084 C39.5058046,30.063 39.0455747,30.2835 38.7631609,30.7455 Z M42.7378736,32.6565 L42.7378736,31.4175 C43.0516667,31.7535 43.5014368,31.9215 44.0662644,31.9215 L44.0662644,30.5565 C43.2922414,30.5355 42.7378736,30.021 42.7378736,29.328 L42.7378736,28.53 L41.3153448,28.53 L41.3153448,32.73 C41.3153448,34.095 42.1625862,35.25 43.898908,35.25 L44.1081034,35.25 L44.1081034,33.906 C43.3131609,33.9375 42.7378736,33.5385 42.7378736,32.6565 Z M15.7045977,40.5315 C17.1585057,40.5315 18.1626437,41.592 18.1731034,43.167 C18.1731034,43.2825 18.1731034,43.3665 18.1521839,43.524 C16.7924138,43.5345 15.4954023,43.692 14.5958621,43.944 C14.825977,44.3535 15.2443678,44.6055 15.7987356,44.6055 C16.3008046,44.6055 16.7924138,44.3955 17.148046,44.0385 L17.148046,44.0385 L17.8906897,45.015 C17.3781609,45.5715 16.6145977,45.8865 15.7987356,45.8865 C14.2297701,45.8865 13.0582759,44.7315 13.0582759,43.1985 C13.0582759,41.6865 14.1983908,40.5315 15.7045977,40.5315 Z M1.64666667,40.668 L1.64666667,43.3875 C1.64666667,44.1015 2.07551724,44.5635 2.74494253,44.5635 C3.41436782,44.5635 3.84321839,44.1015 3.84321839,43.3875 L3.84321839,43.3875 L3.84321839,40.668 L5.26574713,40.668 L5.26574713,45.75 L3.88505747,45.75 L3.88505747,45.246 C3.53988506,45.645 3.04827586,45.8655 2.41022989,45.8655 C1.13413793,45.8655 0.224137931,44.9835 0.224137931,43.65 L0.224137931,43.65 L0.224137931,40.668 L1.64666667,40.668 Z M8.2154023,38.4 L8.2154023,41.1195 C8.58149425,40.752 9.07310345,40.563 9.66931034,40.563 C11.1336782,40.563 12.2947126,41.739 12.2947126,43.209 C12.2947126,44.679 11.1336782,45.855 9.66931034,45.855 C9.04172414,45.855 8.53965517,45.645 8.17356322,45.2565 L8.17356322,45.2565 L8.17356322,45.75 L6.79287356,45.75 L6.79287356,38.4 L8.2154023,38.4 Z M9.52287356,41.8965 C8.76977011,41.8965 8.17356322,42.474 8.17356322,43.209 C8.17356322,43.944 8.76977011,44.5215 9.52287356,44.5215 C10.275977,44.5215 10.8721839,43.944 10.8721839,43.209 C10.8721839,42.474 10.275977,41.8965 9.52287356,41.8965 Z M15.6627586,41.8125 C15.0142529,41.8125 14.554023,42.2535 14.4494253,42.915 C15.1397701,42.7155 15.9451724,42.5895 16.7296552,42.558 C16.5936782,42.096 16.1962069,41.8125 15.6627586,41.8125 Z M1.52114943,38.106 C1.99183908,38.106 2.39977011,38.5155 2.39977011,38.988 C2.39977011,39.471 1.99183908,39.87 1.52114943,39.87 C1.04,39.87 0.642528736,39.471 0.642528736,38.988 C0.642528736,38.5155 1.04,38.106 1.52114943,38.106 Z M3.92689655,38.106 C4.39758621,38.106 4.80551724,38.5155 4.80551724,38.988 C4.80551724,39.471 4.39758621,39.87 3.92689655,39.87 C3.44574713,39.87 3.04827586,39.471 3.04827586,38.988 C3.04827586,38.5155 3.44574713,38.106 3.92689655,38.106 Z M48.9614368,31.5225 L48.9614368,32.8665 L45.310977,32.8665 L45.310977,31.5225 L48.9614368,31.5225 Z M20.693908,41.2455 L20.693908,40.668 L19.3132184,40.668 L19.3132184,45.75 L20.7357471,45.75 L20.7357471,43.4295 C20.7357471,42.5895 21.2273563,42.117 22.0850575,42.117 L22.0850575,40.584 C21.4365517,40.563 20.9763218,40.7835 20.693908,41.2455 Z M34.5531034,40.5315 C36.0070115,40.5315 37.0111494,41.592 37.0216092,43.167 C37.0216092,43.2825 37.0216092,43.3665 37.0006897,43.524 C35.6409195,43.5345 34.343908,43.692 33.4443678,43.944 C33.6744828,44.3535 34.0928736,44.6055 34.6472414,44.6055 C35.1493103,44.6055 35.6409195,44.3955 35.9965517,44.0385 L35.9965517,44.0385 L36.7391954,45.015 C36.2266667,45.5715 35.4631034,45.8865 34.6472414,45.8865 C33.0782759,45.8865 31.9067816,44.7315 31.9067816,43.1985 C31.9067816,41.6865 33.0468966,40.5315 34.5531034,40.5315 Z M24.3025287,40.668 L25.338046,44.2485 C25.8296552,43.293 26.3108046,41.76 26.4572414,40.668 L26.4572414,40.668 L27.7647126,40.668 C27.9111494,41.7915 28.3922989,43.2825 28.8943678,44.2275 L28.8943678,44.2275 L29.9194253,40.668 L31.4256322,40.668 L29.8671264,45.75 L28.2458621,45.75 C27.8274713,44.994 27.3777011,43.986 27.0848276,43.125 C26.8024138,43.9755 26.3735632,44.9835 25.9447126,45.75 L25.9447126,45.75 L24.3548276,45.75 L22.7963218,40.668 L24.3025287,40.668 Z M34.5112644,41.8125 C33.8627586,41.8125 33.4025287,42.2535 33.297931,42.915 C33.9882759,42.7155 34.7936782,42.5895 35.5781609,42.558 C35.4421839,42.096 35.0447126,41.8125 34.5112644,41.8125 Z M38.893908,39.891 C39.3750575,39.891 39.7829885,39.4815 39.7829885,38.988 C39.7829885,38.505 39.3750575,38.0955 38.893908,38.0955 C38.4022989,38.0955 37.9943678,38.505 37.9943678,38.988 C37.9943678,39.4815 38.4022989,39.891 38.893908,39.891 Z M38.1826437,45.75 L39.6051724,45.75 L39.6051724,40.668 L38.1826437,40.668 L38.1826437,45.75 Z M42.6698851,45.8865 C43.8204598,45.8865 44.6781609,45.2355 44.6781609,44.1855 C44.6781609,43.2855 44.0235358,42.8235953 43.2293117,42.6365204 L42.821121,42.5501633 C42.4904146,42.4738928 42.2514943,42.37725 42.2514943,42.138 C42.2514943,41.9385 42.4293103,41.7285 42.8058621,41.7285 C43.0987356,41.7285 43.307931,41.844 43.4648276,42.054 L44.5212644,41.4765 C44.2388506,40.899 43.6008046,40.5315 42.7744828,40.5315 C41.6029885,40.5315 40.8812644,41.256 40.8812644,42.1695 C40.8812644,43.314 42.0109195,43.5975 42.5443678,43.7235 L42.7436509,43.771388 C43.092175,43.8598136 43.3393103,43.9609616 43.3393103,44.2275 C43.3393103,44.511 43.0882759,44.7105 42.6803448,44.7105 C42.261954,44.7105 41.8644828,44.5215 41.5925287,44.196 L40.7662069,45.099 C41.3205747,45.6975 42.0527586,45.8865 42.6698851,45.8865 Z M49.3850575,40.668 L49.3850575,43.3875 C49.3850575,44.1015 48.9562069,44.5635 48.2867816,44.5635 C47.6173563,44.5635 47.1885057,44.1015 47.1885057,43.3875 L47.1885057,40.668 L45.765977,40.668 L45.765977,43.65 C45.765977,44.9835 46.675977,45.8655 47.952069,45.8655 C48.5901149,45.8655 49.0817241,45.645 49.4268966,45.246 L49.4268966,45.75 L50.8075862,45.75 L50.8075862,40.668 L49.3850575,40.668 Z M64.3006897,40.185 C64.3006897,41.046 64.0182759,41.655 63.558046,42.201 C63.7358621,42.642 63.83,43.1775 63.83,43.8075 C63.83,45.5505 63.0768966,47.6715 60.5142529,47.6715 C60.1167816,47.6715 59.7611494,47.619 59.5728736,47.5665 L59.5728736,47.5665 L59.5728736,46.2435 C59.8029885,46.3065 60.1272414,46.3485 60.461954,46.3485 C61.3091954,46.3485 62.0413793,46.086 62.3028736,45.162 C61.9995402,45.4455 61.5393103,45.582 61.0372414,45.582 C59.5833333,45.582 58.5164368,44.5005 58.5164368,43.1145 C58.5164368,41.697 59.646092,40.563 61.1627586,40.563 C61.738046,40.563 62.2610345,40.7205 62.7003448,41.046 C62.8258621,40.836 62.9095402,40.563 62.9095402,40.185 L62.9095402,40.185 Z M55.273908,40.5525 C56.6650575,40.5525 57.4809195,41.55 57.4809195,42.8205 L57.4809195,42.8205 L57.4809195,45.75 L56.0583908,45.75 L56.0583908,43.083 C56.0583908,42.2955 55.5667816,41.8545 54.9078161,41.8545 C54.2488506,41.8545 53.7572414,42.2955 53.7572414,43.083 L53.7572414,43.083 L53.7572414,45.75 L52.3347126,45.75 L52.3347126,40.668 L53.7154023,40.668 L53.7154023,41.214 C54.0710345,40.8045 54.5835632,40.5525 55.273908,40.5525 Z M61.1313793,41.8755 C60.4096552,41.8755 59.9075862,42.4215 59.9075862,43.0935 C59.9075862,43.7655 60.4096552,44.3115 61.1313793,44.3115 C61.8531034,44.3115 62.3551724,43.7655 62.3551724,43.0935 C62.3551724,42.4215 61.8531034,41.8755 61.1313793,41.8755 Z" id="Sofort-überweisung" fill="#000000"></path>
                </g>
            </g>
        </g>
    </g>
</svg>