<?xml version="1.0" encoding="UTF-8"?>
<svg width="140px" height="80px" viewBox="0 0 140 80" version="1.1" xmlns="http://www.w3.org/2000/svg" xmlns:xlink="http://www.w3.org/1999/xlink">
    <!-- Generator: Sketch 52.5 (67469) - http://www.bohemiancoding.com/sketch -->
    <title>im/logo-pay/creditpass</title>
    <desc>Created with Sketch.</desc>
    <g id="im/logo-pay/creditpass" stroke="none" stroke-width="1" fill="none" fill-rule="evenodd">
        <g id="Group" transform="translate(13.000000, 30.000000)">
            <rect id="Rectangle" fill="#C9DD02" fill-rule="nonzero" transform="translate(11.778175, 14.071068) rotate(-315.000000) translate(-11.778175, -14.071068) " x="6.27817459" y="8.57106781" width="11" height="11"></rect>
            <path d="M73.4509675,2.25491553 L73.4509675,6.86876019 C74.6446943,6.86876019 75.8160725,6.8705466 76.9874507,6.86585728 C77.1210903,6.86541068 77.2563101,6.83526505 77.3874665,6.80489612 C78.6087339,6.52264369 79.3518784,5.24737184 79.0548012,3.9488767 C78.8258982,2.94759515 77.9854586,2.28975049 76.8660012,2.26429417 C76.0454269,2.24576019 75.2241754,2.25670194 74.4033754,2.25491553 C74.0895933,2.25446893 73.7760368,2.25491553 73.4509675,2.25491553 Z M73.4297477,8.90794466 L73.4297477,14.4621097 L71.2666824,14.4621097 C71.2603616,14.3598379 71.2481715,14.2568961 71.2481715,14.1537311 C71.2470428,9.62608058 71.2472685,5.0984301 71.2474943,0.570779612 C71.2474943,0.223993204 71.2488487,0.223323301 71.6025873,0.223546602 C73.290916,0.224439806 74.9794705,0.219750485 76.6673477,0.23002233 C77.5714467,0.235381553 78.4403299,0.384546602 79.228623,0.871566019 C81.1740725,2.07381845 81.8564923,4.49641068 80.816722,6.52197379 C80.0065319,8.09981845 78.7053517,8.88762427 76.9253715,8.90459515 C75.869122,8.91464369 74.8126467,8.90749806 73.756623,8.90794466 L73.4297477,8.90794466 Z M51.9822844,9.41506117 C52.0926725,10.1059544 52.1850012,10.8026534 52.320221,11.4913136 C52.4267715,12.0334883 52.7969893,12.3849641 53.3349339,12.4821 C53.7541378,12.5580223 54.1979477,12.5792359 54.6214408,12.5354689 C55.2415556,12.4713816 55.6914606,12.1402262 55.862122,11.5085078 C56.2406923,10.1081874 56.2447556,8.7092068 55.8591873,7.30910971 C55.7153893,6.78658544 55.3790329,6.42885728 54.849215,6.34489612 C54.395021,6.2729932 53.915318,6.25825534 53.4595438,6.31586699 C52.8299477,6.39536214 52.4132269,6.78033301 52.2994527,7.41897379 C52.1822923,8.07503204 52.0892863,8.73510971 51.9822844,9.41506117 Z M56.1522012,5.41909029 L56.1522012,0.248779612 L58.1911081,0.248779612 L58.1911081,14.4618864 L56.1555873,14.4618864 L56.1555873,13.4364883 C56.0253339,13.5528282 55.9470012,13.6182553 55.8738606,13.6885951 C54.5324982,14.9754786 51.92472,15.000935 50.6504032,13.2035854 C50.2393259,12.6241194 50.0618923,11.971634 50.05512,11.288333 C50.0408982,9.9065466 50.0194527,8.52074078 50.1054606,7.14297379 C50.2178804,5.34205146 51.9820586,4.00157573 53.8038012,4.21996408 C54.6103794,4.3166534 55.2686448,4.68889612 55.8749893,5.18663398 C55.9481299,5.24670194 56.0201418,5.30833301 56.1522012,5.41909029 Z M6.38889861,17.8771631 C6.81735802,17.4714252 7.23836792,17.072833 7.63454614,16.6976874 C9.06552832,18.0660757 10.4843204,19.4228524 11.9782848,20.8513087 C12.0121461,20.7957068 12.0561659,20.6786971 12.1372075,20.5974155 C14.006356,18.7214641 15.8797937,16.849532 17.7521026,14.9769301 C18.2132947,14.515367 18.2207442,14.1187845 17.7570689,13.657668 C15.9881501,11.8969398 14.2162966,10.1391146 12.4424115,8.38352233 C12.0311085,7.97644466 11.7213897,7.98091068 11.3051204,8.38798835 C10.6827481,8.9969301 10.0639877,9.61011456 9.44319564,10.2206194 C9.37366693,10.2893961 9.30052634,10.3546 9.23122337,10.419134 C8.78628475,10.0116097 8.35240752,9.61458058 7.90340554,9.2034835 C8.49507683,8.61776505 9.03460158,8.08318252 9.57480356,7.5490466 C9.96443525,7.16407573 10.3509065,6.77597864 10.7457303,6.39659029 C11.4525303,5.71775534 12.3295402,5.72423107 13.0248273,6.41311456 C15.2951204,8.66264854 17.5645105,10.9130757 19.8320947,13.1652893 C20.5411521,13.8698039 20.544764,14.7406777 19.8460907,15.4400563 C17.5875362,17.7009786 15.3271758,19.9603379 13.0688471,22.2214835 C12.6275204,22.6636194 12.1146333,22.9096971 11.4845857,22.7225709 C11.2513937,22.6535709 11.0091719,22.523833 10.838059,22.3550175 C9.3745699,20.9113767 7.92643129,19.4525515 6.47377782,17.9977456 C6.45549267,17.9792117 6.44330257,17.9548718 6.38889861,17.8771631 Z M88.6015224,10.2044524 C87.5217956,10.2044524 86.5213046,10.1734136 85.5239739,10.2171806 C84.9993481,10.2401806 84.5106154,10.4431612 84.3239263,11.0152583 C84.0932174,11.7215592 84.5185164,12.4182583 85.323063,12.599132 C86.1264808,12.7795592 86.9350907,12.7302097 87.7335422,12.5368311 C88.1319778,12.440365 88.3942907,12.1849087 88.451855,11.7892194 C88.5270273,11.2729476 88.5525362,10.7497534 88.6015224,10.2044524 Z M90.5767699,14.4746369 L88.5631461,14.4746369 L88.5631461,13.6312291 C88.5128055,13.6312291 88.4866194,13.6240835 88.4809758,13.6321223 C88.0601917,14.2093553 87.4594907,14.4590058 86.772556,14.5449767 C85.9212808,14.6517146 85.0785838,14.6334039 84.265459,14.3227922 C82.8823343,13.7946854 82.1543145,12.4883748 82.3836689,10.9587631 C82.5816451,9.63972427 83.6857521,8.62973398 85.1034154,8.54733592 C86.1115818,8.48883107 87.124263,8.51227767 88.1349125,8.49954951 C88.2608768,8.49776311 88.3868412,8.49932621 88.5927184,8.49932621 C88.5532135,7.98037476 88.5681125,7.46946214 88.4620135,6.98467573 C88.3653956,6.54410291 87.9507065,6.3565301 87.5357917,6.25068544 C86.8980689,6.08789903 86.2513164,6.07383107 85.6043382,6.20446214 C85.1483382,6.29623883 84.7553204,6.4963165 84.4726907,6.89155922 C83.9295541,6.48515146 83.4056055,6.09325825 82.8694669,5.69198641 C83.3387857,5.03793786 83.9609323,4.62773398 84.7103976,4.42676311 C86.0639501,4.06389903 87.4077956,4.14138447 88.728164,4.60317087 C89.972457,5.03838447 90.5709006,5.96151068 90.5891857,7.21914175 C90.6237244,9.61225825 90.6011501,12.0060447 90.6016016,14.3996078 C90.6016016,14.4156854 90.5912174,14.4322097 90.5767699,14.4746369 Z M45.7682008,8.48903204 C45.7275671,7.57260485 45.4569018,6.79775049 44.6110444,6.36923592 C43.8085295,5.96260485 42.9978879,6.01753689 42.2662562,6.55770194 C41.6228899,7.03288641 41.4364265,7.7206534 41.4179156,8.48903204 L45.7682008,8.48903204 Z M47.8556424,10.1841097 L41.4486166,10.1841097 C41.2479315,11.3923913 42.189278,12.5473039 43.450276,12.6716825 C44.5062998,12.7757408 45.1135473,12.5676243 46.1451909,11.7347117 C46.6246681,12.1377699 47.1097889,12.5457408 47.6159038,12.9711291 C47.1892503,13.4869544 46.6930681,13.8960417 46.088078,14.1481485 C44.1679117,14.9473427 42.3660345,14.6994786 40.7000543,13.4831583 C40.1399869,13.0742942 39.8300424,12.4791971 39.6591552,11.8300612 C39.2343077,10.2180515 39.2417572,8.60313883 39.6824067,6.98978932 C40.2045493,5.0772165 42.4958364,4.0183233 44.0507513,4.23135243 C45.9779156,4.49551748 47.4039315,5.6968767 47.7141018,7.50204175 C47.8619632,8.3639835 47.8132028,9.25942039 47.8556424,10.1841097 Z M110.408819,5.6062835 C109.98939,6.09397282 109.580796,6.56871068 109.174685,7.04076893 C108.799501,6.84560388 108.449374,6.6435165 108.082994,6.47671068 C107.261065,6.10312816 106.40234,6.0216233 105.521041,6.22616699 C105.068427,6.33111845 104.777897,6.61761359 104.660059,7.06131262 C104.519873,7.58919612 104.790087,8.07777864 105.35354,8.20773981 C105.806606,8.31224466 106.280213,8.33100194 106.745469,8.37990485 C107.301021,8.43863301 107.864475,8.45113786 108.412126,8.5502835 C109.698633,8.78340971 110.552843,9.76169126 110.653299,11.0566136 C110.772039,12.5873417 110.203619,13.5892932 108.750063,14.1517883 C106.57097,14.9951961 104.505877,14.6912835 102.592257,13.367332 C102.415275,13.2447398 102.252289,13.1020505 102.084562,12.9667301 C102.029255,12.9220699 101.97914,12.8707107 101.947762,12.8419049 C102.41076,12.3680602 102.869695,11.8991282 103.337659,11.4203709 C103.479425,11.5364874 103.613516,11.6543903 103.75596,11.7613515 C104.835687,12.5743903 106.047699,12.8582058 107.376871,12.6096718 C107.636023,12.5612155 107.89337,12.4448757 108.121821,12.3100019 C108.541025,12.0625845 108.67015,11.6593029 108.599718,11.1999728 C108.534705,10.7730214 108.22634,10.5363223 107.831742,10.472235 C107.18341,10.3668369 106.526724,10.308332 105.871845,10.2482641 C105.212677,10.1879728 104.564118,10.1053515 103.973124,9.77687573 C103.141263,9.31419612 102.651402,8.63022524 102.588645,7.6782932 C102.469453,5.8612932 103.352332,4.70124466 105.217192,4.33570097 C107.026518,3.98087573 108.714621,4.30555534 110.213101,5.41938058 C110.256217,5.45153592 110.299109,5.48458447 110.339516,5.51986602 C110.35893,5.53683689 110.372475,5.56006019 110.408819,5.6062835 Z M100.664867,5.59636893 C100.239794,6.09053398 99.8318768,6.56504854 99.416962,7.04760194 C99.1221422,6.88660194 98.8428986,6.72716505 98.5571085,6.57956311 C97.7462412,6.16065049 96.8859362,6.03515534 95.9849976,6.17561165 C95.5757263,6.23947573 95.2262768,6.40315534 95.016562,6.78209709 C94.6833659,7.3834466 94.9269422,8.04084466 95.5962689,8.20564078 C96.0554293,8.31840777 96.5403244,8.33091262 97.0148352,8.38093204 C97.561358,8.43876699 98.115556,8.45171845 98.6546293,8.54930097 C99.9535521,8.78443689 100.809794,9.76941748 100.902348,11.0777379 C101.010027,12.5999806 100.445671,13.5903204 99.0036273,14.1496893 C96.8249857,14.9946602 94.7594412,14.6938738 92.8451442,13.3699223 C92.6385897,13.2270097 92.4500947,13.0586408 92.2548273,12.9000971 C92.2209659,12.8726311 92.1947798,12.8357864 92.1943283,12.8351165 C92.6571006,12.3612718 93.1133263,11.8945728 93.5797105,11.4171553 C93.7158333,11.5283592 93.8438293,11.6391165 93.9781461,11.7416117 C95.0605818,12.5682718 96.2795917,12.8607961 97.6193739,12.6095825 C97.8945541,12.558 98.1692828,12.4300485 98.4087956,12.2813301 C98.8128749,12.0303398 98.9194253,11.6234854 98.8447046,11.1788932 C98.7774333,10.7785146 98.4832907,10.5540971 98.1110412,10.4786214 C97.6624907,10.3879612 97.2010729,10.3575922 96.7455244,10.3010971 C96.164463,10.2291942 95.5718887,10.2066408 95.0052749,10.0753398 C93.7715917,9.78973786 92.9476313,8.88670874 92.8415323,7.79074757 C92.6710966,6.03292233 93.4435877,4.85634951 95.1736788,4.41443689 C97.1186768,3.91759223 98.929358,4.25812621 100.542514,5.48136893 C100.577279,5.50794175 100.606851,5.54143689 100.664867,5.59636893 Z M28.9485956,11.5172165 C29.4650947,11.9740903 29.954956,12.4070709 30.4646828,12.8579155 C29.6987382,13.692168 28.814956,14.3145078 27.6887263,14.5190515 C26.4938709,14.7361 25.3599659,14.5460709 24.2994273,13.9382456 C23.2120253,13.3152359 22.5415699,12.4026049 22.2937046,11.1865078 C22.0386154,9.93646893 22.0492253,8.69156602 22.3402075,7.4455466 C22.8201362,5.39073107 24.7071184,4.45108058 26.081665,4.25792524 C27.7399699,4.02502233 29.1084214,4.59711942 30.2637719,5.74868252 C30.3260768,5.81053689 30.3804808,5.8802068 30.4585877,5.96930388 C29.9574392,6.4107699 29.4684808,6.84196408 28.9562709,7.29347864 C28.8564927,7.19031359 28.7670986,7.09451748 28.6745442,7.00184757 C27.7456135,6.07202233 26.4162154,6.07849806 25.4689996,6.54207087 C24.9303778,6.80578932 24.5883778,7.25306117 24.4107184,7.80774078 C24.0696214,8.87444951 24.0614947,9.95477961 24.4104927,11.019032 C24.7177283,11.9546631 25.4834471,12.4845563 26.4758115,12.5687408 C27.4853323,12.6544883 28.2966511,12.316634 28.9485956,11.5172165 Z M-2.25742572e-05,13.3841019 C0.0406110891,13.3782961 0.0746982178,13.370034 0.108785347,13.3689175 C0.190052673,13.3664612 0.27132,13.3675777 0.352587327,13.3673544 C4.07079327,13.3602087 7.78899921,13.3501602 11.5072051,13.3515 C11.7810309,13.3517233 11.8713279,13.2791505 11.8600408,13.0071699 C11.8401754,12.534665 11.8530428,12.0608204 11.8555259,11.5876456 C11.8559774,11.4844806 11.869522,11.3815388 11.8812606,11.2189757 C13.3368487,12.2595583 14.7452566,13.2664223 16.2017477,14.3078981 C14.7588012,15.3399951 13.3472329,16.3497621 11.8862269,17.395034 C11.8726824,17.2396165 11.8571061,17.1389078 11.8564289,17.038199 C11.85372,16.5650243 11.8431101,16.0914029 11.8595893,15.6188981 C11.8683933,15.3629951 11.7828368,15.281267 11.5209754,15.2821602 C9.37280911,15.2910922 7.22464277,15.2926553 5.07647644,15.2852864 C3.45293584,15.2797039 1.82939525,15.2584903 0.205854653,15.2433058 C0.143549703,15.2428592 0.0812447525,15.235267 -2.25742572e-05,15.2296845 L-2.25742572e-05,13.3841019 Z M65.547562,5.87417767 C65.2407778,5.87417767 64.9800451,5.86948835 64.7199897,5.87596408 C64.5691937,5.87976019 64.512758,5.82371165 64.5159184,5.67209029 C64.5235937,5.28845922 64.5233679,4.90415825 64.5159184,4.52052718 C64.5129838,4.36734272 64.5730313,4.3159835 64.7229244,4.32044951 C64.9832055,4.32848835 65.2437125,4.32268252 65.5365006,4.32268252 L65.5365006,1.26859515 L67.5991105,1.26859515 L67.5991105,4.32111942 L69.0901402,4.32111942 L69.0901402,5.87105146 L67.6259739,5.87105146 C67.6198788,6.00704175 67.6117521,6.10283786 67.6117521,6.19885728 C67.6110749,8.0203233 67.6108491,9.84178932 67.6119778,11.6632553 C67.6119778,11.7791485 67.6158154,11.8957117 67.6311659,12.0104883 C67.6763145,12.3454398 67.8776768,12.5459641 68.2185481,12.5662845 C68.5041125,12.583032 68.7914828,12.5698573 69.094655,12.5698573 L69.094655,14.4833233 C68.3806313,14.4634495 67.6654788,14.5797893 66.9835105,14.2970903 C65.926358,13.8589738 65.5486907,13.008867 65.5480135,11.9392553 C65.5464333,10.037401 65.547562,8.1355466 65.547562,6.23369223 L65.547562,5.87417767 Z M31.9612883,14.4641864 L31.9612883,4.3432932 L33.9974863,4.3432932 L33.9974863,5.36065243 C34.0175774,5.37427379 34.0376685,5.38789515 34.0579853,5.4015165 C34.8386032,4.4801767 35.8501556,4.13115728 37.0181477,4.22583689 C37.7506824,4.28545825 38.4364883,4.60031262 38.8613358,5.00649709 C38.3764408,5.57747767 37.8908685,6.14935146 37.4034903,6.72301165 C37.2125121,6.6200699 37.0425279,6.52181748 36.8669002,6.4349534 C35.7734032,5.89389515 34.1047141,6.52516699 34.0313477,8.01882718 C34.0227695,8.19679806 34.0058388,8.37499223 34.0056131,8.55318641 C34.0035814,10.4103806 34.0042586,12.2675748 34.0042586,14.1245456 L34.0042586,14.4641864 L31.9612883,14.4641864 Z M60.6317465,14.4728058 L60.6317465,4.3467767 L62.6431129,4.3467767 L62.6431129,14.4728058 L60.6317465,14.4728058 Z M60.6376158,2.24261165 L60.6376158,0.24161165 L62.6476277,0.24161165 L62.6476277,2.24261165 L60.6376158,2.24261165 Z M112.431473,2.64995728 C113.042107,2.65286019 113.536483,2.16874369 113.534903,1.56895728 C113.533548,0.974976699 113.0552,0.497112621 112.456305,0.491306796 C111.832126,0.48527767 111.349037,0.948180583 111.343619,1.55756893 C111.337976,2.16919029 111.814067,2.64705437 112.431473,2.64995728 Z M111.093045,1.55712233 C111.096657,0.819335922 111.687877,0.238753398 112.435762,0.238530097 C113.183873,0.238306796 113.795861,0.84635534 113.788411,1.58302524 C113.780962,2.3100932 113.174166,2.90251068 112.436439,2.90273398 C111.67975,2.90318058 111.089659,2.31210291 111.093045,1.55712233 Z M112.117555,1.51404757 C112.319595,1.46090194 112.484161,1.42539709 112.640149,1.36778544 C112.662272,1.3595233 112.661143,1.19160097 112.640375,1.18445534 C112.47784,1.1293 112.30763,1.09535825 112.117555,1.04913495 L112.117555,1.51404757 Z M113.047615,2.28398932 C112.787559,2.36795049 112.675591,2.27170777 112.592969,2.07631942 C112.513959,1.8889699 112.414632,1.69402816 112.114169,1.73645534 L112.114169,2.29850388 L111.86066,2.29850388 L111.86066,0.831416505 C112.106494,0.831416505 112.347813,0.819804854 112.5871,0.83498932 C112.78485,0.847940777 112.926617,0.95914466 112.963864,1.16100874 C113.00969,1.41021262 112.872664,1.56094078 112.667238,1.65450388 C112.793654,1.86373689 112.91691,2.06761068 113.047615,2.28398932 Z" id="Combined-Shape" fill="#003466"></path>
        </g>
    </g>
</svg>