<?xml version="1.0" encoding="UTF-8"?><svg id="Layer_1" xmlns="http://www.w3.org/2000/svg" viewBox="0 0 500 500"><defs><style>.cls-1{fill:#12326e;}.cls-1,.cls-2,.cls-3{stroke-width:0px;}.cls-2{fill:none;}.cls-3{fill:#dbac00;}</style></defs><path class="cls-1" d="M155.9162095011,275.054324951c0-14.7921322137-8.5214748871-23.8678288137-22.7412895851-23.8678288137-11.7925350151-.0000043147-22.6508019419,9.5371697731-22.6508019419,24.2410752403,0,15.5386336963,11.131990753,24.6143389257,23.7682975839,24.6143389257,11.3242705226,0,18.6264576413-6.6461646499,20.9655019483-14.6021047113l-10.3900024343-3.0900848417c-1.446050527,4.4850235711-5.7853411859,7.3878681991-10.4827509742,7.0126283865-6.0666070872.2270993043-11.210949549-4.417748951-11.6025161421-10.4759682842h32.9435340431c0-.190018873.190018873-2.0585464202.1900275024-3.8320559016ZM123.0631631011,270.3694363882c.4697142278-5.2887033031,5.0029242378-9.2807478471,10.3085670072-9.0779661261,7.109907349,0,10.1049741248,4.4903478965,10.2904712045,9.0779661261h-20.5990382117ZM208.9136208884,230.8770080284h-12.2585299816v26.2973693933c-1.3120449376-2.4295362649-5.0558827221-5.7028529749-13.0140836802-5.7028529749-13.0073009902,0-22.0852671163,10.575499514-22.0852671163,24.0442736773,0,13.9483517685,9.3629944356,24.2410838697,22.4630439656,24.2410838697,5.1510302286.3104073061,10.0761606363-2.1517264289,12.919056985-6.4584066735.003986772,1.7889733242.1614038602,3.5743136809.4705253892,5.3363892383h11.8807531322c-.2445220157-2.770452732-.3683017938-5.5502338201-.3709941593-8.3314560141l-.0045045346-59.426400516ZM185.5162915758,288.6248912408c-6.5602074294,0-11.4170104331-4.8703856425-11.4170104331-13.1090931167s5.0491000321-12.9145524504,11.4170104331-12.9145524504,11.3242618933,4.5876182296,11.3242618933,12.8240648072c0,8.3291951174-4.9631341823,13.1995807599-11.3242618933,13.1995807599ZM49.2563293002,288.6248912408c-6.3701745337,0-11.7993090758-4.6848885628-11.7993090758-13.0163445769s5.3363870809-12.9145524504,11.7043082686-12.9145524504c4.8265570386-.1999685442,9.1112021701,3.0657931465,10.1977226647,7.7727125078l11.138773443-3.7438377845c-1.9680630918-7.7727125078-9.0779661261-15.5363727996-21.6215265745-15.5363727996-13.019617268-.1658393597-23.7085442576,10.2542019346-23.8743856388,23.2738170452-.0048759675.3827991465-.0004275112.7656586987.0133416725,1.1482334814-.3356353223,13.1550704353,10.0565708727,24.0914504792,23.2116402294,24.4270814532.343078126.0087588173.686307266.0100963706,1.0294436403.0040212895,9.9102457695.4435240698,18.8229787496-5.9904355798,21.5219931873-15.5363727996l-10.946491516-3.6465674513c-1.2888901628,4.7342313383-5.6724797265,7.9541796686-10.5755103007,7.7681820851ZM90.6172938366,259.4206731888v-6.8407053162h-12.0798242213v46.0571575826h12.4417661645v-21.0582504881c0-9.9194856746,5.5196211066-13.0073009902,11.8875444516-13.0073009902,1.2571621024-.0009060845,2.5112952936.1233741974,3.7438377845.3709941593v-12.5367756011c-.9635130456-.1140889882-1.9322123466-.1790207325-2.9023268654-.194544981-3.9248130708,0-10.2927321012,1.1265435433-13.090997314,7.2094256348ZM411.0606339914,270.7472046082l-6.5601901707-1.4070543741c-2.5245413867-.4705253892-4.2075804836-1.8685275472-4.2075804836-4.1125710471,0-2.6263421426,2.6172899265-4.5876182296,5.8815759939-4.5876182296.3889777802.0100618531.7771271402.0410240564,1.1627567222.0927485398l2.895535546-9.2272672855c-1.3741764492-.2129600707-2.7627121812-.3195975922-4.153284446-.318963333-9.9194684158,0-17.2148814738,6.8316617295-17.2148814738,15.0658474104,0,6.4538848802,4.022083404,11.7970568085,12.9145524504,13.7560719989l6.0828820915,1.4070543741c3.5538189115.746510112,4.9586123889,2.4318014762,4.9586123889,4.4903478965,0,2.4340623729-1.9635283544,4.5876182296-6.0851602469,4.5876182296-4.2051642582.4366119391-7.9680902237-2.6184203748-8.4047021628-6.8236018918-.0065238087-.0629340436-.0122882323-.1259457516-.0172587532-.1890264947l-10.6682566832,2.3390529364c.5632566702,5.2436406985,5.3341283416,14.226597388,19.1829316215,14.226597388,12.0752937986,0,17.8708866839-7.6777030713,17.8708866839-15.1563350536.0362088643-6.7479654058-4.5604874696-12.2766257843-13.6384535956-14.1428924349l.0000345175-.0000086294ZM368.7088616912,270.7472046082l-6.5466247906-1.4070543741c-2.5313413354-.4705253892-4.2143804324-1.8685275472-4.2143804324-4.1125710471,0-2.6263421426,2.6240898753-4.5876182296,5.8973850118-4.5876182296,3.7819105941-.3328091678,7.1419137069,2.4045153874,7.5804241088,6.1756392607l10.3900110637-2.3367920397c-.5632566702-4.9767081917-4.9631341823-13.2923292997-18.0631837123-13.2923292997-9.9194684158,0-17.2216814226,6.8316617295-17.2216814226,15.0658474104,0,6.4538848802,4.022083404,11.7970568085,12.9145524504,13.7560719989l6.0828820915,1.4070543741c3.5583407048.746510112,4.9631341823,2.4318014762,4.9631341823,4.4903478965,0,2.4340623729-1.9680501477,4.5876182296-6.0828820915,4.5876182296-4.2051642582.4366119391-7.9680902237-2.6184203748-8.4047021628-6.8236018918-.0065238087-.0629340436-.0122882323-.1259457516-.0172587532-.1890264947l-10.6705003211,2.3390529364c.5587348769,5.2436406985,5.3341283416,14.226597388,19.185209777,14.226597388,12.0730501607,0,17.8708866839-7.6777030713,17.8708866839-15.1563350536.0067999488-6.7479654058-4.5853400742-12.2766257843-13.6633062003-14.1428924349l.0000345175-.0000086294ZM220.3125268894,252.5890114593h12.4440270612v46.0481139959h-12.4440270612v-46.0481139959ZM337.9166226081,291.3349297072v-22.6485324159c0-9.2747676891-5.4291205193-17.4999097833-20.0335120154-17.4999097833-12.3512785214,0-19.001973594,7.9582095875-19.7462228093,15.1563350536l11.0460335325,2.3413138331c.3615881388-4.4951803474,4.2975676229-7.8468906292,8.7929378166-7.4876841983,5.2413798018,0,7.7727211372,2.7145688891,7.7727211372,5.990142181,0,1.5834992377-.8460240831,2.9000659687-3.465592165,3.277842818l-11.3242618933,1.6852913643c-7.6731726486,1.1174956419-13.7560719989,5.7051138715-13.7560719989,13.9392995525,0,7.2094385788,5.9901508104,13.853342332,15.8168706864,13.853342332,5.4121724237.2717822164,10.568121397-2.3242362967,13.5728358159-6.8339226262-.0088019641,1.8523043192.14714813,3.7017264266.4659863371,5.5264081113h11.4170104331c-.3572216742-2.4171919416-.5439268666-4.8565268636-.5587348769-7.299926222ZM325.7485802697,280.0083982878c0,8.1436980378-4.8703856424,10.6705089505-10.1117654442,10.6705089505-2.9656923778.3248874001-5.6332397937-1.8159056086-5.9581358232-4.7815979865-.0201754825-.1842544494-.0308586508-.3694322422-.0320149872-.5547912518.0045045346-3.1668086292,2.5455107718-5.7460516342,5.7119051909-5.7978624114l10.3900110637-1.5834992377v2.0472419369ZM226.4881747795,229.7549819638c-4.2384046169.0727672183-7.6153213078,3.5676647463-7.5425411455,7.8060693631.0710025108,4.1358617346,3.4066707815,7.4715386347,7.5425411455,7.5425454601,4.2384046169-.0727672183,7.6153213078-3.5676647462,7.5425411454-7.8060693631-.0710025108-4.1358617346-3.4066707815-7.4715386347-7.5425411454-7.5425454601ZM270.1836618295,251.5642643573c-6.92440164,0-12.0730329019,3.0878196303-14.1338488482,6.6393819598v-5.6236784444h-12.0730329019v63.8353129854h12.4417661646v-22.2707641959c3.3033944022,3.8506522082,8.2219492249,5.928459397,13.2855466097,5.6123653317,13.0095618869,0,21.7165338536-10.2927321012,21.7165338536-24.2410838697.0090435867-13.6610625624-7.7591384984-23.9515337668-21.2369648778-23.9515337668ZM267.7428081372,288.6248912408c-6.3679276598,0-11.5097589729-4.8703856425-11.5097589729-13.0163532063s5.1418485719-12.9145524504,11.5097589729-12.9145524504,11.4170104331,4.7776371026,11.4170104331,12.9145524504c.0090435867,8.2387074743-5.0468391354,13.0163532063-11.4170104331,13.0163532063Z"/><path class="cls-3" d="M474.9072514602,183.584719142l-43.3493627542.092747714-21.27541738,67.8031011775,64.717528674-22.9018995426-.0927485398-44.9939493489ZM440.2829478462,195.5333390852l22.7729593973-.0497666936.0565396756,24.7093483622-34.3845104967,12.1680466531,11.5550114239-36.8276283217Z"/><rect class="cls-2" width="500" height="500"/></svg>