<?xml version="1.0" encoding="UTF-8"?><svg id="Layer_1" xmlns="http://www.w3.org/2000/svg" viewBox="0 0 500 500"><defs><style>.cls-1,.cls-2{fill:none;}.cls-1,.cls-3,.cls-4{stroke-width:0px;}.cls-2{stroke:#f7c544;stroke-width:12.6168237184px;}.cls-3{fill:#fadc4a;}.cls-4{fill:#213d62;}</style></defs><path class="cls-3" d="M397.1962808927,172.1962608389h-.0000401078c42.9698133093,0,77.803759215,34.8339158249,77.803759215,77.8037391611v.0000200539c0,42.9698333632-34.8339459057,77.8037391611-77.803759215,77.8037391611h.0000401078c-42.9698133093,0-77.803759215-34.8339057979-77.803759215-77.8037391611v-.0000200539c0-42.9698233363,34.8339459057-77.8037391611,77.803759215-77.8037391611Z"/><path class="cls-4" d="M423.2116444087,282.5598135433h-50.8205543566l4.27132036-18.3138435417-8.3050421076,5.1145467651,2.0176630299-10.0214353913,8.6866678328-5.3710963133,8.5211028308-36.5272772039h15.8651219222l-5.8668487858,25.0811926723,20.6553169018-12.7666539287-2.4203052427,10.3841703423-20.6521483855,12.7151354585-4.0857816732,17.4711585918h34.9559939437l-2.8225062696,12.234102549Z"/><path class="cls-2" d="M397.1962808927,172.1962608389h-.0000401078c42.9698133093,0,77.803759215,34.8339158249,77.803759215,77.8037391611v.0000200539c0,42.9698333632-34.8339459057,77.8037391611-77.803759215,77.8037391611h.0000401078c-42.9698133093,0-77.803759215-34.8339057979-77.803759215-77.8037391611v-.0000200539c0-42.9698233363,34.8339459057-77.8037391611,77.803759215-77.8037391611Z"/><rect class="cls-3" x="24.9999990948" y="172.1962608874" width="155.6075001865" height="155.6074982791" rx="77.8037398764" ry="77.8037398764"/><path class="cls-4" d="M102.7953265499,269.5671120489l-23.4236575863-14.5929225329,23.4199776956,34.8208507087,23.4425884683-34.8208507087-23.44889542,14.5929225329h.0099868424ZM102.8063662221,210.2049597752l-23.4346972585,40.3465024326,23.4315487962,14.3716076878,23.4310173678-14.358472383-23.4278689054-40.3596377374Z"/><rect class="cls-2" x="24.9999990948" y="172.1962608874" width="155.6075001865" height="155.6074982791" rx="77.8037398764" ry="77.8037398764"/><path class="cls-3" d="M250.0000100269,151.1682221437h.0000200539c54.5832877478,0,98.8317778563,44.2484901084,98.8317778563,98.8317778563h0c0,54.5832877478-44.2484901084,98.8317778563-98.8317778563,98.8317778563h-.0000200539c-54.5832877478,0-98.8317778563-44.2484901084-98.8317778563-98.8317778563h0c0-54.5832877478,44.2484901084-98.8317778563,98.8317778563-98.8317778563Z"/><path class="cls-4" d="M276.1147205656,245.7008247724c6.1360122373-3.1531549799,9.9751710431-8.7066615715,9.0783606159-17.9579469708-1.2080870696-12.6431219021-12.0290915249-16.8823760753-25.6899689276-18.0899016356l-.002627061-17.5363337682h-10.5844686998l-.0031484624,17.0752945974c-2.7846445056,0-5.6234345424.055188334-8.4495906219.1125023814l-.0021056595-17.1856913192-10.5750032588-.0010528298-.0021056595,17.5326538775c-2.2920605494.0467857497-4.542589471.0919872413-6.7400156643.0919872413v-.0520398716l-14.5992395115-.0057755233.0015842581,11.3987773805s7.8166494166-.1482584859,7.6878432141-.0042113191c4.2855185214.0031484624,5.684939855,2.5133753945,6.0871007742,4.6803196592l.0036698638,19.9782170077v28.0624456177c-.1887272569,1.3599753114-.9830622529,3.5326950994-3.9795561626,3.5369064185.1366873853.1209049657-7.6994143147-.0015842581-7.6994143147-.0015842581l-2.0996433748,12.7466802439h13.7717754721c2.5664781229.0031484624,5.0877347003.0436372873,7.5611627252.0636109722l.009465441,17.7350478675,10.5723761978.0031484624-.0031685163-17.549469073c2.9087179876.0599210545,5.715963239.0856903165,8.4585346615.0820003988l-.0031484624,17.4674686741h10.5844686998l.0057755233-17.7056087417c17.7912990582-1.0308908054,30.2467365062-5.5519223335,31.7949377271-22.4064234871,1.2485157328-13.5688701075-5.0825006323-19.6259903006-15.1838508168-22.0710220025ZM240.9879275519,221.1642559279c6.0870807203,0,25.2310153624-1.9393124409,25.2336424234,10.7800142828-.002627061,12.1936337779-19.1407861797,10.7689846376-25.2336424234,10.7689846376v-21.5489989204ZM240.9879275519,278.8888468005l.0041912652-25.1505791678c6.970274549-.002627061,28.8315528069-2.2284495773,28.8341798679,12.5695040336.0031484624,14.191303069-21.8639053189,12.5752996108-28.8383711331,12.5810751342Z"/><path class="cls-2" d="M250.0000100269,151.1682221437h.0000200539c54.5832877478,0,98.8317778563,44.2484901084,98.8317778563,98.8317778563h0c0,54.5832877478-44.2484901084,98.8317778563-98.8317778563,98.8317778563h-.0000200539c-54.5832877478,0-98.8317778563-44.2484901084-98.8317778563-98.8317778563h0c0-54.5832877478,44.2484901084-98.8317778563,98.8317778563-98.8317778563Z"/><rect class="cls-1" width="500" height="500"/></svg>