<?xml version="1.0" encoding="UTF-8"?><svg id="Layer_1" xmlns="http://www.w3.org/2000/svg" viewBox="0 0 500 500"><defs><style>.cls-1{fill:none;}.cls-1,.cls-2,.cls-3,.cls-4{stroke-width:0px;}.cls-2{fill:#221e1f;}.cls-2,.cls-3,.cls-4{fill-rule:evenodd;}.cls-3{fill:#fefefe;}.cls-4{fill:#e21f28;}</style></defs><g id="Documentation"><g id="Artboard"><g id="Logos"><g id="Logos_Dankort"><g id="Group"><path id="WhiteBackground" class="cls-3" d="M169.7989326084,130.4666165449c-66.3732866424,0-119.8406625224,53.4673758801-119.8406625224,119.8406625224,0,65.7587167857,53.4673700191,119.8406766254,119.8406625224,119.8406766254h161.0166811961c65.7587285076,0,119.8406649035-53.4673782611,119.8406649035-119.8406649035,0-65.7587226466-53.4673782611-119.8406649035-119.8406649035-119.8406649035,0,0-161.0166811961,0-161.0166811961-.0000093409Z"/><path id="BalckOutline" class="cls-2" d="M169.7989326084,130.4666165449c-66.3732866424,0-119.8406625224,53.4673758801-119.8406625224,119.8406625224,0,65.7587167857,53.4673700191,119.8406766254,119.8406625224,119.8406766254h161.0166811961c65.7587285076,0,119.8406649035-53.4673782611,119.8406649035-119.8406649035,0-65.7587226466-53.4673782611-119.8406649035-119.8406649035-119.8406649035,0,0-161.0166811961,0-161.0166811961-.0000093409ZM330.8156138045,371.991653541h-161.0166811961c-67.6024263558,0-122.2989326084-54.6965179745-122.2989326084-121.6843744736,0-67.6024263558,54.6965062526-122.2989326084,122.2989326084-122.2989326084h161.0166811961c66.987868221,0,121.6843861955,54.6965062526,121.6843861955,122.2989326084,0,66.9878564991-54.6965179745,121.6843744736-121.6843861955,121.6843744736h0Z"/><path id="Dankort" class="cls-4" d="M207.2875532046,185.7776902732h-113.080422854c18.4370283002-21.5098629314,45.4779964982-35.0303470304,75.5918022577-35.0303470304h161.0166811961c30.1138174815,0,57.1547739575,13.520484099,75.5917993272,35.0303470304h-84.1957304335l-41.7905861493,43.6342957195c-3.0728375616-33.8012131779-33.1866550431-43.6342957195-73.1335433443-43.6342957195ZM358.4711518591,242.9324759526l51.6236804129-51.6236686909c12.2913502465,16.5933216606,19.6661650832,36.8740507395,19.6661650832,58.9984835276,0,20.8952930747-6.760233258,40.5614581579-17.822467235,56.5402158227l-53.4673782611-63.9150306594ZM140.9142607013,228.1828462793h52.2382444086c11.6767803898,0,20.8952930747,4.9165354098,17.2078856563,18.4370253698s-9.2185126849,20.8952930747-25.8118402064,20.8952930747h-57.7693438142l14.1350539557-39.3323184444ZM322.826240833,311.7640302999h85.4248701469c-18.4370253698,22.7389909229-46.0925634244,37.4886205962-77.4354971754,37.4886205962h-161.0166811961c-31.342945473,0-59.6130475234-14.7496296734-78.0500728931-37.4886205962h100.789063816c50.3945406995,0,77.4354971754-17.822455513,85.4248935908-56.5402041008l44.863423711,56.5402041008Z"/></g></g></g></g></g><rect class="cls-1" width="500" height="500"/></svg>