<?xml version="1.0" encoding="UTF-8"?>
<svg width="140px" height="80px" viewBox="0 0 140 80" version="1.1" xmlns="http://www.w3.org/2000/svg" xmlns:xlink="http://www.w3.org/1999/xlink">
    <!-- Generator: Sketch 52.5 (67469) - http://www.bohemiancoding.com/sketch -->
    <title>im/logo-pay/deltavista-crif</title>
    <desc>Created with Sketch.</desc>
    <g id="im/logo-pay/deltavista-crif" stroke="none" stroke-width="1" fill="none" fill-rule="evenodd">
        <g id="card_crif" transform="translate(23.000000, 15.000000)">
            <path d="M12.9297797,19.0637208 L19.0780169,19.0637208 L15.1204576,24.6362491 L15.0877966,24.6687396 L14.9898136,24.8311925 L14.9571525,24.9286642 L14.9244915,25.0586264 L14.9571525,25.1901736 L14.9898136,25.3859094 L15.0551356,25.5158717 L15.1204576,25.645834 L15.2192373,25.7116075 L15.3498814,25.7765887 L15.5131864,25.8090792 L15.5785085,25.8090792 L28.3338305,25.8090792 L25.1617288,30.4045132 L17.8361017,30.4370038 L12.5043898,30.4370038 L10.575,30.4370038 L9.52825424,30.4045132 L9.29962712,30.3720226 L9.071,30.3070415 L8.87423729,30.2412679 L8.67827119,30.1437962 L8.48230508,30.0455321 L8.28554237,29.9155698 L8.12223729,29.7848151 L7.9589322,29.6548528 L7.82749153,29.4916075 L7.69684746,29.2966642 L7.59886441,29.1009283 L7.50088136,28.9051925 L7.43555932,28.7094566 L7.37023729,28.4812302 L7.37023729,28.2530038 L7.37023729,28.0255698 L7.40289831,27.569117 L7.53354237,27.0801736 L7.66418644,26.6562113 L7.82749153,26.2330415 L8.12223729,25.6133434 L8.25288136,25.3859094 L12.9297797,19.0637208 Z M39.1917864,10.0360981 L35.790261,14.9897208 L16.2326847,14.9897208 L16.4294475,14.6965132 L16.6907356,14.3708151 L17.0508034,13.9468528 L17.5088542,13.457117 L18.0322271,12.9364755 L18.6854475,12.3492679 L19.4374475,11.7628528 L19.8301763,11.5029283 L20.2555661,11.2414189 L20.6482949,11.0139849 L21.0410237,10.8190415 L21.7930237,10.5250415 L22.4789051,10.2976075 L23.0676,10.1335698 L23.5256508,10.0360981 L23.9510407,9.97111698 L39.1917864,10.0360981 Z M35.2344661,19.1612717 L41.0879576,19.1612717 L33.7623305,30.3713094 L27.5814322,30.3713094 L35.2344661,19.1612717 Z M38.2104424,14.9246604 L41.4478661,10.0685094 L55.4451034,10.0685094 L55.6418661,10.0360189 L55.9031542,10.0360189 L56.165239,10.101 L56.4926458,10.1984717 L56.8519169,10.3625094 L57.015222,10.4599811 L57.1793237,10.5899434 L57.3434254,10.7523962 L57.5067305,10.9489245 L57.7026966,11.3396038 L57.8333407,11.6003208 L57.9647814,11.9268113 L58.0954254,12.2842075 L58.1934085,12.6431887 L58.2260695,13.0013774 L58.2260695,13.3920566 L58.1280864,14.1092264 L57.9974424,14.7289245 L57.8333407,15.3811132 L57.4740695,16.0974906 L57.1140017,16.8463585 L56.6232898,17.7592642 L56.0999169,18.7379434 L55.5104254,19.6500566 L55.2507305,20.0732264 L54.9559847,20.4646981 L54.661239,20.7911887 L54.3999508,21.0511132 L54.0398831,21.3451132 L53.6471542,21.6050377 L53.2544254,21.8665472 L52.8298322,22.0939811 L52.0443746,22.4529623 L51.2605102,22.7778679 L50.5730356,23.0068868 L50.0496627,23.1693396 L49.5589508,23.2993019 L50.9984254,30.3719434 L45.0126966,30.3719434 L42.6913746,19.2268868 L48.283578,19.2268868 L48.5122051,19.2268868 L48.7408322,19.1943962 L48.9702559,19.1611132 L49.2968661,19.0303585 L49.7557136,18.8354151 L49.9843407,18.7054528 L50.2129678,18.5422075 L50.4097305,18.3456792 L50.6064932,18.1832264 L50.9657644,17.694283 L51.3584932,17.1078679 L51.6197814,16.586434 L51.7169678,16.3914906 L51.7496288,16.2599434 L51.7496288,16.065 L51.7169678,15.837566 L51.6843068,15.7060189 L51.6197814,15.543566 L51.5217983,15.4136038 L51.3911542,15.2511509 L51.2278492,15.1196038 L51.0637475,15.0221321 L50.9004424,14.9571509 L50.7697983,14.9246604 L50.5403746,14.9246604 L50.4423915,14.9246604 L38.2104424,14.9246604 Z M65.5519356,10.0035283 L71.5368678,10.0035283 L68.1680034,14.9571509 L62.2165288,14.9571509 L65.5519356,10.0035283 Z M59.5007254,19.1612717 L65.2578271,19.1612717 L57.7027763,30.3713094 L51.8476915,30.3713094 L59.5007254,19.1612717 Z M74.0218932,10.0036075 L93.2528593,10.0036075 L89.7198932,14.9572302 L70.6856898,14.9572302 L74.0218932,10.0036075 Z M80.9563051,19.1612717 L77.3261525,24.212366 L70.326339,24.212366 L66.1082881,30.3713094 L60.2205424,30.3713094 L67.8735763,19.1612717 L80.9563051,19.1612717 Z" id="Combined-Shape" fill="#003B79"></path>
            <polygon id="Fill-11" fill="#EE7D11" points="11.4905441 6.15815094 11.4905441 6.15815094 12.7005949 5.76667925 13.2239678 5.63671698 13.6493576 5.57173585 13.8461203 5.57173585 14.0420864 5.60422642 14.2388492 5.63671698 14.4348153 5.70169811 14.5981203 5.79916981 14.7932898 5.92992453 14.9573915 6.09316981 15.1533576 6.28811321 15.5134254 6.67958491 15.8400356 7.13603774 16.1021203 7.56 16.3307475 7.91739623 16.5928322 8.53630189 16.6908153 8.76532075 16.5601712 8.92777358 16.1021203 9.28675472 15.7420525 9.51418868 15.3493237 9.74320755 14.8912729 9.97143396 14.4021542 10.1663774 13.6820186 10.3946038 12.9953407 10.5578491 12.3078661 10.6878113 12.4719678 10.0689057 12.8646966 8.86279245 13.1913068 8.11392453 13.5840356 7.20101887 14.0420864 6.15815094 13.1586458 6.06067925 12.9626797 6.32060377 12.5046288 7.00607547 12.2098831 7.49343396 11.9159339 8.08143396 11.5893237 8.70033962 11.2619169 9.41671698 11.0324932 9.97143396 10.8365271 10.5253585 10.5099169 11.5682264 10.3131542 12.2846038 10.2478322 12.5786038 10.8038661 12.5136226 12.144561 12.3170943 12.9626797 12.1871321 13.8461203 11.9921887 14.6626458 11.7956604 15.4473068 11.600717 16.7887983 11.1442642 17.8682051 10.7203019 18.2943915 10.5253585 18.6528661 10.3621132 18.9468153 10.1663774 19.1427814 10.0364151 19.274222 9.84067925 19.4375271 9.61166038 19.6342898 9.28675472 19.8302559 8.89528302 20.0588831 8.37384906 20.2556458 7.78743396 20.4189508 7.03856604 20.6157136 6.19064151 20.6810356 5.79916981 20.7136966 5.44177358 20.7136966 4.72301887 20.6810356 4.13739623 20.6157136 3.61596226 20.5177305 3.19279245 20.4189508 2.86630189 20.3209678 2.60637736 20.2556458 2.57388679 20.0923407 2.60637736 19.6996119 2.67135849 19.1101203 2.93128302 18.5875441 3.19279245 18.3270525 3.35524528 18.0649678 3.58267925 17.8355441 3.84418868 17.639578 4.07241509 17.8682051 4.62554717 17.9669847 4.95283019 18.0323068 5.31022642 18.0649678 5.63671698 18.0976288 5.99490566 18.0649678 6.35309434 17.9996458 6.71207547 17.6069169 6.12566038 17.2141881 5.60422642 16.8214593 5.14777358 16.4621881 4.78958491 16.1021203 4.46309434 15.7420525 4.20237736 15.3819847 4.00664151 15.0553746 3.87667925 14.5981203 3.74671698 14.1400695 3.68173585 13.7146797 3.68173585 13.2239678 3.74671698 12.7005949 3.90916981 12.079239 4.13739623 11.327239 4.43060377 10.4119339 4.82207547 9.46317119 5.27773585 8.38376441 5.83166038 7.23903559 6.45215094 6.02898475 7.13603774 3.67420508 8.47132075 1.74481525 9.64415094 0.828713559 10.2313585 5.40762881 8.43883019 9.00512034 7.10354717"></polygon>
            <polygon id="Fill-12" fill="#EE7D11" points="21.8994508 0.271890566 21.7927051 0.290909434 20.812078 0.585701887 20.1254 0.780645283 19.3391458 1.07385283 18.4230441 1.43204151 17.4432136 1.85600377 17.0512814 2.08502264 16.6577559 2.3124566 15.9057559 2.83389057 15.349722 3.22536226 15.1529593 3.42030566 15.7751119 3.61524906 15.9057559 3.48528679 16.3311458 3.12789057 17.0178237 2.6064566 17.4758746 2.3124566 17.9992475 2.0184566 18.6524678 1.69355094 19.3391458 1.36706038 20.7140949 0.780645283 21.7273831 0.389966038 22.034078 0.271890566"></polygon>
            <path d="M7.8489073,35.5211333 C6.79552191,37.4279667 5.73674106,39.3446333 4.63670076,41.3359667 C5.14784181,41.3359667 5.59122217,41.3108 6.03127003,41.3418 C6.70332292,41.3893 7.33252947,41.2083 7.95697531,40.9973 C8.1639073,40.9274667 8.38924736,40.8371333 8.54238338,40.6851333 C9.37614156,39.8576333 10.1689577,39.0003 10.6294766,37.8556333 C10.8660836,37.2679667 11.1218922,36.7081333 10.9976378,36.0078 C10.7683305,35.8398 10.5223607,35.6594667 10.3335194,35.5211333 L7.8489073,35.5211333 Z M6.84788967,34.0026333 C8.44939093,34.0026333 10.0862801,34.0064667 11.7230106,33.9999667 C12.1370332,33.9983 12.4898015,34.2128 12.851139,34.3599667 C13.0956806,34.4594667 13.1943859,34.7913 13.2548469,35.0841333 C13.2805547,35.2074667 13.3416504,35.3228 13.4014766,35.4806333 C13.3614866,35.6048 13.2621466,35.7748 13.260401,35.9461333 C13.2556403,36.3811333 13.1199602,36.7646333 12.9352448,37.1406333 C12.6768972,37.6664667 12.3644363,38.1744667 12.1908292,38.7301333 C12.0789526,39.0884667 11.6555673,39.1836333 11.6647713,39.5856333 C11.0482599,40.2888 10.4939552,41.0723 9.79571839,41.6704667 C9.21919698,42.1641333 8.52270579,42.5231333 7.74639345,42.6949667 C7.33903577,42.7849667 6.94532544,42.8338 6.53860252,42.8346333 C5.03644131,42.8379667 3.5342801,42.8359667 2.00006348,42.8359667 C2.32696524,42.2498 2.63656977,41.7056333 2.93585945,41.1554667 C3.49905088,40.1199667 4.11238841,39.1114667 4.65526751,38.0694667 C5.12752947,37.1631333 5.67326499,36.3016333 6.11442368,35.3774667 C6.33420957,34.9171333 6.59287456,34.4774667 6.84788967,34.0026333 Z M31.7998093,40.3614667 L29.1573005,40.3614667 C28.9175196,40.6153 28.7191569,40.8254667 28.4736632,41.0854667 C28.5165096,41.1783 28.5901418,41.3389667 28.6599655,41.4909667 L31.1441015,41.4909667 C31.3576985,41.1228 31.5716128,40.7548 31.7998093,40.3614667 Z M26.9656305,42.8066333 C26.7971015,42.6353 26.6074668,42.4426333 26.3989479,42.2306333 C26.5268521,41.1573 27.0086355,40.3116333 27.8508043,39.6636333 C28.4911191,39.1709667 29.1799932,38.9586333 29.9721746,38.9941333 C30.8170411,39.0319667 31.6642879,39.0026333 32.5261343,39.0026333 C32.6664164,38.7154667 32.8097136,38.4216333 32.9693559,38.0949667 C32.7657564,37.9523 32.5811997,37.8229667 32.3558597,37.6649667 L29.0798597,37.6649667 C29.2991695,37.1693 29.5654516,36.7776333 29.8015826,36.3238 C31.3584919,36.4241333 32.9249227,36.1486333 34.5438798,36.5559667 C34.6290965,36.7736333 34.8149227,37.0351333 34.8131771,37.2954667 C34.8107967,37.6481333 34.7170108,38.0264667 34.569429,38.3463 C34.2695045,38.9963 33.9122929,39.6174667 33.5688874,40.2446333 C33.3349781,40.6721333 33.0801217,41.0868 32.8427212,41.5123 C32.6053207,41.9378 32.3780763,42.3693 32.1417866,42.8066333 L26.9656305,42.8066333 Z M61.7271579,40.3631 L59.0072083,40.3631 C58.850105,40.5299333 58.6650723,40.7262667 58.478294,40.9242667 C58.478294,41.0867667 58.4765484,41.2529333 58.480833,41.4187667 C58.4814678,41.4387667 58.5160622,41.4576 58.5468481,41.4892667 L61.165236,41.4892667 C61.3315433,41.1561 61.5018179,40.8147667 61.7271579,40.3631 Z M62.4061932,39.0026 C62.57377,38.7574333 62.762294,38.4816 62.9792234,38.1642667 C62.877027,38.0504333 62.8037121,37.9384333 62.7042134,37.8659333 C62.6064602,37.7944333 62.4822058,37.7631 62.2346491,37.6556 L59.0982965,37.6556 C59.2008103,37.1096 59.5765887,36.7779333 59.7893922,36.3359333 C61.0419338,36.3359333 62.2811453,36.3262667 63.5198809,36.3444333 C63.761566,36.3479333 64.0018229,36.4599333 64.349037,36.5492667 C64.4901126,36.7671 64.6838733,37.0664333 64.848435,37.3206 C64.5278809,38.6552667 63.8263116,39.6947667 63.2147196,40.7831 C62.8900395,41.3607667 62.5969388,41.9577667 62.2851126,42.5432667 C62.2356013,42.6359333 62.1610169,42.7139333 62.0704048,42.8359333 C60.4577952,42.8359333 58.8245559,42.8421 57.1914753,42.8277667 C57.0043796,42.8261 56.818236,42.7094333 56.6524048,42.6531 C56.1828406,42.0534333 56.4840345,41.4707667 56.7493645,40.9727667 C57.225435,40.0792667 57.8963771,39.3886 58.901362,39.1096 C59.1011529,39.0541 59.2933267,39.0092667 59.4899438,39.0071 C60.4414501,38.9972667 61.3932738,39.0026 62.4061932,39.0026 Z M43.8492496,42.836 C44.1217207,42.3455 44.3549952,41.9251667 44.5895393,41.5026667 C45.7244914,41.5026667 46.8600783,41.4771667 47.993761,41.5138333 C48.5342597,41.5311667 48.9359045,41.3373333 49.2723277,40.9111667 L49.2723277,40.4245 C49.2348768,40.396 49.1972673,40.3451667 49.154897,40.3401667 C49.0506375,40.3275 48.9439977,40.336 48.8384688,40.336 C48.3896929,40.336 47.9388542,40.364 47.4927761,40.3276667 C47.0950985,40.295 46.7026577,40.1911667 46.2870481,40.1148333 C45.7608315,39.623 45.9212673,39.0621667 46.1927861,38.4876667 C46.5853856,37.657 47.1477836,37.0021667 47.9685292,36.632 C48.259567,36.5006667 48.5747257,36.3558333 48.8816325,36.3491667 C50.2728693,36.319 51.6653756,36.336 53.0899373,36.336 C52.8485695,36.8226667 52.6362421,37.2508333 52.4285166,37.6693333 C51.4067106,37.6693333 50.4309247,37.6965 49.4570431,37.6605 C48.7262748,37.6333333 48.1497534,37.819 47.8710935,38.6161667 C47.9767811,38.7205 48.1099222,38.8521667 48.2624234,39.0026667 C48.8927408,39.0026667 49.5519398,39.0166667 50.210028,38.9973333 C50.5938995,38.986 50.9033453,39.1138333 51.1548693,39.3945 C51.3181615,40.3441667 50.9298466,41.0421667 50.3098441,41.6831667 C49.8301237,42.1793333 49.3215217,42.5768333 48.6591489,42.7313333 C48.489033,42.7708333 48.3171715,42.8305 48.1459448,42.8315 C46.7478844,42.8395 45.3495065,42.836 43.8492496,42.836 Z M16.2416657,42.8623667 C14.953895,42.7430333 13.7457866,43.0103667 12.4889605,42.6438667 C12.3474088,42.4437 12.1679302,42.1897 11.9967035,41.9477 C11.8497564,40.6792 12.4586506,39.7050333 13.1042023,38.7647 C13.2793962,38.5095333 13.446497,38.2237 13.7451519,38.0407 C14.0320637,37.8647 14.2109076,37.5005333 14.4911544,37.3037 C14.8548723,37.0483667 15.2727035,36.8782 15.6654617,36.6680333 C15.7322703,36.6323667 15.7911443,36.5802 15.7955877,36.5768667 C17.0538421,36.2182 18.2814693,36.3628667 19.501162,36.3363667 C19.6274793,36.3337 19.7539554,36.3360333 19.9199453,36.3360333 C19.625099,36.8207 19.3621494,37.2530333 19.1088798,37.6693667 C18.3171746,37.6693667 17.5779957,37.6540333 16.839769,37.6732 C15.95523,37.6962 15.237633,38.0332 14.8361469,39.0010333 L18.4020738,39.0010333 C18.1361091,39.4840333 17.9179101,39.8803667 17.6862224,40.3012 L14.0680864,40.3012 C13.9881065,40.5502 13.9108244,40.7907 13.8267186,41.0528667 C14.0033408,41.1970333 14.1479076,41.3152 14.3765801,41.5020333 L17.0673307,41.5020333 C16.7774038,41.9798667 16.5174693,42.4078667 16.2416657,42.8623667 Z M37.0485186,42.822 L35.201365,42.822 C35.5644481,40.6766667 35.9254683,38.5453333 36.2929947,36.3735 L38.1939443,36.3735 C37.912428,37.0631667 37.8694229,37.7875 37.7196194,38.4891667 C37.5699746,39.189 37.28703,39.896 37.3889091,40.6521667 C38.7874456,39.1831667 40.1628134,37.7386667 41.4712139,36.3646667 L43.1969695,36.3646667 C41.1671635,38.4963333 39.1398965,40.6256667 37.0485186,42.822 Z M54.8834854,42.8350167 L52.8976365,42.8350167 C52.7451353,42.7525167 52.6364325,42.6936833 52.459969,42.59835 C52.264304,42.39285 52.2214577,41.9030167 52.3961756,41.4716833 C52.7154602,40.6841833 53.1507474,39.9656833 53.5703242,39.2365167 C53.8488254,38.7521833 54.1028884,38.2521833 54.4050345,37.69035 L53.3272108,37.69035 C53.6066642,37.1820167 53.8340673,36.7685167 54.0630572,36.3520167 L55.065503,36.3520167 C55.6604325,35.69435 55.9121151,34.7871833 56.4573746,34.03435 L58.1553594,34.03435 C57.734037,34.7910167 57.3274728,35.5211833 56.8983746,36.2921833 C57.3998355,36.3991833 57.9152612,36.2890167 58.4935282,36.36635 C58.3472159,36.5940167 58.2094728,36.78785 58.0931529,36.9950167 C57.9817524,37.1935167 57.8930446,37.4056833 57.7764073,37.6490167 L56.1666542,37.6490167 C55.9548028,37.9976833 55.7389841,38.3185167 55.5571252,38.65935 C55.173571,39.3781833 54.82477,40.1181833 54.4266164,40.82785 C54.2636416,41.1181833 54.3613947,41.2811833 54.5802285,41.4886833 L55.6347247,41.4886833 C55.3778053,41.94935 55.1513544,42.35485 54.8834854,42.8350167 Z M26.1988554,37.63995 C25.691999,38.5366167 25.2371929,39.3366167 24.7871476,40.1391167 C24.6498806,40.38345 24.5073768,40.6272833 24.3994675,40.8861167 C24.3112358,41.0976167 24.3017144,41.3217833 24.6778101,41.48095 L25.6585154,41.48095 C25.3887421,41.97745 25.1553088,42.4067833 24.9133063,42.8517833 C24.123664,42.7472833 23.307203,43.0077833 22.5915103,42.6911167 C22.0933819,42.1797833 22.3068202,41.6627833 22.5224801,41.19945 C22.8350997,40.5276167 23.2188126,39.89195 23.5765003,39.24345 C23.8477018,38.7521167 24.1255683,38.26495 24.4439008,37.6987833 C24.0612987,37.6806167 23.7575657,37.6661167 23.4073365,37.6496167 C23.6322005,37.1956167 23.8415128,36.7731167 24.0547924,36.3422833 L25.192601,36.3422833 C25.6420116,35.5347833 26.0638101,34.77695 26.4835456,34.02295 L28.194067,34.02295 C27.7519562,34.8052833 27.3353945,35.5426167 26.897727,36.3171167 L28.5022433,36.3171167 C28.2440544,36.78045 28.0185557,37.1847833 27.7646514,37.63995 L26.1988554,37.63995 Z M22.5982547,34.0172333 L24.234033,34.0172333 C23.8412748,35.1207333 23.1535116,36.0034 22.6742673,37.0007333 C22.1986728,37.9910667 21.6056476,38.9192333 21.0684814,39.8774 C20.5186199,40.8587333 19.9739952,41.8435667 19.4306401,42.8202333 L17.7344008,42.8202333 C19.365101,39.8687333 20.9881841,36.9314 22.5982547,34.0172333 Z M42.3900458,42.8163 L40.6888872,42.8163 C41.8892196,40.6459667 43.0670181,38.5163 44.260527,36.3579667 L45.9508947,36.3579667 C45.5903506,37.0391333 45.2812222,37.7221333 44.883862,38.3426333 C44.5655295,38.8401333 44.3436806,39.3868 44.0404237,39.8891333 C43.5018292,40.7816333 42.9944967,41.6939667 42.5501642,42.6434667 C42.5171567,42.7139667 42.4413028,42.7624667 42.3900458,42.8163 Z M45.5458698,34.0244 L47.2584542,34.0244 C46.9472627,34.6090667 46.6646355,35.1402333 46.3947035,35.6475667 L44.6619655,35.6475667 C44.9701418,35.0815667 45.2576884,34.5537333 45.5458698,34.0244 Z" id="Combined-Shape" fill="#003B79"></path>
        </g>
    </g>
</svg>