<?xml version="1.0" encoding="UTF-8"?><svg id="Layer_1" xmlns="http://www.w3.org/2000/svg" viewBox="0 0 500 500"><defs><style>.cls-1{fill:none;}.cls-1,.cls-2,.cls-3{stroke-width:0px;}.cls-2{fill:#003a79;}.cls-3{fill:#ee7e12;}</style></defs><path id="path369" class="cls-2" d="M142.9494596581,323.5230790865l15.4744316757-22.4215146018h-62.0823584084s-2.3498120468.2883956685-3.0184726893-2.0714679611c-.6495415877-2.3412280975.6877455663-3.6375921689.6877455663-3.6375921689l19.308021177-27.0686224461h-29.9764423968l-22.7983437206,30.742393487s-4.0857579456,6.8613116947-4.3748732096,12.9486799541c-.2889958055,6.1052984173,4.5557249058,10.931798857,10.6850032028,11.5081237369h76.095288803ZM313.9450185309,323.3250509589l37.3169136707-54.6404952769h63.7698809349l-17.6650737513,24.7444826083h-34.1519677463l-20.6643705008,29.8960126686h-28.6053826071ZM381.2555823165,224.1656573157h93.7444176835l-17.2638295824,24.149021608h-92.7510459765l16.2704578754-24.149021608ZM273.0492407847,323.3250509589l37.2978003044-54.6405009654h28.0640875218l-36.7565052191,54.6405009654h-28.6053826071ZM339.9458409113,224.1656573157h29.178533303l-16.5251434817,24.149021608h-28.9238021886l16.2704123673-24.149021608ZM268.9481949903,323.3250509589l-7.0685551954-34.4521841218s14.4236971156-3.0617792542,23.644667654-10.8778491051c6.8520280596-5.8347646447,16.6716110282-27.6996707141,16.6716110282-27.6996707141,0,0,1.5920523993-4.9516702352,1.9868571841-9.7065922557.4011759069-4.7548878895-2.4198887016-10.2461694134-3.5597734631-11.8650260336-3.725331622-5.2627345837-9.9978833716-4.3613004441-9.9978833716-4.3613004441h-68.2721253902l-15.6909246804,23.7554569167h59.5924385601s2.5854241064-.3936784614,4.5531679242,1.5870635832c1.9932055522,1.9616514323,1.7894434147,3.9423309033,1.7894434147,4.9326421964,0,.990368178-3.3623824477,6.7349757564-5.5466078932,9.3104677385-2.1906193216,2.5571238095-6.3680730733,4.3403667572-7.9537315966,4.7364912744-1.5920068913.3960619437-3.3686853078.3960619437-3.3686853078.3960619437h-27.2044183631l11.2269183348,54.2443480056,29.1976011613.000091016ZM154.8132057787,323.3250509589l37.3487579042-54.6404952769h28.4780170499l-35.6357452008,54.6404952769h-30.1910297533ZM211.3807834619,224.2926133008l-16.544245471,24.149044362h-95.3491838845s5.2409362445-8.1957318437,15.6208935337-15.7375362648c10.3799572892-7.5481584777,21.9316549505-8.7035472512,21.9316549505-8.7035472512l74.3408808713.292039154Z"/><path id="path371" class="cls-3" d="M77.0507194665,205.4189462179c9.0579494513-3.0979808802,12.8208593167-4.7358342524,17.8261550592.5396084445,4.9925876292,5.2754711394,7.5207228331,12.2078208457,7.5207228331,12.2078208457,0,0-4.2857286966,4.2724574217-11.2460260126,6.792742493-4.5907689216,1.6759691791-10.2137506411,2.4313851639-10.2137506411,2.4313851639,0,0,1.3563720778-4.8120345794,2.8025712888-8.7733935216,1.4283657576-3.9803869809,5.7491071833-13.1981634254,5.7491071833-13.1981634254l-4.4111715401-.5078466942s-5.1345840133,6.8815912039-9.2203391146,16.3723474769c-3.1101827167,7.2370656867-4.9358931752,15.3819764546-4.9358931752,15.3819764546,0,0,16.0545422536-1.8029308527,25.3493836774-4.7929780981,9.291024439-2.9900472454,16.1812906083-5.6754126414,17.9516206567-7.6560921125,1.7894206607-1.9806794711,5.0817036997-6.6276394143,7.2150284304-18.6894705476,1.808534027-10.2462007002-1.394604499-17.5086740805-1.394604499-17.5086740805,0,0-1.1589981279-.5396375981-5.9668857894,1.5870607389-.9233860684.4126467709-1.7512451246.8633496195-2.4962795934,1.2950528717-1.5729219675.9205219077-3.5788640754,2.9202294175-4.661454246,4.3803597697,1.5156046225,3.2059145149,3.0375860557,8.2845492679,1.8594745614,12.7664886157-5.3300807575-8.0687431498-10.0679145183-12.3221128034-14.442787728-13.7949470024-6.3464283237-2.1076425667-9.6915575452-1.06651162-22.5639831315,4.6977781748-11.2275639797,5.0278705622-31.8378297169,17.0198867118-42.3240244007,23.4697718193-2.639614553,1.6378533723-4.4475832852,2.7360983-4.4475832852,2.7360983,0,0,42.3063072061-16.3913442289,52.0507194665-19.7369256863ZM97.8253160683,193.0079619496s3.7444222343-3.8534267295,10.8257139854-7.7449692659c8.157493734-4.5009403662,20.3269001265-8.7860717701,20.3269001265-8.7860717701,0,0-9.7813619244,1.8029285417-22.9250949196,7.9925691321-4.9034146737,2.3234792606-11.2842015487,7.5481591888-11.2842015487,7.5481591888l3.0566823565.9903127152Z"/><rect class="cls-1" width="500" height="500"/></svg>