<?xml version="1.0" encoding="UTF-8"?><svg id="Layer_1" xmlns="http://www.w3.org/2000/svg" xmlns:xlink="http://www.w3.org/1999/xlink" viewBox="0 0 500 500"><defs><style>.cls-1{fill:none;}.cls-1,.cls-2,.cls-3{stroke-width:0px;}.cls-2{fill:url(#linear-gradient);}.cls-3{fill:#1d1d1b;fill-rule:evenodd;}</style><linearGradient id="linear-gradient" x1="246.8108065574" y1="1320.1646448459" x2="279.203913495" y2="1250.6966783245" gradientTransform="translate(0 1535.4306640625) scale(1 -1)" gradientUnits="userSpaceOnUse"><stop offset=".383085022" stop-color="#e45e26"/><stop offset="1" stop-color="#f8a020"/></linearGradient></defs><path class="cls-3" d="M25.0000430948,215.4000885741c-.0032221644-1.1839775833.1713117388-1.6149420672,1.5144172518-1.5956258631,6.8857652491.0971348299,13.7785118543-.0943993466,20.6583698021.1191529531,10.1229663817.3143959751,19.3217086178,3.2646734402,26.8261294251,10.4139009725,5.1635183958,4.9211847841,8.4093119666,10.9445847307,9.6879741923,17.9347011153,2.5449728214,13.9246168698-1.3806974306,25.7399579561-11.9885995493,35.1862026926-5.7913034196,5.1564027828-12.7302343808,7.7496409412-20.395226379,8.366819674-8.4495890212.6818569696-16.9211961655.1397613794-25.3809887072.3234918766-1.0117596108.0232264348-.8995208854-.5240380442-.8984468306-1.1594421442.005370274-7.1258836228.0209440684-58.0637375088-.0236292053-69.5892012769ZM39.0851975913,272.5540513307c-.0048332466.9783296555.1997741907,1.2927256306,1.2362370616,1.2785279689,2.8204678746-.0362493491,5.6452319684-.0077197688,8.4495890212-.3222164366,5.1200191768-.5732096149,9.9226551636-2.041945974,13.6711063755-5.791840447,6.2987943072-6.3030569621,8.6139194038-13.9699621204,6.8648211807-22.6408735565-1.7609128257-8.7357239297-6.7896373455-14.8912326153-15.5072030365-17.5930845642-4.2468126337-1.3159520654-8.6622518693-1.2331155898-13.0567470365-1.288832182-1.2523478834-.015506666-1.6857289906.2317273206-1.6717662783,1.6072558626.0773319448,7.4091991375.055850849,37.2446958232.0139627123,44.7510633548Z"/><path class="cls-3" d="M452.3406661269,255.8241711744c7.5726232864,10.1280681419,15.024415409,20.0955986572,22.6593338731,30.3038181377h-3.0465564076c-4.258090209,0-8.5177915003-.0659536769-12.7737335997.0400756693-1.2888657462.0324230289-1.9386688932-.4476458973-2.6072679991-1.4492019876-5.903542145-8.8482311688-11.8570278377-17.6628645612-17.794939736-26.4865938551-.0805541091-.1190522605-.1777560675-.2315594996-.2303847521-.3622585416-.3598083542-.8811948255-1.1299056375-.8229944817-1.8140785378-.6833673592-.7545234889.1553016096-.3947151348.8644127195-.3947151348,1.3095413009-.0230921779,8.6593317829-.0569249038,17.3200732626.020407041,25.9793714813.0134256849,1.4388977745-.4135110936,1.7197631017-1.7533944422,1.6860981969-3.7291182257-.0958258257-7.463069698-.0607847882-11.1943360332-.0141976617-.9408719947.0128886575-1.3232354994-.1579196181-1.3221614446-1.2267383895.0322216437-23.3008130956.0268513697-46.6016261911.0118146027-69.9011135003,0-.7907057096.0837762735-1.2163334838,1.0606291036-1.1955908007,8.0317817085.1668980449,16.0753780196-.321024907,24.0996413445.2949622963,5.5716592154.4270374711,10.8108984737,1.9332147088,15.0958400525,5.732347881,5.1377410808,4.5573822887,6.5850299083,10.5356719342,6.2354250747,17.1194935309-.5139352163,9.6854904406-5.791840447,16.0815873988-15.1968012026,18.4651834882-.3168461626.0801849028-.6186555582.2264577393-1.0547218023.3881701134ZM436.3195278741,236.2332104467c0,3.1999784213.058535986,6.4000575352-.0306105615,9.5974515122-.0311475889,1.121917355.3249015735,1.3418972014,1.3538460609,1.2992370878,2.0970919746-.08669636,4.1952580039-.0401427977,6.2907388963-.2614316484,6.1387601437-.6482927575,9.6315863159-4.1963320587,10.0875225737-10.3454299797.3657156555-4.9520638593-2.1636833715-8.696856572-6.8755617286-10.2418508211-3.0964999553-1.0157873162-6.2923499785-.9044212603-9.4844408099-.9666493097-1.0423701722-.0207091189-1.3978823072.2070911889-1.3694198553,1.3211880825.0816281639,3.1974946696.0279254245,6.3974730909.0279254245,9.5974850764Z"/><path class="cls-3" d="M372.9288142564,215.2486971952c-.0032221644-1.0856512238.2174960947-1.4403242535,1.3871417594-1.4351218006,12.4364803961.0478625665,24.8745718744.0400421051,37.3121263253.0078204614.9677233644-.0027187012,1.3178652255.1863317237,1.2953100749,1.2357503805-.0698135613,3.3461673473-.0698135613,6.6976714043,0,10.0439562263.0225551506,1.0092422949-.3533640254,1.1451102256-1.2249594863,1.141216777-7.7009728336-.029737892-15.4035567494.0194001146-23.104529583-.0517560151-1.3098098146-.0116132174-1.569194046.3687364346-1.548787005,1.5980928327.0773319448,4.3516336683.0682024791,8.7059860377.002685137,13.0577203986-.0155737944,1.0881517576.2899947929,1.3507581534,1.3570682253,1.3443473889,7.4147372325-.0478625665,14.8289374375.0052360171,22.24367467-.0556494637,1.1712567469-.0103377773,1.3968082524.3494370126,1.3726420197,1.4259755528-.0682024791,3.2039054341-.0665913969,6.4103953126,0,9.6143007467.0225551506,1.0118603034-.2658285602,1.2538582729-1.2614773491,1.2473468158-7.366404767-.0439355537-14.7333465613.0169499271-22.0997513283-.0594757839-1.3742531019-.0141976617-1.627730032.4192505739-1.6121562376,1.6783112997.0655173421,5.4529090328.0569249038,10.9070263773.0021481096,16.3599689743-.0102035205,1.0842247448.2153479851,1.4414822188,1.3860677046,1.4323527531,7.7004358062-.0582674723,15.4035567494-.0026180085,23.1039925556-.0595764766,1.1503126785-.0090287731,1.4080858277.3183901164,1.3833825676,1.413187588-.0724986982,3.2996305671-.0494065203,6.6018120144-.0091294657,9.9027515858.0091294657.7892624485-.1847374236,1.0585145583-1.0235742135,1.0558965497-12.6276621485-.0259115718-25.2569353791-.0349067806-37.8856715824.0116132174-1.1497756511.0052360171-1.0579439667-.5563939447-1.0579439667-1.3082322966.0075183835-11.6717869509.020407041-58.0727327177-.0182589314-69.6007977122Z"/><path class="cls-3" d="M119.354145183,265.2431617706c1.9037621126,3.5584106427,4.4138281534,6.4569153106,8.1085766258,8.0808861508,3.9707805531,1.7455404166,8.059707133,2.3524149363,12.1824664386.5098068182,3.7457660749-1.6730752826,5.7687482691-4.6608943189,5.9303935147-8.7279034683.1605711909-4.0295179244-1.995593797-6.7286847363-5.4857348323-8.4704659611-4.0110576077-2.0031121806-8.3497019259-3.1922922167-12.4504431084-4.9728065424-4.0062243611-1.7417140964-7.8223410247-3.7550969259-10.5885691325-7.3187771499-1.6900252097-2.1778139048-2.6276750401-4.6674057761-2.9568728328-7.3330755043-1.4607145124-11.87099055,5.0410761499-20.3620985016,14.9030472179-23.1519893789,10.3012594766-2.9153539023,19.5762596027-.3532297686,27.8867585288,6.1762178045.6127482568.482720499.822725968.8230280459.2352179987,1.5592590392-2.1142768512,2.6500959338-4.1834434012,5.3389585326-6.1822593627,8.0757843906-.6084520377.833332259-.8726695157.5965367424-1.4263447591.0065114572-2.2603483024-2.4120249771-4.8547276441-4.3659655869-8.2165191321-4.8472428247-4.2446645242-.6055655154-8.2584072688-.0635034894-11.2125949646,3.4548986125-2.6411007249,3.1443289576-2.0546668104,7.1052751965,1.2813473627,9.4745058031,2.9864093394,2.120889001,6.4658098268,3.1897077724,9.8340456436,4.4914286118,3.156109996,1.2202269324,6.2397212938,2.5841422569,9.1912238527,4.2572175395,6.0222251992,3.4148900716,9.3308509752,8.4225362662,9.7631580275,15.4412157954.7265980644,11.8476969867-5.5023826815,21.8553702997-17.1037854796,24.8367114431-12.3800925197,3.1805447425-24.4760975479-.3428248628-32.4160475719-12.0650588246-.3286607653-.4840295033-.3635675459-.7673785822.0880724927-1.1944160532,2.8752446688-2.7277299565,5.7247120227-5.4838216722,8.6348634722-8.2827077584Z"/><path class="cls-3" d="M297.1982851736,213.8433132866c4.9073563287,0,9.5923833162.031164371,14.277947331-.0271198834.9381868578-.0117306921,1.3044395406.3248008809,1.627730032,1.1451102256,4.3128670033,10.9173473725,16.7402179337,42.1828473165,18.6493503203,47.0079377612.8715954609-.9626887326,13.287668816-32.4544450306,19.1412674134-47.0570925499.2330698891-.5823390806.4016964909-1.0972644412,1.251810856-1.0895614545,4.781154891.0427608063,9.5606986999.020725901,14.5443129186.020725901-1.1363499662,2.7303144008-21.6137415365,51.3157365684-30.727096417,73.0120125026-.3598083542.8577670055-.7609678177,1.1386323327-1.6561924839,1.1050009921-1.8140785378-.0686052496-3.6346014043-.0634027967-5.4508280517,0-.8082262284.0283953235-1.1734048564-.2665669728-1.472529115-.9937691931-5.6156954617-13.623243809-25.3213786665-61.2263925262-29.5322104648-71.4176956438-.2148109577-.5202620703-.4038446005-1.0520198832-.6535623388-1.7055486578Z"/><path class="cls-3" d="M220.3083139465,233.3889119815c-2.6652669577-2.5502424027-5.2215173543-4.6919412152-8.2734440359-6.1037191062-12.0111546999-5.5550113662-26.4700802628.4116314977-31.0987193738,13.1495185188-3.5663989252,9.8110541583-2.3790313565,19.1407639502,4.7849140828,27.1078002934,4.7902843567,5.3285200626,11.1196892254,7.2709817119,18.1773032407,7.1971740094,5.6001216673-.0582674723,10.2319829427-2.3356999587,14.3278908787-5.9536199495.6030817637-.5331675099,1.1852194591-1.0882860145,1.7711163462-1.6266559772.5107130519.2782808829.2991242586.7104872426.3007353408,1.0456259008.0155737944,4.7360110257.0016110822,9.4732303631.020407041,14.2092413888.002685137.7180727545-.1031092597,1.1568576999-.8834100636,1.5321391558-14.5045728914,6.9849139318-32.8521138161,4.2196256219-44.1989656293-7.3951692968-7.0221702073-7.1881788005-10.4806266263-15.8656016937-10.6997338031-25.9107326674-.3684007925-16.9979910829,10.9558958702-31.8191584053,26.7106685354-36.5797048701,9.667030124-2.9219660521,19.105286578-2.3616786589,28.2095119928,2.2075517967.4897689836.2458075076.8710584335.4566411062.8672992417,1.1346885377-.0273883971,5.2109446275-.0155737944,10.4218556908-.0155737944,15.9858622658Z"/><path class="cls-3" d="M105.0203470029,284.5519481668c.0042962192,1.1878710319-.1718487662,1.6562596123-1.5305280736,1.6161168146-3.8236350471-.1125408033-7.6542514503-.0684709928-11.4816456891-.0193329862-.9279833373.0129222217-1.213681911-.2251822993-1.2120708288-1.1852530233.0252402875-23.2995376555.0268513697-46.5978334352-.0042962192-69.8972200517-.0010740548-1.050710879.3453086145-1.2565769741,1.3087357598-1.2448630641,3.7779877186.0517727972,7.5591976015.0775836764,11.3361112653-.0103042131,1.2512738286-.0285463624,1.5971194705.2703261646,1.5901381144,1.5604337866-.0553138216,11.5785623517-.0488694929,57.6975687365-.0064443287,69.1804227372Z"/><path class="cls-1" d="M39.071234879,227.8029879759c-.0139627122-1.375528542.4194183949-1.6227625286,1.6717662783-1.6072558626,4.3944951672.0557165922,8.8099344027-.0271198834,13.0567470365,1.288832182,8.7175656909,2.7018519489,13.7462902107,8.8573606345,15.5072030365,17.5930845642,1.7490982231,8.670911436-.5660268735,16.3378165943-6.8648211807,22.6408735565-3.7484512119,3.749894473-8.5510871987,5.2186308321-13.6711063755,5.791840447-2.8043570528.3144966678-5.6291211466.2859670874-8.4495890212.3222164366-1.0364628709.0141976617-1.2410703081-.3001983134-1.2362370616-1.2785279689.0418881367-7.5063675316.0633692325-37.3418642173-.0139627123-44.7510633548Z"/><path class="cls-1" d="M436.3195278741,236.2332104467c0-3.2000119855.0537027394-6.3999904068-.0279254245-9.5974850764-.0284624519-1.1140968936.3270496831-1.3418972014,1.3694198553-1.3211880825,3.1920908315.0622280493,6.3879408546-.0491380066,9.4844408099.9666493097,4.7118783572,1.5449942491,7.2412773841,5.2897869618,6.8755617286,10.2418508211-.4559362577,6.1490979211-3.9487624299,9.6971372222-10.0875225737,10.3454299797-2.0954808924.2212888506-4.1936469217.1747352884-6.2907388963.2614316484-1.0289444874.0426601136-1.3849936498-.1773197327-1.3538460609-1.2992370878.0891465474-3.197393977.0306105615-6.3974730909.0306105615-9.5974515122Z"/><ellipse class="cls-2" cx="263.0073620636" cy="250.0000041955" rx="38.205202882" ry="38.3394639261"/><rect class="cls-1" width="500" height="500"/></svg>