<?xml version="1.0" encoding="UTF-8"?><svg id="Layer_1" xmlns="http://www.w3.org/2000/svg" viewBox="0 0 500 500"><defs><style>.cls-1{fill:none;}.cls-1,.cls-2,.cls-3,.cls-4{stroke-width:0px;}.cls-2{fill:#0078bd;}.cls-3{fill:#262424;}.cls-4{fill:#fff;}</style></defs><path class="cls-2" d="M227.4390279784,113.5218608585h53.963549191s28.2808229053,0,52.5269662723,18.1792493027c0,0,37.8059634742,22.5115894837,38.3809276515,73.4471429617,0,0,2.5971035899,43.4320764949-37.806294484,72.5750560326,0,0-19.9132239186,17.0297140222-53.9642112108,19.6266521071h-53.10093742s-36.6464358326-.28735796-64.3522945606-30.5904030303c0,0-24.2451503374-25.683305553-23.3832005861-61.3233471941,0,0-1.1499283548-37.6628223852,25.9799731661-65.0809093908,0,0,22.5027142811-25.1079689895,61.7555219805-26.833440789h0Z"/><path class="cls-4" d="M317.6365746803,205.1482531229c0-46.7836964389-37.922809965-84.7070029188-84.6978173944-84.7070029188-46.7836136865,0-84.7070856712,37.9233064798-84.7070856712,84.7070029188,0,46.774945365,37.9234719848,84.6976725775,84.7070856712,84.6976725775,46.7750074293,0,84.6978173944-37.9227272125,84.6978173944-84.6976725775h0Z"/><path class="cls-2" d="M213.8785458515,155.3628141927v99.5614854547s-34.346910133-11.8258661793-34.346910133-51.3665904179c0,0-.5746331675-33.7621190996,34.346910133-48.1948950368h0Z"/><path class="cls-2" d="M252.1336897452,155.3628141927v99.5614854547s34.346910133-11.8258661793,34.346910133-51.3665904179c0,0,.5749641774-33.7621190996-34.346910133-48.1948950368h0Z"/><path class="cls-3" d="M95.2922670205,382.5061859772h1.8337947856c2.704350794,0,4.6457237936,0,4.6457237936-3.1992105782v-26.2405193251c0-4.2505807385-1.4468442253-4.8439987172-5.0326743539-6.7669179154v-1.5543396868c4.5470828466-1.366201941,9.9749830082-3.1909767072,10.3523342817-3.4871478055.6832044111-.3866609267,1.2581685885-.4853846261,1.7523663529-.4853846261.4766542403,0,.6739361342.5841083256.6739361342,1.3569336641v37.1773756948c0,3.1992105782,2.1300486364,3.1992105782,4.844329727,3.1992105782h1.6441261192v2.5162958007c-3.298182535,0-6.6857377401-.1886342606-10.1639896549-.1886342606-3.486196152,0-6.9723923041.0899519374-10.5499471855.1886342606v-2.5162958007h0ZM105.6449323122,325.8644771497c-2.5156751572,0-4.7364205032-2.3277029164-4.7364205032-4.8440400934,0-2.4264266158,2.319386293-4.6547851893,4.7364205032-4.6547851893,2.5070689001,0,4.7443647405,2.0397243129,4.7443647405,4.6547851893s-2.1383238836,4.8440400934-4.7443647405,4.8440400934h0ZM125.199341511,353.6505643994c0-3.5858715049-1.0691619418-4.5472897278-5.6073075214-6.3895666419v-1.8335465282c4.1601322863-1.3562716444,8.1236446984-2.6237912622,12.7696995019-4.6547851893.2879786035,0,.5752951873.1980266662.5752951873.9615009754v6.2996147045c5.5265411085-3.9626021349,10.2715678688-7.2611156799,16.7682989622-7.2611156799,8.2229476651,0,11.1255733827,6.0029057151,11.1255733827,13.5519586223v24.9823507366c0,3.1992105782,2.1300486364,3.1992105782,4.8439987172,3.1992105782h1.743098076v2.5162958007c-3.396823482,0-6.7850407069-.1886342606-10.2622995919-.1886342606-3.4961264487,0-6.9829846206.0899519374-10.4605745155.1886342606v-2.5162958007h1.7344918189c2.7225563379,0,4.6460548035,0,4.6460548035-3.1992105782v-25.072302674c0-5.5268307421-3.3703426909-8.2318849321-8.8962217796-8.2318849321-3.0919633741,0-8.0342720283,2.5163785532-11.2424198735,4.6460134272v28.6581741789c0,3.1992105782,2.1386548935,3.1992105782,4.8522739644,3.1992105782h1.7440911057v2.5162958007c-3.3882172249,0-6.7850407068-.1886342606-10.2629616117-.1886342606-3.486196152,0-6.9737163436.0899519374-10.4605745155.1886342606v-2.5162958007h1.7437600958c2.7139500808,0,4.6457237936,0,4.6457237936-3.1992105782v-25.6564109995h0ZM174.7783337109,358.2965778267c-.2072121906.8802794238-.2072121906,2.3270822729,0,5.6255130653.5660269104,9.1933445313,6.4881248363,16.7418181711,14.2254809941,16.7418181711,5.3285971948,0,9.4989907876-2.9024602126,13.0755526394-6.4883317175l1.3472102487,1.3662433173c-4.4570481568,5.9041820157-9.9746519983,10.9363184786-17.9006837929,10.9363184786-15.4028831697,0-18.5034528009-14.9176226723-18.5034528009-21.109162648,0-18.9794863977,12.7792987887-24.5963104534,19.5544091988-24.5963104534,7.8455963916,0,16.2750942275,4.9339920308,16.3651289173,15.1962088702,0,.5841083256,0,1.1594448891-.0900346898,1.7523249767l-.880486305.5753779397h-27.1931244097ZM191.9153776896,355.1961323241c2.4170342102,0,2.6957445369-1.2581685885,2.6957445369-2.4170342102,0-4.9339920308-2.9923293975-8.9059451951-8.420229559-8.9059451951-5.8946241052,0-9.9657147313,4.3493044379-11.1252423728,11.3229794053h16.849727395ZM205.1703376889,382.5061859772h2.6153091338c2.7050128137,0,4.6371175365,0,4.6371175365-3.1992105782v-27.2025581915c0-3.0011425358-3.5676245848-3.5852508614-5.032674354-4.3580348237v-1.4468442253c7.0726883005-3.0104935652,10.9458350129-5.5268721184,11.8266523278-5.5268721184.5746331675,0,.8619497512.2873993362.8619497512,1.2582099647v8.7166489147h.2072121906c2.4080969432-3.7739264982,6.4791875693-9.9748588795,12.3830799514-9.9748588795,2.41769623,0,5.5179348514,1.6442916241,5.5179348514,5.1313980534,0,2.6151022526-1.8331327659,4.9427637928-4.5474138565,4.9427637928-3.0105349414,0-3.0105349414-2.3276615402-6.3977591366-2.3276615402-1.6451191489,0-7.0644130533,2.2283585735-7.0644130533,8.0338168897v22.7539921632c0,3.1992105782,1.9334287623,3.1992105782,4.6463858134,3.1992105782h5.4189628945v2.5162958007c-5.3285971948-.0986823232-9.3728760199-.1886342606-13.5515448599-.1886342606-3.9631814023,0-8.0339410185.0899519374-11.5207991903.1886342606v-2.5162958007h0ZM242.4463543306,371.5605164692c1.2581685885,6.3895666419,5.1316463108,11.8171357935,12.2043346113,11.8171357935,5.6966801915,0,7.8267288279-3.4865685382,7.8267288279-6.8743720007,0-11.4310127579-21.100225381-7.746500306-21.100225381-23.3381004887,0-5.4187973896,4.3680064966-12.3925137332,15.0073263522-12.3925137332,3.1002386213,0,7.2610329274.8721283053,11.0269324357,2.8130875426l.6921416781,9.8674047942h-2.2293516031c-.970189985-6.0934369198-4.3580762-9.580005458-10.5588844525-9.580005458-3.8738087322,0-7.548680521,2.2283585735-7.548680521,6.3895666419,0,11.3410608205,22.4576969362,7.8451826292,22.4576969362,23.0413501231,0,6.3889873745-5.1319773207,13.1740694576-16.652445501,13.1740694576-3.8731467124,0-8.420229559-1.3569336641-11.808115774-3.2891625156l-1.0605556847-11.1343037685,1.743098076-.4941563882h0ZM357.6533532037,334.9584359617h-2.4167032004c-1.8427320526-11.3229380291-9.8766730711-15.8789995189-20.7139368404-15.8789995189-11.1434479167,0-27.3103019104,7.4497499404-27.3103019104,30.6885474624,0,19.5729043764,13.9471016774,33.6096683575,28.8554560728,33.6096683575,9.5797572006,0,17.5239945391-6.5870140407,19.4560992618-16.7505071807l2.2194213064.5747572962-2.2194213064,14.1360669479c-4.0614913393,2.5250675628-15.0076573621,5.1401698154-21.3971412515,5.1401698154-22.6546478202,0-36.9794317811-14.6208723067-36.9794317811-36.4134462469,0-19.8509526832,17.7216074429-34.0857019543,36.6921151973-34.0857019543,7.8359971048,0,15.3939459027,2.525108939,22.8436544669,5.1401698154l.970189985,13.839275206h0ZM361.1405423855,382.5061859772h1.832801756c2.7139500808,0,4.6645913573,0,4.6645913573-3.1992105782v-53.9278828755c0-6.2996560807-1.4557814923-6.4883317175-5.1405835778-7.5578246692v-1.5455679247c3.8734777223-1.2581272122,7.9356310814-3.0017218031,9.9746519983-4.1699384542,1.0516184177-.5747572962,1.8337947856-1.0695343279,2.1211113694-1.0695343279.5931697213,0,.7818453581.5934593549.7818453581,1.3662433173v66.9045049343c0,3.1992105782,2.1297176265,3.1992105782,4.8439987172,3.1992105782h1.6351888522v2.5162958007c-3.2793149713,0-6.6678632061-.1886342606-10.1547213779-.1886342606s-6.972723314.0899519374-10.5588844526.1886342606v-2.5162958007h0ZM423.2995654208,379.6930570584c0,1.7529456202,1.0612177045,1.8423182903,2.7056748335,1.8423182903,1.1681338986,0,2.6149781239-.0893726701,3.8820839794-.0893726701v2.0309525508c-4.1694005632.3860816594-12.1139689115,2.4263852396-13.9563699543,3.001183912l-.4845984777-.2967503656v-7.8358315998c-5.7969761879,4.7447371267-10.2536933348,8.1325819654-17.1377059985,8.1325819654-5.2306182676,0-10.6492501523-3.3878448387-10.6492501523-11.5210060715v-24.7937164761c0-2.5157579097-.3770202637-4.9421431493-5.7959831582-5.4182181223v-1.8428148051c3.4868581718-.0987236994,11.2245453395-.6740602629,12.482713928-.6740602629,1.0780992088,0,1.0780992088.6740602629,1.0780992088,2.8042744043v24.9730410835c0,2.9117698657,0,11.2423784973,8.411292292,11.2423784973,3.2889142581,0,7.6479834878-2.5251503153,11.7094748271-5.9041820157v-26.0518850645c0-1.9322288514-4.6463858134-2.99241215-8.1239757083-3.9719531643v-1.7342435615c8.7078771527-.5934179787,14.1357773142-1.357430179,15.097361042-1.357430179.7811833383,0,.7811833383.6740602629.7811833383,1.7441324819v35.7206011728h0Z"/><path class="cls-3" d="M53.1722516617,317.4345655514c-7.1620609706,0-12.6889330889.1886756368-16.7504244282.1886756368-3.7834430325,0-7.647321468,0-11.4218272334-.1886756368v2.5163785532c4.3491389329.0987236994,8.8962217796-.4766542403,8.8962217796,8.2318435559h0v46.9630210463c-.2780483068,6.587593308-3.0909703445,6.7762689448-8.8962217796,7.3603772704v2.5162958007c4.3491389329-.0986823232,8.6181734727-.1886342606,12.9676434155-.1886342606,4.5474138565,0,9.1034339702.1886342606,14.0457426244.1886342606,34.2661437201,0,39.8820574986-24.1108430748,39.8820574986-33.6996202949,0-17.1459398695-13.6508478267-33.8882959317-38.7231918769-33.8882959317h0ZM53.4602302652,381.9220776516c-4.7450267603,0-10.073954965-.8715076618-10.073954965-8.3212576022v-52.6703349305c1.7523663529-.1074540852,3.5772238716-.3954326888,7.557617788-.3954326888,18.6742539037,0,30.2936940409,13.075304382,30.2936940409,31.1739320885,0,14.4327759372-6.8661381297,30.2130931329-27.777356864,30.2130931329h0Z"/><path class="cls-3" d="M456.9904139536,340.7726660401c-5.3285971948,0-10.5496161757,3.6758234423-14.422762888,6.9737163437h0v-35.343911919c0-.7727839624-.1979439137-1.3662433173-.773239101-1.3662433173-.2965848606,0-1.0698239616.4947770317-2.1383238836,1.0695343279-2.0314076894,1.1682166511-6.0836307518,2.911811242-9.9660457411,4.1699384542v1.5455679247c3.6748717888,1.0694929517,5.1306532811,1.2581685885,5.1306532811,7.5578246692v41.6341342179c0,5.9041820157-.4945287743,11.5209646952-1.3475412585,17.2365124504l2.0221394125,1.0601419223,2.9026257176-2.2195868114c2.5246124242,1.0601419223,6.2994491996,3.3878448387,13.4525729031,3.3878448387,13.8567359777,0,23.1495076044-12.6892227226,23.1495076044-25.3690944158,0-10.550195443-6.7761034398-20.3363786856-18.0095860464-20.3363786856h0ZM452.5330347869,383.9617605883c-6.4881248363,0-9.9653837214-6.2003117378-9.9653837214-9.8849069421h0v-23.5180043634c2.6149781239-2.2283585735,5.6073075214-4.5560614899,9.2014128973-4.5560614899,7.548680521,0,15.4839805925,8.7079185289,15.4839805925,19.1681620345,0,8.6179665915-4.3584072098,18.7908107609-14.7200097685,18.7908107609h0Z"/><rect class="cls-1" width="500" height="500"/></svg>