<?xml version="1.0" encoding="UTF-8"?><svg id="Layer_1" xmlns="http://www.w3.org/2000/svg" viewBox="0 0 500 500"><defs><style>.cls-1{fill:#fff200;}.cls-1,.cls-2,.cls-3,.cls-4,.cls-5{stroke-width:0px;}.cls-1,.cls-3,.cls-4,.cls-5{fill-rule:evenodd;}.cls-2{fill:none;}.cls-3{fill:#00a4e0;}.cls-4{fill:#ef4123;}.cls-5{fill:#000;}</style></defs><path class="cls-1" d="M92.0267980604,203.5256311166c4.8284394516-1.6305146017,9.9934510066-2.5159723467,15.3683407552-2.5159723467,23.4553647347,0,43.0205882113,16.83691893,47.5090311477,39.2043004144l33.2384616758-6.8488424772c-7.6266971756-38.0145738741-40.8768970262-66.6295662791-80.7474928235-66.6295662791-9.1285490639,0-17.915132809,1.5028316247-26.1176163879,4.2712307162l10.7492756327,32.5188499724Z"/><path class="cls-3" d="M52.8068405256,312.3681095996l22.4725491863-25.675382049c-10.0311195376-8.97787494-16.3623999448-22.0846202352-16.3623999448-36.6946916888,0-14.5988184815,6.3254113198-27.7060489795,16.3536009791-36.6770750956l-22.484296692-25.6724428398c-17.0448469817,15.2533756895-27.7862940542,37.5336726062-27.7862940542,62.3495179355,0,24.8285725714,10.7571041929,47.1171832511,27.8068405256,62.3700737378Z"/><path class="cls-4" d="M154.8904723157,259.8324989815c-4.5041000568,22.3492796885-24.0595448313,39.1548937085-47.4972929728,39.1548937085-5.3778196269,0-10.5535989512-.8874172177-15.3830181392-2.5223266369l-10.7659031586,32.5154162296c8.2161718956,2.780155928,17.0066839171,4.2839672891,26.1489212978,4.2839672891,39.8393002182,0,73.0713982729-28.5778277385,80.7293910276-66.5532494808l-33.2320980548-6.8787011097Z"/><path class="cls-5" d="M298.7770386246,282.8060107044c-5.4888377546,5.3954175584-12.9315870927,8.6828716515-21.1497277919,8.5649673766-5.6326817164-.095379669-10.8520079899-1.7997663935-15.2895792813-4.6396022631l-11.0012078439,17.715537182c7.5342287232,4.8132861957,16.4181609409,7.6609412946,25.9952986339,7.8111115542,13.9413313952.20938366,26.6479336924-5.3254737119,35.8870156813-14.4642866807l-14.4417993981-14.987727169ZM248.6718273788,264.5900055195c-.1247530987-1.1770272907-.2128174027-2.3838945522-.1795436892-3.6019961242.2612257106-16.5306906619,13.7211799659-29.7210961129,30.0654967764-29.4471431603,8.8966407981.1203489504,16.7963018591,4.2374811307,22.1364809474,10.6098544809l-52.0224340347,22.4392848036ZM278.8576731056,210.6322935541c-27.7417860302-.4300109612-50.604242302,21.9667252912-51.0229909604,50.0245089608-.161927096,10.5154452174,2.844706559,20.3479488643,8.1344805435,28.5205924724l91.0672426978-39.3358930061c-5.1239279429-22.1687655937-24.632886559-38.8359475292-48.1787322809-39.2092084271ZM355.6034653556,187.7360876968v98.1132454573l16.8467256246,7.0572557317-7.9696422307,19.3514356684-16.6598479088-6.9985461956c-3.7458027627-1.641758243-6.2808753033-4.1430718673-8.2073542683-6.9682210221-1.8491824302-2.8902036502-3.220440125-6.8410232479-3.220440125-12.1718715136v-98.3832981261h19.2105589082ZM416.3351772698,233.0759918369c2.9464871723-.9994430743,6.1003798702-1.5356108047,9.3814703423-1.5356108047,14.316542435,0,26.2565616677,10.2742621139,28.9912018429,23.9303875843l20.292150545-4.1807497291c-4.6523108436-23.2039083955-24.9493880629-40.6714229809-49.2833523879-40.6714229809-5.575465112,0-10.9337086729.9172665193-15.9367838011,2.6054922591l6.5553134587,19.8519036713ZM392.3999003344,299.5074180973l13.7114199254-15.670164875c-6.12385622-5.4790963758-9.9797626898-13.481489794-9.9797626898-22.4006551979,0-8.9103571074,3.8559064698-16.9088315801,9.9739029332-22.3840090103l-13.7211986275-15.6696796722c-10.4024489553,9.310518767-16.9563068057,22.9147835252-16.9563068057,38.0536886826,0,15.1579773588,6.5587472015,28.7573714276,16.9719452644,38.0708200729ZM454.707849455,267.4420647667c-2.7493455517,13.6360642018-14.6878718527,23.9015180191-28.9916870457,23.9015180191-3.2835538093,0-6.4393873183-.5449573653-9.3907638417-1.5414705613l-6.570504038,19.8445509831c5.016810099,1.6965488335,10.3813986194,2.616754562,15.9612678796,2.616754562,24.3100027725,0,44.6021906408-17.4440289049,49.2789482396-40.6230053423l-20.2872611939-4.1983476606Z"/><rect class="cls-2" x="0" width="500" height="500"/></svg>