<?xml version="1.0" encoding="UTF-8"?><svg id="Layer_1" xmlns="http://www.w3.org/2000/svg" viewBox="0 0 500 500"><defs><style>.cls-1{fill:none;}.cls-1,.cls-2,.cls-3{stroke-width:0px;}.cls-2{fill:#71706f;}.cls-3{fill:#c8036f;}</style></defs><path class="cls-2" d="M371.5986352366,250.0556146452h-34.0909904584c-3.7817025307,0-6.8960717482-3.0031187122-6.8960717482-6.7848382148,0-3.7817025307,3.0587354789-7.1185048713,6.8960717482-7.1185048713h51.8872696086v-25.5821512784h-51.8872696086c-18.0743460119,0-32.8118896832,14.7375436713-32.8118896832,32.8118896832s14.7375436713,32.8118896832,32.8118896832,32.8118896832h33.5904904735c3.7817025307,0,6.8960717482,3.0031187122,6.8960717482,6.7848382148s-3.0587694227,6.5623711479-6.8404719533,6.5623711479h-72.0749509245c-6.1174709579,11.6788081923-12.0681085875,21.6892152143-24.1362002031,26.6944187253h96.6560513177c17.7962791502-.2780668617,32.3669894932-15.2936773947,32.3669894932-33.2011900783,0-17.9074957118-14.570710343-32.7006561498-32.3669894932-32.9787230115"/><path class="cls-2" d="M241.0184437608,210.5701202807c-28.8633368524,0-52.3878035372,23.6356832464-52.3878035372,52.7214701937v109.6695770519h26.1382850019v-56.7256397913h26.1939017686c28.8633368524,0,52.2765530319-23.9693668748,52.2765530319-53.0551538222,0-29.0301871525-23.3575994128-52.6102536322-52.2209362651-52.6102536322M241.0184437608,289.5411090097h-26.2495185353v-26.3607350969c0-14.7375436713,11.734424959-26.6944187253,26.2495185353-26.6944187253s26.3607350969,11.956875054,26.3607350969,26.6944187253-11.8456584925,26.3607350969-26.3607350969,26.3607350969"/><path class="cls-3" d="M105.877940478,316.235527735c-24.6923424125,0-45.4917402749-17.6294458219-51.1086900331-40.5977618114,0,0-1.6127886466-7.6190387999-1.6127886466-12.6242423109s1.5571761228-12.6798421058,1.5571761228-12.6798421058c5.6725622819-22.9683244754,26.4163518636-40.041628088,51.108694276-40.041628088,29.0301786666,0,52.8327037272,23.5800664797,52.8327037272,52.6102536322v12.7354588725h-77.1357542304c4.5602948351,8.8981395751,13.7365012719,13.9033430861,24.358658784,13.9033430861h69.2942568495l.1112335334-75.2448944791c0-11.2338995164-9.1762064368-20.4101059532-20.4101144391-20.4101059532H56.6601059532c-11.2338995164,0-20.4101059532,8.8981395751-20.4101059532,20.1320390915v98.2132104686c0,11.2339080023,9.1762064368,20.6881813008,20.4101059532,20.6881813008h98.2132104686c10.0660237887,0,18.4636464071-7.2297384048,20.0764308107-16.6840117033h-69.0718067545Z"/><path class="cls-3" d="M105.7667154305,235.2624542073c-10.5665407454,0-19.798363949,6.4511545863-24.358658784,14.793160438h48.7173090821c-4.5602863491-8.3420058516-13.7921095527-14.793160438-24.3586502981-14.793160438"/><path class="cls-3" d="M150.257413306,161.9640362461c0-23.9693626318-19.9095889965-43.4340429524-44.4906978755-43.4340429524-24.1918169698,0-43.8233391046,18.7973173066-44.4906978755,42.210550458v13.3472093627c0,1.5571761228,1.2791092611,3.1143522457,2.8918936647,3.1143522457h16.3503280749c1.6127844036,0,3.0031187122-1.5571761228,3.0031187122-3.1143522457v-12.1793251491c0-11.956875054,9.9547902553-21.6892152143,22.2453489378-21.6892152143s22.2453489378,9.7323401603,22.2453489378,21.6892152143v12.1793251491c0,1.5571761228,1.2791092611,3.1143522457,2.8918936647,3.1143522457h16.3503280749c1.6127844036,0,2.9475019455-1.5571761228,2.9475019455-3.1143522457l.0556337386-12.1237168683h0Z"/><path class="cls-2" d="M270.3266808031,350.1596848651l-2.3913682221,13.4028261294c-1.1678842136,6.7848382148-5.6169540012,9.8991904604-11.6231914256,9.8991904604-5.1164370444,0-9.0649729034-3.3368023407-7.8971056616-9.8435736937l2.3913682221-13.4028261294h3.6704859691l-2.3913682221,13.4028261294c-.7229670517,4.1710029258,1.1678842136,6.5623711479,4.7271366493,6.5623711479,3.6704859691,0,6.7848382148-2.1689181271,7.5078052665-6.5623711479l2.3913682221-13.4028261294,3.6148692024-.0556167667h0ZM256.0340542937,345.9886819393c0,1.1122674469.8342005852,1.6684011703,1.7796347038,1.6684011703,1.1678842136,0,2.3913682221-.8342005852,2.3913682221-2.3913682221,0-1.1122674469-.7229670517-1.6684011703-1.6684011703-1.6684011703-1.2235009803,0-2.5026017555.7785838185-2.5026017555,2.3913682221M263.8755262168,345.9330651726c0,1.1678842136.8898173519,1.6684011703,1.8352344986,1.6684011703,1.0010339135,0,2.3913682221-.8342005852,2.3913682221-2.3357684272,0-1.0566506802-.7785838185-1.6684011703-1.6684011703-1.6684011703-1.1678672418.0000169719-2.5582015504.7786007903-2.5582015504,2.3357684272"/><path class="cls-2" d="M279.1692036115,350.1596848651l-1.6684011703,9.2874399703c1.3903343086-1.8908512653,4.2266196926-2.8919021506,6.2287044913-2.8919021506,4.0597693924,0,6.8960717482,2.3913682221,6.8960717482,6.8404380096,0,6.2843042862-4.3934530208,10.0660068169-9.9547902553,10.0660068169-2.1689181271,0-4.0041695975-.8342005852-5.1164370444-2.8362853839l-.6117504902,2.3913851939h-3.1699690124l4.0597693924-22.8014826612h3.3368023407v-.0555997949ZM276.6110020612,365.7870458883c-.1112335334,2.6694350838,1.6127844036,4.4490697876,4.1153861591,4.4490697876,3.1699690124,0,6.2843042862-2.4469849888,6.4511545863-6.2287044913.1112335334-2.7250518505-1.6684011703-4.3378362541-4.1153861591-4.3378362541-3.1143522457,0-6.284321258,2.5582185222-6.4511545863,6.1174709579"/><path class="cls-2" d="M297.299183362,366.287562845c-.1112335334,2.2245348938,1.6128013755,4.0597693924,4.560303321,4.0597693924,1.6684011703,0,3.8373362692-.6673672569,5.005203511-1.7796347038l1.8352344986,2.1133013603c-2.0020678269,1.8352344986-4.9496037161,2.7806686172-7.4522054716,2.7806686172-4.6715368544,0-7.3965717331-2.7806686172-7.3965717331-7.0629050765,0-5.6725707679,4.4490697875-9.8991734886,10.1772403503-9.8991734886,5.2276705779,0,8.1751725234,3.1699690124,6.3955378196,9.8435736937l-13.1247422958-.0555997949h0ZM307.6988568354,363.5068942278c.2780668617-2.7806686172-1.3903343086-3.8929360641-4.115403131-3.8929360641-2.4470019606,0-4.7271366493,1.1122674469-5.7281705627,3.8929360641h9.8435736937Z"/><path class="cls-2" d="M319.4888985612,356.8332895464l-.1668333283,2.1689181271c1.5571676369-2.0577015655,3.503635669-2.5026017555,5.2276705779-2.5026017555,1.5571676369,0,3.0031356841.5561337234,3.7261027358,1.3903343086l-2.0577015655,2.9475019455c-.7229670517-.6673672569-1.4459341035-1.0010339135-2.6694350838-1.0010339135-2.3357684272,0-4.6159031158,1.3903343086-5.1720368393,4.3934530208l-1.5571676369,8.7313062468h-3.3924021355l2.8362684121-16.1278779799h3.2255348635Z"/><polygon class="cls-2" points="344.6261496496 356.8332895464 346.2945508199 369.5687484189 352.4676215727 356.8332895464 356.2493580471 356.8332895464 347.796118662 372.9611675263 343.7919490644 372.9611675263 342.179147689 362.3390100142 339.6209461386 367.6222803869 336.7846777265 372.9611675263 332.8361079238 372.9611675263 329.9442057732 356.8332895464 333.7815420424 356.8332895464 335.4499432128 369.5687484189 341.6786477041 356.8332895464 344.6261496496 356.8332895464"/><path class="cls-2" d="M360.642794096,366.287562845c-.1112335334,2.2245348938,1.6128013755,4.0597693924,4.560303321,4.0597693924,1.6684011703,0,3.8373362692-.6673672569,5.005203511-1.7796347038l1.8352344986,2.1133013603c-2.0020678269,1.8352344986-4.9496037161,2.7806686172-7.4522054716,2.7806686172-4.6715368544,0-7.3965717331-2.7806686172-7.3965717331-7.0629050765,0-5.6725707679,4.4490697876-9.8991734886,10.1772403503-9.8991734886,5.2276705779,0,8.1751725234,3.1699690124,6.3955378196,9.8435736937l-13.1247422958-.0555997949h0ZM370.9869017183,363.5068942278c.2780668617-2.7806686172-1.3903343086-3.8929360641-4.115403131-3.8929360641-2.4470019606,0-4.7271366493,1.1122674469-5.7281705627,3.8929360641h9.8435736937Z"/><path class="cls-2" d="M383.0549763621,356.8332895464l-2.8362684121,16.1278779799h-3.3924021355l2.8362684121-16.1278779799h3.3924021355ZM380.0518746217,352.4398365256c0,1.1678842136.8342005852,1.724017937,1.7796347038,1.724017937,1.3347345138,0,2.5582015504-.8342005852,2.5582015504-2.4469849888,0-1.1122674469-.8342005852-1.724017937-1.7240009652-1.724017937-1.2235009803,0-2.6138352889.7785838185-2.6138352889,2.4469849888"/><path class="cls-2" d="M398.0705868951,360.837459144c-1.056667652-1.1678842136-2.3913682221-1.501567842-4.0041695975-1.501567842-2.2245348938,0-3.8373362692.7785838185-3.8373362692,2.1689181271,0,1.1678842136,1.2791007752,1.6684011703,3.1699690124,1.8352344986,2.9475019455.2780668617,6.7292044762,1.2235009803,5.9506376296,5.450103701-.5561337234,3.0031187122-3.5592694075,4.782753416-7.7858721282,4.782753416-2.6138352889,0-5.1720368393-.6117335183-6.8960717482-3.0031187122l2.2245348938-2.3913682221c1.2235009803,1.6684011703,3.3368023407,2.3913682221,5.2832703727,2.3913682221,1.6128013755,0,3.5036356689-.6117504902,3.8373362692-2.1133013603.2780668617-1.4459510753-1.0010339135-2.0020847988-3.3368023407-2.2245348938-2.7806686172-.2780668617-5.7838043013-1.2791007752-5.7838043013-4.3378362541,0-4.0597693924,4.3934699927-5.450103701,7.6746385948-5.450103701,2.5026017555,0,4.3378362541.5561337234,5.8394040962,2.1689181271l-2.3357344835,2.2245348938Z"/><path class="cls-2" d="M408.7483611739,356.8332895464l-1.5571676369,8.6756894801c-.5005339286,2.7806686172.7786007903,4.6715198826,3.5592694075,4.6715198826,2.6694350838,0,4.9496037161-2.2245348938,5.3945039061-4.8939699776l1.501567842-8.4532393851h3.3924021355l-2.8362684121,16.1278779799h-3.0587354789l.2224670669-2.3357684272c-1.8908682372,1.8352344986-3.7817025307,2.6694350838-6.061871163,2.6694350838-4.0041695975,0-6.3399380247-2.8362853839-5.5057374396-7.7302553615l1.5571676369-8.6756894801h3.3924021355v-.0555997949Z"/><path class="cls-2" d="M435.9433138278,372.9611675263l1.5571676369-8.6200727134c.5005339286-2.7806686172-.44490019-4.6715198826-3.5592694075-4.6715198826-2.6694350838,0-4.9496037161,2.1689181271-5.450103701,4.8383701827l-1.501567842,8.4532224132h-3.3924021355l2.8362684121-16.1278779799h3.1143352738l-.2224670669,2.3357684272c1.8908682372-1.724017937,3.8373362692-2.6138352889,5.895003891-2.6138352889,3.948535859,0,6.506771353,2.7250518505,5.6169370293,7.7302553615l-1.5571676369,8.6756894801h-3.3367344532Z"/><path class="cls-2" d="M447.3996549533,375.1857024201c-.2224670669,2.2245348938,1.501567842,3.1143352738,4.3378362541,3.1143352738,2.5026017555,0,5.1720368393-1.3903343086,5.8394040962-4.9496037161l.5005339286-2.7806686172c-1.501567842,2.0577015655-4.1710029258,2.8919021506-6.1730707527,2.8919021506-4.1710029258,0-7.0629050765-2.4470019606-7.0629050765-6.951671543,0-6.3955378196,4.7271366493-10.0660237887,10.0660068168-10.0660237887,2.2801346886,0,4.2822364593,1.0566506802,5.005203511,2.8919021506l.5561337234-2.5582185222h3.2812025458l-2.8362684121,16.6284119085c-1.056667652,6.1730707527-5.6169370293,8.0639389899-9.7879399551,8.0639389899-5.005203511,0-7.7858721282-2.3913682221-7.0629050765-6.2843042862h3.3367683969ZM448.3450890719,365.8982624498c0,2.7806686172,1.8352344986,4.4490697876,4.3934699927,4.4490697876,7.0072713379,0,8.8981395751-10.7333740737,1.8908682372-10.7333740737-3.3368362844-.0556167667-6.2843382299,2.4469849888-6.2843382299,6.2843042862"/><rect class="cls-1" width="500" height="500"/></svg>