<?xml version="1.0" encoding="UTF-8"?>
<svg width="140px" height="80px" viewBox="0 0 140 80" version="1.1" xmlns="http://www.w3.org/2000/svg" xmlns:xlink="http://www.w3.org/1999/xlink">
    <!-- Generator: Sketch 52.5 (67469) - http://www.bohemiancoding.com/sketch -->
    <title>im/logo-pay/eps</title>
    <desc>Created with Sketch.</desc>
    <g id="im/logo-pay/eps" stroke="none" stroke-width="1" fill="none" fill-rule="evenodd">
        <path d="M42.278446,55.1818184 L57.2239217,55.1818184 C56.8729088,57.2424244 55.0561343,58.8181819 52.8782422,58.8181819 L31.6300516,58.8181819 C29.2031546,58.8181819 27.2174896,56.7568486 27.2174896,54.3113942 L27.2174896,32.900728 C27.2174896,30.4552735 29.2031546,28.5151524 31.6300516,28.5151524 L52.8782422,28.5151524 C55.3051393,28.5151524 57.2905637,30.5158796 57.2905637,32.9613341 L57.2699937,49.3636367 L42.278446,49.3636367 C39.9815849,49.3636367 37.9899053,48.2727276 37.0050723,46.3333337 L53.6817948,46.3333337 L53.6817948,43.5517581 C53.6817948,37.2269097 48.5311192,32.0853341 42.2541469,32.0853341 C36.9171386,32.0853341 32.4283113,35.8101825 31.2033749,40.8123642 C31.2033749,40.8123642 30.8707667,42.4873944 30.8707667,43.579152 C30.8707667,44.6709095 31.2221405,46.3288489 31.2221405,46.3288489 C32.4382956,51.3433942 36.9326564,55.1818184 42.278446,55.1818184 Z M42.254159,37.5280249 C44.5424793,37.5280249 46.5321139,38.9394188 47.5209166,40.7576006 L36.987642,40.7576006 C37.9764446,38.9394188 39.9661995,37.5280249 42.254159,37.5280249 Z M51.8774584,21.5526071 L51.8774584,24.2024252 C51.8774584,24.5425464 51.5799756,24.8787888 51.234015,24.8787888 L47.6923692,24.8787888 C47.3464085,24.8787888 47.0657666,24.5425464 47.0657666,24.2024252 L47.0657666,21.5526071 C47.0657666,18.9431526 44.9089257,16.8201224 42.2540748,16.8201224 C39.5992238,16.8201224 37.4423829,18.9431526 37.4423829,21.5526071 L37.4423829,24.2024252 C37.4423829,24.5425464 37.1390058,24.8787888 36.7930451,24.8787888 L33.2515196,24.8787888 C32.905559,24.8787888 32.6306911,24.5425464 32.6306911,24.2024252 L32.6306911,21.3590313 C32.6306911,21.3368495 32.6288867,21.3158798 32.6311723,21.2943041 C32.7708316,16.188486 37.023044,12.0909104 42.251308,12.0909104 C47.5676261,12.0909104 51.8774584,16.3270315 51.8774584,21.5526071 Z" id="Combined-Shape" fill="#C8036F"></path>
        <path d="M99.7537923,40.7575763 C103.603146,40.8134551 106.751917,44.0426671 106.751917,47.9429095 C106.751917,51.8433942 103.603146,55.1259396 99.7537923,55.1818184 L78.8466303,55.1818184 C81.458537,54.0909093 82.7451834,51.9090912 84.0683986,49.3636367 L99.6537091,49.3636367 C100.47326,49.3636367 101.140041,48.7570913 101.140041,47.9334549 C101.140041,47.1098186 100.47326,46.4545459 99.6537091,46.4545459 L92.3856486,46.4545459 C88.4704952,46.4545459 85.2850349,43.2383035 85.2850349,39.3030309 C85.2850349,35.3677583 88.4704952,32.1515159 92.3856486,32.1515159 L103.603146,32.1515159 L103.603146,37.7272734 L92.3856486,37.7272734 C91.5662174,37.7272734 90.8994372,38.4523642 90.8994372,39.2760006 C90.8994372,40.0996369 91.5662174,40.7575763 92.3856486,40.7575763 L99.7537923,40.7575763 Z M71.5087883,32.1515159 C77.7537628,32.1515159 82.8103698,37.2871522 82.8103698,43.6223035 C82.8103698,49.9574549 77.7419742,55.1818184 71.4969996,55.1818184 L65.8313528,55.1818184 L65.8313528,67.5454544 L60.1776148,67.5454544 L60.1776148,43.884849 L60.1776148,43.6424247 C60.1776148,37.3072734 65.263934,32.1515159 71.5087883,32.1515159 Z M71.5087883,49.3636367 C74.6513042,49.3636367 77.2078764,46.8306671 77.2078764,43.6223035 C77.2078764,40.4140612 74.6513042,37.8038794 71.5087883,37.8038794 C68.3662723,37.8038794 65.8313528,40.4140612 65.8313528,43.6223035 L65.8313528,49.3636367 L71.5087883,49.3636367 Z M76.4582027,61.6541212 C76.4582027,61.3101212 76.7497913,61.1455152 77.0057733,61.1455152 C77.1976395,61.1455152 77.3684546,61.2744849 77.3684546,61.5107273 C77.3684546,61.8403031 77.076866,62.0193334 76.8564905,62.0193334 C76.6501893,62.0193334 76.4582027,61.9047879 76.4582027,61.6541212 Z M74.7514957,61.6612728 C74.7514957,61.3101212 75.0361072,61.1455152 75.2919689,61.1455152 C75.4981499,61.1455152 75.6547705,61.2672122 75.6547705,61.5035758 C75.6547705,61.8403031 75.3844737,62.0193334 75.135589,62.0193334 C74.9365052,62.0193334 74.7514957,61.9047879 74.7514957,61.6612728 Z M77.8519093,62.5758182 L77.3399453,65.4967878 C77.0839633,66.9731514 76.1239105,67.6492726 74.8225884,67.6492726 C73.7204704,67.6492726 72.8671168,66.9253938 73.1161219,65.4992121 L73.6279656,62.5758182 L74.4174439,62.5758182 L73.9052393,65.4967878 C73.7488594,66.407212 74.1542444,66.925515 74.9221904,66.925515 C75.7115485,66.925515 76.38711,66.4524242 76.5505872,65.4992121 L77.0625512,62.5758182 L77.8519093,62.5758182 Z M79.759697,62.5757212 L79.404113,64.5941454 C79.7097757,64.1787515 80.3213417,63.9589939 80.7480185,63.9589939 C81.629761,63.9589939 82.2413271,64.4797212 82.2413271,65.4468727 C82.2413271,66.8154787 81.2954687,67.638509 80.0867717,67.638509 C79.6173912,67.638509 79.2191034,67.4627514 78.9774362,67.0186302 L78.8423479,67.5454181 L78.1524716,67.5454181 L79.0271169,62.5757212 L79.759697,62.5757212 Z M79.2050292,65.9820242 C79.1766402,66.5695393 79.5533957,66.9492969 80.1009662,66.9492969 C80.7907223,66.9492969 81.4590663,66.4117211 81.50177,65.5951151 C81.530159,65.0003272 81.1463063,64.6491757 80.61281,64.6491757 C79.9301512,64.6491757 79.2474924,65.2010545 79.2050292,65.9820242 Z M83.679253,66.090909 C83.6507438,66.5757575 84.0276195,66.9716363 84.6676948,66.9716363 C85.0232789,66.9716363 85.4924188,66.8315151 85.7484008,66.5879999 L86.1466886,67.0517575 C85.7130349,67.4527272 85.0729596,67.6523635 84.5326066,67.6523635 C83.5228731,67.6523635 82.9325988,67.0430302 82.9325988,66.1115151 C82.9325988,64.8718787 83.8996285,63.9481212 85.1369551,63.9481212 C86.2677027,63.9481212 86.9076577,64.6363636 86.5236847,66.090909 L83.679253,66.090909 Z M85.9263131,65.4848484 C85.9830911,64.8787878 85.6276274,64.6321212 85.0373531,64.6321212 C84.5042176,64.6321212 84.0135453,64.8787878 83.8000265,65.4848484 L85.9263131,65.4848484 Z M88.4803231,64.030303 L88.4447166,64.4975757 C88.7862264,64.0456969 89.1985884,63.9535757 89.5753438,63.9535757 C89.9167334,63.9535757 90.2223961,64.0756363 90.3859936,64.2546666 L89.9452427,64.8996363 C89.7887424,64.7567272 89.6323624,64.6850909 89.3620656,64.6850909 C88.8570785,64.6850909 88.3595496,64.9901818 88.2456328,65.642303 L87.9115811,67.5454544 L87.179001,67.5454544 L87.7976643,64.030303 L88.4803231,64.030303 Z M93.9141907,64.030303 L94.283849,66.8101817 L95.6207775,64.030303 L96.4385246,64.030303 L94.6039468,67.5454544 L93.743496,67.5454544 L93.3951295,65.2265454 L92.8332442,66.3785454 L92.2217984,67.5454544 L91.3684449,67.5454544 L90.7497816,64.030303 L91.5746259,64.030303 L91.9374274,66.8101817 L93.2812127,64.030303 L93.9141907,64.030303 Z M97.379066,66.090909 C97.3505567,66.5757575 97.7274325,66.9716363 98.3675078,66.9716363 C98.7230918,66.9716363 99.1922317,66.8315151 99.4482138,66.5879999 L99.8465015,67.0517575 C99.4128478,67.4527272 98.7727725,67.6523635 98.2324195,67.6523635 C97.222686,67.6523635 96.6324117,67.0430302 96.6324117,66.1115151 C96.6324117,64.8718787 97.5994415,63.9481212 98.836768,63.9481212 C99.9675156,63.9481212 100.607471,64.6363636 100.223498,66.090909 L97.379066,66.090909 Z M99.6261261,65.4848484 C99.682904,64.8787878 99.3274403,64.6321212 98.737166,64.6321212 C98.2040305,64.6321212 97.7133583,64.8787878 97.4998394,65.4848484 L99.6261261,65.4848484 Z M101.582933,63.0727151 C101.582933,62.7146545 101.881619,62.5424121 102.144818,62.5424121 C102.336684,62.5424121 102.514597,62.6786545 102.514597,62.9153818 C102.514597,63.2661697 102.251517,63.4528363 101.967146,63.4528363 C101.767942,63.4528363 101.582933,63.3233818 101.582933,63.0727151 Z M102.229985,64.0302909 L101.611562,67.5454423 L100.878982,67.5454423 L101.497646,64.0302909 L102.229985,64.0302909 Z M105.480355,64.8998303 C105.252762,64.6418909 104.961294,64.5702545 104.612927,64.5702545 C104.129112,64.5702545 103.787963,64.7352242 103.787963,65.0432242 C103.787963,65.3011636 104.065116,65.4089211 104.477719,65.4445575 C105.117674,65.5017696 105.935421,65.7169211 105.764726,66.6268605 C105.643953,67.286012 104.989683,67.6729211 104.079431,67.6729211 C103.510689,67.6729211 102.962998,67.5439514 102.59334,67.0209211 L103.069698,66.4978908 C103.332777,66.8631029 103.79506,67.0137696 104.207422,67.0209211 C104.555789,67.0209211 104.968391,66.8919514 105.032387,66.5623757 C105.096382,66.2471029 104.818988,66.125406 104.307024,66.0749817 C103.709653,66.0176484 103.055623,65.7958302 103.055623,65.1292848 C103.055623,64.2478303 104.001121,63.9398303 104.712409,63.9398303 C105.252762,63.9398303 105.65105,64.0615272 105.978245,64.4128 L105.480355,64.8998303 Z M107.792289,64.030303 L107.458237,65.9232726 C107.351538,66.5253332 107.621835,66.9413332 108.23328,66.9413332 C108.80924,66.9413332 109.299912,66.4604848 109.399274,65.8729696 L109.719251,64.030303 L110.451711,64.030303 L109.833288,67.5454544 L109.171921,67.5454544 L109.221602,67.0361211 C108.80924,67.4301817 108.403735,67.6159999 107.913303,67.6159999 C107.052852,67.6159999 106.540888,66.9944241 106.725657,65.9271514 L107.059949,64.030303 L107.792289,64.030303 Z M113.667365,67.5454544 L114.001657,65.6639999 C114.108116,65.0547878 113.902295,64.6512727 113.233711,64.6512727 C112.650654,64.6512727 112.159741,65.1238787 112.06038,65.7042424 L111.740402,67.5454544 L111.007943,67.5454544 L111.626726,64.030303 L112.29495,64.030303 L112.245269,64.544 C112.650654,64.1642424 113.069993,63.9769697 113.525059,63.9769697 C114.378412,63.9769697 114.933321,64.5751515 114.741334,65.6573333 L114.407042,67.5454544 L113.667365,67.5454544 Z M116.150005,68.030315 C116.100324,68.5151635 116.469983,68.7112847 117.088886,68.7112847 C117.62936,68.7112847 118.212537,68.4071635 118.347625,67.6334665 L118.454204,67.0298302 C118.134227,67.4812241 117.55105,67.6594059 117.117516,67.6594059 C116.221218,67.6594059 115.595578,67.1218302 115.595578,66.1470423 C115.595578,64.7572242 116.619386,63.9544363 117.778402,63.9544363 C118.269315,63.9544363 118.710186,64.1892242 118.866686,64.5905575 L118.98758,64.0303151 L119.698628,64.0303151 L119.086942,67.6499514 C118.859589,68.9900726 117.871027,69.4059514 116.967993,69.4059514 C115.886926,69.4059514 115.289915,68.8787998 115.438957,68.030315 L116.150005,68.030315 Z M116.356306,66.0036484 C116.356306,66.6052241 116.747377,66.9709211 117.309503,66.9709211 C118.823742,66.9709211 119.229247,64.6278909 117.714406,64.6278909 C116.996261,64.6278909 116.356306,65.1649818 116.356306,66.0036484 Z" id="Combined-Shape" fill="#71706F"></path>
    </g>
</svg>