<?xml version="1.0" encoding="UTF-8"?><svg id="Layer_1" xmlns="http://www.w3.org/2000/svg" viewBox="0 0 500 500"><defs><style>.cls-1{fill:none;}.cls-1,.cls-2{stroke-width:0px;}.cls-2{fill:#f60;}</style></defs><rect class="cls-2" x="426.6224786038" y="324.0447097099" width="25.8775213962" height="25.8775213962"/><polygon class="cls-2" points="374.1894500098 208.8954296116 389.6142520453 324.4402157965 404.9825624484 208.8954296116 428.9390450442 208.8954296116 406.5080951622 349.8657179204 372.3814160275 349.8657179204 350.1764757817 208.8954296116 374.1894500098 208.8954296116"/><path class="cls-2" d="M60.7777616814,208.8954296116h-13.2777616814v18.7583687316h13.2777616814v122.2684112095h23.3914611996v-122.3249082301h16.4418238447v-18.7583687316h-16.4418238447v-28.5895669813c0-4.1810812783.8475172763-7.4016458505,2.8815582006-9.5486888987,2.0340409243-2.203542763,5.1416006785-3.2205632252,9.3226819568-3.2205632252h4.2375836873v-19.2103785743h-8.4751673746c-10.396206175,0-20.3969008751,2.2035434366-25.1429954671,6.7236331072-4.7460932448,4.520088997-6.1586224877,11.526227414-6.1586224877,21.5269248082v32.3186343756l-.0564997149.056502409Z"/><rect class="cls-2" x="107.8996904523" y="208.8954296116" width="23.4479663028" height="140.9702883087"/><path class="cls-2" d="M239.603793825,287.3754868289h48.8734738151v-43.4493610914c-.0564916323-25.9905154375-12.5432546116-36.669222881-36.2172143855-36.669222881s-36.1607119764,10.6222104228-36.1607119764,36.8387301081v71.4174177384c.056502409,23.8434777777,14.520795821,36.1607227532,36.1607119764,36.1607227532s36.1607227532-10.1701965389,36.2737275712-36.1607119764v-11.3002231662h-22.6569595181v13.3907691937c0,9.5486915929-3.5595763323,16.1593225762-13.1647703343,16.1593225762s-13.1082571485-6.6671333923-13.1082571485-16.1593225762v-30.2281206783ZM239.603793825,239.2365335546c0-7.96665647,2.0905352508-16.2158195968,13.0517655162-16.2158195968s13.1647487808,8.1361583088,13.1647487808,16.1593171878v29.1545749066h-26.216514297v-29.1545749066.056502409Z"/><path class="cls-2" d="M184.0631973943,269.7471339479c-17.6848445133-15.5378068535-19.1538748181-17.68485529-19.1538748181-29.1545749066,0-9.8311928614.8475145821-15.7638111013,9.661696411-15.7638111013s9.9441976794,5.8761158309,9.9441976794,15.8768159194v12.9952523304h22.6004463324v-21.2444208456c-.056502409-16.6678280924-12.8822582891-25.1429954671-33.0531549164-25.1429954671s-32.7706428712,6.6106309833-32.8836476893,33.2791591642q0,4.5200849558,0,2.7685533825c0,8.3621625565.056502409,21.6399269321,20.79241235,39.4377762635l5.9326128515,5.0850982694c15.255305585,12.8822582891,16.9503347493,14.4077802262,16.8938323402,29.7195882203,0,9.4356867748-.5650133137,16.6113310718-10.5092109931,16.6113310718s-10.5092109931-7.232146706-10.5092109931-11.6392268437v-18.0238589675h-23.7304621829v18.5888722812c0,22.8829476008,14.9162911308,28.5895723697,34.239673176,28.5895723697s34.239673176-5.7066032154,34.239673176-35.2001925762v-2.429549705c0-20.5664027139-3.7855751917-26.1035094789-24.4649827237-44.2968756735v-.0565131858Z"/><path class="cls-2" d="M319.8353826155,223.4162200443v-14.5207850442h-21.357414887v140.9702829203h23.0524440512v-98.2554369813c0-7.5711503835,2.4860413373-12.5997462439,6.7801382104-15.5378068535,4.0680872369-2.8250557915,9.0966830973-3.7855751917,15.4813152212-3.8420776008v-24.9734936283c-12.2042401573.2260042478-17.5153372862,2.6555539528-23.7304729597,15.5943092625l-.2260096361.5085109046v.0564970207Z"/><rect class="cls-1" width="500" height="500"/></svg>