<?xml version="1.0" encoding="UTF-8"?>
<svg id="Layer_1" data-name="Layer 1" xmlns="http://www.w3.org/2000/svg" version="1.1" viewBox="0 0 500 500">
  <defs>
    <style>
      .cls-1 {
        fill: none;
      }

      .cls-1, .cls-2, .cls-3 {
        stroke-width: 0px;
      }

      .cls-2 {
        fill: #5dc4e9;
      }

      .cls-3 {
        fill: #1f3a6a;
      }
    </style>
  </defs>
  <rect class="cls-1" width="500" height="500"/>
  <g>
    <g>
      <path class="cls-3" d="M140.962771,333.9816191h-10.7776175v61.2839571h10.777648l-.0000305-61.2839571ZM105.9407584,365.0274266c.0755123,4.6307163-1.1519519,9.1894393-3.542391,13.156171-4.0926262,7.7988512-13.7325668,10.8033277-21.531418,6.7107015-1.3494656-.7081606-2.5904566-1.6061097-3.6851102-2.6664422-4.0821223-4.9506664-6.0821601-11.2931195-5.5783223-17.6899167-.5430443-6.9119938,2.0737027-13.6980168,7.1167824-18.4559482,2.5742885-2.4959747,6.0141898-3.899563,9.5997875-3.9169983,3.7111868.0998561,7.2852271,1.4239397,10.1657022,3.7661111,7.806378,6.5236536,7.4545725,18.5015747,7.4545725,19.0951081M111.4366371,412.4191891c4.5653491-6.0289839,4.9259639-12.2876803,5.2545477-25.1300844l-.1368718-53.3098826h-10.2617491v9.4673051c-1.3501831-2.1623373-3.0183546-4.1089852-4.9483763-5.7744391-4.1226266-3.3665493-9.3351433-5.1072865-14.6534169-4.8935436-8.2561235.0094734-15.9701187,4.1127944-20.592354,10.9537416-4.2157421,6.2821623-6.3420561,13.7342233-6.0762058,21.2951329-.0649168,4.3757134.5480062,8.7350907,1.8170128,12.9232447,1.5216507,5.2214023,4.4981728,9.9017756,8.5816233,13.4939687,4.5687537,3.7225305,10.3935979,5.5464594,16.2695267,5.0944543,5.3194187-.2019565,10.442713-2.0613667,14.6534169-5.318182,1.5803995-1.3439388,2.9689189-2.8983685,4.1267182-4.6197925l-.0868559,8.4087206c-.0823979,2.7748099-.5620674,5.5234668-1.4243977,8.1621682-.5874112,1.7211491-1.5227958,3.3029685-2.7479393,4.6469989-3.569399,3.8481502-8.7045407,5.8497452-13.9366149,5.4322444-5.3043498-.0195575-10.5705007-.8980864-15.5939465-2.6014644-2.1050466-.7922837-4.1314053-1.7796536-6.0526025-2.9492393l-1.1414327,10.6727766c1.7257599.6939925,2.9944765,1.1642574,4.834314,1.7942034,5.5938187,1.7110574,11.4104185,2.5832963,17.2600722,2.5882581,6.0800684.2195903,12.1141211-1.1312341,17.5202278-3.9221968,2.8957273-1.5600328,5.4029769-3.7521338,7.3357162-6.4135989M129.4639545,319.4006382h11.8002244v-12.0967698h-11.800255l.0000305,12.0967698ZM180.9884429,343.0787139c2.5446088.0286186,5.0622249.525441,7.4269538,1.4656196v-10.7652281c-.5430901,0-3.8481655-.5114867-6.5965017-.5114867-5.5250088-.2520868-10.8552062,2.0691683-14.4340862,6.2859257-1.0988215,1.4802457-2.0991381,3.0311181-2.9944765,4.6426019l-.5523116-10.2161303h-10.3077802c.3285839,7.6843079.6071519,13.0373071.6071519,20.6059495,0,8.8785809-.1688874,15.1416895-.1688874,23.9334221v16.7349823h11.1294077v-29.994017c.3329808-5.8112563.6707862-13.5031673,6.6281052-18.7305009,2.5379522-2.2835677,5.8489513-3.5172304,9.2623943-3.4511381M237.3240084,364.0320643c0,6.6965487-2.0811532,16.5064606-10.3077802,21.1490472-4.928086,2.679618-10.8359998,2.8592078-15.9177364.483868-1.0532027-.5606933-2.0579163-1.2080899-3.0036979-1.9354874-2.593159-2.1457341-4.5963876-4.9172004-5.8204625-8.0525181-1.5223988-3.7579965-2.2168188-7.8000267-2.0359313-11.8506449-.1329175-6.6659071,2.5661663-13.0757121,7.4273508-17.6386871,3.3501446-2.8691086,7.6269561-4.4261491,12.0375401-4.3824539,7.2054246.0789627,13.5548396,4.7522596,15.7720554,11.6085047,1.2182427,3.4078628,1.8435017,6.9992925,1.8486315,10.6183562M239.720524,388.513378c6.17781-6.6970525,9.4237091-15.5848777,9.0158572-24.6870413.3646759-11.5097174-5.6712394-22.2757928-15.6807872-27.9692767-14.3882841-6.6259219-31.4589801-1.7331951-40.15291,11.5084502-2.8480321,5.3680375-4.3133921,11.3612119-4.26359,17.4377765-.5888921,9.2111037,2.8858951,18.2180448,9.5085345,24.6470332,1.2229756,1.0533096,2.5281201,2.0072745,3.9029752,2.8527955,4.9476282,3.0025682,10.6872959,4.4395004,16.4660174,4.1223059,4.439592.1562002,8.8596417-.6602517,12.9504664-2.3921338,3.0678513-1.3151598,5.8660508-3.1863259,8.2534364-5.5191003"/>
      <path class="cls-3" d="M258.2373126,347.009323c.3285839,11.8466372.3285839,20.2681595.3285839,32.1732324,0,14.8483198-.2465371,29.7086551-.3285839,44.5401655h10.9421384v-36.7473908c1.0461186,1.3908554,2.203353,2.6945189,3.4603443,3.8981813,4.1726271,3.6571251,9.5525656,5.6379871,15.1004753,5.5599099,7.3423422.0360309,14.3627571-3.0111331,19.3508438-8.3991022,5.8986618-6.9916207,8.9019323-15.9734165,8.3951174-25.1068781-.0450387-4.5856547-.875674-9.1296753-2.4557834-13.4347314-3.5389711-10.3692312-13.4107464-17.2314841-24.3632666-16.9358929-6.062114-.083604-11.9221189,2.1782612-16.3559704,6.3131398-1.4500621,1.3204423-2.7236948,2.8224822-3.7893251,4.4689053l-.4742649-9.3576473h-10.3125741c.283362,4.8887497.3289808,8.184596.5022652,13.0281085ZM268.9877542,364.0956986c.0094047-2.8925287.4336843-5.768752,1.259892-8.5407908,1.9109528-7.6664604,8.6784183-13.1330562,16.5753011-13.3891049,6.539982.0793215,12.4030099,4.0496257,14.904351,10.0928617,1.7609053,3.9359527,2.5364866,8.2416195,2.259659,12.5446298.0063512,3.2171049-.5322503,6.4120569-1.5929034,9.4492972-1.9699153,7.2698223-8.5058057,12.3639254-16.0365775,12.4990109-7.6988348-.3009805-14.2690156-5.6609798-16.1098302-13.1425602-.901201-3.0886149-1.3260607-6.2966052-1.259892-9.5133437Z"/>
      <path class="cls-3" d="M428.390709,333.9752221l-13.6664745,33.1689917-6.1798558,16.0626007-.4254094.8656891c-1.5528724-4.5981739-3.692866-10.3357957-5.6467811-15.7876434l-12.6690892-34.3112336h-11.759766l24.6137733,61.2715524-11.993906,28.4759694h10.9733754l38.3634242-89.7459263h-11.609291Z"/>
      <path class="cls-3" d="M369.9927691,341.9188688c-3.1949978-5.3493961-11.4360066-9.1163087-21.0586187-9.1163087-6.7853283-.2853009-13.4943504,1.5222385-19.2179568,5.1776995v9.6313985c5.1180423-3.3905954,11.0299868-5.391595,17.155216-5.8064547,6.1141452-.3015683,11.8639504,2.9136664,14.8082888,8.2806428.8024823,2.6175027,1.175769,5.3476862,1.105417,8.0845338-2.835177-.1404825-5.8576843-.2561403-8.8021449-.2561403-7.011224-.3848593-14.0248602.7118248-20.5839264,3.2186011-6.7718625,2.6159607-11.2079735,9.1612634-11.1290413,16.4203986-.1057111,5.4163358,2.1524212,10.6102263,6.1854742,14.2271831,3.6678886,2.7745656,8.1325801,4.2925979,12.7315326,4.3288274,5.6276053.2824612,11.2098667-1.1365929,16.0193864-4.0722901,2.3936758-1.9274568,4.5704026-4.109802,6.4916456-6.5084549v9.725453h9.3624565v-39.5581629c.1996053-4.7815424-.8581471-9.5318401-3.0677292-13.7769261ZM363.0540651,367.6532959c.1079401,2.7911765-.2057428,5.5826583-.9305143,8.2802459-.5802508,1.900968-1.5107346,3.6767131-2.7435423,5.2357383-3.3669997,4.1990244-8.4925842,6.5970208-13.8737745,6.4908364-5.0396293,0-11.7453841-2.6234646-11.7453841-9.818309,0-7.1440041,8.337071-10.9129167,12.9592604-11.6829483,2.6806103-.3972029,5.3902286-.564701,8.0993278-.5006774,2.7439393,0,5.4922756.0824437,8.2346271.3141791v1.680935Z"/>
    </g>
    <path id="path350" class="cls-3" d="M309.4001648,133.1219329h-15.6026897v4.1754799h12.2826973l30.9727888,125.9800501h-158.4675058l30.9727888-125.9800501h12.2826973v-4.1754799h-15.6058759l-34.3068003,135.2942696h171.781886l-34.3099865-135.2942696Z"/>
    <path id="path354" class="cls-2" d="M287.9495729,76.2772989h-60.2613665c-3.3767063,0-6.1200013,2.7466405-6.1200013,6.1199615v59.1081909h4.5301009v-59.1082108c0-.8594304.7270847-1.5863956,1.5899004-1.5863956h11.2338092v42.6319919h-11.8066831l16.9128441,18.0626145h27.5814261l16.9128441-18.0626145h-11.8066831v-42.631972h11.2338092c.8628157,0,1.5899004.7269453,1.5899004,1.5863956v59.1081909h4.5339243v-59.1082108c0-3.373301-2.7471185-6.1199615-6.1238247-6.1199615"/>
    <path id="path358" class="cls-3" d="M247.5616426,146.9628282c-1.2387841,0-2.3099755,1.0149355-2.3813458,2.2503742l-.6295878,10.7482762c-.0720075,1.2354386.8838444,2.2451369,2.1194424,2.2451369h22.2987511c1.2355979,0,2.1857148-1.0096783,2.1137072-2.2451369l-.6238527-10.7482762c-.0720075-1.2354386-1.1425617-2.2503742-2.3813458-2.2503742h-20.5157687ZM277.6926445,146.9628282c-1.2355979,0-2.1602254,1.0096783-2.0563561,2.2451369l.923353,10.7640079c.1038692,1.231894,1.2037362,2.2346424,2.4386969,2.2346424h22.4618832c1.2355979,0,2.0487093-.9927518,1.8046484-2.2031391l-2.1927243-10.8322319c-.2466098-1.2103873-1.4605418-2.2083963-2.6961397-2.2083963l-20.6833614-.0000199ZM217.1579043,146.9682048c-1.2355979,0-2.4476182.9892072-2.6910418,2.203179l-2.1825286,10.832192c-.2434236,1.2139718.5696878,2.2084362,1.8046484,2.2084362h22.551096c1.2355979,0,2.3354649-1.0133026,2.4393341-2.2451568l.923353-10.7587707c.1038692-1.2318741-.8264933-2.2398797-2.061454-2.2398797h-20.7834072ZM213.4702276,166.8806119c-1.4146609,0-2.7942738,1.1356318-3.0740198,2.5179131l-2.8216749,14.0215314c-.279746,1.3858658.6467931,2.517933,2.061454,2.517933h24.6495096c1.4133864,0,2.6681014-1.1525583,2.7898132-2.559871l1.1909915-13.9376355c.1217118-1.4073327-.9354604-2.559871-2.3501213-2.559871h-22.4459523ZM246.7173067,166.8806119c-1.4114747,0-2.6349652,1.1542111-2.7178057,2.5651282l-.8182093,13.9271211c-.0822033,1.4109171,1.0125658,2.5651083,2.4234033,2.5651083h24.4239286c1.4140236,0,2.5094299-1.1541912,2.4234033-2.5651083l-.8131114-13.9271211c-.0822033-1.410937-1.3076054-2.5651282-2.7222663-2.5651282h-22.1993425ZM279.7171389,166.8806119c-1.4108375,0-2.4667352,1.1542111-2.3443862,2.5651282l1.1903543,13.9323783c.1178884,1.4108972,1.3764268,2.5598511,2.7910876,2.5598511h24.5806883c1.4114747,0,2.3405628-1.1320672,2.0620912-2.5179131l-2.8331451-14.0215314c-.279746-1.3858459-1.6682802-2.5179131-3.0791177-2.5179131h-22.3675725ZM209.1739917,191.4354125c-1.7651399,0-3.4977808,1.4177276-3.8450737,3.1473615l-3.5245447,17.5256448c-.3479301,1.7295942.8061018,3.1526187,2.5750651,3.1526187h26.758119c1.7651399,0,3.3346488-1.4432169,3.4882223-3.205091l1.4898545-17.4207201c.1503874-1.7618542-1.1776096-3.1998139-2.9427495-3.1998139h-23.9988931ZM245.9252241,191.4354125c-1.7689633,0-3.2989636,1.4432169-3.3990095,3.2050711l-1.0125658,17.4102456c-.1076927,1.7654187,1.2559894,3.2050512,3.0211293,3.2050512h26.5637625c1.7689633,0,3.1307337-1.4396325,3.0268645-3.2050512l-1.0176637-17.4102456c-.1000458-1.7618542-1.6300462-3.2050711-3.3990095-3.2050711h-23.7835078ZM282.466169,191.4354125c-1.7696005,0-3.0931369,1.4379598-2.9433867,3.1998139l1.4898545,17.4207201c.1542108,1.7618741,1.7230824,3.1998338,3.4888596,3.1998338h26.7154243c1.7657771,0,2.9268186-1.4177674,2.5763396-3.1473815l-3.54175-17.5256448c-.350479-1.7332184-2.0843944-3.1473615-3.8495344-3.1473615l-23.9358069.0000199ZM203.723724,221.7236321c-2.1194424,0-4.1974645,1.6998632-4.6161276,3.7768498l-4.4695636,22.2204907c-.4186631,2.0805312.974969,3.7768498,3.0950486,3.7768498h29.658811c2.1200796,0,4.0018334-1.7270253,4.1815336-3.8398165l1.8932241-22.0945573c.1822491-2.1163757-1.4051023-3.8398165-3.5251819-3.8398165h-26.2177441ZM244.7973188,221.7236321c-2.1168934,0-3.9559525,1.7286582-4.0814878,3.8450339l-1.284665,22.0840827c-.1255352,2.1127912,1.5083344,3.8450737,3.6245905,3.8450737h29.5224428c2.1200796,0,3.7514002-1.7322825,3.6296884-3.8450737l-1.2897629-22.0840827c-.1255352-2.1163757-1.9614082-3.8450339-4.0814878-3.8450339h-26.0393184ZM285.6975858,221.7236321c-2.1200796,0-3.7080683,1.7270253-3.5251819,3.8398165l1.8881262,22.0945573c.1828863,2.1127912,2.0665519,3.8398165,4.1859942,3.8398165h29.658811c2.1200796,0,3.5124372-1.6963186,3.0893134-3.7768498l-4.4893179-22.2204907c-.4231238-2.0769866-2.5017831-3.7768498-4.6218627-3.7768498h-26.1858823Z"/>
  </g>
</svg>