<?xml version="1.0" encoding="UTF-8"?><svg id="Layer_1" xmlns="http://www.w3.org/2000/svg" viewBox="0 0 500 500"><defs><style>.cls-1{fill:none;}.cls-1,.cls-2,.cls-3,.cls-4,.cls-5,.cls-6{stroke-width:0px;}.cls-2{fill:#34a853;}.cls-3{fill:#5f6368;}.cls-4{fill:#4285f4;}.cls-5{fill:#e94235;}.cls-6{fill:#fabb05;}</style></defs><g id="GPay-Light-themed-buttons"><g id="GPAY---SVGs"><g id="GPay-Brand-Mark"><g id="GPay"><g id="Pay"><path id="Fill-1" class="cls-3" d="M239.1817606204,193.9688814985v40.0969023563h24.7291736062c5.8882197418,0,10.7594955671-1.980246342,14.6149496828-5.9364746397,3.9611660081-3.9507465087,5.9364746397-8.6642230152,5.9364746397-14.1163531455,0-5.3420416308-1.9753086315-9.997965947-5.9364746397-13.9585708517-3.8554541157-4.0613790866-8.726729941-6.0948180369-14.6149496828-6.0948180369h-24.7291736062v.0093143175ZM239.1817606204,248.1826981037v46.5130082362h-14.7683557427v-114.8431961316h39.1807336115c9.9546454818,0,18.3936415669,3.3183659646,25.3564866613,9.9453525869,7.077983525,6.6264074579,10.6067632045,14.7015840575,10.6067632045,24.2150932745,0,9.7337984366-3.5287796795,17.861606541-10.6067632045,24.3783577163-6.8477066637,6.5262110453-15.3058924873,9.7820700003-25.3564866613,9.7820700003h-24.4123778688v.0093143175Z"/><path id="Fill-3" class="cls-3" d="M314.4798227356,270.6334417974c0,3.8553577464,1.630117781,7.0581363138,4.9003456718,9.628663499,3.2706673993,2.5605395435,7.0871809347,3.8460275775,11.4796110645,3.8460275775,6.2147819574,0,11.7387333309-2.3019986369,16.6105702597-6.8954004581,4.8718369288-4.6039661355,7.3074748414-9.99358934,7.3074748414-16.1887487703-4.6027317079-3.643902016-11.028600788-5.4564906432-19.2664973919-5.4564906432-5.994043855,0-11.0002089528,1.4476469348-15.0089518191,4.3342836886-4.008864518,2.8866689988-6.0225526264,6.4543892586-6.0225526264,10.7316651065M333.5929194869,213.5383747605c10.9240060563,0,19.5355975667,2.9102192217,25.8556482331,8.740981969,6.3201514884,5.8313238507,9.4653608405,13.8194171928,9.4653608405,23.9756143164v48.440735294h-14.1262285664v-10.9042602606h-.6421268032c-6.0998679681,8.9765332028-14.2326137831,13.4642387007-24.3982374448,13.4642387007-8.6696096084,0-15.9388171937-2.5599784401-21.7602656234-7.6910451688-5.8400770647-5.1403965492-8.7556828797-11.5464992845-8.7556828797-19.2571830745,0-8.122870394,3.0690115018-14.5865578476,9.2258875818-19.396448954,6.1567638593-4.8094422237,14.3760318282-7.2209526874,24.6469184997-7.2209526874,8.7748726181,0,16.0055885058,1.6061025528,21.6736312487,4.8088811202v-3.3710138814c0-5.1304891295-2.0328778468-9.4839786791-6.099194644-13.0665120703-4.075738011-3.5869099982-8.8225664125-5.3704334661-14.2889435044-5.3704334661-8.2477770912,0-14.7695948636,3.4717715676-19.583862577,10.429117848l-13.0138970612-8.1852650991c7.1831387383-10.265948961,17.7711613545-15.3964545862,31.8009927004-15.3964545862"/><g id="Group-7"><polygon id="Fill-5" class="cls-3" points="450 216.1034031317 400.6962875797 329.3350919726 385.4478584432 329.3350919726 403.7555426999 289.718045298 371.3210624171 216.1034031317 387.3848934624 216.1034031317 410.8235317646 272.5611847066 411.1402185592 272.5611847066 433.9361765358 216.1034031317 450 216.1034031317"/></g></g><g id="G"><path id="Fill-8" class="cls-4" d="M179.4922460316,238.1563403215c0-4.6467222194-.3928846548-9.1300511103-1.1364589829-13.4215948375h-62.2978602134v25.4140591544h35.6804578996c-1.5299047412,8.2855903983-6.1617017254,15.3343965432-13.1913856419,20.0533888886v16.5042972638h21.2950665022c12.4676070445-11.4889300692,19.6501804364-28.4731952353,19.6501804364-48.5501504693"/><path id="Fill-10" class="cls-2" d="M116.0579268353,302.6454202052c17.8281831803,0,32.8365610353-5.8499676761,43.7841387598-15.9389294144l-21.2950665022-16.5042972638c-5.9266554788,3.9891089606-13.5607376168,6.320044967-22.4890722577,6.320044967-17.2286822699,0-31.8536199638-11.6045173826-37.0854610066-27.2414609131h-21.9377993133v16.9986294148c10.8708187688,21.5591661422,33.2157547652,36.3660132094,59.0232603199,36.3660132094"/><path id="Fill-12" class="cls-6" d="M78.9724658287,249.280777581c-1.3381195726-3.9846201329-2.071257376-8.2378966039-2.071257376-12.6302145131,0-4.3874924194.7331378034-8.6407858186,2.071257376-12.6303267338v-16.9991905182h-21.9377993133c-4.4932044254,8.9097618906-7.0346665154,18.9701225427-7.0346665154,29.629517252,0,10.6592824886,2.54146209,20.7295185617,7.0346665154,29.6288439279l21.9377993133-16.9986294148Z"/><path id="Fill-14" class="cls-5" d="M116.0579268353,196.7842742349c9.7338211266,0,18.4616162624,3.3419322263,25.3422609955,9.8970795443v.0093143175l18.8545132615-18.8353454909c-11.451111985-10.6499681711-26.3784541536-17.1904145785-44.196774257-17.1904145785-25.8075055547,0-48.1524415511,14.7975147467-59.0232603199,36.3561377885l21.9377993133,16.9991905182c5.2318410429-15.6369435305,19.8567787368-27.2359620991,37.0854610066-27.2359620991"/></g></g></g></g></g><rect class="cls-1" width="500" height="500"/></svg>