<?xml version="1.0" encoding="UTF-8"?>
<svg width="140px" height="80px" viewBox="0 0 140 80" version="1.1" xmlns="http://www.w3.org/2000/svg" xmlns:xlink="http://www.w3.org/1999/xlink">
    <!-- Generator: Sketch 52.5 (67469) - http://www.bohemiancoding.com/sketch -->
    <title>im/logo-pay/gpay</title>
    <desc>Created with Sketch.</desc>
    <g id="im/logo-pay/gpay" stroke="none" stroke-width="1" fill="none" fill-rule="evenodd">
        <path d="M67.0404569,27.5869926 L67.0404569,37.7946294 L73.3645276,37.7946294 C74.8709851,37.7946294 76.1167456,37.2906638 77.1022785,36.2827326 C78.1136229,35.2771345 78.6204684,34.077883 78.6204684,32.6896444 C78.6204684,31.3294039 78.1136229,30.1441514 77.1022785,29.1362202 C76.1167456,28.1026241 74.8709851,27.5846594 73.3645276,27.5846594 L67.0404569,27.5846594 L67.0404569,27.5869926 Z M67.0404569,41.3877176 L67.0404569,53.2285763 L63.2625808,53.2285763 L63.2625808,23.9939044 L73.2821653,23.9939044 C75.8283599,23.9939044 77.9894927,24.8385134 79.7702568,26.5253983 C81.5773018,28.2122832 82.4804723,30.2678096 82.4804723,32.6896444 C82.4804723,35.1674753 81.5770671,37.2370008 79.7702568,38.8958876 C78.0174162,40.5571076 75.8539368,41.3853844 73.2821653,41.3853844 L67.0404569,41.3853844 L67.0404569,41.3877176 Z" id="Fill-1" fill="#5F6368" fill-rule="nonzero"></path>
        <path d="M86.2981921,47.1039708 C86.2981921,48.083904 86.7158703,48.900515 87.5514614,49.5538037 C88.3865831,50.2070925 89.3650766,50.5337367 90.4869416,50.5337367 C92.0752919,50.5337367 93.4902357,49.9478767 94.7362309,48.77919 C95.9824606,47.6079364 96.6040502,46.2336969 96.6040502,44.6564712 C95.4261038,43.730201 93.7835491,43.2682326 91.6763859,43.2682326 C90.142005,43.2682326 88.8631587,43.6368741 87.8377352,44.3718239 C86.8120771,45.1065405 86.2981921,46.0143785 86.2981921,47.1039708 M91.1859658,32.568296 C93.9783092,32.568296 96.1816792,33.3102454 97.798657,34.7941441 C99.4130537,36.2780429 100.220017,38.3125707 100.220017,40.8977276 L100.220017,53.228553 L96.6066316,53.228553 L96.6066316,50.4520757 L96.4421412,50.4520757 C94.8817143,52.738353 92.8003628,53.8818417 90.2006675,53.8818417 C87.9832187,53.8818417 86.1271317,53.228553 84.6368652,51.9219755 C83.1447214,50.615398 82.3985322,48.982176 82.3985322,47.0223097 C82.3985322,44.9527843 83.1843774,43.3076632 84.7588835,42.0829801 C86.3333896,40.8580637 88.433748,40.2444389 91.0618356,40.2444389 C93.3048615,40.2444389 95.1539091,40.6527444 96.6040502,41.4693553 L96.6040502,40.6107472 C96.6040502,39.3041697 96.0831259,38.195912 95.0438579,37.2836409 C94.0017741,36.3713698 92.7862835,35.9164009 91.3901121,35.9164009 C89.2806023,35.9164009 87.6124706,36.8006739 86.3805544,38.571553 L83.052973,36.4880285 C84.8879414,33.8748735 87.5981569,32.568296 91.1859658,32.568296" id="Fill-3" fill="#5F6368" fill-rule="nonzero"></path>
        <polygon id="Fill-5" fill="#5F6368" fill-rule="nonzero" points="120.956145 33.2215837 108.348599 62.04795 104.448469 62.04795 109.129985 51.9616383 100.834849 33.2215837 104.941236 33.2215837 110.936561 47.5939363 111.018689 47.5939363 116.849758 33.2215837"></polygon>
        <path d="M51.7753273,38.8352026 C51.7753273,37.6522834 51.6744277,36.5113612 51.4843604,35.4194357 L35.5515787,35.4194357 L35.5515787,41.8893276 L44.677144,41.8893276 C44.2852773,43.9982837 43.1002914,45.7927279 41.3028671,46.9943125 L41.3028671,51.1963592 L46.7491096,51.1963592 C49.9380125,48.2705587 51.7753273,43.9471872 51.7753273,38.8352026" id="Fill-8" fill="#4285F4" fill-rule="nonzero"></path>
        <path d="M35.5515552,55.2513925 C40.1108181,55.2513925 43.9497035,53.7628275 46.7490862,51.1963358 L41.3028436,46.9942893 C39.7870002,48.00922 37.8347064,48.6018463 35.5515552,48.6018463 C31.1448153,48.6018463 27.4044833,45.6480478 26.0669744,41.6676527 L20.4564764,41.6676527 L20.4564764,45.9956907 C23.2370871,51.4833163 28.9508314,55.2513925 35.5515552,55.2513925" id="Fill-10" fill="#34A853" fill-rule="nonzero"></path>
        <path d="M26.0669979,41.6676061 C25.7244079,40.6526753 25.5366873,39.5700825 25.5366873,38.4524921 C25.5366873,37.3349017 25.7244079,36.2523089 26.0669979,35.2373782 L26.0669979,30.9093401 L20.4564999,30.9093401 C19.3067115,33.1771854 18.6567291,35.7390106 18.6567291,38.4524921 C18.6567291,41.1659736 19.3067115,43.7280321 20.4564999,45.9956441 L26.0669979,41.6676061 Z" id="Fill-12" fill="#FABB05" fill-rule="nonzero"></path>
        <path d="M35.5515552,28.3032313 C38.0411991,28.3032313 40.2727271,29.1548398 42.0326073,30.8230593 L42.0326073,30.8253925 L46.8546789,26.0307197 C43.9262383,23.3195713 40.1084716,21.653685 35.5515552,21.653685 C28.9508314,21.653685 23.2370871,25.4217612 20.4564764,30.9093868 L26.0669744,35.2374248 C27.4044833,31.2570297 31.1448153,28.3032313 35.5515552,28.3032313" id="Fill-14" fill="#E94235" fill-rule="nonzero"></path>
        <polygon id="Shape" points="18 21 121.690237 21 121.690237 66 18 66"></polygon>
    </g>
</svg>