<?xml version="1.0" encoding="UTF-8"?><svg id="Layer_1" xmlns="http://www.w3.org/2000/svg" viewBox="0 0 500 500"><defs><style>.cls-1{fill:none;}.cls-1,.cls-2,.cls-3{stroke-width:0px;}.cls-2{fill:#b3131b;}.cls-3{fill:#fff;}</style></defs><path class="cls-2" d="M393.9146459041,347.8861949783c22.6412859265,0,42.4111049096-6.9636425476,46.9585844227-29.355365246,4.5437004544-22.3917226985,34.1300606684-166.4057117566,34.1300606684-166.4057117566H106.0081245568c-22.6598632708,0-42.502547231,8.0671913018-46.9662242988,29.3429924622-4.4698634597,21.2696056843-34.0386092628,166.387615879-34.0386092628,166.387615879l368.9113549089.0304686614Z"/><path class="cls-3" d="M64.7577084969,277.14087011l3.0672330894-15.647156549,3.1100927032-16.5130152238,5.1585605856-32.2583001212.2195669489-.9996973119h11.0496408441c-.1162151418.500080305-.1162151418.8049122677-.2133714728.9996973119-.3967375822,1.8903469757-1.1892679818,6.0734925189-2.2870845579,12.5313407519-.5972548045,3.4882711097-1.4021579879,7.4699455815-2.2927985675,11.9579049189l-.1948032128,1.4026485388h.8963545891l14.4212153453.1828846428,14.0435274897-.1828846428h1.1101984442l.1886077366-1.4026485388c.5977271868-3.8840366743,1.1954543737-7.9700168023,1.9879847733-12.3541610344,1.6041014416-8.7568422766,1.7012668568-9.3602925573,2.2013562461-13.1285955564h11.2325254868q-.1766891666.7010880782-.2929133927.9997063962c-.2009805204.9940014709-1.182591039,6.1711303165-2.8843302781,15.6228651952l-3.0791334909,16.6292394499-2.7928879567,16.5192107c-1.5855331816,9.3664698649-2.390436365,14.543616879-2.5671437002,15.6409610728q0,.3781602379-.1162060575.9816105186h-11.250639533l.2138529394-.9816105186c.2743360484-1.2011774675.7801394473-4.0855077456,1.5669467531-8.6649275729.2986274022-1.7136396406.9025500653-4.5798740411,1.6950804649-8.9702137494l1.5979059654-8.7625472019c.5000893893-2.6771542815.7987167915-4.2869788169.8901681972-4.683253101,0-.2014529027.1038241895-.4819753431.1952665109-.9877878262h-1.2868966951c-1.8841514996-.0914423214-8.6587320967-.0914423214-15.1289621978-.0914423214-6.4697577187,0-10.7686369371,0-12.7566217104.0852468452h-1.2807103032c-.2009896047,1.9084428534-.2986274022,2.2866030913-.8963545891,5.6772364034-.5000893893,2.5852214092-.9816105186,5.5734031296-1.487895384,8.7563517257-.7925213153,4.6956258848-1.305001657,7.6714166529-1.4997957855,8.9702137494-.793002782,4.7808908986-1.2992876474,7.6528302243-1.4940817759,8.6711230491,0,.1766891666,0,.5853362345-.0914423214.9758874247h-11.1530017355l.2009896047-.9758874247Z"/><path class="cls-3" d="M126.7719268422,277.1827849591l2.091818047-10.66528513,2.2866030913-11.9821962727,1.9027197595-11.6107038933c.9573191648-5.9087037538,1.5240871393-9.6098557853,1.7069899506-11.1344153069,0-.1952755951,0-.4819935116.0976377976-.9516142395h9.7875078852c-.0795419199.4696207278-.1833751937.7563386444-.2624265627.9516142395-.3843738826,1.5245595216-1.0487796547,5.2257115532-2.2075517222,11.1344153069l-2.1827879861,11.6107038933-1.9817892971,11.9821962727c-.8782496272,5.6100672672-1.4516854602,9.2264448359-1.646488673,10.66528513,0,.1828846428,0,.5672403569-.0733464438.9392051186h-9.8113268566l.2924410103-.9392051186ZM136.7728062001,218.5515600499c0-4.8418282214,2.371868105-7.7080717062,6.5611909559-7.7080717062,2.8538616167,0,4.2807833407,1.3416657946,4.2807833407,4.0978896137,0,4.7627768524-2.4818786864,7.7080807905-6.5735819082,7.7080807905-2.3780454127,0-3.8049853053-.9635146409-4.195518327-2.7562238191-.0728740614-.4881708193-.0728740614-.8663492257-.0728740614-1.3416748789Z"/><path class="cls-3" d="M141.5236644825,298.194715157c.4634252517-2.08513202,1.6098245354-7.9819353723,3.4211201421-17.8727859803l3.1343658885-17.0436096116,2.7619469129-16.3605992425c1.3354794027-7.9943263246,2.1041908308-13.0376256174,2.390436365-15.1289712821q0-.3843557141.0857192276-.9573191648h8.4820429301l-.2071941651.9573191648-.4577021578,2.6461950692-.189080119,1.0549569623c4.5675012573-3.9940654242,9.2264630045-5.6953141125,15.5009360438-5.6953141125,10.6533847285,0,16.3668128872,5.79295191,16.3668128872,16.647317159,0,5.9944411499-1.6160200116,12.7509077009-4.3841442321,18.751053776-4.4879593373,9.4150707411-11.8912263336,14.1778475935-21.8792423569,14.1778475935-6.2930594679,0-9.146902916-1.7198532853-11.4216056058-6.6593193043l-.1890982875,1.1283034061-2.1889652937,14.0863871035c-.762515952,4.76230447-1.3540476627,8.1834064436-1.5307549978,10.1832916183,0,.0852468452,0,.4696025593-.0790695376,1.1402038076h-9.909418868q.1833570251-.6706012483.2928952241-1.0549569623ZM160.5371629898,242.4292704344l-3.134384057,17.708487766c-.1952755951,1.2378416051-.3719829303,2.3723404874-.3719829303,3.6282779701,0,6.1773257927,3.1462844585,9.2383634059,9.317414775,9.2383634059,4.097898698,0,7.4270859678-1.4512312464,9.9032415603-4.207436897,3.9026231028-4.4636861521,6.5674046006-13.2143329525,6.5674046006-21.2086592772,0-7.7137857157-3.4211019735-11.5311438048-10.8481879413-11.5311438048-4.4760589359,0-8.1895837512,1.725540042-11.1472786416,4.951384589l-.2862273656,1.4207262479Z"/><path class="cls-3" d="M214.4946551192,279.1678991012c-12.8237817623,0-19.1292140139-5.5000566859-19.1292140139-16.9335626931,0-6.2873545426,1.627920413-13.3243617024,4.3903215398-19.2144790277,4.1831455432-8.8544800742,12.0007645327-13.2267057363,23.5014396761-13.2267057363,10.9396302627,0,16.3853811471,4.1712451417,16.3853811471,12.4579943082,0,2.3723404874-.5858086168,6.0982562551-1.5307549978,10.366666812l-1.0487614862-.0976377976c-1.7074441644-.0852650138-7.0493799437-.0852650138-15.9948299569-.0852650138-7.6104429929,0-12.2631910954,0-14.0678188436.0852650138l-.9758874248.0976377976c-.8477809657,4.2807833407-.9268323348,5.3414452284-.9268323348,8.384386964,0,7.6223433943,4.3598347098,11.7083235223,12.5494366295,11.7083235223,5.3419357793,0,10.4643046096-1.0430383923,16.190105552-3.5249170787l-1.4393126764,7.6104429929c-5.5186249459,1.5245595216-12.0007645327,2.3718499365-17.9032728103,2.3718499365ZM208.3173293265,247.0991696499c1.0487614862.1038332737,4.5736967334.1038332737,10.476205011.1038332737h1.518382214c4.2807833407,0,7.2322645864,0,8.9397269194-.1038332737h.8658768434l.1828846428-1.2378416051c.189080119-1.1344988823.2924410103-2.1894558446.2924410103-3.1281885808,0-4.671334531-3.1524799346-6.9455648385-9.2378910236-6.9455648385-7.7142762666,0-12.092206854,3.4149246659-14.0863871035,11.3115950244h1.0487614862Z"/><path class="cls-3" d="M241.0480844697,277.1827849591l2.1037184485-10.66528513,2.2804257836-11.9821962727,1.9027197595-11.6107038933c.9511236886-5.9087037538,1.518382214-9.6098557853,1.7136578091-11.1344153069,0-.1952755951.0971472467-.4819935116.0971472467-.9516142395h8.5553893739l-.1829028113.9516142395-1.1216355476,5.993950599-.3052861765,1.3235790012c1.6098245354-2.5552251302,2.1894558446-3.2382173308,3.4149064974-4.671334531,2.6890728515-3.0305507833,6.2016171465-4.6527481025,9.9094370365-4.6527481025,1.9146383295,0,3.5306583411.3843557141,5.3233493507,1.2378416051l-1.2259412037,6.8541043485c-2.0975229723-.6644057721-3.8111807814-.9387327362-5.6162627434-.9387327362-5.7015095886,0-10.756255069,5.1342692318-12.7628081023,13.0190391888-.743947692,2.9572043395-1.4331172002,6.3845017892-2.0732316185,10.3847626896-1.9084428534,11.8907539513-2.1161094008,12.8356821637-2.4880741626,17.7813436589h-9.7074935829l.1828846428-.9392051186Z"/><path class="cls-3" d="M308.9767024097,238.2513574342c-4.0002427319-1.4207262479-8.2810442412-2.1951607699-12.1955677454-2.1951607699-4.6527481025,0-8.1957610588,1.1525947599-10.5557105939,3.4330205436-3.9026412714,3.7135248153-6.945583007,12.9456927451-6.945583007,21.22054151,0,8.0981595984,3.5306583411,12.0007645327,10.7629410961,12.0007645327,4.2807651722,0,9.799390118-1.3354794027,13.5920026395-3.2377267799l-1.3349888518,7.2198918026c-4.8480600347,1.627920413-9.9766061727,2.4756832102-15.2085313706,2.4756832102-7.439440583,0-11.5249664972-1.7198351168-14.6712509557-5.9882275051-2.091818047-3.0429417356-2.9453039381-6.1835212688-2.9453039381-11.2263481792,0-6.567386432,1.6155476292-13.4153134729,4.6646666725-19.4216550243,1.3416748789-2.7624011267,3.2320400231-5.2319070293,5.6162627434-7.329902384,4.1893410194-3.7987898291,9.5189040148-5.4209871483,18.1776361115-5.4209871483,3.0429417356,0,6.268768114.1952574266,11.4154101296.6648781544l.9511236886.0914423214-1.3231066189,7.7137857157Z"/><path class="cls-3" d="M323.2455199422,279.1678991012c-9.6160330929,0-14.1711797349-4.0002427319-14.1711797349-12.3603565106,0-12.3789247706,8.7444876614-19.5011787756,23.8791457002-19.5011787756,2.3723404874,0,7.0431844675.1766891666,10.1713730483.3719647617l.2071941651-1.04256601c.6586826782-3.4330205435.6586826782-3.7135429839.6586826782-4.8599422676,0-3.8054576876-3.1405795332-5.7200960172-9.6165054753-5.7200960172-4.9327981605,0-9.6893977052.774434522-15.8910148517,2.4942696388l1.9146383295-7.8176189895c.3719829303.0976377976.6586826783.0976377976.8477809658.0976377976,1.5121685693,0,3.908818579-.1890982875,7.232282755-.5734540016,2.8538434481-.2805224403,5.7076868963-.4634070831,8.3662910864-.4634070831,11.3234772573,0,16.3786951201,2.9514994142,16.3786951201,9.5126903701,0,1.7012668568-.2805224403,3.6163775687-1.0487614862,7.7933276357l-1.5245595216,8.6649275729c-1.695053212,9.2383634059-2.6523905454,16.5682657899-2.6523905454,20.8428536545,0,.3781784065,0,.944946381.0790695376,1.5121867378h-8.5610942991v-.7501431682c0-1.3473798041.3900788079-4.2926837422.7620254011-7.0550848689-4.2807651722,6.2930412993-9.317414775,8.8539895233-17.031672873,8.8539895233ZM341.136892351,253.1055112012c-2.8657620181-.2805224403-4.2926837422-.2805224403-6.280686684-.2805224403-5.8115383386,0-9.2321679297.743947692-11.8907357828,2.8476661405-2.8481385228,2.1894376761-4.573714902,5.79295191-4.573714902,9.7932128104,0,4.7746954224,2.8538797852,7.3237250764,8.0738864131,7.3237250764,5.2499847384,0,9.9089464856-2.8476661405,12.2079223607-7.500414243,1.4207444164-3.0548421371,2.463328595-6.7688575033,3.4087473583-12.0984204988l-.9454187633-.0852468452Z"/><path class="cls-3" d="M356.2720591093,277.1827849591l2.07321345-10.66528513,2.3113668274-11.9821962727,1.9022837143-11.6107038933c.9392051186-5.9087037538,1.5126409516-9.6098557853,1.6893482868-11.1344153069,0-.1952755951.1033427228-.4819935116.1033427228-.9516142395h8.5739576338l-.2133714728.9516142395-1.1344807137,5.993950599-.2805587774,1.3235790012c1.6284109639-2.5552251302,2.1894558446-3.2382173308,3.4273156183-4.671334531,2.6766637306-3.0305507833,6.1830125494-4.6527481025,9.902769178-4.6527481025,1.8965424519,0,3.5125261264.3843557141,5.3238217331,1.2378416051l-1.238332156,6.8541043485c-2.0975229723-.6644057721-3.7987898291-.9387327362-5.6281813134-.9387327362-5.683413711,0-10.732417929,5.1342692318-12.7261257961,13.0190391888-.7625341205,2.9572043395-1.4330990317,6.3845017892-2.0979953547,10.3847626896-1.9022473772,11.8907539513-2.0975229723,12.8356821637-2.4876017802,17.7813436589h-9.6960473952l.1952755951-.9392051186Z"/><path class="cls-3" d="M401.0549957868,279.1674267189c-11.1348876893,0-16.3668128872-5.1342692318-16.3668128872-16.2567841373,0-6.4759441106,1.6155476292-13.3362439353,4.6584893649-19.2392427638,4.5675012573-9.1221391798,12.4765625681-13.878720556,22.9284943939-13.878720556,2.9633998157,0,5.9087037538.2743269642,8.2805355217.8477627972.7744526905.2805406089,1.2564280336.3781784065,2.6771724501.853485891l.1828846428-1.1463992837c.3843738826-1.9022473772.8596995357-4.9332705428,1.518382214-9.128334656.7563204758-4.5675012573,1.2440370813-7.8966885271,1.5245595216-10.0065933675l.1038151052-.7563295601h9.7017886576l-.1828846428.6706012483c-.7748887358,3.8173762576-1.8965424519,9.5250813224-3.3296778207,17.3184089581-2.585675623,13.909207386-3.5244446964,19.1411325839-4.9575437281,27.7879461106-1.7198351168,10.5738428086-2.4757195473,17.0374141354-2.4757195473,21.2148365848v.6706012483h-8.8482664295c.0852468452-1.5121867378.0852468452-1.9941802495.3843375455-3.9878699481.2867360851-1.536950474.3900788079-2.0856225709.5729634507-3.7135429839-3.7925761844,6.4759441106-8.1771927989,8.7501744181-16.3725178124,8.7501744181ZM412.7566696191,235.976182362c-4.1831637117,0-7.5918747329,1.1340264999-10.0861262031,3.3291872698-4.7499135177,4.1831455432-7.9881308485,13.214314784-7.9881308485,22.5503159875,0,7.5185282892,3.0491190433,10.9334347865,9.6955750129,10.9334347865,4.9575800652,0,9.62271912-2.8476661405,11.7021462147-7.2379876803.9696919486-2.0737221694,1.7193627344-4.652766271,2.390436365-7.5923471153,1.1463992837-5.8110659562,2.6709588054-14.0921101974,3.5244446964-19.1411325839l.0976377976-1.0363705338c-3.4211019735-1.2321366798-6.1101566565-1.8051001305-9.3359830349-1.8051001305Z"/><rect class="cls-1" x="0" width="500" height="500"/></svg>