<?xml version="1.0" encoding="UTF-8"?><svg id="Layer_1" xmlns="http://www.w3.org/2000/svg" viewBox="0 0 500 500"><defs><style>.cls-1{fill:none;}.cls-1,.cls-2,.cls-3,.cls-4{stroke-width:0px;}.cls-2{fill:#c06;}.cls-3{fill:#000;}.cls-4{fill:#fff;}</style></defs><path class="cls-3" d="M255.6247513812,406.0938846685H95.7144751381c-14.1971270718,0-25.7144751381-11.5178867403-25.7144751381-25.7143093923V119.6204247238c0-14.1964226519,11.5173480663-25.7143093923,25.7144751381-25.7143093923h159.9102762431c151.7409944751,0,174.3752486188,97.6340262431,174.3752486188,155.7590676796,0,100.8483149171-62.008839779,156.4287016575-174.3752486188,156.4287016575ZM78.5710497238,119.6204247238v260.7591505525c0,9.5089226519,7.6335911602,17.1428453039,17.1434254144,17.1428453039h159.9102762431c106.8755801105,0,165.804198895-52.5000414365,165.804198895-147.8572790055,0-128.0357941989-103.929281768-147.1876035912-165.804198895-147.1876035912H95.7144751381c-9.5098342541,0-17.1434254144,7.6339433702-17.1434254144,17.1428660221v.0000207182Z"/><path class="cls-2" d="M168.035359116,144.7990227901v227.4109392265h98.9741436464c89.8660773481,0,128.8388950276-50.7589640884,128.8388950276-122.5447790055,0-68.7054074586-38.9728176796-122.0090055249-128.8388950276-122.0090055249h-81.830718232c-9.5085082873,0-17.1434254144,7.7678660221-17.1434254144,17.1428660221v-.0000207182Z"/><path class="cls-4" d="M202.8565745856,218.9955283149c3.4833149171,0,6.6974585635.5356906077,9.777679558,1.6071132597,3.0802209945,1.0714226519,5.6247513812,2.8125,7.9014364641,4.9553867403,2.1427624309,2.2767679558,3.8837569061,5.0892679558,5.2229834254,8.3035773481,1.2053038674,3.3481906077,1.8749171271,7.2321132597,1.8749171271,11.7857320442,0,4.0178453039-.5356906077,7.6339226519-1.4731491713,10.9821132597-1.0713812155,3.3482320442-2.5445303867,6.2946546961-4.5533701658,8.7053867403-2.008839779,2.4107320442-4.5533701657,4.2856906077-7.6335911602,5.7589226519-3.0802209945,1.3393093923-6.6961325967,2.1428867403-10.8490607735,2.1428867403h-23.4364640884v-54.3750414365h23.1686187845v.1339226519ZM202.053038674,263.3259150552c1.7409944751,0,3.3493922652-.2678453039,5.0903867403-.8035773481,1.6070718232-.5357320442,3.0802209945-1.4732320442,4.2855248619-2.8125414365,1.2053038674-1.3392679558,2.2766850829-2.9464226519,3.0802209945-5.0892679558.8035359116-2.1428867403,1.2053038674-4.5535773481,1.2053038674-7.6339226519,0-2.6785773481-.2678453039-5.2232320442-.8035359116-7.3660773481-.5356906077-2.1428867403-1.4731491713-4.1518093923-2.6784530387-5.625-1.2053038674-1.4732320442-2.8123756906-2.8125414365-4.8212154696-3.6160773481-2.008839779-.8035773481-4.4207734807-1.2053453039-7.3670718232-1.2053453039h-8.5710497238v34.2857320442h10.5798895028v-.1339226519ZM275.982320442,218.9955283149v10.0446546961h-28.6607734807v11.6517679558h26.3840883978v9.2410773481h-26.3840883978v13.2589226519h29.3303867403v10.0446546961h-41.2495027624v-54.3750414365h40.5798895028v.1339640884ZM337.3215469613,273.3705697514h-12.4548066298l-4.1529281768-12.0535773481h-20.3562430939l-4.2855248619,12.0535773481h-12.0543646409l20.4914917127-54.3750414365h12.4548066298l20.3575690608,54.3750414365ZM317.6335911602,252.3437603591l-6.8300552486-19.9553867403h-.1339226519l-7.0979005525,19.9553867403h14.061878453ZM356.7416574586,218.9955283149v44.3303867403h26.5180110497v10.0446546961h-38.4384530387v-54.3750414365h11.9204419889Z"/><path class="cls-3" d="M142.186961326,372.2099205801c-21.0258563536,0-37.9014364641-17.0089226519-37.9014364641-37.9018093923v-29.5982734807c0-10.4464226519,8.4371270718-19.0178453039,19.0183425414-19.0178453039,10.4459668508,0,19.0170165746,8.4375,19.0170165746,19.0178453039v67.5000828729h-.1339226519ZM123.3038674033,271.2277244475c-13.8483977901,0-25.0448618785-11.1964640884-25.0448618785-25.0446961326,0-13.8481906077,11.1964640884-25.0446546961,25.0448618785-25.0446546961s25.0448618784,11.1964640884,25.0448618784,25.0446546961c0,13.8482320442-11.1964640884,25.0446961326-25.0448618784,25.0446961326Z"/><rect class="cls-1" width="500" height="500"/></svg>