<?xml version="1.0" encoding="UTF-8"?><svg id="Layer_1" xmlns="http://www.w3.org/2000/svg" viewBox="0 0 500 500"><defs><style>.cls-1{fill:#fdb913;}.cls-1,.cls-2,.cls-3{stroke-width:0px;}.cls-2{fill:none;}.cls-3{fill:#231f20;}</style></defs><path class="cls-1" d="M107.5002748975,78.9985458394h284.9972510248c15.7417313721-.0000171811,28.5024740776,12.7609316976,28.5024740776,28.50235381h0v285.0013744876c0,15.7402881601-12.7596431155,28.5003436219-28.5002748975,28.5003436219H107.4958765373c-15.7373330118,0-28.4958765373-12.7582342657-28.4958765373-28.4962888835h0V107.4988894613c0-15.7403053412,12.7596431155-28.5003436219,28.5002748975-28.500360803v.0000171811Z"/><path class="cls-3" d="M269.1021359921,253.1189069688l-.0273987703-58.6826663568,15.3169663671-3.6351779462v7.6928633712s3.9686064904-10.1169629826,13.1756470923-12.4651396795c1.3752075066-.443073022,2.8389341172-.5413562309,4.2605087735-.286205183v14.9729504375c-2.7577916053.0359938172-5.482915446.6032010512-8.0257320847,1.6705840328-5.6599536538,2.2352390977-8.5083719606,7.1126318419-8.5083719606,14.5582147254l.0094841897,32.4030963567-16.201103607,3.771480242Z"/><path class="cls-3" d="M188.3537448781,272.2013271656s-2.4901266959-3.7344655572-2.4901266959-16.937544351v-29.2196358762l-7.8824154404,1.8750374764v-12.0367869103l7.899276222-1.865289837v-13.1212941233l16.2875151131-3.8474031564v13.1212941233l11.5085373027-2.7336859565v12.0231533876l-11.5085373027,2.7317265492s-.0179145805,23.9392144665,0,29.7531544781c0,13.5282416032,3.5902927013,16.1256252639,3.5902927013,16.1256252639l-17.4045419001,4.1316489321Z"/><path class="cls-3" d="M215.3794703304,237.2904200509c0-10.4323781526,1.4858563865-18.0434733188,4.6746517237-23.8846803758,3.7947296792-6.9315595604,10.0174119219-11.4487671488,19.0832434772-13.5126486733,17.8682133966-4.0635307155,24.3174623933,6.512937965,24.0677120645,20.6953910703-.094841897,5.072115014-.0716583222,7.5429440184-.0716583222,7.5429440184l-31.4801332152,7.3988534905v.5081944981c0,9.9086401213,2.0770375445,14.6107894089,8.3566249254,13.2790181739,5.4239027101-1.1448865942,6.9329426714-4.5425316922,7.3618388057-8.7442911794.0695507245-.6775926642.1032722878-2.4007513805.1032722878-2.4007513805l14.7468611862-3.5339144625s.0347753622,1.2071924516.0136993851,2.5623448488c-.1285634604,5.6309083228-1.7661668821,19.5991768107-22.2625546247,24.4454330918-19.4162439156,4.6086905016-24.5935576935-7.248917672-24.5935576935-24.3558931203M239.7917746207,210.8239324788c-5.2163043355,1.1838277551-7.9519661648,6.3007127548-8.0710454355,14.7782446333l15.835435404-3.7714473108c.0273987703-.3835827835.0316139657-1.2285977408.0273987703-2.552613675-.0273987703-6.4000168314-2.0053792223-9.7781666505-7.7917887388-8.454167182"/><path class="cls-3" d="M356.955238991,202.9734932475c-.6101495374-17.8721322111,4.0265654275-32.056528258,23.9665473743-36.5737193809,12.7077604004-2.8875076582,17.5352129582.4186215954,19.9779187057,3.6137561914,2.351025247,3.0491011264,3.2583460617,7.1613206422,3.2583460617,12.9207430285l.0136993851,1.0572566332-15.6004382592,3.7072149774s-.0115917874-2.1028391509-.0115917874-2.1709738331c.0115917874-6.8303125422-1.8862999516-9.4277126686-6.8475849641-8.185481405-5.9002197929,1.4817235191-8.2828590055,7.0814953788-8.2828590055,18.2148308921,0,3.9525360579.0168607817,4.6612816507.0168607817,5.1947673214,0,11.3144077947,1.5459229213,16.4936151175,8.345033138,15.0703115724,5.8981121951-1.218866567,6.7063759174-6.3980738897,6.8012178145-10.9386297091.0115917874-.7126314761.0410981554-2.9945835013.0410981554-2.9945835013l15.5762008856-3.6799643976s.0158069828,1.1507154192.0158069828,2.4299449019c-.0389905577,14.8366646074-7.8581780667,24.1864949542-22.5080897581,27.595797702-20.1834094825,4.7313922059-24.1351551912-6.9315595604-24.7621655104-25.2612545278"/><path class="cls-3" d="M303.0281363513,227.9952884509c0-13.5944498094,7.9635579523-17.8935704316,19.9494661366-22.8527478463,10.7793084946-4.4587876144,11.0121980417-6.6726049572,11.0575113925-10.5472751591.0600665348-3.2613263366-1.453188622-6.0514893255-6.819132395-4.68268694-3.6840807994.7421872409-6.373375479,3.9211526107-6.4956161463,7.6772869069-.087465305,1.0014876218-.1211868684,2.0069928518-.1011646902,3.0121193728l-15.1125293891,3.56896974c-.102218489-3.0118888543.2497503288-6.0219500263,1.0432608671-8.9292493442,2.416360776-8.1290043726,9.5853543911-13.5983192271,21.961168152-16.4624621888,16.0788629397-3.7052720358,21.4395377185,3.3509157049,21.4585060979,14.3265436332v25.9913889443c0,12.570272581,2.3331106664,14.412214187,2.3331106664,14.412214187l-14.8374878877,3.5105662316c-.817747912-1.7143660821-1.4826949899-3.4976571956-1.9874646418-5.3291266755,0,0-3.2499156709,8.185481405-14.4528513054,10.8179038777-11.7667180223,2.7745865245-17.996776857-4.5172075884-17.996776857-14.5134447396M333.9318415925,209.4319135873c-2.5006646845,1.753389571-5.1404308179,3.2993289578-7.8940072278,4.6223404899-4.9454780296,2.4163113792-7.1805854025,5.397294289-7.1805854025,9.9884653846,0,3.97591722,2.4627279257,6.5869344034,6.9392654645,5.4810054356,4.8021613853-1.2110783349,8.1353271657-5.6912712385,8.1353271657-11.9160775445v-8.1757337656Z"/><path class="cls-3" d="M103.1920441565,313.3379791259c-5.2015511516-.0065862428-9.4125313788-4.2286642893-9.4062085856-9.4302154408.0021075977-1.8138183491.5279532267-3.5883826908,1.5153627544-5.1104963442l.1043260867-.1363022957.1770382078-.046729393,22.1540133426-5.2298061334v16.8246232174l-.3445922258.0798252633c-5.0255667427,1.2091353932-11.0322202199,2.5856930796-12.2683262776,2.8485500317-.63544071.1343264229-1.2824732073.2015390312-1.9316133024.2005510947"/><path class="cls-3" d="M103.1920441565,334.8607010916c-5.191013163.0012843174-9.4009395914-4.2036694977-9.4062085856-9.394583867-.0052689943-1.8162881902.5216304336-3.5943432406,1.5153627544-5.1149420581l.1043260867-.1577405162.1770382078-.0447864514,22.1540133426-5.2278631917v16.8246232174l-.3445922258.0895729027c-5.0255667427,1.2052495099-11.0322202199,2.5974165919-12.2683262776,2.8446641484-.6364945088.1230639476-1.2835270062.1837232443-1.9316133024.1810887471"/><path class="cls-3" d="M103.1920441565,356.4248834559c-5.1920669619-.0030955341-9.4009395914-4.2102557405-9.4062085856-9.4023885648-.007376592-1.8165516399.5195228358-3.595166521,1.5153627544-5.1149420581l.1043260867-.1694310973,22.3310515504-5.2629020037v16.8246232174l-.3445922258.0895729027c-5.307984836,1.2772700755-11.2008280368,2.6090413106-12.2683262776,2.8446641484-.63544071.127279143-1.2824732073.1911656987-1.9316133024.1908034553"/><polygon class="cls-3" points="100.5775691957 292.721655901 100.5723002014 198.582856781 117.7355221636 194.5271142977 117.7355221636 288.6639704761 100.5775691957 292.721655901"/><path class="cls-3" d="M143.3280811722,284.7127516668c.0021075977-5.8482214056-4.7357720574-10.5912053988-10.5843557063-10.5937740336-5.8485836489-.0025686347-10.5917322983,4.7362989568-10.593839896,10.5844874311v.0092866024l.0179145805,87.986079242c.0189683794,15.8196613524,12.8331624643,28.6421211721,28.6527908855,28.6725166828,8.016247895,0,29.9753084493-.0389576264,29.9753084493-.0389576264l.0094841897-36.7061193277c.0052689943-20.0548130909.0094841897-40.4678848615.0094841897-40.9332358499.0052689943-4.6344097799-2.3057118962-8.9649303148-6.1584005125-11.5402829932l-26.7159085888-18.1447038714s-.0052689943,39.3930758912-.0052689943,41.2038316373c0,1.2581699712-1.0200772923,2.2780826074-2.2783131259,2.2780826074s-2.2783131259-1.0199126362-2.2783131259-2.2780826074c0-.4420027575-.0505823451-45.0571130155-.0505823451-50.4991608247"/><path class="cls-3" d="M157.6291854424,219.0665989374c-6.5693820662,1.5244682352-12.1471394092,5.837140052-15.2769220106,11.8109281774v-6.6161443904l-15.4539602183,3.6565832355.0179145805,42.2514064935c5.527174998-2.1858752076,11.8141389708-1.0868617948,16.2717081303,2.8446641484v-27.2803825321c0-6.5343761855,3.2520232686-11.7544676106,7.8971686243-12.7786283735,3.4954508042-.7671326357,6.4134198356.4828703944,6.4134198356,6.7076602348l.0115917874,39.8019498472,16.2780309234-3.8162337621v-42.1053565584c0-10.2084788269-3.9317235305-17.3444753654-16.1589516527-14.4764465204"/><rect class="cls-2" x="0" width="500" height="500"/></svg>