<?xml version="1.0" encoding="UTF-8"?><svg id="Layer_1" xmlns="http://www.w3.org/2000/svg" xmlns:xlink="http://www.w3.org/1999/xlink" viewBox="0 0 500 500"><defs><style>.cls-1{fill:#e70012;}.cls-1,.cls-2,.cls-3,.cls-4,.cls-5,.cls-6{stroke-width:0px;}.cls-2{fill:#009946;}.cls-3{fill:none;}.cls-4{fill:url(#linear-gradient);}.cls-5{fill:#083090;}.cls-6{fill:url(#linear-gradient-2);}</style><linearGradient id="linear-gradient" x1="-384.7145585566" y1="1494.6280859989" x2="-335.8827982819" y2="1494.6280859989" gradientTransform="translate(16120.6375424634 -61150.9079716614) scale(41.0913413669)" gradientUnits="userSpaceOnUse"><stop offset="0" stop-color="#007940"/><stop offset=".2284999847" stop-color="#00873f"/><stop offset=".7433000183" stop-color="#40a737"/><stop offset="1" stop-color="#5cb531"/></linearGradient><linearGradient id="linear-gradient-2" x1="-384.7145585566" y1="1493.8368867435" x2="-335.8807386273" y2="1493.8368867435" xlink:href="#linear-gradient"/></defs><g id="g6323"><g id="g6327"><path id="path6338" class="cls-4" d="M332.057307614,276.053568327h23.3816256346c.6683373944,0,2.2268980542-.2228237945,2.8952354486-.2228237945,4.4532601521-.8906252326,8.2387188661-4.8989077411,8.2387188661-10.4658848984,0-5.344421341-3.785458714-9.3525698604-8.2387188661-10.4660188875-.6683373944-.2225558164-2.0044762269-.2225558164-2.8952354486-.2225558164h-23.3816256346v21.3772833968h0Z"/><path id="path6349" class="cls-2" d="M352.7671915398,128.4166588093c-22.2684445856,0-40.5279367175,18.0369363155-40.5279367175,40.5276687394v42.0864973773h57.2283322333c1.3366747887,0,2.8952354486,0,4.0084164975.2228237945,12.915472758.6680694163,22.4908664129,7.3483616116,22.4908664129,18.9276955372,0,9.129880055-6.457736379,16.9236212775-18.4824499154,18.4823159263v.4455135999c13.1378945854.8907592217,23.1586678511,8.2391208333,23.1586678511,19.5958989425,0,12.2474033418-11.1339543147,20.2638343697-25.8309455161,20.2638343697h-62.7958453469v82.3917442893h59.4557662437c22.2679086294,0,40.5279367175-18.0372042936,40.5279367175-40.5279367175v-202.4160558585h-59.2328084602Z"/><path id="path6360" class="cls-6" d="M363.678188071,232.8534879335c0-5.3441533629-3.785458714-8.9071902496-8.2392548224-9.5752596658-.4453796108,0-1.559096616-.2226898054-2.2268980542-.2226898054h-21.1547275804v19.5958989425h21.1547275804c.6678014381,0,2.0044762269,0,2.2268980542-.2226898054,4.4537961084-.6680694163,8.2392548224-4.2309723139,8.2392548224-9.5752596658Z"/></g><path id="path6371" class="cls-5" d="M128.7503585448,128.4166588093c-22.2679086294,0-40.5274007612,18.0369363155-40.5274007612,40.5276687394v99.983300994c11.356376142,5.5671111464,23.1586678511,9.130014044,34.9609595601,9.130014044,14.028653807,0,21.599571235-8.4619446278,21.599571235-20.0412785533v-47.2082289129h34.7380017766v46.9855391074c0,18.259894099-11.356376142,33.1794411168-49.8798366326,33.1794411168-23.3816256346,0-41.6416537227-5.1215975465-41.6416537227-5.1215975465v85.2863097926h59.4557662437c22.2679086294,0,40.5279367175-18.0370703046,40.5279367175-40.5278027284v-202.1933660531h-59.2333444164Z"/><path id="path6384" class="cls-1" d="M240.7587750423,128.4166588093c-22.2679086294,0-40.5279367175,18.0369363155-40.5279367175,40.5276687394v52.9978958756c10.243195093-8.6846344332,28.0578435703-14.2514776015,56.7834885787-12.915338769,15.3653285957.6679354272,31.8433022843,4.8989077411,31.8433022843,4.8989077411v17.1461770938c-8.2392548224-4.2308383248-18.0370703046-8.0162970388-30.7295852791-8.9071902496-21.8230649748-1.5586946489-34.9609595601,9.130014044-34.9609595601,27.8351537648,0,18.9276955372,13.1378945854,29.6164042301,34.9609595601,27.8348857867,12.6925149745-.8904912436,22.4903304567-4.8989077411,30.7295852791-8.9071902496v17.146579061s-16.2555518612,4.2308383248-31.8433022843,4.8989077411c-28.7256450084,1.3358708544-46.5402934857-4.2309723139-56.7834885787-12.915472758v93.5256986041h59.4557662437c22.2679086294,0,40.5279367175-18.0372042936,40.5279367175-40.5278027284v-202.638879653h-59.4557662437Z"/></g><rect class="cls-3" width="500" height="500"/></svg>