<?xml version="1.0" encoding="UTF-8"?><svg id="Layer_1" xmlns="http://www.w3.org/2000/svg" viewBox="0 0 500 500"><defs><style>.cls-1{fill:none;}.cls-1,.cls-2,.cls-3,.cls-4,.cls-5{stroke-width:0px;}.cls-2{fill:#0099de;}.cls-3{fill:#241f21;}.cls-4{fill:#6b6bbd;}.cls-5{fill:#eb001c;}</style></defs><polygon class="cls-4" points="198.6047410141 127.6484227146 301.3870347941 127.6484227146 301.3870347941 312.3643604529 198.6047410141 312.3643604529 198.6047410141 127.6484227146"/><path class="cls-5" d="M205.1877496415,219.9940077024c0-37.4689418527,17.5473792803-70.844825292,44.8620524088-92.3622237461-19.9793032522-15.7285002713-45.1934568779-25.1144353002-72.5897627249-25.1144353002-64.8742524282,0-117.4600393254,52.5938587892-117.4600393254,117.4766590463,0,64.8742524282,52.5857868972,117.4686442668,117.4600393254,117.4686442668,27.3963058469,0,52.6104594726-9.3858969539,72.5897627249-25.1149683497-27.3146731285-21.5088125501-44.8620524088-54.884676952-44.8620524088-92.3536759171"/><path class="cls-2" d="M440,219.9940077024c0,64.8742524282-52.5860914969,117.4686442668-117.4597347257,117.4686442668-27.3969150463,0-52.611068672-9.3858969539-72.5982915163-25.1149683497,27.3225927205-21.5088125501,44.8702766006-54.884676952,44.8702766006-92.3536759171,0-37.4689608902-17.54768388-70.844825292-44.8702766006-92.3622237461,19.9872228443-15.7285002713,45.20137647-25.1144353002,72.5982915163-25.1144353002,64.8736432288,0,117.4597347257,52.5938587892,117.4597347257,117.4766590463"/><path class="cls-3" d="M336.0361639997,364.5201287294c1.3639974382,0,3.3329298723.2650017354,4.8291235785.8519653494l-2.0840711192,6.3920246181c-1.4389289633-.5870016889-2.8693291352-.7852960909-4.2418553648-.7852960909-4.441063566,0-6.6573309532,2.8697098848-6.6573309532,8.0211760915v17.4904191372h-6.7895272212v-31.1844599648h6.7231244875v3.7872783937c1.761804641-2.7455474338,4.3094764973-4.5731075341,8.2205365924-4.5731075341M310.9545112417,371.4996500109h-11.089561128v14.0998818474c0,3.1255736294,1.1078290939,5.2180593152,4.5074662996,5.2180593152,1.7608908419,0,3.9774628288-.5874966634,5.9951312143-1.7614238914l1.9597944433,5.8050610041c-2.1501692532,1.4969932804-5.5409730678,2.4145237143-8.4757911376,2.4145237143-8.0298571828,0-10.8336973834-4.3086769231-10.8336973834-11.5520957661v-14.2240062235h-6.3344552755v-6.1936921411h6.3344552755v-9.4600669799h6.8470965637v9.4600669799h11.089561128v6.1936921411h0ZM224.1085689506,378.1566763644c.7185506826-4.4984044587,3.4559881495-7.5750898369,8.2854163277-7.5750898369,4.3749654319,0,7.1778918334,2.7455855087,7.8976609148,7.5750898369h-16.1830772425ZM247.3452613506,380.9022237982c-.0749315252-9.7251067902-6.0779823316-16.3820950688-14.8184706049-16.3820950688-9.1382954761,0-15.5303200942,6.6569882785-15.5303200942,16.3820950688,0,9.9067624339,6.6564171541,16.3654563104,15.9930070322,16.3654563104,4.6975365099,0,8.9972658169-1.1744602774,12.7846584355-4.3667031652l-3.3323206729-5.0278368051c-2.6049365992,2.0924856858-5.9381710712,3.2669459632-9.0633639509,3.2669459632-4.3749654319,0-8.3521236611-2.0263494769-9.3286702861-7.633078004h23.1553642812c.0651843349-.8514322999.1401158601-1.6953257574.1401158601-2.6047842993M277.1567381861,373.2696407687c-1.8933917096-1.1824940944-5.7386582704-2.6880542412-9.7158164995-2.6880542412-3.7215990843,0-5.9381710712,1.3813976958-5.9381710712,3.6636489921,0,2.0839188194,2.3402394634,2.6713774078,5.2762759321,3.0600085448l3.1998198052.454729271c6.7892226215.9922335093,10.8994909177,3.8533765277,10.8994909177,9.3364756533,0,5.9372953471-5.2260169822,10.1793030118-14.2238919986,10.1793030118-5.0938207142,0-9.790443425-1.3061615709-13.512347109-4.0436751877l3.201038204-5.2928004656c2.2820609215,1.7619188659,5.6804797285,3.2669459632,10.377407039,3.2669459632,4.6317429756,0,7.1117936994-1.3647208624,7.1117936994-3.7878114432,0-1.752780875-1.7611954416-2.7369424924-5.4821853265-3.2583790968l-3.2001244049-.454729271c-6.9799020311-.9836285679-10.76699005-4.1097352468-10.76699005-9.1955982939,0-6.201764033,5.0938207142-9.9895754762,12.9908724296-9.9895754762,4.9537048541,0,9.4608665541,1.1164340353,12.7188649012,3.2664509887l-2.9360364686,5.4830610506h0ZM360.8360620389,370.970750714c-1.3892792129,0-2.6871785171.2397199607-3.8863875197.7272317739-1.1995136024.4966498041-2.2330203705,1.1830652188-3.1093536956,2.059208169-.8769425244.8847098167-1.5629010396,1.9436125845-2.0587893444,3.1760991039-.5047216961,1.23195347-.7450508561,2.588107466-.7450508561,4.068385838,0,1.488350264.2403291601,2.844466185.7450508561,4.0683477631.4958883049,1.231991545,1.18184682,2.2989281297,2.0587893444,3.1756041294.8763333251.8847478916,1.9098400932,1.5711252314,3.1093536956,2.067280061,1.1992090027.4880067878,2.4971083068.7277648234,3.8863875197.7277648234,1.3975034047,0,2.6960119082-.2397580356,3.8952209109-.7277648234,1.1992090027-.4961548296,2.2488595547-1.1825321693,3.1175778874-2.067280061.8930863083-.8766759997,1.5796540228-1.9436125845,2.0834619198-3.1756041294.5047216961-1.2238815781.7529704482-2.5799974991.7529704482-4.0683477631,0-1.4802783721-.2482487521-2.836432368-.7529704482-4.068385838-.503807897-1.2324865195-1.1903756115-2.2913892872-2.0834619198-3.1760991039-.8687183327-.8761429502-1.9183688847-1.5625583649-3.1175778874-2.059208169-1.1992090027-.4875118133-2.4977175062-.7272317739-3.8952209109-.7272317739M360.8360620389,364.5201287294c2.4224813813,0,4.6637259436.4219467287,6.7228198878,1.2653071367,2.0597031435.835288516,3.8458757602,1.9930719601,5.3509028575,3.4653165152,1.504417898,1.4716734307,2.6795635247,3.2083485967,3.5303104753,5.2094543738.8525745488,2.0097487934,1.2741405279,4.1925482891,1.2741405279,6.5414688439,0,2.3564213223-.4215659791,4.5316819755-1.2741405279,6.5408977194-.8507469506,2.001143852-2.0258925773,3.7544958514-3.5303104753,5.2261692821-1.5050270973,1.4722064801-3.291199714,2.6214230577-5.3509028575,3.4652784402-2.0590939442.835288516-4.3003385065,1.2486303033-6.7228198878,1.2486303033-2.4145617893,0-4.6555017518-.4133417873-6.7142910963-1.2486303033-2.0679273354-.8438553825-3.8376515684-1.9930719601-5.3265348819-3.4652784402-1.4961937062-1.4716734307-2.6707301335-3.2250254301-3.5226954829-5.2261692821-.85135615-2.009215744-1.2735313285-4.1844763971-1.2735313285-6.5408977194,0-2.3489205548.4221751785-4.5317200504,1.2735313285-6.5414688439.8519653494-2.0011057771,2.0265017767-3.7377809431,3.5226954829-5.2094543738,1.4888833135-1.4722445551,3.2586075465-2.6300279991,5.3265348819-3.4653165152,2.0587893445-.843360408,4.2997293071-1.2653071367,6.7142910963-1.2653071367M184.4640047325,380.9022237982c0-5.4825280011,3.5890982166-9.9895374012,9.4605619544-9.9895374012,5.6146861942,0,9.4020788128,4.3081057987,9.4020788128,9.9895374012,0,5.6728647361-3.7873926186,9.9728605679-9.4020788128,9.9728605679-5.8714637378,0-9.4605619544-4.4897614423-9.4605619544-9.9728605679M209.7195839168,380.9022237982v-15.5962659284h-6.7898318209v3.7872783937c-2.1580888453-2.8117217177-5.4084722001-4.5731075341-9.8492311663-4.5731075341-8.7401836736,0-15.587584837,6.8472869385-15.587584837,16.3820950688,0,9.5181312969,6.8474011634,16.3735282023,15.587584837,16.3735282023,4.4407589663,0,7.691142321-1.7614238914,9.8492311663-4.5731075341v3.7877733682h6.7898318209v-15.5881940364h0ZM171.4807472953,396.4904178346v-19.5738049071c0-7.368647393-4.6966227108-12.3298149397-12.2634883559-12.3964841981-3.9774628288-.066098134-8.0959553168,1.1744602774-10.9570602602,5.5492353345-2.1504738529-3.4567115737-5.5485880602-5.5492353345-10.3204468959-5.5492353345-3.3158722894,0-6.5827040277.9761278004-9.129462085,4.6311718511v-3.8453427107h-6.7809984297v31.1844599648h6.8470965637v-17.2834817188c0-5.4164298671,3.0015254032-8.2942497188,7.6329637791-8.2942497188,4.5068571003,0,6.7889180218,2.9358460938,6.7889180218,8.2195466434v17.3581847942h6.8474011634v-17.2834817188c0-5.4164298671,3.1422504627-8.2942497188,7.6332683788-8.2942497188,4.6390533683,0,6.8550161558,2.9358460938,6.8550161558,8.2195466434v17.3581847942h6.846791964Z"/><rect class="cls-1" width="500" height="500"/></svg>