<?xml version="1.0" encoding="UTF-8"?><svg id="Layer_1" xmlns="http://www.w3.org/2000/svg" viewBox="0 0 500 500"><defs><style>.cls-1{fill:none;}.cls-1,.cls-2,.cls-3,.cls-4,.cls-5{stroke-width:0px;}.cls-2{fill:#000;}.cls-3{fill:#f79e1c;}.cls-4{fill:#eb001c;}.cls-5{fill:#ff5e00;}</style></defs><path class="cls-2" d="M141.7795349444,380.4638605778c0-5.476228003,3.5974809491-9.9773222715,9.4637053274-9.9773222715,5.609028317,0,9.3925521023,4.3064020724,9.3925521023,9.9773222715,0,5.6801407432-3.7835237853,9.9865428156-9.3925521023,9.9865428156-5.8662243783,0-9.4637053274-4.5016654527-9.4637053274-9.9865428156M167.033381204,380.4638605778v-15.5958159258h-6.7791398396v3.7926627317c-2.1525482543-2.8089204362-5.4226590898-4.5719211027-9.8527633288-4.5719211027-8.7459716487,0-15.6047508778,6.8579224529-15.6047508778,16.3750742969,0,9.5344505638,6.8587792292,16.384294841,15.6047508778,16.384294841,4.430104239,0,7.7002150744-1.7635718507,9.8527633288-4.5725330857v3.7834829864h6.7791398396v-15.5952447417h0ZM396.1993149226,380.4638605778c0-5.476228003,3.5893211756-9.9773222715,9.4552191629-9.9773222715,5.6181672633,0,9.4016910486,4.3064020724,9.4016910486,9.9773222715,0,5.6801407432-3.7835237853,9.9865428156-9.4016910486,9.9865428156-5.8658979874,0-9.4552191629-4.5016654527-9.4552191629-9.9865428156M421.453813964,380.4638605778v-28.116621201h-6.7876260041v16.3134680068c-2.1532010362-2.8089204362-5.4138465344-4.5719211027-9.8534161107-4.5719211027-8.7456452577,0-15.6044244869,6.8579224529-15.6044244869,16.3750742969,0,9.5344505638,6.8587792292,16.384294841,15.6044244869,16.384294841,4.4395695762,0,7.7002150744-1.7635718507,9.8534161107-4.5725330857v3.7834829864h6.7876260041v-15.5952447417h0ZM251.2053617442,370.1582298187c4.3775552975,0,7.1773367874,2.7473141461,7.8950704661,7.5674963582h-16.1805044973c.727199016-4.5016654527,3.4561536717-7.5674963582,8.2854340312-7.5674963582M251.3470154125,364.0887862809c-9.1448213783,0-15.5335976527,6.6546216957-15.5335976527,16.3750742969,0,9.9243653414,6.6462987267,16.384294841,15.9853227148,16.384294841,4.6967656376,0,9.002841319-1.1789648769,12.7866914953-4.3686611444l-3.3229861679-5.0332746975c-2.6137386536,2.0913091541-5.9455373769,3.2697436457-9.0739945441,3.2697436457-4.3680899602,0-8.3467955281-2.0291316798-9.3302114326-7.64705415h23.1626595021c.0623406697-.8420478283.1328411129-1.6927042177.1328411129-2.6050484948-.0705004432-9.7204526012-6.0698923254-16.3750742969-14.8067250277-16.3750742969M333.2326274127,380.4638605778c0-5.476228003,3.5886683937-9.9773222715,9.454892772-9.9773222715,5.609028317,0,9.4016910486,4.3064020724,9.4016910486,9.9773222715,0,5.6801407432-3.7926627317,9.9865428156-9.4016910486,9.9865428156-5.8662243783,0-9.454892772-4.5016654527-9.454892772-9.9865428156M358.4779875078,380.4638605778v-15.5958159258h-6.7784870578v3.7926627317c-2.1623399825-2.8089204362-5.4148257072-4.5719211027-9.8537425016-4.5719211027-8.7459716487,0-15.6047508778,6.8579224529-15.6047508778,16.3750742969,0,9.5344505638,6.8587792292,16.384294841,15.6047508778,16.384294841,4.4389167944,0,7.6914025191-1.7635718507,9.8537425016-4.5725330857v3.7834829864h6.7784870578v-15.5952447417h0ZM294.9260810412,380.4638605778c0,9.4635829308,6.5924442215,16.384294841,16.6410421147,16.384294841,4.6964392466,0,7.8330561874-1.0459197697,11.2183830249-3.7218358975l-3.2521593337-5.4848773629c-2.5517243749,1.8338682995-5.2193175337,2.8089612351-8.1614054738,2.8089612351-5.4229854808-.0621774742-9.4010382668-3.9787055679-9.4010382668-9.9865428156,0-5.9991878878,3.978052786-9.9157159815,9.4010382668-9.9773222715,2.94208794,0,5.6096810989.9745217514,8.1614054738,2.799740691l3.2521593337-5.476228003c-3.3853268376-2.6759161278-6.5219437783-3.7212647134-11.2183830249-3.7212647134-10.0485978932,0-16.6410421147,6.920140726-16.6410421147,16.3750742969M382.367519635,364.0887862809c-3.9166912891,0-6.4596031086,1.8338682995-8.2234197525,4.5719211027v-3.7926627317h-6.7252853344v31.1910606675h6.7876260041v-17.4826819544c0-5.1570992606,2.2240278704-8.0282787688,6.6544585003-8.0282787688,1.3737794697,0,2.8092468271.1952633803,4.2443877937.7884789151l2.0915131484-6.3977112265c-1.5062941916-.5846069738-3.4555008898-.8501260041-4.8292803595-.8501260041M200.5726614948,367.3492685837c-3.2606454982-2.1443068831-7.7622293532-3.2604823027-12.7155382702-3.2604823027-7.9042094124,0-12.9903594423,3.7834829864-12.9903594423,9.9859716315,0,5.0862724265,3.7835237853,8.2229709649,10.7575190166,9.1980639005l3.2077701658.4607416118c3.7215095066.5230006837,5.4758608132,1.4975224351,5.4758608132,3.2605231016,0,2.4103970975-2.4812239317,3.7840541706-7.1065099532,3.7840541706-4.705251802,0-8.0902522487-1.4975224351-10.3762943978-3.2610942858l-3.1989576104,5.2815358068c3.7218358975,2.7381344009,8.4179487532,4.0495732009,13.504425174,4.0495732009,9.00316771,0,14.2218324618-4.2447957823,14.2218324618-10.1818061959,0-5.484836564-4.1024077344-8.3473667122-10.8903601295-9.3305378236l-3.1986312195-.4607416118c-2.9329489937-.3899147776-5.2901443679-.9745217514-5.2901443679-3.0658309054,0-2.2860013502,2.2243542613-3.6510090634,5.9370512125-3.6510090634,3.9875181233,0,7.8421951337,1.5067429792,9.7297139441,2.676487312l2.9326226028-5.485448547h0ZM288.0761143674,364.0887862809c-3.9163648982,0-6.4596031086,1.8338682995-8.2139544152,4.5719211027v-3.7926627317h-6.7256117253v31.1910606675h6.7788134487v-17.4826819544c0-5.1570992606,2.2240278703-8.0282787688,6.6544585002-8.0282787688,1.3734530787,0,2.8092468271.1952633803,4.2443877937.7884789151l2.0915131484-6.3977112265c-1.4974816362-.5846069738-3.4561536717-.8501260041-4.8296067505-.8501260041M230.2047158337,364.868044652h-11.0943544674v-9.4549335709h-6.8584528382v9.4549335709h-6.3270883867v6.203100628h6.3270883867v14.2307674138c0,7.2306201084,2.8089204362,11.5462427249,10.8283458507,11.5462427249,2.9417615491,0,6.3355745511-.9128746624,8.4887755873-2.4190464575l-1.9583456446-5.8039245075c-2.0200335324,1.1692139475-4.2443877937,1.7630414654-6.0078780466,1.7630414654-3.3846740557,0-4.4924449087-2.0907787688-4.4924449087-5.2193583326v-14.0977223066h11.0943544674v-6.203100628h0ZM128.7979880575,396.0591053195v-19.5739503096c0-7.3722737767-4.6964392466-12.326113079-12.2638132082-12.396368729-3.9878445142-.0714388172-8.0905786396,1.1691731487-10.9703259099,5.5470140382-2.1447148717-3.4562760683-5.5382014829-5.5470140382-10.3051411727-5.5470140382-3.3321251142,0-6.583958057.9745217514-9.1360088229,4.6341393758v-3.8548810047h-6.7876260041v31.1910606675h6.8496402828v-17.2874185741c0-5.414580914,3.0041022188-8.2851484392,7.6385271866-8.2851484392,4.5100700194,0,6.7876260041,2.9327857982,6.7876260041,8.2137504209v17.3588165923h6.8493138919v-17.2874185741c0-5.414580914,3.1281307763-8.2851484392,7.6382007957-8.2851484392,4.6256124125,0,6.8496402828,2.9327857982,6.8496402828,8.2137504209v17.3588165923h6.8499666738Z"/><polygon class="cls-5" points="301.3856841498 311.932207528 198.6055032948 311.932207528 198.6055032948 127.2221683009 301.3856841498 127.2221683009 301.3856841498 311.932207528"/><path class="cls-4" d="M205.1891349609,219.5634080969c0-37.464437345,17.5454714116-70.8441532646,44.8643931533-92.3504399406-19.9819797844-15.7282898489-45.1920896579-25.1210459455-72.5991369536-25.1210459455-64.8636716576,0-117.4543911606,52.5908215002-117.4543911606,117.4714858862,0,64.8811743718,52.5907195031,117.4720162714,117.4543911606,117.4720162714,27.4070472958,0,52.6171571693-9.3841475356,72.5991369536-25.1124373845-27.3189217418-21.5149156365-44.8643931533-54.8854110121-44.8643931533-92.359578887"/><path class="cls-3" d="M440,219.5634080969c0,64.8811743718-52.5907195031,117.4720162714-117.4625509342,117.4720162714-27.3988875222,0-52.6086710048-9.3841475356-72.5994633446-25.1124373845,27.3277342972-21.5149156365,44.8725529269-54.8854110121,44.8725529269-92.359578887,0-37.464437345-17.5448186297-70.8441532646-44.8725529269-92.3504399406,19.9907923398-15.7282898489,45.2005758223-25.1210459455,72.5994633446-25.1210459455,64.8718314311,0,117.4625509342,52.5908215002,117.4625509342,117.4714858862"/><rect class="cls-1" width="500" height="500"/></svg>