<?xml version="1.0" encoding="UTF-8"?>
<svg id="Layer_1" data-name="Layer 1" xmlns="http://www.w3.org/2000/svg" version="1.1" viewBox="0 0 500 500">
  <defs>
    <style>
      .cls-1 {
        fill: none;
      }

      .cls-1, .cls-2 {
        stroke-width: 0px;
      }

      .cls-2 {
        fill: #df0000;
        fill-rule: evenodd;
      }
    </style>
  </defs>
  <rect class="cls-1" width="500" height="500"/>
  <g>
    <path class="cls-2" d="M473.7999878,239.6000061c.2999878,0,.7000122.1999969.8999939.3999939.2000122.1999969.2999878.5.2999878.8000031v.1999969l-1,6c0,.6000061-.6000061,1-1.2000122,1h-7.3999939c-.2999878,1.8000031-5.5,29.7999878-5.5,29.7999878,0,.6000061-.6000061,1-1.2000122,1h-7.7000122c-.2000122,0-.3999939-.1000061-.5-.2000122-.1000061,0-.2999878.2000122-.3999939.2000122h-7.3999939c-.3999939,0-.7999878-.2000122-1-.5,0,0-7.2000122-11.8999939-9.6000061-15.6000061-1,5.5-2.7000122,14.7000122-2.8999939,15.2999878-.2000122.5-.6000061.7999878-1.1000061.7999878h-6.6000061c-.3999939,0-.7000122-.2000122-.8999939-.3999939-.2000122-.2999878-.2999878-.6000061-.2999878-.8999939s2.7000122-16.2000122,5-29.6999969c-.1000061,0-.7999878,0-1,.1000061-3.2999878.5-7,2.1999969-8.5,7.8000031l-4.5,22.2999878c-.1000061.6000061-.6000061.8999939-1.1000061.8999939h-5.8999939c-.3999939,0-.7000122-.1000061-.8999939-.3999939-.2000122-.2999878-.2999878-.6000061-.2999878-.8999939l6.6000061-35.8999939.2000122-.8999939c.1000061-.6000061.6000061-.8999939,1.2000122-.8999939h6.1000061c.3999939,0,.7000122,0,.8999939.3999939.2000122.3000031.2999878.6000061.2999878,1v.8999939c2.1000061-1.3999939,5.2000122-2.6000061,8-2.6999969.3999939,0,.7000122.1999969,1,.5.8999939-5.3999939,1.7999878-9.8000031,2-10.6999969,0-.6000061.6000061-1,1.2000122-1h6.7000122c.2999878,0,.7000122.1999969.8999939.3999939.2000122.1999969.2999878.5.2999878.8000031s0,.1000061,0,.1999969c0,0-2.8999939,15.5-3.8999939,21.1000061,3.2000122-3.5,8.7999878-10.5,8.7999878-10.5.2000122-.1999969.5-.3999939.8999939-.3999939h7.8999939c.3999939,0,.7999878.1999969,1,.5.2000122-.3000031.6000061-.5,1-.5h3.8000183c.2999878-1.6000061,2-10.6000061,2-10.6000061,0-.6000061.6000061-1,1.2000122-1h6.7999878c.2999878,0,.7000122.1999969.8999939.3999939.2000122.1999969.2999878.5.2999878.8000031s0,.1000061,0,.1999969c0,0-1.5,8-1.8999939,10.1999969h6.8999939l-.3999939-.2999725ZM451.1000061,275.3999939c1-6.2000122,4.7000122-25.3999939,5-27.5h-3.2999878c-.3999939,0-.7000122-.1999969-.8999939-.3999939-.2000122-.3000031-.2999878-.6000061-.2999878-1l.8999939-4.6000061c-2,2.3000031-11.6000061,14.1000061-12.6000061,15.2000122.7000122,1.1000061,8.3999939,13.8999939,11.2000122,18.2999878h-.0000305ZM25,277.7999878h0c0-.2999878,0-.5.2000008-.6000061l49.2000008-56.6999969c.1999969-.1999969.4000015-.3000031.6999969-.3000031h7.6999969c.3000031,0,.5.1000061.6999969.3000031.0999985.1999969.1999969.3999939.1999969.6000061s0,.1000061,0,.1999969c0,0-5.3000031,30.3999939-6.4000015,35.8999939,3.9000015-4.3999939,28.6999969-36.6000061,28.6999969-36.6000061.1999969-.1999969.4000015-.3000031.6999969-.3000031h8c.3000031,0,.5.1000061.6999969.3000031s.1999969.5.1999969.8000031l-5.8000031,31.8999939c0-.1000061.0999985-.1999969.1999969-.3000031,3.6999969-7.3000031,11.4000015-12.3999939,19.1000061-13.3000031h0c6.8999939-.3000031,12.3000031,2.3000031,15.5,7.6000061h0c1.1999969,2.3000031,2,5.3999939,2.1999969,8.6000061,1.3000031-3.8000031,3.6000061-7.3999939,6.8999939-10.3000031,5.5-5.1000061,12.1999969-7.1000061,18.8000031-5.6999969h.1999969l.6000061.3000031c1.5.6000061,3.1000061,1.3000031,4.5,2.6000061.6999969-3.3999939,2.8000031-13.6000061,2.8000031-13.6000061.1000061-.5.6000061-1,1.1999969-1h6.1000061c.3999939,0,.6999969.1999969.8999939.3999939.1999969.3000031.3000031.6000061.3000031,1l-8.8999939,48.3999939c-.1000061.6000061-.6000061.7999878-1.1999969.7999878h-6.1000061c-.3999939,0-.6999969,0-.8999939-.2000122s-.3000031-.5-.3000031-.7999878,0-.1000061,0-.2000122c0,0,.1999969-.7999878.3000031-1.2999878-5,3.1000061-10,4.2999878-14.6999969,3.3999939-5.3999939-1.1000061-10.3999939-6.2999878-11.3999939-12-.3000031-1.5-.3999939-3-.3999939-4.5-.1999969.2000122-.5.2999878-.8000031.2999878h-28.3000031v.2999878c0,.3999939.0999985,1,.3000031,1.6000061,0,0,0,.2999878.0999985.3999939,1.3000031,3.2999878,4.5999985,5.3999939,8.1999969,5.2999878,3.5999985,0,7.0000076-1.7999878,10.0000076-5.2000122.1999969-.2999878.5-.3999939.8999939-.3999939h6.3000031c.3999939,0,.8000031.2000122,1,.6000061.1999969.2999878.1999969.7999878,0,1.1000061-3.6000061,7.5-11.6000061,12.6000061-20,12.6000061-5.9000015-.2000122-10.8000031-3.1000061-13.5-7.7999878-1.4000015-2.5-2-5.7000122-2-8.8999939l-2.8000031,15c0,.3999939-.5.7000122-.9000015.7000122h-7.4000015c-.3000031,0-.5-.1000061-.6999969-.2999878-.0999985-.2000122-.1999969-.3999939-.1999969-.5v-.2000122c3.0999985-13,5.5999985-31.6999969,7.0999985-39-3.8000031,4.5-29.7999954,39.7999878-29.7999954,39.7999878-.1999969.2000122-.4000015.2999878-.6999969.2999878h-7.5999985c-.3000031,0-.5-.1000061-.6999969-.2999878-.0999985-.2000122-.2000008-.3999939-.2000008-.6000061v-.2000122c2.7999992-13.1000061,5.7999992-31.6999969,7.2000008-39-3.6999969,4.3999939-34.9000015,39.7000122-34.9000015,39.7000122-.2000008.2000122-.4000015.2999878-.7000008.2999878h-9.8999996c-.2999992,0-.7000008-.2999878-.7999992-.6000061v-.2999878l.2999935-.0999451ZM176,257.5c0-1.8000031-.3999939-3.6000061-1.1999969-5-1.5-2.5-3.6000061-3.6000061-5.3000031-4-3-.6999969-6.3000031,0-8.8000031,1.6999969-4.3000031,3.1999969-6.8000031,7.5000153-6.8000031,11.9000092,0,.7000122,0,1.2999878.1999969,2.1000061.3999939,2.1000061,1.6000061,4.2000122,3.5,5.3999939,1.6999969,1.1000061,4.3999939,1.6000061,7.8000031.8999939,4.5-1.1000061,8.8999939-5.6000061,10.1999969-10.3999939.1999969-.8999939.3000031-1.5.3999939-2.6000061h.0000153ZM119.0999985,254.6000061h18.2999954c-.1000061-1.3000031-.8000031-2.6999969-2.3000031-4.1000061-1.6000061-1.3999939-3.1999969-2.3000031-6.8999939-2-3.4000015.5-7.3000031,2.6000061-9.0999985,6.1000061ZM407.7999878,240.8000031l-1.2999878,7.8999939-5.5,29.1999969c-.1000061.6000061-.6000061.7999878-1.2000122.7999878h-6.1000061c-.3999939,0-.7000122,0-.8999939-.2999878-.2000122-.2000122-.2999878-.5-.2999878-.7999878v-.2000122s.2000122-.7999878.2999878-1.2999878c-5,3.1000061-10,4.2000122-14.7000122,3.3999939-5.3999939-1.1000061-10.3999939-6.2999878-11.3999939-12-.2999878-1.5.2000122-3,.2999878-4.5v-1l-2.7999878,16c0,.3999939-.3999939.7000122-.8999939.7000122h-7.5c-.2999878,0-.5-.1000061-.7000122-.3999939-.1000061-.2000122-.2000122-.3999939-.2000122-.5v-.2000122c2.6000061-12.8999939,5.2999878-30.6000061,6.8999939-37.8999939-3.7999878,4.5-29.5,38.7000122-29.5,38.7000122-.2000122.2000122-.3999939.2999878-.7000122.2999878h-7.6000061c-.2999878,0-.5-.1000061-.7000122-.2999878-.1000061-.2000122-.2000122-.3999939-.2000122-.6000061v-.2000122c2.6000061-13.1000061,5.3999939-30.6999969,6.7999878-37.8999939-3.7000122,4.3999939-35.6000061,38.7000122-35.6000061,38.7000122-.2000122.2000122-.3999939.2999878-.7000122.2999878h-9.7000122c-.2999878,0-.7000122-.2000122-.7999878-.5-.1000061-.2999878,0-.6000061,0-.8999939h0c.3999939-.6000061.7000122-1,.8999939-1.5.7999878-1.5,1.2000122-2.8999939,1.3999939-3.8999939,1-6.7000122-.3999939-12.3999939-.3999939-12.3999939-2.2999878-12-12.6000061-18.6000061-20.8999939-15h.2999878c.3999939,0,.7999878,0,1.1000061.1000061,9-1.3999939,17.2999878,7.6999969,16.3999939,19.8999939,0,0-.5,5.7999878-3.2999878,12.2999878-2,1-4.2000122,1.8999939-6.5,2.5-.3999939,0-.7000122.2000122-1.1000061.2000122,4.5-5.6000061,6.6000061-11.2000122,6.6000061-11.2000122,4.1000061-11.7999878-1.8999939-23-11.2999878-23.5.3999939.1999969.7999878.3999939,1.1000061.6000061,9.1000061,2.8000031,12,15.2999878,5,25.7000122,0,0-3.3999939,4.7999878-9.2000122,9.1000061-2.7999878-.1000061-5.5-.7000122-8.1000061-1.5,6.7000122-2.6000061,11.2000122-6.3999939,11.2000122-6.3999939,9.2999878-8.1000061,9.7999878-20.6000061,2.2999878-25.8000031.2999878.3999939.6000061.8999939.7999878,1.3999939,5.7999878,7.1000061,2,18.8000031-9,24.1999969,0,0-5.1999969,2.3999939-12.1999969,3.2999878-2-1.2999878-3.8000031-2.7999878-5.5-4.5,6.8000031.8999939,12.1999969,0,12.1999969,0,12.1000061-2.2999878,18.7999878-12.7999878,14.8999939-21.1999969v1.1999969c1.7999878,9.1000061-7.5,17.7000122-19.8000031,16.7999878,0,0-5.3999939-.5-11.6999969-3.1000061-1.1999969-2.2000122-2.1000061-4.6000061-2.8000031-7.1000061,0-.2000122,0-.3999939-.1000061-.6000061,5.3999939,4.2000122,10.5,6.1000061,10.5,6.1000061,11.5999908,4,22.4999847-1.7000122,23.4999847-10.6999969-.2000122.5-.5.8999939-.7999878,1.1999969-3.2999878,8.5-15.3000031,11.1000061-25.3999939,4.2000122,0,0-5.1999969-4.1000061-9.3000031-8.8000031l-5.3000031,29.0000153c-.1000061.6000061-.6000061.7999878-1.1999969.7999878h-6.1000061c-.3999939,0-.6999969,0-1-.3999939-.1999969-.2000122-.1999969-.3999939-.1999969-.6000061v-.2000122s.1999969-.7999878.3000031-1.2999878c-5,3.1000061-10,4.2999878-14.6999969,3.3999939-5.3999939-1.1000061-10.3999939-6.2999878-11.3999939-12-.3000031-1.5-.3999939-4.6000061-.3999939-4.7000122l-2.6999969,15c0,.6000061-.6000061.7999878-1.1999969.7999878h-6.8000031c-.3999939,0-.6999969,0-.8999939-.2000122-.1999969-.2999878-.3000031-.6000061-.3000031-1l6.8000031-36.8999939c.1000061-.6000061.6000061-1,1.1999969-1h6.8000031c.3000031,0,.6999969.1999969.8999939.3999939.1999969.3000031.3000031.6000061.3000031,1l-2.8000031,15c0-.1999969.1000061-.1999969.1000061-.1999969,1.3000031-3.8000031,3.6000061-7.3999939,6.8000031-10.3999939,5.5-5.1000061,12.1999969-7.1999969,18.8999939-5.6000061l.8999939.3000031c1.5.6000061,3,1.3000031,4.3999939,2.6000061.1999969-1.3999939.5-2.1000061.5-2.1000061.3000031-.6000061.6999969-.8999939,1.3000031-.8999939h6.1000061c.3999939,0,.6999969,0,1,.3000031.1999969.1999969.3999939.6000061.3999939.8000031,2.1999969,6.1999969,6.1999969,11.5,6.1999969,11.5,8.1999969,9.5,21,9.8999939,26.1000061,1.8999939-.2999878.1999969-.6000061.3999939-.8999939.6000061h-.1000061v.1000061c-7,6.5-19.3000031,2.7999878-24.8000031-8.5,0,0-2.3000031-5-3.1999969-11.8000031,1.5-2.3999939,3.1999969-4.6000061,5.1999969-6.5-1,6.8999939,0,12.3999939,0,12.3999939,2.3999939,12.1999969,13.0999908,18.9000092,21.4000092,14.8000031h-1.5c-9.1000061,1.7999878-17.6999969-7.5-16.8000031-19.8000031,0,0,.5-5.6000061,3.1999969-12,2.1000061-1.1000061,4.3999939-2,6.7000122-2.6999969-4.1999969,5.3999939-6,10.5-6,10.5-4.1000061,11.8000031,1.8999939,23,11.2999878,23.5-.2999878-.1000061-.6000061-.3000031-.8999939-.5h-.1000061c-9.1000061-2.8000031-12.1000061-15.3000031-5-25.6999969,0,0,3.2000122-4.6000061,8.7000122-8.8000031,2.7999878,0,5.7000122.3999939,8.3999939,1.3000031-6.6000061,2.6000061-11,6.3000031-11,6.3000031-9.3999939,8.1999969-9.8999939,20.8999939-2,26-.2999878-.3999939-.5-.6999969-.7000122-1.1999969-6.3000031-7-2.6000061-19.1999969,8.6000061-24.6000061,0,0,5.2999878-2.3999939,12.2999878-3.3000031,2.2999878,1.3999939,4.2999878,3.1000061,6.1000061,4.8999939-7.1000061-1.1000061-12.7999878,0-12.7999878,0-12.2000122,2.3999939-18.8999939,13.1000061-14.7999878,21.5v-1.3000031c-1.8999939-9.1999969,7.2999878-17.8999939,19.7999878-17,0,0,5.8999939.5,12.5,3.3999939,1.1000061,2.1000061,2,4.3999939,2.6000061,6.8000031,0,.3999939.2000122.6999969.2000122,1.1000061-5.7000122-4.6000061-11.2999878-6.6000061-11.2999878-6.6000061-11.6000061-4-22.5,1.6999969-23.5,10.6999969.2000122-.5.5-1,.8999939-1.3999939,3.2999878-8.3999939,15.2999878-10.8999939,25.3999939-4.1000061,0,0,4.7999878,3.3999939,9.1000061,9.1999969-.1000061,2.3999939-.5,4.8999939-1.2000122,7.2000122-2.6000061-6.6000061-6.2999878-11-6.2999878-11-8-9.1999969-20.3999939-9.8000031-25.7000122-2.5.3999939-.1999969.7000122-.3999939,1.1000061-.5,7-5.8999939,19-2.1999969,24.3999939,8.8999939,0,0,3.2999878,7.5,4,14.5l41.2000122-47.6000061c.2000122-.1999969.3999939-.3000031.7000122-.3000031h8.6000061c.2999878,0,.5.1000061.7000122.3000031.1000061.1999969.2000122.3999939.2000122.6000061s0,.1000061,0,.1999969c0,0-5.1000061,30.5-6.5,35.9000092,3.8999939-4.3999939,28.5-36.6999969,28.5-36.6999969.2000122-.1999969.3999939-.3000031.7000122-.3000031h8.2000122c.2999878,0,.5.1000061.7000122.3000031s.2000122.5.2000122.8000031l-6.1000061,32.8000031c1.3999939-3.1000061,3.3999939-6.1000061,6.2000122-8.6000061,5.5-5.1000061,12.2000122-7.1000061,18.7999878-5.6999969h.2000122l.6000061.3000031c1.8999939.8000031,3.2999878,1.5,4.7000122,2.8000031l.5-2.3000031c.1000061-.5.6000061-.8999939,1.2000122-.8999939h6.1000061c.3999939,0,.7000122.1000061.8999939.3999939.2000122.1999969.2999878.5.2999878.8000031l-.0000305-.0999908ZM224.3000031,260.2000122c.3000031-.8999939.3999939-1.7999878.3999939-2.7999878,0-1.6999969-.3999939-3.5-1.1999969-4.8999939-1.3999939-2.6000061-3.6999969-3.6000061-5.3999939-4-3-.6999969-6.3000031,0-8.8000031,1.6999969-4.3000031,3.1999969-6.6999969,7.4999847-6.6999969,11.9000092s0,1.2000122.1999969,2.1000061c.6000061,2.1000061,1.6000061,4.2000122,3.3999939,5.3999939,1.6999969,1.1000061,4.6999969,1.5,8,.8999939,4.5-1.1000061,8.6000061-5.5,10-10.3999939l.1000061.0999756ZM396.6000061,260.2000122c.2999878-.8999939.3999939-1.7999878.3999939-2.7999878,0-1.6999969-.3999939-3.5-1.2000122-4.8999939-1.3999939-2.6000061-3.7000122-3.6000061-5.3999939-4-3-.6999969-6.2999878,0-8.7999878,1.6999969-4.2999878,3.1999969-6.7000122,7.4999847-6.7000122,11.9000092s0,1.3999939.2000122,2.1000061c.5,2,1.6000061,4.2000122,3.5,5.3999939,1.7000122,1.1000061,4.2000122,1.6000061,7.6000061,1,4.5-1.1000061,8.8999939-5.7000122,10.3999939-10.5v.0999756Z"/>
    <path class="cls-2" d="M190.8000031,238.5h6.8000031c.6000061,0,1.1000061-.6000061,1.1999969-1.1000061l1.5-7.8999939c0-.3000031,0-.6999969-.3000031-1-.1999969-.3000031-.6000061-.3999939-.8999939-.3999939h-6.8000031c-.6000061,0-1.1000061.5-1.1999969,1l-1.3999939,7.8999939c0,.3000031,0,.8999939.1999969,1.1000061.1999969.3000031.6000061.3999939.8999939.3999939Z"/>
  </g>
</svg>