<?xml version="1.0" encoding="UTF-8"?><svg id="Layer_1" xmlns="http://www.w3.org/2000/svg" viewBox="0 0 500 500"><defs><style>.cls-1{fill:none;}.cls-1,.cls-2,.cls-3{stroke-width:0px;}.cls-2{fill:#010101;}.cls-2,.cls-3{fill-rule:evenodd;}.cls-3{fill:#ff6616;}</style></defs><path class="cls-2" d="M65.1139941041,311.8602523384c-.9263547228.436806443-1.9380940878.817263968-3.0352266224,1.1405027823-1.0971325346.3236822381-2.1585012433.4855318845-3.1832107512.4855318845-1.3215731402,0-2.532264776-.1873294538-3.6334222334-.5615278828-1.1011574573-.3742154838-2.0386873098-.9357433667-2.8134764048-1.6841572796-.7819435657-.7564637583-1.3855028978-1.7020306652-1.8106737326-2.8367177753-.4251750985-1.1342436864-.6379843596-2.4620759225-.6379843596-3.9825928062,0-2.7839674111.7917798969-4.980927132,2.3748877397-6.5913055316,1.5831121065-1.6103783997,3.7568176659-2.4151241758,6.5206689908-2.4151241758.964352722,0,1.9492649538.1189228224,2.9556491251.3567684671,1.0059236928.2378456448,2.0896511882.6411053802,3.2516088552,1.2102396848v2.7491074872h-.2052113667c-.2351595205-.1873294538-.5767321989-.4327815203-1.0251529316-.7372430469-.447977309-.3040181029-.8883481962-.5575029601-1.3211211891-.7600282026-.5239818347-.2418705675-1.1181439956-.4426221152-1.7825120647-.6026639573-.6643595417-.1596154732-1.4176852247-.2396363943-2.2608809511-.2396363943-1.8978533881,0-3.3996015113.6259095915-4.5043319403,1.8772853508-1.1047389564,1.251819183-1.6573301464,2.9458170575-1.6573301464,5.0824029377,0,2.2537350078.57718415,4.006281864,1.7311004989,5.2576746781,1.1543597726,1.251819183,2.726288222,1.8772853508,4.7153504519,1.8772853508.7291846741,0,1.4561437024-.0737788799,2.1813034537-.2222064324.7251682788-.1479841288,1.3609099378-.3393214505,1.907693983-.5731592273v-4.2691638924h-4.5445726401v-2.0355534982h6.7768442359v7.4742814793ZM96.2647555361,313.1469484999h-11.1734327472v-17.4164545535h11.1734327472v2.0587991323h-8.9179069899v4.7721427936h8.9179069899v2.0587991323h-8.9179069899v6.4683577866h8.9179069899v2.0583557086ZM128.2010335055,308.1758619629c0,.6786770105-.153799801,1.3492871207-.4609389245,2.0118644403-.3075825472.6630207433-.738573318,1.2245486261-1.2929552575,1.6846007033-.6075757274.4989369237-1.3153140443.8887916199-2.1240762157,1.1695640887-.8087706989.2807724688-1.7825120647.4211501758-2.9216675212.4211501758-1.2223229803,0-2.3212462644-.1171320729-3.2972218035-.3509527949-.975523588-.2338377768-1.9684941926-.5812090727-2.9784428081-1.0412611498v-2.9006560603h.1596069458c.8579480914.7332181242,1.8491194192,1.298327506,2.9726356633,1.6962320477,1.1239596678.3974440632,2.1790692805.5964048614,3.166224213.5964048614,1.3971257149,0,2.4848696056-.2691411243,3.2632401996-.8069799493.778370594-.5382822487,1.1673213881-1.255400682,1.1673213881-2.1522421474,0-.7721200255-.1837479547-1.3412543301-.5521477663-1.7078463374-.3683827568-.3666090621-.9281369449-.6509630299-1.6801238295-.8539316961-.5695777283-.1560339742-1.186550627-.2847973915-1.8509101687-.3858297735-.6643595417-.1014928605-1.3685163596-.230239223-2.1124533987-.3862731972-1.5035303454-.3272637371-2.6176579457-.8870179252-3.342817697-1.6783416073-.7251682788-.7913407369-1.0877524181-1.8227442371-1.0877524181-3.0938011863,0-1.4583693482.5995344094-2.6534132443,1.7994986029-3.5851316882,1.1995207698-.9317184439,2.721828403-1.3975691385,4.5673748505-1.3975691385,1.1919143481,0,2.2854739111.1166886492,3.2797747868.3505093712.9947528268.2342641457,1.875511656.5226259815,2.6427028567.8659894095v2.7370327191h-.1596154732c-.6451303029-.5615449376-1.4936897505-1.0273956322-2.5456698153-1.398029617-1.0515366411-.3701735064-2.1276577148-.5557122106-3.2288151721-.5557122106-1.2071186642,0-2.177278531.2575097799-2.9100447041.7721029707s-1.0989232841,1.1776139341-1.0989232841,1.9886188062c0,.725151224.1819572052,1.2942855286.5463320941,1.7078463374.3648183126.4131003304,1.0063756439.728732723,1.9251239449.9473576564.4859753082.1090822274,1.1767185594.2414271438,2.07266465.397461118.8959460906.1560169194,1.6555393969.3160758163,2.2778760167.4797162123,1.2607729306.3429029495,2.2099213364.8615210631,2.8474452176,1.5558372859.6379843596.6938727992.9567548276,1.6644760897.9567548276,2.91227035ZM160.9577135182,311.8839584509c-.4175686768.1868689753-.7953656596.3625670846-1.1333568391.5262074805-.3379911794.1636233412-.7801528162.3353135825-1.326928334.5145931909-.4631730977.1484275524-.9661349441.2749567966-1.5089025939.380457525-.5431940188.1050743595-1.140946206.1578247237-1.7941263544.1578247237-1.2299208747,0-2.3480648702-.1774888588-3.353988563-.5324665765-1.0063841712-.3545513487-1.8813273283-.9102635593-2.62525584-1.6667273176-.7291932015-.7408074912-1.298327506-1.6823665301-1.7087502395-2.8246430072-.4099622551-1.1422935319-.6147387255-2.470125768-.6147387255-3.9830362299,0-1.4346802903.1971700487-2.717368584.591936515-3.8480307714.3952269448-1.1306621874.9643612493-2.0860696892,1.7087502395-2.8657790817.721143356-.7564637583,1.5924879593-1.3336479083,2.6136244956-1.7310919716,1.02157996-.3979045417,2.154936799-.5964048614,3.4000534624-.5964048614.9111504067,0,1.8205100639.1126637265,2.7276355479.3388780268.9075689077.2262313551,1.91528335.6241358967,3.0240472291,1.1932702013v2.7486470088h-.1707863392c-.9339526172-.8029550266-1.8602988126-1.3877455984-2.779055641-1.7543546605-.9187397737-.3665920073-1.9023217345-.5498965384-2.9498249255-.5498965384-.8584000425,0-1.6309464369.1421684565-2.3181167165.4269487933-.6871702796.2847973915-1.3001012008.7269590283-1.8392873516,1.3278322361-.5239733073.5847905717-.9321618676,1.3233638897-1.2245486261,2.2161804323-.2919433348.8928165426-.438136714,1.9242370975-.438136714,3.0938011863,0,1.2245486261.161389168,2.276980642.483741135,3.1581658402.3227783359.8812022529.738573318,1.59876411,1.2473508366,2.1522421474.5315797291.57718415,1.152117072,1.004149998,1.8620895621,1.2808804894.7099554353.2767475461,1.459716674.4153515583,2.2497100851.4153515583,1.0855011902,0,2.1030562274-.1909109528,3.0522046333-.5731592273.9491484059-.3822653293,1.8374966021-.9554075018,2.6650445887-1.7194776819h.1596154732v2.713787085ZM193.1559866686,313.1469484999h-2.2550823337v-8.5267134952h-8.4623317865v8.5267134952h-2.2550652789v-17.4164545535h2.2550652789v6.8309419259h8.4623317865v-6.8309419259h2.2550823337v17.4164545535ZM224.9219217224,313.1469484999h-11.1734242198v-17.4164545535h11.1734242198v2.0587991323h-8.9183589409v4.7721427936h8.9183589409v2.0587991323h-8.9183589409v6.4683577866h8.9183589409v2.0583557086ZM257.4733988957,313.1469484999h-2.7906869854l-8.040738187-15.5798447987v15.5798447987h-2.1070811501v-17.4164545535h3.496617498l7.3347906197,14.2234117347v-14.2234117347h2.1070982049v17.4164545535ZM291.6535712779,313.1469484999h-2.9270397698l-6.7084205498-7.7550539481-1.6859650838,1.8482410992v5.906812849h-2.2550482241v-17.4164545535h2.2550482241v9.088241378l8.2347872151-9.088241378h2.7334341653l-7.5739835903,8.1878354684,7.9271876132,9.228619085ZM323.8518273735,313.1469484999h-2.9270056602l-6.7084546593-7.7550539481-1.6854875506,1.8482410992v5.906812849h-2.2555257573v-17.4164545535h2.2555257573v9.088241378l8.2343096819-9.088241378h2.7334682748l-7.5739835903,8.1878354684,7.9271535037,9.228619085ZM355.7885658213,313.1469484999h-2.4034928313l-1.6627023949-4.8539374094h-7.3348076745l-1.6631117091,4.8539374094h-2.2890554101l6.1728329527-17.4164545535h3.0070606908l6.1732763764,17.4164545535ZM351.0276280033,306.3043922843l-2.9726441907-8.5504196078-2.9842755351,8.5504196078h5.9569197258ZM388.4312347817,313.1469484999h-2.9274831934l-5.6721052795-6.9243678862h-3.1774036064v6.9243678862h-2.2550482241v-17.4164545535h4.7493064736c1.025161459,0,1.8790931551.0684066314,2.5626819356.2047594157.6835887806.1363698391,1.2983104513.3800311561,1.8450859691.730983951.6151992039.3979045417,1.0953588399.8986322149,1.440956441,1.5030869217.3451200679.6044547069.5181576351,1.3702985817.5181576351,2.2984355266,0,1.255400682-.307599602,2.3060419484-.9227646964,3.1523672227-.6147557802.8458647959-1.4615244783,1.4834057318-2.5398626704,1.9121623294l6.3784792158,7.6146591864ZM383.1574945223,300.6313831027c0-.4989369237-.0854102244-.9415419841-.2561965636-1.3273717577-.1707863392-.3862731972-.4537929812-.7117632395-.8485423928-.9768794412-.3263939445-.2262143003-.7135369343-.384039024-1.161531298-.4734571163-.4479602542-.089861516-.975975539-.1345620348-1.583090788-.1345620348h-2.6538907775v6.5734150913h2.2778674894c.7135369343,0,1.33634256-.0643817087,1.8679052343-.193145126.5315967838-.1283029389.9831385371-.3683827568,1.3555462167-.7193355518.3415726784-.3272637371.594187743-.7037133941.7573676605-1.128445069.1631799175-.4251750985.2445652191-.9652480967.2445652191-1.6202189946ZM418.0668430512,297.7892930788h-6.0592823789v15.3576554211h-2.2550823337v-15.3576554211h-6.0592482694v-2.0587991323h14.3736129819v2.0587991323ZM447.5544842468,313.1469484999h-11.1725373725v-17.4164545535h11.1725373725v2.0587991323h-8.9192628431v4.7721427936h8.9192628431v2.0587991323h-8.9192628431v6.4683577866h8.9192628431v2.0583557086Z"/><path class="cls-3" d="M419.7491925265,262.9729270865c-11.9151356131,0-22.988857722-4.4600748452-27.924606802-8.0031836115l8.0362698406-14.8819641316c4.4833204794,2.8309191578,13.2009278726,7.1890577189,21.2429963307,7.1890577189,4.5521875892,0,10.3020625618-.9192002521,10.3020625618-6.1956351632,0-4.956334172-6.4254139078-6.4737300351-14.8515554994-8.9903470713-10.1746294156-3.0464060158-22.016463682-7.2753377359-22.016463682-21.5671475746,0-15.4001217667,13.1034769896-24.0099942583,30.1542434379-24.0099942583,11.260608139,0,19.9831273023,4.1618724145,24.4315878578,8.6098724916l-9.782131232,11.6370492686c-4.841879696-3.0186835079-9.7910338153-5.3689825513-15.3330454064-5.3689825513-6.6816104713,0-10.4603307092,2.6453719262-10.4603307092,6.5000966898,0,3.8207516871,4.8463480424,5.770016641,10.9485401906,7.6839611925,10.7808919267,3.4724850165,25.5032405851,7.028998822,25.5032405851,21.7741496908,0,15.1917979068-11.6285474721,25.6230673096-30.2508074735,25.6230673096Z"/><path class="cls-3" d="M351.1849751937,262.9729270865c-23.0840914866,0-35.2943085099-17.020784185-35.2943085099-38.3295266049,0-21.1102335728,12.2102170233-38.1296874867,35.2943085099-38.1296874867,21.6226011178,0,33.8484402987,17.0194539139,33.8484402987,38.1296874867,0,21.3087424199-12.2258391809,38.3295266049-33.8484402987,38.3295266049ZM351.1849751937,202.1186027046c-9.5093915538,0-16.2754912927,7.0920332048-16.2754912927,22.5247977769,0,15.6603261982,6.7660997388,22.7291137689,16.2754912927,22.7291137689,8.1547662941,0,14.8309874621-7.0687875707,14.8309874621-22.7291137689,0-15.4327645721-6.6762211681-22.5247977769-14.8309874621-22.5247977769Z"/><path class="cls-3" d="M293.0131424173,261.5507649879l-8.3626296756-20.2657075753c-1.7091936632-4.1278822833-2.900673115-6.172389529-6.5260369756-6.172389529h-7.3316695991v26.4380971044h-17.7204726564v-70.6757838841c0-1.5258806048,1.6077008028-2.9422355585,2.7584876037-2.9422355585h25.0199599286c13.5889918193,0,25.2408019803,2.9422355585,25.2408019803,21.277890364,0,8.205708854-4.3536702147,16.6094746041-12.5057418571,18.3074803466,4.0599531851,1.4396091152,8.1520716424,6.885039616,10.3745111707,12.7856104238l8.0577247253,21.2470383082h-19.0049346448ZM279.6606318621,202.1186027046h-8.8678256952v18.4603933002h8.8678256952c5.2947858299,0,9.4629002855-2.9511722513,9.4629002855-9.9479887463,0-7.0978403497-4.1681144557-8.5124045539-9.4629002855-8.5124045539Z"/><path class="cls-3" d="M213.6876972929,219.1626495785h22.9137485711c1.8106865237,0,2.8389690033,1.5442059415,2.8389690033,3.3535451393v38.0357925206c-6.4513712483,1.502643498-16.5236380108,2.420939848-24.014019181,2.420939848-26.2919037251,0-40.1522878968-13.0766498564-40.1522878968-38.3295266049,0-22.5247977769,13.8603841716-38.1296874867,36.9672778687-38.1296874867,10.1746635251,0,19.0947961608,2.8353875042,24.8397764181,6.885039616l-7.1054382441,12.6639929497c-4.959915671-2.3207943134-11.6544877579-3.9441428559-16.385494477-3.9441428559-13.2818526958,0-19.4913533766,9.2044866035-19.4913533766,22.5247977769,0,14.2354865028,7.1868064909,23.0241781243,20.452133127,23.0241781243,2.4365790604,0,5.4498988472-.099702111,7.8650400777-.4873055792v-12.9769648002h-8.7283518903v-15.0406586479Z"/><path class="cls-3" d="M145.5110834284,261.5507649879v-73.6180194426h15.4220371298c1.3600145631,0,2.7008084147,1.4163549537,2.7008084147,2.9422355585v70.6757838841h-18.1228455445Z"/><path class="cls-3" d="M113.5998418427,261.5507649879v-42.5025698854l-17.4557998785,42.5025698854h-9.6922526612l-17.1660907169-42.5025698854v42.5025698854h-18.0414772976v-73.6180194426h24.1477028958l16.5880111921,41.5699645941,17.3578970444-41.5699645941h22.2990183729v73.6180194426h-18.0370089512Z"/><rect class="cls-1" x="0" width="500" height="500"/></svg>