<?xml version="1.0" encoding="UTF-8"?>
<svg width="140px" height="80px" viewBox="0 0 140 80" version="1.1" xmlns="http://www.w3.org/2000/svg" xmlns:xlink="http://www.w3.org/1999/xlink">
    <title>im/logo-pay/migros-bank</title>
    <g id="im/logo-pay/migros-bank" stroke="none" stroke-width="1" fill="none" fill-rule="evenodd">
        <path d="M77.5247367,63.1149894 L81.8102333,68.993427 L78.420575,68.993427 L74.7998036,63.9782412 L74.7998036,68.993427 L71.9273983,68.993427 L71.9273983,58.4328347 C71.9385566,58.3098428 71.9984583,58.1963369 72.0938659,58.1174004 C72.1892734,58.0384639 72.3123319,58.0005956 72.4358471,58.0121638 L74.7998036,58.0121638 L74.7998036,62.6855545 L78.4734008,58.0121638 L81.6649622,58.0121638 L77.5247367,63.1149894 Z M67.0057905,64.810819 C66.3784836,63.6780749 62.5750229,58.0187368 62.5750229,58.0187368 L59.5617487,58.0187368 L59.5617487,69 L62.3549152,69 L62.3549152,62.0633122 L66.9771765,68.993427 L69.7571366,68.993427 L69.7571366,58.0121638 L67.0057905,58.0121638 L67.0057905,64.810819 Z M54.8998679,58.0187368 L58.2300972,69 L55.2872575,69 L54.7413904,67.1508008 L50.9423318,67.1508008 L50.4162744,69 L47.4602282,69 L50.7398327,58.3890148 C50.8036231,58.146654 51.0353087,57.9867049 51.2856998,58.0121638 L54.8998679,58.0187368 Z M54.2527513,65.0299184 L52.9034912,60.1155183 L52.7692256,60.1155183 L51.4199655,65.0299184 L54.2527513,65.0299184 Z M46.8571332,65.956709 C46.8571332,68.1849501 44.9994243,68.993427 42.4791914,68.993427 L38,68.993427 L38,58.5051375 C38.000568,58.3726593 38.054443,58.2459323 38.1495796,58.1532903 C38.2447162,58.0606482 38.3731795,58.0098178 38.5062477,58.0120861 L42.5386204,58.0120861 C44.5768176,58.0120861 46.4191189,58.6453611 46.4191189,60.7399516 C46.4191189,62.0545482 45.8974637,62.9791478 44.7749145,63.283696 C45.9502895,63.5115594 46.8659375,64.3704291 46.8659375,65.954518 L46.8571332,65.956709 Z M40.634689,62.4226352 L42.1754428,62.4226352 C43.3045952,62.4226352 43.8020385,62.0611212 43.8020385,61.2022514 C43.8020385,60.3433817 43.2693779,60.0147325 42.2436761,60.0147325 L40.63689,60.0147325 L40.634689,62.4226352 Z M44.1564119,65.6740707 C44.1564119,64.7516621 43.6105449,64.3594742 42.4483763,64.3594742 L40.634689,64.3594742 L40.634689,66.9886673 L42.3559311,66.9886673 C43.500491,66.9799033 44.1630151,66.6161982 44.1630151,65.6740707 L44.1564119,65.6740707 Z M71.4739765,30.8964189 C71.4739765,27.7326231 73.3933155,25.1450589 77.0250923,25.1450589 C80.425756,25.1450589 82.3472961,27.7326231 82.3472961,30.8964189 C82.3860554,32.3229957 81.907919,33.7158384 81.000237,34.8204896 L82.9261793,36.2687368 L81.3480072,37.9054095 L79.1601368,36.2775008 C78.4797475,36.5423291 77.7556472,36.6783119 77.0250923,36.6784527 C73.6310318,36.6784527 71.4739765,34.3275159 71.4739765,30.8964189 Z M74.4652399,30.8964189 C74.4652399,33.2451647 75.52836,34.3384708 77.0250923,34.3384708 C78.306119,34.3384708 79.3560326,33.2429737 79.3560326,30.8964189 C79.3560326,28.5827289 78.306119,27.4850408 77.0250923,27.4850408 C75.52836,27.4850408 74.4652399,28.5827289 74.4652399,30.8964189 Z M84.0685381,25.4517981 L84.0685381,32.1124207 C84.0685381,35.0921729 85.6841285,36.6324418 88.9439233,36.6324418 C92.2939623,36.6324418 93.5859944,34.6386371 93.5859944,31.8473104 L93.5859944,25.4517981 L90.7554096,25.4517981 L90.7554096,31.9152312 C90.7554096,33.2583107 90.1303037,34.3077969 88.8514781,34.3077969 C87.4692019,34.3077969 86.9035251,33.2911756 86.9035251,31.7991085 L86.9035251,25.4517981 L84.0685381,25.4517981 Z M98.4217602,34.2464491 L98.4217602,31.7837715 L102.414514,31.7837715 L102.414514,29.7483379 L98.4217602,29.7483379 L98.4217602,27.5923995 L102.881142,27.5923995 L102.881142,25.4517377 L96.238292,25.4517377 C95.987598,25.4478196 95.77813,25.640883 95.7628594,25.889997 L95.7628594,36.4221064 L103,36.4221064 L103,34.2311121 L98.4217602,34.2464491 Z M62.3549152,29.5095195 L66.9771765,36.4418253 L69.7571366,36.4418253 L69.7571366,25.4517981 L67.0057905,25.4517981 L67.0057905,32.2438803 C66.3784836,31.1111363 62.5750229,25.4517981 62.5750229,25.4517981 L59.5617487,25.4517981 L59.5617487,36.4330613 L62.3549152,36.4330613 L62.3549152,29.5095195 Z M50.4162744,36.4418253 L47.4602282,36.4418253 L50.7398327,25.8352221 C50.8053174,25.5943007 51.0362011,25.4358319 51.2856998,25.4605621 L54.9108733,25.4605621 L58.2411026,36.4418253 L55.2872575,36.4418253 L54.7413904,34.5904352 L50.9423318,34.5904352 L50.4162744,36.4418253 Z M51.4287698,32.4761257 L54.2615557,32.4761257 L52.9122956,27.5595346 L52.7780299,27.5595346 L51.4287698,32.4761257 Z M42.4879957,36.4396343 L38,36.4396343 L38,25.9535358 C38.000568,25.8210576 38.054443,25.6943306 38.1495796,25.6016886 C38.2447162,25.5090465 38.3731795,25.4582161 38.5062477,25.4604844 L42.5386204,25.4604844 C44.5768176,25.4604844 46.4191189,26.0915684 46.4191189,28.18835 C46.4191189,29.5029465 45.8974637,30.4253551 44.7749145,30.7299033 C45.9502895,30.9490027 46.8659375,31.8254004 46.8659375,33.4029163 C46.8659375,35.6311574 45.0170329,36.4396343 42.4879957,36.4396343 Z M40.634689,29.8666516 L42.1754428,29.8666516 C43.3045952,29.8666516 43.8020385,29.5073285 43.8020385,28.6484587 C43.8020385,27.789589 43.2693779,27.4609399 42.2436761,27.4609399 L40.63689,27.4609399 L40.634689,29.8666516 Z M42.3559311,34.4348746 C43.500491,34.4348746 44.1630151,34.0689785 44.1630151,33.120278 C44.1630151,32.1715775 43.6171481,31.8056815 42.4549795,31.8056815 L40.634689,31.8056815 L40.634689,34.4348746 L42.3559311,34.4348746 Z M77.0206901,22.430417 C78.6516881,22.430417 79.9789374,21.8826685 80.6920863,21.3349199 L79.5915479,19.2490934 C79.0412787,19.6478543 78.5614439,20.0378513 77.361857,20.0378513 C75.3632793,20.0378513 74.4300227,18.62466 74.4300227,16.6352372 C74.4300227,14.6962073 75.4095019,13.3772288 77.3090312,13.3772288 C78.1231318,13.3952571 78.9206995,13.6095237 79.6333683,14.0016621 L80.7339067,11.9728015 C79.853476,11.392188 78.5196234,11 77.0691138,11 C73.208425,11 71.4739765,13.7014959 71.4739765,16.6965851 C71.4739765,19.6916742 73.1401917,22.430417 77.0206901,22.430417 Z M62.3549152,15.2855848 L66.9771765,22.2178906 L69.7571366,22.2178906 L69.7571366,11.2366274 L67.0057905,11.2366274 L67.0057905,18.0287096 C66.3784836,16.8981565 62.5750229,11.2366274 62.5750229,11.2366274 L59.5617487,11.2366274 L59.5617487,22.2178906 L62.3549152,22.2178906 L62.3549152,15.2855848 Z M50.4162744,22.2178906 L47.4602282,22.2178906 L50.7398327,11.6112874 C50.8045186,11.3698046 51.0359579,11.2109544 51.2856998,11.2366274 L54.9108733,11.2366274 L58.2411026,22.2178906 L55.2872575,22.2178906 L54.7413904,20.3665005 L50.9423318,20.3665005 L50.4162744,22.2178906 Z M51.4287698,18.252191 L54.2615557,18.252191 L52.9122956,13.3355999 L52.7780299,13.3355999 L51.4287698,18.252191 Z M42.4879957,22.2156996 L38,22.2156996 L38,11.7274101 C38.0005578,11.5951253 38.0545027,11.4686142 38.149707,11.3763182 C38.2449113,11.2840222 38.3733858,11.2336865 38.5062477,11.2366274 L42.5386204,11.2366274 C44.5768176,11.2366274 46.4191189,11.8676337 46.4191189,13.9644152 C46.4191189,15.2790118 45.8974637,16.2014204 44.7749145,16.5059686 C45.9502895,16.725068 46.8659375,17.6014657 46.8659375,19.1789816 C46.8659375,21.4072227 45.0170329,22.2156996 42.4879957,22.2156996 Z M40.634689,15.6427168 L42.1754428,15.6427168 C43.3045952,15.6427168 43.8020385,15.2812028 43.8020385,14.422333 C43.8020385,13.5634633 43.2693779,13.2348141 42.2436761,13.2348141 L40.63689,13.2348141 L40.634689,15.6427168 Z M42.3559311,20.1934119 C43.500491,20.1934119 44.1630151,19.8297069 44.1630151,18.8788154 C44.1630151,17.9279238 43.6171481,17.5642188 42.4549795,17.5642188 L40.634689,17.5642188 L40.634689,20.1934119 L42.3559311,20.1934119 Z M84.4559277,22.2091266 L81.4998815,22.2091266 L84.779486,11.6025234 C84.8432419,11.3613725 85.0739539,11.2023805 85.3231519,11.2278634 L88.9483255,11.2278634 L92.2785547,22.2091266 L89.3269107,22.2091266 L88.7810436,20.3577365 L84.9841861,20.3577365 L84.4559277,22.2091266 Z M85.4706241,18.243427 L88.30341,18.243427 L86.9541499,13.3355999 L86.8198842,13.3355999 L85.4706241,18.243427 Z M50.5791541,52.8392264 L38,52.8392264 L38,55.648081 L50.5791541,55.648081 L50.5791541,52.8392264 Z M70.0102604,39.6932608 L73.9259761,39.6932608 C76.0522163,39.6932608 77.8747079,40.1314597 77.8747079,42.8680115 C77.8747079,44.0927773 77.1945752,45.346026 75.9179506,45.6001813 C76.5540618,45.8192807 77.1945752,46.6255666 77.5423453,47.5063463 L78.8035624,50.674524 L75.8321086,50.674524 L74.524669,47.6531429 C74.2561376,47.0374736 74.0690461,46.7329254 73.5033693,46.7329254 L72.3544072,46.7329254 L72.3544072,50.676715 L69.5810504,50.676715 L69.5810504,40.1314597 C69.6046878,39.903973 69.7823985,39.7225406 70.0102604,39.6932608 Z M72.3522062,44.563841 L73.7388846,44.563841 C74.5686905,44.563841 75.2202093,44.1256422 75.2202093,43.0805379 C75.2202093,42.0354337 74.5598862,41.8097613 73.7388846,41.8097613 L72.3522062,41.8097613 L72.3522062,44.563841 Z M52.7494159,39.6932608 L52.7494159,50.674524 L55.5822018,50.674524 L55.5822018,40.1314597 C55.573917,39.8996108 55.3919788,39.71096 55.159595,39.6932608 L52.7494159,39.6932608 Z M67.448207,50.5255364 L67.448207,44.8442883 C67.4604364,44.7190221 67.4200793,44.5942986 67.336703,44.499685 C67.2533267,44.4050713 67.1343549,44.3489921 67.0079916,44.3447416 L63.4180353,44.3447416 L63.4180353,46.5883197 L64.7827029,46.5883197 L64.7827029,48.5229677 C64.3747539,48.575487 63.9636242,48.5996464 63.552301,48.5952705 C61.4766855,48.5952705 60.3519353,47.2806739 60.3519353,45.1619825 C60.3519353,43.1747507 61.3226101,41.8009973 63.4026277,41.8009973 C64.2863189,41.8350451 65.1555874,42.0350126 65.9646812,42.3903747 L67.0784261,40.5017377 C66.1781856,39.8970233 64.7827029,39.4741614 63.1913244,39.4741614 C59.5749551,39.4741614 57.4068944,41.8009973 57.4068944,45.1707464 C57.4068944,48.9370656 59.5749551,50.8870505 63.6887677,50.8870505 C64.9509261,50.8835772 66.2098391,50.7595832 67.448207,50.5167724 L67.448207,50.5255364 Z M90.2293522,45.1707464 C90.2293522,48.3498791 88.3144154,50.8870505 84.9313603,50.8870505 C81.3193932,50.8870505 79.4088585,48.3498791 79.4088585,45.1707464 C79.4088585,41.9916138 81.3193932,39.4741614 84.9313603,39.4741614 C88.3144154,39.4741614 90.2293522,42.0135237 90.2293522,45.1707464 Z M87.2534963,45.1707464 C87.2534963,42.8680115 86.2079848,41.8097613 84.9313603,41.8097613 C83.4434323,41.8097613 82.3847144,42.8680115 82.3847144,45.1707464 C82.3847144,47.4734814 83.4434323,48.5602146 84.9313603,48.5602146 C86.2079848,48.5514506 87.2534963,47.4975824 87.2534963,45.1707464 L87.2534963,45.1707464 Z M96.4011717,43.816712 C95.4481054,43.5318827 94.6887339,43.2426715 94.6887339,42.673013 C94.6887339,42.1033545 95.2808235,41.7024025 96.326335,41.7024025 C97.1935593,41.7024025 97.9683384,42.0529616 98.7255088,42.5021154 L100.255257,40.766848 C99.5597169,40.1095497 98.1950493,39.4829254 96.4319867,39.4829254 C93.7642816,39.4829254 91.7150791,40.766848 91.7150791,43.065201 C91.7150791,45.1970384 93.5683858,45.8280447 95.1597643,46.2815805 C96.4804104,46.6562406 97.4841015,46.884104 97.4841015,47.622469 C97.4841015,48.409036 96.583861,48.5470686 95.8707121,48.5470686 C94.6138973,48.5470686 93.2492296,47.8897703 92.5470861,47.4734814 L91.2902712,49.6929586 C92.0628492,50.2231792 93.7950967,50.8870505 95.6594088,50.8870505 C98.5736345,50.8870505 100.391724,49.3314445 100.391724,47.0659565 C100.391724,44.8574343 98.0893976,44.3272137 96.4011717,43.807948 L96.4011717,43.816712 Z M40.8217805,44.3272137 L43.5092953,50.66576 L45.0170329,50.66576 L47.7463682,44.3272137 L47.7463682,50.66576 L50.5703498,50.66576 L50.5703498,39.6932608 L47.0882462,39.6932608 L44.3721174,45.8872016 L41.7770478,39.6932608 L38,39.6932608 L38,50.674524 L40.8217805,50.674524 L40.8217805,44.3272137 Z" id="Shape" fill="#144B3C" fill-rule="nonzero"></path>
    </g>
</svg>