<?xml version="1.0" encoding="UTF-8"?><svg id="Layer_1" xmlns="http://www.w3.org/2000/svg" xmlns:xlink="http://www.w3.org/1999/xlink" viewBox="0 0 500 500"><defs><style>.cls-1{fill:url(#linear-gradient-3);opacity:.8999999762;}.cls-1,.cls-2,.cls-3,.cls-4,.cls-5,.cls-6{stroke-width:0px;}.cls-1,.cls-4,.cls-5,.cls-6{isolation:isolate;}.cls-2{fill:none;}.cls-3{fill:#5a78ff;}.cls-4{fill:url(#linear-gradient-4);}.cls-4,.cls-5,.cls-6{opacity:.6999999881;}.cls-5{fill:url(#linear-gradient-2);}.cls-7{opacity:.400000006;}.cls-6{fill:url(#linear-gradient);}</style><linearGradient id="linear-gradient" x1="1555.3377602111" y1="-655.3936623562" x2="1555.4486276704" y2="-657.7168006475" gradientTransform="translate(975.6895341873 14628.4151574372) rotate(-22.5000008261) scale(3.1369999702 20.8239993083)" gradientUnits="userSpaceOnUse"><stop offset="0" stop-color="#504678"/><stop offset=".3019999886" stop-color="#504678" stop-opacity=".6159999967"/><stop offset=".6079999924" stop-color="#504678" stop-opacity=".2829999924"/><stop offset=".8519999695" stop-color="#504678" stop-opacity=".0759999976"/><stop offset="1" stop-color="#504678" stop-opacity="0"/></linearGradient><linearGradient id="linear-gradient-2" x1="3323.5882804126" y1="-722.5505774933" x2="3323.6993020483" y2="-724.8735617904" gradientTransform="translate(3389.1697783471 -19539.921081662) rotate(157.4999991739) scale(3.1369999702 23.5720005155)" xlink:href="#linear-gradient"/><linearGradient id="linear-gradient-3" x1="2360.7306441266" y1="-627.5130560432" x2="2362.0555119222" y2="-628.2740388922" gradientTransform="translate(-94565.7046127317 21417.1336517329) scale(40.1539993286 33.8277435303)" gradientUnits="userSpaceOnUse"><stop offset="0" stop-color="#504678"/><stop offset=".1789999962" stop-color="#504678" stop-opacity=".871999979"/><stop offset=".5260000229" stop-color="#504678" stop-opacity=".5360000134"/><stop offset="1" stop-color="#504678" stop-opacity="0"/></linearGradient><linearGradient id="linear-gradient-4" x1="2361.7634911138" y1="-628.4629776328" x2="2361.6886554987" y2="-628.9663473508" gradientTransform="translate(-94565.7046127317 21417.1336517329) scale(40.1539993286 33.8277435303)" gradientUnits="userSpaceOnUse"><stop offset="0" stop-color="#504678"/><stop offset=".6430000305" stop-color="#504678" stop-opacity=".3319999874"/><stop offset="1" stop-color="#504678" stop-opacity="0"/></linearGradient></defs><path class="cls-3" d="M223.4601647005,294.6103750156c-7.1571197188.0004619483-13.6108460884-4.3088616999-16.3529714746-10.9198429858l-61.0510935052-147.3816751069c-3.7350063662-9.0178284117.5469468425-19.356193916,9.5641785709-23.0924706401l63.9447379492-26.4836911971c4.3299958368-1.7943998572,9.1958517558-1.794804062,13.5258475926-.0011163752s7.7705871233,5.2344714519,9.5629467087,9.5651024676l61.0510935052,147.3877381789c3.7300789171,9.0153069436-.5506424293,19.3471281797-9.5629467087,23.0833664081l-63.9447379492,26.4958558369c-2.1360491553.887287287-4.4248492307,1.3449241158-6.7370546889,1.3467334135ZM226.3291718993,94.8953031247c-1.0717201644.0017515542-2.1323535686.2151331946-3.1215389617.6278840425l-63.9472016737,26.4836911971c-1.9993124447.827984668-3.5871828952,2.4162400755-4.4149943326,4.4152638025-.8278114374,1.9990429748-.8278114374,4.2450358367.0012318623,6.2437323502l61.0510935052,147.3907793389c1.7283027479,4.1586514958,6.4956096863,6.1341736007,10.6593041183,4.4164956647l63.9447379492-26.5018996611h0c1.9980805824-.8280039158,3.5871828952-2.4162593233,4.4149943326-4.4152638025.8265795751-1.9990429748.8265795751-4.2450358367-.0012318623-6.2437323502l-61.0510935052-147.3756312827c-1.2638906767-3.047280765-4.2363743052-5.0358144149-7.535301432-5.0413192994Z"/><polygon class="cls-6" points="237.8951266395 109.6571705103 246.6856957124 106.0157664279 270.8585288006 164.372892662 262.0667278654 168.0142967445 237.8951266395 109.6571705103"/><polygon class="cls-5" points="299.6434541827 233.8832227885 290.8528851098 237.5246461188 263.4907606357 171.4664944832 272.2813297086 167.8250904008 299.6434541827 233.8832227885"/><path class="cls-3" d="M279.7513424409,193.7381983983c-18.2869952196,7.5832478209-33.5571597695,18.0359647889-43.5549538552,30.6362796209l-25.7767177481-62.2553351016c11.7581252524-13.6606210227,26.7240198245-24.1877116746,43.5549538552-30.6362603731,18.2882270819-7.583228573,36.763697227-11.2535236749,52.4613179804-9.1150492908l25.7828770594,62.2522939417c-17.9741022061-1.3536626387-36.0036382138,1.7795405187-52.4674772917,9.1180712029Z"/><g class="cls-7"><path class="cls-1" d="M279.7513424409,193.7382176461c-18.2869952196,7.583228573-33.5571597695,18.0359647889-43.5549538552,30.6362603731l-25.7767177481-62.2553158538c11.7581252524-13.6606402706,26.7240198245-24.1877309224,43.5549538552-30.6362796209,18.2882270819-7.583228573,36.763697227-11.253514051,52.4613179804-9.1150492908l25.7828770594,62.2522939417c-17.9741022061-1.3536626387-36.0036382138,1.7795405187-52.4674772917,9.1180904508Z"/><path class="cls-4" d="M279.7513424409,193.7382176461c-18.2869952196,7.583228573-33.5571597695,18.0359647889-43.5549538552,30.6362603731l-25.7767177481-62.2553158538c11.7581252524-13.6606402706,26.7240198245-24.1877309224,43.5549538552-30.6362796209,18.2882270819-7.583228573,36.763697227-11.253514051,52.4613179804-9.1150492908l25.7828770594,62.2522939417c-17.9741022061-1.3536626387-36.0036382138,1.7795405187-52.4674772917,9.1180904508Z"/></g><path class="cls-3" d="M288.1501793158,212.7175194547c-19.7947946234,0-37.9154884382,3.8250093024-51.9599500414,11.6327062762v-62.9469295203c16.0905848137-8.1193773729,33.9439645185-12.116520178,51.9599500414-11.6326870284,19.7960264857,0,38.2714966308,3.6702951019,51.9574863169,11.6478543324v62.9469295203c-16.0868892269-8.1260563761-33.9402689317-12.1285308351-51.9574863169-11.6478735803Z"/><path class="cls-3" d="M47.6352327575,397.4724133843l16.0154412159-50.6256507375c.1675332671-.701276086.7674501867-1.2151551261,1.4868577454-1.2739765489h8.0379012333c.7206394209.1010512009,1.3267156518.5907934398,1.5767836902,1.2739765489l12.467677913,31.9405715301c.2426768648.6369882745.8795496522.6976574907,1.0914299606,0l12.3752882436-31.9405715301c.2512999006-.6831831091.8573761316-1.1729253481,1.5780155525-1.2739765489h8.0379012333c.7194075587.0588214228,1.318092616.5727004629,1.4868577454,1.2739765489l15.681606544,50.6256507375c.1847793387.3897689176.147823471.8480601732-.0948533939,1.2038758873-.2439087271.3558157141-.6578144457.5557238611-1.0877343738.5251197832h-9.464397728c-.6775242419.0307965564-1.2786730238-.429919928-1.4252646325-1.092007396l-10.1308352096-32.8808673899c-.15275092-.6369882745-.8795496522-.6369882745-1.0926618228,0l-12.1326113788,32.6382290207c-.2069528593.7857741378-.9165055199,1.3337988598-1.7295346102,1.3346457651h-5.4904100838c-.8056379167.0162451835-1.5065675415-.5453300233-1.6679414973-1.3346457651l-12.3752882436-32.6382290207c-.2426768648-.6369882745-.8807815144-.6369882745-1.0323005722,0l-10.4043086309,32.8808673899c-.1613739558.6786021214-.7896237073,1.1406659552-1.4856258831,1.092007396h-9.0997664997c-.4262243413.0267545084-.8339707487-.1783505575-1.0667927154-.5365530047-.2328219668-.3582409429-.2537636251-.8139914827-.0554338016-1.1924426657h0ZM130.6257930773,379.4243224513c-.1724607161-8.6244986423,4.8904931642-16.4962139578,12.8089037584-19.9169029697,7.9196424565-3.4207275076,17.1204216613-1.7104407452,23.2809648135,4.3273011381,6.1617750144,6.037780379,8.0576110294,15.2028355783,4.7968716326,23.189345058-3.2595075346,7.9865094797-11.0276309334,13.2069492505-19.6531304637,13.2086815568-5.6148281718.1913621026-11.0621230766-1.9252467264-15.0730665886-5.8568506098-4.0121753742-3.9316038834-6.2381504744-9.3349751995-6.1605431521-14.9515741734ZM162.1725536417,379.4243224513c-.3313709474-5.6759978321-5.1454886516-10.0426030754-10.8256055231-9.8198284851-5.6813487338.2227360945-10.1394582454,4.9528176953-10.0236631931,10.6372845804.11456319,5.6844668851,4.7586839026,10.2306545482,10.4449600854,10.2237638187,2.8456018159-.0792626372,5.5421482986-1.2883739391,7.4946499775-3.3601737785,1.9525016789-2.0717998394,2.9983527359-4.8357522851,2.9096586533-7.6810461354h0ZM191.837028676,395.9861330743c-.7883918451-.6369882745-1.4856258831-.3943499053-1.4856258831.697618995v1.1223420041c0,.7977462991-.6282497516,1.4537514472-1.4252646325,1.4863188056h-7.4022603082c-.806869779-.031104522-1.4548293267-.6786791128-1.4856258831-1.4863188056v-50.7166930575c.0307965565-.8076396929.6787561041-1.4551757879,1.4856258831-1.4862803099h7.7964562307c.7970148809.0325673584,1.4264964947.6885725065,1.4252646325,1.4862803099v14.3171651105c0,1.0312996841.697234038,1.3346457651,1.819460555.5459844502,2.9860341133-2.2364459294,6.6138684631-3.4492143223,10.3439473802-3.4579528452,10.7985045534,0,19.0790826515,9.0998819867,19.0790826515,20.8084247832.2549954874,5.352172041-1.6630140483,10.580426438-5.3179493677,14.4983258538-3.6549353194,3.9179764072-8.7375989958,6.1933799805-14.0949679557,6.3100604337-3.9641327462-.0093929497-7.7866013327-1.4778497526-10.7381433028-4.1252757278h0ZM211.2511778617,379.4243224513c.2981106664-3.9066971684-1.6174351447-7.6514044499-4.9594774506-9.6960648239-3.3420423059-2.0446603741-7.5476200546-2.0446603741-10.8908942227,0-3.3420423059,2.0446603741-5.257588117,5.7893676555-4.9582455884,9.6960648239-.1071720164,2.8307809731.9288241425,5.5855329475,2.8739346479,7.6448601816,1.9463423676,2.0592887384,4.636729539,3.2503840547,7.4687808701,3.305355908,5.9030839402-.1489783418,10.5706100357-5.0475556021,10.4351051873-10.9502160896h.0307965564ZM228.509568096,349.2733773122c0-3.3504728632,2.7162562788-6.0665751593,6.0669216205-6.0665751593s6.0669216205,2.7161022961,6.0669216205,6.0665751593c0,3.3505113589-2.7162562788,6.066613655-6.0669216205,6.066613655s-6.0669216205-2.7161022961-6.0669216205-6.066613655ZM229.0565149385,397.8060940734v-36.7028355323c-.0012318623-.7977847948.6282497516-1.4537514472,1.4252646325-1.4863188056h7.7952243685c.8081016412.0310660263,1.4560611889.6786791128,1.4868577454,1.4863188056v36.7028355323c-.0307965565.8076396929-.6787561041,1.4552142836-1.4868577454,1.4863188056h-7.7952243685c-.7970148809-.0325673584-1.4264964947-.6885725065-1.4252646325-1.4863188056ZM248.560590069,385.6729052592v-38.5835042433c-.0012318622-.7977078034.6282497516-1.4537129515,1.4252646325-1.4862803099h7.7952243685c.8081016412.031104522,1.4560611889.6786406171,1.4868577454,1.4862803099v38.9475195405c0,2.5176184897,1.0914299606,4.185944944,3.8520332807,4.185944944.8204202638,0,1.4868577454.6654365935,1.4868577454,1.4863188056v6.4609250646c-.033260281.7970918723-.6886110022,1.4263040163-1.4868577454,1.4256110937-10.3735120744,0-14.559380027-3.397283629-14.559380027-13.9228152052ZM267.517718357,379.6063300999c-.2882557684-7.5083544451,3.552690752-14.5734309559,10.0113445705-18.4134920753,6.4586538186-3.8400996151,14.5002506386-3.8400996151,20.9589044572,0,6.4586538186,3.8400611194,10.2996003389,10.9051376301,10.0101127083,18.4134920753,0,1.4256495894-.3941959225,2.608622314-1.819460555,2.608622314h-27.1182157471c-.697234038,0-.9399109028.3943499053-.8795496522,1.0313381798.6713649306,4.7140673914,4.8646240567,8.113044831,9.6159167858,7.795532334,2.8788620969.0427302221,5.6271467944-1.2032599562,7.492186253-3.3972451333.577743399-.8129136032,1.5201180263-1.2892593401,2.516694593-1.2739765489h7.1595834434c1.2737455747,0,1.819460555.8796266436,1.3341068254,2.1232685844-4.2523885145,8.6698850673-13.9175797906,13.2671950141-23.326543717,11.0958068102-9.4101957887-2.1713882038-16.0831936401-10.539082061-16.106599023-20.195688797l.1515190577.2123422567ZM296.3038756013,375.9663696061c.5469468426,0,.7896237074-.2426383691.6984659003-.8796266436-.8265795751-4.3537476809-4.66998982-7.4790207251-9.0997664997-7.4012594201-4.3336914236-.0041575351-8.1019580707,2.9721371672-9.1009983619,7.1889171634-.1515190577.5459844501,0,1.0919689003.6381046496,1.0919689003h16.8641943117ZM315.0503554432,397.8060940734v-50.7166930575c-.0012318623-.7977078034.6282497516-1.4537129515,1.4252646325-1.4862803099h24.8429661566c11.3442195337,0,19.0790826515,6.6125596094,19.0790826515,17.7447448519s-8.7659318277,17.9874602125-19.6247976318,17.9874602125h-13.164911951c-.4003552338-.041729334-.7982467432.1038613866-1.0766476135.394388401-.2784008703.2905655101-.4077464074.6935384512-.348617019,1.0918919089v14.9844879931c-.0320284187.8076396929-.6787561041,1.4552142836-1.4868577454,1.4863188056h-8.189420291c-.8093335035-.0165146534-1.4560611889-.6771392849-1.4560611889-1.4863188056ZM340.772871252,372.2657783917c2.2838726263-.0317204531,4.4618050984-.9762508394,6.0459799621-2.6230197042,1.5841748637-1.6468073604,2.4427828576-3.8589240102,2.3861171937-6.1432200891.0948533939-2.2643553086-.7625227377-4.4650772325-2.3651755353-6.067614543-1.6026527976-1.6025758062-3.8027587904-2.4603368947-6.0669216205-2.3649445611h-13.2560697581c-.9399109028,0-1.3341068254.4853152339-1.3341068254,1.4256495894v14.3474997186c0,.9402958598.3941959226,1.4256495894,1.3341068254,1.4256495894h13.2560697581ZM364.0981831067,379.4243224513c-.2044891348-5.3645291593,1.7504762686-10.587009202,5.4288169709-14.4981333754,3.6771088401-3.9111241734,8.7696274145-6.1841795092,14.1356194103-6.3102529122,3.8729749391.0210956412,7.6055175807,1.4557147277,10.4954664379,4.0343103992.6984659003.6369882745,1.4868577454.5459459545,1.4868577454-.3943499053v-1.1830112203c0-.7873524613.6381046496-1.4256495894,1.4252646325-1.4256495894h7.4010284459c.8081016412.031104522,1.4560611889.6787176084,1.4868577454,1.4863573013v26.1166347399c0,1.9716340396.697234038,2.8512991789,2.0621374199,3.0332683318.7083207983.0142049117,1.2872960596.5674265526,1.3353386876,1.2740150446v6.8552364742c0,.7371155786-.5974531951,1.3346457651-1.3353386876,1.3346457651-5.2169366625,0-8.2805780981-1.4863188056-10.0101127083-4.4892525293-.4853537296-.788661315-1.0310687099-.9403343555-1.819460555-.1516730405-3.3321874078,3.4299664746-7.9282654923,5.3385830605-12.7091229155,5.2779138443-5.3684557202-.1565234982-10.4474238099-2.4664192146-14.0937360935-6.4092638412-3.6463122836-3.9428446265-5.5520031967-9.1869207544-5.2896165357-14.5507954869h0ZM395.6449436712,379.4243224513c.2981106664-3.8956104081-1.6112758334-7.6298083646-4.9446951035-9.6688483671-3.3321874078-2.0389630111-7.5266783962-2.0389630111-10.8588658041,0-3.3334192701,2.0390400025-5.2428057699,5.7732379591-4.9446951035,9.6688483671-.2981106664,3.8956104081,1.6112758334,7.6298468603,4.9446951035,9.6688483671,3.3321874078,2.0390015068,7.5266783962,2.0390015068,10.8588658041,0,3.3334192701-2.0390015068,5.2428057699-5.7732379591,4.9446951035-9.6688483671h0ZM413.1472426325,412.9725512194v-6.4002558484c.0320284187-.7970533766.6886110022-1.4262655206,1.4856258831-1.4256495894,5.0777362274.3911932583,9.764972119-2.7415864465,11.3442195337-7.583228573.26731411-1.0147080393.1589102313-2.0914326442-.3030381155-3.0332683318l-14.4990187764-32.820275165c-.2500680384-.4462421029-.2426768648-.9926115101.0209416584-1.4314624395.2636185232-.4388894251.7415810793-.7028929053,1.2528039164-.6918061449h7.7964562307c.7883918451,0,1.2737455747.6369882745,1.5767836902,1.4256495894l9.0997664997,20.9903939362c.6368727874,1.6682879586,1.6679414973,1.5772841342,2.3664073976,0l8.6747740207-21.0510631524c.3030381155-.788661315.697234038-1.2739765489,1.4868577454-1.2739765489h7.6129087543c.4668757958-.0245602538.9140417954.1917085639,1.1850514922.5730854198s.3276753606.8747761859.1502871955,1.3075447955l-14.8944465612,35.3985243753c-5.4288169709,12.861180913-11.192700476,17.6537795233-22.7192356238,17.6537795233-.4422385506.0268699955-.8746222032-.1370446762-1.1875152167-.4502456553s-.4767306938-.7456231273-.4496297242-1.1877461909Z"/><rect class="cls-2" width="500" height="500"/></svg>