<?xml version="1.0" encoding="UTF-8"?><svg id="Layer_1" xmlns="http://www.w3.org/2000/svg" viewBox="0 0 500 500"><defs><style>.cls-1{fill:none;}.cls-1,.cls-2,.cls-3,.cls-4{stroke-width:0px;}.cls-2,.cls-4{fill:#1d1d1b;}.cls-3{fill:#2565fb;}.cls-3,.cls-4{fill-rule:evenodd;}</style></defs><g id="g20"><path id="path22" class="cls-3" d="M92.8195470929,315.4751633245h56.3359815438c12.855608521,0,12.9896087222-13.6685794265,11.676365855-20.4135334002-.7146995473-4.5383264486-8.4244822333-4.4668551307-9.2731956136,0v5.2619547988c-.0049210654,2.4155887748-1.9619238006,4.3725915101-4.3775125754,4.3775125754H39.1904820757c-2.4155955907-.0049210654-4.3726000299-1.9619238006-4.3775176873-4.3775125754v-5.2619547988c-.8487031564-4.4668551307-8.5584943624-4.5383264486-9.2731913537,0-1.313255647,6.7449539738-1.1792499079,20.4135334002,11.6763598911,20.4135334002h55.6034141671ZM53.0019973221,184.5248366756h86.8535356608c6.1017257444,0,11.095666509,5.288756543,11.095666509,11.7478286531v5.6103706577c0,7.9331356664-10.7204523138,7.8974000075-10.7204523138.0536017845v-3.0553289776c0-1.9735806594-1.5999051492-3.5734841046-3.5734841046-3.5734841046H49.6250559338c-1.9735823634,0-3.5734841046,1.5999034452-3.5734841046,3.5734841046v3.0017271931c0,7.8884677967-10.2380311418,7.8348643083-10.2380311418.1697409721v-5.771177715c.0268000403-6.4590721101,5.011810298-11.7567625678,11.1135343385-11.7567625678h6.0749222962Z"/></g><g id="g24"><path id="path26" class="cls-4" d="M148.7624432042,249.0351576559c6.0884347784,2.718936331,10.0522370683,8.7168698545,10.1665666397,15.3838501608,0,9.4518670925-8.2547531891,17.1884566347-18.3409060763,17.1884566347h-28.2930723941c-2.5539715869.0757039794-4.6950916891-1.9141853769-4.806333667-4.4668551307v-53.8524043658c.0098216831-2.6045317849,2.1213881296-4.7121041257,4.7259335462-4.7169979275h23.5581895974c9.9320185764-.0230615301,18.0021977345,8.0097359341,18.0252626725,17.9417545105.0108372492,4.6695389549-1.7950301624,9.1602019546-5.0356539503,12.522196118M127.6520746782,244.6576382646h8.9783747233v-.0982713581c4.1618853951-.6531453348,7.2349612203-4.2295738996,7.2541683702-8.4423534708h0c-.0147086691-4.7107511735-3.8298702475-8.5259127519-8.5406248289-8.5406282368h-18.0907496478v44.6685547154h22.9328326055c4.8722773062.1550680864,8.9477509743-3.6689813996,9.1028122448-8.5412587057.1550749022-4.8722841221-3.6689745837-8.9477509744-8.5412518899-9.1028190607-.1871504336-.0059570791-.3744235531-.0059570791-.5615603549,0h-12.5339944064c-2.7383411415.0015744683-4.9594796752-2.2170217422-4.9610541435-4.9553628836-.0015744683-2.7383411415,2.2170217422-4.9594796752,4.9553628836-4.9610541435h.0056912598"/></g><g id="g36"><path id="path38" class="cls-2" d="M102.9950425355,276.2383094917c.4490506234,3.105696627-1.7045902504,5.9873893571-4.8102868774,6.4364399805-3.105696627.4490438076-5.9873893571-1.7045902504-6.4364399805-4.8102868774-.0205839577-.1423905495-.0357561066-.2855035823-.0454823674-.4290391997l-4.6723334658-42.8014057265-16.4469604551,41.8544346199h0v.1965427163h0v.2233359407h0v.0893357394h0c-.3607065945.6310073565-.8436048782,1.1837684103-1.4204600679,1.6259418108h0l-.0893357394.0714713179c-.2991046709.2700179029-.6289421448.50389801-.9827067656.6968283099h0l-.1072035689.0536000805h0l-.0982713581.0536000805h-.5628315166c-.5340548711.1907560341-1.0948075443.2962726728-1.6616706539.312678496h-.4109498541c-.6371246088-.0182120314-1.2660940172-.1482385746-1.8582133702-.3841498139h-.4645567505l-.0982713581-.0536000805h0l-.0893357394-.0536000805h-.0536034884c-.3171020021-.1690679039-.6163975177-.36959791-.8933710261-.5985569517h0l-.1876070976-.169742676h0l-.1429392279-.1340070171-.3394717204-.0893357394h0l-.1697392681-.1876070976h0c-.2289624496-.2769701006-.4294890478-.576269024-.5985569517-.8933710261v-.0536000805l-.0536034884-.0893357394h0l-.0536034884-.0982713582h0v-.3394785362h0v-.0804001207l-16.7507067403-41.9527127939-4.6544639323,42.8014057265c-.330573589,3.1157909453-3.1244045137,5.3736534406-6.240195459,5.0430832595-3.1157900933-.3305769969-5.3736542925-3.1244062176-5.0430807036-6.2401971629l5.4852984073-50.457595148h0c.1324564044-1.1883146023.4902355785-2.3404845929,1.0541780835-3.3948092178,1.4278740414-2.6723361594,4.0544466783-4.4943129034,7.0576307658-4.8956728144h.3037462852c.4787831961-.0355550381.9595447013-.0355550381,1.4383278974,0h0c.5778179328.0229831474,1.1521512469.1007591544,1.7152724384.2322749673,3.0089145386.6890650225,5.4812864099,2.8235362338,6.602011338,5.6997081011l14.0616614511,35.5382949218,14.0348580029-35.6544375173c1.3486377322-3.4533985224,4.6129398872-5.7815361487,8.3172820724-5.9319830684h0c.4787814921-.0355550381.9595464053-.0355550381,1.4383278974,0h.3037428773c3.0020884348.4041782773,5.6274972602,2.2253473396,7.0576324698,4.8956728143.2739234022.5281727667.5039934323,1.0779552809.6878926912,1.6438028244.1806276364.5820693379.3033134768,1.1805547229.3662853923,1.7867420523h0l5.5121044114,50.5380020846Z"/></g><g id="g28"><path id="path30" class="cls-2" d="M240.3421462451,235.0079223757c0-1.8618908154,1.5093537375-3.3712294232,3.3712369881-3.3712294232s3.3712369881,1.5093386078,3.3712369881,3.3712294232v18.2046873005h0c-.010900947,8.3333465229-6.7579062675,15.0892102813-15.0912376607,15.1110575642h0c-8.3333616526-.0108933821-15.0892291934-6.7578911378-15.1110651291-15.0912376607h0v-18.2046873005c-.142699523-1.856413865,1.2465319823-3.4769860077,3.1029420649-3.6196893131,1.8563987353-.1427033054,3.4769935726,1.2465357648,3.619696878,3.1029193704.0132233555.1719943995.0132233555.3447755432,0,.5167699427v18.2046570411h0c.0431952859,4.622515913,3.7856620931,8.3561318472,8.4082612194,8.3884186213h0c4.6314878235-.0217867642,8.377585758-3.7767355716,8.3884261862-8.4082687842h0l-.0594975348-18.2046267817Z"/></g><g id="g32"><path id="path34" class="cls-2" d="M272.2300713114,261.6010282975c1.8618756858-.0035403492,3.3741040657,1.5029236161,3.3776519798,3.3648144316.0035403492,1.8618605561-1.502931181,3.3741040657-3.3648144316,3.3776444149h-9.3729761116c-6.9765757833,0-12.6322079502-5.6556321669-12.632215515-12.6322079502h0v-20.7033568181c0-1.8509369146,1.5004726051-3.3514095197,3.3514019548-3.3514095197,1.8509369146,0,3.3514095197,1.5004726051,3.3514095197,3.3514095197v20.6636867516h0c0,3.2856861144,2.663568089,5.9492390737,5.9492390737,5.9492390737h9.3403035302v-.0198199035Z"/></g><g id="g40"><path id="path42" class="cls-2" d="M215.5734851378,264.5954677379c.3319531247,1.8320550523-.8841189944,3.5863132008-2.7161702643,3.9182890201-1.8320512699.3319455599-3.5863207656-.8841189944-3.9182738904-2.7161740467-.02449498-.1351989755-.0407026683-.2717293644-.0485322867-.4088952006l-2.8754670653-24.2530561512-10.2921846566,23.7969562949c-.7356210149,1.70669038-2.7136852115,2.4961277284-4.4222668037,1.7649397148-.7885030896-.3398432619-1.414195506-.9726579833-1.745108464-1.7649397148h0l-10.2921846566-23.7969562949-2.8952964249,24.2530561512c-.1061386093,1.858864876-1.6990801423,3.2797250137-3.5579355622,3.173575057-1.8588535287-.1061499566-3.279709884-1.6990952719-3.1735712746-3.5579298885.0078315096-.1371658362.0240373067-.2736962251.0485285042-.4088649412l3.3910644565-28.1597255637c.2210410959-1.801977214,1.3305755599-3.3731962839,2.954788286-4.1842993589.2107150774-.1147436247.4294205263-.2141457363.6544161468-.2974498499h.2578005868c.3207987554-.1114150913.653606708-.1846125671.9915398456-.2181399764h0c1.7107110971-.2377480642,3.4374105019.3086760854,4.6998986413,1.4873097684.2501941315.2344497902.4760861866.493560987.6742473976.7733998692.1463249767.2023748318.2788308661.4144024104.39661556.6346000257.07379699.1214006915.140025349.2472192547.1983087256.3767899828l8.7255517762,20.2274067988,8.725549885-20.3860870646c.7274509784-1.6433877263,2.2053160332-2.8330660884,3.9661593825-3.1927595133.3272591361-.0671153375.6584330815-.1134727301.9915398456-.1388301029h1.0312023472c1.7394159154.1958388025,3.2909588139,1.1838382989,4.2041306097,2.6771696869h0c.1878957114.3058317023.3408909934.631785902.4561074212.9717199421.0828502227.2110895374.1426919581.4305004084.1784774748.6544199292.0094182366.145275354.0094182366.2910045989,0,.4362799528h0l3.3910644565,28.3381954737Z"/></g><g id="g44"><path id="path46" class="cls-2" d="M286.9048640525,264.9722577207c0,1.8618908154-1.5093537375,3.3712294232-3.3712294232,3.3712294232-1.8618908155,0-3.3712445529-1.5093386078-3.3712445529-3.3712294232h0v-26.5931059218h-9.5782785398c-1.8618756857-.0035403492-3.3683547807-1.5157838588-3.3648068667-3.3776444149.0035327843-1.8568677559,1.5079391108-3.3612740824,3.3648068667-3.3648144316h25.8990310558c1.8618756858.0035403492,3.3683547807,1.5157838589,3.3648144316,3.3776444149-.0035403492,1.8568677559-1.5079466756,3.3612740824-3.3648144316,3.3648144315h-9.5782785398v26.5931059218Z"/></g><g id="g48"><path id="path50" class="cls-2" d="M307.9255057537,264.9722577207c0,1.8618908154-1.5093537375,3.3712294232-3.3712294232,3.3712294232-1.8618908155,0-3.3712445529-1.5093386078-3.3712445529-3.3712294232h0v-29.964335345c0-1.8618908154,1.5093537375-3.3712294232,3.3712445529-3.3712294232,1.8618756858,0,3.3712294232,1.5093386078,3.3712294232,3.3712294232v29.964335345Z"/></g><g id="g52"><path id="path54" class="cls-2" d="M376.9565049642,264.5954677379c.1228531425,1.8578360566-1.283618653,3.4634903177-3.1414395799,3.5863434602-1.7148150275.113381952-3.240463449-1.0812892103-3.5415444263-2.7732735245l-1.1898447888-9.5187885698h-11.5811781346c-1.8563987353.1427033054-3.4770011374-1.2465357648-3.6197044428-3.1029496298-.1426881757-1.8563836056,1.2465357648-3.4769860077,3.1029496298-3.6196893131.1719943995-.0132233555.3447604136-.0132233555.516754813,0h10.8276132986l-.3173000128-2.478849614h0v-.23795988c-.0876009477-.5827354232-.2134648999-1.1590861141-.3767899828-1.7252696484-.1814202009-.6067613826-.4136005365-1.1971524326-.694074866-1.7649397148-1.2039002776-2.7060068901-3.8608112998-4.4746987699-6.8217989794-4.5412391788h0c-.5739904581.0042060559-1.1458173695.0707162054-1.7054497448.1983200729-.5236993441.130327213-1.0297423314.3234124106-1.5071448017.5750797963-2.7080191398,1.566468345-4.461641841,4.3752058801-4.6800692817,7.4960388121l-2.1020596312,18.7202771268c-.2026169069,1.8399830137-1.8584563741,3.1673113623-3.6984393878,2.9647247148-1.8399830137-.2026169069-3.167326492-1.8584715039-2.9647095851-3.6984545175h0l2.1020596312-18.7202771268c.453119306-5.3809373818,3.5732411423-10.1765370325,8.3091087478-12.7710380531.9466651633-.4758895005,1.9447107788-.84184662,2.9746195369-1.0906998821,1.0728317095-.2494887093,2.1706122899-.3759124604,3.2720845165-.3767899828h0c5.5150924082.0304106917,10.5121439791,3.256062167,12.8106929898,8.2694386814.4595494274.9194014486.8441917231,1.8743879455,1.1501898521,2.8556395969.2583698417.903636304.4505775168,1.8249138351.575094926,2.7564795605.0187608247.0982522546.0187608247.1991975953,0,.2974498499h0l2.3003797041,18.7004269639Z"/></g><g id="g56"><path id="path58" class="cls-2" d="M387.2486934032,264.9722577207c.1427033054,1.856413865-1.2465357648,3.4769860077-3.1029345001,3.6196893131-1.856413865.1427033054-3.4770011374-1.2465357648-3.6197044428-3.1029193704-.0132233555-.1719943995-.0132233555-.3447755432,0-.5167699427v-27.7631156774h0c-.0203494429-.1911485963-.0203494429-.3839312,0-.5750797963.0435735284-.372281333.1300700081-.7382989714.2577949132-1.0906998821h0l.2776299464-.5949299593h0c.5803298013-1.0316335436,1.5186887607-1.8147769379,2.6374996205-2.2012196676l.456114986-.11897994h1.2493498885c1.393399737.0587032257,2.6909225818.7255900256,3.5497144629,1.8244296848l17.8477172212,22.8649064193v-22.3096465265c0-1.8618908154,1.5093537375-3.3712294232,3.3712445529-3.3712294232,1.8618605561,0,3.3712294232,1.5093386078,3.3712294232,3.3712294232v27.7631156774c-.0063847323,1.4261555317-.654631745,2.7736366372-1.7649397148,3.6687095326-.2151745557.1810419585-.4476574852.3404787092-.6940899957.4759500193-.1328992615.077887682-.2722437741.1442162752-.4164600493.1983200729h0l-.2776299464.11897994h0c-1.1820227353.4132525535-2.4795758395.3419614195-3.6092044329-.1983200729l-.4362799528-.2181399764c-.2356299065-.148422331-.4549802587-.3212337342-.6544199292-.5155898263-.1552306948-.1352897537-.3010053288-.281049258-.4362799528-.4362799528l-.11897994-.1388301029h0l-17.8873721579-22.9442465521v22.1906665865Z"/></g><g id="g60"><path id="path62" class="cls-2" d="M439.8399752876,261.6010282975c1.8618908155-.0035403492,3.3741040657,1.5029236161,3.3776444149,3.3648144316.0035403492,1.8618605561-1.5029236161,3.3741040657-3.3648144316,3.3776444149h-9.9282284396c-7.3270400927,0-13.2668079759-5.9397376238-13.2668079759-13.2668079759h0v-10.1335384326h0c.0217867642-7.3180227931,5.9487851828-13.2450212117,13.2668079759-13.2668079759h9.9153984562c1.8618908155.0035403492,3.3683547807,1.5157838589,3.3648144316,3.3776444149-.0035403492,1.8568677559-1.5079466756,3.3612740824-3.3648144316,3.3648144316h-9.9153984562c-1.7483273071.0206369072-3.417132925.7337903215-4.6403992152,1.9830796912-1.2536769819,1.2121005736-1.9681618096,2.8768211732-1.9830796912,4.6205793117h0v10.1335384326h0c.0216657266,3.6161792233,2.9478097132,6.5423232099,6.5639889365,6.5639889365h9.9153984562l.05948997-.1189496806Z"/></g><g id="g64"><path id="path66" class="cls-2" d="M459.3336522836,238.3593318954h0c-2.370369684-.0092291154-4.6520490822.9006103645-6.365699123,2.538339584-1.642600982,1.5447118402-2.5813079245,3.6944602774-2.597829554,5.9492390737h0v6.2863589901h0c.009047559,2.2522975259.9407948407,4.4024695947,2.5780096505,5.9492390737,1.7136500408,1.6377292195,3.995329439,2.5475686994,6.365699123,2.538339584h0c2.370369684.0092291154,4.6520490822-.9006103645,6.365699123-2.538339584,1.642600982-1.5447118402,2.5813079245-3.6944602774,2.597829554-5.9492390737h0v-6.2863589901h0c-.0182161556-2.2503609246-.948480727-4.3971136818-2.5780096505-5.9492390737-1.7242408289-1.6336744606-4.0102473206-2.5424246023-6.3855190265-2.538339584M459.31383238,231.6366929525h0c4.1065629739-.0148876222,8.0589240724,1.5632305897,11.0259182418,4.4024393353,2.9625762978,2.8079205314,4.6465721318,6.7061778322,4.6602493782,10.7879583618h0v6.2863589901h0c-.0136772464,4.0817805296-1.6976730804,7.9800378304-4.6602493782,10.7879583618-2.9669941694,2.8392087456-6.9193552679,4.4173269575-11.0259182418,4.4024393353h0c-4.1065629739.0148876222-8.0589240724-1.5632305897-11.0259182418-4.4024393353-2.9494437205-2.8153340831-4.624966924-6.7105654444-4.6403992153-10.7879583618h0v-6.2863589901h0c.0154322913-4.0773929174,1.6909554948-7.9726242787,4.6403992153-10.7879583618,2.9669941694-2.8392087456,6.9193552679-4.4173269575,11.0259182418-4.4024393353h0Z"/></g><g id="g68"><path id="path70" class="cls-2" d="M317.464114227,238.379151799v23.2218764986h13.008997933c2.3328329049.0000302594,4.2239845551-1.8910911313,4.2239996847-4.2239089066,0-.0066268074-.0000151297-.0132536149-.0000453891-.0198804223h0c.0022240655-1.0576868824-.3943101724-2.0773377057-1.1105197856-2.8556395969l-.1388149732-.11897994c-.7787709118-.8084099889-1.852117031-1.2663859277-2.9746195369-1.269169792h-4.4817492088c-1.8618756858-.0035403492-3.3683547807-1.5157838589-3.3648144316-3.3776444149.0035403492-1.8568677559,1.5079466756-3.3612740824,3.3648144316-3.3648144315h1.5269647052c.9560607053-.084332933,1.8532214989-.497857821,2.538339584-1.1700097556h0c.7618559101-.7467716019,1.1907525706-1.7689642143,1.1898447888-2.835789434h0c0-2.1904473231-1.7757120593-3.9661593825-3.9661593825-3.9661593825h-9.8162384198v-.0198804223ZM310.7216402509,249.7818600236v-14.6351378044h0c-.0019366013-.4574917885.0926693963-.910232852.2776299464-1.328659762.1862465744-.4328606412.4481416355-.8290468961.7733998692-1.1700097556h0c.6014205994-.5746259054,1.3901771114-.9126536036,2.2210547009-.9518697792h13.1874829727c5.9251677252,0,10.7284532622,4.8033157963,10.7284532622,10.7284683919h0c-.0062031759,2.0198751152-.5762599127,3.9979014875-1.6459597749,5.7112791938.7169963575.4241156762,1.3824609658.9298711992,1.9830796912,1.507129672l.2181399764.2379598799c1.9247698376,2.0287411178,2.9967391544,4.7193157166,2.9944545701,7.5158587157h0c-.0109085118,6.041106596-4.9054715128,10.9356847268-10.9465932386,10.9466083683h-16.4198974227c-1.8618756858,0-3.3712294232-1.5093386078-3.3712294232-3.3712294232l-.0000151297-15.1903976971Z"/></g><rect class="cls-1" width="500" height="500"/></svg>