<?xml version="1.0" encoding="UTF-8"?><svg id="Layer_1" xmlns="http://www.w3.org/2000/svg" viewBox="0 0 500 500"><defs><style>.cls-1{fill:none;}.cls-1,.cls-2{stroke-width:0px;}.cls-2{fill:#1d1d1b;}</style></defs><path class="cls-2" d="M437.0669752542,234.9326805267h-33.7545132253l-.8635191887,3.4536168449h30.078338308c1.4758892387-1.1694550959,2.9799096339-2.3394084274,4.5115629497-3.4536168449h.0281311564Z"/><path class="cls-2" d="M458.7893636443,221.9546168136h-52.2463410786l-.8635191887,3.4536168449h46.3683857755c2.2002473528-1.1975862522,4.4608195558-2.3675395838,6.7414744918-3.4536168449Z"/><path class="cls-2" d="M475,215.4658436564h-66.8414288852l-.8635191887,3.4531186092h58.2910137255c3.0894065191-1.2809832499,6.2390995628-2.4228054251,9.3837719233-3.4531186092h.0301624252Z"/><path class="cls-2" d="M428.8787774773,241.4219710825h-27.1818639976l-.863020953,3.4536168449h24.2014178022c1.2533694922-1.1699533316,2.5348318149-2.3117946697,3.8434671484-3.4536168449Z"/><path class="cls-2" d="M446.8144592675,228.4439073695h-41.8588540946l-.8635191887,3.4531186092h37.2915270679c1.7823425445-1.1970880165,3.5927779196-2.3389293546,5.4308462154-3.4531186092Z"/><path class="cls-2" d="M406.8770704662,267.350465588h-11.6413163861l-.8635191887,3.4536168449h10.611003202c.5847371294-1.1699533316,1.2257365715-2.3117946697,1.8938323728-3.4536168449Z"/><path class="cls-2" d="M411.0269525946,260.861194195h-14.1756499653l-.8635191887,3.4536168449h12.6997607265c.7519910347-1.1694742588,1.5040203951-2.311296434,2.3112772711-3.4536168449h.0281311564Z"/><path class="cls-2" d="M421.9439108667,247.9112616384h-21.8344147799l-.863020953,3.4530994463h19.4392039496c1.0584443405-1.1694550959,2.1445216016-2.3112772711,3.2582317833-3.4530994463Z"/><path class="cls-2" d="M416.039855676,254.3724018749h-17.5453715768l-.8635575145,3.4531186092h15.6239062834c.8911904352-1.1694550959,1.8104737009-2.311296434,2.785022808-3.4531186092Z"/><path class="cls-2" d="M359.0348267208,271.6118567075c-3.0356737109,0-5.6539025235-.4737072111-7.8260187199-1.4206233974-2.1721545222-.9469353493-3.9544587409-2.2278994363-5.3750821384-3.8992120625-1.3924922411-1.6431623069-2.4228054251-3.592260521-3.0914377879-5.8482911137-.6680958012-2.2278802734-1.0026802634-4.6512030972-1.0026802634-7.2412815905,0-2.5900976562.3898119776-5.0405168391,1.1699724945-7.5190863413.7796239553-2.4790677379,2.0053605268-4.901873163,3.6485036708-7.2689336741,1.6431814698-2.3675395838,3.703807838-4.3447689543,6.1547444195-5.9321863471,2.4509365815-1.5873982299,4.9295060837-2.6739737267,7.4638396629-3.2586916932,2.5342952534-.5847371294,5.0962617532-.8911712723,7.7421234865-.8911712723,2.6458234074,0,5.0134013171.3340670635,7.1021205158,1.0584443404,2.0606263681.6962461205,3.6480437609,1.4758892387,4.7622521784,2.3112772711,1.1141700917.835905431,1.8380682957,1.5040203951,2.2278802734,2.0053605268l4.5115629497-18.2416176973h14.482563181l-13.7863362234,55.3382387765h-13.7019427542l1.3643994105-5.2083073059c-1.8381066216,1.9219826921-4.121750972,3.3978527679-6.9067354541,4.428165952-2.7568916516,1.0584443404-5.7649324418,1.5597844722-8.9397289016,1.5597844722v.0281311564ZM366.053090329,260.8893253514c2.8407485592,0,5.3193180613-.7238790412,7.4356701807-2.1445216016,2.1168886809-1.4482563181,3.5927779196-3.2029467791,4.4005713572-5.2635539843.8077551117-2.0611246039,1.22520001-4.0664851307,1.22520001-5.9603175035,0-2.0048622911-.4732089753-3.6761557544-1.3924922411-4.984771925-.91878503-1.3090952434-2.1163904452-2.2283976721-3.5922796839-2.7292204051-1.4763874745-.5013401317-2.8965126362-.7520101976-4.2613719566-.7520101976-2.8965126362,0-5.402715059.6962461205-7.4914725835,2.0887383616s-3.4812497656,3.0356737109-4.2332408002,4.9571390043c-.7520293605,1.9214652934-1.1142084175,3.7876647456-1.1142084175,5.5699881272,0,1.3924922411.1672922311,2.673475491.5571042087,3.8158150649.362179057,1.1418221752.91878503,2.1163712823,1.6431814698,2.9241455568.7519910347.8072568759,1.6707760647,1.4201251617,2.8126174028,1.8657012164,1.1418030123.417943134,2.4509365815.6404820435,3.9825898973.6404820435l.0281311564-.0276137577Z"/><path class="cls-2" d="M25,284.5341563435l13.7858331969-55.3382387765h13.9526128201l-1.0584443404,5.2911869049c1.6989359654-1.8657012164,3.7876839085-3.3415904551,6.2667516464-4.4557988726,2.4785599207-1.1141892546,5.4861024752-1.6707952276,9.0231067364-1.6707952276s6.8791025335.91878503,9.6922277535,2.729239568c2.8126269842,1.8380874587,4.7898563547,4.0936006527,5.9316785299,6.7952073001,1.1418317567,2.7016066474,1.7270671218,5.3193372242,1.7270671218,7.8817827969,0,4.0102228179-.6686227813,7.6029815747-2.0334916832,10.8059283538-1.3643706661,3.2024485433-3.2024485434,5.9321863471-5.5699977086,8.1600857834-2.3394180089,2.255532357-5.0962809161,3.9825898973-8.2434636182,5.1801761495-3.1471922835,1.1975862522-6.516913895,1.8099371394-10.0815510768,1.8099371394-2.9522767132,0-5.486600711-.4455760547-7.575348654-1.336728164-2.0887479431-.8911712723-3.5927683382-1.8657203793-4.5120611854-2.8683814798-.91878503-1.0026802634-1.5874078114-1.8380874587-2.0606167867-2.4785695022l-4.7622234341,19.4949680266h-14.4820793174ZM56.1920628619,261.0565984196c1.7823138002,0,3.4531186092-.3345652993,5.0410246563-1.0026802634,1.5874078114-.6686131999,2.9799096339-1.5874173928,4.2051192253-2.785003645,1.2252191729-1.1975862522,2.1721449407-2.6182096497,2.8683910613-4.2613719566.6962461205-1.6431814698,1.058434759-3.4254856886,1.058434759-5.402715059,0-1.810454538-.5013401317-3.3978527679-1.4758796573-4.7622330155-.9750569242-1.3929904768-2.1726431765-2.3394084275-3.5927683382-2.8965126362s-2.8126269842-.8354071952-4.1774958861-.8354071952c-2.0053605268,0-3.8434384041.3616999842-5.486600711,1.1137101817-1.6431718884.7520101976-3.0356737109,1.754690461-4.1774958861,3.035654548-1.1418317567,1.2809832499-2.0329934475,2.7573707244-2.6458521518,4.428165952-.6123604686,1.6713126262-.91878503,3.4536168449-.91878503,5.2917043036,0,1.2252191729.2506700659,2.3112772711.7238790412,3.3139575345.4737072111,1.0026802634,1.1418221752,1.8380874587,1.9772293705,2.5343335792.8358958495.6962461205,1.838576113,1.2533503293,2.9522767132,1.6431623069,1.1418221752.3903293763,2.3394180089.5852353651,3.6203916774.5852353651h.0281311564Z"/><path class="cls-2" d="M100.2782989942,272.0574327622c-1.6707952276,0-3.313967116-.1954042246-4.9571390043-.5571042087-1.6431623069-.362179057-3.1195497814-.9750473428-4.4562875269-1.8104353751-1.3367377455-.8354071952-2.4228150066-1.9772293705-3.2305796997-3.3978719308-.8077742746-1.4201251617-1.2252191729-3.1748156227-1.2252191729-5.2635539843,0-2.8407485592.5013401317-5.2078090702,1.5316533158-7.0740085223,1.0303036026-1.8657203793,2.3951725045-3.3973545322,4.0940988884-4.5673270267,1.7265593046-1.1694550959,3.6761557544-2.061105441,5.9040551907-2.6458425703,2.2278994363-.5847179665,4.5115533682-1.0026802634,6.9067354541-1.2533503293,2.7292299866-.3059167442,5.3193276428-.5565868101,7.7702642243-.7796239553,2.4509365815-.2225389095,4.7622138526-.5013401317,6.9906115246-.7796431182,1.3086161706-.1672922311,2.1997682799-.4737072111,2.617711414-.9469161864.4179622969-.473726374.6128682858-1.2257365715.6128682858-2.2283976721,0-1.3643802476-.7243772769-2.2836635133-2.1445024386-2.7568724887-1.4206425604-.4737072111-3.3978527679-.6962461205-5.9321863471-.6962461205-2.5067006586-.055764077-4.5673078638.2783029865-6.182856413,1.0026802634-1.615040732.7238790412-2.8126269843,1.754690461-3.5927683382,3.1190515457l-11.0842217588-3.7042869108c1.9772293705-3.1466844663,4.901873163-5.5699881272,8.7171804107-7.2407833548,3.8153072477-1.6989455469,8.7729444877-2.5343335792,14.8442727466-2.5343335792,2.8965126362,0,5.5142240502.2783029865,7.8255204841.8353880323,2.3117946697.5571042087,4.2613911195,1.3367473269,5.8487893494,2.3675587467,1.5874173928,1.0303131841,2.8126365657,2.3112772711,3.6485228338,3.8429305869.8354071952,1.5040203951,1.2809832499,3.2587108561,1.2809832499,5.1801761495,0,.6128682858-.1115281541,1.6712934633-.3064341429,3.1748156227-.1949059888,1.4763874745-.4174448983,2.7016066474-.6128491229,3.5927587567l-3.0914377879,12.9785811117c-.0552466784.3616808213-.0833778348.6404820435-.0833778348.8911521094,0,.4455760547.1391419118.7515119618.417943134.91878503.2783029865.1672730682.6128682858.2506700659,1.0303131841.2506700659,1.0584443404,0,1.9772293704-.3064341429,2.8131156385-.91878503l1.3367473269,7.2965474318c-1.1699533316.7520101976-2.5067006586,1.3648784833-3.9825898973,1.8380874587-1.4763874745.4737072111-2.8688797156.8353880323-4.2056270425,1.0584251775-1.336728164.2506700658-2.5900784933.3621982199-3.7037886751.3621982199-1.1975862522,0-2.2560114298-.0838952334-3.2586916932-.2506700659-.974549107-.1672730682-1.8380874587-.4737072111-2.5343335792-.9192832657-.6962461205-.4455952176-1.2809832499-1.0026802634-1.6989263839-1.7265593046-.4174448983-.7243772769-.6404820435-1.6155485492-.6962461205-2.7016066474-2.3394275904,2.1163712822-4.9013749273,3.6485228338-7.6587456517,4.6230719408-2.7573707244.9469161864-5.9321863471,1.4206233975-9.5249546853,1.4206233975h-.0276233392ZM106.7394488122,262.3651954273c1.9772293705,0,3.8992024811-.3898119776,5.8206677745-1.1694550959,1.9219635292-.7801413539,3.3978527679-1.754690461,4.483930029-2.9241455568,1.0584251775-1.1699533316,1.7546712981-2.3117755068,2.0887383616-3.3978527679l1.0026802634-3.3144749332c-2.0053605268.3903293763-4.0102228179.6962652834-5.9598192678.9469353493-1.9495964498.2230371452-3.9268258203.5013401317-5.9321767656.8077551117-1.5040203951.2506700659-2.729239568.5847371294-3.6761557544,1.0584443404-.9469161864.4455760547-1.6431718884,1.0860772611-2.0611150224,1.8657012164-.4174544797.780141354-.6123604686,1.6155485492-.6123604686,2.5343335792,0,1.0026802634.278293405,1.7828216174.8353976138,2.3675587468.5571042087.5847179665,1.2252191729.9469161864,2.0048527096,1.0584251775.780141354.1391610747,1.4482658996.1949059888,2.0334916832.1949059888l-.0281311564-.0281311564Z"/><path class="cls-2" d="M149.7129999786,284.5336581078c-2.2278994363,0-4.4834317933-.2783029865-6.739462386-.8354071952-2.2836443504-.5565868101-4.3447689543-1.4758892388-6.182856413-2.8126174028l5.5981384465-8.4388870057c.8353880323.6686323628,1.7823042187,1.2814814857,2.8683814798,1.810454538,1.0584443404.5289730524,2.1445024386.8077742746,3.2305796997.8077742746,1.5316341529,0,2.9241455569-.4455760547,4.2056270425-1.3091144063,1.280964087-.8635383516,2.4785503393-2.3394084275,3.648024598-4.372401875l-11.9753834496-40.2156726248h15.5962733627l6.5445372342,25.7612214373,16.1533775715-25.7612214373h16.2920404105l-31.721040705,44.6714714974c-2.2002665157,3.091418625-4.3171360337,5.4308270525-6.3219983248,7.0463756017-2.0053605268,1.6150311505-3.9549569766,2.617711414-5.820658193,3.0075425545-1.8938323728.3903102134-3.6766539902.5852162022-5.3755803741.5852162022v.0552658413Z"/><path class="cls-2" d="M216.5815443858,272.0569345265c-1.9772293705,0-3.8710617432-.1391610747-5.7091492019-.4174448983-1.8661994521-.2788012222-3.5927587567-.7520101976-5.2359210637-1.3648784833-1.6431814698-.6404820435-3.147201865-1.4482563181-4.5115629497-2.4509365815-1.3648593204-1.0021820277-2.5348318149-2.255532357-3.509380922-3.703788675-.974549107-1.4758892388-1.7265593046-3.1748156227-2.2836443504-5.0967791519-.5289730524-1.9495964498-.8077742746-4.1493647297-.8077742746-6.6284324676,0-4.3166377979.8353880323-8.1043217064,2.5343335792-11.3349014061,1.6989263839-3.2305605368,3.8991928996-5.8482911137,6.6284324676-7.8255204841,2.7292204051-2.0053413639,5.5699881272-3.3978527679,8.494133684-4.1779941219,2.9522767132-.7796431182,5.7654115147-1.1694550959,8.4946319198-1.1694550959,5.0686671584,0,9.3295408793.91878503,12.6997798895,2.7568724887,3.3973545322,1.8380682958,5.709130039,4.0107210537,6.9901132889,6.5174025493,1.2809832499,2.5343335792,2.1168886809,4.9013749273,2.5067006586,7.101641443l-14.8442823281,2.5343335792c-.2230371452-1.5316533158-.6404820435-2.8683814798-1.280964087-3.9825898973-.6405012064-1.1141892546-1.5597844722-1.9495964498-2.729239568-2.5067006586-1.1699724945-.5570850458-2.4233036609-.8353880323-3.7600509878-.8353880323-1.5597844722,0-2.9799096339.2783029865-4.2890240402.8635191887-1.3085970077.5847371294-2.4228054251,1.4201251617-3.3420886909,2.5062024228-.91878503,1.1142084175-1.6431623069,2.4509365815-2.1721353593,4.0383539743-.5289730524,1.5873982299-.7796431182,3.3702198473-.7796431182,5.3750821384,0,1.5040203951.1949059888,2.7849844821.61237005,3.871559979.3903102134,1.0860772611.9750473428,1.9772293705,1.698926384,2.673475491.7243772769.6962461205,1.5873982299,1.2252191729,2.5900784933,1.5592862364,1.0026802634.362179057,2.0887575245.5294712881,3.3144749332.5294712881,2.2836443504,0,4.1774958861-.5013401317,5.6815162812-1.4764066374,1.5035029965-.974549107,2.7292204051-2.617711414,3.6203916774-4.8737420067l13.7858379876,3.1748156227c-.9469353493,2.6458617333-2.2283976721,4.8461282489-3.8715791419,6.6841965447-1.6707952276,1.810454538-3.5646276003,3.2863437768-5.6809988826,4.428165952-2.1445216015,1.1418221752-4.483930029,1.9495964498-7.0182636082,2.4509365815-2.5343144163.5013401317-5.1525432289.7520101976-7.8541498763.7520101976l.0281311564.0276329206Z"/><path class="cls-2" d="M258.30073917,272.0574327622c-1.6707952276,0-3.3139766974-.1954042246-4.9571390043-.5571042087-1.6431623069-.362179057-3.1195497814-.9750473428-4.4562971084-1.8104353751-1.336728164-.8354071952-2.4228054251-1.9772293705-3.2305796997-3.3978719308-.8077551117-1.4201251617-1.2252191729-3.1748156227-1.2252191729-5.2635539843,0-2.8407485592.5013401317-5.2078090702,1.5316533158-7.0740085223,1.0303131841-1.8657203793,2.3951725045-3.3973545322,4.0940988884-4.5673270267,1.6989455469-1.1694550959,3.6761557544-2.061105441,5.8764222701-2.6458425703,2.2278994363-.5847179665,4.5115629497-1.0026802634,6.9067354541-1.2533503293,2.729239568-.3059167442,5.3193372242-.5565868101,7.7702546429-.7796239553,2.4228054251-.2225389095,4.7622521784-.5013401317,6.9901324518-.7796431182,1.3090952434-.1672922311,2.2002856786-.4737072111,2.5900976562-.9469161864.417943134-.473726374.6128682858-1.2257365715.6128682858-2.2283976721,0-1.3643802476-.7238982041-2.2836635133-2.1445216015-2.7568724887-1.4201251617-.4737072111-3.3978527679-.6962461205-5.9321863471-.6962461205-2.5062024228-.055764077-4.5673078638.2783029865-6.1547252566,1.0026802634-1.6150311505.7238790412-2.8126174028,1.754690461-3.5927587567,3.1190515457l-11.0842313403-3.7042869108c1.9772293705-3.1466844663,4.9013749273-5.5699881272,8.7171708292-7.2407833548,3.8153168291-1.6989455469,8.7729540692-2.5343335792,14.8442631652-2.5343335792,2.8960144005,0,5.5142432131.2783029865,7.8255204842.8353880323,2.3118138326.5571042087,4.2614102824,1.3367473269,5.8488276753,2.3675587467,1.587379067,1.0303131841,2.8126174028,2.3112772711,3.6480054351,3.8429305869.8358862681,1.5040203951,1.2533694922,3.2587108561,1.2533694922,5.1801761495,0,.6128682858-.1110299183,1.6712934633-.3064533058,3.1748156227-.1948868259,1.4763874745-.4174448983,2.7016066474-.61237005,3.5927587567l-3.0913994621,12.9785811117c-.055764077.3616808213-.0838952334.6404820435-.0838952334.8911521094,0,.4455760547.1396593105.7515119618.417943134.91878503s.6128682858.2506700659,1.0303131841.2506700659c1.0584443404,0,2.0053605268-.3064341429,2.8407485592-.91878503l1.336728164,7.2965474318c-1.169435933.7520101976-2.506164097,1.3648784833-3.9544587409,1.8380874587-1.4758509129.4737072111-2.8683814798.8353880323-4.2056078796,1.0584251775-1.336728164.2506700658-2.5900976562.3621982199-3.7037695121.3621982199-1.1976054152,0-2.2560497556-.0838952334-3.258730019-.2506700659-.974549107-.1672730682-1.8380682958-.4737072111-2.5343335792-.9192832657-.7238598783-.4179622969-1.280964087-1.0026802634-1.698907221-1.7265593046-.4174448983-.7243772769-.6405012064-1.6155485492-.6962652834-2.7016066474-2.3394084275,2.1163712822-4.9013749273,3.6485228338-7.6587264888,4.6230719408-2.7568724887.9469161864-5.9321863471,1.4206233975-9.5244468681,1.4206233975h-.0281311564ZM264.7618794065,262.3651954273c1.9777276062,0,3.8992120625-.3898119776,5.820658193-1.1694550959,1.9219635292-.7801413539,3.3978527679-1.754690461,4.483930029-2.9241455568,1.0584443404-1.1699533316,1.7547096239-2.3117755068,2.0887575245-3.3978527679l1.0026802634-3.3144749332c-2.0053605268.3903293763-4.0102228179.6962652834-5.9598192677.9469353493-1.9772293705.2230371452-3.9268258203.5013401317-5.9321863471.8077551117-1.5040203951.2506700659-2.729239568.5847371294-3.7037695121,1.0584443404-.9469353493.4455760547-1.6431814698,1.0860772611-2.0611246039,1.8657012164-.4179622969.780141354-.6128682858,1.6155485492-.6128682858,2.5343335792,0,1.0026802634.2788012222,1.7828216174.835905431,2.3675587468.5847371294.5847179665,1.2252191729.9469161864,2.0048622911,1.0584251775.780141354.1391610747,1.4482563181.1949059888,2.0329742846.1949059888v-.0281311564Z"/><path class="cls-2" d="M299.8817885139,270.8040824329l10.4155798145-41.6081648659h13.8697332211l-1.643143144,7.1850192777c1.3924922411-1.9214652934,3.0356353851-3.5088635233,4.9295060837-4.7898467732,1.8938323728-1.2814814857,3.6761365915-2.1445024386,5.346950982-2.5900784933,1.6712743004-.4455952176,3.1471635391-.6686323628,4.428165952-.6686323628,2.1444832757,0,3.9268258203.2230371452,5.3193180613.6686323628,1.3924922411.4455760547,2.5067006585,1.0026802634,3.3420886909,1.6707952276l-7.1850192777,12.7831577242c-.6128682858-.5847371294-1.5597844722-1.1137101817-2.8131539643-1.5874173928-1.2533311664-.4732089753-2.7015874845-.6962461205-4.3447689543-.6962461205-6.4887923201,0-10.6944001997,3.7042869108-12.5882325725,11.1399762544l-4.5954581831,18.5204380825h-14.4815667095v-.0276329206Z"/><rect class="cls-1" width="500" height="500"/></svg>