<?xml version="1.0" encoding="UTF-8"?><svg id="Layer_1" xmlns="http://www.w3.org/2000/svg" viewBox="0 0 500 500"><defs><style>.cls-1{fill:#009cde;}.cls-1,.cls-2,.cls-3,.cls-4{stroke-width:0px;}.cls-2{fill:none;}.cls-3{fill:#003087;}.cls-4{fill:#012169;}</style></defs><path class="cls-1" d="M372.6181573054,223.178983481h-24.4882459144c-1.6745411432,0-3.0999806686,1.2181514242-3.3607479293,2.8722306906l-9.902133921,62.7906238008c-.1953783411,1.2389469616.7623176741,2.3592370335,2.0165106335,2.3592370335h12.564063165c1.1722121691,0,2.1699531132-.8528394443,2.3525534955-2.0103835537l2.8079535042-17.8016472236c.2608894622-1.6538568542,1.6864514803-2.8722306906,3.3606477186-2.8722306906h7.7489508168c16.1295521644,0,25.4385018626-7.8057773205,27.8715796732-23.2775459163,1.0951574697-6.7661116582.0440376074-12.0829856534-3.1238899757-15.8047196058-3.483085612-4.091939-9.6550230172-6.2555645349-17.8472412664-6.2555645349ZM375.4439037823,246.1117905426c-1.3381427531,8.7903959722-8.0517649709,8.7903959722-14.5445319151,8.7903959722h-3.6943771629l2.5913240616-16.4116824024c.1564669537-.9922918713,1.0118641162-1.7228046252,2.016166219-1.7228046252h1.6935573828c4.4197744186,0,8.5947842565,0,10.7472891288,2.5179281128,1.2876669658,1.5070648257,1.6773212952,3.7398605438,1.1905722858,6.8261629426Z"/><path class="cls-3" d="M197.961781255,223.178983481h-24.4884683265c-1.674318731,0-3.0997516666,1.2181514242-3.3604253065,2.8722306906l-9.9021229256,62.7906238008c-.1953890815,1.2389469616.7619840559,2.3592370335,2.0163886312,2.3592370335h11.691873567c1.6744299371,0,3.0997582564-1.2181514242,3.3606477186-2.8720082784l2.672066507-16.9400224988c.2609938365-1.6538568542,1.6864333619-2.8722306906,3.360752093-2.8722306906h7.7488396107c16.1295521644,0,25.4385018626-7.8057773205,27.8715796732-23.2775459163,1.0952765199-6.7661116582.0440376074-12.0829856534-3.1238822381-15.8047196058-3.4830933497-4.091939-9.6550307549-6.2555645349-17.847249004-6.2555645349ZM200.7875277319,246.1117905426c-1.3381427531,8.7903959722-8.0516537648,8.7903959722-14.544420709,8.7903959722h-3.694599575l2.5914352676-16.4116824024c.1565781598-.9922918713,1.0117529101-1.7228046252,2.0162774251-1.7228046252h1.6935573828c4.4196632125,0,8.5946803241,0,10.7470667167,2.5179281128,1.2877663991,1.5070648257,1.6774325013,3.7398605438,1.1906834918,6.8261629426Z"/><path class="cls-3" d="M271.1531744551,245.8304391547h-11.725457803c-1.0047469271,0-1.8603665018.7305127539-2.0164910487,1.7233606556l-.5157825847,3.2785777149-.819588805-1.1874585455c-2.5396132346-3.6863704183-8.1988906139-4.9177553663-13.8501611555-4.9177553663-12.9542849801,0-24.021069175,9.8167169046-26.1747973142,23.5855867639-1.1210684862,6.8689772842.4702905097,13.4332499033,4.3648386154,18.0150516953,3.5786116342,4.2093726228,8.6847499747,5.9615356536,14.768500959,5.9615356536,10.4418060288,0,16.2335298486-6.7080620833,16.2335298486-6.7080620833l-.5235582217,3.2592278566c-.1962787301,1.2391693738.7615392315,2.3605715065,2.016166219,2.3605715065h10.5596844729c1.6740963189,0,3.0993134321-1.2177065999,3.3604253065-2.8713410419l6.3390801425-40.1405026002c.1956114936-1.2387245494-.7619840559-2.3587922092-2.0163886312-2.3587922092ZM254.8117747095,268.6538194313c-1.1324115063,6.6998328332-6.4511758705,11.1975628271-13.2348579183,11.1975628271-3.4012379376,0-6.1234515546-1.0942678487-7.8741688622-3.1651475111-1.7345924261-2.0535315136-2.387372112-4.9786962993-1.8372356373-8.2362560647,1.0559098936-6.6404487854,6.4599611508-11.2828578921,13.1409999873-11.2828578921,3.3293988103,0,6.0331522181,1.10416519,7.8172313495,3.194839535,1.7963118001,2.105464754,2.502247992,5.0503130162,1.988031081,8.2918591058Z"/><path class="cls-1" d="M445.8095505055,245.8304391547h-11.7255690091c-1.0047469272,0-1.8602552958.7305127539-2.0163886312,1.7233606556l-.5157737961,3.2785777149-.819588805-1.1874585455c-2.5396001318-3.6863704183-8.19900182-4.9177553663-13.8502723616-4.9177553663-12.9542849801,0-24.021069175,9.8167169046-26.1746739522,23.5855867639-1.1210806421,6.8689772842.4701671477,13.4332499033,4.3649376656,18.0150516953,3.5785127847,4.2093726228,8.6846387687,5.9615356536,14.768612165,5.9615356536,10.4418060288,0,16.2333204858-6.7080620833,16.2333204858-6.7080620833l-.5236824771,3.2592278566c-.196167524,1.2391693738.761663493,2.3605715065,2.0162774251,2.3605715065h10.5596844729c1.674207525,0,3.0993134321-1.2177065999,3.3606477186-2.8713410419l6.3388577303-40.1405026002c.1956114936-1.2387245494-.7619840559-2.3587922092-2.0163886312-2.3587922092ZM429.468261966,268.6538194313c-1.1326339184,6.6998328332-6.4512870766,11.1975628271-13.2349691244,11.1975628271-3.4011267315,0-6.1234515546-1.0942678487-7.8741688621-3.1651475111-1.7345924261-2.0535315136-2.3874833181-4.9786962993-1.8373468434-8.2362560647,1.0560129297-6.6404487854,6.4600850755-11.2828578921,13.1409999873-11.2828578921,3.3293988104,0,6.0331522182,1.10416519,7.8173425556,3.194839535,1.796200594,2.105464754,2.502247992,5.0503130162,1.988142287,8.2918591058Z"/><path class="cls-3" d="M333.6055077763,245.8304391547h-11.7858427041c-1.1274072327,0-2.181418453.5594777995-2.8148482811,1.4919407986l-16.2581063922,23.9446712033-6.8898838536-23.0094280522c-.4311459697-1.439785146-1.7560551994-2.4271839497-3.2593389803-2.4271839497h-11.5854493491c-1.3989724785,0-2.3834798992,1.3763976792-1.9323074992,2.7005284997l12.9776289208,38.092976215-12.2063128902,17.2232643901c-.9580403738,1.3517099289.008451662,3.2215289947,1.6655334508,3.2215289947h11.7743884779c1.1158418004,0,2.1607341222-.5472451304,2.7963880719-1.4644728963l39.1961395601-56.568977121c.9378008674-1.3536004323-.0310264961-3.2048480824-1.6779885317-3.2048480824Z"/><path class="cls-1" d="M459.6304644621,224.9032337853l-10.0505830416,63.9394938358c-.1947082067,1.2387245494.7626512923,2.3583473848,2.0163886312,2.3583473848h10.1078541725c1.674318731,0,3.0995358443-1.2181514242,3.3607589247-2.8717858663l9.909684939-62.790846213c.1956114936-1.2387245494-.7620952619-2.3594594457-2.016166219-2.3594594457h-11.3115487756c-1.0049693393,0-1.860575013.7314024025-2.0163886312,1.7242503042Z"/><path class="cls-3" d="M107.3568504981,201.5370566215c-5.2871769734-6.0247007083-14.8391168194-8.6057938758-27.059997706-8.6057938758h-35.4739608774c-2.4979109549,0-4.6243936046,1.817329795-5.0133924703,4.2844367282l-14.7716147292,93.6694390525c-.2915823401,1.8481338798,1.1370821616,3.5196725011,3.0079020349,3.5196725011h21.9000356231l5.5012535405-34.8839023015-.170923744,1.0937118183c.3893324839-2.4671069332,2.4977997488-4.2842143161,4.9954882915-4.2842143161h10.4085554111c20.4422351286,0,36.4486821631-8.3050926295,41.1258986555-32.3236046714.1383403627-.7109404834.256441219-1.4003069868.3627542309-2.0772184091q-.5907266936-.3130451214,0-.0002224122c1.3923001137-8.8786936014-.0100085471-14.9202976342-4.8119982605-20.3923041141Z"/><path class="cls-3" d="M61.3566781776,222.0472391827c.2338663849-1.4838227545,1.1862352487-2.6991940267,2.468663756-3.3134964247.5829422681-.2794608845,1.2341650689-.4347045752,1.9169703962-.4347045752h27.8070801472c3.2942576893,0,6.3653247772.2156285934,9.1737231057.6680149357.8023518627.1289990553,1.5833521581.2774591751,2.3421112377.4459363896.7585366674.1682548024,1.4947209128.3563042873,2.2076630877.5649268975.3564154844.104200099.7070482527.2134044717,1.0517870987.3280579424,1.3788441781.4576130282,2.6627183645.9975185572,3.8441717518,1.6233863877,1.3923001137-8.8786936014-.0100085471-14.9202976342-4.8119982605-20.3923041141-5.2871769734-6.0247007083-14.8391168194-8.6057938758-27.059997706-8.6057938758h-35.4739608774c-2.4979109549,0-4.6243936046,1.817329795-5.0133924703,4.2844367282l-14.7716147292,93.6694390525c-.2915823401,1.8481338798,1.1370821616,3.5196725011,3.0079020349,3.5196725011h21.9000356231l5.5012535405-34.8839023015,5.9096022639-37.4736695434Z"/><path class="cls-1" d="M112.1688487586,221.9293607356v.0002224122h0c-.1063130119.6769114222-.2244138682,1.3662779257-.3627542309,2.0774408212-4.6772164924,24.0182896297-20.6836635269,32.3233822593-41.1258986555,32.3233822593h-10.4085554111c-2.4976885427,0-4.6061558076,1.817329795-4.9954882915,4.2844367282v-.0002224122.0002224122l-5.3303297965,33.7899680711-1.511735443,9.5850746355c-.254880831,1.6167140228.99473838,3.0788515913,2.6314694562,3.0788515913h18.4590971151c2.1848658414,0,4.0451252815-1.5895797387,4.3855229461-3.7479785878l.1811588608-.9380233032,3.4774141898-22.0513876542.2242984167-1.2181514242c.340401809-2.1583988491,2.2005458986-3.7482009999,4.3856341522-3.7482009999h2.7612469508c17.883049624,0,31.8854519021-7.2654269672,35.9771683866-28.2769265469,1.7096822643-8.7798313944.8258163454-16.1086458284-3.6952668115-21.2604899977-1.3677235702-1.5585532418-3.0692877907-2.8472093221-5.0529818346-3.8982180048Z"/><path class="cls-4" d="M107.2728899081,219.9779164054c-.7129421749-.2081777859-1.4491264203-.3966720951-2.2076630877-.5649268975-.7587590796-.1684772145-1.539759375-.3169373342-2.3421112377-.4459363896-2.8083983285-.4523863423-5.8794654165-.6680149357-9.1737231057-.6680149357h-27.8070801472c-.6828053273,0-1.3340281281.1552436907-1.9169703962.4347045752-1.2824285073.614302398-2.2347973711,1.8296736702-2.468663756,3.3134964247l-5.9096022639,37.4736695434-.170923744,1.0937118183c.3893324839-2.4671069332,2.4977997488-4.2842143161,4.9954882915-4.2842143161h10.4085554111c20.4422351286,0,36.4486821631-8.3050926295,41.1258986555-32.3236046714.1383403627-.7109404834.256441219-1.4003069868.3627542309-2.0772184091-1.1814533872-.6260902427-2.4653275736-1.1659957717-3.8441717518-1.6236087999-.344738846-.1146534707-.6953716143-.2238578434-1.0517870987-.3280579424Z"/><rect class="cls-2" width="500" height="500"/></svg>