<?xml version="1.0" encoding="UTF-8"?><svg id="Layer_1" xmlns="http://www.w3.org/2000/svg" viewBox="0 0 500 500"><defs><style>.cls-1{fill:none;}.cls-1,.cls-2,.cls-3{stroke-width:0px;}.cls-2{fill:#e3001c;}.cls-3{fill:#008ac9;}</style></defs><path class="cls-3" d="M25,341.1732687502c.0562500498-3.9455348292.9401881623-6.9509734579,2.6437829952-9.00000797.8919694547-.8599053936,2.0089391087-1.5750013947,3.3669409925-2.1696885699,1.4143132416-.6347825785,2.7884084638-.9402188163,4.1143156326-.9402188163h16.1036382389c7.1036302689.0562807038,10.7197574494,3.9455348291,10.832257549,11.6599149577v23.7536450134c-.0562807038,2.7402204103-1.1250623042,5.1188464949-3.198252151,7.1117229191-2.0571884703,2.0892525313-4.5080966352,3.1500027895-7.3687871794,3.2142535276h-15.2277927766v17.132263128h-11.2661033011v-50.7618841897ZM50.7867701109,343.4151780925c-.0562807038-1.7919089438-.9080934472-2.7240351098-2.5473455801-2.7803158136h-8.7750690787c-2.0732511548.1286240921-3.1500027895,1.2615951227-3.198252151,3.4071283578v15.7822619325c.0482493615,2.2097839732,1.2375010959,3.3428776197,3.5437837922,3.4071283578h8.0437877772c.8277187166,0,1.5268133412-.3134062721,2.081282497-.9481888506.5785631827-.4741557332.8518127434-1.084782977.8518127434-1.8402196133v-17.0277943707Z"/><path class="cls-3" d="M97.0205099637,343.1379435145c.0562193958-1.7357508559-.9482501585-2.5634082646-3.0295326556-2.5071275608h-22.6929560632v-11.5715088849h25.5456765731c7.44916191.1205314419,11.2259772437,3.7205346299,11.3465086856,10.8161948645v24.2117380622c-.0562807038,3.0615967167-.9964382121,5.584786962-2.8205951409,7.5937260707-1.8964390091,2.0812824971-4.3553785163,3.1259700707-7.3607558372,3.1259700707h-15.4366689834c-7.5214439904-.064373354-11.3303846931-3.4956570466-11.4428847928-10.3180064124v-9.3455396112c.0562193959-7.1276629877,3.6964406031-10.7518215105,10.9044783214-10.8723529523h14.9867298929v-1.1330936465ZM82.3954357044,360.9371145901c0,.6589379132.3053136219,1.1812817001.900000797,1.5751240107.5303138211.4740331173,1.1972830766.7150960011,2.04909582.7150960011h8.6464449866c1.9607510552,0,2.9732519518-.7553140204,3.0295326556-2.2902200118v-3.2303162121c0-1.767876225-1.0286248891-2.6518143374-3.1098460782-2.6518143374h-8.566131564c-1.1330323385,0-1.9125016936.18478218-2.3464394076.5384064713-.4018123449.4178750295-.6026572094,1.2455324381-.6026572094,2.4670321575v2.8766919208Z"/><path class="cls-3" d="M139.8358407947,380.3555514048c.8919081468-.0561580879,1.6713775019-.3776570102,2.2981900461-.9481888506.6026572095-.5384064713.900000797-1.1571263653.900000797-1.8562822978v-2.7481904446h-14.4241680868c-1.8803763246,0-3.383034331-.2410628838-4.500003985-.715218617-1.1893130423-.433937714-2.3705947424-1.2455324382-3.5598464767-2.3945661532-1.1250009963-1.2214997193-1.9366570284-2.4991575265-2.4268141382-3.8250033873-.5143124445-1.2214997193-.7714380128-2.7723457793-.7714380128-4.6367207273v-34.168027533h11.2581026127v30.4956809567c0,2.4509694729,1.0044695544,3.6723465763,3.0214400054,3.6723465763h7.9553817044c.9482501585,0,1.767876225-.3134062721,2.4589395072-.9481888506.6589379132-.5303138211.9884068698-1.1731890498.9884068698-1.9125630016v-31.3072756808h11.1777278822v50.4083825142c-.0642507381,3.7285046642-1.0205322389,6.7097879583-2.8687218865,8.9758526353-1.8723449823,2.266064677-4.4277219046,3.4233136582-7.6982561361,3.4875643963h-26.2930205592v-11.5796015351h22.4840798565Z"/><path class="cls-3" d="M163.0575779801,363.2297869201h20.0732670949c1.8402196133-.0642507381,2.7884084639-.7955320396,2.8527205099-2.2097839732v-1.0365949234c0-.3053136219-.0964374151-.6428752287-.2732495608-.9964995201-.4500003985-.8758454623-.9963769041-1.3097831762-1.6553148174-1.3097831762h-9.9482581286c-2.9571892673-.0562807038-5.4724094783-1.0768129427-7.5938486867-3.0374413819-2.1455332351-1.8161868945-3.2384088623-4.0501262024-3.3026596004-6.6696925549v-8.6304436101c.1125000996-6.733943293,3.7768153337-10.1572569512,10.9768217097-10.2777883931h23.2876432384v11.5715088849h-19.7277967617c-2.3143140386,0-3.4794717461.7071259668-3.4794717461,2.1294705506v1.1170309619c0,1.4705326374,1.1893130423,2.2018139389,3.567877819,2.2018139389h9.9241641018c2.6356903449.0642507381,4.8937849877,1.0766903268,6.7741613123,3.0535040665,1.8964390091,1.9849063899,2.8767532287,4.3473471741,2.9410652748,7.0956602346v8.4455388142c-.064312046,2.3705334344-1.1571263653,4.7330968345-3.2705342314,7.0955376187-1.0286248891,1.1652190155-2.081282497,1.9607510552-3.133940105,2.4107514537-1.0928756272.4097823792-2.5715009148.6268125442-4.4598472737.6268125442h-23.5528001489v-11.5796015351Z"/><path class="cls-3" d="M231.3920390393,343.1379435145c.0481880536-1.7357508559-.9643128431-2.5634082646-3.0455953401-2.5071275608h-22.684924721v-11.5715088849h25.5537079154c7.4330992255.1205314419,11.2179459015,3.7205346299,11.3304460011,10.8161948645v24.2117380622c-.0562807038,3.0615967167-1.0044695544,5.584786962-2.8125637986,7.5937260707-1.8883463589,2.0812824971-4.3473471741,3.1259700707-7.352663187,3.1259700707h-15.4608243182c-7.5053813059-.064373354-11.3223533509-3.4956570466-11.4268221082-10.3180064124v-9.3455396112c.0481880536-7.1276629877,3.6884092608-10.7518215105,10.9044783214-10.8723529523h14.9947612352v-1.1330936465ZM216.7509020955,360.9371145901c0,.6589379132.3053136219,1.1812817001.9160634815,1.5751240107.5222824789.4740331173,1.1972830766.7150960011,2.0330331355.7150960011h8.6625689791c1.9606897472,0,2.9651593016-.7553140204,3.0294713476-2.2902200118v-3.2303162121c0-1.767876225-1.0527189159-2.6518143374-3.1178774205-2.6518143374h-8.5741629063c-1.1330323385,0-1.9044703514.18478218-2.3384080654.5384064713-.4018123449.4178750295-.6106885517,1.2455324381-.6106885517,2.4670321575v2.8766919208Z"/><path class="cls-3" d="M251.7056333224,322.4972712851c.0722820804-3.1258474548,1.2213771034-5.6329750156,3.4794717461-7.5134126481,2.1856899465-1.9124403857,5.0625044832-2.8928772212,8.6223509598-2.9490353091h7.1518183225v11.1776665742h-4.3312844896c-2.3865961189.0562807038-3.600003188,1.1973443846-3.6481912416,3.3991583235v2.450846857h7.9794757312v11.5875715694h-7.9794757312v34.1600574987h-11.2741652973v-52.3128528656Z"/><path class="cls-3" d="M289.0485546752,359.2810640772v.7231886513c0,.9241561317.2410628838,1.6634074676.7312199936,2.1937212887.3535629834.683093248.8357500589,1.0286248891,1.4625012951,1.0286248891h23.1430177697v11.5794789192h-24.6055190648c-2.2419706502,0-3.9937841907-.2089375147-5.2312852866-.6347825785-1.3500011955-.4419077483-2.5634082646-1.1652190155-3.6240972148-2.1776586042-1.2375010959-1.2294697536-2.081282497-2.4750021918-2.5071888688-3.7607526492-.466063083-1.333938511-.6910632823-3.1099073861-.6910632823-5.3276613937l-.0964374151-23.1590804542c.1205314419-6.9991615115,3.7768153337-10.5670393305,10.9607590252-10.6875707724h15.1875747574c7.0152241961.1205314419,10.5750706727,3.8089407027,10.6875707724,11.0812904671v9.1527873969l-25.417052481,9.9884148399ZM302.9986283367,342.9201776541v-.2650956026c0-.5946871751-.2411241917-1.1009682774-.7232499593-1.4786252876-.5303751291-.36956436-1.1651577076-.5463765057-1.9365957204-.5463765057h-7.8429429127c-1.0125008966,0-1.8160642785.2892509373-2.450908165.8597827777-.7794693551.5384064713-1.1731890498,1.2375624038-1.1731890498,2.1054378318v4.6445681457l14.1268858072-5.3196913594Z"/><path class="cls-3" d="M338.312562879,374.8052195142c-1.7036254869,0-3.2625641971-.1606268453-4.6768161307-.4419077483-1.4786252876-.2410628838-2.949157925-.9321261661-4.4598472737-2.0892525314-1.5428760257-1.3420311612-2.6196889684-2.8527818179-3.2062834933-4.5241593198-.6187812019-1.6392521328-.9160634815-3.4955344306-.9160634815-5.5849095779v-21.6000191281c-.0643120461-1.767876225.1125000996-3.3107522507.5303138211-4.6527834119.3777183182-1.3419085453,1.1732503578-2.6518143375,2.3786260846-3.9294721446,1.36606388-1.3500011955,2.7643144371-2.2419093423,4.2428784167-2.6839397065,1.4223445838-.3615943257,3.0214400054-.5384064713,4.8214415994-.5384064713h17.2608259122v2.7080950412h-16.8590135672c-2.9812832941,0-5.3196913594.6107498597-7.0312868806,1.8402196133-1.7518135404,1.333938511-2.6437829952,3.6321285571-2.6437829952,6.8785074537v21.6162044285c0,1.5188433069.2330315415,3.0054386288.6910632823,4.4277832126.4740944253,1.4061592834,1.2615951227,2.635629037,2.3946887691,3.7124419797,1.2294697536.932126166,2.450908165,1.5107506566,3.6401598993,1.7518135404,1.2455324381.2731882528,2.5714396069.4018123449,3.9857528484.4018123449h16.0956068967v2.7079724253h-16.2482637076Z"/><path class="cls-3" d="M401.3932386316,362.3459714236c0,1.7357508559-.1366554344,3.2624415812-.3616556336,4.6044727424-.3615943257,1.4624399872-1.1089383117,2.8687218865-2.2500019925,4.2107530477-2.3625020921,2.4910648763-5.2955360247,3.7044719454-8.7911317633,3.6481912416h-13.4598552437c-3.4955344307,0-6.332192256-1.0526576079-8.5259748527-3.1258474548-2.2419706502-2.0572497782-3.383034331-4.9178790145-3.383034331-8.5822555565v-6.9589434922c.1125000996-7.8589442892,4.0259095597-11.8849151569,11.7402283803-12.0617273026h22.4197678104v-3.0455340322c0-2.515220211-.7231886513-4.716911534-2.1696272619-6.6053192009-.9160634815-1.2294697536-2.0089391087-2.049157128-3.2384088623-2.4750021917-1.2455324381-.3214989223-2.6437829952-.4902184178-4.2107530477-.4902184178h-24.4608322882v-2.700002391h23.1912058233c2.1214392084,0,4.0419722443.1445641607,5.7776617922.4419077483.8919694547.1768121457,1.7036254869.5223437868,2.450908165,1.0286248891.7955933476.4740331173,1.5348446835,1.1731890498,2.2178766235,2.0973451816,2.081282497,2.6758470563,3.0937833937,5.7696917579,3.0536266824,9.2571335383v20.7564216508ZM398.7012675829,346.7806170401h-22.6367366674c-2.7080950412.064373354-4.8375655919.9001234129-6.3643176251,2.515220211-1.583094045,1.6393747488-2.3625634001,3.8893767413-2.3625634001,6.7420359432v6.8946927542c0,1.333938511.1366554344,2.5553156144.4259063717,3.6562838918.281280903,1.1650963996.9964382121,2.1937212887,2.1134078661,3.0857520514,1.9607510552,1.6150967981,4.1223469748,2.418721488,6.4928804092,2.418721488h13.71704212c5.7295350466-.0562807038,8.6143809255-3.0776594012,8.6143809255-9.0723513584v-16.2403549812Z"/><path class="cls-3" d="M426.7066806667,331.4684645157c-6.2759728602.1125614076-9.3696949459,3.5438451001-9.2571948463,10.2858810434v33.050996571h-2.6920323567v-33.0430265367c-.1285627842-8.6705390134,4.0018155329-13.001823503,12.383103609-13.001823503h2.9973459786v2.7079724253h-3.4312223846Z"/><path class="cls-3" d="M475,362.010862135c-.2330315415,8.718727067-4.8536282764,12.9937308527-13.8456049041,12.817041323h-9.9965074901c-2.1134078661,0-4.0018155329-.1849047959-5.6732543428-.5384064713-1.7196268634-.4420303642-3.3669716465-1.4946879721-4.9500043835-3.1259700707-1.1893130423-1.4705326374-1.9607510552-2.9571279593-2.266064677-4.4758486503-.4098436872-1.5188433069-.5946871751-3.2062834933-.5303751291-5.0544731409v-19.6635460236c.1205314419-8.8554438093,4.5803787156-13.2589490713,13.3956045056-13.1946983332h21.1742353723v-14.9304491891h2.6919710488v48.166350556ZM472.3080289512,331.4829331933h-21.3349848334c-1.5428147178,0-2.916971248.1688421114-4.1625036861.498311068-1.2937817997.2892509374-2.5553769223,1.084782977-3.7285659722,2.3624407842-1.1250009963,1.1733116658-1.832188271,2.330438031-2.1294705506,3.4875643963-.3937810027,1.1731890498-.5705931483,2.5713782989-.5062811023,4.2107530477v21.069705307c0,3.5036270809,1.0125008966,5.8902231998,3.0696893669,7.167881007,1.0125008966.5946871751,2.1294705506,1.0365949234,3.3750029888,1.333938511,1.2455324381.3375616068,2.6356903449.498311068,4.1625036861.498311068h9.3295382346c3.4875030884,0,6.3401622903-.8036246899,8.5259135448-2.4188441039,2.2018139389-1.518720691,3.3268149352-4.1384096594,3.3991583235-7.8670369395v-30.3430241457Z"/><path class="cls-2" d="M200.0091706485,167.4972702633c2.2821273616-1.0044695544,4.5562233808-1.7919089438,6.8384120503-2.2821273616,4.1946290552-20.0089550488,21.9134867081-35.0117476262,43.1519728185-35.0117476262,21.2546101029,0,38.9814990981,15.0268252962,43.168096811,35.0278103107,6.517035744,1.2375624039,11.9090091837,3.8733140568,16.1117308891,7.8027862014.1767508377-3.8410660718.0160626845-7.5375679829-.433937714-11.0251323792-2.6919710487-30.2223700879-28.0367414494-53.9440123483-58.934234751-53.9440123483-31.8215881254,0-57.7208889899,25.2162076165-59.0628588431,56.7405134623-.18478218,2.7241577258-.2410628838,5.552661593-.1446254687,8.5178822025,2.667877022-2.2500019925,5.7214423964-4.2750037858,9.3054442078-5.8259724617"/><path class="cls-2" d="M284.5373313341,171.9787592455h-70.8995246385c-3.4071283578,0-6.9428808077.7875620053-10.583102015,2.4188441039-3.5115971152,1.5347833755-6.3964429941,3.3910656733-8.7026643825,5.6008496465-4.3955965356,5.2875659903-6.6455985281,13.0180088034-6.8062866813,23.1992984735v55.4145449856c.1606881532,10.1973523546,2.4106901457,17.9277951677,6.8062866813,23.1831131731,2.3062213883,2.2501246084,5.1910672673,4.1062842903,8.7026643825,5.649160316,3.6402212073,1.5991567295,7.1759736572,2.4027814193,10.583102015,2.4027814193h70.8995246385c18.3134835201-.1688421114,27.6268977623-10.213537655,27.9162100076-30.0698358929v-57.7449830167c-.2893122453-19.8884236069-9.6027264874-29.8930237472-27.9162100076-30.0537732084"/><rect class="cls-1" width="500" height="500"/></svg>