<?xml version="1.0" encoding="UTF-8"?><svg id="Layer_1" xmlns="http://www.w3.org/2000/svg" viewBox="0 0 500 500"><defs><style>.cls-1{fill:none;}.cls-1,.cls-2,.cls-3{stroke-width:0px;}.cls-2{fill:#192451;}.cls-3{fill:#a78fff;}</style></defs><path class="cls-2" d="M88.8600553785,222.7061213279c12.4916319944.001839229,22.7424436686,10.6824524549,22.7424436686,24.5254536064,0,13.8388847818-10.2508116742,24.5194980076-22.7424436686,24.5194980076-6.8055678387,0-11.7454655316-2.5043818415-15.1011739458-6.7775590079v24.0570983108h-12.0241875551v-65.0217912635h12.0241875551v5.4785202961c3.3557084142-4.2736150781,8.2956061071-6.7812199495,15.1011739458-6.7812199495ZM345.6332537593,222.7061213279c12.4911678081.001839229,22.744747084,10.6824524549,22.744747084,24.5254536064,0,13.8388847818-10.2535792759,24.5194980076-22.744747084,24.5194980076-6.8014339525,0-11.7417783153-2.5043818415-15.0993347168-6.7775590079v24.0570983108h-12.0241787969v-65.0217912635h12.0241787969v5.4785202961c3.3575564015-4.2736150781,8.2979007643-6.7812199495,15.0993347168-6.7812199495ZM439.6612284135,224.0703563301l12.1178568626,31.1528614589,10.3499899105-31.1528614589h12.8709248134l-16.9714246477,46.3669991007c-4.8489784708,13.352592624-12.7744791459,19.1929505796-24.6191491886,18.5445785522v-11.130611264c6.6191575965.0918388367,9.9803574231-2.6903541721,12.2165796708-8.9054068741l-19.1162459704-44.8755595149h13.1514685495ZM140.347389299,222.7042820989c13.7071084003,0,24.7045419654,10.6424973936,24.7045419654,24.431337629,0,13.7892781472-10.9951389079,24.4276416545-24.7045419654,24.4276416545-13.7070908838,0-24.611774756-10.6424973936-24.611774756-24.4276416545,0-13.7888402355,10.9069960458-24.431337629,24.611774756-24.431337629ZM295.195147456,222.7042820989c7.5476004153,0,14.0703123443,3.425047349,17.7006351705,9.8081705522l-10.2453115035,5.5501451298c-1.4019129228-2.9580583378-4.0095893704-4.71947923-7.4553236669-4.71947923-2.9823887105,0-5.4031994878,1.2967265382-5.4031994878,3.7946798364-.0023121736,6.855612385,24.0341342225,2.6003720809,24.0341342225,19.623680504,0,9.991830709-8.756657036,14.8017824913-18.7268899412,14.8017824913-9.3168336518,0-16.2082672119-3.8851523886-19.5699574996-11.0066297103l10.43953409-5.8307063823c1.307744396,3.7928581238,4.474756669,6.0005985961,9.1322451222,6.0005985961,3.819045242,0,6.428123007-1.2948873092,6.428123007-3.9769912253,0-6.7513718897-24.0364463962-3.0503526026-24.0364463962-19.3334676782,0-9.4371367474,8.1050794952-14.7117828836,17.702456883-14.7117828836ZM395.1580514713,222.7052104716c6.803290698,0,11.8373131265,2.592086792,15.1930127825,6.7555057759v-5.4564845805l12.0264909705-.0059731153v46.2687317206h-12.0264909705v-5.4583238096c-3.355699656,4.165258213-8.3897220845,6.7536840634-15.1930127825,6.7536840634-12.3956680298,0-22.6464797039-10.6406581645-22.6464797039-24.427659171,0-13.7846888328,10.2508116742-24.4294808835,22.6464797039-24.4294808835ZM260.0818303167,210.9693877551v12.9324426456h10.4836230375v11.4589399221h-10.4960071797v19.2131645825c0,4.9862725394,3.6266268516,5.0781113761,10.5019978115,4.7098451731v10.8105503783c-16.8217464369,1.8454649011-22.4940514078-3.0503526026-22.4940514078-15.5263686667v-19.2071914673h-8.0871426329v-11.4589399221h8.1013835206v-9.3296907386l11.9901968508-3.602751907ZM183.7866335499,224.0712671864v46.1268483376h-12.122446177v-46.1268483376h12.122446177ZM218.2387215751,222.7056658998c9.8825454712-.0022946572,17.6184128742,6.8353983821,17.6184128742,19.125004204v28.3665170475h-12.0241787969v-26.8893358659c0-6.2829990776-3.8208669546-9.5175022982-9.226378616-9.5175022982-5.8725006726,0-10.2554009885,3.4204755511-10.2554009885,11.4589399221v24.9478982419h-12.0241787969v-46.200750312h12.0241787969v5.1763612397c2.7959609518-4.1574458687,7.6440285663-6.4671321791,13.8875455273-6.4671321791ZM86.6215297154,234.1351956737c-7.3630118857,0-12.8626482827,5.2939317664-12.8626482827,13.0963792606,0,7.801992066,5.4978059263,13.0963792606,12.8626482827,13.0963792606,7.4571453795,0,12.9567905348-5.2943871946,12.9567905348-13.0963792606,0-7.8024474942-5.4973504981-13.0963792606-12.9567905348-13.0963792606ZM343.3965760834,234.1351956737c-7.3630118857,0-12.862657041,5.2939317664-12.862657041,13.0963792606,0,7.801992066,5.4978234427,13.0963792606,12.862657041,13.0963792606,7.4571453795,0,12.9567905348-5.2943871946,12.9567905348-13.0963792606,0-7.8024474942-5.4955112691-13.0963792606-12.9567905348-13.0963792606ZM397.394273719,234.0842402711c-7.3630118857,0-12.862657041,5.2741731916-12.862657041,13.048611855,0,7.7739832353,5.4978234427,13.0481739433,12.862657041,13.0481739433,7.4631360112,0,12.9567905348-5.2741907081,12.9567905348-13.0481739433,0-7.7744386634-5.4936545236-13.048611855-12.9567905348-13.048611855ZM140.347389299,234.3634177227c-7.0861115748,0-12.5857567301,5.2764853653-12.5857567301,12.7722020052,0,7.4961720681,5.4978059263,12.7680506025,12.5857567301,12.7680506025,7.178423356,0,12.6780685113-5.2718785344,12.6780685113-12.7680506025,0-7.4957166399-5.4973504981-12.7722020052-12.6780685113-12.7722020052Z"/><path class="cls-3" d="M52.5510204082,247.7040816326c0-8.2083741013-5.865612322-13.7755102041-13.8246438941-13.7755102041-7.8584695349,0-13.7263765141,5.5671361028-13.7263765141,13.7755102041s5.865612322,13.7755102041,13.7263765141,13.7755102041c7.9590315721,0,13.8246438941-5.5671361028,13.8246438941-13.7755102041Z"/><rect class="cls-1" width="500" height="500"/></svg>