<?xml version="1.0" encoding="UTF-8"?><svg id="Layer_1" xmlns="http://www.w3.org/2000/svg" viewBox="0 0 500 500"><defs><style>.cls-1{fill:none;}.cls-1,.cls-2,.cls-3,.cls-4,.cls-5,.cls-6{stroke-width:0px;}.cls-2{fill:#fcd205;}.cls-3{fill:#231f20;}.cls-3,.cls-4,.cls-5,.cls-6{fill-rule:evenodd;}.cls-4{fill:#fff;}.cls-5{fill:#000;}.cls-6{fill:#ed1c24;}</style></defs><path id="path22" class="cls-2" d="M25,351.9497662801h450v-203.8995325601H25v203.8995325601Z"/><path class="cls-4" d="M398.7075742585,245.6518158781l4.3978778414-20.6737282479H44.2097844902l-4.4014499527,20.6737282479h358.899239721Z"/><path class="cls-3" d="M386.5947534703,203.2837829164c3.2295632801,0,5.4300519607,2.1821981083,5.4300519607,5.7988096528,0,.6125127768-.0696540415,1.1585136075-.1361745027,1.772363265h-13.9530158496c1.443797147-4.5693136382,4.5340523441-7.5711729178,8.6591383916-7.5711729178ZM393.5351230391,230.4393732124l1.7888656529-8.1202817834c-3.0237347359,1.0214450126-5.9809490107,1.8393265147-9.7582757606,1.8393265147-4.4005686332,0-8.2475153639-1.4987029244-8.4533439081-6.7537342043h22.6791515516c.8232460554-2.6621297816,1.3044890639-5.3206746791,1.3044890639-7.7760988546,0-7.5068834296-4.3978778414-13.6489989494-13.8141846158-13.6489989494-12.2337701776,0-19.6554168156,9.9654241552-19.6554168156,20.9496280766,0,9.4136330129,6.3229520576,14.9423416636,16.1508818596,14.9423416636,3.9858120252,0,7.1457212638-.6165319342,9.757832972-1.4321824633ZM356.2189836049,223.545905167c-4.4674978223,0-7.4912325582-1.9098661333-7.4912325582-7.4359010225,0-6.4814192596,4.1223952557-11.8730678306,10.6538325886-11.8730678306,2.0612146582,0,4.3978778414.6138496575,6.7345410246,1.5027135667l1.6495916305-7.7787641009c-2.6817657498-.9540474896-5.8443317195-1.6375426734-9.0042409581-1.6375426734-10.7904498798,0-20.0005193822,7.9818933381-20.0005193822,20.2656901042,0,10.0966854082,6.2559547472,14.8704566492,15.2575389742,14.8704566492,3.0237347359,0,5.5661924027-.5446469197,7.4243033692-1.2937769876l1.7857320725-7.9850269185c-2.0611805975.7513610409-4.3308805311,1.3652192136-7.0095467611,1.3652192136ZM308.7302886513,230.8465342942l3.7800175417-17.2624939439c1.5107603967-6.9586516259,4.94921768-9.3471040365,8.5216355234-9.3471040365,4.6054775397,0,5.1554890127,3.4134737922,4.2603749731,7.3010719158l-4.123757682,19.3085260646h9.8288153791l4.3282237999-19.7862182498c2.1308686997-9.8926535636-2.4728036252-15.0807301089-9.6881789305-15.0807301089-3.9880600285,0-7.8350067592,1.5705709086-11.1351096578,5.0505736771l.8924573084-4.0233213226h-9.1390870952l-7.3537637506,33.8396960043h9.8283725906ZM273.4066294715,221.0900296878c0-3.4094546348,3.0228491589-5.3228971369,8.0381445115-5.3228971369.9652108696,0,3.0920604119.0705396186,5.0189057822.3428715936l-.4134282425,1.9107517103c-1.1705625646,4.0224272304-4.4657266681,6.7550966305-8.3814418633,6.7550966305-2.8201541951,0-4.2621801879-1.3647764251-4.2621801879-3.6858227975ZM282.8912619218,196.1849461456c-4.5367431359,0-9.1417438264,1.0250213815-10.6529470116,1.5022707781l-1.649148842,7.8470727465c2.1955839461-.6129640804,6.5264985378-1.7750455417,10.3770216374-1.7750455417,5.152389493,0,7.0086611841,1.5692340278,7.0086611841,4.2313552942,0,.4759040007,0,1.0236845008-.136140442,1.5670030549l-.139308083.683503699c-2.4732804744-.272331975-4.8081384429-.4754612122-5.9117377577-.4754612122-9.7560618179,0-17.5888376041,3.7500952554-17.5888376041,12.6217380797,0,5.7983668643,4.5340353137,9.2788209364,10.4431163403,9.2788209364,4.1934117235,0,7.7680435095-1.6375511886,10.1029355386-4.3666271895l-.7567255942,3.546957503h8.7279068561l4.2621461273-19.3754893143c.3428886239-1.4353075285.4790290659-2.9344532414.4790290659-4.3666271895,0-5.8014834143-3.2277580654-10.9194716447-14.5659714149-10.9194716447ZM235.2641614925,230.8465342942l3.7786551154-17.2624939439c1.5134341581-6.9586516259,4.9465609488-9.3471040365,8.5243263152-9.3471040365,4.6050347512,0,5.1537008283,3.4134737922,4.2621631576,7.3010719158l-4.1259886549,19.3085260646h9.8270271947l4.3273382228-19.7862182498c2.1317542768-9.8926535636-2.4710495014-15.0807301089-9.685505169-15.0807301089-3.991619367,0-7.8399285239,1.5705709086-11.1373406308,5.0505736771l.8928830666-4.0233213226h-9.1395128534l-7.3537637506,33.8396960043h9.8297179865ZM217.671304731,187.6574947653c-.2093878827,3.069273833,2.0607718697,5.4581775474,5.0840638171,5.4581775474,3.367049118,0,5.7729065239-2.3889037144,5.9764870648-5.4581775474.2080424868-3.069273833-2.0594264737-5.4581690322-5.0840638171-5.4581690322-3.3661465107,0-5.7720209469,2.3888951992-5.9764870648,5.4581690322ZM216.2940450755,197.0068382899l-7.3528781735,33.8396960043h9.7600809753l7.3537467203-33.8396960043h-9.7609495221ZM188.5272703684,230.8465342942l3.8483091569-17.6709833912h14.8476871006l1.7888826832-8.6649457334h-14.7789356665l2.2701427221-10.8493833299h15.6003935375l1.9237117899-8.6658483408h-25.7707351142l-9.760063945,45.8511607954h10.0306077356ZM178.838631619,204.4427393125l1.5817257734-7.4359010225h-10.51319614l2.0594264737-9.4163067744-10.2413410142,2.2500554502-6.3912266425,28.9279705914c-1.7839779487,8.1903786135,2.7487289994,12.6909323024,10.9953587863,12.6909323024,1.721476645,0,4.6050347512-.3392952247,6.6698087479-1.0201166471l1.649148842-7.4394603611c-1.649148842.4111632088-3.7139228387.8192098677-5.4979007874.8192098677-2.8210568024,0-4.8130602076-.9540389744-4.123757682-4.3675127666l3.2308746154-15.00887064h10.5810790274ZM141.5894724648,220.8851207813c0,2.7308812157-3.3657037221,3.2067767013-6.1831841557,3.2067767013-3.5755343934,0-7.5595752645-.9531533974-9.6877531723-1.6379939771l-1.6527166957,7.6417125364c3.093831566.7509182524,7.0108836419,1.3638738177,10.7208043535,1.3638738177,8.7953128943,0,15.9459388925-3.2737399509,15.9459388925-11.4610020144,0-10.5757059589-12.7829131039-8.7328030754-12.7829131039-13.4396195818,0-2.1161289508,2.0616574467-2.8674814766,5.2894155121-2.8674814766,3.091600593,0,7.4260915536,1.2299388031,8.8671979088,1.6370913697l1.649148842-7.7077816939c-2.9540977248-.8196611714-6.459995107-1.2973533565-9.6225610767-1.2973533565-9.5506930926,0-15.3227140395,4.2313552942-15.3227140395,11.259209658,0,10.2998146454,12.779336735,8.595760026,12.779336735,13.3025680172ZM104.616664443,231.8715556757c10.7909011835,0,18.0750108926-7.7796581932,19.7241597346-17.9450950355,1.7192371568-10.1672165116-3.9840238407-17.9468747048-14.776261905-17.9468747048-10.7886702106,0-18.0741168004,7.7796581932-19.7232656424,17.9468747048-1.7179002761,10.1654368423,3.9867061174,17.9450950355,14.7753678128,17.9450950355ZM105.5126725748,224.0249342329c-3.9193000792,0-7.010892157-3.0710620175-5.5697858019-10.0984735926,1.4424517511-7.0269602715,4.8804832762-10.096676893,8.7975438672-10.096676893,3.9179546833,0,7.010892157,3.1362370827,5.4979093026,10.096676893-1.4437886318,6.9586601411-4.8099436576,10.0984735926-8.7256673679,10.0984735926ZM64.0692161201,216.8586743935h4.3309145917c13.8137418272,0,21.5121483255-6.7523973235,21.5121483255-18.0116069815,0-8.3926222736-5.9840825911-13.8516939132-16.2227328135-13.8516939132h-12.779336735l-9.7600682026,45.8511607954h9.8962341901l3.0228406437-13.9878599007ZM65.7871163962,208.4665034236l3.2299890383-15.0776135589h4.1242175008c4.5362748019,0,6.7332041439,1.8429028836,6.7332041439,6.1412299427,0,5.5264776778-3.5032151055,8.9363836162-9.9609707244,8.9363836162h-4.1264399586Z"/><path class="cls-5" d="M224.7071974095,291.3270704156h-21.2241995398l-1.7960183906,8.410035784h19.4830698963l-1.49691474,6.8778512347h-19.4826271077l-2.1768505853,10.1833016564h22.2036988545l-1.5237034459,7.1198181349h-30.394077468l8.5167307889-39.6036701211h29.4145951836l-1.5237034459,7.0126633111ZM226.3398268333,304.9492891742h15.6191439286l-1.5786092234,7.2542044531h-15.6187011401l1.5781664349-7.2542044531ZM252.2717369718,284.3684102745h28.4346360499l-1.4964549211,6.9586601411h-20.108559783l-1.9589645689,9.1082792319h17.6048972034l-1.469240457,6.8782940232h-17.6053399919l-3.5643795286,16.6044335549h-8.3265531161l8.4899591133-39.5496669511ZM292.216490502,291.1391237158h-7.8635836495l1.5237034459-7.066240723h7.8635836495l-1.5237034459,7.066240723ZM283.5908337353,294.6320780487h7.8640264381l-6.2858600032,29.2859991768h-7.8636177102l6.2854512753-29.2859991768ZM323.8079192405,304.1970425562l-4.2447751927,19.7210346694h-7.9452611026l3.8094459484-17.8133995091c.344659778-1.5406656526.3897560865-2.7228258705.1357317141-3.5465147145-.4352951836-1.5049530548-1.7232648294-2.2571996728-3.863942998-2.2571996728-2.629959492,0-4.6711124238,1.1018111304-6.1220282479,3.3049906028-.7620731172,1.1643124342-1.3335087429,2.6509578864-1.7143409375,4.4599363566l-3.4013992896,15.8521869369h-7.727885996l6.2858600032-29.2324387953h7.4827855155l-.9250192955,4.2719896568c1.3241420625-1.5045102663,2.5031857304-2.5880137941,3.5371310038-3.2509704024,1.8505154402-1.1821772483,4.0001175007-1.7732658724,6.4488402421-1.7732658724,3.0656974641,0,5.4014750703.792438192,7.0068559693,2.3777403344,1.6054149597,1.5853021423,2.0179235644,4.213950299,1.2380026634,7.8859104095ZM346.1205100123,309.6779811369c-.5441871008.3044682039-1.0884082623.5509140804-1.6326294238.7388607802-.5441871008.1884065186-1.2696450129.3629503503-2.1768165246.5241253745l-1.7960524513.322333018c-1.7049401965.2866033899-2.9567714863.6357251138-3.7549829595,1.04779093-1.3419898462.6986692061-2.1674839049,1.7821897643-2.4759712662,3.2509704024-.2901627284,1.3076226443-.1316784961,2.2527377268.4763723347,2.8348854288.6076080423.5821647323,1.4375299863.8732470984,2.4897658319.8732470984,1.6688018405,0,3.3103551561-.4839508307,4.9246940077-1.4509328544,1.6147816401-.9674418426,2.7304384272-2.7317667928,3.3469703613-5.2929918809l.5986500898-2.8482882969ZM342.1748895612,306.1046777165c1.4875310293-.1790228079,2.5670153997-.403124894,3.2380443835-.6718805001,1.1973342402-.4656432281,1.9049443685-1.1911011401,2.1227963242-2.1764077968.2535815839-1.200025032.0089238919-2.0281758219-.7348245924-2.4848781278-.743782545-.4571621248-1.9321928933-.6852833683-3.5648223171-.6852833683-1.8321908073,0-3.2286436424.447778414-4.1902781431,1.3433352421-.6709949231.6629566083-1.224582765,1.5585134364-1.6598779486,2.6866704842h-7.4827855155c.7254919727-2.5612250882,1.9045356406-4.6657308401,3.5371650644-6.313994105,2.6125544968-2.5790899023,6.4126337648-3.8688477325,11.4016002303-3.8688477325,3.2469682753,0,5.9952544862.6357251138,8.2444158442,1.9076351603,2.2496041465,1.2719100465,2.9933866915,3.6719771408,2.2313135742,7.2006270413l-2.9112323892,13.4342720588c-.1995613835.9312694259-.4174133392,2.0598692623-.6531471394,3.3853567206-.1633889668,1.0026946215-.1589270209,1.6835160438.0133858378,2.0420044482.1723469193.3580456158.4852962266.6535899279.9388819825.8866329362l-.2174432279,1.1281570479h-8.4354620637c-.1089259779-.5910886241-.1540222864-1.1464646505-.1361745027-1.6656682601.0183246329-.5196634285.0727876219-1.1107350223.1633889668-1.7732658724-1.3241420625,1.1464646505-2.7665767832,2.1223875963-4.3264185851,2.9286544147-1.8866537962.94913424-3.882267631,1.4241441485-5.9863305944,1.4241441485-2.6848993301,0-4.7394040391-.7571683828-6.163105399-2.2706025409-1.4241441485-1.5134171278-1.8366527532-3.6585742727-1.2384113913-6.4349775551.7803636895-3.6000921264,2.7482862109-6.2064135231,5.9050618692-7.8185043713,1.7232648294-.877692014,4.1268912623-1.504493236,7.2104365102-1.8808464544l2.693823222-.322333018ZM388.8412580971,304.1970425562l-4.2447751927,19.7210346694h-7.9457379518l3.8094800091-17.8133995091c.344659778-1.5406656526.3901988751-2.7228258705.1361745027-3.5465147145-.4352951836-1.5049530548-1.7232648294-2.2571996728-3.863942998-2.2571996728-2.6304363412,0-4.6711124238,1.1018111304-6.1224710364,3.3049906028-.7616303287,1.1643124342-1.3330659543,2.6509578864-1.7143409375,4.4599363566l-3.4009565011,15.8521869369h-7.7278859961l6.2854172147-29.2324387953h7.483228304l-.925462084,4.2719896568c1.3241420625-1.5045102663,2.5036285189-2.5880137941,3.5375737923-3.2509704024,1.8500726517-1.1821772483,3.9996747122-1.7732658724,6.4488402421-1.7732658724,3.0656974641,0,5.4010322818.792438192,7.0068559693,2.3777403344,1.6054149597,1.5853021423,2.0179235644,4.213950299,1.2380026634,7.8859104095ZM413.4936456324,305.1372529043c.0910781941-1.0924444501-.0723107727-2.0777340763-.4897241119-2.9554431207-.6165319342-1.1821602179-1.8411146991-1.7732488421-3.6733055064-1.7732488421-2.6121457689,0-4.6711124238,1.2808339384-6.176968086,3.8420590266-.7977686847,1.3616428447-1.4419919322,3.1706042846-1.9317160441,5.4273611688-.4535857559,2.1496190908-.5714696863,3.8782314432-.3535836699,5.1858540875.3990887063,2.4357626618,1.8772530552,3.6536525079,4.4349358351,3.6536525079,1.8143089629,0,3.2062998521-.4834910118,4.1768582447-1.4504730355.9705924532-.9674418425,1.7009550997-2.221487075,2.1907132723-3.7617099391h7.9180466385c-.6709949231,2.3286418987-1.9951369856,4.5318213711-3.9724261874,6.6095384171-3.1567756583,3.3496441228-7.1202779538,5.0242362748-11.8913584029,5.0242362748-4.7706717213,0-7.977005634-1.396912654-9.6185589497-4.1911637202-1.6419961042-2.7942680965-1.9821939363-6.4215917173-1.0205594356-10.881528074,1.07011769-5.0336199855,3.1518709238-8.9471042077,6.2447828521-11.7413723042,3.0929459889-2.794710885,6.8251764302-4.191623539,11.1971681731-4.191623539,3.7188446035,0,6.5849806841.8241316325,8.5984423026,2.4719350785,2.0134275578,1.647803446,2.7844245669,4.5585930467,2.3129910273,8.7319260135h-7.9457379518ZM432.1878707359,306.3466446167h12.0538958533c.3080105122-2.0241566645.0133858378-3.5603433408-.883976205-4.6081513012-.8973279822-1.04779093-2.1741597935-1.5719163045-3.8215034207-1.5719163045-1.799151971,0-3.3081412135.5553760263-4.5313615522,1.666128079-1.2277163453,1.1102922338-2.1652359016,2.6152452886-2.8170546754,4.5139395267ZM451.2329887173,299.5487167113c.799131111,1.7375362443,1.1160995756,3.7527690169.9554014007,6.0452384989-.0759212022,1.3437780306-.4018135588,3.2782018969-.9821730763,5.8037143873h-20.2996400631c-.5240913138,2.9375783066-.0356955675,4.9974475689,1.4732596144,6.1796248171.9062859347.7343988342,2.1116584897,1.1018111305,3.6161857863,1.1018111305,1.5982281612,0,2.9956006341-.447778414,4.1920492972-1.3437780306.6339369294-.4835080422,1.2589499669-1.1549457538,1.8750391125-2.0147899841h7.9198518532c-.5803595175,1.7375362443-1.8795010585,3.5018782248-3.8929626769,5.2929918809-3.1563328697,2.8478455084-7.0180278645,4.2719896568-11.5895809908,4.2719896568-3.7733075924,0-6.8434670025-1.2000420623-9.2109210187-3.6005519452-2.3670452884-2.400050064-2.9701913847-6.3050702132-1.8094382891-11.7141237794,1.088442323-5.0693325834,3.224624485-8.9560280996,6.4082058795-11.6610061864,3.1835473339-2.7045352983,6.8533105321-4.0572542511,11.0052023159-4.0572542511,2.4687844678,0,4.593862856.4571621248,6.3840568744,1.3705667366,1.7857661332.9134216421,3.1027895185,2.3554306047,3.9554639807,4.3255670687Z"/><path class="cls-6" d="M441.9336462357,196.8014780798s4.8126344494-21.902781474,4.8795976991-22.1081501993h-30.5806787719c0,.1383969605-6.3229179969,29.0659162481-6.3229179969,29.2034191164h7.8363351247c.0665204612,0,4.8095008691-21.8349241321,4.8095008691-21.8349241321h14.8423395776s-4.6742119435,21.9018873817-4.8081384429,22.0402843422h22.6076922953l-2.9509471141,13.5079282274h-22.478704591c0,.1375028683-4.5336095555,20.6058794211-4.5336095555,20.6058794211h-16.9740597937c0,.0669632497-1.5134511885,7.3675923769-1.5799716496,7.4359010225h25.0122383659c0-.0683086456,4.4688602485-20.6737282479,4.4688602485-20.6737282479h22.4737998566c0-.0683086456,5.9108521807-28.0417889588,5.9108521807-28.1766095504h-22.6121883019Z"/><rect class="cls-1" width="500" height="500"/></svg>