<?xml version="1.0" encoding="UTF-8"?>
<svg width="140px" height="80px" viewBox="0 0 140 80" version="1.1" xmlns="http://www.w3.org/2000/svg" xmlns:xlink="http://www.w3.org/1999/xlink">
    <!-- Generator: Sketch 52.5 (67469) - http://www.bohemiancoding.com/sketch -->
    <title>im/logo-pay/postfinance</title>
    <desc>Created with Sketch.</desc>
    <g id="im/logo-pay/postfinance" stroke="none" stroke-width="1" fill="none" fill-rule="evenodd">
        <g id="card_efinance" transform="translate(25.000000, 10.000000)">
            <rect id="Rectangle-11" fill="#FCD202" x="0" y="0" width="90" height="60" rx="4"></rect>
            <polyline id="path24" fill="#FFFFFF" transform="translate(40.141673, 26.698162) scale(1, -1) translate(-40.141673, -26.698162) " points="69.9190678 24.9616109 70.6578814 28.434713 10.364939 28.434713 9.62546441 24.9616109 69.9190678 24.9616109"></polyline>
            <path d="M77.1811017,24.7206409 C77.1811017,24.7206409 77.9895763,28.4001842 78.0007627,28.434713 L72.8631356,28.434713 C72.8631356,28.4114414 71.8009322,23.5517082 71.8009322,23.5286385 L73.1173729,23.5286385 C73.1285593,23.5286385 73.925339,27.1967731 73.925339,27.1967731 L76.4188983,27.1967731 C76.4188983,27.1967731 75.6338136,23.5173813 75.6109322,23.4941097 L79.4092373,23.4941097 L78.9129661,21.2248477 L75.1370339,21.2248477 C75.1370339,21.2017779 74.375339,17.7631794 74.375339,17.7631794 L71.5238136,17.7631794 C71.5238136,17.7519222 71.2695763,16.525396 71.2583898,16.513957 L75.4604237,16.513957 C75.4604237,16.525396 76.2114407,19.9870592 76.2114407,19.9870592 L79.9868644,19.9870592 C79.9868644,19.9985183 80.9799153,24.6979751 80.9799153,24.7206409 L77.1811017,24.7206409" id="path26" fill="#ED1C24" transform="translate(76.119153, 22.474335) scale(1, -1) translate(-76.119153, -22.474335) "></path>
            <path d="M67.8841525,22.5775556 C68.4266949,22.5775556 68.7963559,22.2109642 68.7963559,21.6034282 C68.7963559,21.5004979 68.784661,21.4087743 68.7734746,21.3056421 L66.4294068,21.3056421 C66.6719492,22.0733032 67.1911017,22.5775556 67.8841525,22.5775556 L67.8841525,22.5775556 Z M69.0500847,18.015558 L69.3505932,19.3796998 C68.8426271,19.2081157 68.3458475,19.070707 67.7112712,19.070707 C66.9719492,19.070707 66.325678,19.3225051 66.2911017,20.2053128 L70.1011017,20.2053128 C70.2394068,20.6525724 70.3202542,21.0991758 70.3202542,21.5117046 C70.3202542,22.7727647 69.5814407,23.8046421 67.9995763,23.8046421 C65.944322,23.8046421 64.6975424,22.1304979 64.6975424,20.2851734 C64.6975424,18.7037118 65.7597458,17.7749666 67.4107627,17.7749666 C68.0804237,17.7749666 68.6112712,17.8785027 69.0500847,18.015558 L69.0500847,18.015558 L69.0500847,18.015558 Z M62.7811017,19.1736373 C62.0305932,19.1736373 61.5226271,19.4944426 61.5226271,20.4228344 C61.5226271,21.5117046 62.2151695,22.4174306 63.3124576,22.4174306 C63.6587288,22.4174306 64.0512712,22.3142984 64.4438136,22.1650267 L64.7209322,23.4717719 C64.2704237,23.6320989 63.7390678,23.7468921 63.2082203,23.7468921 C61.3955085,23.7468921 59.8482203,22.4059715 59.8482203,20.3423681 C59.8482203,18.6461638 60.8992373,17.8441758 62.4114407,17.8441758 C62.9194068,17.8441758 63.3465254,17.9356469 63.6587288,18.0614955 L63.9587288,19.4029715 C63.6124576,19.2767695 63.2311017,19.1736373 62.7811017,19.1736373 L62.7811017,19.1736373 L62.7811017,19.1736373 Z M54.8032373,17.9471061 L55.4382203,20.8471758 C55.6920508,22.016159 56.269678,22.4174306 56.8698814,22.4174306 C57.6435254,22.4174306 57.7359153,21.8439691 57.5855593,21.1908993 L56.8927627,17.9471061 L58.5439831,17.9471061 L59.2711017,21.2711638 C59.6290678,22.9330916 58.855678,23.8046421 57.6435254,23.8046421 C56.9735593,23.8046421 56.3272881,23.5408296 55.7728983,22.9561614 L55.9228475,23.6320989 L54.3875085,23.6320989 L53.1520678,17.9471061 L54.8032373,17.9471061 L54.8032373,17.9471061 Z M48.8689831,19.5861662 C48.8689831,20.1589715 49.3768475,20.480433 50.2193898,20.480433 C50.3814915,20.480433 50.7387966,20.46857 51.0625424,20.4228344 L50.9930339,20.1018272 C50.7964068,19.4260412 50.2428305,18.9669691 49.5850169,18.9669691 C49.1112712,18.9669691 48.8689831,19.1963032 48.8689831,19.5861662 L48.8689831,19.5861662 L48.8689831,19.5861662 Z M50.462339,23.7701638 C49.7001864,23.7701638 48.9265932,23.5979739 48.6727119,23.5177599 L48.3956441,22.1995051 C48.7644915,22.3024354 49.4920678,22.497695 50.1389492,22.497695 C51.0045763,22.497695 51.3164237,22.234034 51.3164237,21.7868248 C51.3164237,21.7069138 51.3164237,21.6148368 51.2935424,21.5235676 L51.2701525,21.4087743 C50.8546271,21.4545099 50.462339,21.4886349 50.277,21.4886349 C48.6379831,21.4886349 47.3221017,20.8586349 47.3221017,19.3682407 C47.3221017,18.3941638 48.0837966,17.809445 49.0765424,17.809445 C49.7810339,17.809445 50.3814915,18.0845652 50.7737797,18.5430316 L50.646661,17.9471061 L52.1128983,17.9471061 L52.8289322,21.2021061 C52.8865424,21.4433032 52.9093729,21.6951013 52.9093729,21.9356926 C52.9093729,22.9103753 52.3671356,23.7701638 50.462339,23.7701638 L50.462339,23.7701638 L50.462339,23.7701638 Z M42.4611864,17.9471061 L43.0960169,20.8471758 C43.3502542,22.016159 43.9270169,22.4174306 44.5280847,22.4174306 C45.3017288,22.4174306 45.3938644,21.8439691 45.2441186,21.1908993 L44.5509153,17.9471061 L46.2018814,17.9471061 L46.9288475,21.2711638 C47.2869661,22.9330916 46.5137288,23.8046421 45.3017288,23.8046421 C44.6311525,23.8046421 43.9846271,23.5408296 43.4306949,22.9561614 L43.5806441,23.6320989 L42.0453051,23.6320989 L40.8098644,17.9471061 L42.4611864,17.9471061 L42.4611864,17.9471061 Z M39.505678,25.202707 C39.4705424,24.6870965 39.8518983,24.2857743 40.3597627,24.2857743 C40.9254407,24.2857743 41.3296271,24.6870965 41.3637966,25.202707 C41.3987797,25.7183681 41.0178305,26.1196902 40.5097119,26.1196902 C39.9442373,26.1196902 39.5400508,25.7183681 39.505678,25.202707 L39.505678,25.202707 L39.505678,25.202707 Z M39.274322,23.6320989 L38.0390847,17.9471061 L39.6787119,17.9471061 L40.9141525,23.6320989 L39.274322,23.6320989 L39.274322,23.6320989 Z M34.6096271,17.9471061 L35.2561525,20.9158296 L37.7504746,20.9158296 L38.0509831,22.3714931 L35.5682034,22.3714931 L35.9495593,24.1941013 L38.5703898,24.1941013 L38.8935254,25.6499666 L34.5641695,25.6499666 L32.9245424,17.9471061 L34.6096271,17.9471061 L34.6096271,17.9471061 Z M32.9819492,22.3829017 L33.247678,23.6320989 L31.4815424,23.6320989 L31.8275085,25.2139642 L30.1070339,24.8359642 L29.0332881,19.9761806 C28.7335932,18.6002263 29.4950847,17.8441758 30.8804746,17.8441758 C31.1696949,17.8441758 31.6541186,17.9011686 32.0009492,18.015558 L32.2780169,19.2653104 C32.0009492,19.1963032 31.6541186,19.1276998 31.3544237,19.1276998 C30.8804746,19.1276998 30.5457966,19.2880267 30.6616271,19.8614378 L31.2044237,22.3829017 L32.9819492,22.3829017 L32.9819492,22.3829017 Z M26.7243051,19.6206445 C26.7243051,19.1618248 26.1588305,19.0819138 25.6854915,19.0819138 C25.0848814,19.0819138 24.4155254,19.2420388 24.0580169,19.357034 L23.780339,18.073308 C24.3001017,17.9471061 24.9581695,17.8441758 25.5814576,17.8441758 C27.0589831,17.8441758 28.2602542,18.3941638 28.2602542,19.7695628 C28.2602542,21.5462335 26.1127627,21.2366349 26.1127627,22.0273657 C26.1127627,22.3829017 26.4591356,22.5091037 27.0013729,22.5091037 C27.5207797,22.5091037 28.2489661,22.3024354 28.4910508,22.234034 L28.7681186,23.5289666 C28.2717966,23.6666277 27.6828814,23.7468921 27.1515254,23.7468921 C25.5470847,23.7468921 24.5773729,23.0360219 24.5773729,21.8554282 C24.5773729,20.1250989 26.7243051,20.4113753 26.7243051,19.6206445 L26.7243051,19.6206445 L26.7243051,19.6206445 Z M20.5129831,17.7749666 C22.3257966,17.7749666 23.5495424,19.0819138 23.8266102,20.7896277 C24.1154237,22.497695 23.1572542,23.8046421 21.3442373,23.8046421 C19.5317797,23.8046421 18.3078814,22.497695 18.0307627,20.7896277 C17.7422034,19.0819138 18.7005254,17.7749666 20.5129831,17.7749666 L20.5129831,17.7749666 L20.5129831,17.7749666 Z M20.6635424,19.093171 C20.0051186,19.093171 19.4857119,19.609034 19.7277966,20.7896277 C19.9701356,21.970171 20.5477119,22.485832 21.2057797,22.485832 C21.864,22.485832 22.3836102,21.9589642 22.1293729,20.7896277 C21.8868305,19.6206445 21.3213559,19.093171 20.6635424,19.093171 L20.6635424,19.093171 L20.6635424,19.093171 Z M13.7012034,20.2970364 L14.4287797,20.2970364 C16.7494576,20.2970364 18.0427119,21.4314402 18.0427119,23.3229041 C18.0427119,24.732832 17.0374576,25.6499666 15.3173898,25.6499666 L13.1705085,25.6499666 L11.5308508,17.9471061 L13.193339,17.9471061 L13.7012034,20.2970364 L13.7012034,20.2970364 Z M13.9898136,21.7069138 L14.5324576,24.2398368 L15.2252542,24.2398368 C15.9873559,24.2398368 16.3564068,23.9302383 16.3564068,23.2081614 C16.3564068,22.2797695 15.7678983,21.7069138 14.6830169,21.7069138 L13.9898136,21.7069138 L13.9898136,21.7069138 Z" id="path28" fill="#231F20" transform="translate(40.925553, 21.947328) scale(1, -1) translate(-40.925553, -21.947328) "></path>
            <path d="M40.6878439,36.1080177 L37.1222678,36.1080177 L36.8205652,37.5208155 L40.0935812,37.5208155 L39.8421624,38.6763306 L36.5691463,38.6763306 L36.2034462,40.3870346 L39.9335874,40.3870346 L39.6775973,41.5831732 L34.5715094,41.5831732 L36.0023111,34.929934 L40.943834,34.929934 L40.6878439,36.1080177 Z M40.962119,38.3964793 L43.5860173,38.3964793 L43.3208847,39.6151866 L40.6969864,39.6151866 L40.962119,38.3964793 Z M45.3185216,34.9389614 L50.0954794,34.9389614 L49.8440606,36.1080177 L46.4659057,36.1080177 L46.1367756,37.6381725 L49.0943753,37.6381725 L48.8475278,38.7936876 L45.8899281,38.7936876 L45.2910941,41.5831732 L43.8922912,41.5831732 L45.3185216,34.9389614 Z M52.0291188,36.0764216 L50.7080271,36.0764216 L50.9640172,34.8893104 L52.2851089,34.8893104 L52.0291188,36.0764216 Z M50.5800321,36.6632066 L51.9011237,36.6632066 L50.8451647,41.5831732 L49.524073,41.5831732 L50.5800321,36.6632066 Z M57.3363417,38.2700948 L56.6232265,41.5831732 L55.2884211,41.5831732 L55.9283963,38.5905697 C55.9862991,38.3317812 55.9939178,38.133179 55.9512525,37.9947572 C55.8781121,37.741987 55.6617417,37.6156038 55.3021348,37.6156038 C54.860245,37.6156038 54.5174045,37.8006649 54.2736032,38.1707927 C54.1456076,38.3663887 54.0496122,38.616146 53.9856144,38.920072 L53.414208,41.5831732 L52.1159726,41.5831732 L53.1719316,36.6722341 L54.4290258,36.6722341 L54.2736032,37.3899173 C54.4960719,37.1371471 54.6941575,36.9550951 54.8678659,36.8437559 C55.1787126,36.6451507 55.5398378,36.5458496 55.9512525,36.5458496 C56.4662828,36.5458496 56.8586446,36.6790033 57.1283498,36.9453148 C57.398055,37.2116262 57.4673849,37.6532152 57.3363417,38.2700948 L57.3363417,38.2700948 Z M61.0847679,39.1908959 C60.9933424,39.2420518 60.9019183,39.2834272 60.8104928,39.3150235 C60.7190674,39.3466198 60.5971685,39.3759587 60.4447927,39.4030412 L60.1430901,39.457206 C59.8566236,39.5053527 59.6463481,39.5640306 59.5122574,39.6332415 C59.2867412,39.7505991 59.1480813,39.9326511 59.0962735,40.1794029 C59.0475133,40.3990723 59.0741787,40.5578036 59.1762704,40.6556016 C59.2783622,40.7533995 59.417784,40.8022978 59.59454,40.8022978 C59.8749114,40.8022978 60.1507075,40.7210515 60.4219365,40.5585563 C60.6931654,40.3960612 60.8805848,40.0996625 60.9842004,39.6693514 L61.0847679,39.1908959 Z M60.4219365,38.5905697 C60.6718328,38.560478 60.8531573,38.522864 60.9659154,38.4777264 C61.1670515,38.399488 61.2859028,38.2776185 61.322473,38.1121142 C61.3651382,37.9104999 61.3239974,37.7713279 61.1990492,37.6945941 C61.0741011,37.6178603 60.8744917,37.579494 60.6002153,37.579494 C60.2924161,37.579494 60.0577609,37.6547221 59.8962426,37.8051805 C59.7834845,37.9165198 59.6905366,38.066976 59.6173962,38.2565536 L58.3603021,38.2565536 C58.4822027,37.8262424 58.6802883,37.4726704 58.9545647,37.1958269 C59.3934071,36.7625065 60.0318522,36.5458496 60.8699191,36.5458496 C61.4154245,36.5458496 61.8771163,36.6526735 62.2550083,36.8663245 C62.6329003,37.0799755 62.7578466,37.4831981 62.6298509,38.0760044 L62.140727,40.3328698 C62.1072043,40.4893466 62.0706347,40.6789214 62.031017,40.9015999 C62.0035893,41.0701133 62.0043512,41.18446 62.0333026,41.2446434 C62.062254,41.3048268 62.1148229,41.3544773 62.1910108,41.3935965 L62.1544408,41.5831732 L60.7373528,41.5831732 C60.7190677,41.4838707 60.711449,41.3905878 60.7144966,41.3033219 C60.7175441,41.216056 60.7266865,41.1167549 60.7419241,41.0054157 C60.5194554,41.1980025 60.2771815,41.3619998 60.0150951,41.4974124 C59.6981534,41.6568983 59.3629316,41.7366401 59.0094198,41.7366401 C58.5583874,41.7366401 58.2132613,41.6095046 57.9740313,41.3552298 C57.7348013,41.1009551 57.6654713,40.7406125 57.7660394,40.2741913 C57.8970826,39.6693483 58.2277331,39.2315208 58.7580009,38.9606956 C59.047515,38.8132463 59.4513048,38.707927 59.9693826,38.6447345 L60.4219365,38.5905697 Z M68.2616327,38.2700948 L67.5485175,41.5831732 L66.2137121,41.5831732 L66.8536873,38.5905697 C66.9115901,38.3317812 66.9192088,38.133179 66.8765435,37.9947572 C66.8034031,37.741987 66.5870327,37.6156038 66.2274258,37.6156038 C65.785536,37.6156038 65.4426955,37.8006649 65.1988942,38.1707927 C65.0708986,38.3663887 64.9749032,38.616146 64.9109054,38.920072 L64.339499,41.5831732 L63.0412636,41.5831732 L64.0972226,36.6722341 L65.3543168,36.6722341 L65.1988942,37.3899173 C65.4213629,37.1371471 65.6194485,36.9550951 65.7931569,36.8437559 C66.1040036,36.6451507 66.4651288,36.5458496 66.8765435,36.5458496 C67.3915738,36.5458496 67.7839356,36.6790033 68.0536408,36.9453148 C68.323346,37.2116262 68.3926759,37.6532152 68.2616327,38.2700948 L68.2616327,38.2700948 Z M72.4031866,38.4280754 C72.4184241,38.2445161 72.3909969,38.0790143 72.320904,37.931565 C72.2172885,37.7329598 72.0115842,37.6336588 71.7037851,37.6336588 C71.2649427,37.6336588 70.9190548,37.8488111 70.666111,38.2791223 C70.5320203,38.5078191 70.4238351,38.8117406 70.3415521,39.1908959 C70.2653642,39.5519962 70.2455557,39.8423766 70.2821259,40.0620459 C70.3491712,40.4712929 70.5975401,40.6759133 71.0272399,40.6759133 C71.3319915,40.6759133 71.5658848,40.594667 71.728927,40.4321719 C71.8919691,40.2696768 72.0146298,40.0590381 72.0969127,39.8002496 L73.4271469,39.8002496 C73.3143888,40.1914415 73.0919234,40.5615637 72.7597442,40.9106273 C72.2294764,41.4733419 71.563604,41.754695 70.7621073,41.754695 C69.9606105,41.754695 69.4219701,41.5199834 69.1461699,41.050553 C68.8703697,40.5811226 68.8132296,39.9717751 68.974748,39.222492 C69.1545514,38.3769155 69.5042487,37.719422 70.0238502,37.2499916 C70.5434517,36.7805613 71.1704687,36.5458496 71.9049201,36.5458496 C72.529661,36.5458496 73.0111613,36.6842693 73.3494356,36.9611129 C73.6877099,37.2379564 73.8172274,37.726939 73.737992,38.4280754 L72.4031866,38.4280754 Z M75.5436363,38.6311933 L77.5687007,38.6311933 C77.6205085,38.2911572 77.5709871,38.0331248 77.420135,37.8570884 C77.269283,37.681052 77.0551982,37.5930352 76.7778742,37.5930352 C76.4761701,37.5930352 76.2224682,37.686318 76.0167608,37.8728865 C75.8110535,38.059455 75.6533469,38.3122214 75.5436363,38.6311933 L75.5436363,38.6311933 Z M78.7435123,37.4892194 C78.8776031,37.7811088 78.9309338,38.1196352 78.9035061,38.5048088 C78.8913161,38.7304965 78.8364616,39.0554818 78.7389411,39.4797747 L75.3287875,39.4797747 C75.2404095,39.9732784 75.3226912,40.3193276 75.5756351,40.5179328 C75.7280109,40.6413087 75.9306677,40.7029957 76.1836115,40.7029957 C76.4517929,40.7029957 76.6864482,40.6277676 76.8875842,40.4773092 C76.9942473,40.3960616 77.099385,40.2832195 77.2030006,40.1387794 L78.5332348,40.1387794 C78.4357143,40.4306688 78.2178201,40.7270675 77.8795458,41.0279843 C77.349278,41.5064422 76.7001668,41.7456676 75.9321927,41.7456676 C75.2983093,41.7456676 74.7825249,41.5440563 74.3848241,41.1408276 C73.9871232,40.737599 73.8857948,40.08161 74.0808358,39.172841 C74.2636868,38.3212462 74.6225265,37.6682663 75.1573656,37.2138818 C75.6922047,36.7594973 76.3085556,36.5323084 77.0064368,36.5323084 C77.420899,36.5323084 77.7782149,36.6090411 78.0783953,36.7625087 C78.3785756,36.9159763 78.6002791,37.1582108 78.7435123,37.4892194 L78.7435123,37.4892194 Z" id="E-Finance-3" fill="#000000"></path>
        </g>
    </g>
</svg>