<?xml version="1.0" encoding="UTF-8"?>
<svg width="140px" height="80px" viewBox="0 0 140 80" version="1.1" xmlns="http://www.w3.org/2000/svg" xmlns:xlink="http://www.w3.org/1999/xlink">
    <!-- Generator: Sketch 52.5 (67469) - http://www.bohemiancoding.com/sketch -->
    <title>im/logo-pay/postfinance-card</title>
    <desc>Created with Sketch.</desc>
    <g id="im/logo-pay/postfinance-card" stroke="none" stroke-width="1" fill="none" fill-rule="evenodd">
        <g id="card_postfinance_v2" transform="translate(25.000000, 10.000000)">
            <rect id="Rectangle-11" fill="#FCD202" x="0" y="0" width="90" height="60" rx="4"></rect>
            <path d="M71.4966224,0 C69.2893488,0 67.0693359,1.74755859 66.4644153,3.85835517 C66.4644153,3.85835517 59.25,39.75 20.25,60 L86.0096362,60 C88.2134533,60 90,58.2043192 90,55.9934444 L90,4.0065556 C90,1.79379604 88.2156558,0 86.0033776,0 L71.4966224,0 Z" id="Rectangle-12" fill="#FFDB28"></path>
            <rect id="Rectangle-24" fill="#D9B23D" x="6.75" y="21.75" width="17.25" height="15.75" rx="4"></rect>
            <g id="path24-+-path26-+-path28" transform="translate(6.000000, 8.250000)">
                <polyline id="path24" fill="#FFFFFF" transform="translate(19.885981, 6.939835) scale(1, -1) translate(-19.885981, -6.939835) " points="39.027097 5.80159191 39.5020115 8.07807904 0.745289972 8.07807904 0.269950586 5.80159191 39.027097 5.80159191"></polyline>
                <path d="M43.6951828,5.64364522 C43.6951828,5.64364522 44.2148758,8.05544669 44.2220665,8.07807904 L40.9195642,8.07807904 C40.9195642,8.06282537 40.2367725,4.87745404 40.2367725,4.86233272 L41.0829897,4.86233272 C41.0901804,4.86233272 41.6023559,7.26665625 41.6023559,7.26665625 L43.2052331,7.26665625 C43.2052331,7.26665625 42.7005752,4.85495404 42.6858669,4.83970037 L45.1274438,4.83970037 L44.8084372,3.35228493 L42.3812418,3.35228493 C42.3812418,3.3371636 41.891619,1.08329228 41.891619,1.08329228 L40.0586387,1.08329228 C40.0586387,1.0759136 39.8952132,0.271972059 39.8880225,0.264474265 L42.589119,0.264474265 C42.589119,0.271972059 43.0718779,2.5409614 43.0718779,2.5409614 L45.4987465,2.5409614 C45.4987465,2.54847243 46.1370865,5.6287886 46.1370865,5.64364522 L43.6951828,5.64364522" id="path26" fill="#ED1C24" transform="translate(43.012554, 4.171277) scale(1, -1) translate(-43.012554, -4.171277) "></path>
                <path d="M37.7190394,4.23893382 C38.0677894,4.23893382 38.30541,3.99864706 38.30541,3.60043015 C38.30541,3.53296324 38.2978925,3.47284191 38.2907017,3.40524265 L36.7839187,3.40524265 C36.9398266,3.90841544 37.2735415,4.23893382 37.7190394,4.23893382 L37.7190394,4.23893382 Z M38.4685087,1.24871691 L38.6616776,2.14286029 C38.3351535,2.03039338 38.0158201,1.94032721 37.60791,1.94032721 C37.1326687,1.94032721 36.7172411,2.10537132 36.6950152,2.68401838 L39.1441097,2.68401838 C39.2330131,2.97718015 39.2849824,3.26991176 39.2849824,3.54030882 C39.2849824,4.36688603 38.8100679,5.04324265 37.7932345,5.04324265 C36.4721029,5.04324265 35.6706642,3.94590441 35.6706642,2.73636397 C35.6706642,1.69977574 36.353456,1.09101838 37.4147411,1.09101838 C37.8452038,1.09101838 38.1864363,1.15888235 38.4685087,1.24871691 L38.4685087,1.24871691 L38.4685087,1.24871691 Z M34.4387629,2.00779412 C33.9563308,2.00779412 33.6298067,2.21806985 33.6298067,2.82659559 C33.6298067,3.54030882 34.0749777,4.13397794 34.7803222,4.13397794 C35.0029077,4.13397794 35.2552366,4.06637868 35.5075656,3.96853676 L35.6856994,4.82505882 C35.3961094,4.93014706 35.0545501,5.00538971 34.7133177,5.00538971 C33.548094,5.00538971 32.5534864,4.12646691 32.5534864,2.77385294 C32.5534864,1.66205515 33.2290874,1.13638235 34.2011422,1.13638235 C34.5276664,1.13638235 34.8022212,1.19633824 35.0029077,1.27882721 L35.1957498,2.15811397 C34.9731642,2.07539338 34.728026,2.00779412 34.4387629,2.00779412 L34.4387629,2.00779412 L34.4387629,2.00779412 Z M29.3105363,1.20384926 L29.7187078,3.10473529 C29.8818718,3.87095956 30.2531746,4.13397794 30.6389895,4.13397794 C31.1362932,4.13397794 31.1956821,3.75809559 31.0990322,3.33003309 L30.6536978,1.20384926 L31.7151136,1.20384926 L32.1825105,3.38264338 C32.4126136,4.47197426 31.9154733,5.04324265 31.1362932,5.04324265 C30.7056344,5.04324265 30.2902068,4.87032353 29.9338411,4.48709559 L30.0302295,4.93014706 L29.043303,4.93014706 L28.2491531,1.20384926 L29.3105363,1.20384926 L29.3105363,1.20384926 Z M25.4959565,2.27819118 C25.4959565,2.65364338 25.8224153,2.86434926 26.3640074,2.86434926 C26.4682075,2.86434926 26.6978857,2.85657353 26.9059917,2.82659559 L26.8613112,2.6161875 C26.7349179,2.17323529 26.3790752,1.87233088 25.9562281,1.87233088 C25.651701,1.87233088 25.4959565,2.02265074 25.4959565,2.27819118 L25.4959565,2.27819118 L25.4959565,2.27819118 Z M26.5201768,5.02064338 C26.0302598,5.02064338 25.5329888,4.90777941 25.3697921,4.85520221 L25.191691,3.99113603 C25.4287887,4.05860294 25.8964797,4.18658824 26.3122996,4.18658824 C26.8687307,4.18658824 27.0691884,4.01376838 27.0691884,3.72063971 C27.0691884,3.66826103 27.0691884,3.60790809 27.0544801,3.54808456 L27.0394449,3.47284191 C26.7723423,3.50281985 26.5201768,3.5251875 26.4010396,3.5251875 C25.3474681,3.5251875 24.5016105,3.11224632 24.5016105,2.13534926 C24.5016105,1.49687868 24.9912332,1.11361765 25.6293771,1.11361765 C26.0822291,1.11361765 26.4682075,1.29394853 26.720373,1.59445588 L26.6386603,1.20384926 L27.5811678,1.20384926 L28.0414393,3.33737868 C28.0784715,3.49547426 28.0931471,3.66051838 28.0931471,3.81821691 C28.0931471,4.45708456 27.7445933,5.02064338 26.5201768,5.02064338 L26.5201768,5.02064338 L26.5201768,5.02064338 Z M21.3769804,1.20384926 L21.7850539,3.10473529 C21.9484794,3.87095956 22.3192265,4.13397794 22.705597,4.13397794 C23.2029008,4.13397794 23.2621262,3.75809559 23.1658686,3.33003309 L22.7202726,1.20384926 L23.7815251,1.20384926 L24.2488239,3.38264338 C24.4790251,4.47197426 23.9819828,5.04324265 23.2029008,5.04324265 C22.7718497,5.04324265 22.3562587,4.87032353 22.0001872,4.48709559 L22.0965756,4.93014706 L21.109649,4.93014706 L20.3154992,1.20384926 L21.3769804,1.20384926 L21.3769804,1.20384926 Z M19.4771591,5.95962132 C19.4545737,5.62165809 19.6997119,5.35860662 20.0261707,5.35860662 C20.3897924,5.35860662 20.6496063,5.62165809 20.6715706,5.95962132 C20.694058,6.29761765 20.4491812,6.56066912 20.122559,6.56066912 C19.7590681,6.56066912 19.4992542,6.29761765 19.4771591,5.95962132 L19.4771591,5.95962132 L19.4771591,5.95962132 Z M19.3284419,4.93014706 L18.5344228,1.20384926 L19.5883865,1.20384926 L20.3825363,4.93014706 L19.3284419,4.93014706 L19.3284419,4.93014706 Z M16.3299437,1.20384926 L16.7455347,3.14973529 L18.3489022,3.14973529 L18.5420711,4.10386765 L16.9461231,4.10386765 L17.1912614,5.29851838 L18.8759494,5.29851838 L19.0836632,6.25278309 L16.3007232,6.25278309 L15.2467595,1.20384926 L16.3299437,1.20384926 L16.3299437,1.20384926 Z M15.283661,4.11134559 L15.4544733,4.93014706 L14.3191891,4.93014706 L14.5415785,5.967 L13.4356455,5.71923529 L12.7454343,2.53383088 C12.5527883,1.63194485 13.0422803,1.13638235 13.9328185,1.13638235 C14.1187314,1.13638235 14.4301223,1.17373897 14.6530674,1.24871691 L14.8311685,2.06788235 C14.6530674,2.02265074 14.4301223,1.97768382 14.2374763,1.97768382 C13.9328185,1.97768382 13.7176852,2.08277206 13.7921419,2.45862132 L14.1410553,4.11134559 L15.283661,4.11134559 L15.283661,4.11134559 Z M11.261204,2.30079044 C11.261204,2.00005147 10.897713,1.94767279 10.5934474,1.94767279 C10.207371,1.94767279 9.77710438,2.05262868 9.54729545,2.12800368 L9.36880213,1.28656985 C9.70290921,1.20384926 10.1259198,1.13638235 10.5265737,1.13638235 C11.4763373,1.13638235 12.2485227,1.49687868 12.2485227,2.39840074 C12.2485227,3.56294118 10.8681003,3.36001103 10.8681003,3.87830515 C10.8681003,4.11134559 11.0907512,4.19406618 11.4393051,4.19406618 C11.7731833,4.19406618 12.2412666,4.05860294 12.3968804,4.01376838 L12.5749815,4.86254779 C12.2559422,4.95277941 11.8773834,5.00538971 11.5358242,5.00538971 C10.5044786,5.00538971 9.88114105,4.53944118 9.88114105,3.76560662 C9.88114105,2.63144118 11.261204,2.81908456 11.261204,2.30079044 L11.261204,2.30079044 L11.261204,2.30079044 Z M7.26852308,1.09101838 C8.43381221,1.09101838 9.22044447,1.94767279 9.39854557,3.06701471 C9.58419693,4.18658824 8.96827894,5.04324265 7.80285907,5.04324265 C6.63779873,5.04324265 5.85106842,4.18658824 5.67293463,3.06701471 C5.4874467,1.94767279 6.10346275,1.09101838 7.26852308,1.09101838 L7.26852308,1.09101838 L7.26852308,1.09101838 Z M7.36530366,1.95505147 C6.94206432,1.95505147 6.60818604,2.29318015 6.76379979,3.06701471 C6.91957697,3.84081618 7.290847,4.1788125 7.71385754,4.1788125 C8.13696614,4.1788125 8.47097516,3.83347059 8.30754967,3.06701471 C8.15164175,2.30079044 7.78815077,1.95505147 7.36530366,1.95505147 L7.36530366,1.95505147 L7.36530366,1.95505147 Z M2.88986387,2.74413971 L3.35755494,2.74413971 C4.84930284,2.74413971 5.68061563,3.48769853 5.68061563,4.72748162 C5.68061563,5.65163603 5.03443123,6.25278309 3.92875972,6.25278309 L2.5487295,6.25278309 L1.4947462,1.20384926 L2.56340511,1.20384926 L2.88986387,2.74413971 L2.88986387,2.74413971 Z M3.07538449,3.66826103 L3.42419986,5.32849632 L3.86953433,5.32849632 C4.35941858,5.32849632 4.59664702,5.12556618 4.59664702,4.65227206 C4.59664702,4.04374632 4.2183497,3.66826103 3.52098044,3.66826103 L3.07538449,3.66826103 L3.07538449,3.66826103 Z" id="path28" fill="#231F20" transform="translate(20.389864, 3.825844) scale(1, -1) translate(-20.389864, -3.825844) "></path>
            </g>
        </g>
    </g>
</svg>