<?xml version="1.0" encoding="UTF-8"?><svg id="Layer_1" xmlns="http://www.w3.org/2000/svg" xmlns:xlink="http://www.w3.org/1999/xlink" viewBox="0 0 500 500"><defs><style>.cls-1{clip-path:url(#clippath);}.cls-2{fill:none;}.cls-2,.cls-3,.cls-4,.cls-5,.cls-6{stroke-width:0px;}.cls-3{fill:#fcd205;}.cls-4{fill:#ed1c24;}.cls-5{fill:#fff;}.cls-6{fill:#231f20;}</style><clipPath id="clippath"><rect class="cls-2" x="25" y="186.439396303" width="450" height="127.121207394"/></clipPath></defs><g id="g10"><g id="g12"><g id="g14"><g class="cls-1"><g id="g16"><path id="path22" class="cls-3" d="M25,313.560603697h450v-127.1920347269H25v127.1920347269Z"/><path id="path24" class="cls-5" d="M398.7060680054,284.4854108749l4.397797304-20.8238177792H44.2100574566l-4.4017229191,20.82381547h358.8977334679"/><path id="path26" class="cls-4" d="M441.9333526005,235.2802735225s4.8124530979-22.0615873073,4.8790315297-22.2686103918h-30.5817422875c0,.1395302152-6.3227711538,29.2772280662-6.3227711538,29.41554365h7.8361188609c.0665784318,0,4.8094234467-21.9931846191,4.8094234467-21.9931846191h14.842926134s-4.6731999849,22.0606728699-4.8094234467,22.2002030852h22.6093999649l-2.95405768,13.6059047819h-22.4762431012c0,.1383202021-4.5339838189,20.7552603755-4.5339838189,20.7552603755h-16.9736945816c0,.0674951784-1.5133477071,7.42142612-1.5799261389,7.4900112339h25.0126153361c0-.0685851139,4.4704350382-20.8238177792,4.4704350382-20.8238177792h22.47321345c0-.0687075007,5.9111450111-28.2454193973,5.9111450111-28.3813195732h-22.612429616"/><path id="path28" class="cls-6" d="M386.5932639935,241.8100631424c3.2294973078,0,5.4298738384,2.1979842146,5.4298738384,5.8406132539,0,.6171436383-.069608083,1.1670946015-.1361865149,1.7854482529h-13.9530584698c1.4437396241-4.602695938,4.5339838189-7.6260615068,8.6593711462-7.6260615068ZM393.5334928348,269.1626129346l1.7887873349-8.1790375028c-3.023665763,1.0287743994-5.9807530941,1.852640928-9.7580630594,1.852640928-4.4008269552,0-8.2477450035-1.5097176677-8.4535765484-6.8027999847h22.6790449948c.8232522854-2.6816523217,1.304523458-5.3593697915,1.304523458-7.8327843972,0-7.5609886639-4.397797304-13.7478596418-13.8138423038-13.7478596418-12.2339161649,0-19.6553422849,10.0377331148-19.6553422849,21.1018159844,0,9.4820322802,6.3227711538,15.0505449883,16.1504422962,15.0505449883,3.9861711613,0,7.1460234392-.6207736777,9.7580630594-1.4425249926h0l-.000036947.0000046184ZM356.2173532508,262.2190727215c-4.467405387,0-7.49107115-1.9234636425-7.49107115-7.4898611369,0-6.5285842251,4.1223576762-11.9590769252,10.653953079-11.9590769252,2.0611973116,0,4.397797304.6183536514,6.7343972965,1.5133477071l1.6495342219-7.8349042294c-2.6816477033-.9612815301-5.8445665793-1.649548077-9.0044188571-1.649548077-10.7901765408,0-20.0003899957,8.0398121001-20.0003899957,20.4126396185,0,10.169998633,6.2561927219,14.9785076423,15.2575819278,14.9785076423,3.023665763,0,5.5660973002-.5484361376,7.4244927182-1.302990159l1.7857576837-8.0431419453c-2.0611973116.7566738535-4.3312188722,1.375027505-7.0098369243,1.375027505h0ZM308.7291044384,269.5730336825l3.7797299916-17.3880640365c1.5109276808-7.0089178685,4.9492492377-9.414839605,8.5219653815-9.414839605,4.6051252009,0,5.155062309,3.4383261752,4.2600774901,7.353960961l-4.1238725018,19.4489426805h9.8288903923l4.3281707475-19.9301815245c2.1308053946-9.9644857557-2.4728049808-15.1900798219-9.6881409272-15.1900798219-3.9879815626,0-7.834899611,1.5817550137-11.1349102025,5.0872692457l.8925647927-4.0527449748h-9.1391090198l-7.353960961,34.0857370755h9.8285948166ZM273.4054592836,259.7456581158c0-3.4343913234,3.023056138-5.3617898177,8.0382926561-5.3617898177.9649069511,0,3.0917774939.071127527,5.0188757942.3453479049l-.4137505932,1.9246736557c-1.1704244467,4.0518351558-4.4655949857,6.8043148103-8.3812159164,6.8043148103-2.8199771421,0-4.2621834671-1.375027505-4.2621834671-3.7125465532h-.0000184735ZM282.88991159,234.6594998448c-4.5367178943,0-9.1415290461,1.0324090571-10.6527523026,1.5133477071l-1.6492386462,7.9039119242c2.1955734251-.6171436383,6.5264597746-1.7878682791,10.3770170991-1.7878682791,5.1526422828,0,7.0089132502,1.5808451947,7.0089132502,4.2621927039,0,.4791236303,0,1.0311944256-.1362049883,1.5784205501l-.1392346395.6882711653c-2.4734146057-.274220378-4.8085182461-.4788234362-5.9117361625-.4788234362-9.7562526581,0-17.5890278186,3.7773145837-17.5890278186,12.7133307525,0,5.8403130598,4.5339838189,9.3461321043,10.4433184287,9.3461321043,4.1934805848,0,7.7677115542-1.649548077,10.1028151946-4.3983930738l-.7566738535,3.5730117196h8.7277784529l4.2621834671-19.5161353556c.3429232603-1.4461550319.4788141995-2.9558726996.4788141995-4.3983930738,0-5.8439430992-3.227668433-10.999014645-14.5659716806-10.999014645v.0000092367ZM235.2630192896,269.5730336825l3.7788247909-17.3880640365c1.5133477071-7.0089178685,4.9465336357-9.414839605,8.5243854078-9.414839605,4.6051252009,0,5.1535474834,3.4383261752,4.2621834671,7.353960961l-4.126292528,19.4489426805h9.8273755667l4.3272655469-19.9301815245c2.1317105952-9.9644857557-2.4709945795-15.1900798219-9.6854253253-15.1900798219-3.9916023653,0-7.8400537127,1.5817550137-11.1373302287,5.0872692457l.8925647927-4.0527449748h-9.1391090198l-7.353960961,34.0857370755h9.8295184907ZM217.6703521949,226.0703371698c-.2091382982,3.0914634447,2.0608832624,5.4976899936,5.0839394004,5.4976899936,3.3671986482,0,5.773111148-2.4062265489,5.9765041931-5.4976899936.2082330976-3.0917682571-2.0593684368-5.4979948061-5.0839394004-5.4979948061-3.3659793984,0-5.7719103716,2.4062265489-5.9765041931,5.4979948061h0ZM216.2932094762,235.487296607l-7.3527417112,34.0857370755h9.7598734607l7.353960961-34.0857370755h-9.7610927106ZM188.5266042783,269.5730336825l3.8484513474-17.7996901792h14.8474521373l1.7887688614-8.7277784529h-14.7787492549l2.2700215606-10.927887118h15.6005051882l1.9234590242-8.728988466h-25.770489966l-9.7598826975,46.184344216h10.0304637994ZM178.8378537261,242.9771577438l1.5817550137-7.4898611369h-10.5129265117l2.0593592-9.4844523064-10.2411261599,2.2663915212-6.3914740361,29.1379934267c-1.7839380457,8.2498648357,2.7488449968,12.7829480723,10.9953799872,12.7829480723,1.7215808047,0,4.6051159642-.3417132472,6.6696292659-1.0275643862l1.6492478829-7.4931909821c-1.6492478829.4137505932-3.7137519479.8250765418-5.4976899936.8250765418-2.8211871553,0-4.8133582985-.9612769118-4.1238725018-4.3993028929l3.2309936599-15.1180424759s10.5807241934,0,10.5807241934.0000046184ZM141.5892162481,259.5389352254c0,2.750964829-3.3659886351,3.2300884592-6.1835365143,3.2300884592-3.5751361701,0-7.5594784566-.9600668986-9.687540539-1.649548077l-1.6528779223,7.6968842213c3.0938927077.7566738535,7.0110377007,1.3738174918,10.7211596092,1.3738174918,8.7949757464,0,15.9455436623-3.2975859469,15.9455436623-11.5441163189,0-10.6524567269-12.7829480723-8.7961811411-12.7829480723-13.5371972812,0-2.1317013585,2.061788463-2.888375212,5.289456896-2.888375212,3.0917682571,0,7.4263031195,1.2391273291,8.8673086681,1.6492478829l1.6492478829-7.7640768965c-2.9543532557-.8253767359-6.459872106-1.3066201983-9.6227725085-1.3066201983-9.5504395868,0-15.3226455341,4.2621927039-15.3226455341,11.3407232738,0,10.3746063096,12.7796136086,8.6581657515,12.7796136086,13.3991818916l-.0000092367-.0000092367ZM104.6163139737,270.6051379271c10.790776929,0,18.0751205703-7.8361142425,19.7243684532-18.0751205703,1.7191607784-10.2411261599-3.9843422865-18.0772450208-14.7763292287-18.0772450208-10.7886570969,0-18.0739105571,7.8361142425-19.7234632525,18.0772404024-1.7176505712,10.2390063278,3.9867623128,18.0751251886,14.775424028,18.0751251886h0ZM105.5125180424,262.701526197c-3.9192694435,0-7.0110377007-3.0929782703-5.5700275337-10.1715134585,1.4425249926-7.0782303758,4.8805417369-10.169998633,8.7976959667-10.169998633,3.9180594304,0,7.0110377007,3.1589609323,5.4976899936,10.169998633-1.4437303873,7.0089178685-4.8097190224,10.1715134585-8.7253584266,10.1715134585h0ZM64.0691899665,255.4834654119h4.3309002046c13.8138376854,0,21.5119319199-6.8015899716,21.5119319199-18.1423178638,0-8.4535580749-5.9837781269-13.9524580816-16.2224796422-13.9524580816h-12.7793134145l-9.7600628139,46.184344216h9.8959629898l3.0230607564-14.0895682706ZM65.7871407318,247.0302075311l3.2300884592-15.1867499766h4.1238725018c4.5364130819,0,6.7331872833,1.8562709674,6.7331872833,6.1856563464,0,5.5663974943-3.5030988241,9.0010890118-9.9608557164,9.0010890118h-4.126292528"/></g></g></g></g></g><rect class="cls-2" width="500" height="500"/></svg>