<?xml version="1.0" encoding="UTF-8"?><svg id="Layer_1" xmlns="http://www.w3.org/2000/svg" viewBox="0 0 500 500"><defs><style>.cls-1{fill:none;}.cls-1,.cls-2,.cls-3{stroke-width:0px;}.cls-2{fill:#dca126;}.cls-2,.cls-3{fill-rule:evenodd;}.cls-3{fill:#467ba8;}</style></defs><path class="cls-2" d="M25,221.5281764811h21.2522193193c12.6296746476,0,20.4832854979,7.5639088349,20.4832854979,19.0356748497v.1610880572c0,12.7727267985-9.7019491278,19.4435936029-21.559522589,19.4435936029h-10.7050786127v18.3005707253h-9.4709036155v-56.9409272352ZM45.4828336319,251.1371529238c7.1604872238,0,11.6265322523-4.2295857319,11.6265322523-10.1680854285v-.1638078599c0-6.6677166533-4.5423113929-10.1653656259-11.6265322523-10.1653656259h-11.0119300164v20.4972589142h11.0119300164Z"/><path class="cls-2" d="M134.7303296562,221.5281764811h10.2429832846l12.8580046608,42.2183429438,13.2442854905-42.3821335897h8.0083899982l13.2465405167,42.3821335897,12.8607072495-42.2183429438h9.9329774262l-18.7134643074,57.3488632024h-8.2394182966l-13.243837928-40.9173821601-13.2469880792,40.9173821601h-8.1604579505l-18.7897220648-57.3488632024Z"/><path class="cls-2" d="M224.8261674105,221.5281764811h39.9656922336v8.9479096686h-30.4947886181v14.8029045388h27.0291575753v8.9483400171h-27.0291575753v15.293880556h30.8783496452v8.9478924547h-40.3492532607v-56.9409272352Z"/><path class="cls-2" d="M276.4183961999,221.5281764811h24.0251527807c6.7769218932,0,12.0886275804,2.1163851555,15.5546889718,5.6943715894,2.8487694772,3.0897302194,4.466501198,7.3224833164,4.466501198,12.2849181464v.1606404948c0,9.3558284218-5.314391062,14.9698797638-12.7848970546,17.2468882001l14.5569689678,21.5541088046h-11.2429411009l-13.2469880792-19.8456596163h-11.8575820681v19.8456596163h-9.4709036155v-56.9409272352ZM299.7504468715,249.7558718927c6.7769218932,0,11.0881877738-3.7413467313,11.0881877738-9.5164689166v-.1633602974c0-6.0995877538-4.1587503658-9.4361486692-11.1644799591-9.4361486692h-13.7848548708v19.1159778832h13.8611470561Z"/><path class="cls-2" d="M119.9860816204,226.7600094833l-5.1352627949,7.3143583363c3.7160680594,3.7273517975,6.7958744419,9.9641346589,6.7958744419,15.9256321803v.1611052712c0,11.0642603962-8.6306739551,20.8564622152-19.3357482643,20.8564622152-10.7023717205,0-19.4666086417-9.9532898762-19.4666086417-21.0175674864v-.1606404948c0-5.9759572316,2.612757743-11.687456692,6.3013007112-15.3746483658l-4.6018802347-7.6126415011c-6.5431737922,5.4303785945-10.4929899526,13.8440019711-10.4929899526,23.1479303617v.1611052712c0,16.0262476638,11.5502701914,29.2872306768,28.1081015585,29.2872306768,16.554672609,0,28.2601781178-13.4247908729,28.2601781178-29.448335948v-.1606404948c0-9.3183881007-3.9087523048-17.6950015048-10.4329649413-23.0793500219Z"/><path class="cls-2" d="M106.4620179514,246.5916913798c0,2.4665511375-1.8921047219,4.4678438854-4.2300419013,4.4678438854-2.3320758326,0-4.2268917502-2.0012927478-4.2268917502-4.4678438854v-21.5744212546c0-2.4669987,1.8948159175-4.4656060731,4.2268917502-4.4656060731,2.3379371795,0,4.2300419013,1.9986073731,4.2300419013,4.4656060731v21.5744212546Z"/><path class="cls-2" d="M84.5437568379,226.8520696383c1.5410264009-1.6281289409,4.0310401396-.9679398866,5.8089820067.9101699015,1.77793326,1.878127002.3370833871,5.0743426586-1.2071017719,6.7024715996-1.5410350079,1.628111727-2.6664566311,1.0081000102-4.4443984981-.8700269917-1.77793326-1.8781097881-1.698964307-5.1145027824-.1574817367-6.7426145094Z"/><path class="cls-2" d="M119.9860816204,226.7600094833c-1.5414825704-1.628111727-4.1294178109-.8727123665-5.9073596779,1.0053974216-1.7801882863,1.8776622256-.772096883,4.6776818227.772096883,6.3089609148,1.5414825704,1.6308315296,3.0992064938,1.4011459187,4.8766921913-.4828338232,1.77793326-1.8722570482,1.7995970044-5.2061153749.2585706035-6.8315245132Z"/><path class="cls-3" d="M329.7014643163,220.9596000192h21.2495081236c12.6242565598,0,20.477876017,7.5639088349,20.477876017,19.0302524584v.1633602974c0,12.7673044071-9.6992637531,19.4350210604-21.5568113933,19.4350210604h-10.6996691318v18.2982984852h-9.4709036155v-56.9269323014ZM350.1793403333,250.5600039194c7.1600009299,0,11.6265365558-4.2268831432,11.6265365558-10.1653828398v-.1606404948c0-6.6681642158-4.5427933832-10.1658304023-11.6265365558-10.1658304023h-11.0069724015v20.4918537368h11.0069724015Z"/><path class="cls-3" d="M394.8421145008,220.551664052h8.7777670786l23.709724531,57.3348682686h-10.0060850324l-5.4669065767-13.7437996222h-25.4822784345l-5.5427511995,13.7437996222h-9.6992293252l23.7097589588-57.3348682686ZM408.393686047,255.2783106422l-9.3161158606-22.7720467522-9.2398581032,22.7720467522h18.5559739638Z"/><path class="cls-3" d="M444.0485427486,255.4416537257l-21.3997858261-34.4820537065h11.2375703513l15.0132072526,25.1293926498,15.2433232121-25.1293926498h10.8571422615l-21.4029531912,34.2379255993v22.6890067022h-9.5485040603v-22.4448785949Z"/><rect class="cls-1" width="500" height="500"/></svg>