<?xml version="1.0" encoding="UTF-8"?>
<svg width="140px" height="80px" viewBox="0 0 140 80" version="1.1" xmlns="http://www.w3.org/2000/svg" xmlns:xlink="http://www.w3.org/1999/xlink">
    <!-- Generator: Sketch 52.5 (67469) - http://www.bohemiancoding.com/sketch -->
    <title>im/logo-pay/powerpay</title>
    <desc>Created with Sketch.</desc>
    <defs>
        <polygon id="path-1" points="0.0558007063 0.00405159065 13.6546067 0.00405159065 13.6546067 11.7 0.0558007063 11.7"></polygon>
        <polygon id="path-3" points="0.0100502883 0.022815 2.05319098 0.022815 2.05319098 6.67991455 0.0100502883 6.67991455"></polygon>
    </defs>
    <g id="im/logo-pay/powerpay" stroke="none" stroke-width="1" fill="none" fill-rule="evenodd">
        <g id="Group-22" transform="translate(16.000000, 34.000000)">
            <g id="Group-21">
                <path d="M36.1116325,3.8816505 C35.7209478,4.9730655 35.3561287,5.9909005 34.9921876,7.0089955 C34.3345408,8.8488205 33.6749354,10.6879955 33.0239069,12.5299005 C32.9561703,12.7213255 32.867498,12.8019255 32.6450408,12.7929555 C32.1732477,12.7739755 31.6995637,12.7750155 31.2276356,12.7925005 C31.0049757,12.8007555 30.9254881,12.7181405 30.8558605,12.5245055 C29.6506473,9.1744055 28.4361145,5.8273605 27.2237428,2.4796005 C26.9908177,1.8365555 26.7682254,1.1898705 26.5203078,0.5522855 C26.4315005,0.3238755 26.4558803,0.2531555 26.7245309,0.2595905 C27.3430755,0.2744105 27.9626331,0.2762305 28.5809751,0.2584205 C28.8286226,0.2512055 28.9258041,0.3328455 29.0006318,0.5572255 C29.9544156,3.4183955 30.9201529,6.2757955 31.8830538,9.1341705 C31.9106077,9.2160055 31.9404577,9.2971905 31.9711857,9.3842905 C32.0981498,9.3096055 32.0957861,9.1792155 32.1317143,9.0754105 C33.1117688,6.2453755 34.0905401,3.4148855 35.0570879,0.5805605 C35.1437341,0.3263455 35.2494924,0.2124655 35.5445488,0.2319655 C35.9701486,0.2600455 36.4000705,0.2545205 36.8265482,0.2330705 C37.0642682,0.2211105 37.1520625,0.3069755 37.2231758,0.5145855 C38.2041083,3.3785505 39.1947657,6.2393955 40.1831269,9.1010205 C40.2148679,9.1929305 40.2473518,9.2845155 40.2819292,9.3831205 C40.415174,9.2960205 40.413283,9.1547105 40.4521827,9.0394005 C41.406169,6.2125505 42.3581294,3.3850505 43.3003648,0.5545605 C43.3755302,0.3288155 43.4828419,0.2510755 43.7281932,0.2586155 C44.3015575,0.2762955 44.8764076,0.2790255 45.4495017,0.2582255 C45.7504336,0.2473705 45.8040556,0.3053505 45.7002558,0.5896605 C44.67313,3.4042905 43.6594435,6.2234705 42.6429881,9.0417405 C42.2269107,10.1956205 41.8059708,11.3479405 41.4054261,12.5068255 C41.3261411,12.7362105 41.2117384,12.8020555 40.9736133,12.7923055 C40.5355197,12.7743655 40.0947923,12.7678005 39.6576442,12.7941905 C39.3817675,12.8108305 39.2690532,12.7165155 39.182542,12.4714005 C38.2864999,9.9334105 37.3780315,7.3993855 36.4721294,4.8645805 C36.363332,4.5599905 36.2495371,4.2570905 36.1116325,3.8816505" id="Fill-1" fill="#F9A618"></path>
                <path d="M62.8649531,4.3060875 C62.8649531,4.9229375 62.8741377,5.5399175 62.8599556,6.1564425 C62.8550256,6.3722425 62.9276247,6.4308725 63.1453546,6.4270375 C63.8309605,6.4150775 64.5170392,6.4293775 65.2027127,6.4206675 C65.7972152,6.4131275 66.3956346,6.4746175 66.9848695,6.3530025 C67.7973719,6.1853675 68.4867598,5.8311175 68.7444023,5.0180975 C69.0947691,3.9121225 68.7532493,2.5729275 66.9254395,2.3297625 C65.6416842,2.1590075 64.343139,2.2944025 63.0518874,2.2596275 C62.8641427,2.2545575 62.863805,2.3603125 62.8642102,2.4881025 C62.8661687,3.0940975 62.8650882,3.7000925 62.8649531,4.3060875 M68.1232239,8.0045875 C69.2847424,9.5629625 70.430323,11.1002125 71.5730671,12.6335625 C71.5020888,12.7480925 71.4018682,12.7003175 71.3223806,12.7008375 C70.6358967,12.7051925 69.9488726,12.6894625 69.263064,12.7101975 C68.9917796,12.7184525 68.8375993,12.6232925 68.688349,12.4178275 C67.7597555,11.1405775 66.8152239,9.8740525 65.885955,8.5971925 C65.7625027,8.4275425 65.6370919,8.3577325 65.4186867,8.3618275 C64.6649388,8.3757375 63.9105157,8.3765175 63.1567678,8.3618275 C62.9153335,8.3571475 62.8579296,8.4321575 62.859888,8.6547175 C62.8703558,9.8894575 62.8575919,11.1244575 62.8708286,12.3591975 C62.8735975,12.6181575 62.8199079,12.7224175 62.5243112,12.7100675 C61.9626303,12.6866675 61.3989909,12.6953125 60.8364996,12.7073375 C60.6264686,12.7118225 60.5711582,12.6421425 60.5714283,12.4464925 C60.5764258,8.4711575 60.575818,4.4956925 60.5729816,0.5202925 C60.5729816,0.3579875 60.5897976,0.2579525 60.8036105,0.2611375 C62.9298533,0.2921425 65.0598106,0.1737775 67.1819339,0.3232775 C68.5244438,0.4178525 69.7341817,0.8812375 70.5310838,2.0121725 C72.0047449,4.1036125 71.0577146,6.9292275 68.5927883,7.8390975 C68.4480628,7.8925275 68.3016489,7.9417975 68.1232239,8.0045875" id="Fill-3" fill="#F9A618"></path>
                <path d="M48.1358993,6.4598105 C48.1358993,4.5207305 48.1410318,2.5815855 48.1302264,0.6425705 C48.1286731,0.3637205 48.1782431,0.2545855 48.5087549,0.2561455 C51.4800517,0.2700555 54.4514835,0.2676505 57.4227803,0.2586155 C57.6963608,0.2577705 57.8010387,0.3160105 57.7851682,0.5961605 C57.7607208,1.0281505 57.762139,1.4632605 57.7848305,1.8954455 C57.7990126,2.1660405 57.7121638,2.2411155 57.4296012,2.2396855 C55.246157,2.2284405 53.0625777,2.2334455 50.8790659,2.2335105 C50.4346242,2.2335755 50.4344891,2.2337705 50.4344216,2.6745355 C50.4342865,3.4978905 50.4438763,4.3213105 50.4284786,5.1443405 C50.4239538,5.3852305 50.4891242,5.4549105 50.7453485,5.4534805 C52.6924234,5.4428855 54.6396335,5.4528955 56.5867084,5.4416505 C56.8566421,5.4400905 56.9634135,5.4887755 56.9462599,5.7725005 C56.9195164,6.2151505 56.9239736,6.6611155 56.9452468,7.1042855 C56.9569302,7.3488805 56.8812245,7.4112155 56.6283094,7.4097855 C54.6923776,7.3992555 52.7564457,7.4106305 50.8206489,7.3971755 C50.5148546,7.3950955 50.4191589,7.4665305 50.4266551,7.7701455 C50.4484686,8.6470605 50.4461725,9.5250805 50.4275331,10.4021905 C50.4215901,10.6809755 50.5168807,10.7409705 50.790056,10.7398005 C53.0298237,10.7297255 55.2696589,10.7398655 57.509359,10.7271905 C57.8069817,10.7255655 57.8996384,10.7960255 57.881877,11.0859255 C57.8547283,11.5285105 57.862157,11.9742805 57.8799185,12.4177755 C57.8891706,12.6483955 57.8100207,12.7092355 57.5756099,12.7080655 C55.8197914,12.6993555 54.063973,12.7033855 52.3081545,12.7033855 C51.0588416,12.7033855 49.8093261,12.6924005 48.5602834,12.7107305 C48.232473,12.7155405 48.1227301,12.6541155 48.1262419,12.3094855 C48.146232,10.3597455 48.1358993,8.4097455 48.1358993,6.4598105" id="Fill-5" fill="#F9A618"></path>
                <path d="M88.5279631,7.7652055 C89.9715715,7.7652055 91.3534538,7.7616305 92.735201,7.7680655 C93.0332964,7.7694305 92.9366551,7.6319555 92.8708094,7.4864855 C92.1987778,6.0022755 91.5279618,4.5176105 90.8555926,3.0335955 C90.8279711,2.9726255 90.8241217,2.8885155 90.7193763,2.8732405 C89.9957487,4.4886205 89.2731341,6.1016605 88.5279631,7.7652055 M84.009258,12.7013055 C84.4980696,11.6329655 84.9637846,10.6163655 85.4284866,9.5994405 C86.8213094,6.5516555 88.2162933,3.5049105 89.6003367,0.4534855 C89.6967078,0.2411305 89.8078689,0.1661855 90.0455213,0.1750255 C90.5400058,0.1934205 91.0361112,0.1924455 91.5306632,0.1754155 C91.765209,0.1673555 91.8841366,0.2355405 91.9814532,0.4503005 C93.2153683,3.1754905 94.460359,5.8960655 95.7034587,8.6173555 C96.2820232,9.8840105 96.8594395,11.1511855 97.4451626,12.4146555 C97.5440325,12.6279855 97.5423441,12.7146305 97.2573503,12.7065705 C96.6501514,12.6896705 96.0418045,12.6923355 95.4344705,12.7063755 C95.2209953,12.7113155 95.115372,12.6434555 95.0347363,12.4539155 C94.6857202,11.6337455 94.3110411,10.8235205 93.9683057,10.0009455 C93.8743658,9.7756555 93.761719,9.6922605 93.5048869,9.6938855 C91.6817369,9.7049355 89.8584519,9.7068855 88.0354371,9.6921955 C87.7588175,9.6898555 87.642929,9.7853405 87.5448695,10.0145305 C87.1943677,10.8339855 86.8223224,11.6449255 86.4620957,12.4606105 C86.403341,12.5936005 86.3619426,12.7087805 86.164473,12.7056605 C85.4673187,12.6946105 84.7698943,12.7013055 84.009258,12.7013055" id="Fill-7" fill="#157EAE"></path>
                <path d="M76.319335,4.4685875 C76.319335,5.1393875 76.3188623,5.8101875 76.3197402,6.4809225 C76.3199428,6.6061775 76.2827315,6.7453425 76.5060667,6.7386475 C77.5387978,6.7078375 78.576594,6.8132675 79.6041925,6.6747525 C80.5519657,6.5470925 81.3307012,6.1337575 81.6452749,5.2056875 C82.0251541,4.0850225 81.64541,2.6021125 79.7311566,2.3282675 C78.6592557,2.1749325 77.5760091,2.2936875 76.498638,2.2590425 C76.3028567,2.2527375 76.3185921,2.3664225 76.3187947,2.4886875 C76.3200103,3.1486325 76.3194025,3.8086425 76.319335,4.4685875 M74.0268908,6.4683125 C74.0268908,4.5079125 74.0314156,2.5474475 74.0212179,0.5870475 C74.0198672,0.3384225 74.0775413,0.2552875 74.3511894,0.2602925 C76.1959502,0.2942225 78.044493,0.1832025 79.8853369,0.3170375 C81.466107,0.4319575 82.8136144,1.0276825 83.6043709,2.4390275 C84.9912507,4.9142275 83.6093685,7.7714975 80.7024992,8.4939725 C79.9089738,8.6911825 79.1024818,8.7103575 78.2909248,8.6999575 C77.7508548,8.6930675 77.2092991,8.7210175 76.6709849,8.6902075 C76.3505357,8.6718775 76.3096776,8.7880325 76.3131894,9.0549225 C76.3277092,10.1703225 76.3110283,11.2861775 76.3258183,12.4015775 C76.3290599,12.6481225 76.2585543,12.7152025 76.0067198,12.7070775 C75.4447012,12.6890075 74.8812644,12.6902425 74.3191107,12.7066875 C74.0785543,12.7137075 74.0208802,12.6382425 74.0218257,12.4146425 C74.0304701,10.4325325 74.0268908,8.4504225 74.0268908,6.4683125" id="Fill-9" fill="#157EAE"></path>
                <path d="M2.27762051,4.472741 C2.27762051,5.143541 2.27843092,5.814341 2.27694517,6.485141 C2.27667503,6.622031 2.2710697,6.743711 2.47853439,6.738186 C3.51140056,6.710171 4.54723823,6.798636 5.57747057,6.676696 C6.60169238,6.555471 7.40858953,5.929326 7.63888073,5.095311 C8.02112361,3.711006 7.19916636,2.528916 5.69410192,2.327546 C4.62078284,2.183961 3.53875186,2.290821 2.46117813,2.260401 C2.237978,2.254096 2.27890366,2.402491 2.27856599,2.525276 C2.27647243,3.174431 2.27755297,3.823586 2.27762051,4.472741 M0.00563909542,6.466161 C0.00563909542,4.506151 0.0101638786,2.546141 3.37670384e-05,0.586196 C-0.00124938042,0.337116 0.0581806072,0.255801 0.331491016,0.258011 C1.94022026,0.270816 3.54921964,0.257166 5.15801642,0.267501 C5.94904306,0.272571 6.72305112,0.387946 7.46491295,0.675506 C9.3344588,1.400126 10.1897103,2.995746 10.028439,4.785781 C9.84629957,6.806501 8.52384727,8.137051 6.37092844,8.559421 C5.77237392,8.676876 5.1682816,8.707686 4.55952943,8.702356 C3.92950403,8.696896 3.29839808,8.722116 2.66979089,8.692866 C2.32725805,8.676876 2.26526177,8.792706 2.27025929,9.094111 C2.2886961,10.198331 2.27255545,11.303071 2.28180762,12.407486 C2.28363104,12.626211 2.22791543,12.715326 1.98215892,12.708306 C1.42014033,12.692446 0.8568386,12.691601 0.294887546,12.708696 C0.0480504957,12.716171 0.000236369269,12.628421 0.00111431227,12.411126 C0.00881319703,10.429471 0.00563909542,8.447751 0.00563909542,6.466161" id="Fill-11" fill="#F9A618"></path>
                <g id="Group-15" transform="translate(11.750929, 1.212185)">
                    <mask id="mask-2" fill="white">
                        <use xlink:href="#path-1"></use>
                    </mask>
                    <g id="Clip-14"></g>
                    <path d="M0.0568434325,5.281523 C0.0818310409,3.274843 0.869616047,1.608243 2.46497354,0.303563 C2.97458569,-0.113282 3.65337069,-0.031902 4.04689176,0.492843 C4.17892088,0.668863 4.21586202,0.865293 4.16413092,1.078623 C4.07674182,1.439243 3.8598899,1.719653 3.60109932,1.984853 C2.30410737,3.313908 1.81975297,4.869423 2.41270217,6.619158 C3.00686698,8.372663 4.29116252,9.473828 6.1976495,9.800193 C8.54317553,10.201633 10.9592747,8.518198 11.4210051,6.198088 C11.7478025,4.556318 11.184906,3.173443 10.0486452,1.969903 C9.86637069,1.776853 9.67416871,1.595048 9.56550638,1.351298 C9.37614083,0.926328 9.46008569,0.592098 9.82395929,0.310128 C10.2858924,-0.047827 10.7314822,-0.097162 11.1137926,0.190398 C12.367968,1.133873 13.1549426,2.365298 13.4930182,3.857113 C14.2658781,7.267728 12.2006185,10.578113 8.70370403,11.457823 C5.39176537,12.290993 1.96285768,10.945103 0.591308116,7.873788 C0.222301921,7.047573 0.0402300496,6.184503 0.0568434325,5.281523" id="Fill-13" fill="#F9A618" mask="url(#mask-2)"></path>
                </g>
                <path d="M96.4651351,0.2663115 C97.3105266,0.2663115 98.1304579,0.2717715 98.9503216,0.2622815 C99.1404975,0.2600065 99.197834,0.3804515 99.2746202,0.4968665 C100.346791,2.1221265 101.417679,3.7481665 102.492011,5.3720615 C102.568325,5.4873715 102.6183,5.6266015 102.767213,5.7072015 C103.854106,4.0870115 104.95633,2.4808615 106.011414,0.8465665 C106.292086,0.4119115 106.574716,0.2020915 107.125389,0.2532465 C107.734209,0.3097965 108.353091,0.2661815 108.972311,0.2661815 C108.976768,0.4158115 108.883909,0.4886765 108.824817,0.5743465 C107.252286,2.8545465 105.680092,5.1351365 104.1002,7.4105915 C103.943994,7.6354915 103.867275,7.8562315 103.869706,8.1304665 C103.881727,9.5594915 103.870044,10.9887115 103.880647,12.4178665 C103.882335,12.6456265 103.816557,12.7136815 103.580255,12.7065315 C103.040861,12.6903465 102.499913,12.6859915 101.960923,12.7075715 C101.664111,12.7194665 101.561121,12.6532965 101.565376,12.3420765 C101.584826,10.9239065 101.571049,9.5054765 101.577195,8.0871765 C101.578072,7.8945165 101.529853,7.7359815 101.418827,7.5745215 C99.8177968,5.2477165 98.2221691,2.9174665 96.6269467,0.5869565 C96.5671791,0.4995315 96.478912,0.4245865 96.4651351,0.2663115" id="Fill-16" fill="#157EAE"></path>
                <g id="Group-20" transform="translate(17.558860, 0.042185)">
                    <mask id="mask-4" fill="white">
                        <use xlink:href="#path-3"></use>
                    </mask>
                    <g id="Clip-19"></g>
                    <path d="M2.05180006,3.3432035 C2.0518676,4.0999985 2.05551444,4.8567935 2.05071952,5.6135235 C2.04673501,6.2462335 1.63059002,6.6806935 1.04095,6.6799135 C0.454281475,6.6791985 0.0149047708,6.2342735 0.0131488848,5.6208035 C0.00889423792,4.1072135 0.00916437423,2.5936885 0.0130813507,1.0801635 C0.0146346344,0.4531735 0.436722615,0.0228085 1.03345372,0.0228085 C1.64220589,0.0228085 2.0465324,0.4351685 2.05058445,1.0728835 C2.0554469,1.8296135 2.05173253,2.5864085 2.05180006,3.3432035" id="Fill-18" fill="#F9A618" mask="url(#mask-4)"></path>
                </g>
            </g>
        </g>
    </g>
</svg>