<?xml version="1.0" encoding="UTF-8"?><svg id="Layer_1" xmlns="http://www.w3.org/2000/svg" viewBox="0 0 500 500"><defs><style>.cls-1{fill:none;}.cls-1,.cls-2,.cls-3{stroke-width:0px;}.cls-2{fill:#0f288d;}.cls-3{fill:#ce0e2d;}</style></defs><path class="cls-2" d="M118.8966383874,220.4026147897c-10.3444365975,0-20.4316960082,3.7148545629-26.8041008559,17.2597804488l.5286535016-13.5449286111h-31.5905492865l-13.5306417466,94.2429929954h32.647852202l5.5722804818-38.2201326837c3.1862010613-22.0319392897,14.3307620248-29.4759339174,23.889370659-29.4759339174,5.3008096174,0,9.2871350447,2.1288995084,11.1445609635,3.1862010613l13.0019923327-28.4043468627c-2.1146140065-1.8574313693-8.2155479899-5.0436324305-14.8594182516-5.0436324305"/><path class="cls-3" d="M307.6398070154,318.3604596228h37.4200137682l-28.9329976391-53.3510190745c18.0599048148-9.8157858211,31.3190743344-25.7467965778,38.2201326838-40.8776829686h-35.3053888608c-7.9726508545,14.0735848379-22.5605846158,27.6042224967-37.6914873577,35.5768679008l11.4302982533-80.7123444358h-32.3906668395l-19.6458625944,139.3641785781h32.3906668395l7.1725319389-50.4362861524,27.3327598079,50.4362861524Z"/><path class="cls-2" d="M199.3375092336,261.023115121h-33.9766246192c2.9147329221-11.6875026922,10.8873837766-20.1745133709,21.2318203741-20.1745133709,13.5449340615,0,13.8021166987,10.8730928243,12.7448042451,20.1745133709M189.7789115002,220.4026147897c-35.8340559885,0-58.9233022815,24.689495025-58.9233022815,56.8086882749,0,24.1608333477,15.9167252549,43.7924158907,49.10751101,43.7924158907,20.4317014585,0,35.0339261721-6.6295847598,45.1354819854-14.3307620248l-15.1451827935-18.317087452c-3.7148518377,3.1862065117-11.4160291027,8.4870161291-24.1608442485,8.4870161291-11.9446853295,0-20.4317014585-7.701177265-21.7604657002-20.1745188213h64.5098709903c10.0729630079-44.5782493044-15.1308809404-56.2657519966-38.7630689621-56.2657519966"/><path class="cls-3" d="M396.2962095004,300.300554808c-7.958370803,0-11.1445664139-3.9863254273-11.1445664139-10.0872539602,0-12.4733415563,15.1308809404-13.8021057979,32.647838576-13.8021057979-3.1861738093,13.2734495711-9.8157585691,23.8893597582-21.5032721621,23.8893597582M410.6412733782,220.4026147897c-19.1172172684,0-36.3627013145,6.1009339834-46.9786224024,17.516963086l16.188193394,16.4596615332c7.701177265-7.9583599022,16.188193394-11.9446853295,25.7468020282-11.9446853295,11.9446635279,0,15.1308809404,6.901052899,14.6022356143,18.317087452h-12.2161589191c-36.6341749041,0-55.7513921725,11.6732171903-55.7513921725,34.2480927584,0,14.3307620248,12.4733306555,26.0039846655,28.9329976391,26.0039846655,16.7311405731,0,26.2754473543-7.1582409866,31.847741462-13.2734604719v10.6159101871h30.7904072067l7.958370803-54.9512623561c4.2720681675-29.7188310528-10.0729521071-42.9922915247-41.1205746536-42.9922915247"/><rect class="cls-1" width="500" height="500"/></svg>