<?xml version="1.0" encoding="UTF-8"?><svg id="Layer_1" xmlns="http://www.w3.org/2000/svg" viewBox="0 0 500 500"><defs><style>.cls-1{fill:none;}.cls-1,.cls-2{stroke-width:0px;}.cls-2{fill:#000;}</style></defs><g id="g132"><g id="g138"><path id="path140" class="cls-2" d="M47.7211612307,294.042410161h-9.7957375886v-25.337601084h9.7957375886c7.6286025081,0,12.8097004561,5.6531471059,12.8097004561,12.6208807929,0,7.0664335414-5.181097948,12.7167202911-12.8097004561,12.7167202911M48.6623988493,256.8392069367h-23.5466763454v68.7546890092h12.8097004561v-19.6844539781h10.6425653756c14.3159680797,0,24.865551244-10.9243645217,24.865551244-24.5837548263,0-13.5606873808-10.5495858926-24.4864829332-24.7711420945-24.4864829332"/></g><g id="g142"><path id="path144" class="cls-2" d="M106.0282563226,315.043742552c-9.4180982623,0-16.6676310954-7.5341926765-16.6676310954-17.1396802533,0-9.5125074118,7.249532151-16.9522902567,16.6676310954-16.9522902567,9.4180982623,0,16.4831017961,7.6271728416,16.4831017961,16.9522902567,0,9.512508776-7.0650035338,17.1396802533-16.4831017961,17.1396802533M121.8533499949,277.0895496747c-3.9566308347-4.7090487901-10.4566064097-7.7258744012-17.7061392428-7.7258744012-13.9411887686,0-27.3144861527,10.4566057276-27.3144861527,28.7277742934,0,17.9907984041,13.8439182397,28.6333644618,27.124236823,28.6333644618,7.2523935304,0,13.8453479063-3.2027832128,17.8963885725-8.2880409805v7.1565526681h12.713860958v-55.0981648587h-12.7138595938l-.0000013642,6.5943888171Z"/></g><g id="g146"><path id="path148" class="cls-2" d="M168.5783616487,307.6036704997l-15.3516148478-37.1073637262h-13.5635494423l22.6054387268,52.3660011373-11.5866643735,28.1613153039h12.9055413185l32.870364094-80.5273164412h-13.3747297791l-14.5047856966,37.1073637262Z"/></g><g id="g150"><path id="path152" class="cls-2" d="M397.4716001408,201.5071606347h-.3533217154l-14.7808637679-50.4820935052h-23.8713879972v63.6479773759h15.8179426111l-.8883113082-52.2243822973h.3533213531l15.876589634,52.2243822973h22.9001116929v-63.6479773759h-15.9266564407l.8725759384,50.4820935052Z"/></g><g id="g154"><path id="path156" class="cls-2" d="M108.1117170305,156.9829023703l.359043515-.0057218096,8.5741310873,58.3567327657h17.2770032727l-11.8541579869-64.3088448328h-28.6119071859l-11.9213891479,64.3088448328h17.3828572576l8.7944191881-58.3510109561Z"/></g><g id="g158"><path id="path160" class="cls-2" d="M191.03045636,151.0250780429l-7.9318582481,49.1746579853h-.3661958551l-7.9204147768-49.1746579853h-26.2316324226l-1.4175771403,64.308846197h16.0968803779l.4019572996-57.8117320014h.3547510196l10.7426972839,57.8117320014h16.3185973884l10.7469883191-57.8060078784.3547523838-.0057220767.4019566175,57.8117299551h16.0868658911l-1.4175771403-64.308846197h-26.2201909976Z"/></g><g id="g162"><path id="path164" class="cls-2" d="M48.3735911994,217.8512287226c11.6367299866,0,21.2035947395-3.968074647,22.7327486236-14.7050495131.7824586874-5.5501551825.2074162419-9.1863647293-.0686621918-10.5395714059-2.7149981735-13.4677099441-27.1142237004-17.4844181503-28.9351905353-25.0157542221-.3061171194-1.3060003966-.231733533-2.6606421965-.0686615097-3.3801573584.45488361-2.0641438391,1.8524358693-4.318537008,5.8734371677-4.318537008,3.7678115126,0,5.9749994246,2.3230553606,5.9749994246,5.8276646468v3.9838095053h16.04967478v-4.5302422495c0-14.0069888989-12.5836889998-16.1970143324-21.6856570201-16.1970143324-11.4293137448,0-20.7801815281,3.7878360526-22.4838502247,14.275913543-.4663277634,2.8680584384-.5292685605,5.4357177415.147336142,8.6742617167,2.7893817598,13.1444252305,25.6437188855,16.9422771341,28.9566464471,25.2675092257.6293991046,1.5549015239.4291359702,3.5489521405.1273105788,4.7562537059-.5235437555,2.1428232461-1.9797444018,4.3285542232-6.2653795116,4.3285542232-4.0210017674,0-6.46135322-2.3287767552-6.46135322-5.8319536465l-.0157351993-6.2324812796h-17.2455335562l-.0057213946,4.9565175224c0,14.3474367731,11.2876989974,18.6802769265,23.3735911994,18.6802769265"/></g><g id="g166"><path id="path168" class="cls-2" d="M251.322441562,167.7546431665c-.3118385992-1.2845461901-.2331637325-2.6234495507-.0801053326-3.3386758835.4563143103-2.0426858811,1.8424225868-4.275621774,5.8162187989-4.275621774,3.7406331831,0,5.9206427656,2.291584621,5.9206427656,5.7690142135v3.9366049305h15.8923234691v-4.4773159392c0-13.8682351898-12.4621004976-16.0339399217-21.4739504144-16.0339399217-11.3077259247,0-20.5684735582,3.740632501-22.2521160096,14.128577401-.4648967326,2.8408782331-.5292671963,5.3827921132.1487671727,8.5841442952,2.7521899666,13.0214077439,25.384807364,16.7792044286,28.6648334962,25.0229018728.615094936,1.5448884012.4234145756,3.5088982859.1215885022,4.7104784567-.517823043,2.1170687853-1.9568588235,4.2741900612-6.201010881,4.2741900612-3.985240195,0-6.4041353948-2.2958753259-6.4041353948-5.7718749108l-.0100109378-6.1638163594h-17.0767389126l-.004291728,4.9093112424c0,14.2029623516,11.1818456945,18.4885952019,23.1461487123,18.4885952019,11.5194332125,0,20.9918867696-3.9251604361,22.5038764699-14.5577133712.7724455648-5.4929371441.2074162418-9.0905238669-.0686621918-10.4394415439-2.6921112309-13.3361042268-26.8481599241-17.3084702608-28.6433775845-24.7654179716"/></g><g id="g170"><path id="path172" class="cls-2" d="M340.5441987539,151.0139244611h-16.2771165849v47.5768419095c.0057213946.825370511-.0171655479,1.7623150373-.1530589007,2.4560852878-.3189902572,1.5820788302-1.6936555739,4.6604128436-6.1652487543,4.6604128436h-.0014310307c-4.4758862726,0-5.8577026505-3.0783340133-6.1695418466-4.6604128436-.1373243835-.6937702504-.1702230845-1.6307147768-.1544885673-2.4560852878v-47.5768419095h-16.2656737958v46.110631551c-.0314690344,1.1858429252.0915477701,3.6047405124.1487671727,4.2327079041,1.1271965844,12.0029237954,10.6153860229,15.8923261975,22.4423667035,15.8923261975,11.8212579218,0,21.3094487245-3.889402402,22.4309225501-15.8923261975.0643703572-.6279673918.1859587954-3.0468649789.1645020203-4.2327079041l.0000010338-46.110631551Z"/></g><g id="g174"><path id="path176" class="cls-2" d="M452.2186181583,179.2164218012v9.3766147411h6.5929550579v9.3394229479c.0114434713.8139277218-.0200262452,1.7136818192-.1530582186,2.438921104-.2903819201,1.7208342445-1.9153756433,4.6689962996-6.5729281306,4.6689962996-4.650400403,0-6.2739641187-2.9481620551-6.57578951-4.6675666331-.1230188508-.7252392848-.1544885673-1.6249933822-.1501975213-2.4403521347v-29.4000845395c0-1.0470916035.075813935-2.1971751305.2603425522-3.0440029174.3547523838-1.5863719224,1.7308473671-4.6661356023,6.4069960921-4.6661356023,4.9178950396,0,6.1395011145,3.2485570978,6.4298830346,4.6661356023.1916796784.9269327679.2074148777,2.456086652.201692801,2.4503652574v3.6047398303h16.2198985466v-2.1428177893c-.0114441534,0,.0572180384-2.1857316592-.1487671727-4.234139617-1.1858456536-12.060143198-11.1704022233-15.8908938026-22.5739683282-15.8908938026-11.4107185303,0-21.1406553065,3.8679437619-22.5739683282,15.8908951667-.1330326555,1.0742702741-.2717867056,3.0912078332-.2717867056,4.2341389349l-.004291728,27.0555746312c.004291728,1.2115932934.0371917932,2.0956128736.2231507591,4.2341389349,1.0742702741,11.7154039368,11.2161761083,15.8951868948,22.621173244,15.8951868948,11.3978440283,0,21.5540553953-4.1812126245,22.616881516-15.8951868948.1945410578-2.1385260613.2217197283-3.0225456415.2331638817-4.2341389349v-17.2398114795h-22.7813818417Z"/></g></g><rect class="cls-1" width="500" height="500"/></svg>