<?xml version="1.0" encoding="UTF-8"?>
<svg width="140px" height="80px" viewBox="0 0 140 80" version="1.1" xmlns="http://www.w3.org/2000/svg" xmlns:xlink="http://www.w3.org/1999/xlink">
    <!-- Generator: Sketch 52.5 (67469) - http://www.bohemiancoding.com/sketch -->
    <title>im/logo-pay/samsung-pay</title>
    <desc>Created with Sketch.</desc>
    <g id="im/logo-pay/samsung-pay" stroke="none" stroke-width="1" fill="none" fill-rule="evenodd">
        <path d="M57.4653353,50.1938638 C58.288551,49.3578638 58.677649,48.2227149 58.677649,46.9978213 C58.677649,45.6621617 58.2869431,44.4752681 57.4910608,43.6287574 C56.8053157,42.9002894 55.8164922,42.4313532 54.6266882,42.4313532 C53.5164725,42.4313532 52.5501588,42.7782043 51.7550804,43.596417 C50.9431196,44.4453532 50.631198,45.6532681 50.631198,46.8587574 C50.631198,48.1459064 50.9350804,49.3958638 51.728551,50.243183 C52.5244333,51.0937362 53.5068255,51.3920766 54.6508059,51.3920766 C55.8084529,51.3920766 56.7514529,50.9190979 57.4653353,50.1938638 Z M54.7223549,39.7511404 C56.4073745,39.7511404 58.2049431,40.3195234 59.6640608,41.8379064 C61.0138451,43.2439064 61.7269235,44.9514809 61.7269235,46.9711404 C61.7269235,47.8960766 61.547649,48.8105021 61.1931196,49.6877362 C60.8530608,50.5690128 60.3634725,51.3419489 59.7348059,51.9855234 C59.0715706,52.6808426 58.3142765,53.210417 57.4846294,53.5645447 C56.6557863,53.9178638 55.8808059,54.0973532 54.8638451,54.0973532 C54.1274529,54.0973532 53.4103549,53.9801191 52.7350608,53.7505021 C52.0710216,53.5330128 51.1400804,53.0002043 50.805649,52.4196936 L50.805649,58.9734809 L47.8118451,58.9734809 L47.8118451,40.0567574 L50.8514725,40.0567574 L50.8514725,41.4482043 C51.2727275,40.7722894 52.0903157,40.2879915 52.7350608,40.0729277 C53.3773941,39.8586723 54.0470608,39.7511404 54.7223549,39.7511404 Z M86.6624804,49.7769957 L90.5237157,40.0578894 L93.7474412,40.0578894 L85.7395784,58.9738043 L82.5890098,58.9738043 L85.1575392,53.0053787 L79.265598,40.0578894 L82.4724412,40.0578894 L86.6624804,49.7769957 Z M73.5147451,50.2435872 C74.3074118,49.3954596 74.6137059,48.1446936 74.6137059,46.8583532 C74.6137059,45.6528638 74.2993725,44.4457574 73.4866078,43.5960128 C72.6939412,42.7786085 71.7268235,42.4317574 70.6166078,42.4317574 C69.4268039,42.4317574 68.4403922,42.9006936 67.7538431,43.6275447 C66.9563529,44.4756723 66.5648431,45.662566 66.5648431,46.9966085 C66.5648431,48.2206936 66.9563529,49.3582681 67.7771569,50.1950766 C68.4918431,50.9178851 69.4340392,51.3932894 70.594098,51.3932894 C71.7372745,51.3932894 72.7188627,51.0941404 73.5147451,50.2435872 Z M74.3918235,41.4469915 L74.3918235,40.0579702 L77.431451,40.0579702 L77.431451,53.8455021 L74.4368431,53.8455021 L74.4368431,52.4176723 C74.1032157,53.0006085 73.1714706,53.533417 72.5082353,53.7517149 C71.8329412,53.9813319 71.117451,54.0977574 70.379451,54.0977574 C69.3624902,54.0977574 68.5875098,53.9182681 67.7586667,53.5657574 C66.9298235,53.2108213 66.1733333,52.6812468 65.510098,51.9851191 C64.8806275,51.3399277 64.3886275,50.5686085 64.0509804,49.6881404 C63.6972549,48.8109064 63.5163725,47.8972894 63.5163725,46.9715447 C63.5163725,44.9518851 64.2302549,43.2443106 65.5784314,41.8383106 C67.0391569,40.3199277 68.8383333,39.7507362 70.522549,39.7507362 C71.1978431,39.7507362 71.8675098,39.8598851 72.5098431,40.0749489 C73.1521765,40.2883957 73.9705686,40.7718851 74.3918235,41.4469915 Z M96.7955098,31.1852128 L96.639549,22.0223617 L99.5280392,22.0223617 L99.5280392,33.5792128 L95.3749804,33.5792128 L92.5001569,24.0945745 L92.427,24.0945745 L92.5901961,33.5792128 L89.7258235,33.5792128 L89.7258235,22.0223617 L94.0509216,22.0223617 L96.7344118,31.1852128 L96.7955098,31.1852128 Z M46.9476294,22.0230894 L49.1021392,33.6907064 L45.9620216,33.6907064 L44.4072373,23.0976 L44.3397078,23.0976 L42.7439235,33.6907064 L39.5973745,33.6907064 L41.7542961,22.0230894 L46.9476294,22.0230894 Z M54.4082627,23.194783 L54.3351059,33.6900596 L51.4216941,33.6900596 L51.6837725,22.0232511 L56.4397725,22.0232511 L57.869949,30.945166 L57.9310471,30.945166 L59.3732824,22.0232511 L64.1260667,22.0232511 L64.3849294,33.6900596 L61.4658902,33.6900596 L61.3871059,23.194783 L61.3284196,23.194783 L59.3821255,33.6900596 L56.4285176,33.6900596 L54.4733804,23.194783 L54.4082627,23.194783 Z M86.4465471,31.1583702 C86.2487824,33.3348809 84.520351,34.0366681 82.3779,34.0366681 C80.2314294,34.0366681 78.5150569,33.3348809 78.3156843,31.1583702 C78.3020176,31.0419447 78.2859392,30.6045404 78.2867431,30.385434 L78.2867142,22.0213915 L81.2387431,22.0213915 L81.2387431,30.6530511 C81.2282922,30.8050511 81.2443706,30.9732213 81.2596451,31.0993489 C81.3159196,31.3839447 81.568351,31.9361574 82.3779,31.9361574 C83.1914686,31.9361574 83.4414882,31.3839447 83.4993706,31.0993489 C83.5226843,30.9732213 83.5259,30.8050511 83.5259,30.6530511 L83.5259,22.0213915 L86.4843314,22.0213915 L86.4843314,30.385434 C86.4843314,30.6045404 86.4586059,31.0419447 86.4465471,31.1583702 Z M32.3742196,25.0273532 C32.7046314,26.3961617 37.1318275,27.1125021 37.6246314,29.5630979 C37.6712588,29.8105021 37.7773765,30.4694383 37.6310627,31.4816936 C37.3553176,33.4285872 35.6244745,34.1433106 33.5069451,34.1433106 C31.3186706,34.1433106 29.2759059,33.3614809 29.2759059,30.7548426 L29.2759059,29.8565872 L32.3991412,29.8565872 L32.4079843,30.9876936 C32.4079843,31.6239915 32.8485333,32.0476511 33.5752784,32.0476511 C34.3574941,32.0476511 34.6179647,31.6490553 34.7128275,31.2609702 C34.7658863,31.0410553 34.8004549,30.6804596 34.6879059,30.3958638 C34.0913961,28.8888 29.9423569,28.2023745 29.438298,25.8108 C29.3217294,25.2230128 29.3329843,24.7573106 29.4109647,24.2455234 C29.726102,22.3390553 31.4175529,21.6477787 33.4852392,21.6477787 C35.138102,21.6477787 37.4204353,22.0463745 37.4204353,24.5899489 L37.4204353,25.4113957 L34.5134549,25.4113957 L34.5134549,24.6829277 C34.5134549,24.0571404 34.1139059,23.6286298 33.4273569,23.6286298 C32.7006118,23.6286298 32.4457686,24.0361191 32.3621608,24.4169277 C32.3308078,24.5470979 32.3179451,24.7856085 32.3742196,25.0273532 Z M71.4295333,34.0844511 C69.2573373,34.0844511 67.2322588,33.3131319 67.2322588,30.7307489 L67.2322588,29.8357277 L70.3329843,29.8357277 L70.3329843,30.9587489 C70.3329843,31.5918128 70.7679059,32.0025362 71.4906314,32.0025362 C72.2567686,32.0025362 72.5236706,31.6168766 72.6169255,31.2336426 C72.6611412,31.0137277 72.7109843,30.6571745 72.5912,30.3806638 C71.9979059,28.8792596 67.897102,28.2033447 67.3978667,25.836834 C67.2700431,25.2474298 67.2804941,24.7865787 67.3729451,24.2804511 C67.6728078,22.3844936 69.3562196,21.7142383 71.4078275,21.7142383 C73.0373765,21.7142383 75.2931804,22.1096 75.2931804,24.6248766 L75.2931804,25.4309617 L72.4191608,25.4309617 L72.4191608,24.7130043 C72.4191608,24.0920681 72.0260431,23.6724511 71.3419059,23.6724511 C70.6215922,23.6724511 70.3715725,24.0815574 70.2895725,24.4502383 C70.2638471,24.5787915 70.2485725,24.8221532 70.3072588,25.0501532 C70.6264157,26.4100681 75.0045725,27.1280255 75.4909451,29.5422383 C75.5448078,29.7928766 75.6477098,30.4485787 75.5070235,31.4422383 C75.2304745,33.3737702 73.5108863,34.0844511 71.4295333,34.0844511 Z M106.716545,27.1295617 L110.842271,27.1295617 L110.842271,30.266583 C110.842271,30.4848809 110.833427,30.646583 110.804486,31.0346681 C110.609937,33.1513489 108.767349,33.9153915 106.698055,33.9153915 C104.635192,33.9153915 102.803055,33.1513489 102.610918,31.0346681 C102.569114,30.646583 102.567506,30.4848809 102.567506,30.266583 L102.567506,25.3573064 C102.567506,25.1454766 102.591624,24.7767957 102.618153,24.5900298 C102.872996,22.3973489 104.635192,21.7076894 106.698055,21.7076894 C108.767349,21.7076894 110.584212,22.3916894 110.79082,24.5900298 C110.833427,24.9530511 110.817349,25.3573064 110.817349,25.3573064 L110.819761,25.7381149 L107.880624,25.7381149 L107.880624,25.0856468 C107.880624,25.0856468 107.880624,24.8067106 107.843643,24.642583 C107.791388,24.3887106 107.568702,23.7976894 106.676349,23.7976894 C105.840271,23.7976894 105.587035,24.3571787 105.517898,24.642583 C105.480918,24.792966 105.474486,25.0056043 105.474486,25.1923702 L105.474486,30.5301574 C105.474486,30.6805404 105.480918,30.8446681 105.495388,30.9732213 C105.555682,31.2942 105.847506,31.8205404 106.693231,31.8205404 C107.534133,31.8205404 107.829173,31.2942 107.880624,30.9732213 C107.902329,30.8446681 107.910369,30.6805404 107.909565,30.5301574 L107.909565,28.8436043 L106.716545,28.8436043 L106.716545,27.1295617 Z" id="Combined-Shape" fill="#1428A0"></path>
    </g>
</svg>