<?xml version="1.0" encoding="UTF-8"?><svg id="Layer_1" xmlns="http://www.w3.org/2000/svg" viewBox="0 0 500 500"><defs><style>.cls-1{fill:none;}.cls-1,.cls-2,.cls-3,.cls-4{stroke-width:0px;}.cls-2{fill:#0062a5;}.cls-2,.cls-3,.cls-4{fill-rule:evenodd;}.cls-3{fill:#005da1;}.cls-4{fill:#a4aab6;}</style></defs><path class="cls-3" d="M245.3750001751,309.5295811754l-.1808196511,6.7404014927h-21.1835512866v-33.2458609647h7.5770063736v26.505459472h13.7873645642Z"/><path class="cls-3" d="M264.5954784514,304.7436255656c-.6666154663-.2650113561-2.005158568-.5775233881-3.8338625231-.5775233881-3.0765695638,0-4.5052754135,1.1977088483-4.5052754135,3.5450699443,0,2.6177875704,1.5620454147,3.5499291379,3.8435603204,3.5499291379,2.3570794831,0,4.4955776162-1.4200787221,4.4955776162-3.1472749478v-3.3702007463ZM265.6290865687,313.6986045139l-.138157579-.0469447511c-1.647884304,1.9501014344-4.2337988592,3.0619919832-7.3200868101,3.0619919832-5.1243902039,0-8.3774555602-2.8822635917-8.3774555602-8.912337466,0-4.9651486665,3.4770618246-8.3779908951,9.6302215421-8.3779908951,2.0046232331,0,3.7431438505.312512032,5.1718702899.7529485108v-1.548003169c0-2.7073738038-1.4287264394-3.9471887995-5.1243902039-3.9471887995-2.9858920708,0-4.9484297463.4447603375-7.4534057854,1.4621848695l-.5807559872-5.4951919685c2.7284371725-1.155067366,5.8006828776-1.7746969015,9.2820685609-1.7746969015,7.9818019032,0,10.7485772891,3.4123068937,10.7485772891,10.7723173321v16.6231981498h-5.3100690486l-.5284167076-2.5702868946Z"/><path class="cls-3" d="M286.4170047881,316.8032585692c-3.2622484085,0-6.2055195869-.6201854602-8.4773161054-1.8599798661l.7097716936-5.6754762848c2.2383586783,1.2829918129,5.4056057351,1.9031566832,7.7200231461,1.9031566832,2.7667753859,0,3.9245400161-1.1075666902,3.9245400161-2.7030499452,0-4.3023423138-12.5302953135-1.8173383838-12.5302953135-11.2127538109,0-4.8323856159,3.3005866219-8.2927079305,10.2584987949-8.2927079305,2.7143949267,0,5.400705362.5348819058,7.667642687,1.4627202044l-.5764321285,5.6279550191c-2.2334994847-.9278177088-5.2199268904-1.3725780463-7.2245501235-1.3725780463-2.2717965186,0-3.529421694.8895000852-3.529421694,2.2620987213,0,4.0756485813,12.3586587145,1.6381247373,12.3586587145,10.9056363074,0,5.3624083281-2.9907512644,8.9549789483-10.3011196874,8.9549789483Z"/><path class="cls-3" d="M310.3289726574,294.5493875463v13.7403992232c0,2.0872089335,1.0714109959,2.9724057498,3.2098679493,2.9724057498.7146308872,0,1.647884304-.1327836404,2.1433573266-.3125326218l.3999775157,5.0078107386c-.9381126104.4020982654-2.7192541203.7572517797-4.6434947619.7572517797-5.3909869749,0-8.0249581306-3.1051688004-8.0249581306-8.2025657724v-13.9627690971h-3.0334133365v-5.1405737892h3.3432075144l1.1572292953-6.0770392153,5.4482266276-.4879371547v6.56497637h6.0246999357v5.1405737892h-6.0246999357Z"/><path class="cls-3" d="M440.7723348627,316.2694473332v-21.7632366041h-3.3912229353v-5.097396972h3.3912229353v-1.155067366c0-4.033007099,2.8099727929-7.3557071695,9.2723707636-7.3557071695,1.524263126,0,3.2087972796.218066605,4.3746742922.5732201192l-.4048367092,4.4345906193c-.8041965308-.1797489814-1.6893933471-.2650319459-2.5886324092-.2650319459-2.7100710681,0-3.7431438505,1.060621939-3.7431438505,2.7926773582v.9753183846h5.7542734614v5.097396972h-5.7542734614v21.7632366041h-6.9104320869Z"/><path class="cls-3" d="M423.7297841925,316.2694473332v-26.6857643781l7.0917458933-.312512032v26.99827641h-7.0917458933ZM427.2969675854,286.5260148306c-2.6766332278,0-3.9671609086-.7572723695-3.9671609086-2.924905074,0-1.9074805419,1.2905276808-2.9724057498,3.9671609086-2.9724057498,2.7241133138,0,3.9245400161,1.0222837256,3.9245400161,2.9724057498s-1.2004267023,2.924905074-3.9245400161,2.924905074Z"/><path class="cls-3" d="M400.4903204732,316.2694473332v-26.6857643781l5.5248618749-.2650113561.6282772528,4.4777674365h.1284803716c1.700182404-3.2379524408,4.3341535596-4.8329209508,7.4107231235-4.8329209508,1.204750561,0,2.2286402912.1797489814,2.9384119848.3977949965l-.4474576017,6.7824870503c-.8382108856-.2650113561-1.8670009889-.4447397477-2.9432299988-.4447397477-3.6103807999,0-6.2821548341,2.6172316457-6.2821548341,7.0949990822v13.4753878671h-6.957912173Z"/><path class="cls-3" d="M386.2992104593,316.2694473332v-17.1105999696c0-2.7500152861-1.3812051738-4.1701145981-4.3244351726-4.1701145981-2.0095236062,0-3.7480442236.8900560099-4.5954381614,2.0402641823v19.2404503853h-6.9152912805v-34.4862112953l6.9152912805-.3546181794v6.114821504l-.090677493,3.5456052792.1332983855.0944660168c2.0100589411-1.6899492718,4.4529567237-2.3095788073,6.738795488-2.3095788073,5.705681526,0,9.0488890404,3.814940494,9.0488890404,10.2849155123v17.1105999696h-6.9104320869Z"/><path class="cls-3" d="M363.5007391435,295.9656983345c-1.3806698389-.4874018198-3.0333721569-.842555334-4.5953969818-.842555334-5.0342480458,0-6.6912742224,2.0828850748-6.6912742224,7.7578054349,0,5.7650625182,2.3667978702,8.0228373808,6.5579346573,8.0228373808,1.7855065481,0,3.481406273-.3551535142,4.9100915329-1.017424532l.4949788673,5.3624083281c-1.604686897.9753389744-4.0195413678,1.5528623625-6.9196151391,1.5528623625-7.9823372381,0-12.2253191494-4.5252681123-12.2253191494-13.9206835395,0-8.912337466,3.7048468167-13.9201276148,12.3586587145-13.9201276148,2.2717965185,0,4.8194140399.4874018198,6.5104545713,1.155067366l-.4005128506,5.8498101479Z"/><path class="cls-3" d="M329.7313206648,316.8032585692c-3.2579245499,0-6.2011545486-.6201854602-8.4772749258-1.8599798661l.7140955523-5.6754762848c2.23399364,1.2829918129,5.400705362,1.9031566832,7.7200231461,1.9031566832,2.7673107208,0,3.9244988365-1.1075666902,3.9244988365-2.7030499452,0-4.3023423138-12.5302541338-1.8173383838-12.5302541338-11.2127538109,0-4.8323856159,3.2956862488-8.2927079305,10.2584576153-8.2927079305,2.7143949267,0,5.395887348.5348819058,7.6676838666,1.4627202044l-.5764321285,5.6279550191c-2.2334994847-.9278177088-5.2193915556-1.3725780463-7.2245501235-1.3725780463-2.2766557121,0-3.5288863591.8895000852-3.5288863591,2.2620987213,0,4.0756485813,12.3586175349,1.6381247373,12.3586175349,10.9056363074,0,5.3624083281-2.9907512644,8.9549789483-10.3059788809,8.9549789483Z"/><path class="cls-3" d="M467.6270385755,294.5493875463v13.7403992232c0,2.0872089335,1.0686931418,2.9724057498,3.2061206052,2.9724057498.712448368,0,1.6516316482-.1327836404,2.1427808121-.3125326218l.3994421808,5.0078107386c-.9337887517.4020982654-2.7149302616.7572517797-4.6418475777.7572517797-5.3920988243,0-8.0260699799-3.1051688004-8.0260699799-8.2025657724v-13.9627690971h-3.0388078649v-5.1405737892h3.3464607033l1.1604413046-6.0770392153,5.4514798165-.4879371547v6.56497637h6.0181935579v5.1405737892h-6.0181935579Z"/><path class="cls-3" d="M245.9509175586,264.4011389243c-8.3580187861,0-16.0397448984-2.0024613038-22.2884207126-5.3440422237l2.1147375003-13.8445836271c6.3436771659,3.3416015098,12.8730331764,5.2539206554,19.9788213155,5.2539206554,7.8771027543,0,11.339607588-2.8633621524,11.339607588-7.8285108189,0-11.2651136803-33.1422324855-6.494270986-33.1422324855-30.4580633898,0-12.1216906703,7.8771027543-21.9575425762,26.1271012496-21.9575425762,7.0151312359,0,14.6013000718,1.434110673,20.1736832123,3.7253542606l-2.0143416202,13.5557910483c-5.9583184104-1.907470247-11.9112011128-3.052808931-17.3880475668-3.052808931-8.9344715044,0-11.3347278047,3.052808931-11.3347278047,6.8720938735,0,11.1706476635,33.1373527022,6.0160316286,33.1373527022,30.2642721627,0,14.1284758327-9.8962829782,22.8141195662-26.7035333782,22.8141195662Z"/><path class="cls-3" d="M335.1077712386,249.0317774261v14.0340304057h-48.9870948972v-71.5988269935h48.9870948972v14.2229315546h-32.7514174322v14.2234771843h26.6031374981v12.7936800751h-26.6031374981v16.3247077737h32.7514174322Z"/><path class="cls-3" d="M375.2786418709,204.9261645304h-9.6107847679v21.9569969465h9.6107847679c7.972618851,0,11.4254052977-2.0019259689,11.4254052977-10.9763416914,0-8.5949662405-3.0668511768-10.9806552551-11.4254052977-10.9806552551ZM375.2786418709,239.7718429036h-9.6107847679v23.2966621924h-16.2302829366v-71.6036861871h25.8410677045c19.9788213155,0,28.1419782047,7.8285211138,28.1419782047,24.5370022281,0,15.084378033-8.063296344,23.7700217665-28.1419782047,23.7700217665Z"/><path class="cls-3" d="M437.9257122203,211.129511893l-7.2056486843,24.5364565983h18.3498384508l-6.9201092944-24.5364565983-1.9193402685-7.5403050495h-.2903985834l-2.0143416202,7.5403050495ZM452.9080883685,249.1273141127h-26.1265659147l-4.0341189484,13.9395643889h-17.0970724689l24.8791944613-71.5993623284h19.3068525004l25.1636220018,71.5993623284h-18.0600163818l-4.0318952496-13.9395643889Z"/><path class="cls-4" d="M100.4780076733,247.9895215915c-.228310032.3028142347-.5759173835.4544787246-.9332225321.5300433021-.3999569259.0475006758-.8144914324-.0426414823-1.1572292953-.2979344513l-18.5312140266-13.8354005749-24.7982456503-18.5112419175-18.5355275903-13.8397141386c-.3378786694-.2558488937-.5381350947-.6250343588-.6093758135-1.0228293554-.0237503379-.359467078.0286095315-.7335220315.2569195635-1.0363156764l5.0531288953-6.6880313284s5.5480871728-7.1327916659,10.4204067118-13.5747027825l20.8548350796,15.5723151876,22.5933659919,16.8687830267,20.8596839783,15.5723151876c-4.8723092441,6.4418905268-10.4203964169,13.5746924876-10.4203964169,13.5746924876l-5.0531288953,6.6880210335ZM65.6215299483,163.6585574444l18.4211100543,13.7592903676,12.4541748113,9.2961005117,12.4444564242,9.3004140755,18.4308284414,13.7501279052c.7092363587.5251635187.8571123249,1.5145241491.3330194759,2.2054149933l-4.419457114,6.0489547238-20.8548453745-15.5723048927-22.5933659919-16.8687830267-20.8548350796-15.5723048927,4.4146082154-6.0489753136c.5192439503-.6908805493,1.5193936375-.8236538948,2.2243061376-.2979344513ZM129.4819779862,207.0851598124l-30.9324936336-23.0883139745-30.92763444-23.0980323616c-2.1573789825-1.6046766021-5.2150676969-1.1782720741-6.8294523912.9564375352l-27.227111482,36.0239504474c-.4334256509.5635017322-.6908805492,1.1879904612-.8430906689,1.8367648631-.466884081,1.8362295282.1808093562,3.8667650285,1.7952043454,5.0785058276l18.43567734,13.7592903676,24.903490429,18.5922010234,18.4259692478,13.754441469c1.6192438878,1.2117305042,3.7620555847,1.2635550387,5.4050498104.2984697862.5861711054-.3173712255,1.1145775181-.7432301237,1.5431439755-1.3067318559l27.2271217769-36.0196368836c1.6149200292-2.1347096093,1.1766454797-5.1778001532-.9758743093-6.7873462438Z"/><path class="cls-3" d="M29.3098987715,336.9677381396l21.7265249851-71.7030011025h58.8688414744l-5.0720200396,6.7495845448-7.3055092295,10.0296019535-.8285130883,1.4816216437-.7669804616,1.722872367-.7858819009,1.9404036371-.8187947012,2.0591450318-.7858819009,2.243197282-.7761532189,2.2059503281-.728662838,2.219457239-.7194900807,2.1773510916-.6476934372,2.0640042253-.5953438627,1.9026213484-.5284167076,1.6613294454-.3999569259,1.386620292-.3098147677,1.0557627455-.2569195635.6579471591s-.0431768172.1419461028-.1716365989.312512032c-.1473509261.2034890244-1.0379422709,1.0125653385-1.7622812502.4776834327-.6952044079-.5160010563-.6239533942-2.3333394401-.5521670455-3.1996348172.2191372747-2.6550345243.433415356-5.3106043835.6525526307-7.9613150491.0663918202-.9321415675-1.0767952294-1.4578610109-1.8146308247-1.0363053815-3.2530756512,1.8599798661-5.1913070641,4.1128955352-6.96763056,6.6880210335.1667877003-.6012634311.3335651057-1.2068713107.4954936124-1.8081553316.7524131759-2.7359936302,1.8049227325-5.5664326874,2.2097388519-8.3779908951.228310032-1.6041309723-.1808196511-3.5116115143-2.0672471193-3.8192643527-2.1239102575-.3551535142-3.5143087785,1.8648390596-4.5527863842,3.3270239292-3.1478102827,4.4113653214-5.0007793208,10.0155802975-8.9058619729,13.8542814244-1.4713576268,1.4438393549-3.1003199018,2.5087645628-5.2101982085,1.9123397354-2.4526264646-.691426179-3.405275476,2.172491898.9191905813,2.5605685075,4.2532253384.3783582224,7.4150778668-4.0848316335,9.3441468173-7.2040426796,1.4001066131-2.266937325,2.6334358208-4.6337351952,3.9957601451-6.9195739595.6568764894-1.0984042278,1.3380386515-2.1822102851,2.0904518275-3.2190715913.3287059121-.439901144.9429409192-1.6230324116,1.514534444-1.779556095.7524131759-.2083482179.557561574.2223698738.5143847568.8144708426-.0998605452,1.3342604227-.67145407,2.7073943937-1.02391032,3.9946894754-.3810657815,1.4055217313-.7669804616,2.8115582077-1.1523598069,4.2170593492-.8241995245,3.0150472321-1.6430045207,6.0300944642-2.4671937503,9.0402619129-.3713473944,1.3682747775,1.4384242367,2.0024818936,2.2005557997.9229791051,3.0285335531-4.2883000681,4.5387544334-7.9229768356,8.2722004866-10.7912187714-.0809694008.9418805443-.1570693132,1.8837404989-.2331795205,2.830459647-.1241359231,1.5571656314-.4236969689,3.203938086-.318987525,4.7611243072.1808196511,2.5465468516,2.1142021654,4.3120607009,4.5479271907,3.1996348172,1.2716468313-.5867064403,2.185988514-1.4719032566,2.185988514-1.4719032566l.1430270675-.1041638141.5143847568-.3832174159.9380817257-.6153262666,1.2716468313-.8711545706,1.4141488588-1.0503476273,1.5625704547-1.098383638,1.8378458277-1.282456478,1.867000989-1.3682541876,1.8621315005-1.362880249,1.866990694-1.3677188528,1.8146411196-1.3731133812,1.7050621873-1.282456478,1.571218172-1.273252836,1.3763562752-1.0600866041,1.0956863738-1.0131006734.8522737211-.8139355077.0334584301-.0475006758.0188911444.0188808495,5.8055523661-6.8154101455,14.8349943374-19.7186691529h26.337076062l20.487801249,71.7030011025H29.3098987715ZM135.0467840791,262.1595682367l46.653240712-62.0047817355,4.7578917081-6.2335628987c.4906344189-.6671302113.4188377753-1.2775869895-.0475006758-1.6138596543l-13.2065879872-9.5087622934c-.4620145925-.3362623699-1.0665312125-.2034787295-1.4098250002.2553032639-.0318318356.0442577818-.6746866691.863062778-1.9285233207,2.4564046935l-57.6263395094,76.6492586246h-63.4604808171l-23.7786591889,77.9133592931h158.7764446678l-22.4314374852-77.9133592931h-26.2982231035Z"/><path class="cls-2" d="M192.4404896978,196.8488156457l-1.7428444761-1.3018726623c-.3481323914-.2601624575-.8479498625-.1894467786-1.1097286195.1565236834l-22.1745179217,29.3267360668c-.2666379506.3405965234-.1905380382.8376961405.1527557495,1.0978688929l1.7477036696,1.3018726623c.3475970565.2601521626.8382314754.1889114438,1.104869426-.1565442732l22.1788417803-29.3267257719c.2623140919-.3454454221.1905174484-.8376961405-.1570796081-1.097858598Z"/><path class="cls-3" d="M103.3597256352,321.7122794324h44.124514335l-.9380920206-3.4738292255H60.1733033207l-.9332225321,3.4738292255h44.1196448466Z"/><rect class="cls-1" width="500" height="500"/></svg>