<?xml version="1.0" encoding="UTF-8"?>
<svg width="140px" height="80px" viewBox="0 0 140 80" version="1.1" xmlns="http://www.w3.org/2000/svg" xmlns:xlink="http://www.w3.org/1999/xlink">
    <!-- Generator: Sketch 52.5 (67469) - http://www.bohemiancoding.com/sketch -->
    <title>im/logo-pay/sepa-at</title>
    <desc>Created with Sketch.</desc>
    <g id="im/logo-pay/sepa-at" stroke="none" stroke-width="1" fill="none" fill-rule="evenodd">
        <path d="M72.3546078,43.2004769 C70.6340196,43.2004769 69.0526471,42.7883231 67.7663725,42.1004256 L68.2016667,39.2504256 C69.507549,39.9383231 70.8516667,40.3319641 72.3144118,40.3319641 C73.9359804,40.3319641 74.6487255,39.7424769 74.6487255,38.7203744 C74.6487255,36.4014 67.8261765,37.3835538 67.8261765,32.4503744 C67.8261765,29.955041 69.4477451,27.9303231 73.2046078,27.9303231 C74.6487255,27.9303231 76.2104902,28.2255538 77.357549,28.6971436 L76.9428431,31.4877077 C75.7163725,31.095041 74.4908824,30.8592462 73.3634314,30.8592462 C71.5242157,30.8592462 71.030098,31.4877077 71.030098,32.2740154 C71.030098,34.5735026 77.8516667,33.5124256 77.8516667,38.5040667 C77.8516667,41.4125282 75.8144118,43.2004769 72.3546078,43.2004769 Z M90.7082353,40.0366359 L90.7082353,42.9256103 L80.6239216,42.9256103 L80.6239216,28.1864821 L90.7082353,28.1864821 L90.7082353,31.1144308 L83.9660784,31.1144308 L83.9660784,34.0423795 L89.442549,34.0423795 L89.442549,36.6760718 L83.9660784,36.6760718 L83.9660784,40.0366359 L90.7082353,40.0366359 Z M98.977451,30.9571692 L96.9990196,30.9571692 L96.9990196,35.4772205 L98.977451,35.4772205 C100.618627,35.4772205 101.329412,35.0650667 101.329412,33.2176821 C101.329412,31.4482462 100.698039,30.9571692 98.977451,30.9571692 Z M98.977451,38.1304 L96.9990196,38.1304 L96.9990196,42.9261949 L93.6578431,42.9261949 L93.6578431,28.1860923 L98.977451,28.1860923 C103.090196,28.1860923 104.770588,29.7976821 104.770588,33.2371692 C104.770588,36.3424513 103.110784,38.1304 98.977451,38.1304 Z M111.873824,32.2341641 L110.39049,37.285241 L114.167941,37.285241 L112.743431,32.2341641 L112.348333,30.6820103 L112.288529,30.6820103 L111.873824,32.2341641 Z M114.958137,40.0563179 L109.579706,40.0563179 L108.749314,42.9258051 L105.229706,42.9258051 L110.351275,28.1866769 L114.325784,28.1866769 L119.506176,42.9258051 L115.788529,42.9258051 L114.958137,40.0563179 Z M72.2358824,52.4906 L72.1986275,53.8780872 L67.8378431,53.8780872 L67.8378431,47.0341897 L69.3976471,47.0341897 L69.3976471,52.4906 L72.2358824,52.4906 Z M76.1929412,51.5053282 C76.0556863,51.4507641 75.7801961,51.3864564 75.4037255,51.3864564 C74.7703922,51.3864564 74.4762745,51.6329692 74.4762745,52.1162513 C74.4762745,52.6550718 74.7978431,52.8470205 75.267451,52.8470205 C75.7527451,52.8470205 76.1929412,52.5547128 76.1929412,52.1990718 L76.1929412,51.5053282 Z M76.4056863,53.3488154 L76.3772549,53.3390718 C76.0380392,53.7405077 75.5056863,53.9694821 74.8703922,53.9694821 C73.8154902,53.9694821 73.1458824,53.3760974 73.1458824,52.1347641 C73.1458824,51.1126615 73.8615686,50.4101487 75.1282353,50.4101487 C75.5409804,50.4101487 75.8988235,50.4744564 76.1929412,50.5650718 L76.1929412,50.2464564 C76.1929412,49.6891231 75.8988235,49.433841 75.1380392,49.433841 C74.5233333,49.433841 74.1194118,49.5254308 73.6037255,49.7349179 L73.4841176,48.6036872 C74.0458824,48.3659436 74.6782353,48.2383026 75.394902,48.2383026 C77.0380392,48.2383026 77.6076471,48.9408154 77.6076471,50.4559436 L77.6076471,53.8778923 L76.5145098,53.8778923 L76.4056863,53.3488154 Z M80.685098,53.9878974 C80.0135294,53.9878974 79.4076471,53.8602564 78.94,53.6049744 L79.0860784,52.4367179 C79.5468627,52.7007692 80.1988235,52.8284103 80.6752941,52.8284103 C81.244902,52.8284103 81.4831373,52.6004103 81.4831373,52.2720513 C81.4831373,51.386359 78.9037255,51.8978974 78.9037255,49.9637949 C78.9037255,48.9689744 79.5831373,48.2567179 81.0154902,48.2567179 C81.5743137,48.2567179 82.1272549,48.3668205 82.5939216,48.5577949 L82.4752941,49.7163077 C82.0154902,49.5253333 81.4007843,49.4337436 80.9880392,49.4337436 C80.5203922,49.4337436 80.2615686,49.6169231 80.2615686,49.8994872 C80.2615686,50.7384103 82.8056863,50.2366154 82.8056863,52.1444103 C82.8056863,53.248359 82.19,53.9878974 80.685098,53.9878974 Z M85.6071569,49.4067538 L85.6071569,52.2353179 C85.6071569,52.6650103 85.8277451,52.8472154 86.2679412,52.8472154 C86.415,52.8472154 86.6071569,52.8199333 86.7091176,52.7829077 L86.7914706,53.8137795 C86.5983333,53.8966 86.2316667,53.9696769 85.8355882,53.9696769 C84.7257843,53.9696769 84.1836275,53.3304974 84.1836275,52.2811128 L84.1836275,49.4067538 L83.5591176,49.4067538 L83.5591176,48.3486 L84.2473529,48.3486 L84.4855882,47.0975231 L85.6071569,46.9971641 L85.6071569,48.3486 L86.8473529,48.3486 L86.8473529,49.4067538 L85.6071569,49.4067538 Z M89.6014706,53.9878974 C88.9308824,53.9878974 88.325,53.8602564 87.8563725,53.6049744 L88.0034314,52.4367179 C88.4632353,52.7007692 89.1151961,52.8284103 89.5926471,52.8284103 C90.1622549,52.8284103 90.4004902,52.6004103 90.4004902,52.2720513 C90.4004902,51.386359 87.8210784,51.8978974 87.8210784,49.9637949 C87.8210784,48.9689744 88.4995098,48.2567179 89.9328431,48.2567179 C90.4916667,48.2567179 91.0436275,48.3668205 91.5112745,48.5577949 L91.3926471,49.7163077 C90.9328431,49.5253333 90.3181373,49.4337436 89.9053922,49.4337436 C89.4367647,49.4337436 89.1789216,49.6169231 89.1789216,49.8994872 C89.1789216,50.7384103 91.7230392,50.2366154 91.7230392,52.1444103 C91.7230392,53.248359 91.1073529,53.9878974 89.6014706,53.9878974 Z M96.5533333,49.6983795 C96.2690196,49.5980205 95.9288235,49.5249436 95.6072549,49.5249436 C94.5709804,49.5249436 94.2298039,49.9536615 94.2298039,51.1219179 C94.2298039,52.3086872 94.7170588,52.7734564 95.5798039,52.7734564 C95.947451,52.7734564 96.2964706,52.7003795 96.5905882,52.5639692 L96.692549,53.6679179 C96.3621569,53.8686359 95.865098,53.9875077 95.2680392,53.9875077 C93.624902,53.9875077 92.7513725,53.0560205 92.7513725,51.1219179 C92.7513725,49.2872 93.5141176,48.2563282 95.2954902,48.2563282 C95.7631373,48.2563282 96.2876471,48.3566872 96.6356863,48.4940718 L96.5533333,49.6983795 Z M101.246569,53.8779897 L101.246569,50.3556821 C101.246569,49.7895795 100.962255,49.4972718 100.356373,49.4972718 C99.9426471,49.4972718 99.5848039,49.6804513 99.4102941,49.9172205 L99.4102941,53.8779897 L97.9867647,53.8779897 L97.9867647,46.7788103 L99.4102941,46.7057333 L99.4102941,47.9646051 L99.3916667,48.6944 L99.4191176,48.7138872 C99.8328431,48.366041 100.335784,48.2384 100.806373,48.2384 C101.980882,48.2384 102.669118,49.0237333 102.669118,50.3556821 L102.669118,53.8779897 L101.246569,53.8779897 Z M104.167647,53.8779897 L104.167647,48.3845538 L105.304902,48.3299897 L105.434314,49.2517333 L105.460784,49.2517333 C105.810784,48.5852718 106.352941,48.2569128 106.986275,48.2569128 C107.234314,48.2569128 107.445098,48.2939385 107.591176,48.338759 L107.49902,49.7350154 C107.326471,49.6804513 107.114706,49.6434256 106.893137,49.6434256 C106.15,49.6434256 105.6,50.1822462 105.6,51.1039897 L105.6,53.8779897 L104.167647,53.8779897 Z M108.951765,53.8779897 L108.951765,48.3845538 L110.411569,48.3202462 L110.411569,53.8779897 L108.951765,53.8779897 Z M109.686078,47.7551179 C109.135098,47.7551179 108.869412,47.5992205 108.869412,47.1529641 C108.869412,46.7602974 109.135098,46.5410667 109.686078,46.5410667 C110.246863,46.5410667 110.493922,46.7515282 110.493922,47.1529641 C110.493922,47.5544 110.246863,47.7551179 109.686078,47.7551179 Z M112.459804,53.8779897 L112.459804,49.3978872 L111.761765,49.3978872 L111.761765,48.3485026 L112.459804,48.3485026 L112.459804,48.110759 C112.459804,47.2806051 113.038235,46.5966051 114.368627,46.5966051 C114.682353,46.5966051 115.029412,46.6414256 115.269608,46.7145026 L115.186275,47.6274769 C115.020588,47.5904513 114.838235,47.5729128 114.652941,47.5729128 C114.095098,47.5729128 113.882353,47.7911692 113.882353,48.1477846 L113.882353,48.3485026 L115.066667,48.3485026 L115.066667,49.3978872 L113.882353,49.3978872 L113.882353,53.8779897 L112.459804,53.8779897 Z M117.987843,49.4067538 L117.987843,52.2353179 C117.987843,52.6650103 118.208431,52.8472154 118.648627,52.8472154 C118.794706,52.8472154 118.987843,52.8199333 119.089804,52.7829077 L119.172157,53.8137795 C118.97902,53.8966 118.612353,53.9696769 118.216275,53.9696769 C117.106471,53.9696769 116.564314,53.3304974 116.564314,52.2811128 L116.564314,49.4067538 L115.938824,49.4067538 L115.938824,48.3486 L116.627059,48.3486 L116.866275,47.0975231 L117.987843,46.9971641 L117.987843,48.3486 L119.227059,48.3486 L119.227059,49.4067538 L117.987843,49.4067538 Z" id="Combined-Shape" fill="#005DA1"></path>
        <path d="M36.5118627,39.8220821 C36.4648039,39.884441 36.3932353,39.9156205 36.3197059,39.9312103 C36.2373529,39.9409538 36.1520588,39.922441 36.0814706,39.8698256 L32.2667647,37.0217744 L27.1618627,33.2110564 L23.3461765,30.3620308 C23.2765686,30.3094154 23.2353922,30.2334154 23.2206863,30.1515692 C23.2157843,30.0775179 23.2265686,30.0005436 23.2736275,29.9381846 L24.3138235,28.5614154 C24.3138235,28.5614154 25.4559804,27.0930564 26.4589216,25.7669538 L30.7520588,28.9725949 L35.4030392,32.4452103 L39.6971569,35.6508513 C38.6942157,36.9769538 37.5520588,38.4453128 37.5520588,38.4453128 L36.5118627,39.8220821 Z M29.3363725,22.4619282 L33.1285294,25.2943897 L33.1285294,25.2953641 L35.6922549,27.2080308 L38.2540196,29.1226462 L38.2540196,29.1216718 L42.0481373,31.953159 C42.1942157,32.0613128 42.2246078,32.2649538 42.1167647,32.4072103 L41.2069608,33.652441 L36.9138235,30.4468 L32.2628431,26.9741846 L27.9697059,23.7685436 L28.8785294,22.5233128 C28.9853922,22.3810564 29.1912745,22.3537744 29.3363725,22.4619282 Z M42.482451,31.4016718 L36.1148039,26.6487487 L29.7481373,21.8938769 C29.3040196,21.5635692 28.6746078,21.6512615 28.3422549,22.0906974 L22.7373529,29.5065436 C22.6481373,29.6224923 22.5951961,29.7511077 22.5638235,29.8845949 C22.4677451,30.2626462 22.6010784,30.6806462 22.9334314,30.9300821 L26.7285294,33.7625436 L31.855,37.5898256 L35.6481373,40.4213128 C35.9814706,40.6707487 36.4226471,40.6814667 36.7608824,40.4826974 C36.8814706,40.4174154 36.9902941,40.3297231 37.0785294,40.2137744 L42.6834314,32.7989026 C43.0157843,32.3594667 42.9255882,31.7329538 42.482451,31.4016718 Z" id="Fill-31" fill="#A4AAB6"></path>
        <path d="M21.8605882,58.1388615 L26.3331373,43.3782974 L38.4517647,43.3782974 L37.4076471,44.7677333 L35.9037255,46.8324 L35.7331373,47.1373744 L35.5752941,47.492041 L35.4135294,47.8915282 L35.244902,48.3153744 L35.0831373,48.7772205 L34.9233333,49.2312718 L34.7733333,49.6882462 L34.6252941,50.1364513 L34.4919608,50.5612718 L34.3694118,50.9529641 L34.2605882,51.2949641 L34.1782353,51.5804513 L34.1145098,51.7977333 L34.0615686,51.9331692 C34.0615686,51.9331692 34.0527451,51.9624 34.0262745,51.9974769 C33.9958824,52.0393744 33.812549,52.2059897 33.6635294,52.0958872 C33.5203922,51.9896821 33.535098,51.6155282 33.5498039,51.4372205 C33.594902,50.8906051 33.6390196,50.3439897 33.6841176,49.7983487 C33.6978431,49.6064 33.462549,49.4982462 33.3105882,49.5849641 C32.6409804,49.9678872 32.2419608,50.4316821 31.8762745,50.9617333 C31.9105882,50.8379897 31.944902,50.7132718 31.9782353,50.5895282 C32.1331373,50.0263487 32.3498039,49.4436821 32.4331373,48.8649128 C32.4801961,48.5346051 32.3958824,48.1419385 32.0076471,48.0786051 C31.5703922,48.0055282 31.2841176,48.4625026 31.0703922,48.7635795 C30.4223529,49.6716821 30.0409804,50.8253231 29.2370588,51.6155282 C28.9341176,51.9127077 28.5988235,52.1319385 28.1645098,52.0091692 C27.6596078,51.8669128 27.4635294,52.4564 28.3537255,52.5362974 C29.2292157,52.6142462 29.8801961,51.6954256 30.2772549,51.0533231 C30.5654902,50.5866051 30.8194118,50.0994256 31.0998039,49.6288103 C31.235098,49.402759 31.3752941,49.1796308 31.5301961,48.9662462 C31.5978431,48.8756308 31.7243137,48.632041 31.8419608,48.5998872 C31.9968627,48.5570154 31.9566667,48.6456821 31.9478431,48.7674769 C31.9272549,49.0422462 31.8096078,49.3248103 31.7370588,49.5898359 C31.6586275,49.8792205 31.5792157,50.1686051 31.4998039,50.4579897 C31.3301961,51.0786564 31.1615686,51.6993231 30.9919608,52.3190154 C30.9154902,52.6006051 31.2880392,52.7311692 31.444902,52.5090154 C32.0684314,51.6262462 32.3792157,50.8779385 33.1478431,50.2874769 C33.1311765,50.4813744 33.1154902,50.6752718 33.0998039,50.8701436 C33.0743137,51.1907077 33.012549,51.5297846 33.0341176,51.8503487 C33.0713725,52.3745538 33.4694118,52.7379897 33.9703922,52.5090154 C34.2321569,52.3881949 34.4203922,52.2059897 34.4203922,52.2059897 L34.4498039,52.1845538 L34.5556863,52.1056308 L34.7488235,51.9789641 L35.0105882,51.7996821 L35.3017647,51.5833744 L35.6233333,51.3573231 L36.0017647,51.0932718 L36.3860784,50.8116821 L36.7694118,50.5310667 L37.1537255,50.2494769 L37.5272549,49.9669128 L37.8782353,49.7028615 L38.2017647,49.440759 L38.485098,49.2225026 L38.7105882,49.0139897 L38.8860784,48.8464 L38.8929412,48.8366564 L38.8968627,48.8405538 L40.0919608,47.4374769 L43.1458824,43.3782974 L48.567451,43.3782974 L52.785098,58.1388615 L21.8605882,58.1388615 Z M43.6272549,42.7391179 L49.0409804,42.7391179 L53.6586275,58.778041 L20.9733333,58.778041 L25.8684314,42.7391179 L38.9321569,42.7391179 L50.794902,26.9603487 C51.0530719,26.6323145 51.1854248,26.4637504 51.1919608,26.4546564 C51.262549,26.3601436 51.3870588,26.3328615 51.4821569,26.402041 L54.2007843,28.3595282 C54.2968627,28.4287077 54.3115686,28.5544 54.2105882,28.6917846 L53.2311765,29.9750154 L43.6272549,42.7391179 Z M55.4428431,29.2944256 C55.5144118,29.3480154 55.5291176,29.4493487 55.4751961,29.5204769 L50.9095098,35.5576051 C50.8546078,35.6287333 50.7536275,35.6433487 50.6820588,35.589759 L50.3222549,35.3218103 C50.2516667,35.2682205 50.2359804,35.1659128 50.2908824,35.095759 L54.8555882,29.0586308 C54.9095098,28.9875026 55.012451,28.9728872 55.0840196,29.0264769 L55.4428431,29.2944256 Z M37.1045098,54.9984051 L46.1878431,54.9984051 L45.9947059,54.2832256 L37.1045098,54.2832256 L28.2143137,54.2832256 L28.0221569,54.9984051 L37.1045098,54.9984051 Z" id="Fill-33" fill="#005DA1"></path>
        <path d="M36.9179688,70 L36.5039062,68.640625 L34.421875,68.640625 L34.0078125,70 L32.703125,70 L34.71875,64.265625 L36.1992188,64.265625 L38.2226562,70 L36.9179688,70 Z M36.2148438,67.625 C35.8320293,66.393223 35.6165367,65.6966154 35.5683594,65.5351562 C35.5201821,65.3736971 35.4856772,65.2460942 35.4648438,65.1523438 C35.3789058,65.4856788 35.1328145,66.3098893 34.7265625,67.625 L36.2148438,67.625 Z M40.5859375,70 L39.375,70 L39.375,65.296875 L37.8242188,65.296875 L37.8242188,64.2890625 L42.1367188,64.2890625 L42.1367188,65.296875 L40.5859375,65.296875 L40.5859375,70 Z" id="AT" fill="#005DA1"></path>
    </g>
</svg>