<?xml version="1.0" encoding="UTF-8"?><svg id="Layer_1" xmlns="http://www.w3.org/2000/svg" xmlns:xlink="http://www.w3.org/1999/xlink" viewBox="0 0 500 500"><defs><style>.cls-1{fill:none;}.cls-1,.cls-2{stroke-width:0px;}.cls-2{fill:url(#linear-gradient);}</style><linearGradient id="linear-gradient" x1="-80.1579436635" y1="-1415.8867605579" x2="144.7368356066" y2="-1415.8867605579" gradientTransform="translate(194.7592141628 -577.6424604655) scale(1.7108000517 -.5845400095)" gradientUnits="userSpaceOnUse"><stop offset="0" stop-color="#872166"/><stop offset="1" stop-color="#4f2455"/></linearGradient></defs><path class="cls-2" d="M363.5789365522,197.1638898707l32.0342289705-5.7010051174v122.9109665847h-32.0342289705v-117.2099614674ZM410.3407710295,197.1638898707v117.1420882134h32.0342289705v-122.8430920362l-32.0342289705,5.7010038229ZM318.0387792233,314.3059780841h32.0342289705v-89.8586996454h-32.0342289705v89.8586996454ZM106.355024216,237.1388002408c-4.0721466973-.2714774821-13.4380835834-.8823005223-13.4380835834-9.298066221,0-10.1803667433,13.5059516594-10.1803667433,18.5282669551-10.1803667433,8.8908525869,0,20.4286015627,2.6468963889,28.6407630334,5.0901833717,0,0,4.6151016615,1.6288597145,8.4836389528,3.2577194291l.3393455581.067868076v-27.8263357651l-.4750817102-.135738741c-9.7052850332-3.3934555811-20.9715565269-6.6511724212-41.9431130537-6.6511724212-36.1063679008,0-48.865760368,21.0394246029-48.865760368,39.0247391828,0,10.3839761494,4.4793613023,34.8168511554,45.811650345,37.6673621283,3.5291917332.2036094061,12.8272631322.7465643702,12.8272631322,9.5016756271,0,7.1941299744-7.6013384305,11.4698757218-20.4286015627,11.4698757218-14.0489066236,0-27.622728948-3.5970649872-35.9027610838-6.9905205683v28.7086362874c12.352178833,3.2577194291,26.3332147916,4.8865739656,42.689672246,4.8865739656,35.2919380436,0,51.1054431227-19.8856517765,51.1054431227-39.635567401,0-22.3968068353-17.6459690218-36.9207977581-47.3726419835-38.9568659288ZM299.9855913894,223.1577642822c-29.5909368097.9501685983-44.5899939086,14.2525134407-44.5899939086,40.6535988973v50.5624881586h32.3057012746v-41.2644219375c0-15.8135050792,2.0360733487-22.6004162414,20.8358255528-23.2112341036v-26.3332147916c-3.2577090731-.6108230402-8.5515122068-.4072136341-8.5515122068-.4072136341l-.000020712-.000002589ZM213.1131285129,224.3794103626c-.6786911162,1.7645958666-5.8367477419,16.2885867893-18.256786884,31.2876594222v-64.204178559l-33.0522552888,6.5154349746v116.3276518836h33.0522552888v-35.9706291598c9.5695488811,14.3882495927,14.3203866947,35.9706291598,14.3203866947,35.9706291598h39.567683791c-3.9364001893-16.2885867893-21.0394246029-46.2867320552-21.0394246029-46.2867320552,15.338423369-19.4784329644,22.1253345313-40.2463852632,23.2112444596-43.7077089203h-37.8030931024l-.000010356.067873254ZM333.9880204545,215.8279033338c8.6872380028,0,15.8134947232-7.0583886443,15.8134947232-15.7456344142s-7.0583834663-15.8135024902-15.8134947232-15.8135024902c-8.6872380028,0-15.7456421812,7.0583873498-15.7456421812,15.8135024902,0,8.6872457698,7.0583834663,15.7456344142,15.7456421812,15.7456344142Z"/><rect class="cls-1" width="500" height="500"/></svg>