<?xml version="1.0" encoding="UTF-8"?><svg id="Layer_1" xmlns="http://www.w3.org/2000/svg" xmlns:xlink="http://www.w3.org/1999/xlink" viewBox="0 0 500 500"><defs><style>.cls-1{fill:none;}.cls-1,.cls-2,.cls-3,.cls-4,.cls-5,.cls-6{stroke-width:0px;}.cls-2{fill:url(#linear-gradient);}.cls-2,.cls-3,.cls-4,.cls-5{fill-rule:evenodd;}.cls-3{fill:url(#linear-gradient-3);}.cls-4{fill:url(#linear-gradient-2);}.cls-5{fill:url(#linear-gradient-4);}.cls-6{fill:#4a4a49;}</style><linearGradient id="linear-gradient" x1="-2134.055284053" y1="-636.8583849176" x2="-2134.1282863195" y2="-637.0367608869" gradientTransform="translate(640882.6618347217 236224.4648284938) scale(300.2553100586 370.4731750488)" gradientUnits="userSpaceOnUse"><stop offset="0" stop-color="#ef2131"/><stop offset="1" stop-color="#fecf2c"/></linearGradient><linearGradient id="linear-gradient-2" x1="-2133.3903733027" y1="-636.02869564" x2="-2133.5619552499" y2="-635.7027165407" gradientTransform="translate(584336.536468501 191142.1585846005) scale(273.8318481445 300.1586303711)" gradientUnits="userSpaceOnUse"><stop offset="0" stop-color="#fbc52c"/><stop offset=".2639212036" stop-color="#f87130"/><stop offset=".5607972717" stop-color="#ef52e2"/><stop offset="1" stop-color="#661eec"/></linearGradient><linearGradient id="linear-gradient-3" x1="-1775.8159987859" y1="-686.0277233635" x2="-1775.7464101768" y2="-685.8533438803" gradientTransform="translate(533272.3124389637 254370.9347229041) scale(300.2549438477 370.4732971191)" gradientUnits="userSpaceOnUse"><stop offset="0" stop-color="#78f6d8"/><stop offset=".2657049942" stop-color="#77d1f6"/><stop offset=".5544713593" stop-color="#70a4f3"/><stop offset="1" stop-color="#661eec"/></linearGradient><linearGradient id="linear-gradient-4" x1="-1775.4082427915" y1="-684.6308413712" x2="-1775.2380429504" y2="-684.9557547392" gradientTransform="translate(486212.2909851016 205764.574340825) scale(273.8315734863 300.1583251953)" gradientUnits="userSpaceOnUse"><stop offset="0" stop-color="#536eed"/><stop offset=".246657505" stop-color="#54c3ec"/><stop offset=".5641995239" stop-color="#64d769"/><stop offset="1" stop-color="#fecf2c"/></linearGradient></defs><path class="cls-6" d="M394.2765490906,225.0419816782c3.7247139868,0,6.9517337155.4919992823,9.5126744051,1.4032620157,2.5598749631.911529165,4.6284500271,1.8229251143,6.1183356218,2.647331141,1.2447685083.6658459115,1.9897113057,1.5697151675,2.2348283921,2.6476641805.2461828129,1.0775826695,0,2.3146912689-.5786894692,3.5585938744l-1.0774494537,1.9820513967c-.6586189539,1.3235989626-1.4898855947,2.0687748876-2.5598749631,2.3146579649-.9911256102.2531766428-2.2358941185,0-3.6383901433-.5787560771-1.2447685083-.5786228613-2.734654103-1.1573789384-4.5495862688-1.8153651172-1.737134134-.6656127838-3.8057091979-.9114958611-6.1194013482-.9114958611-2.4021474467,0-4.3044691824.4918993704-5.628101449,1.4032620157-1.3236322665.9909923944-1.981185494,2.3144581412-1.981185494,4.0576535945,0,1.5699815992.6575532274,2.8065906393,2.0685750639,3.7182197161,1.3161721813.9907259628,3.0586349477,1.8226586827,5.2071394962,2.5677346958,2.1485045486.7376825358,4.2970090972,1.4828584608,6.6980908174,2.3941544982,2.4010817202.8246391544,4.6295157535,1.9023550397,6.6980908174,3.2261871299,2.0696407904,1.3236988745,3.8046434715,2.9801708369,5.2156653079,5.0487459008,1.4035617513,2.0614813221,2.0611149787,4.629216018,2.0611149787,7.8554364518,0,2.4808779891-.4912998992,4.795535954-1.4824255095,6.8643441456-.9985856955,2.0687748876-2.4010817202,3.8841733087-4.3044691824,5.4538884763-1.9023217357,1.5767756054-4.1371501278,2.7341878477-6.7844146609,3.645550493-2.6398044479.9042355996-5.540711879,1.3235989626-8.7666658813,1.3235989626-4.5421261836,0-8.3467696551-.6652464403-11.4938598991-1.9888454029-3.1385644323-1.3238320903-5.540711879-2.5608074738-7.1968508019-3.7182197161-1.2373084231-.7448428855-1.9023217357-1.6564719624-2.0685750639-2.7341545437-.1598589694-1.0705555356.1662533282-2.3146912689.997519969-3.5515334366l1.3236322665-1.9891118345c.824872282-1.1572790265,1.7360684076-1.8156315488,2.7271940178-1.9820513967.9911256102-.1661867203,2.1485045486.1664198479,3.5584606586.9042355996,1.324697993.7449427974,3.0597006741,1.577008733,5.1293414645,2.4884046823,2.0611149787.9039691679,4.5421261836,1.403028888,7.4430336148,1.403028888,2.393621635,0,4.2959433707-.4990597201,5.7069652072-1.5694820399,1.4024960248-.9981194401,2.0611149787-2.4014147597,2.0611149787-4.2170463085,0-1.5767756054-.6586189539-2.8136177731-2.0611149787-3.7250137223-1.3236322666-.9114958611-3.0671607594-1.7361683194-5.215665308-2.5679678235-2.1474388221-.8246391544-4.2959433707-1.5694820399-6.6980908174-2.4811111168-2.4010817202-.9041023838-4.6295157535-1.9818182691-6.6980908174-3.3054172316-2.0685750639-1.3237321784-3.8046434715-2.9799377092-5.2082052227-5.0416854629-1.3225665401-2.0686749757-2.0685750639-4.7162392444-2.0685750639-7.9421932467,0-2.7267610664.5786894692-5.1284089538,1.7360684076-7.2767802866,1.1573789384-2.1555316825,2.6472645331-3.8914668742,4.6295157535-5.294628978,1.9023217357-1.403062192,4.2170796125-2.4810112049,6.7854803874-3.2259540023,2.5598749632-.5788892929,5.3744585509-.9911922181,8.2668401704-.9911922181h0ZM230.7674665666,225.0419816782c3.718319628,0,6.9442736303.4919992823,9.5126744051,1.4032620157,2.5598749631.911529165,4.6295157535,1.8229251143,6.1194013482,2.647331141,1.2362426966.6658459115,1.9822512204,1.5697151675,2.2348283921,2.6476641805.2461828129,1.0775826695,0,2.3146912689-.5861495544,3.5585938744l-1.0699893685,1.9820513967c-.6660790391,1.3235989626-1.4898855947,2.0687748876-2.5684007749,2.3146579649-.9911256102.2531766428-2.2273683068,0-3.6373244168-.5787560771-1.2373084231-.5786228613-2.7271940178-1.1573789384-4.5506519953-1.8153651172-1.7360684076-.6656127838-3.8046434715-.9114958611-6.1194013482-.9114958611-2.393621635,0-4.2959433707.4918993704-5.6195756373,1.4032620157-1.324697993.9909923944-1.9897113057,2.3144581412-1.9897113057,4.0576535945,0,1.5699815992.6650133127,2.8065906393,2.0685750639,3.7182197161,1.324697993.9907259628,3.0597006741,1.8226586827,5.2156653079,2.5677346958,2.1485045486.7376825358,4.2959433707,1.4828584608,6.6980908174,2.3941544982,2.393621635.8246391544,4.6295157535,1.9023550397,6.6980908174,3.2261871299,2.0675093374,1.3236988745,3.8046434715,2.9801708369,5.2082052227,5.0487459008,1.3236322665,2.0614813221,2.0675093374,4.629216018,2.0675093374,7.8554364518,0,2.4808779891-.4987599845,4.795535954-1.4898855947,6.8643441456-.9911256102,2.0687748876-2.393621635,3.8841733087-4.2959433707,5.4538884763-1.9023217357,1.5767756054-4.1382158543,2.7341878477-6.7844146609,3.645550493-2.6472645331.9042355996-5.5417776055,1.3235989626-8.7677316078,1.3235989626-4.5495862688,0-8.3542297403-.6652464403-11.4938598991-1.9888454029-3.1460245176-1.3238320903-5.540711879-2.5608074738-7.1968508019-3.7182197161-1.2437027818-.7448428855-1.9012560093-1.6564719624-2.0685750639-2.7341545437-.1662533282-1.0705555356.1673190546-2.3146912689.9911256102-3.5515334366l1.3236322665-1.9891118345c.8312666408-1.1572790265,1.7360684076-1.8156315488,2.7335883766-1.9820513967.9911256102-.1661867203,2.1485045486.1664198479,3.5520662998.9042355996,1.3236322666.7449427974,3.0597006741,1.577008733,5.128275738,2.4884046823,2.0685750639.9039691679,4.5495862688,1.403028888,7.4430336148,1.403028888,2.4021474467,0,4.3044691824-.4990597201,5.7080309337-1.5694820399,1.40995611-.9981194401,2.0675093374-2.4014147597,2.0675093374-4.2170463085,0-1.5767756054-.6575532274-2.8136177731-2.0675093374-3.7250137223-1.324697993-.9114958611-3.0607664006-1.7361683194-5.2082052227-2.5679678235-2.0696407904-.7376825358-4.3044691824-1.5694820399-6.6991565439-2.4811111168-2.4010817202-.9041023838-4.6359101123-1.9818182691-6.7044851762-3.3054172316-2.0611149787-1.3237321784-3.7971833862-2.9799377092-5.2082052227-5.0416854629-1.3236322666-2.0686749757-2.0685750639-4.7162392444-2.0685750639-7.9421932467,0-2.7267610664.5786894692-5.1284089538,1.7360684076-7.2767802866,1.1573789384-2.1555316825,2.6472645331-3.8914668742,4.6359101123-5.294628978,1.9023217357-1.403062192,4.2170796125-2.4810112049,6.7780203021-3.2259540023,2.5673350484-.5788892929,5.3819186361-.9911922181,8.2743002556-.9911922181h0ZM431.3329239215,204.3621591426c3.0597006741,0,4.6295157535,1.5767922573,4.6295157535,4.6365428874v22.662073756c0,.7374494082,0,1.403062192-.0863238435,1.902121912,0,.5787560771-.0799294847,1.0705555356-.1598589694,1.4829916767-.0873895699.4990597201-.0873895699.9981194401-.0873895699,1.3236988745h.2472485393c.6639475862-1.3236988745,1.5762094382-2.6475309647,2.8124521348-4.0508262843,1.2447685083-1.3236988745,2.6483302596-2.5603412185,4.3044691824-3.72524685,1.6561389229-1.1571791147,3.5520662998-1.9815851414,5.6195756373-2.6400375755,2.0696407904-.6653796561,4.3843986671-.9980195283,6.7854803874-.9980195283,6.2057251917,0,11.0814237581,1.6564719624,14.4736310885,5.0488458126,3.3922073304,3.3921740265,5.128275738,8.8462956305,5.128275738,16.2892959413v31.6818496722c0,3.0595341544-1.5698150794,4.6291161061-4.6295157535,4.6291161061h-4.715839597c-3.0597006741,0-4.6359101123-1.5695819517-4.6359101123-4.6291161061v-28.701911963c0-3.4718370796-.5786894692-6.2061248391-1.7360684076-8.3543962601-1.1573789384-2.06854176-3.5510005734-3.1391972074-7.0316632002-3.1391972074-2.393621635,0-4.6284500271.4919992823-6.6107012475,1.4032953196-1.9886455792.9910923063-3.7247139868,2.2352280395-5.128275738,3.8841733088-1.4110218365,1.6564719624-2.4810112049,3.645550493-3.2259540023,5.873484967-.7460085238,2.2349949118-1.1573789384,4.7162392444-1.1573789384,7.3635370815v21.5045616018c0,3.0596673702-1.5698150794,4.62914941-4.6369758388,4.62914941h-4.7083795118c-3.0597006741,0-4.6369758388-1.5694820399-4.6369758388-4.62914941v-68.8102942552c0-3.05975063,1.5772751647-4.6365428874,4.6369758388-4.6365428874h4.5495862688ZM358.2986894397,226.3658137685c2.9797711894,0,4.5495862688,1.5697151676,4.5495862688,4.6292493219v46.9803863467c0,3.0595341544-1.4898855947,4.6291161061-4.5495862688,4.6291161061h-4.8756985664c-2.9797711894,0-4.5495862688-1.5695819517-4.5495862688-4.6291161061v-46.9803863467c0-3.0595341544,1.4898855947-4.6292493219,4.5495862688-4.6292493219h4.8756985664ZM264.9239996928,226.3658137685c2.8135178613,0,4.4696567841,1.3238320903,4.9620224099,4.0505931567l9.0117829677,32.831968349c.1673190546.8319327199.2536428981,1.5767756054.4198962263,2.2349949118.1587932429.665479568.2461828129,1.3238320903.412436141,1.9023550397.1662533282.665479568.2461828129,1.3238320903.3325066563,1.9023550397h.2461828129c.0799294847-.5785229494.1662533282-1.2368754717.3325066563-1.9023550397.1587932429-.5785229494.2461828129-1.2368754717.412436141-1.9023550397.1662533282-.6582193065.2461828129-1.403062192.4923656257-2.2349949118l9.3453553505-32.7525051197c.4987599845-2.6398044478,2.2348283921-3.9636365381,5.0483462533-3.9636365381h4.2170796125c2.7271940178,0,4.3833329407,1.3238320903,5.0419518945,3.9636365381l9.3528154358,32.8392286106c.2451170864.8246724583.412436141,1.5697484715.4912998993,2.2352280395.0873895699.6582193065.2461828128,1.3235989626.412436141,1.902121912.1662533282.6584524341.2536428981,1.3165718287.3325066563,1.9026214713h.2461828129c.0873895699-.5860496426.1662533282-1.2441690372.3325066563-1.9026214713.1662533282-.5785229494.2461828129-1.2439026056.412436141-1.902121912.1662533282-.665479568.2536428981-1.4105555812.4987599845-2.2352280395l8.9339849359-32.8392286106c.6575532274-2.7267943704,2.3136921503-4.0506264606,5.0408861681-4.0506264606h5.0494119798c1.6486788376,0,2.8923816195.499093024,3.5510005734,1.4108220128.6660790391.9041023837.7449427974,2.2277013463.3335723828,3.7177534608l-14.3873072451,47.146573067c-.7449427974,2.560707562-2.4810112049,3.8841733087-5.215665308,3.8841733087h-7.3556440449c-2.8145835877,0-4.5506519953-1.3234657468-5.2145995815-3.9708967996l-8.4352249515-28.1157624086c-.2461828128-.745175925-.412436141-1.4902519382-.5786894692-2.2352280395-.1662533282-.7450760132-.3325066563-1.4105555811-.412436141-1.9890785306-.1662533282-.6583525223-.2525771716-1.3238320903-.3314409299-1.9023550397h-.2472485393c-.1662533282.5785229494-.3325066563,1.2440025174-.412436141,1.9023550397-.1662533282.5785229494-.3325066563,1.2440025174-.4188304998,1.9890785306-.1598589694.7449761013-.3250465711,1.4900521145-.5786894692,2.2352280395l-8.434159225,28.1157624086c-.6586189539,2.6474310529-2.3147578768,3.9708967996-5.0419518945,3.9708967996h-7.609286943c-2.6472645331,0-4.303403456-1.3234657468-5.0483462533-3.8841733087l-14.5535605732-47.146573067c-.412436141-1.5695153438-.3325066563-2.8136510771.412436141-3.7177534608.6575532274-.9982526559,1.8159978923-1.4108220128,3.4721368151-1.4108220128l5.128275738-.0794299254h0Z"/><g id="_01-Primary-_Vertical_Colour_Light-background_Swish_Logo_Primary_Light-BG"><g id="Symbol_Colour"><g id="Right-Swirl"><path id="Base-Shape" class="cls-2" d="M66.3549144339,315.6250717273c29.2104966133,13.9701294539,65.2602928004,7.0564080365,87.0389459268-18.8934568346,25.814026377-30.7572944989,21.8042305615-76.6103920279-8.9552994652-102.4156761175l-20.4486265011,24.3649714274c24.0310660051,20.1604057749,27.1632360787,55.9830107277,6.996494227,80.0121867335-16.0807465941,19.1599134282-42.5565891044,25.5574027752-64.6315141874,16.9319747912"/><path id="Light-Cast" class="cls-4" d="M66.3549144339,315.6250717273c29.2104966133,13.9701294539,65.2602928004,7.0564080365,87.0389459268-18.8934568346,2.6669804726-3.1780004745,5.015308733-6.517495975,7.0492476868-9.9790005034,3.4390992948-21.3724531504-4.1243614102-43.9624821323-21.9161318401-58.8883142805-4.5202787911-3.7922627273-9.4140947073-6.847434064-14.5338446337-9.1805590702,24.0278688257,20.1607471404,27.1589731728,55.9813538561,6.9932970476,80.0093558976-16.0807465941,19.1599134282-42.5565891044,25.5574027752-64.6315141874,16.9319747912"/></g><g id="Left-Swirl"><path id="Base-shape" class="cls-3" d="M129.0545329762,184.3750255038c-29.2104966133-13.9702585067-65.2608256636-7.0565412523-87.0389459268,18.8932153809-25.8140263771,30.7574152258-21.8047634247,76.6104961027,8.9552994652,102.4157968444l20.4480936379-24.3649714274c-24.0310660051-20.1602808851-27.1632360787-55.9829108158-6.996494227-80.0123116233,16.0807465941-19.1599134282,42.5565891044-25.5572862114,64.6320470507-16.9317291745"/><path id="Shadow" class="cls-5" d="M129.0545329762,184.3750255038c-29.2104966133-13.9702585067-65.2608256636-7.0565412523-87.0389459268,18.8932153809-2.6675133359,3.1782294391-5.015308733,6.5177332656-7.0497805501,9.9792294681-3.4390992948,21.3723282606,4.1243614103,43.9622656566,21.9166647033,58.8881977167,4.5197459279,3.7922544013,9.4135618441,6.8475589538,14.5333117704,9.1804674844-24.0278688257-20.1606472285-27.1589731728-55.9811457064-6.9932970476-80.0093808756,16.0807465941-19.1599134282,42.5565891044-25.5572862114,64.6320470507-16.9317291745"/></g></g></g><rect class="cls-1" width="500" height="500"/></svg>