<?xml version="1.0" encoding="UTF-8"?><svg id="Layer_1" xmlns="http://www.w3.org/2000/svg" viewBox="0 0 500 500"><defs><style>.cls-1{fill:none;}.cls-1,.cls-2{stroke-width:0px;}.cls-2{fill:#000;}</style></defs><g id="Calque_1"><path class="cls-2" d="M47.5,201.3253473092l14.1266028385-12.0197563965c3.4569066272,5.5590770115,9.6186105736,8.7170126553,16.8313974847,8.7170126553,4.2090186083,0,8.2638770038-1.6537063354,8.2638770038-5.4095928563,0-3.153259586-1.8031976188-4.9564572048-10.0670728405-7.2127904751l-5.5590787936-1.3547308968c-13.8229557974-3.6063952375-21.1852322097-12.4728920481-20.7367690518-24.0441888508.453135206-13.8229540153,12.1692458979-22.6894543899,28.2485349655-22.6894543899,11.5712932387,0,20.134145681,4.2090186083,25.9968741888,12.6223797673l-13.5239785767,10.9686698679c-3.4569075183-4.3585063276-7.8154102818-6.6101671043-12.7718674866-6.6101671043-3.6063952375,0-7.5117659137,1.6537098995-7.5117659137,5.1106174177,0,2.2563332703.9015988094,4.8069694855,7.3622781944,6.4606758209l7.0633027558,2.1021730574c13.3744908574,3.6063952375,21.7878555805,10.2165587778,21.7878555805,23.2920777607,0,14.4255809502-12.3234043288,24.4926555727-28.5521793336,24.4926555727-13.2250031381,0-24.4926520087-4.6574817662-30.9533313937-14.4255809502h-.0046796218Z"/><path class="cls-2" d="M169.2298282355,171.4231060083l-13.9724452987,42.6741087875h-20.4377936132l-24.9457840961-75.1316659255h21.9373397357l14.2760896668,48.083708772,15.1776920403-48.0837052079h15.7756429175l15.3271761955,48.0837052079,14.1265983835-48.0837052079h22.0868310191l-24.7916310113,75.1316623614h-20.4377936132l-14.1265983835-42.6741159157.0046760577.0000071281Z"/><path class="cls-2" d="M233.6731168853,116.5750752652c0-7.2127891386,6.012212663-13.0708447073,13.0708500534-13.0708447073s13.2250031381,5.8580555687,13.2250031381,13.0708447073c0,7.2127886931-5.8580595783,13.0708447073-13.2250031381,13.0708447073s-13.0708500534-5.8580560142-13.0708500534-13.0708447073ZM236.5274081609,138.9655559985h20.5872848966v75.1316659255h-20.5872848966v-75.1316659255Z"/><path class="cls-2" d="M268.2655367156,201.3253473092l14.1265983835-12.0197563965c3.4569039542,5.5590770115,9.6186079006,8.7170126553,16.8313983757,8.7170126553,4.2090221724,0,8.2638770038-1.6537063354,8.2638770038-5.4095928563,0-3.153259586-1.8031904906-4.9564572048-10.0670674944-7.2127904751l-5.5590912678-1.3547308968c-13.8229540153-3.6063952375-21.1852357738-12.4728920481-20.73677618-24.0441888508.4531356515-13.8229540153,12.1692405518-22.6894543899,28.2485207092-22.6894543899,11.5713039309,0,20.1341349888,4.2090186083,25.996884881,12.6223797673l-13.5239857049,10.9686698679c-3.4569182105-4.3585063276-7.8154031537-6.6101671043-12.7718817429-6.6101671043-3.6063809813,0-7.5117730418,1.6537098995-7.5117730418,5.1106174177,0,2.2563332703.9015952453,4.8069694855,7.3622817585,6.4606758209l7.0632991917,2.1021730574c13.3744944215,3.6063952375,21.7878627086,10.2165587778,21.7878627086,23.2920777607,0,14.4255809502-12.3234078928,24.4926555727-28.5521793336,24.4926555727-13.2250031381,0-24.4926484446-4.6574817662-30.9533349577-14.4255809502h-.0046332889Z"/><path class="cls-2" d="M334.185019712,201.3253473092l14.1265983835-12.0197563965c3.4569182105,5.5590770115,9.6186221569,8.7170126553,16.8313841194,8.7170126553,4.2090221724,0,8.2638770038-1.6537063354,8.2638770038-5.4095928563,0-3.153259586-1.8031904906-4.9564572048-10.0670674944-7.2127904751l-5.5590912678-1.3547308968c-13.8229682716-3.6063952375-21.1852215175-12.4728920481-20.73677618-24.0441888508.4531213952-13.8229540153,12.1692405518-22.6894543899,28.2485207092-22.6894543899,11.5713039309,0,20.1341349888,4.2090186083,25.996884881,12.6223797673l-13.5239857049,10.9686698679c-3.4569182105-4.3585063276-7.8154031537-6.6101671043-12.7718817429-6.6101671043-3.6063809813,0-7.5117730418,1.6537098995-7.5117730418,5.1106174177,0,2.2563332703.9015952453,4.8069694855,7.3622817585,6.4606758209l7.0632991917,2.1021730574c13.3744944215,3.6063952375,21.7878627086,10.2165587778,21.7878627086,23.2920777607,0,14.4255809502-12.3234078928,24.4926555727-28.5521793336,24.4926555727-13.2250031381,0-24.4926484446-4.6574817662-30.9533349577-14.4255809502h-.0046190326Z"/><path class="cls-2" d="M73.7958496274,330.0670951269v5.5590770115h-20.587281778v-109.6913889926h20.587281778v39.9693159235c4.3585063276-4.2090221724,11.2676488705-7.0632991917,19.2325468716-7.0632991917,22.2409947961,0,37.1150353401,18.1814674711,37.1150353401,39.2171977052s-14.874040544,39.2172119615-37.115031776,39.2172119615c-7.9649015652,0-14.874040544-2.8542770193-19.2325468716-7.2127904751l-.0000035641.0046760577ZM108.9581960654,298.0626878968c0-11.1181540231-7.5117659137-20.4377936132-18.933571433-20.4377936132-7.9649015652,0-12.7718692687,3.4569039542-16.2287767869,8.1143857204v24.4926484446c3.4569075183,4.8069730496,8.2638752217,8.2638770038,16.2287767869,8.2638770038,11.4218055194,0,18.933571433-9.3149635325,18.933571433-20.4377936132v.0046760577Z"/><path class="cls-2" d="M139.5518238596,238.1087140116c0-7.2127904751,6.012212663-13.0708500534,13.0708429252-13.0708500534s13.2250031381,5.8580595783,13.2250031381,13.0708500534-5.8580524501,13.0708500534-13.2250031381,13.0708500534-13.0708429252-5.8580595783-13.0708429252-13.0708500534ZM142.4061080071,260.4945133412h20.5872848966v75.1316730536h-20.5872848966v-75.1316730536Z"/><path class="cls-2" d="M179.9836204218,225.9347831459h20.5872848966v109.6913889926h-20.5872848966v-109.6913889926Z"/><path class="cls-2" d="M217.4443454445,225.9347831459h20.5872848966v109.6913889926h-20.5872848966v-109.6913889926Z"/><path class="cls-2" d="M252.1722426414,238.1087140116c0-7.2127904751,6.012212663-13.0708500534,13.0708500534-13.0708500534s13.2250031381,5.8580595783,13.2250031381,13.0708500534-5.8580595783,13.0708500534-13.2250031381,13.0708500534-13.0708500534-5.8580595783-13.0708500534-13.0708500534ZM255.0265196607,260.4945133412h20.5872848966v75.1316730536h-20.5872848966v-75.1316730536Z"/><path class="cls-2" d="M292.6974676916,260.4945133412h20.5872848966v6.3111952298c4.8069587933-5.2601087011,12.0197492684-7.964894437,20.4377936132-7.964894437,18.9335571768,0,30.0517397124,13.3744944215,30.0517397124,33.2096610999v43.575711161h-20.5872848966v-40.1188072068c0-10.8191857126-4.5080047391-17.8824849044-13.9724310424-17.8824849044-7.0632991917,0-12.7718817429,3.6063952375-15.9297888741,8.5628453142v49.438446797h-20.5872848966v-75.1316730536h-.0000285125Z"/><path class="cls-2" d="M379.923621399,355.7603213836l11.2676453065-15.3271761955c6.4606865131,5.4095999845,13.9724310424,7.8154031537,21.6383714253,7.8154031537,9.0159809657,0,19.0830484601-5.1106174177,19.0830484601-16.6772452909v-4.6574817662c-4.3585134558,4.3584991995-10.9686627397,7.2127904751-19.3820310269,7.2127904751-21.7878627086,0-37.5634842417-16.5277540075-37.5634842417-37.563498498s16.0792801575-37.7176515827,37.5635127542-37.7176515827c8.4133682871,0,15.0281936288,2.8542770193,19.3820310269,7.0632991917v-5.4095857282h20.5872848966v70.9226508812c0,26.4453444749-20.4377936132,34.8633603071-39.3667032449,34.8633603071-12.4728991762,0-24.7916310113-3.3074269271-33.2096753561-10.5202174022v-.0046475451ZM431.9127151034,307.0786688625v-21.3393888585c-3.4569182105-4.6574817662-8.2638770038-8.1143857204-16.2287714408-8.1143857204-11.2676453065,0-19.3820310269,7.6612500689-19.3820310269,18.933571433s8.1143857204,18.9335714331,19.3820310269,18.9335714331c7.964894437,0,12.7718817429-3.6063952375,16.2287714408-8.4133682871Z"/><path class="cls-2" d="M57.2213822669,388.0730490395h-4.1202590499v-32.504274946h4.1202590499v12.8185852947c.882912399-1.1585218054,1.9994004731-2.0741452238,3.3401192352-2.7468417426s2.8402702307-1.009030522,4.4846351429-1.009030522,3.1112160536.2896304513,4.4846351429.868891354,2.5553087089,1.3967726472,3.5503360063,2.4478591759c.9903565858,1.0510865287,1.7704972916,2.3123960656,2.3357478415,3.7745764954.56525055,1.4668564875.8455413602,3.0831757458.8455413602,4.8536908577s-.2802890282,3.433537922-.8455413602,4.9003944095c-.56525055,1.4668564875-1.3453912557,2.7234899667-2.3357478415,3.7745764954s-2.176916917,1.8685982732-3.5503360063,2.4478591759-2.8682980643.868891354-4.4846351429.868891354-3.1439163808-.3363340032-4.4846360339-1.009030522c-1.3453903647-.6726965188-2.4572068362-1.5883199372-3.3401192352-2.7468417426v3.2513712599l.000000891.0093236028ZM64.3173844589,384.8217062922c1.0697729391,0,2.0741434417-.1821951746,3.0224582772-.5512330691.9436423418-.3643903493,1.7704972916-.906271303,2.471221644-1.6256713737.7007243525-.7147525255,1.2519609856-1.5883199373,1.6490374059-2.6113786323s.5932801656-2.1769044428.5932801656-3.4569182105-.2008744569-2.4245074-.5932801656-3.433537922c-.3970764202-1.009030522-.9483130534-1.8685982732-1.6490374059-2.5879983439-.7007243525-.7147525255-1.5275793022-1.2613095369-2.471221644-1.6256713737-.9483130534-.3643903493-1.9526853381-.5512330691-3.0224582772-.5512330691-1.6163370786,0-3.0504870018.397065728-4.3024470964,1.1912256967-1.2519609856.7941599686-2.1815885196,1.8452464973-2.7935542046,3.1579356437v7.7826992624c.611965685,1.2799852551,1.541593219,2.3217196684,2.7935542046,3.1112035794,1.2519609856.7941599686,2.6861100177,1.1912256967,4.3024470964,1.1912256967v.0093521154Z"/><path class="cls-2" d="M86.7078634102,385.4616989198l-9.567222945-20.3256822788h4.3958773664l7.2781911295,15.747622212,6.8203829844-15.747622212h4.3958755844l-13.8696718234,31.3597528011h-4.3958791485l4.9424468521-11.0340705223Z"/><path class="cls-2" d="M127.7703111768,388.6196345635c-2.2610021998,0-4.3398163531-.4110939011-6.2504635049-1.237957761-1.9059710941-.8221878022-3.5550084999-1.9620338894-4.942443288-3.4101861461s-2.4712180799-3.1579356437-3.2513641318-5.1292931359c-.7801389237-1.9667099471-1.1678739208-4.082882665-1.1678739208-6.3392230634s.3877349971-4.3725131163,1.1678739208-6.3392230634,1.859253286-3.6764648215,3.2513641318-5.1292931359c1.3874347881-1.4481522567,3.036472194-2.5879983439,4.942443288-3.4101861461,1.9059710941-.8221878022,3.9894541769-1.237957761,6.2504635049-1.237957761,3.1719424324,0,5.9421430791.7334282437,8.3105876837,2.1956086735,2.3637756751,1.4668564875,4.2043461147,3.4195382615,5.5170352611,5.858045322l-3.2980748117,2.2423122253c-.976340887-1.9246539404-2.3450928288-3.4569182105-4.0969037099-4.6014118428-1.7564798107-1.1445221448-3.8820117721-1.7144309322-6.3859337433-1.7144309322-1.7097691307,0-3.2560330613.3129822273-4.648136779.9389751943-1.3874347881.625992967-2.5786676129,1.480856148-3.5690224167,2.564646568s-1.7564798107,2.3637756751-2.2890300334,3.8446318231-.8034978277,3.0738521429-.8034978277,4.7836070174.2662786754,3.3027508694.8034978277,4.7836070174c.5325502227,1.480856148,1.2986752296,2.7608414031,2.2890300334,3.8446318231s2.1815876286,1.9386821135,3.5690224167,2.564646568c1.3874347881.625992967,2.9383676482.9389751943,4.648136779.9389751943,2.5039219712,0,4.6294539326-.5699087873,6.3859337433-1.7144309322,1.7564798107-1.1445221449,3.1205556948-2.6767579024,4.0969037099-4.6014118428l3.2980748117,2.2423122253c-1.3126891464,2.4431831182-3.153259586,4.3958648922-5.5170352611,5.858045322-2.3637756751,1.4668564875-5.1339763218,2.1956086735-8.3105948119,2.1956086735l.0000071281.0093521154Z"/><path class="cls-2" d="M155.8786998462,388.6196345635c-1.7377969643,0-3.3261026453-.3036586244-4.7602552415-.9156234184-1.4341525962-.611964794-2.6627511137-1.4481522567-3.6858098088-2.5179430162-1.0230586951-1.0697622469-1.8078665483-2.3357478415-2.3591067456-3.7979282713-.5512330691-1.4668564875-.8221806741-3.050500367-.8221806741-4.7602552415s.2756165345-3.3961864856.8221806741-4.8770426336c.5512330691-1.480856148,1.3267030632-2.7468417426,2.3357478415-3.7979282713s2.2049465326-1.8685982732,3.5923813207-2.4478591759,2.9056708851-.868891354,4.5547082909-.868891354,3.1439145988.2896304513,4.484638707.868891354c1.34071698.5792609027,2.494576984,1.3734208713,3.4569039542,2.3824513933s1.7097691307,2.1956086735,2.2423193535,3.5690295448.7988288982,2.8542770193.7988288982,4.4425969566c0,.3363340032-.0140139168.6960482948-.0467178081,1.0744383046-.0327038913.3830660675-.0747456417.7381043014-.1354702384,1.0744383046h-17.9478855588c.2429197714,2.1068491151,1.0230586951,3.7745764954,2.3357478415,5.0125057439,1.3126891464,1.237957761,3.0831900021,1.8545701001,5.3114883106,1.8545701001,1.5556089178,0,2.9897543859-.3737139521,4.3024506604-1.1211703689,1.3126891464-.7474279043,2.3637756751-1.7144309322,3.1579285156-2.9056566288l2.517935888,2.6113786323c-1.1585289335,1.555616046-2.5926815297,2.7982213521-4.3024506604,3.7325204887-1.7097691307.9296230789-3.6624509047,1.3967726472-5.8580524501,1.3967726472l.0046689296-.0092950903ZM155.5563655035,368.2472202203c-1.8919571773,0-3.4662489414.5559091268-4.7135374334,1.672403438-1.2519574215,1.1164943113-2.0461173902,2.6767579024-2.3824656496,4.6901714012h13.9163896315c-.1541602129-1.9853856653-.8642295526-3.5410017112-2.130200891-4.671495683-1.2659784665-1.1304939718-2.8309252434-1.6957552139-4.6948545871-1.6957552139l.0046689296.0046760577Z"/><path class="cls-2" d="M203.6727710387,375.1143245768c0-2.1956086735-.5091913187-3.8680121116-1.5322500138-5.0125057439-1.0230586951-1.1445221448-2.5085909008-1.7191069898-4.4612726748-1.7191069898-.8548774372,0-1.62568563.1308155652-2.3123960656.3877421252-.6867104357.2616026178-1.2986752296.6026126786-1.8312325805,1.0324108105-.5325573509.4297696193-.9856787461.9249470212-1.3500690954,1.4902082634-.364376093.5652612422-.6399926276,1.1678739208-.8221878022,1.8078665483v14.9721379616h-4.1202626139v-12.954048405c0-2.1956086735-.5091913187-3.8680121116-1.5322500138-5.0125057439-1.0230586951-1.1445221449-2.5132669585-1.7191069898-4.4659487325-1.7191069898-.8548774372,0-1.6350234891.1308155651-2.3357478415.3877421252-.7007243525.2616026177-1.3220270055.6026126786-1.8545843564,1.0324108105-.5325573509.4297696193-.976340887.9249470212-1.3267030632,1.4902082634s-.6166408517,1.1678739208-.79882177,1.8078665483v14.9721379616h-4.1202626139v-22.9370323986h4.1202626139v3.4802699864c.611964794-1.009030522,1.5275739561-1.9246539404,2.7468417426-2.7468417426,1.2192535303-.8221878022,2.7935595507-1.237957761,4.7135374334-1.237957761s3.6297470135.4064178434,4.9424361599,1.2145774726,2.3030439502,1.9620338894,2.9757404691,3.4569182105c.7614560773-1.3734208713,1.8685982732-2.4945912403,3.3214265876-3.3634825943,1.448166513-.868891354,3.1812874196-1.303337031,5.1947009185-1.303337031,2.9617265523,0,5.1947009185.8922431299,6.7082609578,2.6767579024,1.5088982379,1.7845147724,2.2656782575,4.2510496665,2.2656782575,7.3949856497v13.3698183638h-4.1202626139v-12.954048405l-.0046332889-.0140851982Z"/><path class="cls-2" d="M217.5424428621,388.0730490395h-4.1202626139v-32.504274946h4.1202626139v12.8185852947c.8829195271-1.1585218054,1.9993995821-2.0741452238,3.3401165621-2.7468417426s2.8402631025-1.009030522,4.484638707-1.009030522,3.1112178356.2896304513,4.484638707.868891354,2.5553087089,1.3967726472,3.5503395704,2.4478591759c.9903548038,1.0510865287,1.7705008556,2.3123960656,2.3357478415,3.7745764954.5652469859,1.4668564875.8455395781,3.0831757458.8455395781,4.8536908577s-.2802925922,3.433537922-.8455395781,4.9003944095-1.3453930377,2.7234899667-2.3357478415,3.7745764954-2.176918699,1.8685982732-3.5503395704,2.4478591759-2.8683051924.868891354-4.484638707.868891354-3.1439217269-.3363340032-4.484638707-1.009030522c-1.3453930377-.6726965188-2.4572112913-1.5883199372-3.3401165621-2.7468417426v3.2606948627ZM224.6384459451,384.8217062922c1.0697765032,0,2.0741452238-.1821951746,3.0224582772-.5512330691.9436369957-.3643903493,1.7705008556-.906271303,2.4712252081-1.6256713737.7007243525-.7147525255,1.2519574215-1.5883199373,1.6490374059-2.6113786323s.5932748195-2.1769044428.5932748195-3.4569182105-.2008708929-2.4245074-.5932748195-3.433537922c-.3970799843-1.009030522-.9483130534-1.8685982732-1.6490374059-2.5879983439-.7007243525-.7147525255-1.5275739561-1.2613095369-2.4712252081-1.6256713737-.9483130534-.3643903493-1.952681774-.5512330691-3.0224582772-.5512330691-1.6163335146,0-3.0504861108.397065728-4.3024435323,1.1912256967s-2.1815947567,1.8452464973-2.7935595507,3.1579356437v7.7826992624c.611964794,1.2799852551,1.5415878729,2.3217196684,2.7935595507,3.1112035794,1.2519574215.7941599686,2.6861100177,1.1912256967,4.3024435323,1.1912256967v.0093521154Z"/><path class="cls-2" d="M241.0307225861,365.1360166409h4.1202626139v3.9380674393c.6399926276-1.2799852551,1.5649539051-2.3404238992,2.7701935185-3.1812874196s2.6954478768-1.2566334792,4.4612726748-1.2566334792h.504515261v3.9847995036c-1.8639222155.0607317249-3.4662560696.4905013442-4.8069730496,1.2799852551-1.3453930377.7941599686-2.3217339247,2.092820942-2.929022661,3.8913638875v14.2854417822h-4.1202626139v-22.9370323986l.0000142563-.0047045702Z"/><path class="cls-2" d="M273.0304680148,384.8217062922c-.8875813285,1.1585218054-1.9993995821,2.0741452238-3.3401165621,2.7468417426-1.3453930377.6726965188-2.8402631025,1.009030522-4.484638707,1.009030522s-3.1112178356-.2896304513-4.484638707-.868891354-2.5553087089-1.3967726472-3.5456635127-2.4478591759-1.7705008556-2.3123960656-2.3357478415-3.7745764954c-.5652469859-1.4668564875-.8455395781-3.0972039189-.8455395781-4.9003944095s.2802925922-3.3868343702.8455395781-4.8536908577,1.34071698-2.7234899667,2.3357478415-3.7745764954c.9903548038-1.0510865287,2.1722426414-1.8685982732,3.5456635127-2.4478591759s2.8683051924-.868891354,4.484638707-.868891354,3.1439217269.3363340032,4.484638707,1.009030522c1.34071698.6726965188,2.4572112913,1.5883199372,3.3401165621,2.7468417426v-3.2513712599h4.1202626139v22.9370323986h-4.1202626139v-3.2606663502ZM265.9344649318,384.8217062922c1.6163335146,0,3.0504861108-.3830660675,4.3024435323-1.1445221448s2.1815947567-1.7845147724,2.7935595507-3.0691760853v-7.964894437c-.611964794-1.2799852551-1.5415878729-2.3123960656-2.7935595507-3.0925278612-1.2519574215-.7801317956-2.6861100177-1.1678739208-4.3024435323-1.1678739208-1.0697765032,0-2.0741452238.1915187775-3.0224582772.574584845s-1.7705008556.9249470212-2.4712252081,1.6256713737-1.2519574215,1.555616046-1.6490374059,2.564646568-.5932748195,2.1535526669-.5932748195,3.433537922.1962090914,2.4338595154.5932748195,3.4569182105c.3970799843,1.0230586951.9436369957,1.8872739914,1.6490374059,2.5879983439.7007243525.7007243524,1.5275739561,1.2426053062,2.4712252081,1.6256713737.9436369957.3830660675,1.952681774.574584845,3.0224582772.574584845v-.0046190326Z"/><path class="cls-2" d="M283.7889220026,356.9422234774h11.9029618763c3.3261026453,0,5.9281291623.8034835715,7.8060795508,2.4058316818,1.8779503886,1.6023195978,2.8169255829,3.9287153239,2.8169255829,6.9838917486s-.9389751943,5.3628679201-2.8169255829,6.9371596843-4.4799769055,2.3590996174-7.8060795508,2.3590996174h-7.6892921588v12.4541949454h-4.2136839738v-31.1308540747l.0000142563-.0093236028ZM295.1873828742,371.8676293746c4.517328342,0,6.7736687404-1.8452464973,6.7736687404-5.5403870371s-2.2610164561-5.6291465955-6.7736687404-5.6291465955h-7.1894386992v11.1695336326h7.1894386992Z"/><path class="cls-2" d="M327.3272674709,384.8217062922c-.8875955848,1.1585218054-1.9994138384,2.0741452238-3.3401308184,2.7468417426-1.3453930377.6726965188-2.8402773588,1.009030522-4.4846244507,1.009030522s-3.1112035794-.2896304513-4.4846244507-.868891354-2.5552944526-1.3967726472-3.5456777689-2.4478591759c-.9903548038-1.0510865287-1.7704865993-2.3123960656-2.3357478415-3.7745764954-.5652612422-1.4668564875-.8455395781-3.0972039189-.8455395781-4.9003944095s.280278336-3.3868343702.8455395781-4.8536908577,1.34071698-2.7234899667,2.3357478415-3.7745764954c.9903548038-1.0510865287,2.1722568976-1.8685982732,3.5456777689-2.4478591759s2.8683051924-.868891354,4.4846244507-.868891354,3.1439074707.3363340032,4.4846244507,1.009030522c1.34071698.6726965188,2.4572112913,1.5883199372,3.3401308184,2.7468417426v-3.2513712599h4.1202626139v22.9370323986h-4.1202626139v-3.2606663502ZM320.2312643878,384.8217062922c1.6163477708,0,3.050500367-.3830660675,4.3024577886-1.1445221448s2.1815805005-1.7845147724,2.7935452944-3.0691760853v-7.964894437c-.611964794-1.2799852551-1.5415878729-2.3123960656-2.7935452944-3.0925278612s-2.6861100177-1.1678739208-4.3024577886-1.1678739208c-1.0697622469,0-2.0741452238.1915187775-3.0224440209.574584845-.9483273097.3830660675-1.7704865993.9249470212-2.4712109518,1.6256713737s-1.2519574215,1.555616046-1.6490516621,2.564646568c-.397065728,1.009030522-.5932890758,2.1535526669-.5932890758,3.433537922s.1961948352,2.4338595154.5932890758,3.4569182105c.397065728,1.0230586951.943651252,1.8872739914,1.6490516621,2.5879983439.7007243525.7007243524,1.5275882124,1.2426053062,2.4712109518,1.6256713737.943651252.3830660675,1.952681774.574584845,3.0224440209.574584845v-.0046190326Z"/><path class="cls-2" d="M344.2661153795,385.4616989198l-9.5672140348-20.3256822788h4.3958648922l7.2781982577,15.747622212,6.8203722922-15.747622212h4.3958648922l-13.8696718234,31.3597528011h-4.3958648922l4.9424504162-11.0340705223Z"/></g><rect class="cls-1" width="500" height="500"/></svg>