<?xml version="1.0" encoding="UTF-8"?>
<svg width="140px" height="80px" viewBox="0 0 140 80" version="1.1" xmlns="http://www.w3.org/2000/svg" xmlns:xlink="http://www.w3.org/1999/xlink">
    <!-- Generator: Sketch 56.3 (81716) - https://sketch.com -->
    <title>im/logo-pay/swisspass</title>
    <desc>Created with Sketch.</desc>
    <defs>
        <linearGradient x1="0%" y1="50%" x2="100%" y2="50%" id="linearGradient-1">
            <stop stop-color="#D82229" offset="0%"></stop>
            <stop stop-color="#9A1B1E" offset="100%"></stop>
        </linearGradient>
    </defs>
    <g id="im/logo-pay/swisspass" stroke="none" stroke-width="1" fill="none" fill-rule="evenodd">
        <g id="card_swisspass" transform="translate(25.000000, 10.000000)">
            <rect id="Rectangle-11" fill="url(#linearGradient-1)" x="0" y="0" width="90" height="60" rx="3"></rect>
            <g id="Shape-4" transform="translate(4.500000, 15.000000)" fill="#FFFFFE">
                <path d="M33.7667066,28.5217827 L33.7667066,29.3013581 L34.5512659,29.3013581 L34.5512659,29.9704247 L33.7667066,29.9704247 L33.7667066,30.75 L33.0926592,30.75 L33.0926592,29.9704247 L32.3080999,29.9704247 L32.3080999,29.3013581 L33.0926592,29.3013581 L33.0926592,28.5217827 L33.7667066,28.5217827 Z M22.9970876,28.5217827 L22.9970876,29.3013581 L23.7820254,29.3013581 L23.7820254,29.9704247 L22.9970876,29.9704247 L22.9970876,30.75 L22.3234187,30.75 L22.3234187,29.9704247 L21.5388594,29.9704247 L21.5388594,29.3013581 L22.3234187,29.3013581 L22.3234187,28.5217827 L22.9970876,28.5217827 Z M19.4077193,28.5217827 L19.4077193,29.3013581 L20.1922786,29.3013581 L20.1922786,29.9704247 L19.4077193,29.9704247 L19.4077193,30.75 L18.7336719,30.75 L18.7336719,29.9704247 L17.9491126,29.9704247 L17.9491126,29.3013581 L18.7336719,29.3013581 L18.7336719,28.5217827 L19.4077193,28.5217827 Z M15.8179724,28.5217827 L15.8179724,29.3013581 L16.6025318,29.3013581 L16.6025318,29.9704247 L15.8179724,29.9704247 L15.8179724,30.75 L15.1439251,30.75 L15.1439251,29.9704247 L14.3593658,29.9704247 L14.3593658,29.3013581 L15.1439251,29.3013581 L15.1439251,28.5217827 L15.8179724,28.5217827 Z M12.2278471,28.5217827 L12.2278471,29.3013581 L13.0127849,29.3013581 L13.0127849,29.9704247 L12.2278471,29.9704247 L12.2278471,30.75 L11.5541783,30.75 L11.5541783,29.9704247 L10.7692405,29.9704247 L10.7692405,29.3013581 L11.5541783,29.3013581 L11.5541783,28.5217827 L12.2278471,28.5217827 Z M48.1256939,24.9565599 L48.1256939,25.7361352 L48.9106316,25.7361352 L48.9106316,26.4052018 L48.1256939,26.4052018 L48.1256939,27.1844013 L47.4516465,27.1844013 L47.4516465,26.4052018 L46.6670872,26.4052018 L46.6670872,25.7361352 L47.4516465,25.7361352 L47.4516465,24.9565599 L48.1256939,24.9565599 Z M37.3564534,24.9565599 L37.3564534,25.7361352 L38.1410127,25.7361352 L38.1410127,26.4052018 L37.3564534,26.4052018 L37.3564534,27.1844013 L36.682406,27.1844013 L36.682406,26.4052018 L35.8978467,26.4052018 L35.8978467,25.7361352 L36.682406,25.7361352 L36.682406,24.9565599 L37.3564534,24.9565599 Z M33.7667066,24.9565599 L33.7667066,25.7361352 L34.5512659,25.7361352 L34.5512659,26.4052018 L33.7667066,26.4052018 L33.7667066,27.1844013 L33.0926592,27.1844013 L33.0926592,26.4052018 L32.3080999,26.4052018 L32.3080999,25.7361352 L33.0926592,25.7361352 L33.0926592,24.9565599 L33.7667066,24.9565599 Z M30.1769597,24.9565599 L30.1769597,25.7361352 L30.9615191,25.7361352 L30.9615191,26.4052018 L30.1769597,26.4052018 L30.1769597,27.1844013 L29.5029124,27.1844013 L29.5029124,26.4052018 L28.7183531,26.4052018 L28.7183531,25.7361352 L29.5029124,25.7361352 L29.5029124,24.9565599 L30.1769597,24.9565599 Z M22.9970876,24.9565599 L22.9970876,25.7361352 L23.7820254,25.7361352 L23.7820254,26.4052018 L22.9970876,26.4052018 L22.9970876,27.1844013 L22.3234187,27.1844013 L22.3234187,26.4052018 L21.5388594,26.4052018 L21.5388594,25.7361352 L22.3234187,25.7361352 L22.3234187,24.9565599 L22.9970876,24.9565599 Z M19.4077193,24.9565599 L19.4077193,25.7361352 L20.1922786,25.7361352 L20.1922786,26.4052018 L19.4077193,26.4052018 L19.4077193,27.1844013 L18.7336719,27.1844013 L18.7336719,26.4052018 L17.9491126,26.4052018 L17.9491126,25.7361352 L18.7336719,25.7361352 L18.7336719,24.9565599 L19.4077193,24.9565599 Z M15.8179724,24.9565599 L15.8179724,25.7361352 L16.6025318,25.7361352 L16.6025318,26.4052018 L15.8179724,26.4052018 L15.8179724,27.1844013 L15.1439251,27.1844013 L15.1439251,26.4052018 L14.3593658,26.4052018 L14.3593658,25.7361352 L15.1439251,25.7361352 L15.1439251,24.9565599 L15.8179724,24.9565599 Z M12.2278471,24.9565599 L12.2278471,25.7361352 L13.0127849,25.7361352 L13.0127849,26.4052018 L12.2278471,26.4052018 L12.2278471,27.1844013 L11.5541783,27.1844013 L11.5541783,26.4052018 L10.7692405,26.4052018 L10.7692405,25.7361352 L11.5541783,25.7361352 L11.5541783,24.9565599 L12.2278471,24.9565599 Z M5.04835349,24.9565599 L5.04835349,25.7361352 L5.83329128,25.7361352 L5.83329128,26.4052018 L5.04835349,26.4052018 L5.04835349,27.1844013 L4.37468461,27.1844013 L4.37468461,26.4052018 L3.59012529,26.4052018 L3.59012529,25.7361352 L4.37468461,25.7361352 L4.37468461,24.9565599 L5.04835349,24.9565599 Z M1.45860667,24.9565599 L1.45860667,25.7361352 L2.24316599,25.7361352 L2.24316599,26.4052018 L1.45860667,26.4052018 L1.45860667,27.1844013 L0.784937787,27.1844013 L0.784937787,26.4052018 L0,26.4052018 L0,25.7361352 L0.784937787,25.7361352 L0.784937787,24.9565599 L1.45860667,24.9565599 Z M44.535947,21.391337 L44.535947,22.1709124 L45.3205064,22.1709124 L45.3205064,22.839979 L44.535947,22.839979 L44.535947,23.6191784 L43.8622781,23.6191784 L43.8622781,22.839979 L43.0773404,22.839979 L43.0773404,22.1709124 L43.8622781,22.1709124 L43.8622781,21.391337 L44.535947,21.391337 Z M40.9462002,21.391337 L40.9462002,22.1709124 L41.7307595,22.1709124 L41.7307595,22.839979 L40.9462002,22.839979 L40.9462002,23.6191784 L40.2721529,23.6191784 L40.2721529,22.839979 L39.4875935,22.839979 L39.4875935,22.1709124 L40.2721529,22.1709124 L40.2721529,21.391337 L40.9462002,21.391337 Z M37.3564534,21.391337 L37.3564534,22.1709124 L38.1410127,22.1709124 L38.1410127,22.839979 L37.3564534,22.839979 L37.3564534,23.6191784 L36.682406,23.6191784 L36.682406,22.839979 L35.8978467,22.839979 L35.8978467,22.1709124 L36.682406,22.1709124 L36.682406,21.391337 L37.3564534,21.391337 Z M33.7667066,21.391337 L33.7667066,22.1709124 L34.5512659,22.1709124 L34.5512659,22.839979 L33.7667066,22.839979 L33.7667066,23.6191784 L33.0926592,23.6191784 L33.0926592,22.839979 L32.3080999,22.839979 L32.3080999,22.1709124 L33.0926592,22.1709124 L33.0926592,21.391337 L33.7667066,21.391337 Z M30.1769597,21.391337 L30.1769597,22.1709124 L30.9615191,22.1709124 L30.9615191,22.839979 L30.1769597,22.839979 L30.1769597,23.6191784 L29.5029124,23.6191784 L29.5029124,22.839979 L28.7183531,22.839979 L28.7183531,22.1709124 L29.5029124,22.1709124 L29.5029124,21.391337 L30.1769597,21.391337 Z M26.5872129,21.391337 L26.5872129,22.1709124 L27.3717722,22.1709124 L27.3717722,22.839979 L26.5872129,22.839979 L26.5872129,23.6191784 L25.9131656,23.6191784 L25.9131656,22.839979 L25.1286062,22.839979 L25.1286062,22.1709124 L25.9131656,22.1709124 L25.9131656,21.391337 L26.5872129,21.391337 Z M22.9970876,21.391337 L22.9970876,22.1709124 L23.7820254,22.1709124 L23.7820254,22.839979 L22.9970876,22.839979 L22.9970876,23.6191784 L22.3234187,23.6191784 L22.3234187,22.839979 L21.5388594,22.839979 L21.5388594,22.1709124 L22.3234187,22.1709124 L22.3234187,21.391337 L22.9970876,21.391337 Z M19.4077193,21.391337 L19.4077193,22.1709124 L20.1922786,22.1709124 L20.1922786,22.839979 L19.4077193,22.839979 L19.4077193,23.6191784 L18.7336719,23.6191784 L18.7336719,22.839979 L17.9491126,22.839979 L17.9491126,22.1709124 L18.7336719,22.1709124 L18.7336719,21.391337 L19.4077193,21.391337 Z M15.8179724,21.391337 L15.8179724,22.1709124 L16.6025318,22.1709124 L16.6025318,22.839979 L15.8179724,22.839979 L15.8179724,23.6191784 L15.1439251,23.6191784 L15.1439251,22.839979 L14.3593658,22.839979 L14.3593658,22.1709124 L15.1439251,22.1709124 L15.1439251,21.391337 L15.8179724,21.391337 Z M12.2278471,21.391337 L12.2278471,22.1709124 L13.0127849,22.1709124 L13.0127849,22.839979 L12.2278471,22.839979 L12.2278471,23.6191784 L11.5541783,23.6191784 L11.5541783,22.839979 L10.7692405,22.839979 L10.7692405,22.1709124 L11.5541783,22.1709124 L11.5541783,21.391337 L12.2278471,21.391337 Z M8.63847878,21.391337 L8.63847878,22.1709124 L9.42303811,22.1709124 L9.42303811,22.839979 L8.63847878,22.839979 L8.63847878,23.6191784 L7.96443144,23.6191784 L7.96443144,22.839979 L7.17949365,22.839979 L7.17949365,22.1709124 L7.96443144,22.1709124 L7.96443144,21.391337 L8.63847878,21.391337 Z M5.04835349,21.391337 L5.04835349,22.1709124 L5.83329128,22.1709124 L5.83329128,22.839979 L5.04835349,22.839979 L5.04835349,23.6191784 L4.37468461,23.6191784 L4.37468461,22.839979 L3.59012529,22.839979 L3.59012529,22.1709124 L4.37468461,22.1709124 L4.37468461,21.391337 L5.04835349,21.391337 Z M48.1256939,17.8261142 L48.1256939,18.6056895 L48.9106316,18.6056895 L48.9106316,19.2747561 L48.1256939,19.2747561 L48.1256939,20.0539556 L47.4516465,20.0539556 L47.4516465,19.2747561 L46.6670872,19.2747561 L46.6670872,18.6056895 L47.4516465,18.6056895 L47.4516465,17.8261142 L48.1256939,17.8261142 Z M44.535947,17.8261142 L44.535947,18.6056895 L45.3205064,18.6056895 L45.3205064,19.2747561 L44.535947,19.2747561 L44.535947,20.0539556 L43.8622781,20.0539556 L43.8622781,19.2747561 L43.0773404,19.2747561 L43.0773404,18.6056895 L43.8622781,18.6056895 L43.8622781,17.8261142 L44.535947,17.8261142 Z M40.9462002,17.8261142 L40.9462002,18.6056895 L41.7307595,18.6056895 L41.7307595,19.2747561 L40.9462002,19.2747561 L40.9462002,20.0539556 L40.2721529,20.0539556 L40.2721529,19.2747561 L39.4875935,19.2747561 L39.4875935,18.6056895 L40.2721529,18.6056895 L40.2721529,17.8261142 L40.9462002,17.8261142 Z M37.3564534,17.8261142 L37.3564534,18.6056895 L38.1410127,18.6056895 L38.1410127,19.2747561 L37.3564534,19.2747561 L37.3564534,20.0539556 L36.682406,20.0539556 L36.682406,19.2747561 L35.8978467,19.2747561 L35.8978467,18.6056895 L36.682406,18.6056895 L36.682406,17.8261142 L37.3564534,17.8261142 Z M33.7667066,17.8261142 L33.7667066,18.6056895 L34.5512659,18.6056895 L34.5512659,19.2747561 L33.7667066,19.2747561 L33.7667066,20.0539556 L33.0926592,20.0539556 L33.0926592,19.2747561 L32.3080999,19.2747561 L32.3080999,18.6056895 L33.0926592,18.6056895 L33.0926592,17.8261142 L33.7667066,17.8261142 Z M30.1769597,17.8261142 L30.1769597,18.6056895 L30.9615191,18.6056895 L30.9615191,19.2747561 L30.1769597,19.2747561 L30.1769597,20.0539556 L29.5029124,20.0539556 L29.5029124,19.2747561 L28.7183531,19.2747561 L28.7183531,18.6056895 L29.5029124,18.6056895 L29.5029124,17.8261142 L30.1769597,17.8261142 Z M26.5872129,17.8261142 L26.5872129,18.6056895 L27.3717722,18.6056895 L27.3717722,19.2747561 L26.5872129,19.2747561 L26.5872129,20.0539556 L25.9131656,20.0539556 L25.9131656,19.2747561 L25.1286062,19.2747561 L25.1286062,18.6056895 L25.9131656,18.6056895 L25.9131656,17.8261142 L26.5872129,17.8261142 Z M22.9970876,17.8261142 L22.9970876,18.6056895 L23.7820254,18.6056895 L23.7820254,19.2747561 L22.9970876,19.2747561 L22.9970876,20.0539556 L22.3234187,20.0539556 L22.3234187,19.2747561 L21.5388594,19.2747561 L21.5388594,18.6056895 L22.3234187,18.6056895 L22.3234187,17.8261142 L22.9970876,17.8261142 Z M19.4077193,17.8261142 L19.4077193,18.6056895 L20.1922786,18.6056895 L20.1922786,19.2747561 L19.4077193,19.2747561 L19.4077193,20.0539556 L18.7336719,20.0539556 L18.7336719,19.2747561 L17.9491126,19.2747561 L17.9491126,18.6056895 L18.7336719,18.6056895 L18.7336719,17.8261142 L19.4077193,17.8261142 Z M15.8179724,17.8261142 L15.8179724,18.6056895 L16.6025318,18.6056895 L16.6025318,19.2747561 L15.8179724,19.2747561 L15.8179724,20.0539556 L15.1439251,20.0539556 L15.1439251,19.2747561 L14.3593658,19.2747561 L14.3593658,18.6056895 L15.1439251,18.6056895 L15.1439251,17.8261142 L15.8179724,17.8261142 Z M12.2278471,17.8261142 L12.2278471,18.6056895 L13.0127849,18.6056895 L13.0127849,19.2747561 L12.2278471,19.2747561 L12.2278471,20.0539556 L11.5541783,20.0539556 L11.5541783,19.2747561 L10.7692405,19.2747561 L10.7692405,18.6056895 L11.5541783,18.6056895 L11.5541783,17.8261142 L12.2278471,17.8261142 Z M8.63847878,17.8261142 L8.63847878,18.6056895 L9.42303811,18.6056895 L9.42303811,19.2747561 L8.63847878,19.2747561 L8.63847878,20.0539556 L7.96443144,20.0539556 L7.96443144,19.2747561 L7.17949365,19.2747561 L7.17949365,18.6056895 L7.96443144,18.6056895 L7.96443144,17.8261142 L8.63847878,17.8261142 Z M5.04835349,17.8261142 L5.04835349,18.6056895 L5.83329128,18.6056895 L5.83329128,19.2747561 L5.04835349,19.2747561 L5.04835349,20.0539556 L4.37468461,20.0539556 L4.37468461,19.2747561 L3.59012529,19.2747561 L3.59012529,18.6056895 L4.37468461,18.6056895 L4.37468461,17.8261142 L5.04835349,17.8261142 Z M44.535947,14.2608914 L44.535947,15.0404667 L45.3205064,15.0404667 L45.3205064,15.7095333 L44.535947,15.7095333 L44.535947,16.4887328 L43.8622781,16.4887328 L43.8622781,15.7095333 L43.0773404,15.7095333 L43.0773404,15.0404667 L43.8622781,15.0404667 L43.8622781,14.2608914 L44.535947,14.2608914 Z M40.9462002,14.2608914 L40.9462002,15.0404667 L41.7307595,15.0404667 L41.7307595,15.7095333 L40.9462002,15.7095333 L40.9462002,16.4887328 L40.2721529,16.4887328 L40.2721529,15.7095333 L39.4875935,15.7095333 L39.4875935,15.0404667 L40.2721529,15.0404667 L40.2721529,14.2608914 L40.9462002,14.2608914 Z M37.3564534,14.2608914 L37.3564534,15.0404667 L38.1410127,15.0404667 L38.1410127,15.7095333 L37.3564534,15.7095333 L37.3564534,16.4887328 L36.682406,16.4887328 L36.682406,15.7095333 L35.8978467,15.7095333 L35.8978467,15.0404667 L36.682406,15.0404667 L36.682406,14.2608914 L37.3564534,14.2608914 Z M33.7667066,14.2608914 L33.7667066,15.0404667 L34.5512659,15.0404667 L34.5512659,15.7095333 L33.7667066,15.7095333 L33.7667066,16.4887328 L33.0926592,16.4887328 L33.0926592,15.7095333 L32.3080999,15.7095333 L32.3080999,15.0404667 L33.0926592,15.0404667 L33.0926592,14.2608914 L33.7667066,14.2608914 Z M30.1769597,14.2608914 L30.1769597,15.0404667 L30.9615191,15.0404667 L30.9615191,15.7095333 L30.1769597,15.7095333 L30.1769597,16.4887328 L29.5029124,16.4887328 L29.5029124,15.7095333 L28.7183531,15.7095333 L28.7183531,15.0404667 L29.5029124,15.0404667 L29.5029124,14.2608914 L30.1769597,14.2608914 Z M26.5872129,14.2608914 L26.5872129,15.0404667 L27.3717722,15.0404667 L27.3717722,15.7095333 L26.5872129,15.7095333 L26.5872129,16.4887328 L25.9131656,16.4887328 L25.9131656,15.7095333 L25.1286062,15.7095333 L25.1286062,15.0404667 L25.9131656,15.0404667 L25.9131656,14.2608914 L26.5872129,14.2608914 Z M22.9970876,14.2608914 L22.9970876,15.0404667 L23.7820254,15.0404667 L23.7820254,15.7095333 L22.9970876,15.7095333 L22.9970876,16.4887328 L22.3234187,16.4887328 L22.3234187,15.7095333 L21.5388594,15.7095333 L21.5388594,15.0404667 L22.3234187,15.0404667 L22.3234187,14.2608914 L22.9970876,14.2608914 Z M19.4077193,14.2608914 L19.4077193,15.0404667 L20.1922786,15.0404667 L20.1922786,15.7095333 L19.4077193,15.7095333 L19.4077193,16.4887328 L18.7336719,16.4887328 L18.7336719,15.7095333 L17.9491126,15.7095333 L17.9491126,15.0404667 L18.7336719,15.0404667 L18.7336719,14.2608914 L19.4077193,14.2608914 Z M15.8179724,14.2608914 L15.8179724,15.0404667 L16.6025318,15.0404667 L16.6025318,15.7095333 L15.8179724,15.7095333 L15.8179724,16.4887328 L15.1439251,16.4887328 L15.1439251,15.7095333 L14.3593658,15.7095333 L14.3593658,15.0404667 L15.1439251,15.0404667 L15.1439251,14.2608914 L15.8179724,14.2608914 Z M12.2278471,14.2608914 L12.2278471,15.0404667 L13.0127849,15.0404667 L13.0127849,15.7095333 L12.2278471,15.7095333 L12.2278471,16.4887328 L11.5541783,16.4887328 L11.5541783,15.7095333 L10.7692405,15.7095333 L10.7692405,15.0404667 L11.5541783,15.0404667 L11.5541783,14.2608914 L12.2278471,14.2608914 Z M8.63847878,14.2608914 L8.63847878,15.0404667 L9.42303811,15.0404667 L9.42303811,15.7095333 L8.63847878,15.7095333 L8.63847878,16.4887328 L7.96443144,16.4887328 L7.96443144,15.7095333 L7.17949365,15.7095333 L7.17949365,15.0404667 L7.96443144,15.0404667 L7.96443144,14.2608914 L8.63847878,14.2608914 Z M40.9462002,10.6956685 L40.9462002,11.4752439 L41.7307595,11.4752439 L41.7307595,12.1443105 L40.9462002,12.1443105 L40.9462002,12.9235099 L40.2721529,12.9235099 L40.2721529,12.1443105 L39.4875935,12.1443105 L39.4875935,11.4752439 L40.2721529,11.4752439 L40.2721529,10.6956685 L40.9462002,10.6956685 Z M37.3564534,10.6956685 L37.3564534,11.4752439 L38.1410127,11.4752439 L38.1410127,12.1443105 L37.3564534,12.1443105 L37.3564534,12.9235099 L36.682406,12.9235099 L36.682406,12.1443105 L35.8978467,12.1443105 L35.8978467,11.4752439 L36.682406,11.4752439 L36.682406,10.6956685 L37.3564534,10.6956685 Z M33.7667066,10.6956685 L33.7667066,11.4752439 L34.5512659,11.4752439 L34.5512659,12.1443105 L33.7667066,12.1443105 L33.7667066,12.9235099 L33.0926592,12.9235099 L33.0926592,12.1443105 L32.3080999,12.1443105 L32.3080999,11.4752439 L33.0926592,11.4752439 L33.0926592,10.6956685 L33.7667066,10.6956685 Z M30.1769597,10.6956685 L30.1769597,11.4752439 L30.9615191,11.4752439 L30.9615191,12.1443105 L30.1769597,12.1443105 L30.1769597,12.9235099 L29.5029124,12.9235099 L29.5029124,12.1443105 L28.7183531,12.1443105 L28.7183531,11.4752439 L29.5029124,11.4752439 L29.5029124,10.6956685 L30.1769597,10.6956685 Z M26.5872129,10.6956685 L26.5872129,11.4752439 L27.3717722,11.4752439 L27.3717722,12.1443105 L26.5872129,12.1443105 L26.5872129,12.9235099 L25.9131656,12.9235099 L25.9131656,12.1443105 L25.1286062,12.1443105 L25.1286062,11.4752439 L25.9131656,11.4752439 L25.9131656,10.6956685 L26.5872129,10.6956685 Z M22.9970876,10.6956685 L22.9970876,11.4752439 L23.7820254,11.4752439 L23.7820254,12.1443105 L22.9970876,12.1443105 L22.9970876,12.9235099 L22.3234187,12.9235099 L22.3234187,12.1443105 L21.5388594,12.1443105 L21.5388594,11.4752439 L22.3234187,11.4752439 L22.3234187,10.6956685 L22.9970876,10.6956685 Z M19.4077193,10.6956685 L19.4077193,11.4752439 L20.1922786,11.4752439 L20.1922786,12.1443105 L19.4077193,12.1443105 L19.4077193,12.9235099 L18.7336719,12.9235099 L18.7336719,12.1443105 L17.9491126,12.1443105 L17.9491126,11.4752439 L18.7336719,11.4752439 L18.7336719,10.6956685 L19.4077193,10.6956685 Z M15.8179724,10.6956685 L15.8179724,11.4752439 L16.6025318,11.4752439 L16.6025318,12.1443105 L15.8179724,12.1443105 L15.8179724,12.9235099 L15.1439251,12.9235099 L15.1439251,12.1443105 L14.3593658,12.1443105 L14.3593658,11.4752439 L15.1439251,11.4752439 L15.1439251,10.6956685 L15.8179724,10.6956685 Z M12.2278471,10.6956685 L12.2278471,11.4752439 L13.0127849,11.4752439 L13.0127849,12.1443105 L12.2278471,12.1443105 L12.2278471,12.9235099 L11.5541783,12.9235099 L11.5541783,12.1443105 L10.7692405,12.1443105 L10.7692405,11.4752439 L11.5541783,11.4752439 L11.5541783,10.6956685 L12.2278471,10.6956685 Z M40.9462002,7.13044568 L40.9462002,7.91002102 L41.7307595,7.91002102 L41.7307595,8.57908762 L40.9462002,8.57908762 L40.9462002,9.35828709 L40.2721529,9.35828709 L40.2721529,8.57908762 L39.4875935,8.57908762 L39.4875935,7.91002102 L40.2721529,7.91002102 L40.2721529,7.13044568 L40.9462002,7.13044568 Z M37.3564534,7.13044568 L37.3564534,7.91002102 L38.1410127,7.91002102 L38.1410127,8.57908762 L37.3564534,8.57908762 L37.3564534,9.35828709 L36.682406,9.35828709 L36.682406,8.57908762 L35.8978467,8.57908762 L35.8978467,7.91002102 L36.682406,7.91002102 L36.682406,7.13044568 L37.3564534,7.13044568 Z M33.7667066,7.13044568 L33.7667066,7.91002102 L34.5512659,7.91002102 L34.5512659,8.57908762 L33.7667066,8.57908762 L33.7667066,9.35828709 L33.0926592,9.35828709 L33.0926592,8.57908762 L32.3080999,8.57908762 L32.3080999,7.91002102 L33.0926592,7.91002102 L33.0926592,7.13044568 L33.7667066,7.13044568 Z M30.1769597,7.13044568 L30.1769597,7.91002102 L30.9615191,7.91002102 L30.9615191,8.57908762 L30.1769597,8.57908762 L30.1769597,9.35828709 L29.5029124,9.35828709 L29.5029124,8.57908762 L28.7183531,8.57908762 L28.7183531,7.91002102 L29.5029124,7.91002102 L29.5029124,7.13044568 L30.1769597,7.13044568 Z M26.5872129,7.13044568 L26.5872129,7.91002102 L27.3717722,7.91002102 L27.3717722,8.57908762 L26.5872129,8.57908762 L26.5872129,9.35828709 L25.9131656,9.35828709 L25.9131656,8.57908762 L25.1286062,8.57908762 L25.1286062,7.91002102 L25.9131656,7.91002102 L25.9131656,7.13044568 L26.5872129,7.13044568 Z M22.9970876,7.13044568 L22.9970876,7.91002102 L23.7820254,7.91002102 L23.7820254,8.57908762 L22.9970876,8.57908762 L22.9970876,9.35828709 L22.3234187,9.35828709 L22.3234187,8.57908762 L21.5388594,8.57908762 L21.5388594,7.91002102 L22.3234187,7.91002102 L22.3234187,7.13044568 L22.9970876,7.13044568 Z M19.4077193,7.13044568 L19.4077193,7.91002102 L20.1922786,7.91002102 L20.1922786,8.57908762 L19.4077193,8.57908762 L19.4077193,9.35828709 L18.7336719,9.35828709 L18.7336719,8.57908762 L17.9491126,8.57908762 L17.9491126,7.91002102 L18.7336719,7.91002102 L18.7336719,7.13044568 L19.4077193,7.13044568 Z M15.8179724,7.13044568 L15.8179724,7.91002102 L16.6025318,7.91002102 L16.6025318,8.57908762 L15.8179724,8.57908762 L15.8179724,9.35828709 L15.1439251,9.35828709 L15.1439251,8.57908762 L14.3593658,8.57908762 L14.3593658,7.91002102 L15.1439251,7.91002102 L15.1439251,7.13044568 L15.8179724,7.13044568 Z M12.2278471,7.13044568 L12.2278471,7.91002102 L13.0127849,7.91002102 L13.0127849,8.57908762 L12.2278471,8.57908762 L12.2278471,9.35828709 L11.5541783,9.35828709 L11.5541783,8.57908762 L10.7692405,8.57908762 L10.7692405,7.91002102 L11.5541783,7.91002102 L11.5541783,7.13044568 L12.2278471,7.13044568 Z M37.3564534,3.56484696 L37.3564534,4.34479819 L38.1410127,4.34479819 L38.1410127,5.01386478 L37.3564534,5.01386478 L37.3564534,5.79306425 L36.682406,5.79306425 L36.682406,5.01386478 L35.8978467,5.01386478 L35.8978467,4.34479819 L36.682406,4.34479819 L36.682406,3.56484696 L37.3564534,3.56484696 Z M33.7667066,3.56484696 L33.7667066,4.34479819 L34.5512659,4.34479819 L34.5512659,5.01386478 L33.7667066,5.01386478 L33.7667066,5.79306425 L33.0926592,5.79306425 L33.0926592,5.01386478 L32.3080999,5.01386478 L32.3080999,4.34479819 L33.0926592,4.34479819 L33.0926592,3.56484696 L33.7667066,3.56484696 Z M30.1769597,3.56484696 L30.1769597,4.34479819 L30.9615191,4.34479819 L30.9615191,5.01386478 L30.1769597,5.01386478 L30.1769597,5.79306425 L29.5029124,5.79306425 L29.5029124,5.01386478 L28.7183531,5.01386478 L28.7183531,4.34479819 L29.5029124,4.34479819 L29.5029124,3.56484696 L30.1769597,3.56484696 Z M26.5872129,3.56484696 L26.5872129,4.34479819 L27.3717722,4.34479819 L27.3717722,5.01386478 L26.5872129,5.01386478 L26.5872129,5.79306425 L25.9131656,5.79306425 L25.9131656,5.01386478 L25.1286062,5.01386478 L25.1286062,4.34479819 L25.9131656,4.34479819 L25.9131656,3.56484696 L26.5872129,3.56484696 Z M22.9970876,3.56484696 L22.9970876,4.34479819 L23.7820254,4.34479819 L23.7820254,5.01386478 L22.9970876,5.01386478 L22.9970876,5.79306425 L22.3234187,5.79306425 L22.3234187,5.01386478 L21.5388594,5.01386478 L21.5388594,4.34479819 L22.3234187,4.34479819 L22.3234187,3.56484696 L22.9970876,3.56484696 Z M19.4077193,3.56484696 L19.4077193,4.34479819 L20.1922786,4.34479819 L20.1922786,5.01386478 L19.4077193,5.01386478 L19.4077193,5.79306425 L18.7336719,5.79306425 L18.7336719,5.01386478 L17.9491126,5.01386478 L17.9491126,4.34479819 L18.7336719,4.34479819 L18.7336719,3.56484696 L19.4077193,3.56484696 Z M30.1769597,0 L30.1769597,0.779575347 L30.9615191,0.779575347 L30.9615191,1.44864194 L30.1769597,1.44864194 L30.1769597,2.22784141 L29.5029124,2.22784141 L29.5029124,1.44864194 L28.7183531,1.44864194 L28.7183531,0.779575347 L29.5029124,0.779575347 L29.5029124,0 L30.1769597,0 Z M51.7154407,17.8261142 L51.7154407,18.6056895 L52.5,18.6056895 L52.5,19.2747561 L51.7154407,19.2747561 L51.7154407,20.0539556 L51.0417718,20.0539556 L51.0417718,19.2747561 L50.256834,19.2747561 L50.256834,18.6056895 L51.0417718,18.6056895 L51.0417718,17.8261142 L51.7154407,17.8261142 Z M51.7154407,14.2608914 L51.7154407,15.0404667 L52.5,15.0404667 L52.5,15.7095333 L51.7154407,15.7095333 L51.7154407,16.4887328 L51.0417718,16.4887328 L51.0417718,15.7095333 L50.256834,15.7095333 L50.256834,15.0404667 L51.0417718,15.0404667 L51.0417718,14.2608914 L51.7154407,14.2608914 Z" id="Shape"></path>
            </g>
            <g id="Group-18" transform="translate(48.000000, 14.250000)" fill="#FFFFFE">
                <path d="M0.699305556,5.075625 C0.794791667,5.28675 0.925347222,5.4555 1.09201389,5.58075 C1.25833333,5.706375 1.45520833,5.796 1.68298611,5.850375 C1.91006944,5.90475 2.15277778,5.932125 2.41215278,5.932125 C2.56076389,5.932125 2.72222222,5.90925 2.89652778,5.863125 C3.07083333,5.818125 3.23333333,5.744625 3.384375,5.644875 C3.53472222,5.5455 3.66041667,5.4165 3.76041667,5.259375 C3.86041667,5.102625 3.91111111,4.9125 3.91111111,4.690125 C3.91111111,4.51875 3.87534722,4.37025 3.80381944,4.244625 C3.73263889,4.119 3.63993056,4.01325 3.52604167,3.927375 C3.4125,3.841875 3.2875,3.772125 3.15,3.717375 C3.0125,3.663375 2.87743056,3.6195 2.74513889,3.585 L1.484375,3.2505 C1.32013889,3.205125 1.16041667,3.148125 1.00486111,3.079875 C0.848611111,3.010875 0.712152778,2.91975 0.596180556,2.805 C0.480208333,2.69175 0.385763889,2.5515 0.314583333,2.38575 C0.24375,2.220375 0.207638889,2.0175 0.207638889,1.777875 C0.207638889,1.629375 0.234027778,1.455 0.286805556,1.25475 C0.339236111,1.055625 0.438541667,0.866625 0.584722222,0.689625 C0.729861111,0.513 0.929166667,0.362625 1.18333333,0.24 C1.43645833,0.117375 1.76145833,0.055875 2.15868056,0.055875 C2.43888889,0.055875 2.70520833,0.095625 2.95972222,0.175875 C3.21319444,0.256125 3.43541667,0.376125 3.62569444,0.5355 C3.81597222,0.696 3.96770833,0.894 4.08125,1.131 C4.19479167,1.368 4.25243056,1.644 4.25243056,1.9575 L3.71354167,1.9575 C3.70243056,1.7235 3.65347222,1.519125 3.56631944,1.34475 C3.47916667,1.171125 3.36527778,1.025625 3.22534722,0.908625 C3.08506944,0.79125 2.92361111,0.70275 2.74166667,0.643125 C2.559375,0.583125 2.36736111,0.553125 2.16631944,0.553125 C1.98125,0.553125 1.803125,0.574125 1.63125,0.61725 C1.45972222,0.659625 1.30868056,0.728625 1.17986111,0.82275 C1.04930556,0.916875 0.945486111,1.041 0.865625,1.195125 C0.786458333,1.35 0.747222222,1.540875 0.747222222,1.76925 C0.747222222,1.9125 0.769097222,2.03625 0.814236111,2.141625 C0.859722222,2.247375 0.921527778,2.337375 1.00069444,2.41125 C1.08055556,2.485875 1.17118056,2.545875 1.27361111,2.59125 C1.37708333,2.637375 1.48680556,2.674125 1.60277778,2.702625 L2.98368056,3.070875 C3.184375,3.127875 3.37326389,3.198375 3.55104167,3.2805 C3.72777778,3.36375 3.88402778,3.466875 4.01805556,3.5895 C4.15381944,3.712125 4.25902778,3.862125 4.33576389,4.03875 C4.41180556,4.216125 4.45069444,4.429875 4.45069444,4.6815 C4.45069444,4.74975 4.44409722,4.84125 4.43125,4.955625 C4.41770833,5.07 4.38611111,5.191125 4.33576389,5.319375 C4.28541667,5.447625 4.21458333,5.578125 4.12118056,5.709375 C4.02847222,5.841 3.90208333,5.9595 3.740625,6.0645 C3.57916667,6.170625 3.37986111,6.2565 3.14166667,6.32175 C2.90381944,6.387375 2.61875,6.42 2.28576389,6.42 C1.95277778,6.42 1.64305556,6.379125 1.35763889,6.295875 C1.07256944,6.213 0.828472222,6.08625 0.628472222,5.9145 C0.427083333,5.743125 0.272222222,5.52375 0.163541667,5.25525 C0.0552083333,4.987125 0.009375,4.66425 0.0256944444,4.287375 L0.564583333,4.287375 C0.558680556,4.601625 0.603819444,4.8645 0.699305556,5.075625" id="Fill-482"></path>
                <polyline id="Fill-483" points="5.37083333 1.88025 6.41805556 5.666625 6.43333333 5.666625 7.43229167 1.88025 7.99618056 1.88025 8.99479167 5.666625 9.01111111 5.666625 10.0579861 1.88025 10.5892361 1.88025 9.27326389 6.300375 8.72569444 6.300375 7.71840278 2.583 7.70243056 2.583 6.703125 6.300375 6.15590278 6.300375 4.83923611 1.88025 5.37083333 1.88025"></polyline>
                <polygon id="Fill-484" points="11.1680556 1.049625 11.6677083 1.049625 11.6677083 0.1845 11.1680556 0.1845"></polygon>
                <polygon id="Fill-485" points="11.1680556 6.300375 11.6677083 6.300375 11.6677083 1.88025 11.1680556 1.88025"></polygon>
                <path d="M15.0225694,2.740875 C14.9645833,2.61825 14.8861111,2.517375 14.7888889,2.437125 C14.6909722,2.35725 14.5788194,2.299125 14.4513889,2.261625 C14.3243056,2.2245 14.1899306,2.20575 14.0465278,2.20575 C13.9357639,2.20575 13.8236111,2.218875 13.7100694,2.24475 C13.5961806,2.269875 13.4916667,2.313 13.3965278,2.373 C13.3020833,2.433 13.2243056,2.51175 13.1663194,2.6085 C13.1083333,2.705625 13.0798611,2.825625 13.0798611,2.968125 C13.0798611,3.088125 13.1069444,3.190125 13.1621528,3.27225 C13.2180556,3.355125 13.2885417,3.424875 13.3729167,3.48225 C13.4572917,3.53925 13.55,3.5865 13.6503472,3.623625 C13.7510417,3.660375 13.8434028,3.690375 13.928125,3.713625 L14.59375,3.876 C14.7375,3.898875 14.878125,3.940875 15.01875,4.0005 C15.1579861,4.060875 15.2826389,4.1385 15.3909722,4.236375 C15.4996528,4.333125 15.5878472,4.453125 15.6569444,4.596 C15.7253472,4.738875 15.7597222,4.906875 15.7597222,5.101125 C15.7597222,5.341125 15.7090278,5.5455 15.6090278,5.713125 C15.5090278,5.881875 15.3802083,6.0195 15.2246528,6.1245 C15.0690972,6.230625 14.8930556,6.305625 14.6972222,6.35175 C14.5017361,6.397125 14.3086806,6.42 14.1180556,6.42 C13.6375,6.42 13.2472222,6.297375 12.9482639,6.052125 C12.65,5.806875 12.4798611,5.412375 12.4371528,4.86975 L12.9364583,4.86975 C12.9572917,5.235 13.0805556,5.511 13.3059028,5.696625 C13.5305556,5.881875 13.809375,5.974875 14.1423611,5.974875 C14.2635417,5.974875 14.3888889,5.960625 14.5194444,5.932125 C14.6482639,5.903625 14.7680556,5.854875 14.8795139,5.78625 C14.9902778,5.71725 15.0819444,5.631 15.153125,5.524875 C15.2246528,5.419125 15.2600694,5.289375 15.2600694,5.135625 C15.2600694,5.003625 15.2354167,4.8945 15.1854167,4.805625 C15.1347222,4.717125 15.0677083,4.6425 14.9826389,4.582875 C14.8979167,4.522875 14.8017361,4.473375 14.6934028,4.432875 C14.5850694,4.393125 14.4753472,4.359 14.3642361,4.3305 L13.7215278,4.176375 C13.5572917,4.13025 13.4072917,4.077375 13.2694444,4.017375 C13.1322917,3.957375 13.0121528,3.8835 12.9086806,3.795 C12.80625,3.7065 12.725,3.59775 12.6670139,3.4695 C12.6086806,3.3405 12.5798611,3.18225 12.5798611,2.994 C12.5798611,2.770875 12.6256944,2.58 12.7184028,2.42025 C12.8114583,2.260125 12.93125,2.131875 13.0798611,2.035125 C13.2270833,1.93725 13.3923611,1.866375 13.5756944,1.82025 C13.7572917,1.774875 13.9381944,1.752 14.1180556,1.752 C14.3243056,1.752 14.5166667,1.7805 14.6934028,1.8375 C14.8701389,1.894875 15.0267361,1.983375 15.1611111,2.103375 C15.2961806,2.223375 15.4034722,2.371875 15.4819444,2.5485 C15.5621528,2.7255 15.6065972,2.934375 15.6177083,3.174 L15.1180556,3.174 C15.1125,3.007875 15.0809028,2.864625 15.0225694,2.740875" id="Fill-486"></path>
                <path d="M18.8767361,2.740875 C18.81875,2.61825 18.7409722,2.517375 18.6434028,2.437125 C18.5451389,2.35725 18.4329861,2.299125 18.3059028,2.261625 C18.1788194,2.2245 18.0444444,2.20575 17.9010417,2.20575 C17.7902778,2.20575 17.6777778,2.218875 17.5642361,2.24475 C17.4506944,2.269875 17.3458333,2.313 17.2513889,2.373 C17.15625,2.433 17.0788194,2.51175 17.0208333,2.6085 C16.9628472,2.705625 16.934375,2.825625 16.934375,2.968125 C16.934375,3.088125 16.9614583,3.190125 17.0170139,3.27225 C17.0722222,3.355125 17.1427083,3.424875 17.2270833,3.48225 C17.3121528,3.53925 17.4041667,3.5865 17.5048611,3.623625 C17.6055556,3.660375 17.6979167,3.690375 17.7822917,3.713625 L18.4486111,3.876 C18.5916667,3.898875 18.7322917,3.940875 18.8732639,4.0005 C19.0125,4.060875 19.1371528,4.1385 19.2454861,4.236375 C19.3538194,4.333125 19.4423611,4.453125 19.5118056,4.596 C19.5798611,4.738875 19.6138889,4.906875 19.6138889,5.101125 C19.6138889,5.341125 19.5638889,5.5455 19.4638889,5.713125 C19.3638889,5.881875 19.2347222,6.0195 19.0788194,6.1245 C18.9232639,6.230625 18.7472222,6.305625 18.5517361,6.35175 C18.3559028,6.397125 18.1631944,6.42 17.9729167,6.42 C17.4920139,6.42 17.1013889,6.297375 16.8027778,6.052125 C16.5041667,5.806875 16.3340278,5.412375 16.2913194,4.86975 L16.7913194,4.86975 C16.8114583,5.235 16.9350694,5.511 17.1600694,5.696625 C17.3850694,5.881875 17.6635417,5.974875 17.9965278,5.974875 C18.1180556,5.974875 18.2430556,5.960625 18.3736111,5.932125 C18.5024306,5.903625 18.6225694,5.854875 18.7336806,5.78625 C18.8447917,5.71725 18.9361111,5.631 19.0072917,5.524875 C19.0788194,5.419125 19.1145833,5.289375 19.1145833,5.135625 C19.1145833,5.003625 19.0902778,4.8945 19.0395833,4.805625 C18.9895833,4.717125 18.9222222,4.6425 18.8368056,4.582875 C18.7524306,4.522875 18.65625,4.473375 18.5479167,4.432875 C18.4395833,4.393125 18.3295139,4.359 18.21875,4.3305 L17.5756944,4.176375 C17.4121528,4.13025 17.2614583,4.077375 17.1243056,4.017375 C16.9864583,3.957375 16.8663194,3.8835 16.7635417,3.795 C16.6607639,3.7065 16.5791667,3.59775 16.5211806,3.4695 C16.4631944,3.3405 16.4340278,3.18225 16.4340278,2.994 C16.4340278,2.770875 16.4798611,2.58 16.5729167,2.42025 C16.665625,2.260125 16.7857639,2.131875 16.934375,2.035125 C17.0815972,1.93725 17.2465278,1.866375 17.4298611,1.82025 C17.6121528,1.774875 17.7927083,1.752 17.9729167,1.752 C18.1788194,1.752 18.3708333,1.7805 18.5479167,1.8375 C18.7246528,1.894875 18.8809028,1.983375 19.0159722,2.103375 C19.1506944,2.223375 19.2576389,2.371875 19.3368056,2.5485 C19.4166667,2.7255 19.4611111,2.934375 19.471875,3.174 L18.9725694,3.174 C18.9666667,3.007875 18.9350694,2.864625 18.8767361,2.740875" id="Fill-487"></path>
                <path d="M23.8454861,2.552625 C23.7847222,2.68125 23.7048611,2.784375 23.6072917,2.860875 C23.5097222,2.938125 23.403125,2.994 23.2868056,3.028125 C23.1697917,3.06225 23.05625,3.079875 22.9451389,3.079875 L21.49375,3.079875 L21.49375,1.05825 L22.9611111,1.05825 C23.0927083,1.05825 23.2173611,1.0725 23.3336806,1.101 C23.4503472,1.1295 23.5527778,1.182375 23.6427083,1.26 C23.7333333,1.3365 23.8041667,1.441125 23.8569444,1.572 C23.9100694,1.704 23.9368056,1.869 23.9368056,2.068875 C23.9368056,2.263125 23.90625,2.42475 23.8454861,2.552625 Z M24.8524306,1.460625 C24.8020833,1.23825 24.7083333,1.032375 24.5711806,0.8445 C24.4333333,0.6555 24.2378472,0.498375 23.9840278,0.373125 C23.7305556,0.247875 23.403125,0.1845 23.0003472,0.1845 L20.5020833,0.1845 L20.5020833,6.300375 L21.49375,6.300375 L21.49375,3.95325 L23.0003472,3.95325 C23.403125,3.95325 23.7305556,3.89175 23.9840278,3.769125 C24.2378472,3.6465 24.4333333,3.490875 24.5711806,3.30225 C24.7083333,3.114 24.8020833,2.91 24.8524306,2.69025 C24.9027778,2.46975 24.9277778,2.26575 24.9277778,2.0775 C24.9277778,1.88925 24.9027778,1.68375 24.8524306,1.460625 L24.8524306,1.460625 Z" id="Fill-488"></path>
                <path d="M27.9256944,4.810125 C27.9256944,4.963875 27.890625,5.094375 27.8225694,5.19975 C27.7541667,5.3055 27.6677083,5.392125 27.5645833,5.46075 C27.4618056,5.529375 27.3517361,5.578125 27.2354167,5.606625 C27.1190972,5.635125 27.0104167,5.649 26.9104167,5.649 C26.83125,5.649 26.7423611,5.64075 26.6447917,5.623125 C26.5472222,5.606625 26.4569444,5.576625 26.3756944,5.5335 C26.2930556,5.49075 26.2232639,5.43225 26.1652778,5.358 C26.1069444,5.284125 26.0774306,5.192625 26.0774306,5.083875 C26.0774306,4.958625 26.0979167,4.851 26.1368056,4.7625 C26.1767361,4.674 26.2309028,4.603125 26.2989583,4.548375 C26.3684028,4.494 26.4475694,4.451625 26.5381944,4.4205 C26.6274306,4.389 26.7201389,4.364625 26.8159722,4.347 C27.015625,4.30725 27.2170139,4.27725 27.4180556,4.257 C27.6184028,4.2375 27.7878472,4.179 27.9256944,4.0815 L27.9256944,4.810125 Z M29.1388889,5.649 C29.1017361,5.649 29.0701389,5.649 29.04375,5.649 C28.959375,5.649 28.9020833,5.623125 28.8732639,5.5725 C28.8444444,5.521125 28.8295139,5.43525 28.8295139,5.31525 L28.8295139,3.03675 C28.8295139,2.802375 28.7822917,2.604375 28.6871528,2.44125 C28.5916667,2.278875 28.4659722,2.14575 28.3104167,2.043375 C28.1541667,1.94025 27.9788194,1.866 27.7826389,1.82025 C27.5875,1.774875 27.3888889,1.752 27.1881944,1.752 C26.9604167,1.752 26.7381944,1.774875 26.5211806,1.82025 C26.3045139,1.866 26.1107639,1.94625 25.9388889,2.059875 C25.7670139,2.17425 25.6253472,2.32575 25.5145833,2.514375 C25.4034722,2.702625 25.340625,2.939625 25.3243056,3.225375 L26.228125,3.225375 C26.2489583,2.98575 26.3416667,2.80875 26.5059028,2.694375 C26.6697917,2.58 26.8788194,2.523 27.1326389,2.523 C27.2222222,2.523 27.3177083,2.52975 27.4180556,2.544375 C27.5177083,2.558625 27.609375,2.587125 27.6913194,2.63025 C27.7736111,2.672625 27.8420139,2.734125 27.8972222,2.814375 C27.9527778,2.89425 27.98125,2.997 27.98125,3.122625 C27.98125,3.265125 27.9475694,3.372375 27.8819444,3.443625 C27.8163194,3.5145 27.7256944,3.56775 27.6121528,3.601875 C27.4986111,3.636 27.3684028,3.660375 27.2197917,3.675 C27.0711806,3.68925 26.915625,3.713625 26.7517361,3.747375 C26.5614583,3.770625 26.371875,3.80325 26.184375,3.846 C25.9972222,3.889125 25.8284722,3.958875 25.6770833,4.056375 C25.5263889,4.1535 25.4048611,4.287375 25.3125,4.45875 C25.2201389,4.630125 25.1736111,4.8525 25.1736111,5.127 C25.1736111,5.34375 25.2121528,5.5335 25.2885417,5.696625 C25.3645833,5.859 25.4680556,5.993625 25.5975694,6.099 C25.7277778,6.20475 25.8767361,6.285 26.0465278,6.338625 C26.215625,6.393 26.3923611,6.42 26.5767361,6.42 C26.8204861,6.42 27.0725694,6.377625 27.3347222,6.29175 C27.596875,6.20625 27.8170139,6.069 27.996875,5.88075 C28.0340278,6.080625 28.1128472,6.220125 28.2350694,6.300375 C28.35625,6.380625 28.509375,6.42 28.6951389,6.42 C28.7319444,6.42 28.7763889,6.417375 28.8295139,6.41175 C28.8822917,6.405375 28.9350694,6.397125 28.9881944,6.385875 C29.0409722,6.373875 29.0927083,6.3615 29.1430556,6.347625 C29.1934028,6.333 29.234375,6.32025 29.265625,6.308625 L29.265625,5.6325 C29.2180556,5.64375 29.1760417,5.649 29.1388889,5.649 L29.1388889,5.649 Z" id="Fill-489"></path>
                <path d="M30.5190972,4.878375 C30.5454861,5.164125 30.6454861,5.364 30.8204861,5.477625 C30.9954861,5.592 31.2038194,5.649 31.4472222,5.649 C31.53125,5.649 31.6277778,5.64225 31.7364583,5.627625 C31.8447917,5.61375 31.946875,5.586375 32.0420139,5.546625 C32.1371528,5.5065 32.2152778,5.447625 32.2756944,5.371125 C32.3364583,5.293875 32.3642361,5.192625 32.359375,5.067 C32.3534722,4.941 32.3114583,4.838625 32.2319444,4.758375 C32.1534722,4.678875 32.0513889,4.614 31.9267361,4.566 C31.8020833,4.51725 31.6614583,4.476 31.5027778,4.441875 C31.3440972,4.407 31.1826389,4.37025 31.01875,4.3305 C30.8496528,4.29075 30.6868056,4.241625 30.5309028,4.184625 C30.3753472,4.127625 30.2350694,4.05 30.1104167,3.95325 C29.9861111,3.8565 29.8871528,3.732 29.8131944,3.580875 C29.7395833,3.42975 29.7020833,3.24225 29.7020833,3.019875 C29.7020833,2.779875 29.7559028,2.5785 29.8645833,2.415375 C29.9729167,2.253 30.1104167,2.122125 30.2774306,2.021625 C30.4444444,1.921875 30.6288194,1.85175 30.8326389,1.812 C31.0354167,1.77225 31.2305556,1.752 31.4149306,1.752 C31.6267361,1.752 31.8291667,1.776375 32.021875,1.825125 C32.2152778,1.873125 32.3892361,1.951875 32.5458333,2.059875 C32.7013889,2.169 32.8309028,2.310375 32.934375,2.484375 C33.0375,2.65875 33.1020833,2.86875 33.1284722,3.114 L32.184375,3.114 C32.1423611,2.88 32.0434028,2.722875 31.8871528,2.643 C31.73125,2.56275 31.553125,2.523 31.3517361,2.523 C31.2885417,2.523 31.2128472,2.528625 31.1256944,2.54025 C31.0388889,2.5515 30.9565972,2.57325 30.8798611,2.604375 C30.803125,2.635875 30.7388889,2.68125 30.6854167,2.740875 C30.6326389,2.800875 30.60625,2.88 30.60625,2.97675 C30.60625,3.09675 30.6444444,3.193875 30.721875,3.268125 C30.7982639,3.342375 30.8989583,3.403875 31.0239583,3.451875 C31.1489583,3.501 31.2902778,3.541875 31.4496528,3.576 C31.6083333,3.610875 31.7725694,3.648 31.9427083,3.68775 C32.1069444,3.72825 32.26875,3.77625 32.4284722,3.83325 C32.5871528,3.890625 32.7291667,3.967875 32.8534722,4.065 C32.978125,4.16175 33.0788194,4.284375 33.1555556,4.432875 C33.2322917,4.581375 33.2711806,4.764 33.2711806,4.9815 C33.2711806,5.244375 33.215625,5.466375 33.1045139,5.649 C32.9930556,5.832 32.8486111,5.980125 32.6708333,6.0945 C32.4934028,6.208875 32.2965278,6.29175 32.0791667,6.34275 C31.8614583,6.3945 31.6475694,6.42 31.4354167,6.42 C31.1753472,6.42 30.9361111,6.3885 30.7159722,6.32625 C30.4958333,6.26325 30.3048611,6.167625 30.14375,6.038625 C29.9822917,5.91075 29.8545139,5.751 29.7621528,5.559375 C29.6694444,5.368125 29.6208333,5.140875 29.6149306,4.878375 L30.5190972,4.878375" id="Fill-490"></path>
                <path d="M34.6746528,4.878375 C34.7017361,5.164125 34.8020833,5.364 34.9763889,5.477625 C35.1506944,5.592 35.3597222,5.649 35.6024306,5.649 C35.6875,5.649 35.784375,5.64225 35.8927083,5.627625 C36.0006944,5.61375 36.1027778,5.586375 36.1975694,5.546625 C36.2930556,5.5065 36.3704861,5.447625 36.4315972,5.371125 C36.4923611,5.293875 36.5201389,5.192625 36.5149306,5.067 C36.5100694,4.941 36.4673611,4.838625 36.3885417,4.758375 C36.3086806,4.678875 36.2065972,4.614 36.0826389,4.566 C35.9586806,4.51725 35.8170139,4.476 35.6586806,4.441875 C35.4996528,4.407 35.3385417,4.37025 35.1746528,4.3305 C35.0055556,4.29075 34.8427083,4.241625 34.6875,4.184625 C34.5309028,4.127625 34.3902778,4.05 34.2666667,3.95325 C34.1423611,3.8565 34.0430556,3.732 33.9694444,3.580875 C33.8944444,3.42975 33.8586806,3.24225 33.8586806,3.019875 C33.8586806,2.779875 33.9125,2.5785 34.0211806,2.415375 C34.1288194,2.253 34.2666667,2.122125 34.4329861,2.021625 C34.5996528,1.921875 34.7847222,1.85175 34.9881944,1.812 C35.1920139,1.77225 35.3854167,1.752 35.5715278,1.752 C35.7826389,1.752 35.9847222,1.776375 36.178125,1.825125 C36.3704861,1.873125 36.5454861,1.951875 36.7006944,2.059875 C36.8572917,2.169 36.9871528,2.310375 37.0895833,2.484375 C37.1927083,2.65875 37.2572917,2.86875 37.284375,3.114 L36.340625,3.114 C36.2982639,2.88 36.1986111,2.722875 36.0427083,2.643 C35.8871528,2.56275 35.7083333,2.523 35.5083333,2.523 C35.4440972,2.523 35.3690972,2.528625 35.2819444,2.54025 C35.1947917,2.5515 35.1125,2.57325 35.0357639,2.604375 C34.9597222,2.635875 34.8944444,2.68125 34.8416667,2.740875 C34.7885417,2.800875 34.7618056,2.88 34.7618056,2.97675 C34.7618056,3.09675 34.8010417,3.193875 34.8774306,3.268125 C34.9545139,3.342375 35.0548611,3.403875 35.1805556,3.451875 C35.3041667,3.501 35.4461806,3.541875 35.6048611,3.576 C35.7642361,3.610875 35.9291667,3.648 36.0979167,3.68775 C36.2635417,3.72825 36.425,3.77625 36.5836806,3.83325 C36.7430556,3.890625 36.884375,3.967875 37.009375,4.065 C37.1340278,4.16175 37.2347222,4.284375 37.3114583,4.432875 C37.3888889,4.581375 37.4270833,4.764 37.4270833,4.9815 C37.4270833,5.244375 37.3715278,5.466375 37.2600694,5.649 C37.1486111,5.832 37.0041667,5.980125 36.8267361,6.0945 C36.6493056,6.208875 36.4520833,6.29175 36.2350694,6.34275 C36.0177083,6.3945 35.8027778,6.42 35.590625,6.42 C35.33125,6.42 35.0913194,6.3885 34.871875,6.32625 C34.6517361,6.26325 34.4611111,6.167625 34.2993056,6.038625 C34.1375,5.91075 34.0107639,5.751 33.9180556,5.559375 C33.825,5.368125 33.7760417,5.140875 33.7708333,4.878375 L34.6746528,4.878375" id="Fill-491"></path>
            </g>
        </g>
    </g>
</svg>