<?xml version="1.0" encoding="UTF-8"?><svg id="Layer_1" xmlns="http://www.w3.org/2000/svg" viewBox="0 0 500 500"><defs><style>.cls-1{fill:#c51416;}.cls-1,.cls-2{stroke-width:0px;}.cls-2{fill:none;}</style></defs><path class="cls-1" d="M33.0006045796,270.3839010318c1.0505767661,2.2512334737,2.7014790234,4.2023070644,4.7275897223,5.6280836843,2.176193503,1.4257766199,4.5775069182,2.4763476608,7.1289060001,3.0016446316,2.9266046609.600319766,5.9282492925.975525345,8.9298910616.9005025498,2.0261078363,0,3.977181427-.300159883,5.9282492925-.7504111579,2.1011535322-.5252969708,4.1272613685-1.2757081287,5.9282492925-2.4013248656,1.800987924-1.1256167369,3.3768502106-2.5513933568,4.5024669475-4.2773527604,1.2756966784-1.8760278948,1.8760278948-4.1272613685,1.800987924-6.3784948422.0750399708-1.7259365029-.375205579-3.4518959065-1.2756966784-4.9527182224-.8254511287-1.4257766199-2.0261078363-2.6264390527-3.3768502106-3.5269416025-1.4257823451-.975525345-2.9266046609-1.7259365029-4.5024669475-2.3262791697-1.5758622866-.600319766-3.2267702691-1.0505710409-4.8776725264-1.5008223158l-15.4584687079-3.6770100936c-1.9510678655-.5252969708-3.8270957603-1.1256167369-5.7031236551-1.8760278948-1.800987924-.675365462-3.4518901814-1.7259365029-4.9527124972-3.0016446316-1.4257823451-1.3507309239-2.6264390527-2.9265989357-3.3768502106-4.8026268305-.900493962-2.1011420818-1.3507395117-4.4274212515-1.275699541-6.7537004212.0750414021-2.0261192867.375205579-3.9771699766.9755339328-5.9282435674.7504111579-2.3262791697,1.9510678655-4.4274212515,3.6019729855-6.2284034504,2.0261106989-2.1761877778,4.5024669475-3.9021471814,7.2039488335-5.0277639183,3.7520557896-1.5008223158,7.8042771873-2.1761877778,11.8564957225-2.0261192867,3.2267674065,0,6.5285776463.4502512749,9.6052622487,1.350730924,2.9266046609.8254568538,5.6280836843,2.1761877778,8.0293970996,3.9771699766,2.2512334737,1.8009821988,4.0522213978,3.9771699766,5.4029580469,6.5285862341,1.4257823451,2.8515532398,2.1011535322,6.0032892633,2.0261078363,9.230048082h-6.3784948422c-.0750399708-2.4013248656-.6753711872-4.7275811345-1.800987924-6.8287461171-1.0505767661-1.8760278948-2.4763591112-3.4518959065-4.1272613685-4.8026268305-1.800987924-1.3507309239-3.7520557896-2.3262791697-5.9282492925-3.0016446316-2.176193503-.675365462-4.5024669475-.975525345-6.8287403919-.975525345-2.176193503,0-4.3523841434.2251141871-6.453534813.675365462-1.9510678655.4502512749-3.7520557896,1.2006624328-5.4029609095,2.2512334737-1.5758622866,1.0505710409-2.8515618275,2.4763476608-3.7520557896,4.1272613685-.9755339328,1.9510735907-1.5008223158,4.2023070644-1.4257823451,6.3784948422-.0750399708,1.4257766199.2251227749,2.8515532398.8254511287,4.1272613685.5252883831,1.1256167369,1.275699541,2.1761877778,2.2512334737,3.0016446316s2.1011506696,1.5008223158,3.3018102398,2.0261192867c1.275699541.5252969708,2.6264390527.975525345,3.9771785644,1.2757081287l16.509045474,4.1272613685c2.3262734445.600319766,4.5775069182,1.4257766199,6.8287403919,2.3262791697,2.0261078363.9005025498,3.9021357311,2.0261192866,5.6280836843,3.4518959065,1.6509022573,1.3507309239,3.0016446316,3.1517360235,3.9021357311,5.1027867135.9755367954,2.2512334737,1.5008223158,4.6525583393,1.4257823451,7.0538603042,0,.975525345-.0750399708,1.9510735907-.2251256374,3.0016446316-.2251256374,1.4257766199-.6003312164,2.7765304446-1.1256167369,4.0522156726-.6753711872,1.5758680118-1.5758622866,3.0016446317-2.5513990819,4.3523755556-1.2756966784,1.5758680118-2.7765189942,2.9265989357-4.5775069182,3.9771699766-2.2512334737,1.3507309239-4.652546889,2.3262791697-7.2039459709,3.0016446316-3.3768502106.7504111579-6.8287403919,1.1256167369-10.2806334359,1.1256167369-3.7520557896,0-7.5041115791-.4502512749-11.1811245353-1.4257766199-3.2267674065-.7504111579-6.2284120381-2.2512334737-8.9298939242-4.2023070644-2.4763562486-1.9510735907-4.3523841434-4.5024669475-5.5530422823-7.3540201872-1.3507395117-3.4518959065-1.9510692968-7.1289060001-1.7259450907-10.8059160938h6.528576215c-.1500828041,3.0766903276.375205579,6.0783349592,1.6509051199,8.929888199M145.5622725409,234.8143938262l-12.6068982926,42.1731162349h-.2251256374l-12.0065785266-42.1731162349h-6.7537004212l-12.0065785266,42.1731162349h-.1500799415l-12.606909743-42.1731162349h-6.3784948422l15.8336742869,49.2269765391h6.6036147545l12.0065785266-41.4227050769h.1500799415l12.1566584681,41.4227050769h6.6036204797l15.8336800121-49.2269765391h-6.4535405382ZM158.9195934418,284.0413703653h5.9282435673v-49.2269765391h-5.9282435673v49.2269765391ZM158.9195934418,225.5843457442h5.9282435673v-9.6802993569h-5.9282435673v9.6802993569ZM205.2950052907,244.4196703879c-.675365462-1.350730924-1.6509137077-2.4763476608-2.8515532398-3.3768502106-1.2006624328-.9005025498-2.6264390527-1.5758680118-4.0522156726-1.9510735907-1.5758680118-.4502512749-3.2267702691-.600319766-4.8776725264-.600319766-1.3507423743,0-2.7014847486.1500913919-4.0522156726.4502512749-1.3507423743.300159883-2.6264390527.7504111579-3.7520557896,1.4257766199s-2.0261078363,1.5758680118-2.7765189942,2.6264390527c-.7504111579,1.2006624328-1.0505710409,2.5513933568-1.0505710409,3.9771699766,0,1.2006624328.300159883,2.4013248656.9755367954,3.3768502106.675365462.9005025498,1.5008223158,1.7259365029,2.5513933567,2.3262791697,1.0505710409.675365462,2.1761877778,1.2006624328,3.3768502106,1.5758680118,1.2006624328.4502512749,2.3262791697.7504111579,3.3768502106.975525345l8.0294085499,1.8009821988c1.7259365029.300159883,3.4518959065.7504111579,5.1027867135,1.4257766199,1.6509137077.600319766,3.1517360235,1.5008223158,4.5024669475,2.6264390527,1.3507309239,1.1256167369,2.4013248656,2.4763476608,3.2267588187,3.9771699766.9005025498,1.7259365029,1.2757081287,3.6770100936,1.2757081287,5.6280836843.0750456959,2.4013248656-.5252969708,4.8026268305-1.8009821988,6.8287461171-1.2006624328,1.8760278948-2.7765304446,3.4518959065-4.6525583393,4.5775126434-1.9510735907,1.2006624328-4.1272613685,2.0261192867-6.3784948422,2.5513933568-2.2512334737.5252969708-4.6525583393.7504111579-6.9788260586.7504111579-5.0277524679.2251141871-9.9804706903-1.2006624328-14.1077320588-4.1272613685-3.9021357311-3.3018045147-6.1533692048-8.1044313451-6.1533692048-13.1321952634h5.9282435673c0,3.6019643977,1.6509022573,6.9788146083,4.4274212515,9.230048082,2.9265989357,2.1011420819,6.4535405382,3.1517360235,10.0555049359,3.0016446316,1.5008223158,0,3.0766788772-.1500913919,4.5024554971-.4502512749,1.5008223158-.300159883,3.0016446316-.9005025498,4.3523755556-1.6509137077,1.2757081287-.7504111579,2.4013248656-1.7259365029,3.3018045147-3.0016446316.9005025498-1.2757081287,1.3507309239-2.7765304446,1.2757081287-4.3523755556.0750456959-1.2757081287-.2251141871-2.5513933567-.9005025498-3.6770100936-.600319766-.975525345-1.4257766199-1.8760278948-2.4013248656-2.4763476608-1.0505710409-.675365462-2.2512334737-1.2757081287-3.4518959065-1.6509137077-1.2757081287-.4502512749-2.6264390527-.8254568539-3.9771699766-1.1256167369l-7.7292372165-1.7259365029c-1.8760278948-.4502512749-3.6770100936-1.0505710409-5.4029580469-1.8009821988-1.5758680118-.600319766-3.0016446316-1.4257766199-4.352387006-2.4763476608-1.2756966784-.975525345-2.2512334737-2.1761877778-3.0016446316-3.6019643977-.675365462-1.6509137077-.9755367954-3.4518959065-.8254568538-5.2528781054-.0750456959-2.2512334737.5252855205-4.5024669475,1.6509022573-6.3784948422,1.0505710409-1.7259365029,2.5513933567-3.1517360235,4.27734131-4.1272613685,1.8009821988-1.1256167369,3.8271014855-1.9510735907,5.9282435673-2.4013248656,2.1011535322-.5252969708,4.352387006-.7504111579,6.5285747837-.7504111579,2.3262791697,0,4.6525583393.300159883,6.9037918131.975525345,2.0261192867.600319766,3.9771699766,1.5758680118,5.6280836843,3.0016446316,1.6509137077,1.350730924,2.9265989357,3.0016446316,3.8271014855,4.9527182224.975525345,2.1761877778,1.5758680118,4.5775126434,1.6509137077,6.9788146083h-5.9282435673c.0000229007-1.8760049941-.4502283742-3.5269187017-1.2006395321-4.9526953216M251.6704056893,244.4196703879c-.675365462-1.350730924-1.6509137077-2.4763476608-2.8515532398-3.3768502106-1.2006624328-.9005025498-2.6264390527-1.5758680118-4.0522156726-1.9510735907-1.5758680118-.4502512749-3.2267588187-.600319766-4.8776725264-.600319766-1.3507309239,0-2.7014847486.1500913919-4.0522156726.4502512749s-2.6264390527.7504111579-3.7520557896,1.4257766199-2.0261192867,1.5758680118-2.7765304446,2.6264390527c-.7504111579,1.2006624328-1.1256167369,2.6264390527-1.0505710409,3.9771699766,0,1.2006624328.375205579,2.4013248656,1.0505710409,3.3768502106.675365462.9005025498,1.5008223158,1.7259365029,2.5513933567,2.3262791697,1.0505710409.675365462,2.1761877778,1.2006624328,3.3768502106,1.5758680118,1.2006624328.4502512749,2.3262791697.7504111579,3.3768502106.975525345l8.0294085499,1.8009821988c1.7259365029.300159883,3.4518959065.7504111579,5.1027867135,1.4257766199,1.6509137077.600319766,3.1517360235,1.5008223158,4.5024669475,2.6264390527,1.3507309239,1.1256167369,2.4013248656,2.4763476608,3.2267588187,3.9771699766.8254568538,1.7259365029,1.2757081287,3.6770100936,1.2757081287,5.6280836843.0750456959,2.4013248656-.5252969708,4.8026268305-1.8009821988,6.8287461171-1.2006624328,1.8760278948-2.7765304446,3.4518959065-4.6525583393,4.5775126434-1.9510735907,1.2006624328-4.1272613685,2.0261192867-6.3784948422,2.5513933568-2.2512334737.5252969708-4.6525583393.7504111579-6.9788146083.7504111579-5.0277639183.2251141871-9.9804592399-1.2006624328-14.1077206084-4.1272613685-3.9021471814-3.3018045147-6.2284034504-8.1044313451-6.3034491463-13.2072409594h5.9282435673c0,3.6019643977,1.6509137077,6.9788146083,4.4274212515,9.230048082,2.9265989357,2.1011420819,6.4535405382,3.1517360235,10.0555049359,3.0016446316,1.5008223158,0,3.0766903276-.1500913919,4.5024669475-.4502512749,1.5008223158-.300159883,3.0016446316-.9005025498,4.3523755556-1.6509137077,1.2757081287-.7504111579,2.4013248656-1.7259365029,3.3018045147-3.0016446316.9005025498-1.2757081288,1.3507309239-2.7765304446,1.2757081287-4.3523755556.0750456959-1.2757081287-.2251141871-2.5513933568-.9005025498-3.6770100936-.600319766-.975525345-1.4257766199-1.8760278948-2.4013248656-2.4763476608-1.0505710409-.675365462-2.2512334737-1.2757081287-3.4518959065-1.6509137077-1.2757081287-.4502512749-2.6264390527-.8254568538-3.9771699766-1.1256167369l-7.7292257662-1.7259365029c-1.8760278948-.4502512749-3.6770100936-1.0505710409-5.4029694972-1.8009821988-1.5758680118-.600319766-3.0016446316-1.4257766199-4.3523755556-2.4763476608-1.2757081287-.975525345-2.2512334737-2.1761877778-3.0016446316-3.6019643977-.675365462-1.6509137077-.975525345-3.4518959065-.8254568538-5.2528781054-.0750456959-2.2512334737.5252969708-4.5024669475,1.6509137077-6.3784948422,1.1256167369-1.7259365029,2.5513933567-3.2267588187,4.3523755556-4.2773527604,1.8009821988-1.1256167369,3.8271014855-1.9510735907,5.9282435673-2.4013248656,2.1011420819-.5252969708,4.3523755556-.7504111579,6.5285862341-.7504111579,2.3262791697,0,4.6525583393.300159883,6.9037918131.975525345,2.0261192866.600319766,3.9771699766,1.5758680118,5.6280836843,3.0016446316,1.6509137077,1.3507309239,2.9265989357,3.0016446316,3.8271014855,4.9527182224.975525345,2.1761877778,1.5758680118,4.5775126434,1.6509137077,6.9788146083h-5.9282435673c0-1.6509137077-.4502512749-3.3018045147-1.1256167369-4.8026268305M283.1876743215,248.1717261775h17.4095480238c1.4257766199,0,2.7765304446-.2251141871,4.1272613685-.600319766,1.4257766199-.375205579,2.7014847486-.975525345,3.8271014855-1.8760278948,1.2757081287-.9005025498,2.2512334737-2.1011420819,3.0016446316-3.4518959065.7504111579-1.6509137077,1.1256167369-3.5269416025,1.1256167369-5.4029694973.0750456959-1.8760278948-.2251141871-3.7520557895-.975525345-5.5530379884-.5252969708-1.3507309239-1.4257766199-2.5513933567-2.5513933567-3.4518959065-1.0505710409-.9005025498-2.3262791697-1.5008223158-3.6770100936-1.8009821988-1.5008223158-.300159883-3.0016446316-.4502512749-4.5024669475-.4502512749h-17.7847536028l-.0000229007,22.5873804332ZM271.2561414909,215.9040463873h30.0914920124c4.0522156726-.1500913919,8.1044313451.600319766,11.8564871347,2.1011420819,2.7765304446,1.2006624328,5.1778324094,3.0016446316,7.0538603042,5.4029694973,1.5758680118,2.0261192866,2.7765304446,4.3523755556,3.3768502106,6.9037918131.600319766,2.2512334737.9005025498,4.5775126434.9005025498,6.9037918131s-.375205579,4.5775126434-.9005025498,6.8287461171c-.600319766,2.4763476608-1.8009821988,4.8026268305-3.3768502106,6.8287461171-1.8760278948,2.2512334737-4.2773527604,4.0522156726-7.0538603042,5.2528781054-3.7520557896,1.5008223158-7.8042714621,2.1761877778-11.8564871347,2.0261192867h-18.0849134858v26.114299135h-11.8564871347l-.1500913919-68.3624839665ZM360.5550692822,259.3528478502c-1.8760278948,1.1256167369-3.9771699766,1.8009821988-6.0783349592,1.9510735907-2.4013248656.2251141871-4.8026268305.600319766-7.2039516961.975525345-1.1256167369.1500913919-2.2512334737.4502512749-3.3768502106.8254568538-1.0505710409.300159883-2.0261192867.8254568538-3.0016446316,1.4257766199-.8254568538.600319766-1.5008223158,1.4257766199-1.9510735907,2.4013248656-.5252969708,1.1256167369-.7504111579,2.3262791697-.675365462,3.6019643977,0,1.0505710409.375205579,2.1011420819,1.0505710409,3.0016446316.675365462.8254568539,1.5758680118,1.5008223158,2.5513933567,1.9510735907,1.0505710409.5252969708,2.1011420819.8254568539,3.2267588187.975525345,1.0505710409.1500913919,2.1011420819.300159883,3.2267588187.300159883,1.3507309239,0,2.6264390527-.1500913919,3.9021471814-.4502512749,1.4257766199-.300159883,2.7765304446-.9005025498,3.9771699766-1.6509137077,1.2006624328-.7504111579,2.1761877778-1.8009821988,3.0016446316-3.0016446316.8254568538-1.2757081288,1.2757081287-2.7765304446,1.2757081287-4.3523755556-.1500455904.0000229007.0750685967-7.9543399533.0750685967-7.9543399533ZM371.4360310719,273.0853628797c-.0750456959,1.0505710409.0750456959,2.0261192866.5252969708,3.0016446316.4502512749.600319766,1.2757081287.975525345,2.0261192867.8254568538h1.1256167369c.5252969708,0,1.0505710409-.0750456959,1.5008223158-.1500913919v7.4290658832l-1.5008223158.4502512749-1.8760278948.4502512749-1.8760278948.300159883h-1.5758680118c-1.9510735907.0750456959-3.8271014855-.375205579-5.5530379884-1.3507309239-1.6509137077-1.0505710409-2.7014847486-2.7765304446-3.0016446316-4.6525583393-2.2512334737,2.1761877778-4.9527182224,3.7520557895-7.954362854,4.5775126434-2.9265989357.9005025498-6.0032892633,1.4257766199-9.1550252868,1.4257766199-2.1761877778,0-4.2773527604-.300159883-6.3784948422-.9005025498-1.9510735907-.5252969708-3.7520557896-1.4257766199-5.4029694972-2.7014847486-1.5758680118-1.2006624328-2.8515532398-2.7014847486-3.6770100936-4.5024669475-.975525345-1.9510735907-1.4257766199-4.1272613685-1.4257766199-6.3784948422-.0750456959-2.5513933567.4502512749-5.1778324094,1.6509137077-7.4290658832,1.0505710409-1.8760278948,2.6264390527-3.4518959065,4.5024669475-4.5024669475,1.8760278948-1.1256167369,3.9771699766-1.8760278948,6.0783349592-2.3262791697,2.2512334737-.4502512749,4.5024669475-.8254568539,6.8287461171-1.1256167369,1.8760278948-.375205579,3.7520557896-.600319766,5.6280836843-.8254568538,1.5758680118-.1500913919,3.1517360235-.4502512749,4.7275811345-.8254568539,1.2006624328-.300159883,2.3262791697-.9005025498,3.2267588187-1.7259365029.8254568538-.975525345,1.2757081287-2.2512334737,1.2006624328-3.6019643977.0750456959-1.2006624328-.300159883-2.4013248656-.975525345-3.4518959065-.675365462-.9005025498-1.5008223158-1.5758680118-2.4763476608-2.0261192866-1.0505710409-.5252969708-2.1761877778-.8254568539-3.3018045147-.975525345-1.1256167369-.1500913919-2.3262791697-.1500913919-3.4518959065-.1500913919-2.6264390527-.0750456959-5.2528781054.5252969708-7.5041115791,1.8760278948-2.0261192866,1.3507309239-3.2267588187,3.5269416025-3.3768502106,5.9282435673h-10.8809617897c.0750456959-2.7765304446.8254568538-5.4779922924,2.2512334737-7.8793171581,1.2757081287-2.0261192867,3.0016446316-3.8271014855,5.1027867135-5.1027867135,2.1761877778-1.2757081287,4.5024669475-2.1761877778,6.9788146083-2.7014847486,2.6264390527-.5252969708,5.3279238013-.7504111579,8.0294085499-.7504111579,2.4013248656,0,4.8026268305.300159883,7.1289060001.7504111579,2.2512334737.4502512749,4.3523755556,1.2757081287,6.3784948422,2.4763476608,1.8760278948,1.1256167369,3.4518959065,2.7014847486,4.6525583393,4.5024669474,1.2006624328,2.0261192867,1.8009821988,4.2773527604,1.7259365029,6.6036090293v25.4389794745h.0750227952ZM391.7721780314,268.2076903533c.0750227952,2.7014847486,1.4257995206,5.1778324094,3.6770329943,6.6786547253,2.2512334737,1.3507309239,4.8776725264,2.0261192866,7.5041115791,1.9510735907,1.1256167369,0,2.3262562689-.0750456959,3.4518730058-.2251141871,1.2757081287-.1500913919,2.4763476608-.4502512749,3.6770329943-.9005025498,1.0505939417-.375205579,2.0261192867-1.0505710409,2.8515532398-1.9510735907.7504111579-.975525345,1.1256167369-2.1761877778.975525345-3.3768502106,0-1.2757081287-.600319766-2.5513933567-1.575845111-3.4518959065-1.0505939417-.975525345-2.3262562689-1.6509137077-3.6770329943-2.1011420819-1.6509137077-.600319766-3.3768502106-1.0505710409-5.1027867135-1.4257766199l-5.9282664681-1.2757081287c-2.0261192867-.4502512749-3.9771699766-.975525345-5.9282664681-1.6509137077-1.8010050996-.600319766-3.5269416025-1.5008223158-5.1027867135-2.5513933568-1.5008223158-1.0505710409-2.7014847486-2.4763476608-3.6019643977-4.1272613685-.975525345-1.9510735907-1.4257766199-4.1272613685-1.3507309239-6.2284034504-.0750456959-2.4013248656.600319766-4.7275811345,1.9510735907-6.7537004212,1.2757081287-1.8009821988,3.0016446316-3.3018045147,4.9527182224-4.3523755556,2.1011420819-1.1256167369,4.3523755556-1.9510735907,6.7537004212-2.3262791697,2.3262562689-.4502512749,4.6525583393-.675365462,6.9788146083-.675365462,2.4763476608,0,4.8776725264.300159883,7.278997392.8254568538,2.2512334737.5252969708,4.3523755556,1.350730924,6.303472047,2.6264390527,1.8760278948,1.2006624328,3.4518730058,2.8515532398,4.6525583393,4.7275811345,1.2757081287,2.1011420818,2.1011420819,4.5024669474,2.3262562689,7.0538603042h-11.3311901639c-.2251141871-2.2512334737-1.575845111-4.2023070644-3.6019643977-5.2528781054-2.0261192867-.9005025498-4.2022841637-1.3507309239-6.4535176374-1.3507309239-.9005025498,0-1.8010050996.0750456959-2.7014618479.2251141871-1.0505939417.1500913919-2.0261192866.375205579-3.0016446316.675365462-.9005025498.300159883-1.6509137077.8254568539-2.3262562689,1.5008223158-.6753883627.7504111579-.975525345,1.6509137077-.975525345,2.6264390527-.0750227952,1.2006624328.4502283742,2.4013248656,1.4257995206,3.2267588187,1.0505939417.9005025498,2.3262562689,1.5758680118,3.6770329943,2.0261192867,1.6509137077.600319766,3.3768502106,1.0505710409,5.1027867135,1.4257766199l5.9282664681,1.2757081287c2.0261192867.4502512749,3.9771699766.975525345,5.9282664681,1.6509137077,1.8010050996.600319766,3.5269416025,1.5008223158,5.1027867135,2.5513933567,3.3018274154,2.3262791697,5.1778553102,6.1533806552,5.0277639183,10.2055963277.0750227952,2.6264390527-.600319766,5.2528781054-2.0261192866,7.4290658832-1.3507309239,2.0261192867-3.1517360235,3.7520557896-5.2528781054,4.9527182224-2.1762106785,1.2757081287-4.5774897427,2.2512334737-7.1289060001,2.7765304446-2.5514162575.600319766-5.1027867135.8254568539-7.7292257662.8254568539-2.9266218364,0-5.8531978714-.300159883-8.629728316-1.0505710409-2.4763476608-.600319766-4.8026497312-1.7259365029-6.9037918131-3.2267588187-1.9510735907-1.4257766199-3.5269416025-3.2267588187-4.5775126434-5.3279238013-1.2006624328-2.3262791697-1.8009821988-4.9527182224-1.8009821988-7.579157275l11.1809613676-.0750685967h0ZM441.7495428277,268.2076903533c.0750227952,2.7014847486,1.4257995206,5.1778324094,3.6019643977,6.6786547253,2.2512334737,1.3507309239,4.8776725264,2.0261192866,7.5041115791,1.9510735907,1.2006395321,0,2.3262562689-.0750456959,3.5269416025-.2251141871,1.2757081288-.1500913919,2.4763476608-.4502512749,3.6770329944-.9005025498,1.1256167369-.375205579,2.1762106785-1.0505710409,3.0016446316-1.9510735907.7504111579-.975525345,1.1256167369-2.1761877778.975525345-3.3768502106,0-1.2757081287-.600319766-2.5513933567-1.5008223158-3.4518959065-1.0505939417-.975525345-2.3262562689-1.6509137077-3.6770329943-2.1011420819-1.6509137077-.600319766-3.3768502106-1.0505710409-5.1027867135-1.4257766199l-5.9282664681-1.2757081287c-2.0261192867-.4502512749-3.9771699766-.975525345-5.9282664681-1.6509137077-1.8010050996-.600319766-3.5269416025-1.5008223158-5.1027867135-2.5513933568-1.5008223158-1.0505710409-2.7014618479-2.4763476608-3.6019643977-4.1272613685-.975525345-1.9510735907-1.4257995206-4.1272613685-1.3507309239-6.2284034504-.0750227952-2.4013248656.6753883627-4.7275811345,2.0261192866-6.7537004212,1.2757081287-1.8009821988,3.0016446316-3.3018045147,4.9526953216-4.3523755556,2.1011420819-1.1256167369,4.3523755556-1.9510735907,6.678677626-2.3262791697,2.3262562689-.4502512749,4.6525583393-.675365462,7.0538832049-.675365462,2.4763476608,0,4.8776725264.300159883,7.278997392.8254568538,2.2512334737.5252969708,4.3523755556,1.350730924,6.303472047,2.6264390527,1.8760278948,1.2006624328,3.4518730058,2.8515532398,4.6525583393,4.7275811345,1.2757081287,2.1011420818,2.1011420819,4.5024669474,2.3262562689,7.0538603042h-11.4062587605c-.2251141871-2.2512334737-1.575845111-4.2023070644-3.6019643977-5.2528781054-2.0261192867-.975525345-4.2773527604-1.4257766199-6.5285862341-1.3507309239-.9005025498,0-1.8010050996.0750456959-2.7014618479.2251141871-1.0505939417.1500913919-2.0261192867.375205579-3.0016446316.675365462-.9005025498.300159883-1.6509137077.8254568539-2.3262562689,1.5008223158-.6753883627.7504111579-.975525345,1.7259365029-.8254339531,2.7014847486-.0750227952,1.2006624328.4502283742,2.4013248656,1.4257995206,3.2267588187,1.0505939417.9005025498,2.3262562689,1.5758680117,3.6770329943,2.0261192866,1.6509137077.600319766,3.3768502106,1.0505710409,5.1027867135,1.4257766199l5.9282664681,1.2757081287c1.95105069.4502512749,3.9771699766.975525345,5.9282664681,1.6509137077,1.8010050996.600319766,3.5269416025,1.5008223158,5.1027867135,2.5513933567,1.5008223158,1.0505710409,2.7765304446,2.4763476608,3.6770329943,4.1272613685.975525345,1.8760278948,1.5008223158,3.9771699766,1.4257995206,6.0783349592.0750227952,2.6264390527-.600319766,5.2528781054-2.0261192867,7.4290658832-1.350730924,2.0261192866-3.1517360235,3.7520557895-5.2528781054,4.9527182224-2.1762106785,1.2757081287-4.5774897427,2.2512334737-7.1289060001,2.7765304446-2.5514162575.600319766-5.1027867135.8254568539-7.7292257662.8254568539-2.9266218364,0-5.8531978714-.300159883-8.629728316-1.0505710409-2.4763476608-.600319766-4.8026497312-1.7259365029-6.9037918131-3.2267588187-1.95105069-1.4257766199-3.5269416025-3.2267588187-4.5774897427-5.3279238013-1.2006395321-2.3262791697-1.8010050996-4.9527182224-1.8010050996-7.579157275l10.8057557886-.1501142926h0Z"/><rect class="cls-2" width="500" height="500"/></svg>