<?xml version="1.0" encoding="UTF-8"?><svg id="Layer_1" xmlns="http://www.w3.org/2000/svg" xmlns:xlink="http://www.w3.org/1999/xlink" viewBox="0 0 500 500"><defs><style>.cls-1{fill:none;}.cls-1,.cls-2,.cls-3,.cls-4,.cls-5,.cls-6,.cls-7,.cls-8,.cls-9,.cls-10{stroke-width:0px;}.cls-2{fill:url(#linear-gradient);}.cls-3{fill:#015;}.cls-4{fill:url(#radial-gradient);}.cls-5{fill:url(#radial-gradient-2);}.cls-6{fill:url(#radial-gradient-3);}.cls-7{fill:url(#radial-gradient-4);}.cls-8{fill:url(#radial-gradient-6);}.cls-9{fill:url(#radial-gradient-5);}.cls-10{fill:#fff;}</style><linearGradient id="linear-gradient" x1="63.9710832115" y1="621.7794231218" x2="52.7387621957" y2="578.92271485" gradientTransform="translate(0 -323)" gradientUnits="userSpaceOnUse"><stop offset="0" stop-color="#350706"/><stop offset=".36" stop-color="#3f0808"/><stop offset=".98" stop-color="#5b0c0e"/><stop offset="1" stop-color="#5c0c0e"/></linearGradient><radialGradient id="radial-gradient" cx="65.3123179386" cy="535.4271690444" fx="65.3123179386" fy="535.4271690444" r="24.025006595" gradientTransform="translate(0 -323)" gradientUnits="userSpaceOnUse"><stop offset="0" stop-color="#003789"/><stop offset="1" stop-color="#5fc7ff" stop-opacity=".9800000191"/></radialGradient><radialGradient id="radial-gradient-2" cx="81.428247967" cy="532.1753917312" fx="81.428247967" fy="532.1753917312" r="28.6823081203" gradientTransform="translate(0 -323)" gradientUnits="userSpaceOnUse"><stop offset="0" stop-color="#ec0a1c"/><stop offset="1" stop-color="#bb0e15"/></radialGradient><radialGradient id="radial-gradient-3" cx="107.8950637255" cy="573.0310088066" fx="107.8950637255" fy="573.0310088066" r="49.2649620066" gradientTransform="translate(0 -323)" gradientUnits="userSpaceOnUse"><stop offset="0" stop-color="#5bc0ff" stop-opacity=".9800000191"/><stop offset="1" stop-color="#003789"/></radialGradient><radialGradient id="radial-gradient-4" cx="45.2180231587" cy="592.7679622246" fx="45.2180231587" fy="592.7679622246" r="32.1842184799" gradientTransform="translate(0 -323)" gradientUnits="userSpaceOnUse"><stop offset="0" stop-color="#42b4f3" stop-opacity=".9800000191"/><stop offset="1" stop-color="#003a80"/></radialGradient><radialGradient id="radial-gradient-5" cx="86.5143509478" cy="554.2707781452" fx="86.5143509478" fy="554.2707781452" r="56.8643456039" gradientTransform="translate(0 -323)" gradientUnits="userSpaceOnUse"><stop offset="0" stop-color="#5fc7ff"/><stop offset="1" stop-color="#003785" stop-opacity=".9800000191"/></radialGradient><radialGradient id="radial-gradient-6" cx="37.3446811827" cy="543.3005110204" fx="37.3446811827" fy="543.3005110204" r="65.7263195949" gradientTransform="translate(0 -323)" gradientUnits="userSpaceOnUse"><stop offset="0" stop-color="#ec0a1c"/><stop offset="1" stop-color="#9e0d18"/></radialGradient></defs><path class="cls-3" d="M320.0583776176,237.7505051674c-2.9066042053-1.0990414264-5.9713684497-1.7224486139-9.0763724468-1.8462485573-3.4542574231,0-6.1581361541.9052581193-6.1581361541,4.0498293889,0,7.4326221747,19.1294767378,2.8587036326,19.1294767378,18.1527539811,0,10.3508857301-8.3974220417,14.2935090753-17.8668863442,14.2935090753-4.2974747134-.0076699077-8.570885546-.6416641123-12.6854820343-1.8819808759l.7504150425-9.0763815344c3.7134712222,1.222941333,7.5767782711,1.9322714791,11.4824697386,2.1082885901,3.6686513352,0,6.6703115052-1.1911257563,6.6703115052-4.3476108279,0-7.9567204154-19.1175538481-2.8587036326-19.1175538481-18.0812893438,0-9.5290060502,8.0162894258-13.4239923623,16.8663450709-13.4239923623,4.0792640227-.0483458635,8.137735689.5878020948,12.0065316291,1.8819808759l-2.0011188967,8.1711415902ZM285.0988294008,237.7505051674c-2.9041687369-1.0932435578-5.9640438697-1.7164780815-9.0644495571-1.8462485573-3.4542574232,0-6.2295826163.9052581193-6.2295826163,4.0498293889,0,7.4326221747,19.2009595503,2.8587036326,19.2009595503,18.1527539811,0,10.3508857301-8.4689048541,14.2935090753-17.8668863442,14.2935090753-4.34356686-.0182114869-8.6626518109-.6518331013-12.8284294841-1.8819808759l.8218796799-9.0763815344c3.7387891876,1.2198515598,7.6252513606,1.9290272172,11.5539162009,2.1082885901,3.5733772688,0,6.5988286927-1.1911257563,6.5988286927-4.3476108279,0-7.9567204154-19.2009413752-2.8587036326-19.2009413752-18.0812893438,0-9.5290060502,8.0996587777-13.4239923623,16.8663450709-13.4239923623,4.1291547728-.0378678972,8.2368447092.5977984199,12.1614019686,1.8819808759l-2.0130417864,8.1711415902ZM461.8023426146,227.625936239c8.3378802939,0,13.1976573854,4.5024539047,13.1976573854,14.2935090753v29.5518271052h-11.1013007726v-27.2291355155c0-4.4190754653-1.2745132833-7.3492437352-5.9556287814-7.3492437352s-8.8500556451,4.1212940262-8.8500556451,11.5420114863v23.1078414893h-10.8630610812v-27.3006092404c0-4.1212940262-1.3579008103-7.3492437352-6.0866351664-7.3492437352-4.9431646185,0-8.7666681181,4.5739185421-8.7666681181,11.9946360022v22.6313893693h-11.2442300473v-42.9877332696c7.3373390207-.9052581193,10.1126460387,2.0963838756,10.4223503674,6.8966192194,2.6469178526-4.922481313,7.8366463751-7.9386815923,13.4239741871-7.8018773387,7.7185079868,0,10.7915964438,4.276137103,11.9112575628,8.3378802939,1.8700761614-4.2642323885,6.6703115052-8.3378802939,13.9480724279-8.3378802939l-.0357323187.0000090876ZM235.6790334049,228.5311943583c-2.3822515126,12.7450419571-8.552274206,32.8512505391-12.4472605181,42.9758194675h-11.6968454756l-8.2544927669-28.5870181507h-.1429292747l-8.2544927669,28.5870181507h-11.6253808382c-3.7520388622-9.9816305661-10.5057197193-30.7548666636-12.4472605181-42.9758194675h11.0179132456l7.2777790979,29.5518271052h.1548521644l8.6952216558-29.5518271052h11.0298179601l8.4689048541,29.3255193911h.1548521644l7.3492437352-29.3255193911h10.7200772811ZM164.2114880283,237.7505051674c-2.9066223804-1.0990414264-5.9713684497-1.7224486139-9.0763724468-1.8462485573-3.4542574231,0-6.0747486271.9052581193-6.0747486271,4.0498293889,0,7.4326221747,19.0580121004,2.8587036326,19.0580121004,18.1527539811,0,10.3508857301-8.3974402168,14.2935090753-17.8668863442,14.2935090753-4.2936397596-.0066157497-8.5632883388-.6406463046-12.6735773198-1.8819808759l.6670275155-9.0763815344c3.7387891876,1.2198515598,7.6252513606,1.9290272172,11.5539162009,2.1082885901,3.6686695103,0,6.6703115052-1.1911257563,6.6703115052-4.3476108279,0-7.9567204154-19.0580121004-2.8587036326-19.0580121004-18.0812893438,0-9.5290060502,8.0162712507-13.4239923623,16.8663450709-13.4239923623,4.078773294-.0416665008,8.1361544521.5943178813,12.0065498043,1.8819808759l-2.072565359,8.1711415902ZM384.7007956749,272.4003490554c-12.2209618915,0-20.7732360975-6.6703024176-20.7732360975-21.6665804147,0-13.4239923623,9.0049078094-23.1078414893,22.0477493808-23.1078414893,12.1494972541,0,20.022821055,6.8370592965,20.022821055,21.440263613,0,14.0314599549-8.5403876666,23.3222444889-21.2973343383,23.3222444889v.0119138021ZM385.1533929281,237.0953823664c-4.9431646185,0-9.6719353249,3.6686695103-9.6719353249,13.1023833191,0,8.1711234151,3.0730884571,12.7450419571,9.5290060502,12.7450419571,5.4791857489,0,9.6838582146-4.4190754653,9.6838582146-13.1023833191,0-8.3378802939-3.0016238197-12.7450419571-9.5290060502-12.7450419571h-.0119228897ZM240.7055855504,271.5189185403h11.0298179601v-42.9877332696c-5.1814043099-.5240982408-11.0298179601.9052581193-11.0298179601,9.0049078094v33.9828254602ZM246.7326789692,223.1353870488c3.8131981971.1318151786,7.0112588938-2.8525286299,7.1430831601-6.665726827.0018356888-.0531259245.003053423-.1062700241.0036713776-.1594232112-.1588506944-3.8319185878-3.3940068451-6.8095285083-7.225925433-6.6506778138-3.6092731637.1496222688-6.5010646326,3.0414001063-6.6506823576,6.6506778138.0374407815,3.7169108668,3.0138375116,6.7354557388,6.7298532529,6.8251500382ZM349.6340505021,272.2574197807c-12.7569466717,0-21.0829404262-6.3725209786-21.0829404262-21.5951066898,0-12.9118079236,7.1467545377-22.8815246876,22.7981644233-22.8815246876,3.5779574033.0065339616,7.129379107.6145377208,10.5057378944,1.7986024365l-2.3822515126,9.0049078094c-2.4840322779-.9780313665-5.1210628561-1.5102811561-7.7899726241-1.5722856348-8.0281759652,0-11.3276175743,5.2409551451-11.3276175743,13.1023833191,0,7.6589389764,3.0016238197,12.7569557592,10.8749839708,12.7569557592,2.996607482-.02593592,5.9560649847-.6664731738,8.6952034807-1.8819808759l1.2745132833,8.8500647326c-2.1440481715,1.3697873497-6.7179667135,2.4179747437-11.5182020573,2.4179747437l-.0476188581.0000090876Z"/><path class="cls-10" d="M65.574367059,220.4791771576h0c-2.7811048866.3278385713-5.1565498105,2.1586291749-6.1819455831,4.7645075689-1.0958335148,2.4418114354-1.6913963929,5.1337491015-3.2994188902,7.3254252186-3.3351512088,4.5739185421-11.9827267439,3.5019126315-13.3048770604,9.7791413685-1.941536255,9.2193108091,10.0530997472,11.1608516078,13.6145677577,17.5810187072,2.6085683143,4.7645030251,1.3340641186,12.0899282437,6.2653240225,15.4131701942.7539773693.494263754,1.582427361.864255011,2.4537161499,1.0958335148.1525620971.0420118284.3077505015.0738455803.4645383179.0952922415l-.0119047145-56.0543888137Z"/><path class="cls-2" d="M65.5862717735,276.5573754003l-.4645383179-.0952922415c-.8750873924-.2313604021-1.707499564-.6013153089-2.465629952-1.0958335148-4.931259904-3.3232419505-3.6567557083-10.7201318065-6.2534102205-15.4131701942-.9224836051-1.5247122146-2.1368099233-2.852378685-3.5733772688-3.9068910266l-.1310245602-.107196956c-.5717398178.5717443616-1.4174380142,1.4650886788-2.7872344514,2.8348760284-1.0643723532,1.0867641216-2.06273261,2.2362688149-2.989723649,3.4423527086h0c3.1873600851,3.2108014676,5.8412799091,6.910205134,7.8614281739,10.9583533227,2.3822515126,5.3481521012,3.0254605114,11.1727563224,4.8836137832,16.6757605879.6223893799,2.0659677844,1.554092323,4.0257564203,2.7634113911,5.8126904191.7795679617,1.1651989238,1.8800815742,2.0795264363,3.1683988737,2.6323868309v-21.7976049749l-.0119138021.0595690104Z"/><path class="cls-4" d="M59.7259352336,208.7346764737c.5240982408.5717398178,1.1911257563,1.2625949374,1.7866886344,1.8819808759s1.4055287559,1.4531748767,2.2750545565,2.286959271c.5360029553.5121844387,1.1911257563,1.1911257563,1.7509563157,1.6675778763v-25.1923115628c-.5837308642-.1179157429-1.180520564-.1579692003-1.7747748323-.1191107581-1.5014662148.0852050407-2.9823218246.390202009-4.3952569487.9052535755-1.2616998119.4413195809-2.4352274921,1.1026900851-3.466175769,1.9534455133-1.1624181279.9429488089-1.9690216054,2.2536805958-2.286959271,3.7163110873-.3210138075,2.0411814417.0301434642,4.131403946,1.000545817,5.9556287814.5910281816,1.2536118761,1.2968050884,2.4498357582,2.1082931339,3.5733772688,0,0,.5955628781.7265874383.9290811797,1.0958335148.67893223.6908596634,1.3816920642,1.4770024808,2.0725471838,2.2750545565Z"/><path class="cls-5" d="M99.926429508,228.2214991172c-.2942736377-3.8151883746-1.2579102959-7.5487794731-2.8467898305-11.0298270476-1.3984495402-2.9995427666-3.3090199061-5.732379034-5.6459335402-8.0758311735-.2263168017-.2263122579-.4645383179-.464538318-.7027598342-.6789413176-1.3111634464-1.2253359073-2.7304053429-2.3296344919-4.2404047843-3.2994188901-1.4867716168-.9546127029-3.052923143-1.7795321744-4.6811245857-2.465629952-2.6808326576-1.1308479155-5.5224516617-1.8342211606-8.4212587334-2.0844700735-2.6641751449-.3047652353-5.3614199509.1064017938-7.8137820532,1.1911257563v12.7450465009h0c1.4293472725,1.3102365144,3.1445712696,2.8825221492,4.0140970702,3.6567557083.6074766802.5360074991,1.1911257563,1.0481919378,1.7986024365,1.5722856348l1.7747748323,1.4889071953,1.8462303821,1.5603718327c.762319757.6432089989,3.5019126315,2.8587036326,3.8235125871,3.1326574675l.5360029553.4288059993,6.9204468235,5.6102012216.1548430768.1191107581c.9290766359.7504059549,5.7054934631,4.5977461462,8.052012657,6.6107515824,2.3465191939,2.0130054361,4.1093802241,3.5733772688,4.276137103,3.7520479498.4634932476-2.091258487.8094569739-4.2068353069,1.0362826795-6.3367886599.2753351453-2.6235537144.31519322-5.2664912121.1191107581-7.8971604926Z"/><path class="cls-6" d="M114.9346122196,265.1821298804c-.8333118408-3.1318032361-2.1515545029-6.1139251341-3.9068910266-8.8381509306-2.4832143967-3.8084363113-5.3880647013-7.3246346002-8.6594802496-10.4819102903-1.1911257563-1.1911257563-2.3822515126-2.2631407544-3.5733772688-3.3947065879-.1191107581.5360029553-.4168921972,1.810507151-1.0124550753,3.7520479498-.3096952412,1.0124550753-.8695258006,2.6800329516-1.0839288002,3.3113281484-.3215999557.9171628338-.940990438,2.5609221935-1.3578826351,3.5733772688-.5717443616,1.4889071953-1.4769933933,3.5733772688-2.286959271,5.3124197825-1.1673072397,2.5013622707-1.8224300407,3.692488027-3.120752753,6.0747395395-.5836490761,1.0601011961-1.0839288002,2.0725562714-1.810507151,3.3351557526-.2501353183.4288059993-.5121844387.8814305151-.8218796798,1.3817102393-.1310245602.2024891976-1.6318455576,2.6323868309-1.7866886344,2.9063497533-.2977814391.4645383179-.6312951968,1.0005412732-.8337843944,1.2983227123-1.7986024365,2.751497589-1.9534455133,2.8825221492-2.2393131503,3.2875096319-.6670275155.9052581193.2382215162-.3335137578-1.0243688774,1.4412610746l-2.9897372803,4.2165771802c-.4407198014.6074766802-1.9296269967,2.5609221935-3.5733772688,4.5977461462-1.6437502721,2.0368239527-3.3351557526,4.2642323885-4.0855617075,5.1575767057l-5.2528598596,6.1938502976v12.4472605181c2.2154946337-.1786615934,4.5262815089-.4883659221,6.8966192194-.9171719214,3.0343390657-.5677730942,6.0330912138-1.3114996864,8.9810892928-2.2273993482,2.5829050213-.8057401585,5.1198178593-1.7521195245,7.5993790535-2.834885116,2.2274356985-.9737329467,4.3986738744-2.0712930994,6.5035455388-3.2875005443,2.7030426746-1.5606989852,5.2621019166-3.3584199275,7.6470251743-5.3719797053,2.684404072-2.2610687889,5.0521881758-4.8732448678,7.0395575816-7.7661359324,2.0746645873-3.0243700033,3.5988860731-6.3913776829,4.5024539047-9.9458982474.5129205317-2.0322438183.8162544751-4.1116884665.9052581193-6.2057640997.1211281983-2.3579331797-.0995361359-4.7209917479-.655122801-7.0157299775Z"/><path class="cls-7" d="M62.4178819874,295.7225935444c-1.2093190681-1.7869339988-2.1410220112-3.7467226347-2.7634113911-5.8126904191-1.8581532718-5.5506412987-2.4537206937-11.3752546075-4.8836137832-16.6757605879-2.0177491468-4.046585127-4.6674841456-7.7457525166-7.8495189156-10.9583533227-.8373558087,1.0859280653-1.6051780884,2.2237370582-2.2988776169,3.4066113024-.6298275545,1.0795304172-1.1562613004,2.2161489386-1.5722856348,3.3947065879-.2165158593.6674909815-.3915469691,1.3477318213-.524093697,2.0368239527-.1333009961.7076580335-.2129399011,1.4243763726-.23822606,2.1440299963-.0325198633.9283041926.0233187003,1.8575989301.1667568789,2.7753251931.1628083304,1.0137636852.4179781616,2.01052453.762319757,2.9778143907.4473537262,1.2428340201,1.0137864041,2.4395304557,1.6913963929,3.5733772688l.2977814391.4883659221c1.4021300054,2.2535261071,3.1097704267,4.3018912716,5.0741982663,6.0866533416,1.1070793806,1.0232783692,2.2723555487,1.9817442011,3.4899988294,2.8706083471.8218751361.5836490761,1.6556640742,1.1911257563,2.5132760728,1.6794916784,1.1911257563.7146736363,2.3226915897,1.3817102393,3.513817346,2.0010916341,1.6199317555.8337843944,4.168940147,1.989177832,5.8007857046,2.644300633h0c-1.2926884199-.5509065674-2.39754589-1.4654158312-3.1803035882-2.6323959184Z"/><path class="cls-9" d="M98.7710360704,242.4554482696c-.1667568789-.1548430768-2.0844700735-1.8819808759-4.276137103-3.7520479498-2.1916670295-1.8700670739-7.1467545377-5.8603365399-8.052012657-6.6107515824l-.1548430768-.1191107581-6.9204468235-5.5982874195c-.2620491204-.2024891976-.4407198014-.3573413619-.5360029553-.4407198013-.3215999557-.2620491204-3.0611928301-2.4775437541-3.8235125871-3.120752753l-1.8462485573-1.5484625744-1.7628610303-1.4650795912c-.6432089989-.524093697-1.1911257563-1.0362781357-1.810507151-1.5841994369-.8695258006-.762319757-2.5847407101-2.3822515126-4.0140970702-3.64484645h0c-.5479167574-.5121844387-1.1911257563-1.1911257563-1.7390425137-1.6556640742-.8695258006-.8337889381-1.5365533161-1.5008164536-2.2750545565-2.286959271s-1.2625903936-1.3102365144-1.7866886344-1.8819808759c-.7385012404-.7980520757-1.4412610746-1.5841994369-2.0725562714-2.3226961335l-.7146736363-.8337889382h0c.4168921972.6789413176,1.2864179978,1.9296224529,1.7271287116,2.5490083914,1.1911257563,1.762865574.9648089546,1.3936149538,2.1559347108,3.1803035882.8099658778,1.1911257563,2.179762315,3.40662039,2.9301682699,4.6692107836.0965281508.1576965732.1840141711.3207457242.2620491204.4883613783.4620574118.8630054703.8601746928,1.7587579931,1.1911257563,2.6800329516.158859782.4210270408.2590593104.8619058746.2977814391,1.3102365144h0v56.0782073303h0v21.7976049749l5.2528689472-6.1938502976c.7504059549-.8933443172,2.465629952-3.0731066322,4.0855617075-5.1575767057,1.6199317555-2.0844700735,3.0731066322-3.990269466,3.5733772688-4.5977461462l2.9897281928-4.2642323885c1.2625903936-1.7747748323.3573413619-.5360029553,1.0243688774-1.4412610746.285867637-.4049783951.4407198014-.5360029553,2.2393131503-3.2875096318l.8337843944-1.2983227123c.1548430768-.2739629225,1.6556640742-2.7038514682,1.7866886344-2.9182544679.3096952411-.4883659221.5717443615-.940990438.8218796799-1.3697964372.7265874383-1.2625903936,1.1911257563-2.2750545565,1.810507151-3.3351557526,1.2983227123-2.3822515126,1.9296269967-3.5733772688,3.0969251488-6.0509210229.8099658778-1.7628701178,1.7152239971-3.8354263892,2.286959271-5.3124197825.4168921972-1.0362826795,1.0362826795-2.6919467537,1.3459688331-3.5733772688.2263168017-.6432089989.7861473612-2.2988730731,1.0958335148-3.3113281484.5955628781-1.9534455133.8933443172-3.227949709,1.0124550753-3.7639617519h0l-.0357232311-.0119047145Z"/><path class="cls-8" d="M46.9094240954,262.2162202042c.926991039-1.2060838937,1.9253512958-2.3555885871,2.989723649-3.4423527086,1.3697964372-1.3697964372,2.2154946337-2.2512269524,2.7872344514-2.8348760284-4.7645030251-3.7520479498-11.3752500637-6.5631054616-9.8982566704-13.566921637,1.3221503165-6.277228737,9.9697213078-5.2052228265,13.3048725166-9.7791413685,1.6080179535-2.1916670295,2.2035808316-4.8836137832,3.2994143464-7.3254252186,1.0253957726-2.605878394,3.4008406965-4.4366644538,6.1819455831-4.7645030251h0c-.0374862194-.4523927829-.1377039229-.89737011-.2977814391-1.3221503165-.3287427844-.9183214988-.7269327659-1.810275418-1.1911257563-2.6681236933-.0754631674-.1727183237-.1630309759-.3398932307-.2620491204-.5002706366-.7504059549-1.2506811353-2.1202023922-3.4423527086-2.9301682699-4.6692153274-1.1911257563-1.7866886344-.9290766359-1.4174380142-2.1559347108-3.1683943299-.4407198013-.6312951968-1.3102365144-1.8819808759-1.7271332554-2.5609221935h0c-.0779440736-.0818426404-.1496131812-.1694422553-.2144029996-.2620491204-.8137644813-1.1220511494-1.5196640704-2.3184976769-2.1082931339-3.5733772688l-.3096906974-.7504104987-3.8592494496,2.8587036326c-3.0492835718,2.2393176941-6.1223856603,4.4548123277-9.0882907926,6.8013269778-1.9534455133,1.5365533161-3.8711587079,3.1326620113-5.7054934631,4.7645030251-1.8136105556,1.6282196179-3.5129994648,3.3793395098-5.0861075246,5.2409551451-2.942082072,3.5733772688-5.2647736617,7.5755605369-5.5982919633,12.149479079-.0537938607.7454714053-.0537938607,1.4938417449,0,2.2393131503.0442155637.8006420327.1477275108,1.596912945.3096906974,2.3822515126.5761154819,2.7730896513,1.7734253284,5.3794860368,3.5019080877,7.6232066577,1.9355702664,2.4721639136,4.1319900941,4.7284889918,6.5511916595,6.7298623405l1.1911257563,1.0601011961c2.7991437097,2.3822515126,5.645938084,4.7645030251,8.3378802939,7.3849760539.762319757.7146736363,1.4889071954,1.4650886787,2.2154946337,2.2274084358l-.2263122579-.2501353183-.0119001707-.0238185166Z"/><rect class="cls-1" width="500" height="500"/></svg>