<?xml version="1.0" encoding="UTF-8"?><svg id="Layer_1" xmlns="http://www.w3.org/2000/svg" xmlns:xlink="http://www.w3.org/1999/xlink" viewBox="0 0 500 500"><defs><style>.cls-1{fill:none;}.cls-1,.cls-2,.cls-3,.cls-4,.cls-5{stroke-width:0px;}.cls-2{fill:url(#radial-gradient);}.cls-3{fill:#000;}.cls-4{fill:url(#radial-gradient-2);}.cls-5{fill:#fff;}</style><radialGradient id="radial-gradient" cx="-3086.1955532633" cy="1220.6272316901" fx="-3086.1955532633" fy="1220.6272316901" r="8.7615499706" gradientTransform="translate(21339.1989493371 -8171.1433033943) scale(6.8806538582)" gradientUnits="userSpaceOnUse"><stop offset="0" stop-color="#fc0"/><stop offset=".0915699959" stop-color="#ffc800"/><stop offset=".1738999939" stop-color="#ffbd00"/><stop offset=".2527999878" stop-color="#ffab00"/><stop offset=".3295000076" stop-color="#ff9100"/><stop offset=".4045999908" stop-color="#ff7000"/><stop offset=".4786000061" stop-color="#ff4700"/><stop offset=".5502999878" stop-color="#ff1800"/><stop offset=".5821999741" stop-color="red"/><stop offset="1" stop-color="red"/></radialGradient><radialGradient id="radial-gradient-2" cx="-2950.8400020092" cy="1231.2401477857" fx="-2950.8400020092" fy="1231.2401477857" r="10.7940445244" gradientTransform="translate(15179.7351555824 -6074.6307902337) scale(5.1212458611)" gradientUnits="userSpaceOnUse"><stop offset="0" stop-color="#00b4e6"/><stop offset=".2010000038" stop-color="#00b0e3"/><stop offset=".3897999954" stop-color="#01a5db"/><stop offset=".5737000275" stop-color="#0292cd"/><stop offset=".7545999908" stop-color="#0377ba"/><stop offset=".9315999603" stop-color="#0455a1"/><stop offset="1" stop-color="#054696"/></radialGradient></defs><path class="cls-3" d="M468.8324911297,335.2938155379H31.243369715c-3.4773199833,0-6.243369715-2.7667116916-6.243369715-6.2448619296v-158.0979023079c0-3.4781537442,2.766049907-6.2448668382,6.243369715-6.2448668382h437.5100901401c3.477331203,0,6.2449965655,2.7667132694,6.2449965655,6.2448668382v158.0979023079c.0774156438,3.478150238-2.7676653626,6.2448619296-6.1659652909,6.2448619296Z"/><polygon class="cls-5" points="445.0570008164 224.1304870534 399.7807355266 224.1304870534 399.7807355266 234.7153698422 415.9517645658 234.7153698422 415.9517645658 280.2784855122 428.8859717771 280.2784855122 428.8859717771 234.7153698422 445.3508 234.7153698422 445.0570008164 224.1304870534"/><polygon class="cls-5" points="238.3843675496 224.1304870534 193.1141392293 224.1304870534 193.1141392293 234.7153698422 209.5789674522 234.7153698422 209.5789674522 280.2784855122 222.2193754798 280.2784855122 222.2193754798 234.7153698422 238.3843675496 234.7153698422 238.3843675496 224.1304870534"/><path class="cls-5" d="M370.0889070704,222.3685409004c-14.4032031295,0-22.3377934109,9.1098813437-22.3377934109,21.7503208138v35.8660132696h12.6404080276v-36.1596237979c0-5.586177693,3.5235778805-9.9909644691,9.6973853833-9.9909644691,6.1728013412,0,9.7034223528,4.9989251937,9.7034223528,9.9909644691v36.1596237979h12.9342072113v-35.8660132696c0-12.9343015389-8.2293956267-21.7503208138-22.6376295641-21.7503208138h0Z"/><polygon class="cls-5" points="322.1694552895 224.1304870534 322.1694552895 280.2784855122 335.1036625007 280.2784855122 335.1036625007 224.1304870534 322.1694552895 224.1304870534"/><polygon class="cls-5" points="278.9548150931 246.474726187 279.5424134604 248.8241763796 291.5962292823 280.2784855122 296.8876330726 280.2784855122 313.0596682735 224.1304870534 300.4192602458 224.1304870534 292.4766206717 253.5292395046 292.182821488 256.7662185453 291.5962292823 253.5292395046 281.010403217 224.1304870534 276.9002331308 224.1304870534 266.6082062491 253.5292395046 266.0216140434 256.7662185453 265.4330095146 253.5292395046 257.7922184168 224.1304870534 245.144767258 224.1304870534 261.3157962973 280.2784855122 266.6082062491 280.2784855122 278.6610159095 248.8241763796 278.9548150931 246.474726187"/><path class="cls-5" d="M166.3582902863,279.1033516627c0,1.7637383783-1.1762028961,3.8215274807-2.6451988143,4.4094402735l-50.5636444337,29.1029095018c-1.4700020798.8819949594-3.8214017105.8819949594-5.2914037903,0l-50.5626382721-29.1029095018c-1.4700020798-.881743419-2.6462049759-2.9395639639-2.6462049759-4.4094402735v-58.2062591994c0-1.7639584762,1.1762028962-3.8217632998,2.6462049759-4.4096760926l50.5626382721-29.1031295997c1.4700020798-.8819792381,3.8214017105-.8819792381,5.2914037903,0l50.5636444337,29.1031295997c1.4689959182.8819792381,2.6451988143,2.9397840617,2.6451988143,4.4096760926v58.2062591994Z"/><path class="cls-2" d="M134.0222691774,248.8242785679l-12.9352133729,18.5201412245-6.7614058701-9.9950677218,7.6438095826-11.170901168c1.4689959182-2.0578048236,4.4090000778-7.3493501054.8813975509-14.9925544189-2.9400041596-6.1734144709-9.1128055008-9.1129784348-14.4052154526-9.1129784348-5.2903976287,0-11.4642051315,2.6456075675-14.404209291,9.1129784348-3.5276025269,7.0552915207-.5875983673,12.9347495952.8824037125,14.6985980225,0,0,4.4090000778,6.1734144709,7.9366026046,11.1707911191l5.8800083191,8.2313293435,8.8190063171,12.9347417346s1.4700020798,2.0578048236,3.8214017105,2.0578048236c2.3524057923,0,3.8214017105-2.0578048236,4.1152008941-2.351871269l20.5780167938-29.3970781354-12.0518034988.2940664453ZM108.4456416153,249.4121913607s-3.5265963653-4.9975888854-5.5852029739-8.5252857399c-2.3513996307-3.821543202.2948053452-9.4069426918,5.5852029739-9.4069426918,5.2924099519,0,7.9376087662,5.5852815803,5.5862091355,9.4069426918-2.0576004471,3.5276968545-5.5862091355,8.5252857399-5.5862091355,8.5252857399Z"/><path class="cls-4" d="M95.8052335877,266.7562869017l-12.9342072113-17.3440955411s-3.5276025268-4.9975888854-5.5852029739-8.5252857399c-2.3524057923-3.8216611115.2937991836-9.4069426918,5.5852029739-9.4069426918.5875983673,0,1.1751967346,0,1.7638012634.2939563964l4.4090000778-7.9372628982c-1.7638012634-.8819792381-3.8214017105-1.1758255856-6.1728013412-1.1758255856-5.5852029739,0-11.4652112931,2.6456075675-14.4052154526,9.1130884837-3.5276025268,7.0551814718-.5875983673,12.9346395463.8824037125,14.6984879736l22.3418180573,32.0427957519c.2937991836.2940664453,1.7638012634,2.351871269,4.1152008941,2.351871269,2.3524057923,0,3.8224078721-2.0578048236,4.1162070557-2.351871269l6.7614058701-9.9949576729-5.8800083191-8.2311092456-4.9976046066,6.4671507695Z"/><rect class="cls-1" width="500" height="500"/></svg>