<?xml version="1.0" encoding="UTF-8"?><svg id="Layer_1" xmlns="http://www.w3.org/2000/svg" viewBox="0 0 500 500"><defs><style>.cls-1{fill:none;}.cls-1,.cls-2{stroke-width:0px;}.cls-2{fill:#0a2f1c;}.cls-3{fill:#38ae4d;}</style></defs><path class="cls-2" d="M219.4545745747,274.9526119156l4.9475037863,14.0896100121,7.0985895349,20.0050958207h28.9320967538l-17.1011251366-44.097257846c-7.52880012,3.5492947675-15.4878272367,6.8834760366-23.8770649385,10.0025520132"/><path class="cls-3" d="M288.3968793814,210.3124950176c-16.3482484069,9.1421144315-33.0191629585,21.7259791899-53.0242669849,34.2022502733-6.8834678309,4.3021714972-14.3047235104,8.6043429943-22.156189775,12.7989864624-20.4353146115,10.7554287429-44.5274766368,20.4353146115-74.5351244707,26.4583284492v2.0435577195c95.1855443748-5.3777143715,147.0267076334-53.9922654186,188.8653352902-73.0293874228,49.6900939215-22.6939283892,85.2905696251-16.5633865225,98.4121729977-14.734950507v-1.7208423405s-21.7259791899-7.0986223579-52.5940399883-7.0986223579c-24.6299252567,0-55.175336322,4.6248868762-84.967887069,21.0806797237Z"/><path class="cls-2" d="M46.9375041029,203.7516707655h26.3508004201v61.6286079278c0,17.423799487,7.0985813292,23.4468297361,18.9295529464,23.4468297361,7.3136907246,0,11.8309716172-.7528767297,16.6709145515-1.3982090189v-83.677228645h26.4583530664v101.5312469228c-9.0345617852,2.796409832-29.577429043,5.4852670177-43.0217149717,5.4852670177-24.0921599738,0-45.3879101157-9.5723332223-45.3879101157-39.47242841l.0000041029-67.5440855306Z"/><path class="cls-2" d="M400.3608991597,309.0473177484h-26.3508004201v-104.435213504c8.8194646984-1.398204916,22.6939612121-2.6888571857,34.4173719773-2.6888571857,26.028150687,0,44.6350292831,12.0460789612,44.6350292831,38.8270981722,0,27.4263432944-21.0806469007,37.7515532465-43.2368366757,37.7515532465-3.2266286229,0-7.2061503869-.2151052926-9.3572361355-.3226661446v30.8680854156h-.1075280291ZM400.3608991597,255.7003928247c1.2906645783.2151052926,4.9475037863.3226661446,7.9590107052.3226661446,10.8629895949,0,18.0691071589-4.4097241435,18.0691071589-15.2727096355,0-11.1856434309-8.4967821423-15.2727096355-18.0691071589-15.2727096355-2.1510857486,0-5.8079249566.2151093954-7.9590107052.5377714371v29.6849816893Z"/><path class="cls-2" d="M235.3726123965,244.5147452909c-6.8834678309,4.3021714972-14.3047235104,8.6043429943-22.156189775,12.7989618452l-9.6798858686-27.211233899-28.8245359018,78.9448445113h-27.8565620853l40.9781818694-105.2956490343h31.7285147916l15.8104769698,40.7630765768Z"/><polygon class="cls-2" points="319.9102724689 309.0473177484 293.6670329008 309.0473177484 293.6670329008 226.9833972605 262.1536398132 226.9833972605 262.1536398132 203.7516707655 351.4236983794 203.7516707655 351.4236983794 226.9833972605 319.9102724689 226.9833972605 319.9102724689 309.0473177484"/><rect class="cls-1" width="500" height="500"/></svg>