<?xml version="1.0" encoding="UTF-8"?><svg id="Layer_1" xmlns="http://www.w3.org/2000/svg" viewBox="0 0 500 500"><defs><style>.cls-1{fill:none;}.cls-1,.cls-2,.cls-3,.cls-4,.cls-5{stroke-width:0px;}.cls-2{fill:#004982;}.cls-3{fill:#fff;}.cls-4{fill:#dc2f34;}.cls-5{fill:#007a82;}</style></defs><path class="cls-3" d="M285.4107490475,311.9679035782h9.0220969739l2.6223110227-8.6855315826h-9.0220969739l-2.6223110227,8.6855315826h0ZM292.630205757,288.050077646l-3.0880619264,10.2295625458s3.4241904777-1.750974002,5.2706735966-2.2424984679c1.8541079632-.491643604,4.6657692851-.8022368695,4.6657692851-.8022368695l2.1908719182-7.1848272084h-9.0392528735ZM297.1072601466,273.2493812518l-2.9762308772,9.884538343s3.3466712277-1.5267162127,5.1925189429-2.0183995295c1.8541079632-.4915244658,4.6397177339-.6728925062,4.6397177339-.6728925062l2.156560119-7.1932463073h-9.0125659186ZM317.0830813077,273.2493812518l-11.6615638962,38.6063735753h3.1217383219l-2.4234296682,8.0129170656h-3.1217383219l-.7421515082,2.4407841314h-11.1005024392l.7421515082-2.4407841314h-22.5555601367l2.2683911682-7.4004276225,2.2855470678-.0260515512,11.8337582958-39.1928114671,2.3548060698-7.9265418766h11.3336955929l-1.1729552091,4.019246032s3.0188029244-2.199449868,5.8736716971-2.9324674482c2.8548687727-.7332955693,19.286408159-1.0178372836,19.286408159-1.0178372836l-2.4323253198,7.8576005764h-3.8899413814Z"/><path class="cls-3" d="M322.0938747957,265.4088571495h12.0752116975l.1467782521,4.4940117256c-.069259002.7330175802.569321705,1.0951976827,1.9837303157,1.1209712448h2.4494812194l-2.2334439653,7.4436747861h-6.5383039553c-5.6582698467.3969287417-7.7976740661-2.0354362909-7.659156062-4.7699357773l-.2242975021-8.2887219791h0Z"/><path class="cls-3" d="M323.6728529618,300.686271375h-11.5319415438l1.9919905636-6.6242423042h13.1623874086l1.8890551661-6.0719970734h-13.0073489086l2.2512352686-7.452530725h36.1741673937l-2.2594955165,7.452530725h-12.1444706995l-1.8979508177,6.0719970734h12.1705222508l-2.0097818669,6.6242423042h-13.1445961053l-2.3465458219,2.7858877598h5.3304015434l1.3203688648,8.3494427441c.1118310492.8277324425.1544030963,1.3622657956.4047521496,1.7160267992.2675049529.2933579405,1.8807949181.4312802536,2.8034010739.4312802536h1.6126545616l-2.466637119,8.150799666h-4.1053432318c-.6296850554,0-1.5700825144-.0257735621-2.8555041764-.1379223131-1.2326831558-.0949928514-2.1305085678-.8106559684-2.9578041703-1.2075847101-.7593074078-.3621403898-1.8801595145-1.2938010481-2.1559247153-2.8376334477l-1.277161414-8.3234706183-5.9683468467,8.2197806789c-1.9233669653,2.5533697225-4.4853146376,4.5284426629-8.8155907751,4.5284426629h-8.4095678182l2.1908719182-7.2192978585h3.2176842789c.9315018074,0,1.7594328136-.3708771905,2.3541706661-.681470456.6042689078-.2673858147,1.1392788136-.5863981791,1.7854843649-1.4748513866l8.6948640743-12.2994297741h0Z"/><path class="cls-3" d="M197.4511810359,282.5557816637h30.4987416474l-2.2086632214,7.2883980097h-12.2474060971l-1.8801595145,6.2015002877h12.4545476995l-2.2683911682,7.5299308368h-12.4551831032l-3.035958824,10.0569313062c-.3532844508,1.1386036972,2.9679706293,1.2938804736,4.1663419859,1.2938804736l6.2447474512-.8280104317-2.5009489182,8.2713278032h-14.0767333165c-1.1208521066,0-1.9754700678-.1205281372-3.1998929756-.43108169-1.1907465124-.2932388023-1.7086005185-.8280898571-2.2334439653-1.6387458255-.5095937582-.7850412572-1.2949527173-1.4661542986-.7599428115-3.2171680134l4.0367196335-13.3689730329h-6.9424207013l2.3109632153-7.6680914263h6.9519517566l1.8630036149-6.2015002877h-6.9176399574l2.1997675698-7.2883980097h0Z"/><path class="cls-3" d="M217.988063654,269.4887048083h12.5320669496l-2.2855470678,7.572939724h-17.1126921404l-1.8630036149,1.638825251c-.7675676558.7588308551-1.0604887562.4398184907-2.0866657132.9830489317-.9753446619.5003804047-3.0105426764,1.4580529016-5.6417493508,1.4580529016h-5.4771797954l2.2080278178-7.3144495609h1.6387061128c1.4067837665,0,2.3554414735-.129542927,2.8466085248-.4485155787.5178540062-.3105932655,1.1386434099-1.1038947707,1.8369520636-2.3547663571l3.1401650289-5.7183949207h12.4634433512l-2.1991321661,4.1832596091h0Z"/><path class="cls-3" d="M242.0088646965,281.9953953231s3.3981389264-3.1309516754,9.2546547239-4.1488683845c1.3375247644-.2326768882,9.6695733326-.1723929633,9.6695733326-.1723929633l1.266994955-4.18341846h-17.6292753392l-2.5619476723,8.5046798078h0ZM258.525548177,285.1780926864h-17.4736014355l-1.0789154632,3.51890534h15.1289618247c1.7943800165-.1810503385,2.156560119.0347486392,2.311598619-.0344706501l1.111956455-3.4844346899h0ZM235.8848439461,265.3659674006h10.6779589863l-1.5694471108,5.3820280931s3.3720873752-2.7082096589,5.7440493446-3.6053599544c2.3548060698-.9056885326,7.659156062-1.6819135636,7.659156062-1.6819135636l17.2334188412-.1118310492-5.8565157975,19.5875497946c-1.0090210574,3.3468300786-2.1387688157,5.5202283953-2.8548687727,6.5122524041-.6722571025.9832077826-1.4144086107,1.8715021392-2.9330234264,2.6910140465-1.4658763095.7587911423-2.7856097707,1.198609633-3.984616531,1.3194157593-1.181215457.103451663-2.9152321231.1295032143-5.3304015434.1553164891h-16.6208896855l-4.6746649368,15.5081786886c-.4657509037,1.5267162127-.6735279099,2.2597337929-.3793360021,2.6652007717.2497136496.3795345657.8101397029.7935794943,1.595498662.7935794943l7.3141318591-.6985469301-2.4926886702,8.4868885045h-8.2284777669c-2.5873638198,0-4.5024705372-.0258132748-5.8222039983-.1463016993-1.2682657624-.1037296522-2.5962594715,0-3.4673979285-.6985469301-.7758279037-.6643542691-1.9322626169-1.5357310025-1.8966800104-2.4411018333.085779498-.8538634192.4130123976-2.2426573188.9651782029-4.1489478099l14.9218202223-49.5688742759h0Z"/><path class="cls-3" d="M266.9706986017,296.9858391437l-.9664490103,4.7179915258c-.4485950041,1.4490778245-.7853589591,2.5703270584-1.9062110657,3.5363789414-1.1646949611.9917857324-2.5447917727,2.0184392422-5.7446847483,2.0184392422l-5.8997232483.2242180766-.0686235984,5.3130470801c-.0521031025,1.5354133007.3361285513,1.3801365243.5782173566,1.6215105005l.7840881517.4484758659,1.8725346702-.0689413002,5.6404785434-.3534830145-2.3287545186,7.8057357504h-6.4779406049c-4.5628338876,0-7.9171299595-.1382003023-9.0303572219-.9833269208-1.0776446558-.7417146682-1.2333185595-1.5956972256-1.207902412-3.0533132872l.4231788566-20.7524036067h10.350090683l-.1378826004,4.2436626723h2.4844284223c.8622428054,0,1.4226688587-.0773603991,1.7848489612-.3016181884.310077-.2242975021.5350099058-.5780187929.7078397091-1.1043316107l.9918651578-3.3120417266h8.1509585169Z"/><path class="cls-3" d="M119.1942273486,193.0521032633c-.3621801025,1.7165033519-7.012315107,32.3618644005-7.0294710066,32.3704423503-1.4315645103,6.1842252499-2.4672725227,10.6347912482-5.9855027463,13.4984365344-2.0440936661,1.6387061128-4.3563276888,2.4411018333-7.0726784574,2.4411018333-4.3563276888,0-6.9093797094-2.1823733938-7.3579747136-6.288113753l-.0864149016-1.3972129984,1.3457850124-8.3491250423s6.9957946111-27.9371315333,8.2284777669-31.6546203824l.1124664529-.4311214027c-13.5760352099.1723731069-15.9994648781.0428698926-16.1722946813-.1984842272l-.4314391045,2.0355157163-7.1158859082,31.499343606-.6207894037,2.6737390087-1.1640595575,8.7115434211c0,2.6048374213.5083229509,4.726648901,1.5256042562,6.4860420019,3.2437358301,5.6930581986,12.4983905541,6.5468819051,17.7252212962,6.5468819051,6.7454455578,0,13.0588166074-1.4751690885,17.3452498904-4.0454961469,7.4005467607-4.4076365366,9.3671211768-11.2819101923,11.1011378429-17.3453293159l.801879455-3.1308722499s7.1851449103-29.0324086415,8.4184634698-32.8017623166l.0946751496-.4311214027c-9.8239764289.1465995448-12.739208552.0257934185-13.6624501115-.1897871392h0Z"/><path class="cls-3" d="M158.9304678204,250.6771417684c-4.8297034368-.0602044995-6.4944611008-.0602044995-12.1266793963.189826852l-.23255775-.3708771905c.4911670513-2.1736763058,1.0426974529-4.2781333224,1.5351353116-6.4518096282l.6639968546-2.906415897c1.0522285083-4.5887663006,2.0784054653-9.8503853947,2.1908719182-11.4631590945.1118310492-.9833269208.4225434529-3.4070345781-2.3376501702-3.4070345781-1.1818508607,0-2.4151694202.5609026061-3.647852576,1.1212095212-.6735279099,2.4066311832-2.0447290698,9.2291988637-2.6833097768,12.325679889-1.3883570595,6.5723377654-1.4919278607,7.3053950583-2.1044570165,10.5228013481l-.4053875533.4397787779c-4.9593257892-.0602044995-6.6844468037-.0602044995-12.3852886975.189826852l-.2675049529-.4314391045c.948657707-3.9072561319,1.9062110657-7.8145519765,2.8027656703-11.713031595,2.4069091723-10.5311807343,2.9673352256-14.5592827052,3.6224364285-19.8810268733l.4485950041-.3796934166c5.5813860003-.7417146682,6.9087443058-.9227650067,12.9635060541-2.1648203669l.4918024549.5522055181-.9137105042,3.406756589c1.0090210574-.6208688292,2.001521619-1.2333582722,3.0531147236-1.7941417401,2.8377128731-1.3538864094,6.0032940496-1.7940226019,7.7277796603-1.7940226019,2.6312066743,0,5.5292828979.74203237,6.7365499062,3.7866485693,1.1646949611,2.7170655978.3882316537,6.0635779745-1.1208521066,12.6961996649l-.7764633074,3.3466315149c-1.5529266149,7.3659569724-1.8026402645,8.728659608-2.6394669223,13.7401282124l-.5953732562.4397787779h0Z"/><path class="cls-3" d="M178.5104324835,250.6771417684c-2.9158675268-.0344706501-4.778235738-.0431280254-6.5986673057-.0260515512-1.8115359161.0260515512-3.5792289777.0950722769-6.2790592504.2158784032l-.1556739037-.2242975021-.1721943996-.2071416025c.7332558566-2.8030039466,1.1297477583-3.7864500056,1.5008235124-4.7610798384.3621801025-.9919445833.716099957-1.9836508902,1.362940912-4.8127063881.8361912542-3.6569467913,1.3540452603-6.270719577,1.7333812624-8.5044018187.3793360021-2.2168837567.6207894037-4.0626123338.8882943566-6.2015400004l.2242975021-.1813680404.23255775-.1984445145c2.8898159756-.3966507526,4.7185077913-.6641954182,6.5897716541-.9658136066,1.8718992665-.3018961775,3.7787457359-.6469600932,6.7969132566-1.2075847101l.0953105533.2500313515.0946751496.2587284394c-.5604260533,2.2858250569-1.1214875103,4.5974236759-1.664757664,6.8829310309-.5432701537,2.2942441558-1.0776446558,4.5974236759-1.6126545616,6.8916678316-1.0960713628,4.8387182266-1.509719164,6.6757497157-1.7676930616,7.9266610148-.250984457,1.2504744591-.320243459,1.9146698773-.7427869119,4.4247527235l-.2586093012.2242577893-.2668695492.2155209886h0Z"/><path class="cls-3" d="M209.1724728788,233.5475320047c-.2757652008,1.233239134-1.3540452603,5.9340747602-2.8548687727,7.9093065516-.9918651578,1.4230262733-2.2423396169,2.2942441558-3.5881246293,2.2942441558-.3793360021,0-2.7601936231,0-2.8116613219-3.5277612789-.0260515512-1.733738677.3189726517-3.527602428.7675676558-5.5028342194,1.2765260103-5.5718946578,2.7773495227-10.2640729087,6.5897716541-10.2640729087,3.0099072727,0,3.1916327277,3.467477354,1.8973154141,9.0911176996h0ZM221.7566429308,234.0994595337c1.6990694632-7.4177820858.4053875533-10.8764432135-1.2593701107-12.9895576053-2.5181048178-3.2087489145-6.934795857-4.2607391464-11.5490974434-4.2607391464-2.7512979715,0-9.323913726.3102755637-14.4732252181,5.0713951148-3.6656438793,3.3898389658-5.3990251417,8.0301523906-6.4252020988,12.4893757642-1.0350726087,4.511048487-2.2429750206,12.7394865411,5.2350909901,15.7065834904,2.3548060698.9917857324,5.6671654983,1.3023789979,7.805934314,1.3023789979,5.5203872463,0,11.1526055417-1.5437132614,15.3869357223-6.0634588363,3.2780476293-3.5882834802,4.7617152421-9.0307146365,5.2789338446-11.2559777793h0Z"/><path class="cls-3" d="M339.4994880366,251.177244184c-5.8215685946-.0689413002-7.4691703591-.0689413002-12.8688309045.1813680404l-.3361285513-.4313993918c1.4576160616-5.5201886826,2.9323880227-11.048955315,4.217174281-16.6294279225,1.6742887194-7.2449919952,2.079040869-10.3156597457,2.6229464264-14.5593224179l.4479596004-.3621801025c5.7707362995-.8022368695,7.3573393099-1.0523873592,13.377789259-2.1479027437l.1982459508.4916833168c-1.103696207,4.5369014745-2.2162880657,9.0737235236-3.260256326,13.6279794614-2.2169234694,9.5739450774-3.027698576,14.4214001048-3.8727854818,19.39812007l-.5261142541.43108169h0Z"/><path class="cls-3" d="M330.7709475668,234.1856758717c-.2846608525,1.2162817981-1.362940912,5.8910658731-2.8637644244,7.8491417648-.9918651579,1.4146071744-3.337775576,2.2768896925-4.6746649368,2.2768896925-.3793360021,0-2.7601936231,0-2.8205569735-3.5018288659-.0260515512-1.7251607272.3196080553-3.5019480041.7675676558-5.4597856195,1.2765260103-5.5202283953,2.7773495227-10.1864345205,6.5897716541-10.1864345205,3.0099072727,0,4.2870686868,3.4329669911,3.0016470248,9.0220175485h0ZM342.2596816597,234.7291843018c1.6901738116-7.3660363979-5.1143642892-.6037923551-6.2015400004-3.0447353374-1.6641222604-3.8124221314-.6125291558-11.4974708936-7.3058716111-14.0764950401-2.5784681682-1.0002842567-8.6332299165.3018961775-13.7742811607,5.0285450786-3.6739041273,3.3724050771-5.4079207934,7.9782478518-6.4347331541,12.4030005753-1.034437205,4.4766175496-2.242339617,12.6533099159,5.2446220454,15.5945141648,2.3548060698.9746298328,4.5285220884,1.2679877733,6.6672909041,1.164416972,7.5034821583-.3795345657,13.222750759-11.730425771,17.4570809396-16.215382994,3.2780476293-3.5536936919,3.821317783,1.3627423483,4.3474320372-.8538634192h0Z"/><path class="cls-3" d="M254.6616583468,250.6771417684c-4.8385990884-.0602044995-6.4944611008-.0602044995-12.1355750479.189826852l-.2242975021-.3708771905c.5006981066-2.1736763058,1.0357080124-4.2781333224,1.5357707153-6.4518096282l.6639968545-2.906415897c1.0522285083-4.5887663006,2.0701452173-9.8503853947,2.1991321661-11.4631590945.0953105533-.9833269208.4053875533-3.4070345781-2.3541706661-3.4070345781-1.1646949611,0-2.3980135206.5609026061-3.6313320801,1.1212095212-.6728925062,2.4066311832-2.0440936661,9.2291988637-2.6998302727,12.325679889-1.3800968116,6.5723377654-1.4919278607,7.3053950583-2.1050924202,10.5228013481l-.4047521496.4397787779c-4.9421698897-.0602044995-6.6672909041-.0602044995-12.3776638532.189826852l-.2586093012-.4314391045c.948657707-3.9072561319,1.9062110657-7.8145519765,2.8040364776-11.713031595,2.4056383649-10.5311807343,2.9495439223-14.5592827052,3.6218010248-19.8810268733l.4485950041-.3796934166c5.5635946971-.7417146682,6.9093797094-.9227650067,12.9463501545-2.1648203669l.4918024549.5522055181-.8971900082,3.406756589c1.0007608095-.6208688292,2.001521619-1.2333582722,3.0448544756-1.7941417401,2.8288172215-1.3538864094,5.9950338016-1.7940226019,7.7201548161-1.7940226019,2.629935867,0,5.5280120905.74203237,6.7530704021,3.7866485693,1.1475390615,2.7170655978.3793360021,6.0635779745-1.1386434099,12.6961996649l-.7497763525,3.3466315149c-1.5796135698,7.3659569724-1.8286918157,8.728659608-2.6655184735,13.7401282124l-.5871130082.4397787779h0Z"/><path class="cls-3" d="M296.382264538,192.9915612056l-4.0017724306.0863553326c-10.4199850888.1034119503-14.5939519189.0689413002-16.3108126855-.1466194011-.1550385.7417146682-.4396993525,2.1131342481-.4396993525,2.1131342481l-3.6999556785,17.3107196712s-8.9191615764,36.7608435619-9.3410696256,38.486004289c9.0818249206-.1295032143,12.8084675541-.1295032143,14.3607587652.042889749.3621801025-1.7335798261,2.4844284223-11.9804174097,2.4926886702-11.9975335965l1.9233669653-7.7887784144s.5432701537-.7933015052,1.1297477583-1.1035770688h.8107751066c7.8402461132,0,16.7066691834,0,23.6414650404-5.1149996929,4.7096121396-3.476015591,7.9444523181-8.6339447457,9.3849124801-14.9045650408.3615446988-1.5609088737.646840955-3.3982183519.646840955-5.2439270726,0-2.3634833014-.475281959-4.7698166391-1.8807949182-6.6674100423-3.5366569306-4.9248154264-10.5565968818-4.9853376277-18.7164510504-5.0716929603h0ZM301.5919393805,211.0098028841c-.871138457,3.8209603684-3.3212550801,7.0466269062-6.5294083037,8.6252476577-2.6566228219,1.3282716982-5.8654114491,1.4403807365-9.2031870252,1.4403807365h-2.1737160186l.1982459508-.8797958323,3.9420444839-17.1901716777.1118310492-.8712178825.07751925-.6985270737,1.5700825144.1552966328,8.3835162669.7761654619c3.2176842789,1.2335369795,4.5799897872,4.450546142,3.6230718322,8.6426219773h0Z"/><path class="cls-3" d="M387.0766100252,217.1768325216l-.4746465554-.551927529c-5.9251393959,1.224700897-7.0040548591,1.4144483235-12.4545476995,2.1476247546l-.4403347562.3708374777-.0336763955.2761226154-.0349472029-.0776781009c-4.0881873322,9.401432976-3.9503047318,7.3743363586-7.2537685086,14.7404124692l-.0432074508-.9058076708-.8285664099-15.9995840162-.5000627029-.551927529c-6.2358517996,1.224700897-6.3915257033,1.4144483235-12.1355750479,2.1476247546l-.4657509037.3708374777-.0864149016.646682104.0603633504.0605222013c.6989440574,3.6917351433.5432701537,2.8893394228,1.2593701107,8.6684153958.3278683033,2.8290554979.7675676558,5.7098566836,1.0954359591,8.5388724688.5864776045,4.6577076008.8971900082,7.029550432,1.5783427624,14.1454363403-3.8721500781,6.4428742639-4.8036518855,8.8839760971-8.5042429677,14.5248914805l.1982459508.491643604c5.6322182954-.1984842272,6.9259002054-.1984842272,11.0833465396-.1984842272l.9054502562-1.0350328959c3.1573209285-6.7621249046,27.0751865734-47.809481175,27.0751865734-47.809481175h0Z"/><path class="cls-3" d="M183.7887309244,221.1185990164c3.182737076-2.1907924927,3.5881246293-5.2616190941.8800341087-6.8571574688-2.7004656764-1.5870001377-7.4704411665-1.0866594456-10.6608030867,1.103855058-3.2087886272,2.2168440439-3.588760033,5.287273518-.8971900083,6.8832487328,2.7080905207,1.5869604249,7.4863262587,1.0866197329,10.6779589863-1.1299463219h0Z"/><path class="cls-3" d="M359.5877756505,265.5470574518l-4.6746649368,8.0299935397c-1.509719164,2.7170655978-4.2349655843,4.7611195511-8.5906578694,4.8042872892l-7.4609101111-.1295032143,2.1730806149-7.2019433953h1.4493558136c.7504117562,0,1.3286291128-.0689413002,1.742276914-.2503093406.3704403504-.1379223131.646840955-.4224243147.9397620554-.8709001806l2.7779849264-4.3816246981h11.6437725929Z"/><path class="cls-4" d="M128.3287907754,124.8697530474h99.8365337583c13.9642668636,0,22.6584955342,11.376644911,19.3804479049,25.4011361304l-46.4810506259,199.5186644203c-3.3028283732,13.9553712119-17.1813157388,25.3406933546-31.1894254569,25.3406933546h-99.8708455575c-13.8689563103,0-22.6152880834-11.3853221426-19.3029286549-25.3406933546l46.4727903779-199.5186644203c3.2342047748-14.0244912194,17.1978362347-25.4011361304,31.154478254-25.4011361304"/><path class="cls-2" d="M219.8675877647,124.8697530474h114.8447688822c13.9649022673,0,7.6420001624,11.376644911,4.3817438363,25.4011361304l-46.4810506259,199.5186644203c-3.2519960781,13.9553712119-2.2855470678,25.3406933546-16.1977108289,25.3406933546h-114.8714558371c-13.9807873595,0-22.5720806326-11.3853221426-19.3029286549-25.3406933546l46.4556344783-199.5186644203c3.346035824-14.0244912194,17.2416790892-25.4011361304,31.1709987499-25.4011361304"/><path class="cls-5" d="M330.1673140626,124.8697530474h99.8543250616c13.8854768062,0,22.5981321838,11.376644911,19.2686168557,25.4011361304l-46.4384785787,199.5186644203c-3.2342047748,13.9553712119-17.2162629416,25.3406933546-31.1709987499,25.3406933546h-99.837169162c-13.9382153123,0-22.5981321838-11.3853221426-19.3035640586-25.3406933546l46.4302183308-199.5186644203c3.268516574-14.0244912194,17.2499393371-25.4011361304,31.1970503011-25.4011361304"/><path class="cls-3" d="M232.4867050196,263.9427028509l-3.3034637768,5.9946366743c-.724360205,1.2849451092-1.362940912,2.1131143918-1.9233669653,2.4665974063-.5095937582.2848197034-1.4919278607.4140449286-2.9330234264.4140449286h-1.6990694632l-2.3541706661,7.6850487623h5.7618406479c2.7335066682,0,4.8729108876-1.0692255569,5.8565157975-1.5438323996,1.0604887562-.5863981791,1.3966173075-.2416122526,2.1641849633-1.0695432588l1.9672098198-1.6213119368h17.7932094909l2.4672725227-7.9698287529h-13.1020240582l2.2423396169-4.3558114233h-12.9374545029Z"/><path class="cls-3" d="M230.9858815072,314.3916112355l3.182737076-10.5659690862h12.9552458061l2.3802222174-7.7885004253h-12.9806619537l1.9144713136-6.5119347023h12.8002073061l2.3541706661-7.5732574258h-31.852151504l-2.2601309202,7.5732574258h7.2016654062l-1.9316272132,6.5119347023h-7.3058716111l-2.3630663178,7.9267007276h7.2023008099l-4.2178096847,13.9727256752c-.5178540062,1.802560839.2497136496,2.509963708.8101397029,3.4156522406.6042689078.8190750673,1.0954359591,1.3456261615,2.3637017215,1.6646385258,1.2930465062.2758049136,2.1305085678.43108169,3.260256326.43108169h14.7318345194l2.6483625739-8.6335873311-6.598031902.8882943566c-1.2174334673,0-4.6841959921-.1466194011-4.2959643384-1.3110363732"/><path class="cls-3" d="M267.2115165997,284.6688960554h18.2170237511l-1.1646949611,3.6143747442c-.1296223525.1031339612-.5000627029-.1900651283-2.3980135207.0686633111h-15.7497512284l1.0954359591-3.6830380553h0ZM270.8689002311,272.4816150324h18.4235299499l-1.3197334612,4.4075968239s-8.7285404698-.1121090383-10.048273931.1292252252c-6.14117665,1.0697021097-9.6949894801,4.3299981485-9.6949894801,4.3299981485l2.6394669223-8.8668201975h0ZM258.8108444332,314.4950231858c-.3196080554-.4050301387-.07751925-1.1990067603.3882316537-2.8116613219l4.9072226868-16.1121298946h17.3026778433c2.5270004694,0,4.3556922851-.0515471242,5.580115193-.1636561625,1.2422142111-.1382003023,2.6051551231-.6038320678,4.131394783-1.3970938602,1.5878738177-.8800341087,2.3637017215-1.7512519911,3.0798016785-2.8207952499.7332558566-1.0175195818,1.9316272132-3.2688739886,2.8980762235-6.7708219926l6.2009045967-20.441691203-17.9488833946.120845839s-5.5369077422.8193133437-8.0473877157,1.7335798261c-2.4577414674,1.0178372836-5.9333996438,3.8383148317-5.9333996438,3.8383148317l1.6126545616-5.6237594838h-11.1354496421l-15.5680257735,51.6564930947c-.6042689078,2.0010053535-.9492931107,3.467477354-1.0357080124,4.3383775346-.0260515512.9403180336,1.1901111087,1.8631227531,2.0008862153,2.5360152593.8800341087.7156234042,2.2601309202.6295659172,3.6148115842.7156234042,1.4144086107.0947545751,3.3631917236.1552767764,6.1322809983.1552767764h8.5036075641l2.6661538772-8.8404906572-7.6763119615.715663117c-.8196707582,0-1.432199914-.4227420165-1.6736533157-.8280898571"/><path class="cls-3" d="M284.7035447422,300.4618944474c-.1461428484.534970193-.4485950041.8710590316-.7675676558,1.121090383-.3107124037.2416519653-.9492931107.3192903535-1.819796164.3192903535h-2.5447917727l.0781546537-4.3989394487h-10.7986856872l-.3799714058,21.5975302252c-.0686235984,1.5441103887.0946751496,2.4839915823,1.2244229079,3.2085900636,1.1564347132.8971502955,4.6664046888.9832077826,9.4103286276.9832077826h6.8229648078l2.3630663178-8.116170165-5.9079834963.3795345657-1.9068464694.112148751c-.3011813484-.112148751-.5261142541-.2503093406-.8272956025-.5003804047-.2675049529-.2674255274-.6728925062-.1034119503-.6131645595-1.681715l.0692590021-5.5633961334,6.2186959-.2500313515c3.2431004264,0,4.7274034429-1.0611241599,5.9257747995-2.1134320936,1.1818508607-.9486974198,1.517979412-2.1389276666,1.9837303157-3.6569467913l1.0179167091-4.8816476883h-8.4870870682l-1.0611241599,3.4412669518h0Z"/><path class="cls-3" d="M327.9681818965,280.4599820224c-1.8979508177.4831450797-5.3907648938,2.0529098923-5.3907648938,2.0529098923l3.105217826-10.2555346716h9.4007975723l-2.2855470678,7.4696469118s-2.8548687727.2413342635-4.8297034368.7329778675M328.1314806445,295.1314531913s-2.9921159695.3882316537-4.8208077851.8108148193c-2.001521619.5780187929-5.5724903487,2.4324047453-5.5724903487,2.4324047453l3.2780476293-10.7299429506h9.4096932239l-2.2944427194,7.486723386h0ZM322.9218058019,312.6232430575h-9.4268491235l2.7252464203-9.0563293476h9.3842770764l-2.6826743731,9.0563293476h0ZM337.5939123746,312.5111340191h-3.2348401785l12.1527309475-40.2537767761h4.0710314326l1.2593701107-4.1831007582.1035708012,4.61450015c-.1035708012,2.880920324,2.1305085677,5.3993825563,8.0213361644,4.9940347157h6.779757357l2.319858867-7.7454518254h-2.5098445698c-1.4576160616,0-2.1737160186-.3881125155-2.0529893178-1.1903493851l-.1982459508-4.7008356262h-12.5670141524v.0344706501c-4.0970829839.0779163773-16.2498139313.3621801025-18.7247112983,1.0350328959-3.0105426764.7848824063-6.132916402,3.0275397251-6.132916402,3.0275397251l1.2250583115-4.1660242841h-11.7994464966l-2.4755327706,8.2801837421-12.3427166504,40.8749633071h-2.389117869l-2.3980135206,7.6934678611h23.5550501388l-.7497763525,2.5616299704h11.5319415438l.7586720041-2.5616299704h3.2863078773l2.5104799735-8.3146543922h0Z"/><path class="cls-3" d="M154.4368929348,188.8516281855c-10.280831681.0605420577-13.308530257,0-14.2660836156-.232935021-.3964919017,1.7596512337-7.3401834103,33.7416832229-7.3401834103,33.7416832229-1.4830322091,6.4689258151-2.6045197194,11.1008201411-6.2612679471,14.0679170903-2.0961967686,1.7076871257-4.5628338876,2.5874432453-7.3579747136,2.5874432453-4.5628338876,0-7.2099256541-2.2684308809-7.6763119615-6.5723774781l-.0514676988-1.4574969234s1.3800968116-8.6944272343,1.3800968116-8.7634082472c0,0,7.244872857-29.0840153348,8.5557106665-32.9397044861,0-.232935021.07751925-.370579345.1207267008-.4311214027-14.179668714.1292053688-16.723825083,0-16.8706033351-.232935021-.0603633504.2845020016-.4396993525,2.1218114798-.4396993525,2.1218114798l-7.4265983119,32.8018020293-.6639968546,2.8203981226-1.1818508607,9.1252706479c0,2.6480051594.4663863074,4.8645712142,1.5522912112,6.7537455185,3.364462531,5.8996041101,13.0848681586,6.7621249046,18.492788952,6.7621249046,7.0904697607,0,13.5938265131-1.4833896237,18.1566604007-4.1747213721,7.6845722095-4.6231575253,9.7458217752-11.7300683564,11.5745135909-18.1216734851l.793619207-3.1911958876s7.4863262587-30.3436038656,8.7977994719-34.2335055342c.0254161475-.232935021.0254161475-.370579345.1118310492-.4311214027"/><path class="cls-3" d="M179.9159454426,213.2263689389c-1.8204315677,0-5.0800524901.4485155787-8.0391274677,1.8804772163-1.1125918587.5864378918-2.1730806149,1.2073464337-3.1998929756,1.8544256651l.9747092583-3.4761744419-.5515304017-.6208886856c-6.287954902,1.3195547539-7.6941032648,1.4404005929-13.5245675111,2.2426374624l-.4053875533.3534830145c-.7332558566,5.5805917457-1.3197334611,9.8673030179-3.8467339306,20.7867551186-.9143459078,4.062572621-1.8630036149,8.1422614289-2.9323880227,12.2306076121l.318337248.4829862288c5.9175145516-.3450639156,7.7373107156-.3450639156,12.912673759-.2500313514l.4568552521-.4311611154c.5953732562-3.4158508043.7072043054-4.1920758353,2.1394042194-10.98867139.7065689017-3.2517578017,2.1908719182-10.367484859,2.8288172215-12.8688706172,1.2593701107-.6035143659,2.544156369-1.1901905341,3.7863705802-1.1901905341,2.8637644244,0,2.5365315248,2.5442357945,2.4755327707,3.51890534-.1728298033,1.6906900771-1.2936819099,7.2022213844-2.3027029674,11.9979307239l-.7249956087,3.0446161992c-.4740111517,2.294204443-1.0522285083,4.4679204616-1.6043943136,6.6844865164l.2071416025.4829862288c5.9518263508-.3450639156,7.6763119615-.3450639156,12.7048967528-.2500313514l.5871130082-.4311611154c.9054502562-5.2614602432,1.2072670083-6.6847247928,2.8027656703-14.3613941689l.7764633074-3.51890534c1.5783427624-6.8481823917,2.3637017215-10.3417112969,1.1818508607-13.1878829816-1.2511098628-3.1829356397-4.2781730351-3.9849342328-7.0212107586-3.9849342328"/><path class="cls-3" d="M208.4570083255,210.7166037945c-2.8377128731-1.6649363713-7.8319858652-1.1214080849-11.1182937425,1.1728162145-3.4324507256,2.3030405256-3.7342674777,5.5116305892-.9232415595,7.1933853019,2.795140826,1.6216296387,7.7373107156,1.1299463219,11.1189291462-1.1987287712,3.3288799244-2.3029412437,3.6910600269-5.4941569877.9226061558-7.1674727452"/><path class="cls-3" d="M208.3534375243,220.4456667975c-3.1655811764.595254118-5.0546363425,1.0006019586-7.1069902566,1.268027486-1.8458477153.3105932655-3.7952662318.5777408038-6.8140691562,1.0091401956l-.2071416025.2413342635-.3189726517.1382003023c-.2592447049,2.2426573188-.5095937582,4.1746816593-.8889297603,6.4773052012-.3787005984,2.354925208-.8705030533,5.0286642168-1.7848489612,8.884134948-.6900484058,2.924088062-1.0439682603,3.9934724699-1.432199914,5.0114288917-.3964919017,1.0001254058-.8190353546,2.0267789156-1.5522912112,5.0024538146l.2065061988.2329548773.1302577562.2500313514c2.7856097707-.1984842272,4.6308220822-.2500313514,6.4766697975-.2500313514,1.9754700677-.0950325642,3.898837033,0,6.934795857,0l.2592447049-.2329548773.2586093012-.1982062381c.5172186025-2.6482434357.5521658054-3.3210962292.8107751066-4.6231575253.2764006045-1.3714394363.7154645533-3.2432592774,1.8458477153-8.2804617312.5261142541-2.42374737,1.0865403074-4.76953865,1.6901738116-7.1758521313.569321705-2.4240253591,1.1646949611-4.804327002,1.7594328136-7.1935640092l-.0768838463-.2675446656-.1899857029-.2932388023h0Z"/><path class="cls-3" d="M225.1293657097,232.0982953293c1.3279937091-5.847739284,2.8974408199-10.7296649615,6.8998486541-10.7296649615,3.0880619264,0,3.2526314818,3.6225952794,1.9068464694,9.4877684522-.2764006045,1.3198128866-1.3800968116,6.1499134507-2.8898159756,8.228318916-1.0954359591,1.4836676128-2.3808576211,2.3978943825-3.7863705802,2.3978943825-.4053875533,0-2.8898159756,0-2.9241277748-3.6916954306,0-1.811257927.3710757541-3.6742218291.793619207-5.6926213586M225.6040122651,249.5040674211c5.6747903426,0,11.5147856442-1.6127736998,15.9905692264-6.3049519507,3.4248258814-3.7951470936,4.9942729921-9.4531389512,5.4854400434-11.7734346581,1.7772241169-7.7454518254.4485950041-11.3592308787-1.3108378095-13.5676558237-2.5873638198-3.3118034503-7.244872857-4.3729276102-11.9887967958-4.3729276102-2.8720246723,0-9.7636130785.2761226154-15.1029102735,5.2268704549-3.8467339306,3.5104862411-5.649374195,8.4269222814-6.7359145025,13.0240282554-1.0782800595,4.718110664-2.3637017215,13.2655213698,5.4676487401,16.4053289841,2.4583768711,1.0351917469,5.8565157975,1.3627423483,8.1948013714,1.3627423483"/><path class="cls-3" d="M261.4159995563,248.7106467777l.4485950041-.4311611154c.6894130021-3.4158508043.7326204529-4.1920758353,2.1819762665-10.98867139.6722571025-3.2517578017,2.1387688157-10.367484859,2.8288172215-12.8688706172,1.2758906066-.6035143659,2.5358961211-1.1901905341,3.8206823793-1.1901905341,2.8034010739,0,2.5358961211,2.5442357945,2.4069091723,3.51890534-.1207267008,1.6906900771-1.1901111087,7.2022213844-2.2512352686,11.9892336359l-.7078397091,3.0533132872c-.5261142541,2.294204443-1.103696207,4.4679204616-1.5783427624,6.6844865164l.1899857029.4829862288c5.9175145516-.3450639156,7.573376564-.3450639156,12.6534290541-.2500313514l.6296850554-.4311611154c.8800341087-5.2614602432,1.1208521066-6.6931438917,2.7424023198-14.3613941689l.793619207-3.51890534c1.6126545616-6.8568794797,2.3980135206-10.3501303958,1.2333185595-13.1878829816-1.3190980575-3.1829356397-4.3042245863-3.9849342328-7.1330418078-3.9849342328-1.750537162,0-5.088312738.4485155787-7.9952846132,1.8804772163-1.0611241599.5864378918-2.1476644673,1.2073464337-3.1223737256,1.8544256651l.8539825574-3.4761744419-.4746465554-.6208886856c-6.3394226008,1.3110165168-7.7455709636,1.4404005929-13.5067762078,2.2426374624l-.4663863074.3534830145c-.69767325,5.5805917457-1.258734707,9.8673030179-3.7425277256,20.7867551186-1.0007608095,4.062572621-1.9500539202,8.1422614289-2.9590749777,12.2306076121l.2935565041.4829862288c5.8743071008-.3450639156,7.728415064-.3450639156,12.8605706565-.2500313514"/><path class="cls-3" d="M311.8295636107,216.9094069942s4.2006537851-17.9663768524,4.2006537851-17.9319062023l.0692590021-.8971304392.1207267008-.7156432606,1.6126545616.1552966328s8.4877224718.7501139107,8.7806435723.7501139107c3.3295153281,1.3111753677,4.6835605884,4.7008356262,3.7260072297,9.0566271931-.8450869058,3.9933533317-3.4496066252,7.3918496727-6.8223294041,8.9874277602-2.7430377235,1.4058703737-6.0897089512,1.5009426506-9.6003143305,1.5009426506h-2.2245483137l.1372471967-.9057282453h0ZM304.6876261512,248.9606781292c.3196080553-1.8631227531,2.5619476723-12.5323846514,2.5619476723-12.5323846514,0,0,1.8458477153-7.8747961888,2.0097818669-8.159337903,0,0,.569321705-.8022368695,1.1729552091-1.1300654601h.8539825574c8.220217519,0,17.4494560954,0,24.6511215015-5.3217441681,4.8989624388-3.6485674052,8.2888411173-9.0218984103,9.7725087301-15.5597655256.4142832049-1.6043744573.6900484058-3.5969805682.6900484058-5.4684827074,0-2.5187600778-.4829068033-5.002473671-1.9926259673-6.9003450633-3.6313320801-5.1922210975-10.996931638-5.2698594857-19.5100702574-5.3130272238l-4.1657065822.0431677381c-10.8425285417.1292053688-15.1975854231.0776383882-17.0008610912-.0863354762-.1550385.7503918998-.4314391045,2.1736763058-.4314391045,2.1736763058l-3.8810457298,18.0182218221s-9.2978621748,38.3559450965-9.7121453797,40.1242735618c9.4274845272-.0863354762,13.3345818082-.0863354762,14.981548169.112148751"/><path class="cls-3" d="M350.7988718303,232.7107847724c1.2765260103-5.7185140589,2.8205569735-10.6436074744,6.8566412033-10.6436074744,2.5536874243,0,3.8727854818,2.4240253591,3.5627084818,6.4518096282-.2331931537.9398811936-.4396993525,1.9665347034-.6989440574,3.0877839373-.3710757541,1.742276914-.8107751066,3.4243096159-1.2422142112,5.1063423177-.4308037008,1.1467448069-.948657707,2.2597337929-1.5008235124,2.9927513731-1.0172813054,1.4404204492-3.492814076,2.3547663571-4.864015236,2.3547663571-.3971273054,0-2.8466085248,0-2.9762308772-3.6140570424-.008260248-1.7940226019.3450242029-3.6916160051.8628782091-5.7357890967M337.5939123746,232.4433592449c-1.0528639119,4.6577076008-2.3204942706,13.1276387694,5.4854400434,16.1722549686,2.4577414674,1.086897722,4.7261326355,1.3543232494,6.9170045537,1.2679877733,2.4151694202-.1208061263,4.6492487892-1.3195746102,6.6590306562-3.0186837862-.1982459508.6812718923-.3539198545,1.4145674617-.5261142541,2.1044570165l.3278683033.4398184907c5.6322182955-.2326768882,7.3230275107-.2326768882,13.4464128574-.1897871392l.4918024549-.4572126667c.9226061558-5.2009380418,1.7765887132-10.2207860324,4.0875519285-20.2086966129,1.044603664-4.7524621759,2.2347147727-9.4706919781,3.3816184305-14.2488880033l-.2242975021-.5176157298c-6.2441120475,1.1729949218-7.891713812,1.4404204492-13.9121637611,2.302901531l-.4829068033.3365256786c-.0692590021.4829862288-.1213621045.9572753696-.1988813545,1.3887144741-.956917955-1.4922852753-2.2855470678-2.7772303845-4.372212781-3.5882040548-2.6655184735-1.0437299839-8.9960454227.3105932655-14.3702898206,5.2614999559-3.8378382789,3.527602428-5.6322182954,8.2714866541-6.7098629512,12.9549281043"/><path class="cls-3" d="M419.4898229863,213.7612199938l-.5089583545-.560624617c-6.1837486971,1.25063331-7.3230275107,1.4835484746-13.0149737529,2.2339602308l-.4403347562.4224243147v.2761226154l-.0597279467-.1379223131c-4.2444966396,9.81555733-4.0799270843,7.6850487623-7.5562206644,15.3957519485,0-.3534433018,0-.5777408038-.0260515512-.9398811936l-.9054502562-16.6898309857-.5089583545-.560624617c-6.4773052012,1.25063331-6.6329791049,1.4835484746-12.661689302,2.2339602308l-.4225434529.4224243147c-.0946751496.2329151646-.0946751496.3969287417-.0946751496.6557763193v.094913426c.7758279037,3.8035264797.6029981005,2.9668189601,1.3451496087,8.9872291965.3450242029,2.9585984249.8539825574,5.968743974,1.1214875103,8.9187644491.6029981005,4.8903050636.9403974591,7.2795420708,1.664757664,14.7576080815-4.0367196334,6.7102600785-5.0374804429,9.2549327131-8.8924746215,15.1025528589l.0254161475.0431677381-2.7595582194,4.3728878974c-.3456596066.4056258297-.6125291558.7593471206-.9315018074.8800341087-.5178540062.1984842272-1.1043316107.2674255274-1.8896905698.2674255274h-1.517979412l-2.234079369,7.5038395728,7.7373107156.1292252252c4.5710941355,0,7.4265983119-2.1475850419,8.9960454227-4.9422096024l4.8214431888-8.3835956924h-.0260515512l.5267496578-.5863981791c3.2596209223-7.0727181701,28.2125591759-49.8969808556,28.2125591759-49.8969808556"/><path class="cls-3" d="M345.5548851886,287.6363107065h13.6014513574l-2.0091464632,6.3223064139h-13.7317091136l-2.0440936661,6.8826530418h11.9894321995l-9.0570441768,12.8172043548c-.6551012029.9489754089-1.2244229079,1.25063331-1.8718992665,1.5180191247-.5947378525.3795345657-1.4569806579.7332955693-2.4488458157.7332955693h-3.3212550801l-2.3027029674,7.538151372h8.7800081686c4.5024705372,0,7.1419374595-2.0351980145,9.168875226-4.7353062763l6.2186959-8.5472915676,1.3114732132,8.6684153958c.3361285513,1.6127736998,1.4569806579,2.5789844337,2.311598619,2.9669380983.8533471537.3879536646,1.742276914,1.1472213597,3.0702706231,1.2766848612,1.3368893607.051586837,2.2944427194.1292252252,2.9590749776.1292252252h4.2686419798l2.5968948752-8.4785885438h-1.7168607665c-.9747092583,0-2.6566228219-.1553164891-2.9323880227-.4572126667-.2675049529-.4140052158-.2675049529-.9747886837-.4142832049-1.8112182143l-1.3451496087-8.728659608h-5.5896462483l2.4412209715-2.8896571247h13.7399693615l2.079040869-6.8826530418h-12.6705849537l2.0002508116-6.3223064139h12.6540644578l2.3281191149-7.7974755024h-37.7181983569l-2.3452750145,7.7974755024h0Z"/><rect class="cls-1" width="500" height="500"/></svg>