<?xml version="1.0" encoding="UTF-8"?><svg id="Layer_1" xmlns="http://www.w3.org/2000/svg" viewBox="0 0 500 500"><defs><style>.cls-1{fill:none;}.cls-1,.cls-2,.cls-3,.cls-4,.cls-5{stroke-width:0px;}.cls-2{fill:#424143;}.cls-3{fill:#f47920;}.cls-4{fill:#028c45;}.cls-5{fill:#6e6f71;}</style></defs><g id="g2334"><g id="g2340"><path id="path2342" class="cls-2" d="M23.5460396911,321.619368089h3.2808076981l-3.0885259339,13.0871782816c-.3845635284,1.9228181435-.3845635284,3.4730898563.1922817642,4.4344977819.7811446559.9614090717,1.9348353844,1.5382538271,3.6653710832,1.5382538271,1.7305359853,0,3.0765082274-.5768447554,4.2301988843-1.5382538271,1.1536906569-.9614090718,1.9228175705-2.5116807845,2.3073807407-4.434498928l3.2808082711-13.0871771355h3.2687903855l-3.0765088004,13.4717414519c-.7811442261,2.8962439548-1.934834883,5.0113436834-3.8576530265,6.5495975106-1.7305359853,1.5382549732-4.0379167261,2.1150997286-6.9221439413,2.1150997286-2.8962442413,0-4.8190620983-.5768447554-5.9727521821-2.1150997286-.9614087852-1.345972242-1.345972242-3.6533535558-.5768453284-6.5495975106l3.2687903855-13.4717414519Z"/></g><g id="g2344"><path id="path2346" class="cls-2" d="M40.2985917063,343.178939867l5.3838895411-22.3287202762,10.2029504933,13.0871782816c.1922815851.3845637433.5768447554.7691269136.7691274866,1.1536906569.1922815851.5768453284.5768447554.9614090718.7691274866,1.5382538271l3.6533547019-15.0099964251h3.0885255399l-5.3959079998,22.5210027926-10.3952332245-13.471741237c-.1922815851-.3845631703-.3845631703-.7691274866-.7691269136-1.1536906569-.1922815851-.3845631703-.3845631703-.7691274866-.5768453284-1.345972242l-3.6533535558,15.0099952791h-3.0765082274Z"/></g><g id="g2348"><path id="path2350" class="cls-2" d="M63.9732991237,343.1789643169l5.1916165516-21.5595962279h3.2687548568l-4.9992937073,21.5595962279h-3.4610777011Z"/></g><g id="g2352"><path id="path2354" class="cls-2" d="M72.2414210375,343.178939867l5.2036252685-21.5595939357h11.729188154l-.7691274866,3.0765088004h-8.2681156103l-1.345972242,5.3959068537h8.2681156103l-.7691274866,3.0765088004h-8.2681156103l-2.3193986263,10.0106694812h-3.4610719707Z"/></g><g id="g2356"><path id="path2358" class="cls-2" d="M87.6359771946,343.1789643169l5.2036458981-21.5595962279h3.4610777011l-5.1916165517,21.5595962279h-3.4731070476Z"/></g><g id="g2360"><path id="path2362" class="cls-2" d="M95.9161284549,343.178939867l5.191607956-21.5595939357h11.7412054666l-.7691274866,3.0765088004h-8.2681156103l-1.1536906569,5.3959068537h8.2681156103l-.7691274866,3.0765088004h-8.2801329229l-1.7305359853,6.9341612539h8.2801334959l-.7691263405,3.0765082274h-11.7412060396Z"/></g><g id="g2364"><path id="path2366" class="cls-2" d="M115.7451858322,340.1024589548h2.8842266422c1.5382541137,0,2.8842266422-.1922817642,3.6533535558-.3845635284s1.5382544002-.5768452568,2.3073813138-.9614088569c.9614084987-.7691270568,1.7305359853-1.5382542569,2.499663472-2.7039622264.5768447554-.9614090717.9614090718-2.3073813138,1.345972242-3.6533535558.3965810559-1.345972242.3965810559-2.4996628989.3965810559-3.6533535558-.2042994707-.9734269573-.588862641-1.7425532979-1.1657085425-2.5116807845-.5768447554-.5768447554-1.1536906569-.9614090718-1.9228181435-1.1536906569-.7691269136-.1922815851-2.1150997286-.1922815851-3.8456351409-.1922815851h-2.4996628989l-3.6533535558,15.2142947498ZM111.6952512206,343.1789671821l5.0113434685-21.5595933627h4.6147622694c3.0765082274,0,5.191607956.1922815851,6.3452986129.5768447554,1.1657085425.1922815851,2.1271176142.7691274866,2.7039623696,1.5382538272,1.1536906569.9614090717,1.7305365584,2.1150997286,1.9228181435,3.6533535558.3845631703,1.5502717127.1922815851,3.2808076981-.1922815851,5.0113436834-.5768447554,1.9228175705-1.1536906569,3.6533535558-2.3073813138,5.2036252685-.9614090717,1.3459734597-2.1271176142,2.6919458092-3.4730898563,3.6533546302-1.1536906569.7691271285-2.3073813138,1.1536905853-3.6533535558,1.5382541853-1.1536906569.1922818717-3.0765085139.3845634568-5.576171556.3845634568h-5.3959069969Z"/></g><g id="g2368"><path id="path2370" class="cls-2" d="M148.649409336,330.6686151274h.9614088569c1.7305359137,0,3.0765081557-.1922817642,3.8456353558-.5768452926.7691269136-.3845635642,1.1536906569-1.1536906927,1.5502717127-2.3193989487.1922815851-1.1536903704,0-1.922817857-.588862641-2.3073810272-.3845637433-.5768453285-1.7305362718-.7691269136-3.4610721139-.7691269136h-.9614089285l-1.345972242,5.9727521821ZM147.6880004792,333.5528417697l-2.3073812421,9.6261057379h-3.0765085139l4.9993262276-21.5595933627h5.1916078127c1.5382541137,0,2.7039620831.1922815851,3.2808079846.3845637433.7691269136.1922815851,1.345972242.3845637433,1.7305359853.7691269136.5768453284.5768453284.9614084987,1.1536906569,1.1536900838,2.1150991556.1922815851.7691269136,0,1.7305359853-.1922815851,2.6919447706-.1922815851.9734269573-.5768453285,1.9348358142-1.1536906569,2.8962446353-.5768453284.7691270568-1.345972242,1.5382541495-2.1150997286,1.9228177495-.588862641.3845634568-1.3579895546.7691269136-2.1271167547.9614087852s-1.922817857.1922818717-3.2687901706.1922818717h-2.1150994421Z"/></g><g id="g2372"><path id="path2374" class="cls-2" d="M162.6979989816,334.7065146622h5.780470597l-.9734263843-4.8070442127v-1.1536906569c-.1922818717-.3845637433-.1922818717-.7691269136-.1922818717-1.3579901276-.1922815851.588863214-.3845634568.9734263843-.5768453284,1.3579901276-.1922815851.3845637433-.5768450419.7691269136-.7691269136,1.1536906569l-3.268790099,4.8070442127ZM170.0167239788,343.1789303163l-.9614090718-5.5761714128h-8.2801336392l-3.8456355707,5.5761714128h-3.4730898563l15.4065763349-22.3287202762,4.8070442127,22.3287202762h-3.6533524097Z"/></g><g id="g2376"><path id="path2378" class="cls-2" d="M178.6693769723,343.178939867l2.3073811705-9.8183878961-4.2301988842-11.7412060396h3.4610718274l2.7039623696,7.3187249972c0,.1922815851.1922818717.5768447554.1922818717.7691274866.1922818717.3845631703.1922818717.7691274866.1922818717.9614090718.3845634568-.1922815851.5768450419-.5768447554.7691272001-.9614090718.1922815851-.1922815851.3845637433-.5768447554.5768453284-.7691274866l6.3452980398-7.3187272894h3.4730898563l-10.2029516394,11.7412083318-2.3073813138,9.8183878961h-3.2808076981Z"/></g><g id="g2380"><path id="path2382" class="cls-2" d="M211.2010574836,332.5914523724c0-.1922817642,0-.5768452926.1922817642-1.3459723853v-1.5382542569c-.1922817642.3845637433-.3845635284.9614089285-.5768452926,1.3459725285-.3845635284.5768452568-.5768453284,1.1536905853-.9614088569,1.5382541137l-8.2801339257,11.5489233084-2.691944484-11.7412060396c-.1922815851-.3845635284-.1922815851-.9614088569-.3845631703-1.3459723853v-1.3459723853c-.1922815851.3845634568-.3845631703.9614087852-.3845631703,1.3459723853-.1922815851.5768453285-.3845631703.9614088569-.7691274866,1.5382541137l-4.8190620983,10.5875152394h-3.0765088004l10.3952326515-22.3287202762,2.8842266422,13.4717414519c0,.1922817284.1922815851.5768453284.1922815851,1.1536906569,0,.3845634568.1922815851,1.1536906569.1922815851,1.9348354561.3845637433-.7811447992.9614090718-1.5502717127,1.5382544002-2.511680498.1922815851-.1922817284.3845637433-.3845634568.3845637433-.5768453284l9.4338250124-13.4717417384-.3845634568,22.3287214223h-3.0765082274l.1922815851-10.5875153827Z"/></g><g id="g2384"><path id="path2386" class="cls-2" d="M216.7772463743,343.178939867l5.2036252685-21.5595939357h11.7412060396l-.7811453722,3.0765088004h-8.2681156103l-1.345972242,5.3959068537h8.2681156103l-.5768447554,3.0765088004h-8.4603983415l-1.5382541137,6.9341612539h8.2681158968l-.7691263405,3.0765082274h-11.7412060396Z"/></g><g id="g2388"><path id="path2390" class="cls-2" d="M232.3640520261,343.178939867l5.3959068537-22.3287202762,10.2029510664,13.0871782816c.3845631703.3845637433.5768447554.7691269136.7691274866,1.1536906569.3845631703.5768453284.5768447554.9614090718.9614090718,1.5382538271l3.4610708246-15.0099964251h3.2687915316l-5.3838901142,22.5210027926-10.3952332245-13.471741237c-.3845631703-.3845631703-.5768453284-.7691274866-.7691269136-1.1536906569-.3845637433-.3845631703-.5768453284-.7691274866-.7691269136-1.345972242l-3.4610719707,15.0099952791h-3.2808076981Z"/></g><g id="g2392"><path id="path2394" class="cls-2" d="M267.2030932215,324.6958490012l-4.4224807559,18.4830851353h-3.4730895697l4.434498355-18.4830851353h-5.5881890119l.7691269136-3.0765082273h14.6374499944l-.7691269136,3.0765082273h-5.5881890119Z"/></g><g id="g2396"><path id="path2398" class="cls-2" d="M270.856493767,338.9487174879l2.8962442413-1.3459723853c0,.9614088569.3845634568,1.7305359853.9614087852,2.3073811705.5768453284.3845634568,1.345972242.7691270568,2.4996628989.7691270568.9614090717,0,1.9228175705-.3845636001,2.4996628989-.9614088569.7691274866-.576845221,1.345972242-1.3459722778,1.5382538271-2.3073810989.1922827312-1.3579901276-.3845631703-2.511680498-2.3073807407-3.4730895697-.1922815851,0-.3845637433-.1922815851-.5768453284-.1922815851-1.9228175705-1.1536906569-3.268790099-2.3073813138-3.8456354275-3.2687903855-.5768453284-.7691269136-.5768453284-1.9228169974-.3845634568-3.280807125.3845634568-1.9228181435,1.345972242-3.2687903855,2.8842266422-4.4224810424,1.345972242-.9614090718,3.0765082274-1.5382538272,4.8070442127-1.5382538272,1.7305354123,0,2.8842272153.3845631703,3.8576530265.9614090718.7691274866.5768447554,1.345972242,1.345972242,1.345972242,2.4996628989l-2.8962439548,1.5382538272c-.3845631703-.7691274866-.5768447554-1.1536906569-.9614090718-1.5382538272-.5768447554-.3845631703-1.1536906569-.3845631703-1.7305365584-.3845631703-.9614090718,0-1.7305359853.1922815851-2.3073813138.7691274866-.7691269136.3845631703-1.1536906569.9614090718-1.345972242,1.9228181435-.1922815851,1.1657085425.5768453284,2.5116807845,2.691944484,3.6653714414h.3845631703c1.9228181435,1.1536906569,3.0765088004,2.1150997286,3.6533535558,3.0765082274.5768447554.7691269136.5768447554,1.9228175705.1922815851,3.4730895697-.3845631703,1.9228177137-1.345972242,3.6533535558-2.8842260692,4.8070442127-1.5382532541,1.1536886512-3.4610708246,1.7305339797-5.5761705532,1.7305339797-1.7305356988,0-3.0765080841-.3845634568-4.0499344684-1.1536906569-.9614088569-.9614087852-1.3459723853-2.1150994421-1.3459723853-3.6533535558Z"/></g><g id="g2400"><path id="path2402" class="cls-2" d="M295.877167696,343.1789643169l5.2035725485-21.5595962279h3.4610777011l-5.1916165517,21.5595962279h-3.4730336979Z"/></g><g id="g2404"><path id="path2406" class="cls-2" d="M304.3495684509,343.178939867l5.3838895411-22.3287202762,10.0106689082,13.0871782816c.3845631703.3845637433.5768447554.7691269136.9614090718,1.1536906569.1922815851.5768453284.5768447554.9614090718.7691274866,1.5382538271l3.6653702953-15.0099964251h3.0765099465l-5.3959079998,22.5210027926-10.383215339-13.471741237c-.1922815851-.3845631703-.5768453284-.7691274866-.7811447992-1.1536906569-.1922815851-.3845631703-.3845631703-.7691274866-.5768453284-1.345972242l-3.6533535558,15.0099952791h-3.0765082274Z"/></g><g id="g2408"><path id="path2410" class="cls-2" d="M339.1886096464,324.6958490012l-4.434498355,18.4830851353h-3.4610719707l4.4224807559-18.4830851353h-5.5761708397l.5768453285-3.0765082273h14.6254315357l-.7691269136,3.0765082273h-5.3838895411Z"/></g><g id="g2412"><path id="path2414" class="cls-2" d="M342.8419368421,343.178939867l5.191607956-21.5595939357h11.5489238814l-.5768459015,3.0765088004h-8.2801334959l-1.345972242,5.3959068537h8.2801334959l-.7691274866,3.0765088004h-8.2801329229l-1.7305359853,6.9341612539h8.472415081l-.7691263405,3.0765082274h-11.7412060396Z"/></g><g id="g2416"><path id="path2418" class="cls-2" d="M364.786105409,330.860889072h.5768452926c1.9228176063,0,3.0765082632-.1922817642,3.8456354633-.5768452926.5768450419-.3845635642,1.1536903704-1.1536906927,1.3459725285-2.3073813496.3845631703-1.1657079694.1922815851-2.1271170412-.3845637433-2.5116802114-.3845637433-.5768453285-1.5382541137-.7691274866-3.268790099-.7691274866h-.5768453284l-1.5382541137,6.1650343403ZM364.0049607531,333.5528338426l-2.3073811705,9.6261060244h-3.268790099l5.191607956-21.5595939357h4.8190620983c1.345972242,0,2.3073813138.1922815851,3.0765082274.3845637433.7691269136.1922815851,1.345972242.3845637433,1.7305359853.9614090717.5768453284.3845637433.9614090718,1.1536906569.9614090718,1.9228175705.1922810121.7691274866.1922810121,1.7305362719-.000000573,2.6919450571-.3845637433,1.7425535844-1.1536906569,3.0885259339-2.3073813138,4.0499347549-.9614090718.9614089285-2.3073813138,1.5382541137-3.8456354275,1.7305358421l4.8070444992,9.8183878961h-3.845635714l-4.6147624127-9.6261060244h-.3965811275Z"/></g><g id="g2420"><path id="path2422" class="cls-2" d="M374.7847661733,343.178939867l5.2036252685-21.5595939357h11.7412060396l-.7691274866,3.0765088004h-8.2801334959l-1.1536906569,5.3959068537h8.2681156103l-.7691274866,3.0765088004h-8.2681156103l-2.4996626124,10.0106694812h-3.4730895697Z"/></g><g id="g2424"><path id="path2426" class="cls-2" d="M395.7675405676,334.7065146622h5.7684532844l-.9614090718-4.8070442127c0-.3845637433,0-.7691269136-.1922818717-1.1536906569v-1.3579901276c-.1922815851.588863214-.5768453284.9734263843-.7691269136,1.3579901276l-.5768453284,1.1536906569-3.268790099,4.8070442127ZM403.0742476792,343.1789303163l-.9614084987-5.5761714128h-8.460398055l-3.6653711549,5.5761714128h-3.6533535558l15.5868406075-22.3287202762,4.8190620983,22.3287202762h-3.6653714414Z"/></g><g id="g2428"><path id="path2430" class="cls-2" d="M428.864013566,327.0032341353c-.7691270568-.9614088569-1.5382541137-1.5382541137-2.4996628989-1.9228177137s-2.1150994421-.7691270568-3.2687903855-.7691270568c-2.3073813138,0-4.4224810424.7691270568-6.1530164547,2.3073811705-1.7425532979,1.5502717127-3.0885255399,3.473089713-3.6653714414,5.9727520389-.3845631703,2.3073813138-.1922815851,4.2301994573.7691274866,5.780470024,1.1536906569,1.345972242,2.7039623696,2.1150997286,4.8190620983,2.1150997286,1.1536906569,0,2.4996628989-.1922815851,3.6533535558-.5768447554s2.4996628989-1.1536906569,3.6533535558-2.1150997286l-.7691269136,4.0379167261c-1.1536906569.5768447554-2.3073813138,1.1536906569-3.4610719707,1.5382538271-1.1536906569.1922815851-2.3073813138.3845631703-3.6533529828.3845631703-1.5382538271,0-3.0885255399-.1922815851-4.2422161968-.7691274866-1.1536906569-.5768447554-2.1150997286-1.345972242-3.0765088004-2.3073813138-.7691274866-1.1536906569-1.1536906569-2.3073813138-1.3459733881-3.6533535558-.3845631703-1.3579901276-.1922815851-2.8962439548.1922815851-4.434498355.3845631703-1.7305359853.9614090717-3.0765082274,1.9228181435-4.614762341.7691274866-1.3579899843,1.9228181435-2.511680498,3.2687903855-3.6653711549,1.345972242-.9614087852,2.7039623696-1.7305359853,4.0499346117-2.3073813138,1.5382538272-.5768453285,3.0765082274-.7691269136,4.6147626276-.7691269136,1.1536906569,0,2.3073813138.1922815851,3.4610719707.5768453284.9614088569.3845637433,1.9228177137.7691269136,2.8962442413,1.5382541137l-1.165708829,3.6533555614Z"/></g><g id="g2432"><path id="path2434" class="cls-2" d="M429.248585905,343.178939867l5.2036252686-21.5595939357h11.7412060396l-.7691274866,3.0765088004h-8.2801334959l-1.345972242,5.3959068537h8.2801334959l-.7691274866,3.0765088004h-8.2801334959l-1.7305359853,6.9341612539h8.4603977685l-.7691263405,3.0765082274h-11.7412060396Z"/></g><g id="g2436"><path id="path2438" class="cls-5" d="M367.0934660931,302.9439910538h-23.4823845731l32.5196511648-117.8326749309h23.4823845731l-32.5196511648,117.8326749309Z"/></g><g id="g2440"><path id="path2442" class="cls-5" d="M354.7754152982,188.764673881c-1.5382541137-2.1150994421-4.0499346117-3.268790099-7.5110065823-3.268790099h-128.9489646727l-6.3452968937,23.0978474763h117.2077632175l-6.7418848261,24.6481171834h-93.7253373852v-.1922815851h-23.4824120792l-19.432483198,70.4712674245h23.2901259097l13.0871771355-47.3613983377h105.4665525935c3.2687892394,0,6.5375807711-.9734281034,9.4218068402-3.2808117094,2.8962439548-2.3073790216,4.8190620983-4.9993257978,5.7804700239-8.2801329228l12.8948987738-47.1691201909c.9614088569-3.4610719707.7691271285-6.3573160687-.9614088569-8.6646972392Z"/></g><g id="g2444"><path id="path2446" class="cls-5" d="M171.9395444145,295.625270641c-1.1536905853,4.614762341-5.3959068537,7.8955703256-10.2029510664,7.8955703256H40.6832007201c-3.2687915316,0-5.7804677318-1.1536906569-7.3187204128-3.4730895697-1.7305388506-2.3073811705-1.9228158513-4.9993257978-1.1536895108-8.2681161833l29.6354228035-106.2837467516h23.4824120792l-26.3666404406,94.9150874293h93.7253465539l26.5589197335-94.9150874293h23.2901282019l-30.5968353135,110.1293821791Z"/></g><g id="g2448"><path id="path2450" class="cls-4" d="M440.0283473441,185.3036022924l29.8397474881,59.102599793-62.5516481476,59.1146474769,32.7119006595-118.2172472699Z"/></g><g id="g2452"><path id="path2454" class="cls-3" d="M419.2499251406,185.3036022924l29.6353952973,59.102599793-62.3593253033,59.1146474769,32.723930006-118.2172472699Z"/></g></g><rect class="cls-1" width="500" height="500"/></svg>