<?xml version="1.0" encoding="UTF-8"?>
<svg width="140px" height="80px" viewBox="0 0 140 80" version="1.1" xmlns="http://www.w3.org/2000/svg" xmlns:xlink="http://www.w3.org/1999/xlink">
    <!-- Generator: Sketch 52.5 (67469) - http://www.bohemiancoding.com/sketch -->
    <title>im/logo-pay/v-pay</title>
    <desc>Created with Sketch.</desc>
    <g id="im/logo-pay/v-pay" stroke="none" stroke-width="1" fill="none" fill-rule="evenodd">
        <g id="VPay_logo_2015" transform="translate(40.000000, 7.000000)">
            <polygon id="path8681" fill="#1C3378" points="59.8000025 0.200260764 0.200000007 0.200260764 0.200000007 64.8532794 59.8000025 64.8532794"></polygon>
            <polygon id="path8683" fill="#FFFFFF" points="58.308485 42.1865179 1.6915175 42.1865179 1.6915175 1.69372312 58.308485 1.69372312"></polygon>
            <path d="M44.3211725,9.04381355 L33.2128375,35.5961792 L25.95469,35.5961792 L20.4872375,14.4011728 C20.1577225,13.0987402 19.8672225,12.6211768 18.861315,12.06547 C17.2050325,11.1754719 14.4821525,10.3332205 12.088785,9.80791072 L12.24921,9.04381355 L23.9211975,9.04381355 C25.408385,9.04381355 26.7481475,10.0336609 27.086345,11.7442047 L29.9783175,27.1086227 L37.11506,9.04381355 L44.3211725,9.04381355" id="path8685" fill="#1C3378"></path>
            <path d="M17.469515,52.5626109 C17.7339975,52.636407 18.0852025,52.6580802 18.5231175,52.6580802 C20.136045,52.6580802 21.1202725,51.8288555 21.1202725,50.3831506 C21.1202725,49.0112542 20.209745,48.2775439 18.7139,48.2775439 C18.12423,48.2775439 17.6993125,48.3340024 17.469515,48.3904184 L17.469515,52.5626109 Z M15.331965,46.8145114 C16.103735,46.6669042 17.1746875,46.5583629 18.6315175,46.5583629 C20.209745,46.5583629 21.36308,46.9056801 22.1175,47.5655819 C22.81991,48.1690476 23.2751625,49.1371982 23.2751625,50.2963701 C23.2751625,51.4642232 22.92397,52.4323638 22.2562475,53.0966112 C21.397765,53.9909432 20.0493225,54.412069 18.5231175,54.412069 C18.12423,54.412069 17.7513475,54.3903908 17.469515,54.3382705 L17.469515,58.9923154 L15.331965,58.9923154 L15.331965,46.8145114 Z" id="path8687" fill="#FFFFFF" fill-rule="nonzero"></path>
            <path d="M31.391795,53.7912457 L30.4639275,50.7522161 C30.2341325,50.0011457 30.0433625,49.1589065 29.86559,48.4425663 L29.8308475,48.4425663 C29.657415,49.1589065 29.479655,50.0228514 29.271535,50.7522161 L28.3610075,53.7912457 L31.391795,53.7912457 Z M28.00987,55.4930966 L26.990955,58.9923054 L24.76668,58.9923054 L28.551845,46.6495441 L31.3050825,46.6495441 L35.1466,58.9923054 L32.8312875,58.9923054 L31.760335,55.4930966 L28.00987,55.4930966 Z" id="path8689" fill="#FFFFFF" fill-rule="nonzero"></path>
            <path d="M39.6861975,58.9923054 L39.6861975,53.843336 L35.9530675,46.6495441 L38.4027975,46.6495441 L39.8249425,49.8144626 C40.2281725,50.734856 40.523,51.4251448 40.84386,52.2717296 L40.87416,52.2717296 C41.17333,51.4815833 41.511525,50.7131502 41.910415,49.8144626 L43.33256,46.6495441 L45.7692925,46.6495441 L41.8410425,53.7912457 L41.8410425,58.9923054 L39.6861975,58.9923054 Z" id="path8691" fill="#FFFFFF"></path>
        </g>
    </g>
</svg>