<?xml version="1.0" encoding="UTF-8"?><svg id="Layer_1" xmlns="http://www.w3.org/2000/svg" viewBox="0 0 500 500"><defs><style>.cls-1{fill:none;}.cls-1,.cls-2{stroke-width:0px;}.cls-2{fill:#ff5b24;}</style></defs><path class="cls-2" d="M47.6133198957,194.9748869046l19.2215631458,56.1557677823,18.8440311889-56.1557677823h22.2357879388l-33.1661221022,83.2914425755h-16.5824579649l-33.1661221022-83.2914425755h22.6133198957Z"/><path class="cls-2" d="M158.0408141932,265.0753644148c13.9445589564,0,21.8594621543-6.7839281215,29.3968333954-16.5829102795,4.1456144912-5.2764011032,9.4214125083-6.4070369437,13.190701215-3.3919829072,3.7692887067,3.0150917294,4.1456144912,8.6683463176,0,13.9447097279-10.929127991,14.3216009057-24.8748931197,22.9899472233-42.5875346104,22.9899472233-19.2215631458,0-36.1815530676-10.5527645136-47.8645387999-29.0200929892-3.3917567499-4.8994722326-2.6378990085-10.1758733358,1.1301835258-12.8140738874,3.7692887067-2.6382005516,9.4226186807-1.5075270183,12.8143754306,3.7688363921,8.2912289824,12.4372204025,19.5978889303,21.1055667201,33.9199798435,21.1055667201ZM184.0458908387,218.7185787905c0,6.7839281215-5.2770041894,11.3065468692-11.3066599478,11.3065468692-6.0308619308,0-11.3066599478-4.5226187477-11.3066599478-11.3065468692,0-6.7838904286,5.2757980171-11.3065091763,11.3066599478-11.3065091763,6.0296557584,0,11.3066599478,4.8995099255,11.3066599478,11.3065091763Z"/><path class="cls-2" d="M237.1862276556,194.9748869046v11.3065468692c5.6533299739-7.9146016549,14.3220909132-13.567856243,27.1352601714-13.567856243,16.2061321804,0,35.0501633693,13.567856243,35.0501633693,42.5879115393,0,30.5276577003-18.0901734476,45.2261120909-36.9342046365,45.2261120909-9.7989444651,0-18.8440311889-3.7688363921-25.6287508611-13.1909273723v39.9497486806h-20.3517466716v-112.3115355647h20.7292786285ZM237.1862276556,236.4321626034c0,16.9598014573,9.7989444651,26.0050012598,20.7280724561,26.0050012598,10.5528022065,0,21.105604413-8.2914551398,21.105604413-26.0050012598,0-17.3366926351-10.5528022065-25.6281477749-21.105604413-25.6281477749s-20.7280724561,7.914563962-20.7280724561,25.6281477749Z"/><path class="cls-2" d="M335.1756723071,194.9748869046v11.3065468692c5.6533299739-7.9146016549,14.3220909132-13.567856243,27.1364663438-13.567856243,16.2061321804,0,35.0501633693,13.567856243,35.0501633693,42.5879115393,0,30.5276577003-18.0901734476,45.2261120909-36.9354108089,45.2261120909-9.7989444651,0-18.8440311889-3.7688363921-25.6275446887-13.1909273723v39.9497486806h-20.3517466716v-112.3115355647h20.7280724561ZM335.1756723071,236.4321626034c0,16.9598014573,9.7989444651,26.0050012598,20.7292786285,26.0050012598,10.5528022065,0,21.105604413-8.2914551398,21.105604413-26.0050012598,0-17.3366926351-10.5528022065-25.6281477749-21.105604413-25.6281477749-10.9303341634,0-20.7292786285,7.914563962-20.7292786285,25.6281477749Z"/><path class="cls-2" d="M440.703694372,192.7135775308c16.9599899218,0,29.0205076109,7.914563962,34.296305628,27.5125659709l-18.4677054045,3.0150540365c-.3763257845-9.798982158-6.4059815429-13.1909273723-15.4522744391-13.1909273723-6.7835134998,0-12.0593115168,3.0150540365-12.0593115168,7.914563962,0,3.7688363921,2.6378990085,7.5376727842,10.5528022065,9.0451998025l13.9445589564,2.6382005516c13.5670269995,2.6382005516,21.105604413,11.6834003541,21.105604413,23.7437295788,0,18.0904372978-16.2061321804,27.1356371003-31.6584066195,27.1356371003-16.2061321804,0-34.296305628-8.2914551398-36.9354108089-28.6431641185l18.4677054045-3.0150917294c1.1313896982,10.5527645136,7.5373712411,14.3216009057,18.0901734476,14.3216009057,7.914903198,0,13.1919073874-3.0150540365,13.1919073874-7.914563962,0-4.5226187477-2.6391051809-7.914563962-11.3066599478-9.4220909802l-12.8143754305-2.2613093738c-13.5682331719-2.6382005516-21.8594621543-12.0602915319-21.8594621543-24.1205830637.3763257845-18.8442573463,17.3363157062-26.7588213082,30.9045488781-26.7588213082Z"/><rect class="cls-1" width="500" height="500"/></svg>