<?xml version="1.0" encoding="UTF-8"?><svg id="Layer_1" xmlns="http://www.w3.org/2000/svg" viewBox="0 0 500 500"><defs><style>.cls-1{fill:#1c3378;}.cls-1,.cls-2,.cls-3{stroke-width:0px;}.cls-2{fill:none;}.cls-3{fill:#fff;}</style></defs><path id="path8681" class="cls-1" d="M416.1483341354,70H83.8516658646v360h332.2966682708V70Z"/><path id="path8683" class="cls-3" d="M407.8322569073,303.7872942185H92.1674136387V78.3158713194h315.6648432686v225.4714228991Z"/><path id="path8685" class="cls-1" d="M329.8468771138,119.2425384108l-61.9340526946,147.8484836595h-40.4673258873l-30.4835526395-118.0177234799c-1.8370353626-7.2521673896-3.456795829-9.9113345551-9.0650908395-13.0056280577-9.2345949094-4.9556672776-24.4158340614-9.6454857885-37.7600378506-12.5705017207l.8946322682-4.2546304013h65.0763847048c8.291862361,0,15.7615723282,5.5116414507,17.6472021522,15.0362794031l16.1239717004,85.5519080476,39.7906274234-100.5881874506h40.1772416626"/><path id="path8687" class="cls-3" d="M180.136896134,361.563308299c1.4746359905.4108702881,3.4327456889.5315739881,5.874329095.5315739881,8.9927756921,0,14.4803258208-4.6172974547,14.4803258208-12.6672170531,0-7.6389669467-5.0767210224-11.7244021411-13.4166836637-11.7244021411-3.287621213,0-5.6567247448.3143402736-6.9379712522.6284746384v23.2315705677ZM168.219063328,329.55681348c4.3029983629-.8219053033,10.2740221995-1.4262886198,18.3965452175-1.4262886198,8.799221482,0,15.2296688862,1.9339360129,19.4358077805,5.608377374,3.9163841237,3.3602658144,6.4546622713,8.7510388382,6.4546622713,15.2055363825,0,6.5028449151-1.9581096983,11.8936179389-5.6809396119,15.5923153488-4.7864720707,4.9797791903-12.3046117722,7.3247090367-20.8139137565,7.3247090367-2.2239790559,0-4.3029983629-.1207037-5.874329095-.4109526516v25.9145613738h-11.917832806v-67.8082582443Z"/><path id="path8689" class="cls-3" d="M257.7597118284,368.4045848096l-5.1732510369-16.9218680452c-1.2812465074-4.182129936-2.3447239376-8.8719072651-3.3358862203-12.8605653545h-.1937189371c-.9669474156,3.9886992711-1.9581096983,8.7993038454-3.118446597,12.8605653545l-5.0765562954,16.9218680452h16.8978590868ZM238.9040724973,377.8807930277l-5.6809396119,19.4842375148h-12.4013065138l21.1039979812-68.7267759257h15.3504137679l21.418297073,68.7267759257h-12.9089950887l-5.9710238366-19.4842375148h-20.9104437711Z"/><path id="path8691" class="cls-3" d="M304.0048367962,397.3650305426v-28.67040269l-20.8139137565-40.0563732357h13.6583381541l7.9291335349,17.6228637398c2.248193923,5.1248624844,3.8920045295,8.9685608249,5.6809396119,13.6825118395h.168845162c1.6680254736-4.3996931045,3.5536552976-8.6784766002,5.7776343534-13.6825118395l7.9291335349-17.6228637398h13.5856935527l-21.9016060538,39.7663301927v28.9604457329h-12.0141980936Z"/><rect class="cls-2" width="500" height="500"/></svg>