<?xml version="1.0" encoding="UTF-8"?><svg id="Layer_1" xmlns="http://www.w3.org/2000/svg" viewBox="0 0 500 500"><defs><style>.cls-1{fill:none;}.cls-1,.cls-2{stroke-width:0px;}.cls-2{fill:#1a1f70;}</style></defs><path class="cls-2" d="M201.2767181392,186.8990557279l-53.015502836,126.5078279958h-34.6024468448l-26.069825769-100.9537573333c-1.6053478832-6.2243348055-2.9761670505-8.4838623438-7.78954114-11.1268839835-7.8828187144-4.2629735876-20.849893363-8.2621514426-32.2994015494-10.7522229856l.8017317439-3.6749636934h55.671087112c7.0999309249,0,13.4830064172,4.7407070903,15.0883543005,12.9008852587l13.7848237538,73.2172426836,34.0487486509-86.1181279423h34.3819725782ZM336.8120958219,272.078872515c.1532641626-33.3639671991-46.1720852406-35.1800925641-45.8386257639-50.1099613563.0896658164-4.5616895234,4.4090142344-9.3794605356,13.8684438015-10.5981736583,4.6974837699-.6229300973,17.6226306199-1.0829188762,32.2770243535,5.6440980425l5.7386122513-26.8160071056c-7.8871371206-2.8564097944-18.0151344871-5.6014047082-30.6078425747-5.6014047082-32.3436848422,0-55.112599413,17.2060025653-55.3054358799,41.8223509462-.2115233883,18.2041236466,16.2455301345,28.3588951317,28.6586710398,34.4213878495,12.7469144479,6.2077089416,17.0083962224,10.1636831052,16.9630922154,15.7229637236-.0833844983,8.4921850903-10.170239231,12.2014997423-19.5775338576,12.3721553044-16.4570535228.2554926153-26.0033223132-4.4508242582-33.625152259-7.9983164516l-5.9251674,27.7370838942c7.6354918127,3.5042296147,21.7727760305,6.5479993517,36.4038503705,6.7275272758,34.3748275788,0,56.8591984379-17.019192238,56.970063703-43.323703756M422.2303278906,313.4068837237h30.2696721094l-26.4152982666-126.5078279958h-27.9499813208c-6.2755079192,0-11.570502077,3.666660576-13.9322776971,9.276918017l-49.0787652092,117.2309099788h34.3533140642l6.8213544654-18.8946760594h41.9844874706l3.9474943841,18.8946760594h0ZM385.7115293982,268.5835152621l17.2323252141-47.5013299334,9.9161599123,47.5013299334h-27.1484851264ZM248.0426234933,186.8990557279l-27.0760929348,126.5078279958h-32.7314777208l27.0818246376-126.5078279958h32.725746018Z"/><rect class="cls-1" width="500" height="500"/></svg>