<?xml version="1.0" encoding="UTF-8"?><svg id="Layer_1" xmlns="http://www.w3.org/2000/svg" viewBox="0 0 500 500"><defs><style>.cls-1{fill:none;}.cls-1,.cls-2,.cls-3{stroke-width:0px;}.cls-2{fill:#2ea836;}.cls-3{fill:#656b6d;}</style></defs><path class="cls-2" d="M206.5176683861,213.8794080939c-1.1145667462.5570198822-2.3859984419.8878766933-3.7271674107.8878766933-3.0824928704,0-5.7820455506-1.7064552649-7.1926004713-4.2319721683l-.5398051397-1.1843040194-22.5706353382-49.4948658787c-.2438169651-.5398051397-.3829401902-1.1494353828-.3829401902-1.741872841,0-2.2811290412,1.8460176416-4.1272125555,4.1271466828-4.1272125555.9232723118,0,1.7768073504.2959662169,2.4734774395.8185785717l26.6108300053,18.9478981766c1.9503600604,1.2713438654,4.2669725504,2.0200973336,6.7747038142,2.0200973336,1.4802921939,0,2.9085888391-.2782464501,4.2320160835-.7659462531l125.2008898968-55.7125058956c-22.4315121131-26.4546457408-59.4045631364-43.7482159466-101.2196996379-43.7482159466-68.4433569099,0-123.9296338618,46.2382933164-123.9296338618,103.2747973535,0,31.121663436,16.701637772,59.1258775347,42.8253608289,78.0566048839,2.0894832855,1.4979900032,3.4656087212,3.9531987363,3.4656087212,6.7397473473,0,.9055745025-.1918214164,1.7590656259-.4356383815,2.6297275767-2.0900102674,7.7849720568-5.4335348454,20.2546815756-5.5903997948,20.829399267-.2438169651.9748726241-.6617136222,2.0023995243-.6617136222,3.0298825094,0,2.2644851958,1.8461933022,4.127761495,4.1278493253,4.127761495.9055305874,0,1.6366301615-.3308568111,2.3858227813-.7664512774l27.1335960631-15.6736717201c2.037312076-1.167133192,4.1970596166-1.8986719177,6.5828823978-1.8986719177,1.2714316957,0,2.4905165213.191733586,3.6400397344.5398051397,12.6609161229,3.6400397344,26.3150174914,5.660137068,40.4562258082,5.660137068,68.4433569099,0,123.9296338617-46.238315274,123.9296338617-103.2742703716,0-17.2763774209-5.1203319283-33.5424426841-14.1239935743-47.8582357173l-142.6863254342,82.3932927499-.9055305873.5225903972Z"/><path class="cls-3" d="M107.2975137872,378.1449402271c-.4182479784,1.4802921939-.8185785717,2.9084570936-1.2192604863,4.3017533567-1.5322877427,5.4511887395-2.8734567115,10.2229660474-3.9358522483,15.0124411647-1.0276147305-5.747176914-2.7866803565-12.5046220705-4.667654465-19.4882302981l-8.9864469035-33.908212047h-4.6669518224l-9.874938409,34.1692437546c-2.2639142987,7.3671193149-4.2320160835,13.9500017127-5.2944116203,19.2792819696-1.0098730061-4.6498249103-2.4379939906-10.2750494265-3.936027909-16.1962182021l-9.595637995-37.2523075221h-5.1203319283l16.0743536347,60.8500306089h4.5633120462l10.3272645511-34.8659138437c2.4727747969-8.1330436104,4.0749754734-13.7582681266,5.068160719-18.7916041242.8707497811,5.3991053604,2.2988707656,11.0941549801,4.4059201148,18.7916041242l9.0735745798,34.8659138437h4.667654465l18.2339255146-60.8500306089h-5.1375466708l-9.9791051671,34.0822478238Z"/><path class="cls-3" d="M154.4414913939,399.2635208189c-2.490692182,1.1494353828-5.6423953436,2.1592205586-11.2853176691,2.1592205586-10.0312763765,0-15.8310636515-6.6876639682-15.9524451522-18.3560096578h31.504559711l.0699129338-.2787295169c.1911187738-.8534911234.1911187738-1.4975069364.1911187738-2.6646401284,0-1.619415419-.2260752407-7.279552487-3.1517031616-12.1732382775-2.9783261122-5.0156381883-7.6459805772-7.558325919-13.8979183336-7.558325919-11.7553855356,0-19.6451830779,9.4736855973-19.6451830779,23.563337517,0,13.07881278,8.1857857169,21.8563991853,20.3588922489,21.8563991853,7.7501473354,0,12.1218136258-1.9680139545,13.636886626-2.8037633535l.2610317076-.139650207-2.0898346067-3.6046002008ZM141.3798933564,364.6930242526c3.5351703337,0,6.4088027059,1.0801372612,8.4988129732,3.2221869925,3.4304765937,3.4654769757,3.8833297177,8.6207214558,3.9010714421,11.0238028947h-26.3499739583c.9404870543-6.6699222438,5.1203319283-14.2459898872,13.950089543-14.2459898872"/><path class="cls-3" d="M196.0528615557,401.4263863357c-15.6919404264,0-25.0613275201-9.9098070456-25.0613275201-26.489009353,0-17.1894034477,9.6309457832-27.4644528742,25.7752123517-27.4644528742,4.4758330486,0,8.690458729.8529641415,11.9298165488,2.3681688872l2.2639142987-3.9359839938-.1916457557-.1042106733c-1.166562295-.6268449856-5.6081415192-2.7167674227-14.0892127681-2.7167674227-18.4607033979,0-30.8778025557,12.7656976933-30.8778025557,31.7656792489,0,22.8495405157,15.5345484951,30.9653693836,28.8229244159,30.9653693836,7.558325919,0,13.4273234852-1.5850298491,16.4051226155-3.065322043l.2266022226-.1219523977-2.176962283-3.761948217c-3.483174785,1.6022006765-8.3075185388,2.5604294551-13.0266415706,2.5604294551"/><path class="cls-3" d="M238.5151318465,360.3933349084c-3.1866596285,0-6.252113417.8884036752-8.8297576147,2.5427316459-2.1420058161,1.2192604863-4.0749754734,3.1523179739-5.4333591847,5.3985783785v-25.2525780394h-5.0156381883v61.8431719393h5.0156381883v-26.5067510775c0-1.7241530742.0869520157-2.8563737145.5225903972-4.1621470648,1.9679261242-5.5210138429,7.1404292619-9.3871727333,12.5739641073-9.3871727333,9.9269339577,0,11.4072261516,8.9864908187,11.4072261516,14.3506836273v25.7053872483h5.0156381883v-26.1409817146c0-17.5025185344-12.7136143142-18.3909222096-15.256302045-18.3909222096"/><path class="cls-3" d="M318.2337937691,401.1736985084c-.8711011024.1917335861-2.1075763311.3485546204-3.7967290233.3485546204-4.0059408428,0-5.8691732269-2.6995526802-5.8691732269-8.4644274034v-27.464408959h12.2258047234v-4.2142304439h-12.2258047234v-9.6310775287h-5.0156381883v9.6310775287h-7.2273812776v4.2142304439h7.2273812776v26.6463573693c0,4.9629839121.905706248,8.394075318,2.7517238896,10.4839977551,1.6371571434,2.089922437,4.2667968898,3.1872744408,7.6103214678,3.1872744408,2.3859984419,0,4.4410522423-.3835110873,6.112990192-1.115049813l.2438169651-.1042106733-2.0373120761-3.5180873367Z"/><path class="cls-3" d="M354.5122826309,343.6187540567c-4.3194950811,0-8.7082004534.4006819146-13.0094268281,1.1666062101l-.2965151564.0521272942v60.0841063133h5.0161651702v-25.5834787657c1.9501843998.5048925879,4.1448884072.6096302431,6.9486078455.6096302431,7.7151908685,0,14.0719980256-2.4207792482,17.9381130007-6.8095724508,2.8736323721-3.1695327164,4.2841872929-7.1925565561,4.2841872929-12.295673742,0-4.9457691696-1.6543718859-9.1084432164-4.7546064806-12.0341150525-3.483174785-3.3961788541-9.0558328554-5.1896300499-16.1265248441-5.1896300499M370.3777757674,361.2953083679c0,9.1261410256-6.1479466589,14.3506836273-16.8585027214,14.3506836273-2.2639142987,0-5.1025902039-.087039846-7.2967672295-.7836660199v-26.2978027489c1.0446538124-.2089483285,3.7614212351-.644015813,8.0981310587-.644015813,10.2051804079,0,16.0571388922,4.8759879813,16.0571388922,13.3748009545"/><path class="cls-3" d="M444.6535928309,361.3739604184l-10.5189103068,27.9693454621c-.9754435212,2.5426877307-1.7940220928,4.9983795306-2.5254729882,7.1753418136-.1740796919.5225903972-.3481593839,1.0274829851-.5048486727,1.4974630212-.8707497811-2.786548611-1.9331453179-5.8690853965-2.8908471146-8.4117731273l-11.2510638447-28.0042580139-.0869520157-.2261191559h-5.3286654446l16.0741779741,40.1951941006c.4178966571,1.0446977276.5050243334,1.5324194881.5050243334,1.7413239015,0,.3835110873-.174079692.9055745025-.5050243334,1.7241530742-2.176962283,5.1724592226-5.0326772701,8.6556340075-7.0533015856,10.6757752563-2.7866803565,2.6823379377-5.7992602931,4.0578924764-7.3666801633,4.6503518922l-.2959881745.1042106733,2.2988707656,3.9880673729c1.1495232131-.4178527419,4.0054138609-1.671498798,7.1926004713-4.3710514782,5.5731850523-4.8593002207,9.1255701286-12.3478010362,14.5591049739-26.2628901972l13.044383295-32.4451345956h-5.3464071691Z"/><path class="cls-3" d="M292.7529886462,404.4911813968c-.5401564609-3.3607393205-.6095424128-6.8439580206-.6095424128-10.1010136497v-16.7709798087c0-11.2681907569-5.2594551534-17.2242720843-15.1693500293-17.2242720843-4.475657388,0-9.2474786111,1.3932962631-12.7828246055,3.7098648379l-.0177417244.0171708273,2.037839058,3.5353459944c2.803895099-1.898188851,6.4439348334-2.960628303,10.3100498086-2.960628303h.1568649495c3.169444886,0,5.660137068.8707058659,7.384246227,2.5776441976,2.0550538005,2.0550098853,3.0652781279,5.1896300499,3.0652781279,9.6305066316v.7841930019c-10.5016955643-.0698251035-17.9381130007,2.0722246278-22.2226516149,6.304152881-2.5948589401,2.5776441976-3.9182861846,5.851870654-3.9182861846,9.7701568386,0,5.8519145692,4.0579363915,12.1388527077,12.939689555,12.1388527077,6.4787156397,0,11.1983656534-3.3612663024,13.6363596441-6.7053617775l.5747616066,5.7299621715h4.6846935469l-.0693859519-.4355944663ZM287.1278080451,390.8199531162c0,.6444988797-.0697372732,1.5850298491-.4356383815,2.4733896091-1.3583837113,4.0230238398-5.3119776841,8.3070793872-12.312756739,8.3070793872-3.7791629595,0-8.2028247987-2.2290456621-8.2028247987-8.5509402675,0-2.699508765.9055305873-4.9285544271,2.6645962133-6.635536674,3.030321661-2.9605843878,8.6379361983-4.4408765817,16.6666813051-4.4408765817.5225903972,0,1.0623955368,0,1.6199424009.0172147425v8.8296697844Z"/><path class="cls-3" d="M407.7862895116,404.4911813968c-.5398051396-3.3607393205-.6095424128-6.8439580206-.6095424128-10.1010136497v-16.7709798087c0-11.2681907569-5.241713429-17.2242720843-15.1688230474-17.2242720843-4.2667968898,0-8.8123672115,1.2713438654-12.2779759327,3.4133935966l2.0373120761,3.5180873367c2.7172944046-1.6892405225,6.1479466589-2.6297275767,9.7879863933-2.6297275767h.1566892888c3.1696205467,0,5.6603127286.8707058659,7.3844218877,2.5776441976,2.0550538005,2.0550098853,3.064751146,5.1896300499,3.064751146,9.6305066316v.7841930019c-10.4491730336-.0698251035-17.9381130007,2.0722246278-22.222124633,6.304152881-2.5948589401,2.5776441976-3.9188131665,5.851870654-3.9188131665,9.7701568386,0,5.8519145692,4.0579363915,12.1388527077,12.9574312794,12.1388527077,6.4609739153,0,11.180623929-3.3612663024,13.6191449016-6.7053617775l.5747616066,5.7299621715h4.6846935468l-.0699129338-.4355944663ZM402.1611089105,390.8199531162c0,.6444988797-.0692102913,1.5850298491-.4178966571,2.4733896091-1.3755984538,4.0230238398-5.3291924266,8.3070793872-12.3299714815,8.3070793872-3.7791629595,0-8.2030004594-2.2290456621-8.2030004594-8.5509402675,0-2.699508765.905706248-4.9285544271,2.6647718739-6.635536674,3.030321661-2.9605843878,8.6379361983-4.4408765817,16.6489395806-4.4408765817.5398051397,0,1.0801372612,0,1.6371571434.0172147425"/><rect class="cls-1" width="500" height="500"/></svg>