<?xml version="1.0" encoding="UTF-8"?>
<svg width="140px" height="80px" viewBox="0 0 140 80" version="1.1" xmlns="http://www.w3.org/2000/svg" xmlns:xlink="http://www.w3.org/1999/xlink">
    <title>im/logo-pay/wechat</title>
    <g id="im/logo-pay/wechat" stroke="none" stroke-width="1" fill="none" fill-rule="evenodd">
        <g id="Group-36" transform="translate(10.000000, 22.000000)">
            <path d="M114.66219,26.7204216 L114.707846,26.8373368 L116.472679,31.2338406 C116.586509,31.5333779 116.704041,31.8668483 116.811085,32.1929152 C116.911342,31.8952288 117.030725,31.5454087 117.164915,31.1943548 L117.164915,31.1943548 L118.848,26.7204216 L119.965018,26.7204216 L117.844504,31.9880823 C116.98692,34.1934293 116.420853,35.3807815 115.525326,36.1618612 C115.003681,36.6017584 114.535095,36.8053573 114.358026,36.8726067 L114.358026,36.8726067 L114.257769,36.9102416 L113.765121,36.0591362 L113.953913,35.990036 C114.188051,35.9021183 114.644915,35.693892 115.065686,35.287928 C115.372936,34.9812956 115.810057,34.448545 116.145069,33.6542005 C116.178386,33.5702931 116.214787,33.4758972 116.214787,33.4317841 C116.214787,33.4296247 116.213553,33.3824267 116.144144,33.2059743 L116.144144,33.2059743 L113.549491,26.7204216 L114.66219,26.7204216 Z M93.5141799,25.2102108 L93.5141799,26.785635 L95.432946,26.785635 L95.432946,27.6358149 L93.5141799,27.6358149 L93.5141799,31.8210077 C93.5141799,32.6634756 93.752329,33.0231671 94.3103753,33.0231671 C94.5293985,33.0231671 94.7203496,33.005892 94.8782931,32.9719589 L94.8782931,32.9719589 L94.9683702,32.9522159 L95.405491,33.7098509 L95.2386015,33.782653 C94.9597326,33.9041954 94.6194756,33.965892 94.2258509,33.965892 C93.6588586,33.965892 93.2109409,33.7771003 92.9317635,33.4192596 C92.6235887,33.0694396 92.4724319,32.5039897 92.4724319,31.695455 L92.4724319,31.695455 L92.4724319,27.6358149 L91.3381388,27.6358149 L91.3381388,26.785635 L92.4724319,26.785635 L92.4724319,25.2102108 L93.5141799,25.2102108 Z M87.9604319,26.566581 C89.6021799,26.566581 90.4699434,27.5453985 90.4699434,29.3981491 L90.4699434,29.3981491 L90.4699434,32.031054 C90.4699434,32.5388175 90.4813573,33.0805141 90.5652648,33.5987661 L90.5652648,33.5987661 L90.5998149,33.812545 L89.5994036,33.812545 L89.528144,33.0999486 C89.1807918,33.4661183 88.5190951,33.9661697 87.4844422,33.9661697 C86.000946,33.9661697 85.3250591,32.9123907 85.3250591,31.9329563 C85.3250591,31.283599 85.5443907,30.7369666 85.9765758,30.3084833 C86.6598663,29.6322879 87.8206889,29.2874036 89.4288123,29.2821594 C89.4285039,28.624473 89.2832082,28.1602057 88.9839794,27.8646787 C88.7371928,27.6194344 88.3775013,27.4954242 87.9141594,27.4954242 L87.9141594,27.4954242 L87.8904062,27.4954242 C87.3138509,27.4954242 86.7641337,27.6533676 86.3433625,27.9399486 L86.3433625,27.9399486 L86.2301491,28.0164524 L85.7779126,27.2344473 L85.8852648,27.1696658 C86.4581183,26.7920823 87.2348792,26.566581 87.9604319,26.566581 Z M109.831959,26.5665501 C111.473398,26.5665501 112.340545,27.5453676 112.340545,29.3984267 L112.340545,29.3984267 L112.340545,32.0310231 C112.340545,32.5381697 112.351959,33.0783239 112.436792,33.5981183 L112.436792,33.5981183 L112.471342,33.8125141 L111.470931,33.8125141 L111.399362,33.0999177 C111.052319,33.4667044 110.390622,33.9661388 109.354735,33.9661388 C107.871856,33.9661388 107.195969,32.9123599 107.195969,31.9329254 C107.195969,31.2835681 107.415301,30.7369357 107.848103,30.3084524 C108.531393,29.6325656 109.692216,29.2876812 111.299414,29.2821285 C111.298797,28.6244422 111.15381,28.1595578 110.855506,27.8640308 C110.608103,27.6194036 110.247794,27.4953933 109.786303,27.4953933 L109.786303,27.4953933 L109.761316,27.4953933 C109.223321,27.4953933 108.701368,27.6357532 108.290776,27.8908689 L108.290776,27.8908689 L108.179722,27.9602776 L107.732422,27.1872185 L107.837306,27.1215116 C108.402139,26.7735424 109.147743,26.5665501 109.831959,26.5665501 Z M78.9806684,23.8489357 L78.9806684,27.5442571 C79.1734704,27.3141285 79.3995887,27.1225604 79.6426735,26.9828175 C80.0656041,26.7110437 80.5684319,26.566365 81.0937789,26.566365 C81.5145501,26.566365 83.6171722,26.7113522 83.6171722,29.5802468 L83.6171722,29.5802468 L83.6171722,33.812329 L82.5757326,33.812329 L82.5757326,29.650581 C82.5757326,28.855928 82.3601028,27.5235887 80.9114653,27.5235887 C80.1097172,27.5235887 79.3459126,28.0955167 79.0547044,28.9129974 C78.9920823,29.1017892 78.9806684,29.2674447 78.9806684,29.5241028 L78.9806684,29.5241028 L78.9806684,33.812329 L77.9395373,33.812329 L77.9395373,23.8489357 L78.9806684,23.8489357 Z M64.8487095,26.4263445 C65.8778098,26.4263445 66.649635,26.8455733 67.1416658,27.6741594 C67.6151877,28.4706632 67.6518972,29.3874756 67.6518972,29.6493779 L67.6514007,29.7805074 C67.6499113,29.8992108 67.6439537,29.9865501 67.6201234,30.0957532 L67.6201234,30.0957532 L67.5877326,30.2404319 L62.6689666,30.2404319 C62.7272699,31.9121028 63.5904062,32.8687095 65.0449049,32.8687095 C65.9321028,32.8687095 66.4105604,32.7021285 66.7619229,32.5392494 L66.7619229,32.5392494 L66.8683496,32.491126 L67.3178098,33.2703548 L67.165419,33.3545707 C66.9189409,33.4918458 66.2091208,33.8123599 64.9609974,33.8123599 C62.9740566,33.8123599 61.6392494,32.3816144 61.6392494,30.2521542 C61.6392494,27.9638252 62.929018,26.4263445 64.8487095,26.4263445 Z M51.0472596,24.0035476 L51.0719383,24.097635 L52.6029409,30.0464267 C52.7741491,30.7207712 52.9364113,31.3624165 53.0718355,31.9383548 C53.247671,31.2097172 53.4984679,30.3774293 53.7807301,29.4556812 L53.7807301,29.4556812 L55.3595476,24.0035476 L56.2849974,24.0035476 L56.3102931,24.097635 L57.7216041,29.4208226 C57.9341491,30.2114653 58.1713728,31.1076093 58.3422725,31.9090488 C58.4764627,31.3658098 58.6319383,30.8148586 58.8080823,30.1920308 L58.8080823,30.1920308 L59.0181594,29.4451928 L60.6117841,24.0035476 L61.6856144,24.0035476 L61.6356401,24.1670437 L58.7448432,33.8123907 L57.8209357,33.8123907 L57.7956401,33.7173779 L56.3698303,28.2402571 C56.1258201,27.3447301 55.9305501,26.5892545 55.7904987,25.9010283 C55.6334807,26.5528535 55.4163085,27.2984576 55.1291105,28.2470437 L55.1291105,28.2470437 L53.4787249,33.8123907 L52.5686992,33.8123907 L52.5440206,33.7170694 L49.9786735,24.0035476 L51.0472596,24.0035476 Z M103.34727,23.9337995 C104.492668,23.9337995 105.399301,24.2280925 105.969069,24.783671 C106.482077,25.2642879 106.752925,25.9494293 106.752925,26.7644422 C106.752925,27.5998149 106.521871,28.2587352 106.047116,28.780072 C105.419969,29.4957532 104.386242,29.8903033 103.137501,29.8903033 C102.764853,29.8903033 102.454211,29.8788895 102.173491,29.8267558 L102.173491,29.8267558 L102.173491,33.8120514 L101.13236,33.8120514 L101.13236,24.1451105 L101.284442,24.1182725 C101.96218,23.9954961 102.656576,23.9337995 103.34727,23.9337995 Z M73.897635,24.0049666 C75.2185604,24.0049666 75.9203599,24.3338098 76.1048329,24.4346838 L76.1048329,24.4346838 L76.2436504,24.5114961 L75.7781491,25.3184884 L75.6751157,25.2700566 C75.1966581,25.0448638 74.5701285,24.9208535 73.9112082,24.9208535 C71.5294087,24.9208535 70.1076093,26.4398252 70.1076093,28.9829614 C70.1076093,31.4326272 71.4883805,32.8957635 73.8020051,32.8957635 C74.497018,32.8957635 75.2197943,32.7532442 75.734653,32.5160206 L75.734653,32.5160206 L75.7352699,32.5160206 L75.8373779,32.4691311 L76.2905398,33.2536041 L76.139383,33.330108 C75.6735733,33.5620874 74.7586118,33.8110334 73.5851414,33.8110334 C71.5019537,33.8110334 69.0692545,32.5425501 69.0692545,28.9690797 C69.0692545,25.999928 71.0099229,24.0049666 73.897635,24.0049666 Z M89.3001748,30.2085347 C88.0751877,30.2085347 87.2240823,30.4312596 86.7712288,30.8705398 C86.5207404,31.1139332 86.3939537,31.4335219 86.3939537,31.8212853 C86.3939537,32.7186632 87.0192494,33.0373265 87.5544679,33.0373265 C88.585419,33.0373265 89.167527,32.4070951 89.3683496,31.8175835 C89.4183239,31.6911054 89.4288123,31.559383 89.4288123,31.4708483 L89.4288123,31.4708483 L89.4269614,30.2097686 Z M111.170776,30.2085039 C109.946098,30.2085039 109.095918,30.4312288 108.642139,30.870509 C108.39165,31.1139023 108.265172,31.434108 108.265172,31.8212545 C108.265172,32.7186324 108.890159,33.0372956 109.425995,33.0372956 C110.456021,33.0372956 111.038129,32.4064473 111.239877,31.8178612 C111.288925,31.692 111.299414,31.5596607 111.299414,31.4708175 L111.299414,31.4708175 L111.298488,30.2094293 Z M64.7641851,27.3551877 C63.9433111,27.3551877 62.983928,27.8777584 62.7241851,29.3393522 L62.7241851,29.3393522 L66.5796093,29.3393522 C66.5620257,28.9438766 66.4596093,28.2800206 66.0095321,27.8228483 C65.7044422,27.5122057 65.2858303,27.3551877 64.7641851,27.3551877 Z M103.319506,24.8626427 C102.760226,24.8626427 102.37709,24.9092237 102.173491,24.9431568 L102.173491,24.9431568 L102.173491,28.8686067 C102.491537,28.9506632 102.883003,28.9614602 103.193337,28.9614602 C104.793748,28.9614602 105.711794,28.1862416 105.711794,26.8350848 C105.711794,25.5814087 104.840021,24.8626427 103.319506,24.8626427 Z M71.7129871,2.46342416 L72.6705193,3.01591774 L72.6591054,3.05324422 C72.2565347,4.35967095 71.7740668,5.62383548 71.2240411,6.81118766 L71.2240411,6.81118766 L71.2240411,18.9450694 L70.1878458,18.9450694 L70.1878458,8.928 C69.6785398,9.85098201 69.1349923,10.7443496 68.6105707,11.5208021 L68.6105707,11.5208021 L68.567383,11.5846581 L67.9942211,10.6002879 L68.0118046,10.5756093 C69.5961748,8.26661183 70.8353522,5.55782005 71.6960206,2.52357841 L71.6960206,2.52357841 L71.7129871,2.46342416 Z M53.2089871,6.99171208 L54.1372134,7.52631362 L54.1109923,7.58801028 C53.7543856,8.42893573 53.3749512,9.21001542 52.9822519,9.91027249 L52.9822519,9.91027249 L52.9822519,18.9451311 L52.0136144,18.9451311 L52.0136144,11.4819949 C51.5610694,12.0893985 51.0869306,12.6832288 50.6023033,13.2492956 L50.6023033,13.2492956 L50.5338201,13.3307352 L50.4786015,13.2388072 L49.9782416,12.3710437 L50.0140257,12.3300154 C51.3081131,10.8505296 52.371455,9.08199486 53.175054,7.07284319 L53.175054,7.07284319 L53.2089871,6.99171208 Z M107.601717,2.46323907 L108.559558,3.01573265 L108.548144,3.05305913 C108.144031,4.36318766 107.661563,5.62735219 107.112771,6.81100257 L107.112771,6.81100257 L107.112771,18.9451928 L106.076576,18.9451928 L106.076576,8.92843188 C105.56727,9.85141388 105.024031,10.744473 104.498992,11.520617 L104.498992,11.520617 L104.455188,11.5847815 L103.882643,10.6004113 L103.900535,10.5754242 C105.484288,8.26673522 106.723774,5.55763496 107.584442,2.52339332 L107.584442,2.52339332 L107.601717,2.46323907 Z M63.014838,2.53372751 L63.9797738,2.53526992 L63.9729871,2.58987147 C63.8567232,3.49420737 63.5288931,4.55624298 63.2464527,5.41805981 L63.1431671,5.73115681 L66.9902622,5.73115681 L66.9902622,6.69979434 L66.0336555,6.69979434 C65.804144,10.08509 65.1908792,12.7136761 64.2120617,14.5146015 C64.70554,15.4528653 65.5557054,16.5370107 66.6266847,17.5988947 L66.8989512,17.8638046 L66.9421388,17.9048329 L66.3637326,18.9058612 L66.2937069,18.8346015 C65.1908792,17.7141902 64.2324216,16.5 63.6509306,15.4878663 C63.1711289,16.35065 62.3239976,17.3687708 61.1283078,18.5187647 L60.8462005,18.7864781 L60.7761748,18.8512596 L60.2060977,17.8650386 L60.2517532,17.8233933 C61.5409049,16.67491 62.5172545,15.5375321 63.1548895,14.4427249 C62.507383,13.0900257 62.0397224,11.2551671 61.7660977,8.98658098 C61.7057121,9.09971722 61.6345681,9.22829692 61.5542275,9.37127892 L61.4708792,9.51902314 L61.0285141,10.4043702 L60.4183342,9.34812339 L60.4337584,9.32375321 C61.4734293,7.62475064 62.2857604,5.532606 62.8499346,3.09923661 L62.9670231,2.5725964 L62.9756607,2.53341902 L63.014838,2.53372751 Z M94.6078149,2.39531105 L94.6078149,4.75150643 L102.03054,4.75150643 L102.03054,5.77752185 L94.6078149,5.77752185 L94.6078149,8.77412853 L98.5662725,8.77412853 L98.5776864,8.7802982 L99.386838,9.2473419 L99.3707969,9.28713625 C98.4256041,11.6834344 96.8288946,13.7672391 94.7518766,15.3161337 C96.0934704,16.2169049 97.4696144,16.8286272 98.3935219,17.1852339 C99.8469188,17.7463797 100.846754,18.019328 100.947475,18.0464489 L100.955784,18.0486787 L101.015321,18.0647198 L100.584987,18.883126 L100.518972,18.8686272 C96.9914653,18.0280103 94.9530077,16.6136144 94.1851928,16.0808638 C94.1096144,16.0287301 94.0476093,15.9855424 93.9997943,15.9540771 C90.6991736,18.0839661 87.3459951,18.8502893 87.1520192,18.8927059 L87.1434447,18.8945398 L87.1092031,18.9019434 L87.0913111,18.8710951 L86.5088946,17.8620463 L86.576144,17.848473 C89.0295116,17.3718663 91.125964,16.5682674 93.1693573,15.320144 C92.3987661,14.682509 91.7123907,13.9902725 91.0152185,13.1474961 C89.5986853,11.4346867 88.8550839,9.82743529 88.7965848,9.70015663 L88.7929049,9.69217481 L88.7895116,9.67212339 L88.7888946,8.77412853 L93.5602057,8.77412853 L93.5602057,5.77752185 L86.2028792,5.77752185 L86.2028792,4.75150643 L93.5602057,4.75150643 L93.5602057,2.39531105 L94.6078149,2.39531105 Z M117.441625,2.56044216 L117.441625,6.58460668 L119.965018,6.58460668 L119.965018,7.61925964 L117.441625,7.61925964 L117.442175,16.5256161 C117.424948,17.1959352 117.237933,17.7148072 116.884504,18.0685141 C116.455712,18.4979229 115.918951,18.6728329 115.032062,18.6728329 C114.913604,18.6732442 114.754427,18.6746153 114.550782,18.6754836 L114.162756,18.6762262 L114.162756,17.6391054 L114.211805,17.6397224 C114.384864,17.6412648 114.563167,17.6428072 114.755044,17.6428072 C115.863424,17.6428072 116.402036,17.20291 116.402036,16.298437 L116.402036,16.298437 L116.402036,7.61925964 L108.653553,7.61925964 L108.653553,6.58460668 L116.402036,6.58460668 L116.402036,2.56044216 L117.441625,2.56044216 Z M59.5803085,12.2627352 L59.5803085,15.4873111 L60.880874,14.3718355 L61.3670437,15.2136864 L61.3207712,15.2553316 C60.2120823,16.2313728 59.4115681,16.9177481 58.9408226,17.2947147 L58.9408226,17.2947147 L58.8717224,17.3505501 L58.2926992,16.3482879 L58.3201542,16.3078766 C58.5462725,15.9932237 58.5789717,15.7899332 58.6119794,15.1236093 L58.6119794,15.1236093 L58.6119794,13.2313728 L56.0426221,13.2313728 L56.0426221,13.9708072 C56.1339332,15.8423753 55.5308483,17.3261799 54.2497172,18.3811928 L54.2497172,18.3811928 L54.180617,18.4382622 L54.1352699,18.3611414 L53.6284319,17.4816555 L53.6842674,17.4415527 C54.687455,16.7095219 55.1322879,15.4293162 55.0064267,13.6367198 L55.0064267,13.6367198 L55.0064267,12.2627352 L59.5803085,12.2627352 Z M83.3580463,13.043599 L83.3580463,18.3982519 L74.0396915,18.3982519 L74.0396915,13.043599 L83.3580463,13.043599 Z M82.3224679,14.0122365 L75.0765039,14.0122365 L75.0765039,17.4302314 L82.3224679,17.4302314 L82.3224679,14.0122365 Z M98.1464267,9.68662211 L89.8577892,9.68662211 C90.7712082,11.5541799 92.2331105,13.3150026 93.9834447,14.655671 C96.9124936,12.5555167 97.9773779,10.113563 98.1464267,9.68662211 Z M111.612216,9.94944987 L111.635661,9.99603085 C112.413039,11.5520206 113.102499,12.9429717 113.630314,14.0189614 L113.630314,14.0189614 L113.650365,14.0590643 L112.631445,14.6535116 L112.609234,14.6038458 C111.912062,13.0219434 111.268874,11.6538201 110.697871,10.5371105 L110.697871,10.5371105 L110.676895,10.4954653 L111.612216,9.94944987 Z M65.0647095,6.69979434 L62.812473,6.69979434 C62.6893882,6.94966581 62.5854293,7.20169666 62.5024473,7.44817481 C62.7621902,9.86575835 63.1727815,11.8317224 63.7224987,13.2957841 C64.4350951,11.6663753 64.8864062,9.44899743 65.0647095,6.69979434 Z M83.6039075,10.25491 L83.6039075,11.2914139 L73.7932134,11.2914139 L73.7932134,10.25491 L83.6039075,10.25491 Z M60.1924936,9.67742931 L60.1924936,10.6460668 L54.8026735,10.6460668 L54.8026735,9.67742931 L60.1924936,9.67742931 Z M83.6039075,7.5340874 L83.6039075,8.50210797 L73.7932134,8.50210797 L73.7932134,7.5340874 L83.6039075,7.5340874 Z M58.0837326,2.73923907 L58.0837326,7.09348072 L59.6323188,7.09348072 L59.6323188,4.03178406 L60.6003393,4.03178406 L60.6003393,8.06150129 L54.5306221,8.06150129 L54.5306221,4.03178406 L55.4986427,4.03178406 L55.4986427,7.09348072 L57.1150951,7.09348072 L57.1150951,2.73923907 L58.0837326,2.73923907 Z M53.3307455,2.54008226 L54.2281234,3.05895116 L54.2083805,3.09967095 C53.3541902,4.85339846 52.1881234,6.4957635 50.8360411,7.84938817 L50.8360411,7.84938817 L50.7913111,7.89473522 L50.2144473,6.89463239 L50.2428278,6.86841131 C51.4144473,5.76959383 52.4743959,4.28918252 53.3079177,2.58728021 L53.3079177,2.58728021 L53.3307455,2.54008226 Z M78.600401,2.40169666 L78.6337172,2.48128535 C78.7237943,2.68210797 78.9141285,3.08313625 79.0856452,3.44251928 C79.2963393,3.88457584 79.4632288,4.23501285 79.5307866,4.3911054 L79.5307866,4.3911054 L79.5576247,4.45465296 L79.0517121,4.74493573 L84.6244627,4.74493573 L84.6244627,5.78143959 L72.841018,5.78143959 L72.841018,4.74493573 L78.5353111,4.74493573 C78.5254396,4.71809769 78.5115578,4.68632391 78.4942828,4.65053985 C78.2536658,4.13012853 77.9877532,3.59645244 77.6805039,3.01804627 L77.6805039,3.01804627 L77.6459537,2.9529563 L78.600401,2.40169666 Z" id="Combined-Shape" fill="#030100"></path>
            <path d="M15.1706838,23.2800308 C14.982509,23.3750437 14.770581,23.4299537 14.5450797,23.4299537 C14.0237429,23.4299537 13.570581,23.1430643 13.3321234,22.7185913 L13.2411208,22.5190026 L9.444,14.1868689 C9.40297172,14.0961748 9.37767609,13.9937584 9.37767609,13.8941183 C9.37767609,13.5100566 9.68893573,13.1987969 10.0729974,13.1987969 C10.2287815,13.1987969 10.3728432,13.2506221 10.4888329,13.3369974 L14.9695527,16.5270231 C15.2968535,16.7411105 15.6880103,16.8669717 16.108473,16.8669717 C16.3595784,16.8669717 16.598653,16.8200823 16.8216864,16.7389512 L37.8932545,7.36075064 C34.1161851,2.90902828 27.8956195,3.0848329e-05 20.8563393,3.0848329e-05 C9.33726478,3.0848329e-05 9.25449871e-05,7.78121337 9.25449871e-05,17.3809049 C9.25449871e-05,22.6177172 2.80914139,27.3319589 7.20626221,30.5182828 C7.5591671,30.7703136 7.7899126,31.1839897 7.7899126,31.6510334 C7.7899126,31.8052751 7.75721337,31.9465604 7.71680206,32.0937069 C7.36543959,33.4038355 6.80338303,35.5018303 6.77716195,35.599928 C6.73335733,35.7643496 6.66487404,35.9358663 6.66487404,36.108 C6.66487404,36.4920617 6.97613368,36.8030129 7.36081234,36.8030129 C7.5110437,36.8030129 7.6347455,36.7471774 7.76184062,36.6737584 L12.3280103,34.0374602 C12.6713522,33.8394139 13.035054,33.7166375 13.4357738,33.7166375 C13.6489357,33.7166375 13.8546941,33.7496452 14.0484216,33.808874 C16.1784987,34.4215219 18.4766992,34.7617789 20.8563393,34.7617789 C32.3747969,34.7617789 41.7135116,26.9799794 41.7135116,17.3809049 C41.7135116,14.4734499 40.8519177,11.7353522 39.3375733,9.32640617 L15.3227661,23.1921131 L15.1706838,23.2800308 Z" id="Fill-35" fill="#22AB39"></path>
        </g>
    </g>
</svg>