<svg width="31" height="24" viewBox="0 0 31 24" fill="none" xmlns="http://www.w3.org/2000/svg">
<path id="Vector" d="M4.20339 24L2.10169 21.3729C2.83729 20.8475 3.57288 20.2169 4.30847 19.4814C5.46441 18.2203 6.51525 16.4339 6.83051 14.0169C3.15254 14.0169 1.14835e-06 10.8644 1.46989e-06 7.18643C1.79143e-06 3.50847 3.15254 0.355926 6.83051 0.355926C10.5085 0.355927 13.661 3.50847 13.661 7.71186C13.661 13.7017 11.3492 17.9051 8.9322 20.4271C7.5661 21.8983 5.98983 23.0542 4.20339 24ZM21.5424 24L19.4407 21.3729C20.1763 20.8475 20.9119 20.2169 21.6475 19.4814C22.8034 18.2203 23.8542 16.4339 24.1695 14.0169C20.4915 14.0169 17.339 10.8644 17.339 7.18644C17.339 3.50847 20.4915 0.355928 24.1695 0.355928C27.8475 0.355928 31 3.50847 31 7.71186C31 13.7017 28.6881 17.9051 26.2712 20.4271C24.9051 21.8983 23.3288 23.0542 21.5424 24Z" fill="#E00083"/>
</svg>
