<svg width="31" height="24" viewBox="0 0 31 24" fill="none" xmlns="http://www.w3.org/2000/svg">
<path id="Vector" d="M26.7966 0L28.8983 2.62712C28.1627 3.15255 27.4271 3.78305 26.6915 4.51864C25.5356 5.77966 24.4847 7.56611 24.1695 9.98306C27.8475 9.98306 31 13.1356 31 16.8136C31 20.4915 27.8475 23.6441 24.1695 23.6441C20.4915 23.6441 17.339 20.4915 17.339 16.2881C17.339 10.2983 19.6508 6.09492 22.0678 3.57288C23.4339 2.10169 25.0102 0.945766 26.7966 0ZM9.45763 0L11.5593 2.62712C10.8237 3.15255 10.0881 3.78305 9.35254 4.51864C8.19661 5.77966 7.14576 7.56611 6.83051 9.98306C10.5085 9.98306 13.661 13.1356 13.661 16.8136C13.661 20.4915 10.5085 23.6441 6.83051 23.6441C3.15254 23.6441 0 20.4915 0 16.2881C0 10.2983 2.31186 6.09492 4.72881 3.57288C6.09492 2.10169 7.67119 0.945766 9.45763 0Z" fill="#E00083"/>
</svg>
