<svg width="98" height="36" viewBox="0 0 98 36" fill="none" xmlns="http://www.w3.org/2000/svg">
<g id="Group">
<g id="Group_2">
<path id="Vector" fill-rule="evenodd" clip-rule="evenodd" d="M56.2152 29.3688V23.0241C56.2152 21.6015 54.9132 20.4994 53.5383 20.4994C52.1635 20.4994 50.852 21.6015 50.852 23.0241V29.3688H48.7778V23.0241C48.7778 20.4911 51.0375 18.4086 53.5383 18.4086C56.0308 18.4086 58.2905 20.4911 58.2905 23.0241V29.3688H56.2152ZM69.6202 29.3688V6.59619H71.6944V10.118H73.1659V12.2732H71.6944V29.3688H69.6202ZM73.4319 29.3688V6.59619H75.5061V10.118H76.9698V12.2732H75.5061V29.3688H73.4319ZM95.2642 29.3688V23.0241C95.2642 21.6015 93.9532 20.4994 92.5778 20.4994C91.2025 20.4994 89.8926 21.6015 89.8926 23.0241V29.3688H87.8174V23.0241C87.8174 20.4911 90.0776 18.4086 92.5778 18.4086C95.0703 18.4086 97.3384 20.4911 97.3384 23.0241V29.3688H95.2642Z" fill="#202020"/>
<path id="Vector_2" fill-rule="evenodd" clip-rule="evenodd" d="M20.1031 17.8779L13.4694 21.7941L12.2874 21.102C15.2471 19.3738 17.7316 17.3635 17.7316 13.584C17.7316 9.39499 14.2737 6.08984 10.1165 6.08984C5.95923 6.08984 2.50139 9.39499 2.50139 13.584C2.50139 17.3635 4.98604 19.3737 7.94506 21.103L6.76313 21.7951L0.128906 17.8789V20.363L4.71218 22.9449L0.128906 25.5824V28.0826L6.91573 24.1582L8.14615 24.8664L8.04177 24.922L7.56743 25.1475C5.95926 25.9118 5.27601 27.7127 5.14716 29.3691H7.12521C7.21351 27.7366 8.42782 26.4506 10.1165 26.4506C11.813 26.4506 13.0273 27.7361 13.1156 29.3691V29.3681H15.0858C14.957 27.7122 14.2738 25.9107 12.6735 25.1464L12.1907 24.9209L12.0941 24.8654L13.3162 24.1571L20.1031 28.0816V25.5813L15.528 22.9439L20.1031 20.3621V17.8779ZM10.1165 23.7316L8.87004 23.0244L10.1165 22.3006L11.3625 23.0244L10.1165 23.7316ZM10.1165 19.8804C9.80265 20.0336 6.87581 17.9662 6.5309 17.6607C5.30051 16.5997 4.57659 15.3048 4.57659 13.6484C4.57659 10.6327 7.10963 8.16409 10.1249 8.16409C13.1323 8.16409 15.6569 10.6327 15.6569 13.6484C15.6569 16.9535 12.7462 18.61 10.1165 19.8804Z" fill="#202020"/>
<path id="Vector_3" fill-rule="evenodd" clip-rule="evenodd" d="M32.5355 18.167C31.2085 18.167 29.9626 18.6258 29.0859 19.6141V6.59619H27.0112V23.8924C27.0112 27.0852 29.287 29.4406 32.5032 29.4406C35.68 29.4406 38.1804 27.012 38.1804 23.8357C38.1804 20.7327 35.6718 18.167 32.5355 18.167ZM32.5838 27.4224C30.6458 27.4224 29.0859 25.7582 29.0859 23.844C29.0859 21.9308 30.6462 20.2656 32.5838 20.2656C34.5297 20.2656 36.0735 21.9308 36.0735 23.844C36.0735 25.7582 34.5218 27.4224 32.5838 27.4224Z" fill="#202020"/>
<path id="Vector_4" fill-rule="evenodd" clip-rule="evenodd" d="M81.6897 18.1514C78.6266 18.1514 76.0532 20.7249 76.0532 23.7968C76.0532 26.8685 78.619 29.4411 81.6897 29.4411C84.7693 29.4411 87.3351 26.8685 87.3351 23.7968C87.3351 20.7249 84.7616 18.1514 81.6897 18.1514ZM81.7057 27.4074C79.7438 27.4074 78.1041 25.7582 78.1041 23.7968C78.1041 21.8337 79.7444 20.1939 81.7057 20.1939C83.6766 20.1939 85.3166 21.8343 85.3166 23.7968C85.3166 25.7665 83.6683 27.4074 81.7057 27.4074Z" fill="#202020"/>
<path id="Vector_5" fill-rule="evenodd" clip-rule="evenodd" d="M62.2387 26.6743L69.1141 20.5956C68.0442 19.1646 66.3961 18.2471 64.5785 18.2471C61.4589 18.2471 58.9175 20.765 58.9175 23.8763C58.9175 26.9647 61.4422 29.5534 64.5375 29.5534C65.3819 29.5534 66.1461 29.385 66.9021 29.0062V26.6987C66.2666 27.2375 65.4711 27.5919 64.6279 27.5919C63.7186 27.5919 62.9064 27.2781 62.2387 26.6743ZM60.9512 23.788C61.0484 21.866 62.576 20.2901 64.5224 20.2901C65.1007 20.2901 65.7033 20.3784 66.21 20.6756L61.1762 25.155C61.0162 24.7045 60.9279 24.2701 60.9512 23.788Z" fill="#202020"/>
<path id="Vector_6" fill-rule="evenodd" clip-rule="evenodd" d="M41.8949 26.6743L48.7785 20.5956C47.7008 19.1646 46.0527 18.2471 44.2352 18.2471C41.1155 18.2471 38.5742 20.765 38.5742 23.8763C38.5742 26.9647 41.0994 29.5534 44.1951 29.5534C45.0394 29.5534 45.8115 29.385 46.5593 29.0062V26.6987C45.9238 27.2375 45.1361 27.5919 44.2913 27.5919C43.3824 27.5919 42.5626 27.2781 41.8949 26.6743ZM40.6084 23.788C40.7129 21.866 42.241 20.2901 44.1785 20.2901C44.7574 20.2901 45.3606 20.3784 45.8672 20.6756L40.8417 25.155C40.6812 24.7045 40.5845 24.2701 40.6084 23.788Z" fill="#202020"/>
</g>
</g>
</svg>
