<?xml version="1.0" standalone="no"?>
<!DOCTYPE svg PUBLIC "-//W3C//DTD SVG 20010904//EN"
 "http://www.w3.org/TR/2001/REC-SVG-20010904/DTD/svg10.dtd">
<svg version="1.0" xmlns="http://www.w3.org/2000/svg"
 width="775.000000pt" height="563.000000pt" viewBox="0 0 775.000000 563.000000"
 preserveAspectRatio="xMidYMid meet">

<g transform="translate(0.000000,563.000000) scale(0.100000,-0.100000)"
fill="#000000" stroke="none">
<path d="M2515 4206 c-152 -47 -190 -71 -203 -130 -7 -39 -9 -40 -107 -80 -54
-23 -100 -47 -103 -54 -6 -18 43 -79 78 -97 16 -8 40 -15 54 -15 24 0 24 -2
19 -53 l-5 -54 48 -1 c30 0 81 11 132 29 98 34 154 37 199 9 51 -31 58 -53 38
-122 -19 -62 -13 -88 12 -50 17 24 43 30 43 10 -1 -7 -7 -24 -15 -38 -21 -36
-19 -53 5 -45 25 8 25 -3 0 -35 -26 -34 -25 -38 12 -42 l32 -3 -35 -36 c-33
-35 -37 -36 -124 -43 -144 -11 -247 -26 -274 -42 -14 -8 -55 -33 -91 -55 -36
-23 -93 -54 -127 -70 -57 -25 -63 -31 -63 -58 0 -58 92 -54 158 8 40 38 121
69 143 55 25 -15 -117 -121 -234 -174 -36 -16 -67 -36 -71 -45 -21 -57 10 -80
93 -70 49 6 61 12 101 54 52 53 143 101 193 101 45 0 149 -32 241 -75 76 -35
156 -58 239 -70 51 -7 62 5 22 23 -44 20 -27 30 27 16 62 -16 118 -18 118 -4
0 6 -7 10 -15 10 -19 0 -65 21 -65 31 0 4 17 3 38 -2 49 -11 119 -11 126 0 4
5 -7 12 -23 16 -16 3 -34 12 -39 18 -8 9 16 12 101 12 121 0 93 -7 402 105 75
27 104 33 175 33 73 1 92 -3 136 -26 76 -39 134 -80 208 -147 86 -78 105 -86
207 -92 52 -4 98 -12 118 -23 46 -23 109 -84 204 -194 82 -95 130 -128 168
-116 42 14 11 106 -44 129 -18 7 -47 31 -64 52 -35 45 -77 124 -69 131 8 8
174 -42 239 -72 63 -29 169 -105 245 -176 89 -83 100 -91 136 -99 56 -12 69 6
49 68 -21 63 -28 71 -80 84 -57 14 -115 84 -179 213 l-44 89 -85 23 c-105 28
-197 66 -172 71 28 6 15 23 -29 41 -47 19 -104 58 -104 72 0 5 11 9 25 9 34 0
31 16 -7 36 -35 18 -88 72 -88 91 0 6 12 13 28 15 27 3 27 3 -15 30 -45 30
-100 94 -89 105 4 4 28 -5 54 -19 26 -15 70 -30 97 -33 69 -9 209 17 169 32
-6 2 -20 10 -30 18 -17 13 -12 14 51 10 100 -8 221 39 156 60 -41 13 -20 25
42 25 68 0 98 15 70 35 -13 10 -8 13 31 18 54 8 109 34 101 47 -4 6 -13 10
-21 10 -8 0 -14 5 -14 10 0 6 13 10 29 10 48 0 79 17 142 77 54 51 73 83 50
83 -30 0 -258 -66 -372 -108 -242 -89 -307 -97 -614 -81 -90 5 -121 11 -169
33 -83 38 -167 53 -436 76 -254 23 -536 66 -640 99 -71 23 -142 60 -144 76 -2
16 77 55 111 55 17 0 34 4 37 9 8 13 -49 31 -96 31 -24 0 -37 4 -33 10 3 6 24
10 46 10 28 0 39 4 37 12 -6 16 -41 26 -98 27 -56 2 -35 21 23 21 20 0 37 4
37 9 0 20 -49 26 -177 23 -129 -2 -134 -2 -173 24 -56 37 -115 40 -215 10z
m160 -6 c29 -11 25 -30 -6 -30 -10 0 -19 -4 -19 -9 0 -18 113 -34 199 -28 88
7 98 -3 29 -26 -55 -19 -39 -32 36 -30 61 2 67 1 50 -11 -11 -8 -39 -19 -62
-25 -23 -7 -42 -16 -42 -21 0 -13 81 -13 114 0 42 16 31 -7 -19 -39 -54 -34
-112 -45 -165 -31 -40 11 -136 71 -183 115 -43 41 -53 24 -13 -23 49 -60 113
-111 165 -135 53 -23 119 -19 180 13 l41 20 38 -25 c108 -71 371 -124 807
-161 217 -18 342 -42 415 -80 45 -23 65 -27 113 -25 32 2 112 -3 177 -10 111
-12 126 -11 227 9 60 12 175 46 257 77 143 53 276 95 304 95 29 0 -1 -20 -56
-36 l-57 -18 35 -6 35 -6 -40 -12 c-22 -6 -61 -14 -87 -17 -59 -8 -70 -22 -29
-38 55 -21 33 -29 -59 -21 -78 6 -90 4 -90 -9 0 -8 12 -24 27 -35 l26 -19 -83
1 c-96 1 -110 -10 -53 -45 l38 -24 -55 -3 c-30 -2 -88 4 -128 14 -81 18 -102
12 -83 -25 6 -11 20 -25 31 -31 30 -16 24 -30 -13 -30 -25 0 -50 13 -103 55
-68 55 -138 85 -196 85 -15 0 -28 -2 -28 -4 0 -2 12 -25 26 -50 21 -37 25 -56
21 -87 -5 -38 -3 -42 33 -67 42 -29 49 -42 25 -42 -24 0 -17 -29 10 -42 29
-13 32 -25 8 -30 -12 -3 1 -15 41 -38 52 -30 57 -35 41 -46 -23 -17 -15 -27
40 -53 37 -17 45 -26 40 -40 -5 -16 8 -24 87 -55 51 -20 130 -45 174 -57 l81
-22 23 -53 c28 -69 90 -165 134 -207 18 -18 53 -39 76 -46 33 -10 45 -20 56
-46 17 -42 17 -45 0 -45 -20 0 -196 149 -196 166 0 8 -7 14 -15 14 -9 0 -30 7
-46 16 -29 15 -30 16 -12 29 15 11 16 14 3 18 -100 31 -174 64 -218 97 -50 38
-53 39 -60 20 -7 -20 -9 -19 -30 10 -24 32 -42 32 -42 -1 0 -25 -12 -24 -28 1
-15 24 -32 26 -32 5 0 -12 -8 -10 -37 10 -48 32 -74 34 -47 3 l19 -21 -40 6
c-22 4 -50 7 -63 7 -20 0 -21 2 -11 21 10 20 9 21 -17 15 -16 -3 -45 -9 -64
-12 l-35 -5 28 16 c15 9 27 19 27 24 0 4 -31 8 -70 7 -38 0 -73 3 -77 8 -4 4
5 17 20 28 35 25 22 38 -39 38 -51 0 -153 49 -200 96 -36 36 -74 103 -74 129
0 19 -14 19 -30 0 -8 -9 -10 -29 -7 -50 4 -27 2 -35 -9 -35 -24 0 -56 61 -50
98 3 20 0 32 -6 32 -15 0 -48 -30 -48 -43 0 -19 -33 -47 -56 -47 -13 0 -33 13
-49 32 -30 36 -45 27 -45 -29 0 -38 -12 -41 -47 -13 -14 11 -34 20 -44 20 -15
0 -17 -5 -13 -30 5 -25 2 -31 -19 -41 -36 -16 -92 -3 -131 31 -19 17 -37 30
-41 30 -8 0 -3 -33 10 -62 9 -23 -9 -23 -49 -3 -40 21 -54 4 -22 -26 31 -29
25 -41 -15 -27 -33 11 -59 53 -59 93 0 41 -24 24 -28 -19 -5 -60 -25 -42 -48
42 -8 29 -24 -2 -24 -46 0 -68 -8 -86 -42 -107 -25 -14 -42 -16 -94 -11 -64 7
-78 0 -49 -24 36 -30 13 -35 -78 -17 -7 1 -11 -7 -9 -20 3 -21 -1 -23 -41 -23
-24 0 -88 15 -143 35 -141 49 -215 49 -314 -2 -39 -20 -89 -54 -110 -75 -33
-33 -44 -38 -83 -38 -25 0 -49 5 -52 10 -4 6 23 23 59 40 82 36 172 97 233
156 26 25 57 50 70 55 13 5 76 14 141 20 134 12 176 30 218 91 21 30 24 41 15
52 -9 11 -9 19 1 36 11 18 11 23 -5 31 -17 10 -17 12 2 45 27 45 26 54 -4 54
-18 0 -26 7 -31 26 -7 26 -1 75 12 108 6 15 4 17 -14 11 -26 -8 -28 2 -5 27
16 17 63 26 63 11 0 -5 -7 -30 -15 -57 -8 -27 -15 -57 -15 -68 0 -22 23 -24
40 -3 7 8 16 15 21 15 17 0 9 -65 -12 -99 -26 -42 -22 -52 26 -65 l39 -11 -37
-22 c-20 -12 -37 -27 -37 -32 0 -14 59 -61 77 -61 14 0 13 3 -1 25 -9 13 -16
27 -16 30 0 3 16 23 36 45 20 21 33 43 30 49 -3 5 -25 7 -49 4 l-42 -5 43 37
c45 39 48 55 7 47 -29 -5 -30 1 -10 59 18 50 9 64 -29 49 -40 -15 -48 -4 -27
38 10 20 22 47 26 60 7 23 6 23 -38 17 -47 -7 -107 6 -125 28 -8 9 9 12 71 12
68 0 88 4 120 23 38 24 52 50 20 37 -76 -29 -157 -22 -222 20 -38 23 -39 23
-56 6 -9 -11 -24 -17 -34 -14 -13 3 -19 -5 -27 -34 -8 -32 -13 -38 -39 -41
-16 -2 -71 -16 -122 -33 -50 -16 -99 -29 -108 -29 -29 0 -10 24 21 27 16 1 69
15 119 31 76 24 91 32 99 54 23 65 -70 80 -167 28 -36 -19 -71 -30 -97 -30
-44 0 -47 5 -24 38 13 19 13 22 0 22 -8 0 -18 -4 -21 -10 -10 -16 -26 -11 -23
8 2 11 -4 18 -19 20 -49 7 -17 42 60 66 55 17 77 42 77 85 0 35 42 60 173 101
102 32 124 35 162 20z m-525 -258 c0 -13 -12 -22 -22 -16 -10 6 -1 24 13 24 5
0 9 -4 9 -8z m300 -87 c0 -12 4 -13 19 -5 32 17 42 11 20 -11 -21 -21 -116
-55 -127 -45 -6 6 67 75 81 76 4 0 7 -7 7 -15z"/>
<path d="M2373 4103 c-25 -9 -13 -19 22 -19 37 1 46 10 19 20 -18 7 -23 7 -41
-1z"/>
<path d="M2670 4084 c0 -17 69 -56 109 -61 58 -8 50 8 -17 35 -78 32 -92 36
-92 26z"/>
<path d="M2367 4043 c-3 -16 -5 -28 -4 -29 1 -1 17 3 35 8 37 10 42 33 10 42
-34 9 -35 8 -41 -21z"/>
<path d="M2478 4045 c-10 -13 -18 -42 -18 -64 0 -37 2 -41 25 -41 22 0 24 3
15 19 -14 28 -12 63 6 89 22 32 -5 29 -28 -3z"/>
<path d="M2587 3983 c-14 -13 -6 -50 14 -69 17 -16 22 -16 29 -4 6 8 10 20 10
26 0 15 -45 56 -53 47z"/>
<path d="M2307 3933 c-13 -12 -7 -33 8 -33 8 0 15 9 15 20 0 20 -11 26 -23 13z"/>
<path d="M3123 3793 c10 -11 51 -30 92 -42 41 -13 75 -26 75 -29 0 -4 -15 -15
-33 -26 -29 -17 -30 -19 -12 -27 32 -13 136 -10 193 5 l54 15 -7 -40 c-8 -47
-6 -47 87 -14 41 15 104 28 154 31 46 4 84 11 84 15 0 22 -114 23 -235 3 -39
-7 -40 -7 -22 13 35 39 30 40 -128 10 -85 -17 -103 -14 -67 10 12 9 22 21 22
27 0 6 -48 21 -112 34 -62 13 -124 26 -138 29 -24 6 -25 5 -7 -14z"/>
<path d="M3920 3672 c0 -5 26 -16 58 -25 80 -22 88 -34 68 -94 -18 -53 -21
-113 -5 -113 6 0 19 5 31 11 28 15 32 6 14 -30 -22 -41 -20 -51 9 -51 33 0 32
-12 -5 -33 -37 -22 -38 -35 -2 -43 56 -12 57 -14 18 -40 -20 -14 -35 -31 -33
-37 7 -23 55 -48 105 -54 65 -7 69 9 7 33 -25 9 -45 22 -45 28 0 7 14 25 30
41 45 43 40 58 -17 50 l-48 -6 25 21 c14 12 33 28 43 36 24 19 13 34 -25 34
-25 0 -29 3 -23 18 16 41 28 102 22 108 -3 4 -20 1 -37 -6 -17 -7 -33 -11 -35
-8 -3 2 5 32 18 67 25 69 23 72 -43 91 -43 12 -130 13 -130 2z"/>
<path d="M4230 3603 c0 -5 9 -19 20 -33 11 -14 20 -28 20 -32 0 -3 -16 -25
-35 -48 -19 -23 -35 -46 -35 -52 0 -6 20 -7 53 -3 l52 6 -42 -40 c-24 -22 -43
-43 -43 -47 0 -3 16 -4 35 -2 38 4 42 -3 20 -42 -8 -14 -14 -33 -15 -43 0 -15
6 -16 43 -11 l42 7 -27 -29 c-36 -39 -25 -57 30 -48 49 8 55 -5 15 -34 -14
-10 -23 -24 -19 -30 15 -25 156 -26 156 -1 0 5 -15 9 -34 9 -47 0 -56 18 -21
46 35 28 25 44 -27 44 -43 0 -43 0 -22 69 7 23 6 23 -35 16 -44 -7 -48 -3 -26
35 21 37 18 50 -12 50 l-26 0 21 23 c36 38 29 57 -20 57 l-43 0 33 26 c17 14
32 32 32 39 0 7 -17 27 -37 44 -37 31 -53 38 -53 24z"/>
<path d="M3542 3487 c-18 -7 -55 -29 -83 -50 -56 -41 -69 -41 -50 -1 27 59
-36 46 -98 -20 -33 -35 -41 -33 -41 9 0 19 -3 35 -7 35 -5 0 -26 -14 -47 -30
-22 -17 -43 -30 -47 -30 -4 0 -13 17 -20 38 -16 51 -20 56 -30 41 -10 -15 -2
-84 13 -111 11 -23 27 -22 58 2 35 28 40 25 40 -19 0 -22 5 -43 11 -47 6 -3
32 17 58 45 26 28 51 51 55 51 5 0 6 -16 3 -35 -3 -19 -2 -37 3 -40 5 -3 33
14 62 38 103 84 130 95 107 43 -7 -14 -9 -29 -6 -32 9 -9 58 13 98 42 41 30
49 30 49 -1 0 -47 44 -42 103 13 45 42 28 60 -20 22 -35 -27 -43 -25 -43 10 0
38 -21 39 -66 5 -37 -28 -59 -33 -50 -10 3 8 9 22 12 30 7 18 -16 19 -64 2z"/>
<path d="M3263 2727 c-34 -13 -103 -72 -103 -88 0 -5 12 -6 28 -2 33 10 90 9
199 -2 77 -7 84 -6 125 18 24 14 57 39 73 57 l30 32 -30 -9 c-35 -9 -156 -9
-235 0 -35 4 -67 2 -87 -6z"/>
<path d="M686 2523 c-3 -10 -17 -72 -30 -138 -14 -66 -36 -172 -50 -235 -14
-63 -30 -140 -36 -170 -6 -30 -22 -105 -36 -166 -13 -61 -24 -121 -24 -134 l0
-22 223 4 c215 3 224 4 277 29 106 50 169 144 178 263 4 53 1 76 -12 101 -19
35 -63 65 -95 65 -31 0 -26 17 7 23 41 8 104 76 125 133 9 27 17 77 17 112 0
59 -3 67 -33 97 -45 45 -103 55 -322 55 -166 0 -184 -2 -189 -17z m313 -114
c19 -7 36 -22 42 -37 14 -37 -13 -121 -51 -157 -28 -27 -39 -30 -112 -34 -47
-2 -78 1 -75 6 3 5 15 55 26 112 12 56 23 107 27 112 7 13 105 11 143 -2z
m-12 -383 c22 -25 24 -35 18 -75 -8 -57 -41 -118 -78 -145 -23 -17 -47 -22
-119 -25 l-91 -3 7 28 c4 15 16 73 27 128 11 56 22 107 25 114 3 11 25 13 95
10 86 -3 92 -5 116 -32z"/>
<path d="M3087 2463 c-9 -43 -41 -195 -72 -338 -85 -400 -95 -448 -95 -457 0
-4 115 -7 256 -6 l257 3 12 35 c7 19 15 45 19 58 l7 22 -171 0 -172 0 7 28 c4
15 17 74 29 132 l22 105 106 3 c117 3 112 0 123 76 l7 46 -101 0 c-119 0 -113
-11 -77 145 l23 100 158 5 159 5 12 49 c7 28 11 53 8 58 -3 4 -117 8 -253 8
l-248 0 -16 -77z"/>
<path d="M2338 2410 c-147 -23 -248 -125 -248 -253 0 -71 35 -113 137 -167 79
-41 106 -70 105 -112 -2 -81 -71 -113 -228 -102 l-102 6 -11 -51 c-14 -67 -14
-71 4 -71 8 0 15 -4 15 -10 0 -6 55 -10 145 -10 80 0 145 3 145 8 0 4 23 16
51 26 137 48 225 235 160 339 -16 26 -45 47 -111 82 -101 52 -127 79 -113 122
19 55 52 68 180 68 l115 0 13 31 c30 73 31 71 -27 83 -84 16 -168 20 -230 11z"/>
<path d="M4677 2400 c-189 -48 -316 -247 -320 -500 -2 -129 31 -189 127 -236
45 -21 63 -24 177 -24 75 0 130 4 134 10 3 6 14 10 24 10 12 0 22 15 34 53 9
28 15 57 14 62 -1 6 -46 9 -117 7 -107 -3 -117 -2 -150 20 -40 27 -56 70 -46
122 l7 36 214 0 214 0 12 58 c21 96 17 229 -8 283 -31 70 -89 100 -196 105
-45 2 -99 -1 -120 -6z m133 -140 c16 -16 20 -33 20 -84 0 -100 6 -96 -131 -96
-70 0 -119 4 -119 10 0 21 42 120 62 145 26 33 51 44 106 44 29 1 48 -5 62
-19z"/>
<path d="M5303 2401 c-34 -3 -64 -8 -66 -11 -3 -3 -8 -30 -12 -61 l-7 -55 114
4 c68 2 124 0 141 -7 34 -13 57 -63 50 -107 l-5 -32 -126 1 c-113 1 -133 -2
-180 -22 -88 -39 -142 -118 -160 -235 -13 -82 1 -138 44 -175 19 -17 46 -34
59 -37 14 -3 25 -10 25 -15 0 -12 287 -12 294 0 3 5 35 12 71 16 56 6 66 10
70 28 50 212 98 465 99 522 1 137 -64 188 -244 191 -58 1 -133 -1 -167 -5z
m189 -387 c3 -3 0 -29 -7 -57 -7 -29 -18 -80 -25 -114 l-13 -63 -69 0 c-114 0
-146 29 -133 117 9 63 47 102 110 112 61 10 130 13 137 5z"/>
<path d="M6040 2393 c-156 -21 -154 -20 -168 -90 -6 -32 -36 -175 -67 -318
-31 -143 -59 -275 -62 -293 l-6 -33 93 3 94 3 8 30 c4 17 28 127 53 245 24
118 50 242 58 275 l13 60 60 3 c119 6 164 -19 164 -92 0 -39 -21 -147 -75
-392 -14 -61 -25 -116 -25 -123 0 -7 31 -11 93 -11 l93 0 17 83 c78 364 89
424 84 484 -6 84 -33 124 -99 153 -69 29 -178 34 -328 13z"/>
<path d="M6837 2399 c-43 -5 -106 -15 -140 -22 l-62 -12 -32 -155 c-53 -251
-113 -541 -113 -546 0 -2 42 -4 93 -4 l93 0 53 253 c30 138 59 277 65 307 l12
55 60 3 c118 6 164 -19 164 -91 0 -22 -22 -147 -50 -279 -27 -131 -50 -241
-50 -244 0 -2 42 -4 94 -4 l95 0 11 58 c6 31 28 134 48 227 47 221 52 304 20
365 -45 84 -164 113 -361 89z"/>
<path d="M1406 2391 c-5 -8 -34 -139 -81 -365 -28 -135 -32 -234 -10 -275 19
-38 68 -78 105 -86 16 -4 30 -11 30 -16 0 -12 223 -12 235 0 6 5 46 14 90 20
44 6 82 15 86 19 9 10 21 62 73 313 25 118 54 253 64 301 11 48 17 89 14 92
-3 3 -45 6 -92 6 l-88 0 -21 -92 c-11 -51 -37 -169 -56 -263 -52 -247 -54
-252 -78 -259 -40 -11 -118 -6 -146 9 -60 31 -59 47 29 450 16 77 30 143 30
147 0 11 -178 10 -184 -1z"/>
<path d="M3707 2373 c-4 -16 -29 -134 -57 -263 -75 -349 -90 -421 -90 -436 0
-12 18 -14 92 -12 l92 3 17 80 c30 149 108 510 123 574 8 36 13 68 10 73 -3 4
-45 8 -93 8 -88 0 -89 0 -94 -27z"/>
<path d="M4147 2385 c-59 -6 -112 -16 -116 -21 -5 -5 -23 -76 -41 -159 -74
-355 -110 -528 -110 -537 0 -5 41 -7 92 -6 l93 3 42 195 c23 107 52 243 64
302 l21 106 81 9 81 8 12 58 11 57 -61 -1 c-34 -1 -110 -7 -169 -14z"/>
</g>
</svg>
