<?xml version="1.0" encoding="utf-8"?>
<!-- Generator: Adobe Illustrator 27.4.0, SVG Export Plug-In . SVG Version: 6.00 Build 0)  -->
<svg version="1.1" id="Ebene_1" xmlns="http://www.w3.org/2000/svg" xmlns:xlink="http://www.w3.org/1999/xlink" x="0px" y="0px"
	 width="694px" height="150px" viewBox="0 0 694 150" style="enable-background:new 0 0 694 150;" xml:space="preserve">
<style type="text/css">
	.st0{fill-rule:evenodd;clip-rule:evenodd;}
</style>
<path class="st0" d="M74.1,25.1c27.6,0,41,19,44.1,29h-11.6c-3.5-6.3-13.1-18.5-32.5-18.5c-21.2,0-37.4,16.9-37.4,39.6
	c0,22.5,16.2,39.4,37.4,39.4c19.8,0,29.6-12.2,32.6-18.3h11.2c-2.8,9.3-16.2,28.7-43.8,28.7c-27.9,0-49-21.1-49-49.9
	C25.1,46.6,46.4,25.1,74.1,25.1L74.1,25.1z M543.4,54.1c19.8,0,34.6,15.8,34.1,38h-58c0.8,13,10.7,23.3,24.2,23.3
	c13.5,0,20-8.1,22.7-13.8h10.2c-2.6,9.3-12.6,23.3-32.9,23.3c-19.8,0-34.4-15.3-34.4-35.4C509.2,69.5,524,54.1,543.4,54.1
	L543.4,54.1z M158.1,54.1c15.3,0,22.5,9.8,24.5,14.3V55.6h10.2v67.7h-10.2v-12.7c-2.2,4.6-9.3,14.3-24.5,14.3
	c-19.3,0-34.4-15.2-34.4-35.4C123.7,69.3,138.8,54.1,158.1,54.1L158.1,54.1z M350.5,54.1c18.9,0,27.8,13.9,27.8,31v38.2h-10.3v-38
	c0-12.7-6.8-21.6-19.1-21.6c-12.2,0-19.5,9.1-19.5,22.1v37.4h-10.2V55.6h10.2V67C330.6,63.2,336.5,54.1,350.5,54.1L350.5,54.1z
	 M425,26.8v51.5l45.2-51.5h13.4l-38.7,43.6l38.7,52.9h-12.8l-33.5-44.3L425,92.8v30.5h-11.2V26.8L425,26.8L425,26.8z M641.1,54.1
	c18.9,0,27.8,13.9,27.8,31v38.2h-10.3v-38c0-12.7-6.8-21.6-19.1-21.6c-12.2,0-19.5,9.1-19.5,22.1v37.4h-10.2V55.6h10.2V67
	C621.2,63.2,627.1,54.1,641.1,54.1L641.1,54.1z M234.2,55.6l21.5,57.3l21.5-57.3h11.2l-26.2,67.7h-12.8L223,55.6L234.2,55.6
	L234.2,55.6z M306.8,55.6v67.7h-10.2V55.6C296.6,55.6,306.8,55.6,306.8,55.6z M499.5,25v98.3h-10.2V25C489.4,25,499.5,25,499.5,25z
	 M597.5,55.6v67.7h-10.2V55.6H597.5z M215.3,25v98.3h-10.2V25H215.3z M158.5,63.7c-14.1,0-24.4,11.1-24.4,25.7
	c0,14.5,10.3,25.7,24.4,25.7c14,0,24.3-11.2,24.3-25.7C182.8,74.9,172.5,63.7,158.5,63.7z M543.4,63.5c-13.1,0-21.6,9.9-23.3,19.6
	h46.4C564.4,72.9,556.8,63.5,543.4,63.5z M306.9,31.9v11.8h-10.4V31.9C296.5,31.9,306.9,31.9,306.9,31.9z M597.6,31.9v11.8h-10.4
	V31.9C587.2,31.9,597.6,31.9,597.6,31.9z"/>
</svg>
