<svg width="98" height="36" viewBox="0 0 98 36" fill="none" xmlns="http://www.w3.org/2000/svg">
<g id="Group">
<g id="Symbols">
<g id="header/desktop">
<path id="logo-white" fill-rule="evenodd" clip-rule="evenodd" d="M51.1148 17.7321H46.8343V18.8145H49.6696C49.5165 20.6463 48.2103 21.2299 46.6531 21.3409C44.6936 21.4797 43.1364 19.7999 43.0953 17.8989C43.0533 15.9692 44.6516 14.3041 46.6531 14.3181C48.0013 14.3321 49.1273 15.1088 49.6416 15.9552L50.6975 15.4005C50.184 14.1094 48.4877 13.1519 46.6531 13.11C43.915 13.0409 41.6632 15.2615 41.7051 17.8989C41.7471 20.4944 43.971 22.5761 46.6531 22.5341C50.6424 22.4651 51.379 19.1892 51.1148 17.7321ZM74.3952 18.6348L75.5902 15.5249L76.7861 18.6348H74.3952ZM75.1458 13.4021L71.4349 22.2568H72.908L73.8948 19.7443H77.2446L78.2313 22.2568H79.7045L75.9935 13.4021H75.1458ZM37.5632 21.7016C37.1459 21.7016 36.8407 21.4098 36.8407 20.994C36.8407 20.6603 37.0488 20.4663 37.4381 20.2025C37.4381 20.2025 37.4661 20.1885 37.4941 20.1606C37.5912 20.2715 38.3418 21.1599 38.4529 21.2849C38.1336 21.5627 37.8554 21.7016 37.5632 21.7016ZM37.7994 18.3566C38.0636 18.3566 38.2307 18.5094 38.2307 18.7453C38.2307 18.9532 38.1056 19.1341 37.8554 19.2861C37.8554 19.2861 37.7854 19.328 37.7303 19.356C37.6604 19.273 37.5081 19.1061 37.5081 19.1061C37.4101 18.9952 37.369 18.8842 37.369 18.7593C37.369 18.5234 37.5492 18.3566 37.7994 18.3566ZM39.9262 20.7022L39.9681 20.6332L39.5089 20.1466C39.5089 20.1466 39.0784 20.6881 38.9813 20.8131C38.8562 20.6742 38.2718 19.9806 38.1467 19.8417C38.6751 19.5088 38.9113 19.1612 38.9113 18.7313C38.9113 18.1207 38.4669 17.718 37.7854 17.718C37.1188 17.718 36.6465 18.1347 36.6465 18.7313C36.6465 19.0362 36.7435 19.2861 36.9658 19.5228C36.9658 19.5228 37.0217 19.5779 37.0769 19.6338C36.4233 20.0217 36.1041 20.4663 36.1041 20.994C36.1041 21.7845 36.6876 22.3261 37.5352 22.3261C38.0356 22.3261 38.4949 22.1313 38.8834 21.7845C38.9813 21.8954 39.2866 22.2562 39.2866 22.2562H40.2044C40.2044 22.2562 39.4949 21.4238 39.3978 21.3127C39.5928 21.146 39.7731 20.9381 39.9262 20.7022ZM53.3101 18.6348L54.506 15.5249L55.702 18.6348H53.3101ZM54.0616 13.4021L50.3498 22.2568H51.8239L52.8106 19.7443H56.1595L57.1472 22.2568H58.6204L54.9085 13.4021H54.0616ZM61.3169 21.2021H60.4963V18.19H61.358C62.2897 18.19 63.6928 18.218 63.6928 19.6471C63.7068 20.9662 62.595 21.2161 61.3169 21.2021ZM60.4963 14.4843H60.7186C61.7893 14.4563 62.9563 14.4013 62.9563 15.7335C62.9563 17.0937 61.8584 17.0797 60.7054 17.1077H60.4963V14.4843ZM63.3736 17.4545C63.9711 17.0518 64.3465 16.5381 64.3465 15.8305C64.3743 13.7766 62.9703 13.4569 61.5251 13.4159H59.051V22.2705H61.9144C63.7349 22.2705 65.055 21.6459 65.1529 19.883C65.2222 18.8146 64.4296 17.7043 63.3736 17.4545ZM87.2654 20.0081L81.0663 13.4021H80.2056V22.2568H81.5116V15.7747L87.5846 22.2568H88.5583V13.4021H87.2654V20.0081ZM68.0161 21.2021H67.1955V18.19H68.0572C68.989 18.19 70.3922 18.218 70.3922 19.6471C70.4062 20.9662 69.3082 21.2161 68.0161 21.2021ZM67.1955 14.4843H67.4178C68.4885 14.4563 69.6555 14.4013 69.6555 15.7335C69.6555 17.0937 68.5576 17.0797 67.4047 17.1077H67.1955V14.4843ZM70.0728 17.4545C70.6704 17.0518 71.0457 16.5381 71.0457 15.8305C71.0736 13.7766 69.6695 13.4569 68.2243 13.4159H65.7504V22.2705H68.6136C70.4341 22.2705 71.7542 21.6459 71.8521 19.883C71.9214 18.8146 71.1428 17.7043 70.0728 17.4545ZM19.3418 13.4021H18.0077L17.9937 22.2568H21.8438V21.1734H19.3418V13.4021ZM91.9498 18.6348L93.1448 15.5249L94.3407 18.6348H91.9498ZM93.5761 13.4021H92.7005L88.9885 22.2568H90.4626L91.4494 19.7443H94.7991L95.7991 22.2568H97.2732L93.5761 13.4021ZM15.2141 20.2861C14.5195 20.9518 13.6437 21.2986 12.6981 21.2986C11.7392 21.2986 10.8775 20.9518 10.1829 20.2861C9.50139 19.6196 9.14018 18.7872 9.14018 17.8567C9.14018 16.9273 9.50139 16.0668 10.1829 15.4002C10.8495 14.7476 11.7392 14.4008 12.6981 14.4008C13.6577 14.4008 14.5326 14.7476 15.2141 15.4002C15.8946 16.0528 16.2568 16.9133 16.2568 17.8567C16.2699 18.7872 15.8946 19.6196 15.2141 20.2861ZM16.2008 14.5537C15.27 13.6792 14.0051 13.2075 12.7121 13.2075C11.4059 13.2075 10.155 13.6933 9.2373 14.5537C8.29246 15.4282 7.79205 16.5936 7.79205 17.8567C7.79205 19.1199 8.29246 20.2582 9.2373 21.1466C10.1689 22.0211 11.4199 22.5068 12.7121 22.5068C14.0051 22.5068 15.27 22.0211 16.2008 21.1466C17.1316 20.2722 17.6321 19.1199 17.6321 17.8567C17.6321 16.5804 17.1456 15.4282 16.2008 14.5537ZM25.8188 13.1242C25.1242 13.1381 24.7209 13.2491 24.0815 13.5129C22.0658 14.3734 21.0239 16.0804 21.2181 18.204C21.3852 20.0639 22.33 21.3271 24.0815 22.1038C24.707 22.3816 25.1102 22.4925 25.8048 22.5205C26.5134 22.5624 26.9447 22.5064 27.6114 22.2705C28.1257 22.0898 28.4319 21.9789 28.8492 21.632V20.4108C28.8492 20.4108 28.1257 20.8965 27.6114 21.0904C26.9447 21.3272 26.5134 21.4241 25.8048 21.3403C25.0822 21.2573 24.6649 21.0904 24.0815 20.6886C23.5951 20.3549 23.3449 20.105 23.0527 19.6061C22.7753 19.1196 22.7054 18.8007 22.6634 18.2459C22.5523 16.8858 22.9416 15.8445 24.0815 15.026C24.6649 14.6093 25.0822 14.4424 25.8048 14.3734C26.5134 14.3035 26.9447 14.4013 27.6114 14.6372C28.1257 14.8172 28.39 15.012 28.8492 15.289V14.1236C28.4599 13.7907 28.3068 13.7068 27.6114 13.4299C27.0418 13.1932 26.3883 13.0962 25.8188 13.1242ZM29.2518 22.2568H33.8385V21.1884H30.6418V18.1482H33.7553V17.0798H30.6418V14.4844H33.8385V13.4021H29.2518V22.2568ZM5.94341 18.0648C5.87428 19.8697 4.58139 21.1598 2.82996 21.1598H1.48183V14.5399L2.84396 14.5539C4.70649 14.5819 6.02652 16.1079 5.94341 18.0648ZM2.84396 13.4156H0.0637207V22.2562H2.84396C5.76232 22.2562 7.44463 20.1746 7.37466 17.718C7.30553 15.3445 5.45699 13.4156 2.84396 13.4156Z" fill="#202020"/>
</g>
</g>
</g>
</svg>
