<?xml version="1.0" encoding="utf-8"?>
<!-- Generator: Adobe Illustrator 19.2.1, SVG Export Plug-In . SVG Version: 6.00 Build 0)  -->
<svg version="1.1" id="layer" xmlns="http://www.w3.org/2000/svg" xmlns:xlink="http://www.w3.org/1999/xlink" x="0px" y="0px"
	 viewBox="0 0 652 652" style="enable-background:new 0 0 652 652;" xml:space="preserve">
<path d="M267.7,474.7c-19.5,0-29.2-11.3-29.2-28.8c0-16.5,9.9-31.5,32.2-31.5c3.5,0,8.2,0.4,11.9,1.5l-1.2,12.7
	c-3.7-1.2-7.6-1.9-11.5-1.9c-10,0-15.7,7.2-15.7,17.9c0,11.4,6.3,17.2,16.4,17.2c4,0,8.1-0.8,11.3-2.3l1.2,12.8
	C278.2,473.8,273.1,474.7,267.7,474.7 M348.4,473.8l-21.6-58.5h-17.2l-21.7,58.5h14.6l3.7-10.2h22.6l3.6,10.2H348.4z M325.3,453.1
	h-15.7l5.2-14.2c1-2.7,1.9-5.7,2.6-8.3h0.1c0.7,2.6,1.8,6,2.8,8.7L325.3,453.1z M391.6,426.7v-11.4h-35.4v58.5h14.5v-23.3h19.8
	v-11.1h-19.8v-12.7H391.6z M438.6,473.8v-11.6h-21.5v-12.8h20.5v-11h-20.5v-11.7h21.5v-11.4h-36v58.5H438.6z M137.7,225.7
	c37-74.7,114-126.2,202.9-126.2c92.1,0,171.6,55.4,206.8,134.5c6.4,4.9,11.5,11.3,15.2,19c3.7-5,8-9.5,12.7-13.4
	C540,144.1,448.1,75.8,340.5,75.8c-102.3,0-190.4,61.8-229.1,149.9H137.7z M565.7,347.8c-11.1,114.5-107.8,204.3-225.2,204.3
	c-113.2,0-207.3-83.7-223.7-192.4c-2.3,0.3-4.8,0.5-7.5,0.5c-6.2,0-12-1.5-17-4.3c14.9,123.7,120.5,219.9,248.2,219.9
	c126.7,0,231.7-94.7,247.8-217.1C579.8,357,572.1,353.2,565.7,347.8 M120.2,315.1c0,2.9,1.7,4.5,5.1,4.5c2.6,0,4.4-0.4,6.1-1
	l-5.7,22c-3.2,2.6-7.6,4.6-16.3,4.6c-8.2,0-17.1-4.9-19.5-15.6h-0.2c-4.9,7.6-13.1,15.3-26.8,15.3c-15.6,0-30.2-15.2-30.2-36
	c0-37.3,23.8-70,51.8-70c10.3,0,17.9,6.4,20.7,12.6h0.2l2.7-10.7h31.1l-18.5,70.9C120.4,312.9,120.2,314.1,120.2,315.1 M73.9,320
	c13,0,23.4-22.4,23.4-39.9c0-10.2-4-16.5-9.8-16.5c-13,0-23.3,20.5-23.3,39.6C64.3,314,67.7,320,73.9,320 M15.4,187.2l-15.9,61.4
	H-30l16.1-61.4h-28.8c-7,10.2-15.2,16.6-30.4,16.6l-5.5,21c1.7,0.2,3.5,0.3,5.3,0.3c6,0,12.5-1.5,18.2-4.2l-32.1,122.7h32.5l18-69
	h29.5l-18.2,69H7.1l40.8-156.2H15.4z M302.6,187.2h31.8l-40.8,156.2h-26.7l3.3-12.8H270c-4.9,7-13.3,14.1-25.8,14.1
	c-15.6,0-30.2-15.2-30.2-36c0-37.3,23.8-70,51.8-70c9.6,0,17.2,4.8,20.5,10.6h0.2L302.6,187.2z M255.2,320c13,0,23.5-22.4,23.5-39.9
	c0-10.2-4.1-16.5-9.8-16.5c-13,0-23.3,20.5-23.3,39.6C245.6,314,249,320,255.2,320 M214.8,239c-9.7,0-19.3,8.7-23.8,16.1h-0.3
	l3.6-14.4h-31l-26.8,102.7h31.8l12.7-48.4c3.4-13.1,11.4-27.2,23.8-27.2c3.6,0,6.9,1.1,9.2,2.5l7.8-29.9
	C219.9,239.6,217.5,239,214.8,239 M720,354.1c3,0,6.6-1.1,8.3-2.3l4.4,20.3c-4.6,4-13.1,6.8-21.2,6.8c-16.9,0-28-9.9-28-25.3
	c0-8.1,1.2-13.5,1.2-22.3c0-11-7.2-18.5-14.8-19.6l-8.3,31.8h-31.8l40.8-156.2h31.8l-16.5,63.5h0.2c6.3-7,15.8-11.7,26.1-11.7
	c17.3,0,27.2,11.2,27.2,24.6c0,23.1-22.8,37.8-41.1,41.4v0.2c7.4,5.3,12.9,17.3,12.9,29.1c0,4-0.2,6.8-0.2,10.2
	C711.2,350.7,713.6,354.1,720,354.1 M674.9,292.8c19.8,0,35.6-12.6,35.6-24.4c0-4.6-2.7-7.3-7.5-7.3
	C691.7,261.1,678.1,276.8,674.9,292.8 M515.6,238.8c22.2,0,38,16.2,38,42.9c0,33.1-24.3,63.1-57,63.1c-20.2,0-36.6-16.9-36.6-40.8
	C460,269.1,483.7,238.8,515.6,238.8 M500.3,320.8c12.3,0,23.1-22.7,23.1-40.8c0-10.3-3.6-18.4-10.3-18.4c-13,0-22.8,20.5-22.8,41.1
	C490.3,314.3,494.7,320.8,500.3,320.8 M591.2,301.4c0-23.8,13.3-40,27.5-40c7.3,0,13.3,4.2,17,7.8l5.9-22.9
	c-4.8-3.5-15-7.5-25.2-7.5c-30.6,0-55.5,32.2-55.5,63.9c0,24.9,16.8,42.1,38.2,42.1c8.4,0,14.3-1.7,17.8-3.2l6.2-24.2
	c-4.1,2.7-8.4,3.8-15.7,3.8C597.7,321.3,591.2,314.8,591.2,301.4 M456.1,356.3c4.5,0,7.7-0.9,10-2.5l4.7,20.5
	c-5.5,4.6-13.1,8.5-24.2,8.5c-19.7,0-33.6-11.1-33.6-29.3c0-16.6,4-24.4,4-39.8c0-14.7-9.5-27.5-19.8-30.3l-15.7,59.8h-32.4
	L381,220.8c-5.7,2.7-12.2,4.2-18.2,4.2c-1.8,0-3.6-0.1-5.3-0.3l5.5-21c15.2,0,23.4-6.4,30.4-16.6h30.7c33.2,0,48.3,17.5,48.3,41.5
	c0,22.8-22,44.6-43.2,49.2l0,0.5c7.4,4.6,17.2,18.7,17.2,37.3c0,10.4-1.1,20.3-1.1,28.9C445.4,351.7,450,356.3,456.1,356.3
	 M409.7,260.3c19.9,0,29.8-14.7,29.8-30.5c0-10.9-5.1-19.7-18.8-19.7h-4.3l-13.1,50.3H409.7"/>
<path d="M616.2,373.5c-0.4-0.5-0.8-1-1.1-1.3c2.3-0.1,4-1.4,4-3.6c0-2.1-1.6-3.2-4.5-3.2c-1.5,0-2.7,0-3.4,0v12.5h1.8v-5.6h0.1
	l4.4,5.6h2.3L616.2,373.5z M613,371v-4.2c0.4-0.1,0.7-0.1,1.3-0.1c1.7,0,2.8,0.7,2.8,2c0,1.4-1.1,2.3-2.7,2.3
	C613.9,371,613.4,371,613,371"/>
<path d="M615,360c-6.4,0-11.6,5.2-11.6,11.6c0,6.5,5,11.6,11.6,11.6c6.3,0,11.6-5.3,11.6-11.6C626.6,365,621.5,360,615,360
	 M615,381.7c-5.5,0-9.9-4.7-9.9-10.3c0-5.5,4.4-10,9.9-10c5.5,0,9.9,4.7,9.9,10.2C624.9,377.2,620.5,381.7,615,381.7"/>
</svg>
