<svg width="98" height="36" viewBox="0 0 98 36" fill="none" xmlns="http://www.w3.org/2000/svg">
<g id="Group">
<path id="Vector" fill-rule="evenodd" clip-rule="evenodd" d="M88.266 24.2427H86.0197V8.04123H80.59V6.24462H93.6936V8.04123H88.266V24.2427ZM69.4649 21.74C74.8185 23.2542 79.842 25.4571 84.9132 28.358V28.8476C77.0156 25.3702 68.1346 22.7936 57.6981 21.9247L60.8757 29.7405H58.4158L55.2788 21.756C53.5263 21.6575 51.729 21.6024 49.8867 21.6024C48.5796 21.6024 47.2957 21.63 46.0335 21.6807L42.8668 29.7405H40.4054L43.6279 21.811C32.5571 22.5467 23.1293 25.2029 14.8487 28.8454V28.353C20.3747 25.229 25.8413 22.8972 31.7409 21.3736V16.5761L25.0961 6.24462H27.5648L32.8387 14.8287L38.1135 6.24462H40.5792L33.9359 16.5761L33.9344 20.8479C37.3104 20.1049 40.8414 19.6146 44.6157 19.3822L50.0924 5.90283H51.1895L56.7104 19.4894C60.4145 19.7892 63.8882 20.341 67.2171 21.1491V8.04123H61.7882V6.24462H74.8924V8.04123H69.4649C69.4649 8.04123 69.4649 21.74 69.4649 21.74ZM50.642 9.94868L46.9793 19.2707C47.9323 19.241 48.8961 19.2236 49.8817 19.2236C51.4031 19.2236 52.884 19.2605 54.328 19.3337C54.328 19.3337 50.642 9.94867 50.642 9.94868ZM16.2275 15.3631H6.53828V24.2427H4.29126V6.24462H6.53828V13.568H16.2275V6.24462H18.4738V24.2427L16.2275 24.2449C16.2275 24.2449 16.2275 15.3631 16.2275 15.3631Z" fill="#202020"/>
</g>
</svg>
