<svg width="98" height="36" viewBox="0 0 98 36" fill="none" xmlns="http://www.w3.org/2000/svg">
<g id="Group">
<g id="Group_2">
<path id="Fill-1" d="M22.5463 10.2114H20.2232V16.9404H11.9322V10.2114H9.64917V25.4718H11.9322V18.5025H20.2633V25.4718H22.5864V10.2114H22.5463Z" fill="#202020"/>
<path id="Fill-2" d="M0.597412 25.4722H2.88046V10.2119H0.597412V25.4722Z" fill="#202020"/>
<g id="Clip-Path: Clip-Path: Fill-3">
<g id="Clip-Path: Fill-3">
<path id="Fill-3" fill-rule="evenodd" clip-rule="evenodd" d="M38.9284 18.102V24.0299C38.2875 24.4705 37.2061 24.831 35.9645 24.831C32.3997 24.831 29.9565 21.6668 29.9565 17.7015C29.9565 13.9365 32.0793 10.8524 35.6841 10.8524C38.1674 10.8524 39.5692 12.014 40.6106 13.2957H40.7308V10.612C40.0098 10.4118 37.9271 9.93115 35.8042 9.93115C30.5973 9.93115 27.4731 13.7362 27.4731 17.8617C27.4731 22.3877 30.8777 25.7122 35.8843 25.7122C38.3676 25.7122 40.2502 24.7509 41.2915 24.4705V18.102H38.9284Z" fill="#202020"/>
</g>
</g>
<path id="Fill-6" fill-rule="evenodd" clip-rule="evenodd" d="M42.7328 10.3721C43.2536 10.3721 43.6543 10.7727 43.6543 11.2936C43.6543 11.8144 43.2536 12.215 42.7328 12.215C42.2119 12.215 41.8113 11.8144 41.8113 11.2936C41.8113 10.7727 42.2119 10.3721 42.7328 10.3721ZM42.7328 10.4923C42.2921 10.4923 41.9715 10.8128 41.9715 11.2535C41.9715 11.6942 42.2921 12.0148 42.7328 12.0148C43.1735 12.0148 43.494 11.6942 43.494 11.2535C43.494 10.8128 43.1735 10.4923 42.7328 10.4923ZM42.4123 10.8128H42.7328C42.9331 10.8128 43.0934 10.893 43.0934 11.0933C43.0934 11.2135 43.0132 11.2936 42.893 11.3337L43.1334 11.6942H42.9331L42.6927 11.3337H42.6126V11.6942H42.4123V10.8128ZM42.7328 11.2135C42.853 11.2135 42.893 11.1734 42.893 11.0933C42.893 11.0131 42.853 10.9731 42.7328 10.9731H42.6126V11.2535H42.7328V11.2135Z" fill="#202020"/>
<path id="Fill-8" d="M49.4624 10.2114H50.2234V12.7749H54.5892V10.2114H55.3502V15.899H54.5892V13.3756H50.2234V15.899H49.4624V10.2114Z" fill="#202020"/>
<path id="Fill-10" fill-rule="evenodd" clip-rule="evenodd" d="M56.8726 13.0957V13.0156C56.8726 11.4135 58.3545 10.1318 60.5975 10.1318C62.8806 10.1318 64.3225 11.4135 64.3225 13.0156V13.0957C64.3225 14.6979 62.8405 15.9796 60.5975 15.9796C58.3545 15.9796 56.8726 14.6979 56.8726 13.0957ZM63.6015 13.0557V13.0156C63.6015 11.7339 62.5201 10.6926 60.6376 10.6926C58.7551 10.6926 57.6736 11.6538 57.6736 13.0156V13.0957C57.6736 14.4576 58.9153 15.4189 60.6776 15.4189C62.48 15.3788 63.6015 14.4576 63.6015 13.0557Z" fill="#202020"/>
<path id="Fill-12" d="M67.3263 10.7722H65.0032V10.2114H70.4104V10.7722H68.0873V15.899H67.3263V10.7722Z" fill="#202020"/>
<path id="Fill-14" d="M71.8125 10.2114H76.6189V10.7722H72.5735V12.6947H75.978V13.2555H72.5735V15.2982H76.8192V15.859H71.8525V10.2114H71.8125Z" fill="#202020"/>
<path id="Fill-16" d="M78.2612 10.2114H78.9822V15.3383H82.6671V15.899H78.2612V10.2114Z" fill="#202020"/>
<path id="Fill-18" fill-rule="evenodd" clip-rule="evenodd" d="M83.5876 14.1772H84.3086C84.4288 14.8981 84.9495 15.4189 86.4715 15.4189C87.6731 15.4189 88.394 15.0183 88.394 14.2973C88.394 13.6164 87.8734 13.4162 86.3513 13.2159C84.7893 13.0557 83.9081 12.6552 83.9081 11.6538C83.9081 10.7726 84.8293 10.1318 86.3113 10.1318C87.7932 10.1318 88.7545 10.6525 88.8747 11.6938H88.1938C88.0336 10.9729 87.3927 10.6926 86.2712 10.6926C85.0696 10.6926 84.5489 11.053 84.5489 11.6538C84.5489 12.1745 84.9094 12.4549 86.5115 12.6552C88.1938 12.8554 89.0749 13.1758 89.0749 14.2973C89.0749 15.2987 88.1137 15.9796 86.4715 15.9796C84.5489 15.9796 83.7078 15.1785 83.5876 14.1772Z" fill="#202020"/>
<path id="Fill-20" fill-rule="evenodd" clip-rule="evenodd" d="M49.4624 19.7446H52.186C53.4677 19.7446 54.5091 20.2252 54.5091 21.4268V21.4669C54.5091 22.4682 53.668 22.9489 52.8669 23.069L54.9497 25.4322H54.0685L52.0258 23.1091H50.1834V25.4322H49.4224V19.7446H49.4624ZM52.2261 22.5884C53.1874 22.5884 53.7882 22.1879 53.7882 21.4669V21.4268C53.7882 20.6257 53.1473 20.3054 52.2261 20.3054H50.2234V22.5483H52.2261V22.5884Z" fill="#202020"/>
<path id="Fill-22" d="M56.5913 19.7446H61.3977V20.3054H57.3523V22.2279H60.7569V22.7887H57.3523V24.8314H61.598V25.3921H56.6314V19.7446H56.5913Z" fill="#202020"/>
<path id="Fill-24" fill-rule="evenodd" clip-rule="evenodd" d="M62.8403 23.7095H63.5613C63.6815 24.4304 64.2021 24.9511 65.7242 24.9511C66.9258 24.9511 67.6467 24.5506 67.6467 23.8296C67.6467 23.1487 67.126 22.9484 65.604 22.7481C64.0419 22.5479 63.1608 22.1874 63.1608 21.186C63.1608 20.3049 64.082 19.6641 65.564 19.6641C67.0459 19.6641 68.0072 20.1848 68.1274 21.2262H67.4465C67.2862 20.5052 66.6454 20.2248 65.5239 20.2248C64.3223 20.2248 63.8016 20.5853 63.8016 21.146C63.8016 21.6667 64.1621 21.9471 65.7642 22.1474C67.4464 22.3476 68.3276 22.668 68.3276 23.7895C68.3276 24.7909 67.3663 25.4718 65.7242 25.4718C63.8016 25.5118 62.9605 24.7108 62.8403 23.7095Z" fill="#202020"/>
<path id="Fill-26" fill-rule="evenodd" clip-rule="evenodd" d="M69.7695 22.628V22.5479C69.7695 20.9458 71.2515 19.6641 73.4945 19.6641C75.7775 19.6641 77.2195 20.9458 77.2195 22.5479V22.628C77.2195 24.2301 75.7375 25.5118 73.4945 25.5118C71.2515 25.5118 69.7695 24.2301 69.7695 22.628ZM76.4985 22.628V22.5479C76.4985 21.2662 75.4171 20.2649 73.5345 20.2649C71.652 20.2649 70.5706 21.2261 70.5706 22.5879V22.628C70.5706 23.9898 71.8123 24.9511 73.5746 24.9511C75.3369 24.9511 76.4985 23.9898 76.4985 22.628Z" fill="#202020"/>
<path id="Fill-28" fill-rule="evenodd" clip-rule="evenodd" d="M79.1016 19.7446H81.8252C83.1069 19.7446 84.1483 20.2252 84.1483 21.4268V21.4669C84.1483 22.4682 83.3072 22.9489 82.5061 23.069L84.5889 25.4322H83.7077L81.665 23.1091H79.8225V25.4322H79.0615V19.7446H79.1016ZM81.8653 22.5884C82.8265 22.5884 83.4273 22.1879 83.4273 21.4669V21.4268C83.4273 20.6257 82.7865 20.3054 81.8653 20.3054H79.8626V22.5483H81.8653V22.5884Z" fill="#202020"/>
<path id="Fill-30" d="M87.8338 20.3454H85.5107V19.7847H90.9179V20.3454H88.5948V25.4722H87.8739V20.3454H87.8338Z" fill="#202020"/>
<path id="Fill-32" fill-rule="evenodd" clip-rule="evenodd" d="M91.9595 23.7095H92.6804C92.8006 24.4304 93.3213 24.9511 94.8433 24.9511C96.0449 24.9511 96.7659 24.5506 96.7659 23.8296C96.7659 23.1487 96.2852 22.9484 94.7231 22.7481C93.1611 22.5479 92.2799 22.1874 92.2799 21.186C92.2799 20.3049 93.2011 19.6641 94.6831 19.6641C96.1651 19.6641 97.1263 20.1848 97.2465 21.2262H96.5656C96.4054 20.5052 95.7645 20.2248 94.643 20.2248C93.4414 20.2248 92.9207 20.5853 92.9207 21.146C92.9207 21.6667 93.2812 21.9471 94.8833 22.1474C96.5656 22.3476 97.4467 22.668 97.4467 23.7895C97.4467 24.7909 96.4855 25.4718 94.8433 25.4718C92.9608 25.5118 92.1197 24.7108 91.9595 23.7095Z" fill="#202020"/>
<g id="Clip-Path: Clip-Path: Fill-34">
<g id="Clip-Path: Fill-34">
<path id="Fill-34" fill-rule="evenodd" clip-rule="evenodd" d="M96.1644 15.1385C95.7639 15.6191 95.123 15.9796 94.322 15.9796C93.1604 15.9796 92.3994 15.4188 92.3994 14.4575C92.3994 13.5363 93.1204 13.0557 93.8413 12.7753C93.4809 12.4549 93.2005 12.0544 93.2005 11.4936C93.2005 10.6124 93.9214 10.1318 94.7225 10.1318C95.6037 10.1318 96.1644 10.6926 96.1644 11.4536C96.1644 12.0143 95.7238 12.5751 94.8427 12.8955L96.2445 14.2973L97.1257 12.9355H97.7265L96.605 14.6578L97.8066 15.8594H96.9655L96.1644 15.1385ZM95.844 14.778L94.2018 13.0957C93.5209 13.3361 93.0403 13.7366 93.0403 14.3775C93.0403 14.9783 93.4809 15.3788 94.322 15.3788C95.0029 15.4188 95.4835 15.1385 95.844 14.778ZM95.5636 11.4536C95.5636 11.013 95.2432 10.6926 94.7225 10.6926C94.2018 10.6926 93.8013 10.9729 93.8013 11.5337C93.8013 11.9742 94.0817 12.2946 94.4822 12.6151C95.2432 12.2546 95.5636 11.8942 95.5636 11.4536Z" fill="#202020"/>
</g>
</g>
</g>
</g>
</svg>
