<svg width="98" height="36" viewBox="0 0 98 36" fill="none" xmlns="http://www.w3.org/2000/svg">
<g id="Group">
<g id="Group_2">
<path id="Vector" d="M23.1506 35.6433H75.1565V35.4075H23.1506V35.6433ZM23.1506 29.2163V29.4521H75.1565V29.2163H23.1506Z" fill="#202020"/>
<path id="Vector_2" d="M26.5411 33.8746C26.5705 33.9041 26.5705 33.9925 26.5411 34.022H25.5387C25.5092 33.9925 25.4797 33.9041 25.5387 33.8746L25.6566 33.8451C25.804 33.8156 25.8335 33.7861 25.8335 33.4618V31.5455C25.7155 31.8109 25.6566 31.9287 25.5976 32.1351L25.2144 32.9606C25.0669 33.2849 24.8901 33.8156 24.8016 34.022C24.7721 34.0514 24.7132 34.0514 24.7132 34.022C24.6542 33.7566 24.4773 33.3144 24.3889 33.0786L24.0351 32.1941C23.9467 31.9877 23.8877 31.7813 23.7993 31.5749C23.7993 31.8108 23.7697 32.1646 23.7697 32.3709C23.7697 32.6658 23.7403 33.0785 23.7403 33.4618C23.7403 33.7566 23.7403 33.8451 23.9172 33.8746L24.0351 33.904C24.0646 33.9335 24.0646 34.022 24.0351 34.0515C23.7403 34.022 23.475 34.022 23.1801 34.0515C23.1507 34.022 23.1507 33.9335 23.1801 33.904H23.2391C23.416 33.8745 23.4749 33.8156 23.4749 33.5208C23.5044 33.226 23.5044 32.9311 23.5339 32.43C23.5634 32.1057 23.5634 31.7224 23.5634 31.4276C23.5634 31.2212 23.5044 31.1033 23.357 31.0738L23.2096 31.0443C23.1801 31.0148 23.1801 30.9264 23.2391 30.8969H24.0351C24.0646 31.1917 24.153 31.4275 24.2415 31.6634L24.6837 32.7542C24.7132 32.8427 24.8311 33.0786 24.8606 33.167C24.9195 33.0196 24.9785 32.9017 25.067 32.6953L25.4502 31.8109C25.5681 31.516 25.7156 31.2211 25.7745 30.9263H26.5116C26.541 30.9558 26.5705 31.0443 26.5116 31.0738L26.3936 31.1033C26.2167 31.1328 26.1873 31.2212 26.1873 31.4571C26.1873 32.1352 26.1873 32.8427 26.2168 33.5208C26.2168 33.8451 26.2757 33.8746 26.3936 33.8746C26.4231 33.8451 26.5411 33.8746 26.5411 33.8746ZM28.1036 32.8427C27.9857 32.8427 28.0151 32.8427 27.9562 32.9606L27.7793 33.5208C27.6908 33.7861 27.7203 33.8156 27.8677 33.8451L27.9857 33.8746C28.0152 33.9041 28.0152 33.9925 27.9857 34.022H27.1896C27.1602 33.9925 27.1602 33.9335 27.1896 33.8746L27.3076 33.8451C27.4255 33.8156 27.455 33.7861 27.5139 33.6387C27.5729 33.5207 27.6319 33.3144 27.7203 33.0786L28.251 31.4276C28.31 31.2802 28.3394 31.1622 28.3394 31.0738C28.4869 31.0443 28.6048 30.838 28.6048 30.838C28.6343 30.838 28.6637 30.8379 28.6637 30.8674C28.7227 31.0738 28.7817 31.3096 28.8406 31.516L29.4008 33.4618C29.4892 33.7861 29.5187 33.8156 29.7251 33.8451H29.784C29.8135 33.8745 29.8135 33.963 29.784 33.9924H28.7817C28.7522 33.963 28.7522 33.8745 28.7817 33.8451H28.8701C29.0175 33.8156 29.0175 33.7861 28.988 33.6092L28.8111 32.9606C28.7817 32.8427 28.7522 32.8427 28.6342 32.8427H28.1036ZM28.5753 32.6363C28.6539 32.6363 28.6834 32.597 28.6637 32.5184L28.4868 31.9582C28.4279 31.7224 28.3984 31.6339 28.3689 31.5749C28.3394 31.6044 28.31 31.7224 28.251 31.9582L28.0741 32.5184C28.0545 32.6167 28.0741 32.6658 28.1331 32.6658C28.1625 32.6363 28.5753 32.6363 28.5753 32.6363ZM32.8501 33.1964V34.022C32.8207 34.0809 32.7617 34.0809 32.7027 34.0809C32.6438 33.9924 32.5258 33.8156 32.231 33.4324L31.2876 32.1941C31.0223 31.8403 30.9044 31.6634 30.8454 31.6045V32.8132C30.8454 33.1669 30.8454 33.5797 30.9044 33.7271C30.9338 33.7861 31.0223 33.8156 31.1107 33.8451H31.1992C31.2286 33.8745 31.2286 33.963 31.1992 33.9924H30.3442C30.3147 33.963 30.3147 33.904 30.3442 33.8451L30.4326 33.8156C30.5211 33.8156 30.58 33.7861 30.6095 33.6977C30.6685 33.5503 30.6685 33.1375 30.6685 32.7837V31.6634C30.6685 31.3096 30.6685 31.2212 30.5506 31.1033C30.5211 31.0738 30.4032 31.0148 30.3442 31.0148H30.2852C30.2557 30.9853 30.2558 30.8969 30.3147 30.8674C30.4621 30.8969 30.698 30.8674 30.7864 30.8674H31.0517C31.1107 31.0738 31.553 31.6634 31.7004 31.8403L32.0836 32.3415C32.2605 32.5479 32.6143 33.0491 32.6732 33.0786V32.0467C32.6732 31.6929 32.6733 31.2801 32.5848 31.1327C32.5553 31.0738 32.4964 31.0443 32.3784 31.0148H32.29C32.2605 30.9853 32.2605 30.8969 32.29 30.8674H33.145C33.1745 30.8969 33.1745 30.9558 33.145 31.0148L33.0565 31.0443C32.9681 31.0443 32.9091 31.0738 32.8796 31.1622C32.8207 31.3096 32.8207 31.7224 32.8207 32.0762C32.8502 32.0762 32.8501 33.1964 32.8501 33.1964ZM34.3242 31.6045C34.3242 31.1622 34.3242 31.1033 34.1473 31.0738H34.0589C34.0294 31.0443 34.0294 30.9558 34.0589 30.9558C34.3537 30.9264 34.6485 30.9263 35.0613 30.9263C35.4445 30.9263 35.7099 30.9559 36.0047 31.0738C36.4764 31.2802 36.8302 31.7813 36.8302 32.4594C36.8302 32.9901 36.6238 33.5207 36.1226 33.8156C35.8278 33.9924 35.5035 34.0515 35.1497 34.0515C34.9139 34.0515 34.7075 34.022 34.5601 34.022H34.0589C34.0294 33.9925 34.0294 33.9335 34.0589 33.8746H34.1473C34.3242 33.8451 34.3832 33.8451 34.3832 33.3439C34.3242 33.3144 34.3242 31.6045 34.3242 31.6045ZM34.7959 33.1375C34.7959 33.5797 34.8254 33.8451 35.2382 33.8451C35.9457 33.8451 36.27 33.2554 36.27 32.4594C36.27 31.5455 35.8278 31.0738 35.1497 31.0738C34.9728 31.0738 34.8549 31.1032 34.8254 31.1327C34.7959 31.1622 34.7959 31.2507 34.7959 31.4865V33.1375ZM37.98 32.8427C37.921 32.8427 37.8719 32.882 37.8326 32.9606L37.6557 33.5208C37.5672 33.7861 37.5967 33.8156 37.7441 33.8451L37.8621 33.8746C37.8915 33.9041 37.8915 33.9925 37.8621 34.022H37.066C37.0365 33.9925 37.0365 33.9335 37.066 33.8746L37.184 33.8451C37.3019 33.8156 37.3314 33.7861 37.3903 33.6387C37.4493 33.5207 37.5082 33.3144 37.5967 33.0786L38.1274 31.4276C38.1864 31.2802 38.2158 31.1622 38.2158 31.0738C38.3632 31.0443 38.4812 30.838 38.4812 30.838C38.5107 30.838 38.5401 30.8379 38.5401 30.8674C38.5991 31.0738 38.6581 31.3096 38.717 31.516L39.2772 33.4618C39.3656 33.7861 39.3951 33.8156 39.6015 33.8451H39.6604C39.6899 33.8745 39.6899 33.963 39.6604 33.9924H38.6581C38.6286 33.963 38.6286 33.8745 38.6581 33.8451H38.7465C38.8939 33.8156 38.8939 33.7861 38.8349 33.6092L38.6581 32.9606C38.6286 32.8427 38.5991 32.8427 38.4812 32.8427H37.98ZM38.4517 32.6363C38.5303 32.6363 38.5598 32.597 38.5401 32.5184L38.3632 31.9582C38.3043 31.7224 38.2748 31.6339 38.2453 31.5749C38.2158 31.6044 38.1864 31.7224 38.1274 31.9582L37.9505 32.5184C37.9309 32.6167 37.9505 32.6658 38.0094 32.6658C38.0389 32.6363 38.4517 32.6363 38.4517 32.6363ZM40.4564 31.6045C40.4564 31.1622 40.4565 31.1033 40.2796 31.0738H40.1911C40.1616 31.0443 40.1616 30.9558 40.1911 30.9558C40.427 30.9264 40.7807 30.9263 41.105 30.9263C41.4293 30.9263 41.6947 30.9853 41.8716 31.0738C42.0779 31.1917 42.2253 31.4275 42.2253 31.7518C42.2253 32.1941 41.9305 32.4004 41.7536 32.4889C41.7242 32.4889 41.7242 32.5479 41.7536 32.5773C42.0779 33.1965 42.2843 33.6092 42.4612 33.7861C42.5791 33.9041 42.6381 33.904 42.6676 33.904C42.697 33.9335 42.6676 34.022 42.6676 34.022H41.9895C41.9895 34.022 41.8715 33.8746 41.6357 33.4324C41.5178 33.226 41.4293 32.9901 41.3114 32.7837C41.2525 32.6363 41.1935 32.6363 41.0756 32.6363C40.9969 32.6363 40.9576 32.6658 40.9576 32.7247V33.3144C40.9576 33.8156 40.9871 33.8156 41.1935 33.8451H41.2819C41.3114 33.8745 41.3114 33.963 41.2819 33.9924C40.9281 33.963 40.5744 33.963 40.2206 33.9924C40.1911 33.963 40.1911 33.904 40.2206 33.8451H40.309C40.4859 33.8156 40.5449 33.8156 40.5449 33.3144C40.4564 33.3144 40.4564 31.6045 40.4564 31.6045ZM40.9281 32.2825C40.9281 32.3808 40.9871 32.43 41.105 32.43C41.4883 32.43 41.6652 32.1941 41.6652 31.7518C41.6652 31.3686 41.4588 31.0738 41.105 31.0738C40.9674 31.0738 40.8987 31.1524 40.8987 31.3096C40.9282 31.3096 40.9281 32.2825 40.9281 32.2825ZM54.4013 31.6045C54.4013 31.1622 54.4013 31.1033 54.2244 31.0738H54.136C54.1065 31.0443 54.1065 30.9558 54.136 30.9558C54.3718 30.9264 54.7256 30.9263 55.0499 30.9263C55.3742 30.9263 55.6396 30.9853 55.8165 31.0738C56.0228 31.1917 56.1702 31.4275 56.1702 31.7518C56.1702 32.1941 55.8754 32.4004 55.6985 32.4889C55.669 32.4889 55.669 32.5479 55.6985 32.5773C56.0228 33.1965 56.2292 33.6092 56.4061 33.7861C56.524 33.9041 56.583 33.904 56.6125 33.904C56.6419 33.9335 56.6125 34.022 56.6125 34.022H55.9344C55.9344 34.022 55.8164 33.8746 55.5806 33.4324C55.4627 33.226 55.3742 32.9901 55.2563 32.7837C55.1973 32.6363 55.1383 32.6363 55.0204 32.6363C54.9025 32.6363 54.9025 32.6363 54.9025 32.7247V33.3144C54.9025 33.8156 54.932 33.8156 55.1384 33.8451H55.2268C55.2563 33.8745 55.2563 33.963 55.2268 33.9924C54.873 33.963 54.5192 33.963 54.1654 33.9924C54.136 33.963 54.136 33.904 54.1654 33.8451H54.2539C54.4308 33.8156 54.4898 33.8156 54.4898 33.3144L54.4013 31.6045ZM54.873 32.2825C54.873 32.3808 54.932 32.43 55.0499 32.43C55.4332 32.43 55.6101 32.1941 55.6101 31.7518C55.6101 31.3686 55.4037 31.0738 55.0499 31.0738C54.9123 31.0738 54.8435 31.1524 54.8435 31.3096C54.873 31.3096 54.873 32.2825 54.873 32.2825ZM43.9648 33.3144C43.9648 33.8156 43.9942 33.8156 44.2006 33.8451H44.2891C44.3185 33.8745 44.3185 33.963 44.2891 33.9924C43.9353 33.963 43.5815 33.963 43.2277 33.9924C43.1982 33.963 43.1982 33.904 43.2277 33.8451H43.3162C43.4931 33.8156 43.552 33.8156 43.552 33.3144V31.5749C43.552 31.0738 43.5225 31.0738 43.3162 31.0443H43.2277C43.1982 31.0148 43.1982 30.9264 43.2277 30.8969C43.5815 30.9264 43.9353 30.9264 44.2891 30.8969C44.3185 30.9264 44.3185 30.9853 44.2891 31.0443H44.2006C44.0237 31.0738 43.9648 31.0738 43.9648 31.5749V33.3144ZM47.7974 33.1964V34.022C47.7679 34.0809 47.7089 34.0809 47.65 34.0809C47.591 33.9924 47.4731 33.8156 47.1783 33.4324L46.2349 32.1941C45.9695 31.8403 45.8516 31.6634 45.7926 31.6045V32.8132C45.7926 33.1669 45.7927 33.5797 45.8516 33.7271C45.8811 33.7861 45.9401 33.8156 46.058 33.8451H46.1464C46.1759 33.8745 46.1759 33.963 46.1464 33.9924H45.2914C45.262 33.963 45.262 33.904 45.2914 33.8451L45.3799 33.8156C45.4683 33.8156 45.5273 33.7861 45.5568 33.6977C45.6157 33.5503 45.6158 33.1375 45.6158 32.7837V31.6634C45.6158 31.3096 45.6157 31.2212 45.4978 31.1033C45.4683 31.0738 45.3504 31.0148 45.2914 31.0148H45.2325C45.203 30.9853 45.203 30.8969 45.262 30.8674C45.4094 30.8969 45.6452 30.8674 45.7337 30.8674H45.999C46.058 31.0738 46.5002 31.6634 46.6476 31.8403L47.0309 32.3415C47.2078 32.5479 47.5615 33.0491 47.6205 33.0786V32.0467C47.6205 31.6929 47.6205 31.2801 47.5321 31.1327C47.5026 31.0738 47.4436 31.0443 47.3257 31.0148H47.2373C47.2078 30.9853 47.2078 30.8969 47.2373 30.8674H48.0922C48.1217 30.8969 48.1217 30.9558 48.0922 31.0148L48.0038 31.0443C47.9153 31.0443 47.8564 31.0738 47.8269 31.1622C47.7679 31.3096 47.7679 31.7224 47.7679 32.0762C47.7974 32.0762 47.7974 33.1964 47.7974 33.1964ZM53.222 32.4594C53.222 33.3733 52.6324 34.0515 51.8364 34.0515C50.9519 34.0515 50.4213 33.3144 50.4213 32.4889C50.4213 31.5455 51.0109 30.8379 51.8364 30.8379C52.7503 30.8379 53.222 31.6044 53.222 32.4594ZM50.952 32.3415C50.952 32.9901 51.1878 33.8746 51.8659 33.8746C52.3081 33.8746 52.6914 33.4912 52.6914 32.5478C52.6914 31.8403 52.4261 31.0148 51.7775 31.0148C51.3942 31.0148 50.952 31.3391 50.952 32.3415ZM58.234 33.3144C58.234 33.8156 58.2634 33.8156 58.4698 33.8451H58.5583C58.5877 33.8745 58.5877 33.963 58.5583 33.9924C58.2045 33.963 57.8507 33.963 57.4969 33.9924C57.4674 33.963 57.4674 33.904 57.4969 33.8451H57.5853C57.7622 33.8156 57.8212 33.8156 57.8212 33.3144V31.5749C57.8212 31.0738 57.7917 31.0738 57.5853 31.0443H57.4969C57.4674 31.0148 57.4674 30.9264 57.4969 30.8969C57.8507 30.9264 58.2045 30.9264 58.5583 30.8969C58.5877 30.9264 58.5877 30.9853 58.5583 31.0443H58.4698C58.2929 31.0738 58.234 31.0738 58.234 31.5749V33.3144ZM60.0913 31.5749C60.0913 31.0738 60.0618 31.0738 59.8555 31.0443H59.7965C59.767 31.0148 59.767 30.9264 59.7965 30.8969H61.5949C61.6244 30.9853 61.6244 31.3391 61.6538 31.5455C61.6244 31.575 61.5654 31.6044 61.5359 31.5749C61.4769 31.3096 61.418 31.1917 61.3 31.1622C61.2116 31.1328 61.0937 31.1327 60.9758 31.1327H60.7104C60.5925 31.1327 60.5335 31.2212 60.5335 31.3981V32.1941C60.5335 32.2727 60.563 32.312 60.622 32.312H60.7989C61.1527 32.312 61.2116 32.312 61.2411 32.1056L61.2706 31.9582C61.3 31.9287 61.3885 31.9287 61.3885 31.9582V32.9311C61.359 32.9606 61.3 32.9606 61.2706 32.9311L61.2411 32.7542C61.2116 32.5479 61.1527 32.5478 60.7989 32.5478H60.622C60.563 32.5478 60.5335 32.5872 60.5335 32.6658V33.2555C60.5335 33.4913 60.5335 33.6682 60.5925 33.7271C60.6514 33.7861 60.7104 33.8156 61.0347 33.8156C61.5359 33.8156 61.6243 33.6977 61.7718 33.3144C61.8012 33.2849 61.8897 33.2849 61.8897 33.3439C61.8602 33.5503 61.7717 33.904 61.7128 34.022H59.708C59.6786 33.9925 59.6786 33.9335 59.708 33.8746L59.8555 33.8451C60.0323 33.8156 60.0913 33.8156 60.0913 33.3144V31.5749ZM65.3685 33.1964V34.022C65.3391 34.0809 65.2801 34.0809 65.2211 34.0809C65.1622 33.9924 65.0442 33.8156 64.7494 33.4324L63.806 32.1941C63.5407 31.8403 63.4227 31.6634 63.3638 31.6045V32.8132C63.3638 33.1669 63.3638 33.5797 63.4227 33.7271C63.4522 33.7861 63.5406 33.8156 63.6291 33.8451H63.7176C63.7471 33.8745 63.7471 33.963 63.7176 33.9924H62.8626C62.8331 33.963 62.8331 33.904 62.8626 33.8451L62.951 33.8156C63.0395 33.8156 63.0984 33.7861 63.1279 33.6977C63.1869 33.5503 63.1869 33.1375 63.1869 32.7837V31.6634C63.1869 31.3096 63.1869 31.2212 63.069 31.1033C63.0395 31.0738 62.9216 31.0148 62.8626 31.0148H62.8036C62.7741 30.9853 62.7741 30.8969 62.8331 30.8674C62.9805 30.8969 63.2164 30.8674 63.3048 30.8674H63.5701C63.6291 31.0738 64.0714 31.6634 64.2188 31.8403L64.602 32.3415C64.7789 32.5479 65.1327 33.0491 65.1917 33.0786V32.0467C65.1917 31.6929 65.1917 31.2801 65.1032 31.1327C65.0737 31.0738 65.0147 31.0443 64.8968 31.0148H64.8084C64.7789 30.9853 64.7789 30.8969 64.8084 30.8674H65.6633C65.6928 30.8969 65.6928 30.9558 65.6633 31.0148L65.5749 31.0443C65.4865 31.0443 65.4275 31.0738 65.398 31.1622C65.339 31.3096 65.3391 31.7224 65.3391 32.0762L65.3685 33.1964ZM67.6386 31.2802C67.6386 31.1426 67.5993 31.0738 67.5207 31.0738H67.2848C66.9311 31.0738 66.8131 31.1327 66.6657 31.516C66.6362 31.5455 66.5478 31.516 66.5478 31.4865C66.6068 31.2212 66.6657 30.9558 66.6952 30.7789L66.7247 30.7494C66.7444 30.7494 66.7542 30.7593 66.7542 30.7789C66.7837 30.8969 66.8426 30.8969 67.108 30.8969H68.7295C68.9358 30.8969 68.9948 30.8969 69.0243 30.7789C69.0537 30.7789 69.0538 30.7494 69.0832 30.7494C69.1029 30.7494 69.1226 30.7593 69.1422 30.7789C69.1127 30.9558 69.0832 31.3686 69.0832 31.516C69.0537 31.5455 68.9948 31.575 68.9653 31.516C68.9064 31.1622 68.8474 31.0738 68.4051 31.0738H68.1693C68.0907 31.0738 68.0514 31.1426 68.0514 31.2802V33.2849C68.0514 33.7861 68.0809 33.7861 68.2872 33.8156L68.4347 33.8451C68.4641 33.8745 68.4641 33.963 68.4347 33.9924H67.2259C67.1964 33.963 67.1964 33.8745 67.2259 33.8451L67.4028 33.8156C67.5797 33.7861 67.6386 33.7861 67.6386 33.2849V31.2802ZM70.5278 32.8427C70.4099 32.8427 70.4394 32.8427 70.3804 32.9606L70.2035 33.5208C70.1151 33.7861 70.1446 33.8156 70.292 33.8451L70.4099 33.8746C70.4394 33.9041 70.4394 33.9925 70.4099 34.022H69.6139C69.5844 33.9925 69.5844 33.9335 69.6139 33.8746L69.7318 33.8451C69.8497 33.8156 69.8792 33.7861 69.9382 33.6387C69.9972 33.5207 70.0561 33.3144 70.1446 33.0786L70.6752 31.4276C70.7342 31.2802 70.7637 31.1622 70.7637 31.0738C70.9111 31.0443 71.029 30.838 71.029 30.838C71.0585 30.838 71.088 30.8379 71.088 30.8674C71.1469 31.0738 71.2059 31.3096 71.2649 31.516L71.825 33.4618C71.9135 33.7861 71.943 33.8156 72.1493 33.8451H72.2083C72.2378 33.8745 72.2378 33.963 72.2083 33.9924H71.2059C71.1764 33.963 71.1764 33.8745 71.2059 33.8451H71.2944C71.4418 33.8156 71.4418 33.7861 71.4123 33.6092L71.2354 32.9606C71.2059 32.8427 71.1764 32.8427 71.0585 32.8427H70.5278ZM70.9995 32.6363C71.0781 32.6363 71.1076 32.597 71.088 32.5184L70.9111 31.9582C70.8521 31.7224 70.8227 31.6339 70.7932 31.5749C70.7637 31.6044 70.7342 31.7224 70.6753 31.9582L70.4984 32.5184C70.4787 32.6167 70.4983 32.6658 70.5573 32.6658C70.5868 32.6363 70.9995 32.6363 70.9995 32.6363ZM73.8298 33.1964C73.8298 33.4323 73.8298 33.6092 73.8888 33.6682C73.9477 33.7271 74.0067 33.7566 74.331 33.7566C74.7732 33.7566 74.8322 33.7272 75.0091 33.2555C75.0385 33.226 75.127 33.2554 75.127 33.2849C75.0975 33.4913 75.0091 33.8451 74.9501 33.963H73.0338C73.0043 33.9335 73.0043 33.845 73.0338 33.8156L73.1517 33.7861C73.3286 33.7566 73.3876 33.7567 73.3876 33.2555V31.516C73.3876 31.0443 73.3581 31.0148 73.1517 30.9853L73.0338 30.9558C73.0043 30.9264 73.0043 30.8379 73.0338 30.8085H74.1246C74.1541 30.8379 74.1541 30.9264 74.1246 30.9558L74.0362 30.9853C73.8593 31.0148 73.8003 31.0443 73.8003 31.516L73.8298 33.1964ZM50.2444 19.399C49.7727 19.3695 49.2715 19.3695 48.7998 19.399L49.4189 25.2364H49.6842C49.6842 25.2659 50.2444 19.399 50.2444 19.399ZM50.3033 18.9273C49.8021 18.8978 49.2715 18.8978 48.7408 18.9273L46.7066 0L52.0723 0.707553C52.0723 0.707553 50.3033 18.9273 50.3033 18.9273ZM52.1902 19.7528C51.7185 19.6054 51.2468 19.5169 50.7751 19.4579L50.156 25.2953L50.3918 25.3544L52.1902 19.7528ZM52.3376 19.3106C51.8364 19.1632 51.3352 19.0452 50.834 18.9862L52.8093 0.0589364L57.9096 1.88683L52.3376 19.3106ZM48.2691 19.4579C47.7974 19.5169 47.3257 19.6349 46.854 19.7528L48.6818 25.3544L48.9177 25.2953C48.9472 25.2953 48.2691 19.4579 48.2691 19.4579ZM48.2101 18.9862C47.709 19.0452 47.1783 19.1632 46.7066 19.3106L40.7513 1.23822L46.1464 0.795997L48.2101 18.9862ZM46.3528 19.9297C46.1169 20.0181 45.9106 20.1066 45.7042 20.195C45.4683 20.2835 45.262 20.4013 45.0261 20.5193L48.0038 25.5902L48.2396 25.4722C48.2396 25.5017 46.3528 19.9297 46.3528 19.9297ZM46.2054 19.4875C45.7042 19.6643 45.2325 19.8707 44.7903 20.1361L35.2087 3.68522L40.3975 2.15217L46.2054 19.4875ZM44.5839 20.7846C44.3775 20.9025 44.2006 21.05 43.9943 21.1679C43.7879 21.3153 43.611 21.4627 43.4046 21.6396L47.3552 25.9735L47.5615 25.826C47.591 25.8555 44.5839 20.7846 44.5839 20.7846ZM44.348 20.3719C44.1417 20.4898 43.9353 20.6372 43.7289 20.7846C43.5226 20.932 43.3162 21.109 43.1098 21.2858L30.2558 7.22307L35.0023 4.6286L44.348 20.3719ZM43.0508 21.9934C42.6971 22.3177 42.3728 22.701 42.078 23.0842L46.854 26.5041L47.0309 26.3272C47.0309 26.3272 43.0508 21.9934 43.0508 21.9934ZM42.6971 21.6396C42.3138 21.9934 41.9895 22.3766 41.6652 22.7894L26.1873 11.7337L30.2852 8.19595L42.6971 21.6396ZM41.7831 23.5265C41.5178 23.9392 41.2819 24.352 41.0756 24.7942L46.4412 27.1232L46.5592 26.9168L41.7831 23.5265ZM41.3704 23.2316C41.0755 23.6738 40.8102 24.1161 40.6038 24.5878L23.1506 16.9815L26.4231 12.6772L41.3704 23.2316ZM54.0181 20.5193C53.6053 20.2834 53.1631 20.0771 52.6914 19.9297L50.8635 25.5312L51.0994 25.6491C51.0994 25.6196 53.9886 20.5193 54.0181 20.5193ZM54.2539 20.1066C53.8117 19.8707 53.34 19.6349 52.8388 19.4875L58.7351 1.38568L63.3343 4.2454C63.3048 4.21592 54.2539 20.1066 54.2539 20.1066ZM55.6396 21.6396C55.4627 21.4922 55.2858 21.3448 55.0794 21.1974C54.873 21.05 54.6667 20.9025 54.4603 20.7846L51.5121 25.885L51.7185 26.0324C51.7185 26.0029 55.6396 21.6396 55.6396 21.6396ZM55.9638 21.2563C55.7869 21.0794 55.5806 20.932 55.3742 20.7846C55.1678 20.6372 54.932 20.4898 54.7256 20.3424L64.2777 3.86211L68.1988 7.60627C68.1398 7.63576 55.9638 21.2563 55.9638 21.2563ZM56.9662 23.0547C56.6714 22.6715 56.3471 22.3177 55.9933 21.9639L52.0723 26.3272L52.2491 26.5041L56.9662 23.0547ZM57.379 22.7894C57.0547 22.3766 56.7304 21.9934 56.3471 21.6396L69.1127 7.51783L72.1493 11.9991L57.379 22.7894ZM57.9981 24.7352C57.9096 24.5288 57.7917 24.3224 57.6738 24.1161C57.5559 23.9097 57.4085 23.7033 57.2905 23.4969L52.5145 26.9168L52.6324 27.1232L57.9981 24.7352ZM58.4403 24.5583C58.2339 24.0866 57.9686 23.6444 57.6738 23.2022L73.1222 12.0581L75.1565 17.07L58.4403 24.5583Z" fill="#202020"/>
</g>
</g>
</svg>
