<?xml version="1.0" standalone="no"?>
<!DOCTYPE svg PUBLIC "-//W3C//DTD SVG 20010904//EN"
 "http://www.w3.org/TR/2001/REC-SVG-20010904/DTD/svg10.dtd">
<svg version="1.0" xmlns="http://www.w3.org/2000/svg"
 width="775.000000pt" height="563.000000pt" viewBox="0 0 775.000000 563.000000"
 preserveAspectRatio="xMidYMid meet">

<g transform="translate(0.000000,563.000000) scale(0.100000,-0.100000)"
fill="#000000" stroke="none">
<path d="M305 2815 l0 -885 893 0 892 0 0 885 0 885 -892 0 -893 0 0 -885z
m1091 630 c44 -13 108 -41 142 -62 86 -51 198 -170 245 -260 134 -256 91 -553
-109 -763 -83 -87 -166 -140 -279 -177 -68 -22 -98 -26 -195 -26 -97 0 -127 4
-195 26 -494 162 -625 782 -239 1130 84 76 209 135 332 157 76 14 211 3 298
-25z"/>
<path d="M882 3073 c-27 -82 -84 -247 -126 -367 -42 -120 -76 -223 -76 -227 0
-5 55 -9 123 -9 l123 0 44 110 c25 61 47 110 50 110 3 0 21 -46 41 -103 l36
-102 100 -3 101 -3 37 106 c21 58 42 105 46 105 5 0 9 -5 9 -11 0 -5 19 -55
41 -110 l41 -99 125 0 c98 0 124 3 121 13 -2 7 -59 176 -128 375 l-125 362
-86 0 -87 0 -36 -86 c-20 -48 -39 -97 -42 -110 -3 -13 -9 -24 -13 -24 -3 0
-26 50 -51 110 l-44 110 -86 0 -87 0 -51 -147z"/>
<path d="M2433 3070 c-13 -5 -23 -11 -23 -12 0 -2 -7 -35 -15 -73 -21 -99 -38
-370 -25 -395 13 -24 44 -34 68 -21 17 9 20 26 26 128 4 65 9 142 13 171 l5
53 37 -62 c40 -68 79 -96 111 -79 22 12 90 108 90 127 0 7 4 13 8 13 10 0 22
-151 22 -268 0 -70 1 -73 27 -83 19 -7 35 -7 52 1 l24 11 -7 159 c-10 229 -29
323 -67 335 -11 4 -33 4 -49 0 -26 -6 -36 -19 -71 -91 -22 -48 -45 -84 -52
-81 -6 2 -29 37 -49 78 -50 98 -69 111 -125 89z"/>
<path d="M4932 3064 c-50 -35 -10 -84 70 -84 l48 0 0 -190 c0 -177 1 -191 20
-210 23 -23 33 -24 61 -10 18 10 19 23 19 210 l0 200 55 0 c82 0 124 49 73 84
-18 13 -53 16 -173 16 -120 0 -155 -3 -173 -16z"/>
<path d="M6967 3062 c-15 -16 -17 -48 -17 -244 0 -205 2 -226 18 -241 24 -22
38 -21 62 3 19 19 20 33 20 238 0 181 -3 221 -16 240 -18 27 -45 28 -67 4z"/>
<path d="M3038 2941 c-82 -27 -127 -96 -128 -197 0 -105 60 -167 176 -179 118
-13 194 11 168 53 -9 13 -31 18 -104 23 -89 6 -95 7 -122 38 -15 17 -28 36
-28 41 0 6 46 10 114 10 128 0 146 8 146 62 0 41 -37 105 -76 129 -37 22 -107
32 -146 20z m96 -92 c47 -37 35 -49 -49 -49 -76 0 -85 4 -62 32 32 41 73 47
111 17z"/>
<path d="M4083 2937 c-102 -38 -152 -168 -104 -273 32 -71 102 -103 221 -104
69 0 105 17 105 50 0 24 -2 25 -90 30 -94 6 -128 17 -145 50 -20 37 -13 40 96
40 130 0 144 6 144 64 0 56 -32 104 -90 134 -48 24 -88 27 -137 9z m90 -78
c25 -14 37 -28 37 -46 0 -9 -21 -13 -70 -13 -79 0 -90 13 -44 49 30 24 46 26
77 10z"/>
<path d="M6650 2939 c-104 -31 -160 -168 -111 -275 24 -53 60 -80 122 -93 115
-25 204 -8 204 39 0 24 -2 25 -90 30 -94 6 -128 17 -145 50 -20 37 -13 40 96
40 130 0 144 6 144 64 0 102 -112 176 -220 145z m83 -80 c25 -14 37 -28 37
-46 0 -9 -21 -13 -70 -13 -79 0 -90 13 -44 49 30 24 46 26 77 10z"/>
<path d="M3332 2928 c-8 -8 -12 -61 -12 -174 0 -134 3 -165 16 -178 18 -19 28
-20 55 -6 17 10 19 22 19 115 0 105 10 152 32 159 7 3 30 7 50 11 30 5 39 11
44 32 12 48 -56 71 -105 37 -22 -16 -24 -16 -33 0 -11 19 -49 21 -66 4z"/>
<path d="M5827 2924 c-22 -12 -32 -13 -42 -4 -22 18 -58 8 -72 -20 -14 -27
-18 -232 -7 -290 9 -43 46 -61 74 -35 18 16 20 31 20 127 0 102 1 110 25 133
30 31 69 32 89 3 12 -17 16 -49 16 -135 0 -114 9 -143 45 -143 7 0 21 7 29 16
13 12 16 40 16 142 0 108 -3 132 -20 159 -35 59 -113 80 -173 47z"/>
<path d="M6247 2920 c-21 -17 -26 -18 -31 -5 -8 22 -63 19 -76 -4 -5 -11 -10
-83 -10 -163 0 -114 3 -148 16 -166 18 -26 33 -28 60 -8 16 12 20 30 24 132 5
113 6 118 32 137 23 17 33 19 55 11 l28 -9 2 -110 c3 -132 7 -151 34 -165 16
-9 26 -8 45 5 23 15 24 19 24 136 0 137 -13 179 -64 210 -41 25 -106 25 -139
-1z"/>
<path d="M3606 2904 c-19 -20 -26 -37 -26 -66 0 -59 30 -83 121 -97 94 -15
119 -26 119 -50 0 -38 -37 -51 -141 -51 -79 0 -98 -3 -103 -16 -9 -24 -8 -31
10 -48 12 -12 38 -16 114 -16 54 0 111 5 127 11 66 25 100 89 82 155 -13 46
-53 69 -143 85 -73 12 -114 33 -85 43 8 3 54 7 103 8 70 2 91 7 99 20 8 12 7
21 -2 32 -11 13 -36 16 -131 16 -113 0 -118 -1 -144 -26z"/>
<path d="M4392 2918 c-34 -34 2 -195 67 -292 l39 -59 -39 -49 c-21 -28 -39
-53 -39 -58 0 -4 8 -18 18 -30 28 -34 56 -18 120 68 65 88 122 194 145 267 37
119 30 165 -24 165 -33 0 -42 -14 -58 -97 -6 -29 -25 -83 -42 -120 l-31 -68
-35 72 c-21 44 -36 93 -40 130 -3 32 -10 64 -16 71 -12 15 -49 16 -65 0z"/>
<path d="M5296 2914 c-3 -9 -6 -72 -6 -140 0 -144 11 -177 65 -200 44 -18 77
-18 121 1 32 13 37 13 51 0 17 -18 28 -19 54 -5 18 10 19 23 19 170 0 87 -3
165 -6 174 -7 19 -55 21 -72 4 -8 -8 -12 -47 -12 -107 0 -105 -11 -137 -51
-160 -24 -13 -29 -13 -53 2 -26 17 -26 19 -26 135 0 78 -4 122 -12 130 -17 17
-65 15 -72 -4z"/>
<path d="M7134 2906 c-23 -19 -29 -32 -29 -66 0 -59 32 -84 127 -100 90 -15
108 -24 108 -55 0 -36 -27 -45 -134 -45 -85 0 -96 -2 -106 -20 -8 -16 -6 -24
11 -41 19 -19 30 -21 133 -18 128 5 165 21 187 87 17 49 17 53 2 84 -21 43
-59 65 -131 77 -89 16 -104 21 -99 34 2 8 40 14 103 17 l99 5 0 30 0 30 -122
3 c-116 2 -122 2 -149 -22z"/>
</g>
</svg>
