<svg width="98" height="36" viewBox="0 0 98 36" fill="none" xmlns="http://www.w3.org/2000/svg">
<g id="Group">
<g id="Group_2">
<path id="Vector" d="M58.2027 15.638V9.29826H51.7221V15.638H48.9045V0.281787H51.7221V6.62152H58.2027V0.281787H61.0204V15.4971H58.2027V15.638ZM43.6918 3.66292C43.9735 4.08557 43.9735 4.64913 43.9735 5.21267V15.4971H46.7912V4.22649C46.7912 3.09942 46.5094 2.25409 46.0868 1.54967C45.5233 0.563488 44.2553 0 42.8465 0C40.8741 0 39.4653 0.986179 38.1973 2.11324L37.4929 2.81763V0.281787H32.7029V2.53585H34.8161V15.638H37.6338V4.36738L37.7747 4.22649C38.7609 3.38119 40.1697 2.53585 41.5785 2.53585C42.8465 2.53585 43.41 3.09938 43.6918 3.66292Z" fill="#202020"/>
<path id="Vector_2" d="M12.4151 31.8395H7.90683V35.5025H6.92065V27.4721H7.90683V30.9942H12.4151V27.4721H13.4013V35.5025H12.4151V31.8395ZM23.2631 31.5578C23.2631 33.6711 21.9952 35.6434 19.1775 35.6434C16.5007 35.6434 15.0919 33.6711 15.0919 31.5578C15.0919 29.3037 16.6416 27.4721 19.1775 27.4721C21.9952 27.3313 23.404 29.4446 23.2631 31.5578ZM19.3184 28.3175C17.346 28.3175 16.2189 29.8672 16.2189 31.5578C16.2189 33.1075 17.2051 34.7981 19.3184 34.7981C21.4316 34.7981 22.4178 33.2484 22.4178 31.5578C22.4178 29.8672 21.4316 28.3175 19.3184 28.3175ZM23.9675 28.3175V27.4721H30.4482V28.3175H27.7714V35.3616H26.7852V28.3175H23.9675ZM31.857 27.4721H37.4923V28.3175H32.8432V30.8533H37.2105V31.8395H32.8432V34.5163H37.6332V35.5025H31.857V27.4721ZM40.4509 34.5163H44.8182V35.5025H39.4647V27.4721H40.4509L40.4509 34.5163ZM55.1027 29.1628C54.5392 28.5992 53.553 28.1766 52.7077 28.1766C50.5945 28.1766 49.6083 29.7263 49.6083 31.4169C49.6083 32.9666 50.5945 34.5163 52.8486 34.5163C53.553 34.5163 54.3983 34.2346 54.9618 33.6711V31.8395H52.4259V30.9942H55.8071V34.0937C54.9619 34.939 53.9757 35.5025 52.7077 35.5025C49.8901 35.5025 48.4812 33.5302 48.4812 31.4169C48.4812 29.0219 50.0309 27.1904 52.5668 27.1904C53.6939 27.1904 54.6801 27.6131 55.5254 28.3175L55.1027 29.1628ZM60.5972 32.544H58.6248V35.3616H57.6386V27.3313H61.3016C63.1331 27.3313 63.9784 28.5992 63.9784 29.8672C63.9784 31.1351 63.2739 32.2622 61.7242 32.4031L64.401 35.3616H63.1331L60.5972 32.544ZM62.9922 30.0081C62.9922 29.1628 62.4286 28.3175 61.3016 28.3175H58.6248V31.6986H61.1607C62.4286 31.6986 62.9922 30.9942 62.9922 30.0081ZM73.5584 31.5578C73.5584 33.6711 72.2905 35.6434 69.4728 35.6434C66.796 35.6434 65.3872 33.6711 65.3872 31.5578C65.3872 29.3037 66.9369 27.4721 69.4728 27.4721C72.2905 27.3313 73.5584 29.4446 73.5584 31.5578ZM69.6137 28.3175C67.6413 28.3175 66.5143 29.8672 66.5143 31.5578C66.5143 33.1075 67.5005 34.7981 69.6137 34.7981C71.7269 34.7981 72.7131 33.2484 72.7131 31.5578C72.5722 29.8672 71.5861 28.3175 69.6137 28.3175ZM81.8705 27.4721V32.2622C81.8705 34.5163 80.3208 35.6434 78.6302 35.6434C76.9396 35.6434 75.3899 34.5163 75.3899 32.2622V27.4721H76.3761V32.2622C76.3761 33.8119 77.5031 34.6572 78.6302 34.6572C79.8982 34.6572 80.8843 33.8119 80.8843 32.2622V27.4721H81.8705ZM84.97 35.5025H83.9838V27.4721H87.6467C91.3097 27.4721 91.3097 32.8257 87.6467 32.8257H84.97V35.5025ZM87.6467 28.4583H84.97V31.9804H87.6467C90.0418 31.9804 90.0418 28.4583 87.6467 28.4583Z" fill="#202020"/>
<path id="Vector_3" d="M90.4649 21.2734H6.78027V21.5552H90.4649V21.2734Z" fill="#202020"/>
</g>
</g>
</svg>
