<svg width="98" height="36" viewBox="0 0 98 36" fill="none" xmlns="http://www.w3.org/2000/svg">
<g id="Group">
<g id="Group_2">
<path id="Vector" d="M60.8294 32.928L60.8142 29.9694L55.9034 29.9845V27.2242L60.7989 27.2089V24.2502L55.8881 24.2655L55.8271 5.6136L60.7226 5.58307V2.63965L52.8684 2.67018L52.9752 32.9585L60.8294 32.928Z" fill="#202020"/>
<path id="Vector_2" d="M74.6774 5.55244L74.6622 2.59375L64.6423 2.62421V5.58289L68.1806 5.56762L68.2873 32.8973L71.2307 32.8821L71.1392 5.56762L74.6774 5.55244Z" fill="#202020"/>
<path id="Vector_3" d="M45.3505 15.1449C45.3352 11.927 43.9626 9.50215 41.919 7.65678L41.98 23.6092C44.3287 20.7268 45.3657 18.1799 45.3505 15.1449ZM49.0564 32.9733C45.9147 32.7141 43.5966 31.2652 41.9953 28.3675L42.0105 33.0038L39.0671 33.019L38.9451 2.7002C44.9387 4.19479 48.2786 10.768 48.2939 15.0382C48.3092 19.2932 47.3178 21.6267 43.5661 25.8207C44.8014 28.2151 46.5248 29.4961 49.0259 30.0146L49.0564 32.9733Z" fill="#202020"/>
<path id="Vector_4" d="M35.0407 15.084C34.7052 10.9358 31.899 4.27119 25.6919 2.74609L25.7987 33.0497L28.7573 33.0344L28.7421 27.727C28.7268 27.7423 35.6202 22.1147 35.0407 15.084ZM32.082 15.1756C32.0973 18.2258 31.0602 20.7727 28.7116 23.6399L28.6506 7.7026C30.7095 9.54797 32.0668 11.9729 32.082 15.1756Z" fill="#202020"/>
<path id="Vector_5" fill-rule="evenodd" clip-rule="evenodd" d="M8.87028 9.22803L11.2037 16.03L17.548 16.0147L12.4847 19.5987L14.4826 25.7753L8.91603 22.1913L3.41044 25.7753L5.36256 19.614L0.177246 16.0757L6.56739 16.0453L8.87028 9.22803Z" fill="#202020"/>
<path id="Vector_6" fill-rule="evenodd" clip-rule="evenodd" d="M88.7084 8.75488L91.0571 15.5568L97.3862 15.5263L92.3381 19.1256L94.3207 25.3022L88.7542 21.7182L83.2486 25.3022L85.2007 19.1408L80.0154 15.6026L86.4055 15.572L88.7084 8.75488Z" fill="#202020"/>
</g>
</g>
</svg>
