<svg width="98" height="36" viewBox="0 0 98 36" fill="none" xmlns="http://www.w3.org/2000/svg">
<g id="Group">
<g id="layer1">
<g id="g4107">
<path id="path682" d="M29.9604 27.4284V25.7129H28.245V27.4284H27.3301V23.0825H28.245V24.798H29.9604V23.0825H30.8754V27.4284H29.9604Z" fill="#202020"/>
<path id="path694" d="M36.3643 27.4286C35.1063 27.4286 34.1914 26.3993 34.1914 25.1413C34.1914 23.8833 35.1063 22.854 36.3643 22.854C37.6223 22.854 38.5372 23.8833 38.5372 25.1413C38.5372 26.3993 37.6223 27.4286 36.3643 27.4286ZM37.6223 25.2557C37.6223 24.4551 37.0505 23.8833 36.3643 23.8833C35.6782 23.8833 35.1063 24.4551 35.1063 25.2557C35.1063 26.0562 35.6782 26.628 36.3643 26.628C37.0505 26.628 37.6223 25.9419 37.6223 25.2557Z" fill="#202020"/>
<path id="path698" d="M43.4552 23.8832V27.314H42.5403V23.8832H41.2822V22.9683H44.7132V23.8832H43.4552Z" fill="#202020"/>
<path id="path702" d="M48.1438 27.4284V23.0825H51.2316V23.8831H48.9443V24.798H50.8885V25.5985H48.9443V26.5135H51.2316V27.314H48.1438V27.4284Z" fill="#202020"/>
<path id="path706" d="M54.8916 27.4284V23.0825H55.8065V26.6278H57.865V27.5428H54.8916V27.4284Z" fill="#202020"/>
<path id="path710" d="M67.1277 27.4286C65.8697 27.4286 64.9548 26.5137 64.9548 25.1413C64.9548 23.8833 65.8697 22.854 67.1277 22.854C67.9283 22.854 68.3857 23.0827 68.7288 23.4258L68.157 24.112C67.8139 23.8833 67.5852 23.6546 67.0134 23.6546C66.3272 23.6546 65.8697 24.2264 65.8697 25.0269C65.8697 25.8274 66.4415 26.3993 67.1277 26.3993C67.4708 26.3993 67.8139 26.2849 68.0426 26.1706V25.5988H67.1277V24.7982H68.9576V26.7424C68.5001 27.1998 67.9283 27.4286 67.1277 27.4286Z" fill="#202020"/>
<path id="path714" d="M75.2487 27.4284L74.3338 26.056H73.6476V27.4284H72.7327V23.0825H74.6769C75.7061 23.0825 76.2779 23.6544 76.2779 24.5693C76.2779 25.2555 75.9349 25.7129 75.363 25.9416L76.3923 27.5427L75.2487 27.4284ZM75.2487 24.4549C75.2487 23.9975 75.02 23.8831 74.5625 23.8831H73.6476V25.1411H74.5625C75.02 25.1411 75.2487 24.9124 75.2487 24.4549Z" fill="#202020"/>
<path id="path718" d="M81.6524 27.4286C80.3944 27.4286 79.4795 26.3993 79.4795 25.1413C79.4795 23.8833 80.3944 22.854 81.6524 22.854C82.9104 22.854 83.8253 23.8833 83.8253 25.1413C83.8253 26.3993 82.9104 27.4286 81.6524 27.4286ZM82.9104 25.2557C82.9104 24.4551 82.3386 23.8833 81.6524 23.8833C80.9662 23.8833 80.3944 24.4551 80.3944 25.2557C80.3944 26.0562 80.9662 26.628 81.6524 26.628C82.3386 26.628 82.9104 25.9419 82.9104 25.2557Z" fill="#202020"/>
<path id="path722" d="M88.9714 27.4284C87.8278 27.4284 87.1416 26.7422 87.1416 25.4843V22.9683H88.0565V25.4843C88.0565 26.1704 88.3996 26.5135 88.9714 26.5135C89.5433 26.5135 89.8863 26.1704 89.8863 25.4843V22.9683H90.8013V25.4843C90.8013 26.8566 90.0007 27.4284 88.9714 27.4284Z" fill="#202020"/>
<path id="path726" d="M95.8333 26.0561H95.1471V27.314H94.2322V22.9683H95.9476C96.9769 22.9683 97.5487 23.54 97.5487 24.455C97.5487 25.5986 96.7482 26.0561 95.8333 26.0561ZM96.6338 24.5694C96.6338 24.1119 96.4051 23.8832 95.8333 23.8832H95.1471V25.2555H95.8333C96.4051 25.2555 96.6338 24.9124 96.6338 24.5694Z" fill="#202020"/>
<path id="path728" d="M27.4438 20.5664H97.4346V20.7951H27.4438C27.4438 20.7951 27.4439 20.5664 27.4438 20.5664Z" fill="#202020"/>
<path id="path732" d="M42.5398 14.2767H39.5663L41.053 10.7313L42.5398 14.2767ZM40.2525 8.21533L36.021 18.3938H37.9652L38.8801 15.9921H43.2259L44.1408 18.3938H46.085L41.8536 8.21533H40.2525Z" fill="#202020"/>
<path id="path736" d="M53.9763 13.3617C53.9763 15.3059 52.7183 16.5639 50.7741 16.5639H49.0587V10.0452H50.7741C52.604 10.0452 53.9763 11.4175 53.9763 13.3617ZM50.7741 8.21533H47.1145V18.2794H50.7741C53.7476 18.2794 55.9205 16.1065 55.9205 13.2474C55.9205 10.3883 53.7476 8.21533 50.7741 8.21533Z" fill="#202020"/>
<path id="path740" d="M85.541 13.3618C85.541 15.3059 84.1686 16.7927 82.4532 16.7927C80.7377 16.7927 79.3653 15.3059 79.3653 13.3618C79.3653 11.4176 80.7377 9.93087 82.4532 9.93087C84.1686 9.93087 85.541 11.4176 85.541 13.3618ZM82.4532 8.10107C79.5941 8.10107 77.4211 10.3884 77.4211 13.3618C77.4211 16.3353 79.5941 18.6225 82.4532 18.6225C85.3123 18.6225 87.4852 16.3353 87.4852 13.3618C87.4852 10.274 85.3123 8.10107 82.4532 8.10107Z" fill="#202020"/>
<path id="path744" d="M33.3913 11.6462C33.3913 12.5611 32.7052 13.2473 31.5616 13.2473H29.2743V10.1594H31.5616C32.8196 10.045 33.3913 10.6169 33.3913 11.6462ZM35.3355 11.5318C35.3355 9.47322 33.9632 8.32959 31.6759 8.32959H27.3301V18.3936H29.1599V14.9627H31.1041L33.3913 18.3936H35.5643L32.9339 14.6196C34.535 14.1621 35.3355 13.0185 35.3355 11.5318Z" fill="#202020"/>
<path id="path746" d="M57.4067 18.3936H59.2366V8.32959H57.4067V18.3936Z" fill="#202020"/>
<path id="path750" d="M65.0693 12.4468C63.2395 11.9894 62.8964 11.6463 62.8964 10.9601C62.8964 10.2739 63.4682 9.93082 64.3832 9.93082C65.1837 9.93082 65.9842 10.2739 66.8991 10.9601L67.0135 11.0745L68.0428 9.58772L67.9284 9.47333C66.8992 8.67278 65.7555 8.21533 64.3832 8.21533C62.439 8.21533 61.0666 9.47335 61.0666 11.1888C61.0666 13.133 62.2102 13.7049 64.2688 14.2767C65.9843 14.7341 66.3273 15.0772 66.3273 15.649C66.3273 16.3352 65.7555 16.7927 64.7263 16.7927C63.697 16.7927 62.7821 16.4495 61.8672 15.5346L61.7528 15.4203L60.6091 16.7926L60.7235 16.907C61.8672 17.9363 63.2395 18.5081 64.7263 18.5081C66.7848 18.5081 68.1572 17.2501 68.1572 15.4203C68.1572 13.8192 67.2423 13.0186 65.0693 12.4468Z" fill="#202020"/>
<path id="path754" d="M73.3049 12.4468C71.4751 11.9894 71.132 11.6463 71.132 10.9601C71.132 10.2739 71.7038 9.93082 72.6188 9.93082C73.4193 9.93082 74.2199 10.2739 75.1348 10.9601L75.2491 11.0745L76.2784 9.58772L76.164 9.47333C75.1348 8.67278 73.9911 8.21533 72.6188 8.21533C70.6746 8.21533 69.3022 9.47335 69.3022 11.1888C69.3022 13.133 70.4458 13.7049 72.5044 14.2767C74.2199 14.7341 74.5629 15.0772 74.5629 15.649C74.5629 16.3352 73.9911 16.7927 72.9618 16.7927C71.9326 16.7927 71.0177 16.4495 70.1028 15.5346L69.9884 15.4203L68.8447 16.7926L68.9591 16.907C70.1028 17.9363 71.4751 18.5081 72.9618 18.5081C75.0204 18.5081 76.3928 17.2501 76.3928 15.4203C76.3928 13.8192 75.4779 13.0186 73.3049 12.4468Z" fill="#202020"/>
<path id="path766" d="M95.4903 8.21498V14.8481L90.5726 8.21498H88.8572V18.279H90.687V11.4172L95.719 18.1646H97.3201V8.10059L95.4903 8.21498Z" fill="#202020"/>
<path id="path770" d="M14.4066 21.5958H12.2337V18.6224H9.48894V21.5958H7.31605V13.8191H9.48894V16.6782H12.2337V13.8191H14.4066V21.5958ZM19.4386 21.8245C17.037 21.8245 15.2072 20.2235 15.2072 17.8218C15.2072 15.5346 16.9226 13.8191 19.3243 13.8191H21.1541C19.553 9.70196 15.5503 6.72852 10.8613 6.72852C6.05805 6.72852 2.05529 9.702 0.454196 13.9335H3.31332C4.45696 13.9335 5.25749 14.2765 5.82931 14.734C6.28677 15.1914 6.5155 15.7633 6.5155 16.5639C6.5155 17.7075 5.94369 18.508 4.91441 18.9654L6.74421 21.7102H4.22822L2.62713 19.4229H1.71219V21.7102H0.339844C1.94094 25.9417 5.94369 28.9152 10.747 28.9152C15.5503 28.9152 19.6673 25.8274 21.1541 21.4815C20.811 21.7102 20.1248 21.8245 19.4386 21.8245Z" fill="#202020"/>
<path id="path782" d="M4.45646 16.6781C4.45646 15.9919 3.999 15.7632 3.31282 15.7632H1.94043V17.593H3.31282C3.999 17.593 4.45646 17.2499 4.45646 16.6781Z" fill="#202020"/>
<path id="path786" d="M20.6969 18.7367V19.6516C20.3538 19.8803 20.0107 19.9947 19.4389 19.9947C18.1809 19.9947 17.3804 19.0798 17.3804 17.8218C17.3804 16.6781 18.2953 15.7632 19.3246 15.7632H21.7262C21.8406 16.2206 21.8405 16.6781 21.9549 17.25H19.2102V18.8511L20.6969 18.7367Z" fill="#202020"/>
<path id="path788" d="M27.4438 20.7951H97.4346V20.5664H27.4438C27.4438 20.5664 27.4439 20.7951 27.4438 20.7951Z" fill="#202020"/>
</g>
</g>
</g>
</svg>
