<?xml version="1.0" standalone="no"?>
<!DOCTYPE svg PUBLIC "-//W3C//DTD SVG 20010904//EN"
 "http://www.w3.org/TR/2001/REC-SVG-20010904/DTD/svg10.dtd">
<svg version="1.0" xmlns="http://www.w3.org/2000/svg"
 width="720.000000pt" height="454.000000pt" viewBox="0 0 720.000000 454.000000"
 preserveAspectRatio="xMidYMid meet">

<g transform="translate(0.000000,454.000000) scale(0.100000,-0.100000)"
fill="#000000" stroke="none">
<path d="M2370 3145 l0 -1205 1203 2 1202 3 0 1200 0 1200 -1202 3 -1203 2 0
-1205z m788 788 l-3 -388 -372 -3 -373 -2 0 390 0 390 375 0 375 0 -2 -387z
m777 -3 l0 -385 -365 0 -365 0 -3 388 -2 387 367 -2 368 -3 0 -385z m803 3 l2
-383 -380 0 -380 0 0 385 0 385 378 -2 377 -3 3 -382z m-1578 -788 l0 -365
-375 0 -375 0 0 365 0 365 375 0 375 0 0 -365z m780 0 l0 -365 -370 0 -370 0
0 365 0 365 370 0 370 0 0 -365z m800 0 l0 -365 -380 0 -380 0 0 365 0 365
380 0 380 0 0 -365z m-1580 -785 l0 -380 -375 0 -375 0 0 380 0 380 375 0 375
0 0 -380z m780 0 l0 -380 -370 0 -370 0 0 380 0 380 370 0 370 0 0 -380z m800
0 l0 -380 -380 0 -380 0 0 380 0 380 380 0 380 0 0 -380z"/>
<path d="M410 951 c-89 -29 -140 -85 -148 -159 -9 -98 51 -165 175 -197 127
-32 168 -48 195 -76 47 -47 33 -122 -29 -160 -29 -18 -46 -20 -117 -18 -75 4
-88 7 -145 43 l-63 38 -21 -20 c-20 -21 -20 -22 -2 -42 10 -11 46 -34 79 -50
113 -56 261 -50 333 13 47 41 63 77 63 138 0 98 -58 148 -220 189 -131 33
-180 69 -180 131 0 102 148 143 280 77 l63 -31 20 24 19 23 -29 23 c-15 13
-48 30 -73 38 -54 19 -165 28 -200 16z"/>
<path d="M1105 947 c-121 -41 -199 -124 -231 -247 -42 -165 32 -326 185 -402
38 -19 62 -23 141 -23 84 0 102 3 151 28 66 32 132 99 162 165 18 38 22 66 22
147 0 89 -3 106 -28 156 -32 67 -100 132 -165 162 -58 25 -180 33 -237 14z
m216 -85 c167 -87 197 -331 57 -458 -54 -49 -95 -64 -173 -64 -111 0 -186 45
-235 143 -74 148 -13 329 132 392 18 8 63 14 99 15 54 0 77 -5 120 -28z"/>
<path d="M2665 951 c-92 -24 -182 -98 -225 -186 -21 -43 -25 -64 -25 -150 0
-119 17 -166 90 -244 68 -72 127 -96 245 -96 89 0 99 2 158 34 72 39 110 81
150 161 36 75 38 208 3 285 -56 124 -161 195 -294 201 -40 2 -85 0 -102 -5z
m190 -80 c94 -44 155 -142 155 -252 0 -170 -102 -279 -262 -279 -156 0 -262
112 -262 275 0 163 107 275 264 275 42 0 79 -7 105 -19z"/>
<path d="M4473 942 c-77 -28 -132 -70 -174 -135 -113 -175 -52 -415 129 -504
50 -25 68 -28 152 -28 84 0 102 3 152 28 65 32 115 84 155 159 25 48 28 63 28
153 0 91 -3 105 -29 158 -35 69 -99 130 -164 158 -68 30 -183 35 -249 11z
m225 -78 c95 -47 145 -133 145 -249 1 -87 -29 -160 -85 -211 -55 -49 -95 -64
-176 -64 -117 0 -208 64 -249 173 -17 46 -16 156 2 208 49 144 223 213 363
143z"/>
<path d="M5940 949 c-45 -14 -96 -53 -121 -93 -16 -24 -19 -44 -17 -93 6 -100
54 -139 227 -183 107 -27 137 -43 157 -81 21 -42 11 -88 -27 -125 -26 -25 -39
-29 -104 -32 -85 -5 -126 7 -194 53 l-49 32 -21 -27 -20 -28 37 -25 c79 -55
131 -71 227 -72 75 0 97 4 132 22 56 30 94 82 100 137 7 58 -1 87 -33 126 -35
41 -82 64 -184 90 -143 36 -180 64 -180 132 0 70 54 108 152 108 63 0 133 -24
169 -56 15 -14 19 -12 38 15 l22 30 -23 15 c-81 53 -212 78 -288 55z"/>
<path d="M1710 615 l0 -335 35 0 35 0 0 150 0 150 195 0 195 0 0 -150 0 -150
35 0 35 0 0 335 0 335 -35 0 -35 0 0 -150 0 -150 -195 0 -195 0 0 150 0 150
-35 0 -35 0 0 -335z"/>
<path d="M3540 615 l0 -335 35 0 35 0 0 150 0 150 195 0 195 0 0 -150 0 -150
40 0 40 0 0 335 0 335 -40 0 -40 0 0 -150 0 -150 -195 0 -195 0 0 150 0 150
-35 0 -35 0 0 -335z"/>
<path d="M5073 934 c-3 -8 -3 -113 0 -232 6 -252 15 -290 83 -358 108 -108
336 -94 419 26 48 69 55 114 55 357 l0 223 -34 0 -34 0 -4 -237 -3 -238 -27
-47 c-36 -60 -91 -88 -174 -88 -88 0 -141 30 -176 99 l-28 55 0 228 0 228 -35
0 c-23 0 -38 -6 -42 -16z"/>
<path d="M6430 615 l0 -335 246 0 245 0 -3 33 -3 32 -207 3 -208 2 0 115 0
115 183 2 182 3 3 33 3 32 -185 0 -186 0 0 115 0 115 205 0 205 0 0 35 0 35
-240 0 -240 0 0 -335z"/>
</g>
</svg>
