<svg width="98" height="36" viewBox="0 0 98 36" fill="none" xmlns="http://www.w3.org/2000/svg">
<g id="Group">
<g id="Group_2">
<path id="Vector" d="M50.0829 29.2625C50.0829 30.9441 52.1699 32.7908 51.7645 35.3582C50.7285 35.5384 49.6625 35.6435 48.5815 35.6435C47.5005 35.6435 46.4345 35.5384 45.3985 35.3582C45.0082 32.7908 47.0801 30.9441 47.0801 29.2625C47.0801 27.4458 44.7529 25.8243 44.7529 24.0376C44.7529 22.356 46.4195 21.8156 46.6447 20.0889C46.6747 19.8637 46.8699 19.6836 47.1251 19.7286C47.4705 19.7887 47.8909 20.0139 48.5815 20.0139C49.2572 20.0139 49.6926 19.7887 50.0379 19.7286C50.2931 19.6836 50.4883 19.8487 50.5183 20.0889C50.7435 21.8156 52.4101 22.356 52.4101 24.0376C52.4101 25.8093 50.0829 27.4458 50.0829 29.2625Z" fill="#202020"/>
<path id="Vector_2" d="M52.591 29.1273C52.591 30.7188 54.663 32.7156 54.4378 34.6525C53.9873 34.8176 53.5219 34.9527 53.0565 35.0728C53.4168 33.0159 51.2998 31.0341 51.2998 29.2474C51.2998 27.3106 53.5519 25.8542 53.5519 24.0375C53.5519 22.2208 51.4499 21.5902 51.4499 19.3682C51.4499 17.4914 53.0114 15.9149 53.0114 13.978C53.0114 12.4016 52.561 11.3356 51.7202 10.2846C51.6301 10.1795 51.7352 10.0744 51.8403 10.1645C51.8703 10.1795 51.8854 10.2095 51.9154 10.2245C53.1165 11.1404 53.9273 12.6268 53.9273 14.2783C53.9273 16.3953 52.561 17.4614 52.561 19.3832C52.561 21.305 54.7681 22.1757 54.7681 24.0375C54.7681 25.8992 52.591 27.4007 52.591 29.1273Z" fill="#202020"/>
<path id="Vector_3" d="M54.8716 28.8874C54.8716 30.2387 56.5682 32.0404 56.6433 33.707C56.328 33.8721 55.9977 34.0222 55.6674 34.1724C55.6223 32.2506 53.7906 30.644 53.7906 29.0225C53.7906 27.2358 55.8926 25.7645 55.8926 24.0378C55.8926 22.3112 53.6405 21.2753 53.6405 19.4135C53.6405 17.5518 54.7665 16.5008 54.7665 14.594C54.7665 12.8974 54.166 11.7863 53.145 10.5552C53.3852 10.6753 53.5654 10.8104 53.7606 10.9756C54.8416 11.9365 55.5473 13.4229 55.5473 14.9093C55.5473 16.9362 54.5714 17.837 54.5714 19.4135C54.5714 20.99 56.8685 22.2361 56.8685 24.0378C56.8685 25.8395 54.8716 27.371 54.8716 28.8874Z" fill="#202020"/>
<path id="Vector_4" d="M63.4153 27.6413C63.2352 27.9115 63.055 28.1817 62.8598 28.437C62.3643 28.0766 61.9289 27.2509 61.0131 27.2209C60.938 27.4161 60.8629 27.6112 60.7728 27.8064C60.6677 28.0166 60.5176 28.1067 60.2323 28.1067C59.3615 28.1067 58.0103 27.5511 56.9743 26.5152C57.6349 25.284 57.8451 24.6684 57.8451 24.0228C57.8451 22.4013 55.5329 21.035 55.5329 19.4585C55.5329 17.8821 56.3287 16.9812 56.3287 15.2696C56.3287 13.7232 55.623 12.4019 54.7222 11.2759C54.9474 11.426 55.1426 11.5762 55.3377 11.7713C56.3137 12.7623 56.9743 14.2187 56.9743 15.5699C56.9743 17.3866 56.2986 18.1373 56.2986 19.4736C56.2986 20.7197 58.9261 22.4314 58.6258 24.128C59.5417 24.9537 60.6227 25.3291 61.5836 25.3291C61.5085 25.6744 61.4034 26.0198 61.2983 26.3651C62.3643 26.4252 62.8598 27.326 63.4153 27.6413Z" fill="#202020"/>
<path id="Vector_5" d="M58.4468 32.6558C58.1916 32.821 57.9363 32.9862 57.6811 33.1363C57.546 31.6349 55.9395 30.4338 55.9395 28.9174C55.9395 28.3618 56.1947 27.8963 56.4199 27.521C55.7593 29.608 58.2066 30.8391 58.4468 32.6558Z" fill="#202020"/>
<path id="Vector_6" d="M41.6605 19.4585C41.6605 21.035 39.3483 22.4013 39.3483 24.0228C39.3483 24.6684 39.5435 25.284 40.2191 26.5152C39.1831 27.5361 37.8319 28.1067 36.9611 28.1067C36.6758 28.1067 36.5257 28.0316 36.4206 27.8064C36.3455 27.6112 36.2554 27.4161 36.1803 27.2209C35.2495 27.2659 34.8291 28.0917 34.3036 28.437C34.1084 28.1818 33.9282 27.9115 33.748 27.6413C34.3036 27.341 34.799 26.4251 35.88 26.3651C35.7749 26.0198 35.6849 25.6744 35.5948 25.3291C36.5557 25.3291 37.6517 24.9688 38.5676 24.128C38.2673 22.4314 40.8948 20.7197 40.8948 19.4736C40.8948 18.1223 40.2191 17.3866 40.2191 15.5699C40.2191 14.2337 40.8647 12.7623 41.8557 11.7713C42.0508 11.5762 42.246 11.411 42.4712 11.2759C41.5554 12.4019 40.8647 13.7232 40.8647 15.2696C40.8647 16.9812 41.6605 17.8821 41.6605 19.4585Z" fill="#202020"/>
<path id="Vector_7" d="M41.2393 28.9174C41.2393 30.4338 39.6328 31.6199 39.4826 33.1363C39.2274 32.9862 38.9722 32.821 38.7319 32.6558C38.9722 30.8541 41.4195 29.623 40.7588 27.521C40.9841 27.8963 41.2393 28.3618 41.2393 28.9174Z" fill="#202020"/>
<path id="Vector_8" d="M43.5225 19.4135C43.5225 21.2753 41.2703 22.2962 41.2703 24.0378C41.2703 25.7795 43.3723 27.2358 43.3723 29.0225C43.3723 30.644 41.5406 32.2506 41.4956 34.1724C41.1652 34.0222 40.8349 33.8721 40.5196 33.707C40.5947 32.0554 42.2913 30.2537 42.2913 28.8874C42.2913 27.356 40.2944 25.8395 40.2944 24.0378C40.2944 22.2361 42.5916 20.99 42.5916 19.4135C42.5916 17.837 41.6157 16.9362 41.6157 14.9093C41.6157 13.4379 42.3213 11.9365 43.4023 10.9756C43.5975 10.8104 43.7927 10.6753 44.0179 10.5552C42.997 11.7863 42.3964 12.8974 42.3964 14.594C42.3964 16.5008 43.5225 17.5518 43.5225 19.4135Z" fill="#202020"/>
<path id="Vector_9" d="M44.1081 35.0732C43.6427 34.9531 43.1772 34.803 42.7268 34.6529C42.5016 32.701 44.5735 30.7192 44.5735 29.1277C44.5735 27.4011 42.3965 25.8997 42.3965 24.0379C42.3965 22.1762 44.6036 21.3053 44.6036 19.3835C44.6036 17.4617 43.2373 16.3957 43.2373 14.2788C43.2373 12.6272 44.063 11.1408 45.2492 10.225C45.2792 10.2099 45.2942 10.1799 45.3242 10.1649C45.4293 10.0898 45.5194 10.1799 45.4443 10.285C44.6036 11.336 44.1531 12.402 44.1531 13.9785C44.1531 15.9153 45.7146 17.4918 45.7146 19.3686C45.7146 21.5906 43.6126 22.2212 43.6126 24.0379C43.6126 25.8546 45.8647 27.311 45.8647 29.2478C45.8647 31.0345 43.7628 33.0013 44.1081 35.0732Z" fill="#202020"/>
<path id="Vector_10" d="M38.2519 30.7342C37.9215 30.9594 37.6212 31.365 37.4259 31.6954C37.2157 31.5302 37.0204 31.365 36.8252 31.1847C37.0505 30.8243 37.3959 30.3887 37.8014 30.1484C37.9366 30.3587 38.1018 30.5389 38.2519 30.7342Z" fill="#202020"/>
<path id="Vector_11" d="M37.0813 29.0525C36.4956 29.2027 36.0901 29.7884 35.7747 30.1789C35.5794 29.9686 35.3842 29.7584 35.189 29.5481C35.5344 29.1577 36 28.5269 36.6758 28.3467C36.8109 28.587 36.9461 28.8273 37.0813 29.0525Z" fill="#202020"/>
<path id="Vector_12" d="M35.5491 25.1034C34.2128 24.9983 33.9276 26.2295 32.9667 26.3346C32.7865 26.0193 32.6213 25.689 32.4712 25.3587C33.4771 25.3136 33.8225 24.0074 35.3689 24.1125C35.414 24.4428 35.474 24.7731 35.5491 25.1034Z" fill="#202020"/>
<path id="Vector_13" d="M35.2647 21.4854C35.2647 21.7406 35.2497 21.9808 35.2497 22.236V22.6565C33.7784 22.6415 33.2979 24.0077 31.8866 23.9477C31.7515 23.5723 31.6163 23.182 31.5112 22.7916C32.9976 22.9268 33.5231 21.4403 35.2647 21.4854Z" fill="#202020"/>
<path id="Vector_14" d="M35.7289 18.6625C35.6088 19.0979 35.5037 19.5483 35.4287 19.9987C33.7171 19.9837 33.0264 21.5752 31.1496 21.35C31.0596 20.9146 30.9995 20.4791 30.9395 20.0437C32.9363 20.359 33.657 18.5724 35.7289 18.6625Z" fill="#202020"/>
<path id="Vector_15" d="M36.8704 15.87C36.6001 16.3505 36.3599 16.8459 36.1647 17.3564C34.0477 17.1162 33.1469 19.023 30.8347 18.7828C30.8197 18.4675 30.8047 18.1372 30.8047 17.8069V17.2964C33.282 17.6267 34.1979 15.4046 36.8704 15.87Z" fill="#202020"/>
<path id="Vector_16" d="M60.339 31.1847C60.1437 31.365 59.9485 31.5302 59.7382 31.6954C59.543 31.365 59.2576 30.9594 58.9272 30.7342C59.0774 30.5389 59.2276 30.3437 59.3778 30.1484C59.7683 30.4037 60.1137 30.8393 60.339 31.1847Z" fill="#202020"/>
<path id="Vector_17" d="M61.9745 29.5481C61.7792 29.7584 61.599 29.9686 61.3887 30.1789C61.0734 29.7884 60.6679 29.2177 60.0972 29.0525C60.2323 28.8122 60.3675 28.587 60.4876 28.3467C61.1635 28.5269 61.629 29.1577 61.9745 29.5481Z" fill="#202020"/>
<path id="Vector_18" d="M64.6918 25.3588C64.5416 25.6891 64.3765 26.0194 64.1963 26.3347C63.2504 26.2296 62.9501 25.0134 61.6289 25.1035C61.704 24.7732 61.764 24.4429 61.8091 24.1126C63.3255 24.0075 63.6858 25.2837 64.6918 25.3588Z" fill="#202020"/>
<path id="Vector_19" d="M65.6535 22.7916C65.5484 23.1819 65.4133 23.5722 65.2782 23.9476C63.8819 23.9926 63.4014 22.6414 61.915 22.6564C61.9301 22.5213 61.9301 22.3711 61.9301 22.236C61.9301 21.9807 61.9301 21.7406 61.915 21.4853C63.6417 21.4553 64.1822 22.9267 65.6535 22.7916Z" fill="#202020"/>
<path id="Vector_20" d="M66.2232 20.0437C66.1632 20.4791 66.1031 20.9146 66.013 21.35C64.1363 21.5602 63.4606 19.9987 61.749 19.9987C61.6739 19.5483 61.5688 19.0979 61.4487 18.6625C63.5057 18.5874 64.2263 20.359 66.2232 20.0437Z" fill="#202020"/>
<path id="Vector_21" d="M66.3587 17.807C66.3587 18.1373 66.3436 18.4526 66.3286 18.7829C63.9864 19.0381 63.1156 17.1163 60.9986 17.3716C60.7884 16.8611 60.5632 16.3656 60.293 15.8852C62.9655 15.4197 63.8813 17.6418 66.3587 17.3115C66.3587 17.4767 66.3587 17.6418 66.3587 17.807Z" fill="#202020"/>
<path id="Vector_22" d="M47.2309 13.1226C46.4799 12.8523 45.744 12.8373 45.3986 13.1827C45.2334 13.0325 45.1884 12.8974 45.1733 12.7322C45.1733 12.4919 45.4136 12.3267 45.9092 12.3267C46.5851 12.3267 47.2609 12.7472 47.2309 13.1226Z" fill="#202020"/>
<path id="Vector_23" d="M51.9313 12.7473C51.9313 12.8975 51.8863 13.0326 51.7211 13.1828C51.4057 12.8374 50.7749 12.8525 50.054 13.0928C50.009 13.0177 50.009 12.8825 50.039 12.7924C50.3394 12.462 50.7899 12.3418 51.1954 12.3418C51.676 12.3418 51.9313 12.5071 51.9313 12.7473Z" fill="#202020"/>
<path id="Vector_24" d="M51.5994 13.7831C51.4192 13.9182 51.239 14.0383 50.8186 14.0383C50.3532 14.0383 50.2331 13.8431 49.9628 13.8431C49.6325 13.8431 49.6626 14.5338 49.2722 14.5788C49.0169 13.9633 49.0019 13.1525 49.2121 12.4468C49.5574 12.0114 50.158 11.7712 50.8336 11.7712C51.194 11.7712 51.5393 11.8313 51.8396 11.9664C51.9447 12.0115 51.9897 11.9514 51.9597 11.8613C51.5994 10.6301 50.2031 9.69922 48.5515 9.69922C46.9 9.69922 45.5036 10.6301 45.1433 11.8462C45.1133 11.9363 45.1583 11.9964 45.2634 11.9514C45.5637 11.8163 45.894 11.7561 46.2694 11.7561C46.945 11.7561 47.5456 12.0114 47.8909 12.4318C48.041 12.9423 48.056 13.693 47.8759 14.1134C47.6056 14.0533 47.5005 13.8431 47.2303 13.8431C46.96 13.8431 46.7498 14.0383 46.2844 14.0383C45.8189 14.0383 45.7739 13.8131 45.4736 13.8131C45.1133 13.8131 45.0532 14.1735 45.0532 14.5939C45.0532 16.4406 46.7498 18.9779 48.5515 18.9779C50.3532 18.9779 52.0498 16.4406 52.0498 14.5939C52.0498 14.1735 51.9597 13.8281 51.5994 13.7831ZM48.1461 15.3445C48.2813 15.3445 48.3413 15.4196 48.5515 15.4196C48.7767 15.4196 48.8218 15.3295 48.9569 15.3445C49.107 15.3445 49.3773 15.4496 49.4373 15.5547C49.4373 15.5998 49.4223 15.6448 49.3773 15.6898C49.062 15.7349 48.9118 15.9151 48.5515 15.9151C48.1912 15.9151 48.041 15.7349 47.7257 15.6898C47.6957 15.6448 47.6657 15.5998 47.6657 15.5547C47.7257 15.4646 48.011 15.3445 48.1461 15.3445ZM48.5515 17.5817C47.7708 17.5817 47.5155 16.921 47.1402 16.6358C47.1702 16.5457 47.2603 16.5157 47.2603 16.5157C47.2603 16.5157 47.7558 16.6358 48.5515 16.6358C49.3472 16.6358 49.8427 16.5157 49.8427 16.5157C49.8427 16.5157 49.9328 16.5457 49.9628 16.6358C49.5875 16.921 49.3322 17.5817 48.5515 17.5817Z" fill="#202020"/>
<path id="Vector_25" d="M65.8932 15.8851C63.9113 16.4706 62.2298 13.9333 59.6623 14.8191C58.7315 13.4528 57.5754 12.2517 56.2241 11.3058C57.5454 10.7803 59.1369 10.9004 60.4881 11.7712C60.6983 10.51 61.389 9.38394 62.3649 8.7083C62.485 8.61822 62.6351 8.70831 62.6201 8.85845C62.4099 11.531 63.9714 13.8432 65.8932 15.8851Z" fill="#202020"/>
<path id="Vector_26" d="M53.4468 8.22798C53.8371 7.11694 54.3326 6.15603 54.9632 5.22515C53.2966 5.40532 51.9153 6.00586 50.8944 7.05685L50.0986 4.96995L51.8553 3.40849L49.4981 3.24331L48.5522 1.05127L47.6063 3.24331L45.2491 3.40849L47.0057 4.96995L46.21 7.05685C45.189 6.02087 43.8077 5.40532 42.1412 5.22515C42.7718 6.15603 43.2672 7.13195 43.6576 8.22798C42.7417 7.47728 41.6007 7.02684 40.2944 6.93676C41.0752 7.9427 41.7658 9.02376 42.2913 10.1798C42.3514 10.315 42.4715 10.36 42.6066 10.2849C44.3933 9.39907 46.4052 8.88862 48.5522 8.88862C50.6842 8.88862 52.6961 9.38405 54.4978 10.2849C54.6329 10.36 54.753 10.315 54.8131 10.1798C55.3235 9.02376 56.0292 7.9427 56.8099 6.93676C55.5037 7.02684 54.3626 7.47728 53.4468 8.22798ZM50.3539 7.68751C50.2037 7.65748 49.453 7.53736 48.5672 7.53736C47.6814 7.53736 46.9307 7.65748 46.7805 7.68751C46.6904 7.70252 46.6604 7.61238 46.7205 7.56734C46.7805 7.5223 48.5672 6.15603 48.5672 6.15603C48.5672 6.15603 50.3539 7.5223 50.4139 7.56734C50.474 7.61238 50.444 7.70252 50.3539 7.68751Z" fill="#202020"/>
<path id="Vector_27" d="M40.8936 11.3058C39.5423 12.2517 38.3712 13.4528 37.4253 14.8191C34.8729 13.9333 33.1913 16.4857 31.2095 15.8851C33.1313 13.8432 34.6927 11.531 34.4825 8.85845C34.4825 8.70831 34.6177 8.61822 34.7528 8.7083C35.7287 9.38394 36.4194 10.51 36.6296 11.7712C37.9958 10.9004 39.5873 10.7653 40.8936 11.3058Z" fill="#202020"/>
</g>
</g>
</svg>
