<svg width="99" height="36" viewBox="0 0 99 36" fill="none" xmlns="http://www.w3.org/2000/svg">
<g id="Group">
<g id="Group_2">
<path id="Vector" d="M7.60416 15.8656C8.13182 18.8023 9.11648 21.4767 11.3618 23.5168C13.9831 25.8986 17.3125 25.9765 20.0976 23.7632C21.688 22.4992 22.8085 20.8714 23.7249 19.0858C24.0474 18.4574 24.3569 17.8224 24.6753 17.1919C25.2431 16.0675 26.2058 16.2845 27.0204 16.8755C27.4448 17.1834 27.42 17.6882 27.3302 18.15C27.0627 19.525 26.5307 20.8094 25.9168 22.0591C24.801 24.3307 23.3124 26.3064 21.2501 27.8113C19.8189 28.8555 18.2378 29.5647 16.4672 29.7425C14.1462 29.9757 12.041 29.378 10.185 27.9426C8.31223 26.4942 7.0587 24.5862 6.10866 22.4553C5.24529 20.5188 4.71015 18.4843 4.35714 16.4001C4.31649 16.16 4.22809 16.1013 4.0114 16.121C3.54176 16.1636 3.07012 16.185 2.601 16.2321C1.60258 16.3324 0.998355 15.8174 0.9755 14.8161C0.967059 14.4464 0.953287 14.0684 1.01557 13.7069C1.16217 12.856 1.54523 12.5119 2.41153 12.5051C4.77355 12.4867 7.136 12.4819 9.4979 12.5073C10.4979 12.518 10.9494 13.0611 11.023 14.2144C11.038 14.4486 11.0457 14.6921 10.999 14.9195C10.897 15.4158 10.4627 15.6768 9.77442 15.717C9.06915 15.7582 8.36465 15.8129 7.60416 15.8656Z" fill="#202020"/>
<path id="Vector_2" d="M51.3959 20.9671C51.3959 21.833 51.3959 22.699 51.3959 23.565C51.3958 25.3611 50.5623 26.3967 48.7969 26.7513C47.9157 26.9283 47.0302 26.9009 46.1616 26.6536C44.7866 26.2622 43.9917 25.2372 43.9815 23.8066C43.9678 21.8836 43.977 19.9604 43.979 18.0373C43.9793 17.6688 44.1236 17.5055 44.5017 17.4789C44.8135 17.457 45.1286 17.4558 45.4408 17.4725C45.9265 17.4984 46.0461 17.6326 46.0469 18.1229C46.0492 19.6749 46.0478 21.2269 46.0479 22.7789C46.0479 23.0488 46.0456 23.3188 46.0485 23.5887C46.0585 24.5175 46.4902 25.0098 47.4172 25.088C47.7354 25.1149 48.0725 25.0823 48.3829 25.0044C49.017 24.8453 49.318 24.4 49.3236 23.6652C49.3321 22.5631 49.326 21.4609 49.3261 20.3588C49.3261 19.6278 49.3249 18.8967 49.3265 18.1657C49.3276 17.6303 49.454 17.491 49.9978 17.4663C50.2998 17.4526 50.6048 17.4547 50.9058 17.481C51.2692 17.5128 51.3937 17.6639 51.3948 18.0318C51.3978 19.0102 51.3958 19.9886 51.3959 20.9671Z" fill="#202020"/>
<path id="Vector_3" d="M82.4137 22.0974C82.4238 23.0329 82.2608 23.9252 81.8355 24.7615C81.0893 26.2285 79.5269 26.958 77.8971 26.6725C76.4045 26.4111 75.466 25.5393 75.0155 24.1438C74.4994 22.5452 74.5248 20.9441 75.286 19.4176C75.9282 18.1298 77.0012 17.5167 78.4488 17.4663C81.0041 17.3772 82.1169 19.3772 82.3156 20.9952C82.3606 21.3611 82.3816 21.7299 82.4137 22.0974ZM81.0317 22.1178C81.0687 21.4112 80.9684 20.7181 80.6961 20.0576C80.3341 19.1797 79.6927 18.6273 78.7302 18.5635C77.8102 18.5025 77.0319 18.8492 76.6037 19.6895C75.8282 21.2112 75.8321 22.7877 76.513 24.3386C76.8826 25.1805 77.5864 25.5845 78.5222 25.5981C79.4757 25.612 80.159 25.1855 80.5893 24.3648C80.9541 23.6688 81.0678 22.9073 81.0317 22.1178Z" fill="#202020"/>
<path id="Vector_4" d="M37.5116 19.2256C36.7685 19.2256 36.0736 19.2265 35.3786 19.2252C34.7775 19.2241 34.6929 19.1345 34.723 18.5413C34.727 18.4628 34.7232 18.3836 34.7317 18.3056C34.8031 17.6493 34.9764 17.4935 35.6332 17.4934C37.6788 17.4932 39.7244 17.4929 41.7701 17.4937C42.3017 17.4939 42.3959 17.5958 42.3675 18.1297C42.3657 18.1634 42.3596 18.1967 42.3572 18.2303C42.2931 19.1128 42.1728 19.2247 41.2925 19.2258C40.7531 19.2265 40.2137 19.2295 39.6743 19.233C39.6548 19.2331 39.6353 19.2493 39.5814 19.2732C39.5814 19.3789 39.5814 19.4992 39.5814 19.6196C39.5814 21.7439 39.5817 23.8683 39.5812 25.9926C39.5811 26.5107 39.4973 26.6268 38.9743 26.6822C38.6655 26.7148 38.3465 26.7009 38.037 26.6655C37.6014 26.6157 37.5129 26.4947 37.5123 26.0464C37.5106 24.7763 37.5116 23.5062 37.5116 22.2361C37.5116 21.2483 37.5116 20.2606 37.5116 19.2256Z" fill="#202020"/>
<path id="Vector_5" d="M68.8834 22.8079V25.8369C68.8834 26.5565 68.6331 26.7489 67.9184 26.5781C67.744 26.5365 67.6639 26.4434 67.6643 26.2463C67.6703 23.5014 67.6689 20.7565 67.6672 18.0116C67.6671 17.8173 67.7189 17.6812 67.943 17.6724C67.9973 17.6703 68.051 17.6312 68.1043 17.6329C69.2357 17.6683 70.3763 17.6302 71.4958 17.7657C72.7625 17.919 73.3836 18.7692 73.4127 20.0326C73.4436 21.3764 72.8462 22.2517 71.5253 22.6738C71.964 23.2908 72.3813 23.8784 72.7993 24.4654C73.1571 24.968 73.5249 25.4639 73.8675 25.9766C73.9517 26.1026 74.0188 26.3055 73.9742 26.4303C73.9423 26.5197 73.7147 26.5588 73.5682 26.5842C73.0118 26.6804 72.6372 26.4779 72.325 25.9765C71.7507 25.0542 71.0742 24.1958 70.4895 23.2794C70.2626 22.9239 69.983 22.8167 69.6123 22.8087C69.3876 22.8039 69.1628 22.8079 68.8834 22.8079ZM68.9037 18.6588V21.7194C69.557 21.7194 70.1976 21.7795 70.8213 21.7029C71.4707 21.6231 71.9666 21.263 72.0862 20.548C72.2525 19.5546 71.9233 18.8376 70.8848 18.757C70.238 18.7068 69.5884 18.6915 68.9037 18.6588Z" fill="#202020"/>
<path id="Vector_6" d="M64.6975 23.0104C64.1455 23.0104 63.6305 23 63.1162 23.0146C62.8466 23.0223 62.7296 22.9424 62.7346 22.6528C62.7449 22.0438 62.8448 21.9303 63.4557 21.9303C64.1078 21.9303 64.7599 21.9286 65.412 21.9309C65.8111 21.9322 65.9118 22.0316 65.9123 22.4235C65.9136 23.5028 65.9057 24.5823 65.9175 25.6616C65.9206 25.9479 65.8229 26.163 65.5596 26.2406C64.9859 26.4099 64.4101 26.6066 63.8211 26.6823C62.6248 26.836 61.4725 26.6955 60.49 25.894C59.7156 25.2622 59.2949 24.4139 59.116 23.4618C58.8816 22.2151 58.93 20.9801 59.4244 19.7788C59.9199 18.5751 61.1899 17.4471 62.8958 17.4651C63.7218 17.4737 64.5253 17.5166 65.2802 17.8851C65.4628 17.9742 65.7132 18.0723 65.6281 18.3059C65.5267 18.5843 65.3335 18.8352 65.1456 19.0705C65.1138 19.1103 64.8988 19.0314 64.7852 18.9741C63.9672 18.5611 63.1006 18.5104 62.2337 18.7079C61.4145 18.8945 60.8938 19.4732 60.6423 20.2558C60.2189 21.5738 60.1773 22.8978 60.8033 24.1701C61.2782 25.1354 62.0876 25.6165 63.1673 25.5857C63.5998 25.5734 64.0303 25.4918 64.4616 25.4409C64.6326 25.4208 64.7045 25.3373 64.7017 25.1515C64.6913 24.4553 64.6975 23.7587 64.6975 23.0104Z" fill="#202020"/>
<path id="Vector_7" d="M89.2035 21.0042C89.2035 20.0254 89.2025 19.0466 89.2041 18.0679C89.2047 17.6855 89.277 17.6143 89.652 17.6098C90.2081 17.6032 90.4862 17.878 90.4862 18.4339C90.4862 20.1665 90.4948 21.899 90.4796 23.6314C90.4762 24.0194 90.4275 24.4163 90.3327 24.7921C90.126 25.612 89.5958 26.1833 88.8023 26.4544C87.5845 26.8704 86.3586 26.8812 85.1804 26.3078C84.3668 25.9119 83.913 25.1968 83.8862 24.323C83.822 22.234 83.8375 20.1425 83.8216 18.052C83.8193 17.7563 83.9342 17.6024 84.2645 17.6045C85.2195 17.6106 85.0838 17.5983 85.0849 18.4234C85.0871 20.1784 85.1072 21.9339 85.0789 23.6885C85.0549 25.1805 86.2524 25.7431 87.4442 25.6046C87.6742 25.5779 87.9099 25.5331 88.1238 25.4484C88.8619 25.1561 89.2034 24.6319 89.2035 23.8393C89.2036 22.8942 89.2035 21.9493 89.2035 21.0042Z" fill="#202020"/>
<path id="Vector_8" d="M93.5736 22.8086C93.5736 23.8831 93.5841 24.9161 93.5644 25.9484C93.5606 26.1456 93.4705 26.4844 93.3634 26.5089C93.0644 26.5772 92.7342 26.527 92.4201 26.4908C92.3727 26.4853 92.3139 26.3044 92.3137 26.2045C92.3079 23.4943 92.3079 20.7841 92.3106 18.074C92.3109 17.7326 92.4311 17.6365 92.8704 17.6298C93.4325 17.6213 93.9962 17.6031 94.5568 17.634C95.1786 17.6683 95.8118 17.6917 96.4143 17.8312C97.2484 18.0243 97.8414 18.541 98.0765 19.4096C98.4998 20.9739 97.5483 22.5028 95.9577 22.7295C95.3446 22.8168 94.7147 22.7869 94.0924 22.8079C93.9365 22.8131 93.7803 22.8086 93.5736 22.8086ZM93.5903 18.6276V21.7117C93.8688 21.7393 94.1325 21.7837 94.3968 21.7879C95.003 21.7976 95.6068 21.7651 96.1477 21.4441C96.7595 21.0811 96.9105 20.5024 96.8247 19.8515C96.7528 19.3072 96.4006 18.9257 95.879 18.8389C95.1364 18.7153 94.3766 18.695 93.5903 18.6276Z" fill="#202020"/>
<path id="Vector_9" d="M28.2421 11.1457C26.749 11.1488 25.5955 10 25.5942 8.50868C25.593 7.03954 26.7318 5.90163 28.1579 5.85354C29.6804 5.80219 30.8926 7.08805 30.8805 8.45963C30.867 9.98239 29.7417 11.1426 28.2421 11.1457Z" fill="#202020"/>
<path id="Vector_10" d="M55.6007 22.0748C55.6007 23.3781 55.6014 24.6814 55.6003 25.9847C55.5999 26.5301 55.5228 26.6398 54.977 26.6866C54.6344 26.7159 54.284 26.6808 53.9393 26.6498C53.6968 26.628 53.56 26.4733 53.552 26.2209C53.5484 26.1087 53.5421 25.9965 53.5421 25.8842C53.5415 23.3338 53.5413 20.7834 53.5418 18.233C53.5419 17.6008 53.6502 17.4828 54.2716 17.4601C54.5174 17.4511 54.7646 17.4558 55.01 17.4722C55.4797 17.5037 55.5993 17.6326 55.6 18.0976C55.602 19.4234 55.6007 20.7491 55.6007 22.0748Z" fill="#202020"/>
</g>
</g>
</svg>
