<svg width="32" height="32" viewBox="0 0 32 32" fill="none" xmlns="http://www.w3.org/2000/svg">
<path d="M16 4C9.38 4 4 9.38 4 16C4 22.62 9.38 28 16 28C22.62 28 28 22.62 28 16C28 9.38 22.62 4 16 4ZM16 27C9.93 27 5 22.07 5 16C5 9.93 9.93 5 16 5C22.07 5 27 9.93 27 16C27 22.07 22.07 27 16 27ZM16.5 9V12.15C16.5 12.43 16.28 12.65 16 12.65C15.72 12.65 15.5 12.43 15.5 12.15V9C15.5 8.72 15.72 8.5 16 8.5C16.28 8.5 16.5 8.72 16.5 9ZM16.5 19.85V23C16.5 23.28 16.28 23.5 16 23.5C15.72 23.5 15.5 23.28 15.5 23V19.85C15.5 19.57 15.72 19.35 16 19.35C16.28 19.35 16.5 19.57 16.5 19.85ZM13.63 12.92C13.83 13.12 13.83 13.43 13.63 13.63C13.53 13.73 13.4 13.78 13.28 13.78C13.16 13.78 13.02 13.73 12.93 13.63L10.7 11.4C10.5 11.2 10.5 10.89 10.7 10.69C10.9 10.49 11.21 10.49 11.41 10.69L13.63 12.92ZM21.3 20.6C21.5 20.8 21.5 21.11 21.3 21.31C21.2 21.41 21.07 21.46 20.95 21.46C20.83 21.46 20.69 21.41 20.6 21.31L18.37 19.08C18.17 18.88 18.17 18.57 18.37 18.37C18.57 18.17 18.88 18.17 19.08 18.37L21.3 20.6ZM18.37 13.63C18.17 13.43 18.17 13.12 18.37 12.92L20.6 10.69C20.8 10.49 21.11 10.49 21.31 10.69C21.51 10.89 21.51 11.2 21.31 11.4L19.08 13.63C18.98 13.73 18.85 13.78 18.73 13.78C18.61 13.78 18.47 13.73 18.37 13.63ZM13.63 18.37C13.83 18.57 13.83 18.88 13.63 19.08L11.4 21.3C11.3 21.4 11.17 21.45 11.05 21.45C10.93 21.45 10.79 21.4 10.7 21.3C10.5 21.1 10.5 20.79 10.7 20.59L12.93 18.36C13.12 18.17 13.44 18.17 13.63 18.37ZM12.15 16.5H9C8.72 16.5 8.5 16.28 8.5 16C8.5 15.72 8.72 15.5 9 15.5H12.15C12.43 15.5 12.65 15.72 12.65 16C12.65 16.28 12.43 16.5 12.15 16.5ZM23.5 16C23.5 16.28 23.28 16.5 23 16.5H19.85C19.57 16.5 19.35 16.28 19.35 16C19.35 15.72 19.57 15.5 19.85 15.5H23C23.28 15.5 23.5 15.72 23.5 16Z" fill="#202020"/>
</svg>
