<svg width="32" height="32" viewBox="0 0 32 32" fill="none" xmlns="http://www.w3.org/2000/svg">
<path fill-rule="evenodd" clip-rule="evenodd" d="M17.16 10.4C17.16 9.35066 18.0107 8.5 19.06 8.5C20.1093 8.5 20.96 9.35066 20.96 10.4C20.96 11.4493 20.1093 12.3 19.06 12.3C18.0107 12.3 17.16 11.4493 17.16 10.4ZM16.2102 10.94H4C3.72386 10.94 3.5 10.7161 3.5 10.44C3.5 10.1639 3.72386 9.94 4 9.94H16.1963C16.4167 8.55698 17.6149 7.5 19.06 7.5C20.5051 7.5 21.7033 8.55698 21.9237 9.94H27.12C27.3961 9.94 27.62 10.1639 27.62 10.44C27.62 10.7161 27.3961 10.94 27.12 10.94H21.9098C21.6568 12.2836 20.4771 13.3 19.06 13.3C17.6429 13.3 16.4632 12.2836 16.2102 10.94ZM12.97 19.14C11.9207 19.14 11.07 19.9907 11.07 21.04C11.07 22.0894 11.9207 22.94 12.97 22.94C14.0193 22.94 14.87 22.0894 14.87 21.04C14.87 19.9907 14.0193 19.14 12.97 19.14ZM4 21.58H10.1202C10.3732 22.9236 11.5529 23.94 12.97 23.94C14.3871 23.94 15.5668 22.9236 15.8198 21.58H27.12C27.3961 21.58 27.62 21.3562 27.62 21.08C27.62 20.8039 27.3961 20.58 27.12 20.58H15.8337C15.6133 19.197 14.4151 18.14 12.97 18.14C11.5249 18.14 10.3267 19.197 10.1063 20.58H4C3.72386 20.58 3.5 20.8039 3.5 21.08C3.5 21.3562 3.72386 21.58 4 21.58Z" fill="#1D1D1B"/>
</svg>
