<svg width="32" height="32" viewBox="0 0 32 32" fill="none" xmlns="http://www.w3.org/2000/svg">
<path d="M25.5597 14.35L20.4397 14.34L16.3997 8.85C16.2197 8.67 15.9597 8.58 15.8097 8.53L15.7297 8.5L13.8797 8.53C13.5297 8.54 13.2197 8.72 13.0497 9C12.8897 9.27 12.8797 9.59 13.0197 9.86L15.0397 14.36L9.95971 14.37L7.80971 12.31C7.64971 12.1 7.37971 12 7.11971 12.03L5.03971 12.06C4.70971 12.01 4.37971 12.15 4.17971 12.43C3.96971 12.72 3.94971 13.09 4.10971 13.41L6.63971 18.43C6.80971 18.76 7.13971 18.97 7.52971 18.98L25.6697 19C26.3497 18.99 26.9897 18.72 27.4197 18.25C27.8297 17.81 28.0297 17.24 27.9897 16.66C27.9397 15.35 26.8497 14.33 25.5597 14.35ZM26.6897 17.57C26.4397 17.84 26.0697 18 25.6697 18L7.52971 17.98L5.00971 13.06L7.10971 13.04L9.55971 15.38L16.5897 15.36L13.9697 9.53L15.5797 9.5C15.6197 9.51 15.6597 9.52 15.6497 9.5L19.9297 15.34L25.5797 15.35C26.3297 15.33 26.9597 15.94 26.9997 16.72C27.0197 17.04 26.9097 17.34 26.6897 17.57Z" fill="white"/>
</svg>
