<svg width="32" height="32" viewBox="0 0 32 32" fill="none" xmlns="http://www.w3.org/2000/svg">
<path d="M18.75 17.88C19.43 16.69 19.98 15.34 20.34 13.87H16.6V12.52H21.19V11.77H16.6V9.52H14.73C14.4 9.52 14.4 9.84 14.4 9.84V11.76H9.74V12.51H14.38V13.86H10.55V14.61H17.98C17.71 15.55 17.34 16.43 16.91 17.23C14.5 16.43 11.93 15.79 10.31 16.19C9.28 16.44 8.61 16.9 8.22 17.38C6.43 19.56 7.71 22.88 11.5 22.88C13.74 22.88 15.9 21.63 17.57 19.57C20.05 20.76 24.93 22.8 24.99 22.82V22.95C24.99 24.63 23.63 25.99 21.95 25.99H9.04C7.36 26 6 24.64 6 22.96V10.04C6 8.36 7.36 7 9.04 7H21.95C23.64 7 25 8.36 25 10.04V19.89C24.91 19.88 24.2 19.78 21.66 18.93C20.9 18.68 19.88 18.29 18.75 17.88ZM10.64 17.32C10.17 17.37 9.27 17.58 8.79 18.01C7.33 19.28 8.2 21.61 11.16 21.61C12.88 21.61 14.59 20.51 15.94 18.75C14.2 17.9 12.7 17.27 11.13 17.29C10.96 17.3 10.8 17.31 10.64 17.32Z" fill="white"/>
</svg>
