<svg width="32" height="32" viewBox="0 0 32 32" fill="none" xmlns="http://www.w3.org/2000/svg">
<path d="M7.72 14.8616C7.77 15.2116 8.01 15.5016 8.35 15.6316L23.97 21.0216C24.22 21.1016 24.47 21.1416 24.72 21.1416C25.08 21.1416 25.43 21.0616 25.74 20.8916C26.22 20.6316 26.57 20.2016 26.71 19.6816C27.05 18.5216 26.4 17.2916 25.26 16.9316L20.88 15.4216L19.02 9.58156C18.92 9.38156 18.75 9.23156 18.59 9.11156L16.91 8.53156C16.59 8.43156 16.25 8.49156 16.01 8.70156C15.78 8.90156 15.68 9.18156 15.72 9.46156L16.13 13.8016L11.84 12.3316L10.6 9.99156C10.52 9.76156 10.31 9.58156 10.06 9.52156L8.28 8.93156C7.99 8.78156 7.64 8.81156 7.37 9.00156C7.1 9.20156 6.96 9.52156 7.01 9.85156L7.72 14.8616ZM9.72 10.4616L11.14 13.1716L17.28 15.2716L16.73 9.54156L18.06 9.97156C18.07 9.97156 18.08 9.98156 18.08 9.98156L20.08 16.2116L24.94 17.8916H24.95C25.58 18.0816 25.93 18.7616 25.74 19.4116C25.67 19.6716 25.5 19.8816 25.26 20.0016C24.97 20.1516 24.62 20.1716 24.28 20.0616L8.71 14.7216L8.02 9.89156L9.72 10.4616ZM27.5 27.5016C27.5 27.7816 27.28 28.0016 27 28.0016H5C4.72 28.0016 4.5 27.7816 4.5 27.5016C4.5 27.2216 4.72 27.0016 5 27.0016H27C27.28 27.0016 27.5 27.2216 27.5 27.5016Z" fill="#202020"/>
</svg>
