<svg width="32" height="32" viewBox="0 0 32 32" fill="none" xmlns="http://www.w3.org/2000/svg">
<path d="M27.85 15.8483L23.35 20.3483C23.25 20.4483 23.12 20.4983 23 20.4983C22.88 20.4983 22.74 20.4483 22.65 20.3483C22.45 20.1483 22.45 19.8383 22.65 19.6383L26.29 15.9983H4.5C4.22 15.9983 4 15.7783 4 15.4983C4 15.2183 4.22 14.9983 4.5 14.9983H26.29L22.64 11.3483C22.44 11.1483 22.44 10.8383 22.64 10.6383C22.84 10.4383 23.15 10.4383 23.35 10.6383L27.85 15.1383C27.9 15.1883 27.93 15.2383 27.96 15.2983C28.01 15.4183 28.01 15.5583 27.96 15.6783C27.94 15.7483 27.9 15.8083 27.85 15.8483Z" fill="white"/>
</svg>
