<svg width="32" height="32" viewBox="0 0 32 32" fill="none" xmlns="http://www.w3.org/2000/svg">
<path d="M21.35 23.35L16.85 27.85C16.8 27.9 16.75 27.93 16.69 27.96C16.63 27.99 16.57 28 16.5 28C16.43 28 16.37 27.99 16.31 27.96C16.25 27.93 16.19 27.9 16.15 27.85L11.65 23.35C11.45 23.15 11.45 22.84 11.65 22.64C11.85 22.44 12.16 22.44 12.36 22.64L16 26.29V4.5C16 4.22 16.22 4 16.5 4C16.78 4 17 4.22 17 4.5V26.29L20.65 22.64C20.85 22.44 21.16 22.44 21.36 22.64C21.56 22.84 21.55 23.16 21.35 23.35Z" fill="white"/>
</svg>
