<svg width="32" height="32" viewBox="0 0 32 32" fill="none" xmlns="http://www.w3.org/2000/svg">
<path d="M21.3502 9.35141C21.2602 9.45141 21.1302 9.50141 21.0002 9.50141C20.8702 9.50141 20.7402 9.45141 20.6502 9.35141L17.0002 5.71141V27.5014C17.0002 27.7814 16.7802 28.0014 16.5002 28.0014C16.2202 28.0014 16.0002 27.7814 16.0002 27.5014V5.71141L12.3502 9.36141C12.1502 9.56141 11.8402 9.56141 11.6402 9.36141C11.4402 9.16141 11.4402 8.85141 11.6402 8.65141L16.1402 4.15141C16.1902 4.10141 16.2402 4.07141 16.3002 4.04141C16.4202 3.99141 16.5602 3.99141 16.6802 4.04141C16.7402 4.07141 16.8002 4.10141 16.8402 4.15141L21.3402 8.65141C21.5502 8.84141 21.5502 9.16141 21.3502 9.35141Z" fill="white"/>
</svg>
