<svg width="32" height="32" viewBox="0 0 32 32" fill="none" xmlns="http://www.w3.org/2000/svg">
<path d="M28.0004 15.5C28.0004 15.78 27.7804 16 27.5004 16H5.71043L9.36043 19.65C9.56043 19.85 9.56043 20.16 9.36043 20.36C9.26043 20.45 9.13043 20.5 9.00043 20.5C8.87043 20.5 8.74043 20.45 8.65043 20.35L4.15043 15.85C4.10043 15.8 4.07043 15.75 4.04043 15.69C3.99043 15.57 3.99043 15.43 4.04043 15.31C4.07043 15.25 4.10043 15.19 4.15043 15.15L8.65043 10.65C8.85043 10.45 9.16043 10.45 9.36043 10.65C9.56043 10.85 9.56043 11.16 9.36043 11.36L5.71043 15H27.5004C27.7804 15 28.0004 15.22 28.0004 15.5Z" fill="#202020"/>
</svg>
