<svg width="32" height="32" viewBox="0 0 32 32" fill="none" xmlns="http://www.w3.org/2000/svg">
<path d="M24.6312 14.7329C24.4968 14.74 24.3696 14.6834 24.2776 14.5915C24.1857 14.4996 24.1291 14.3723 24.1362 14.238L24.1291 9.08316L8.72129 24.491C8.5233 24.689 8.21217 24.689 8.01418 24.491C7.81619 24.293 7.81619 23.9819 8.01418 23.7839L23.422 8.37605L18.2602 8.37605C17.9773 8.37605 17.7581 8.15685 17.7581 7.874C17.7581 7.59116 17.9773 7.37196 18.2602 7.37196L24.6241 7.37196C24.6948 7.37196 24.7514 7.3861 24.815 7.40731C24.9352 7.45681 25.0342 7.55581 25.0837 7.67601C25.1049 7.73965 25.1262 7.80329 25.1191 7.86693L25.1191 14.2309C25.1332 14.5137 24.907 14.74 24.6312 14.7329Z" fill="white"/>
</svg>
