<svg width="32" height="32" viewBox="0 0 32 32" fill="none" xmlns="http://www.w3.org/2000/svg">
<path d="M26.5 4H5.5C4.12 4 3 5.12 3 6.5V16.5C3 17.88 4.12 19 5.5 19H10V26.5C10 26.78 10.22 27 10.5 27H21.5C21.78 27 22 26.78 22 26.5V19H26.5C27.88 19 29 17.88 29 16.5V6.5C29 5.12 27.88 4 26.5 4ZM22 12H23.5C23.78 12 24 11.78 24 11.5C24 11.22 23.78 11 23.5 11H21.5H19.5H12.5H10.5H8.5C8.22 11 8 11.22 8 11.5C8 11.78 8.22 12 8.5 12H10V13H7.37C7.17 13 7 12.77 7 12.5V10.5C7 10.23 7.17 10 7.37 10H24.63C24.83 10 25 10.23 25 10.5V12.5C25 12.77 24.83 13 24.63 13H22V12ZM13 12H19V24H13V12ZM21 26H11V18.51C11 18.5 11 18.5 11 18.5V18.49V12H12V24.5C12 24.78 12.22 25 12.5 25H19.5C19.78 25 20 24.78 20 24.5V12H21V26ZM28 16.5C28 17.33 27.33 18 26.5 18H22V14H24.63C25.38 14 26 13.33 26 12.5V10.5C26 9.67 25.39 9 24.63 9H7.37C6.61 9 6 9.67 6 10.5V12.5C6 13.33 6.61 14 7.37 14H10V18H5.5C4.67 18 4 17.33 4 16.5V6.5C4 5.67 4.67 5 5.5 5H26.5C27.33 5 28 5.67 28 6.5V16.5Z" fill="#202020"/>
</svg>
