<svg width="32" height="32" viewBox="0 0 32 32" fill="none" xmlns="http://www.w3.org/2000/svg">
<path d="M26.5 8H5.5C4.67 8 4 8.79 4 9.75V12.25C4 13.21 4.67 14 5.5 14H10V25.03C10 25.86 10.67 26.53 11.5 26.53H20.5C21.33 26.53 22 25.86 22 25.03V14H26.5C27.33 14 28 13.21 28 12.25V9.75C28 8.79 27.33 8 26.5 8ZM20.5 25.53H11.5C11.22 25.53 11 25.31 11 25.03V11.5H21.01C21.01 11.51 21 11.52 21 11.54V13.43C21 13.46 20.98 13.48 20.98 13.51C20.98 13.54 21 13.55 21 13.58V25.04C21 25.31 20.78 25.53 20.5 25.53ZM27 12.25C27 12.65 26.77 13 26.5 13H22V11.54C22 11.53 21.99 11.52 21.99 11.5H25C25.28 11.5 25.5 11.28 25.5 11C25.5 10.72 25.28 10.5 25 10.5H7C6.72 10.5 6.5 10.72 6.5 11C6.5 11.28 6.72 11.5 7 11.5H10V13H5.5C5.23 13 5 12.65 5 12.25V9.75C5 9.35 5.23 9 5.5 9H26.5C26.77 9 27 9.35 27 9.75V12.25Z" fill="#202020"/>
</svg>
