<svg width="32" height="32" viewBox="0 0 32 32" fill="none" xmlns="http://www.w3.org/2000/svg">
<path d="M18 8.5V7.5C18 6.12 16.88 5 15.5 5C14.12 5 13 6.12 13 7.5V24.5C13 25.88 14.12 27 15.5 27C16.88 27 18 25.88 18 24.5V13C18 12.45 17.55 12 17 12C16.45 12 16 12.45 16 13V23.5C16 23.78 15.78 24 15.5 24C15.22 24 15 23.78 15 23.5V13C15 11.9 15.9 11 17 11C18.1 11 19 11.9 19 13V24.5C19 26.43 17.43 28 15.5 28C13.57 28 12 26.43 12 24.5V7.5C12 5.57 13.57 4 15.5 4C17.43 4 19 5.57 19 7.5V8.5C19 8.78 18.78 9 18.5 9C18.22 9 18 8.78 18 8.5Z" fill="#202020"/>
</svg>
