<svg width="32" height="32" viewBox="0 0 32 32" fill="none" xmlns="http://www.w3.org/2000/svg">
<path d="M18.98 12.32C20.48 11.46 21.5 9.85 21.5 8C21.5 5.24 19.26 3 16.5 3C13.74 3 11.5 5.24 11.5 8C11.5 9.85 12.52 11.45 14.02 12.32C9.98 13.42 7 17.14 7 21.56V27.5C7 28.33 7.67 29 8.5 29H24.5C25.33 29 26 28.33 26 27.5V21.56C26 17.14 23.02 13.42 18.98 12.32ZM12.5 8C12.5 5.79 14.29 4 16.5 4C18.71 4 20.5 5.79 20.5 8C20.5 10.15 18.8 11.89 16.67 11.98C16.61 11.98 16.56 11.97 16.5 11.97C16.44 11.97 16.39 11.98 16.33 11.98C14.2 11.89 12.5 10.15 12.5 8ZM25 27.5C25 27.78 24.78 28 24.5 28H8.5C8.22 28 8 27.78 8 27.5V21.56C8 16.89 11.72 13.08 16.33 12.99C16.39 12.99 16.44 13.01 16.5 13.01C16.56 13.01 16.61 12.99 16.67 12.99C21.28 13.08 25 16.89 25 21.56V27.5ZM14.45 21.4V21.38C14.64 21.28 14.79 21.18 14.92 21.06C15.05 20.95 15.14 20.83 15.21 20.7C15.34 20.44 15.41 20.16 15.4 19.87C15.4 19.31 15.24 18.85 14.92 18.51C14.6 18.17 14.13 18 13.49 17.99H11V24.99H13.71C14.22 24.99 14.64 24.81 14.98 24.44C15.32 24.09 15.5 23.61 15.5 23C15.5 22.63 15.42 22.3 15.25 21.99C15.07 21.7 14.8 21.5 14.45 21.4ZM11.97 18.94H13.38C13.74 18.95 14 19.04 14.17 19.22C14.34 19.42 14.43 19.66 14.43 19.94C14.43 20.22 14.34 20.46 14.17 20.64C14 20.84 13.74 20.94 13.38 20.94H11.97V18.94ZM14.27 23.68C14.1 23.89 13.84 24 13.47 24H11.97V21.89H13.47C13.83 21.9 14.1 22 14.27 22.2C14.44 22.41 14.52 22.65 14.52 22.94C14.53 23.23 14.44 23.47 14.27 23.68ZM20.45 21.4V21.38C20.63 21.28 20.79 21.18 20.92 21.06C21.05 20.95 21.14 20.83 21.21 20.7C21.34 20.44 21.41 20.16 21.4 19.87C21.4 19.31 21.24 18.85 20.92 18.51C20.6 18.17 20.13 18 19.49 17.99H17V24.99H19.71C20.22 24.99 20.64 24.81 20.98 24.44C21.32 24.09 21.5 23.61 21.5 23C21.5 22.63 21.42 22.3 21.25 21.99C21.07 21.7 20.8 21.5 20.45 21.4ZM17.97 18.94H19.38C19.74 18.95 20 19.04 20.17 19.22C20.34 19.42 20.43 19.66 20.43 19.94C20.43 20.22 20.34 20.46 20.17 20.64C20 20.84 19.74 20.94 19.38 20.94H17.97V18.94ZM20.27 23.68C20.1 23.89 19.84 24 19.47 24H17.97V21.89H19.47C19.83 21.9 20.1 22 20.27 22.2C20.44 22.41 20.52 22.65 20.52 22.94C20.53 23.23 20.44 23.47 20.27 23.68Z" fill="white"/>
</svg>
