<svg width="32" height="32" viewBox="0 0 32 32" fill="none" xmlns="http://www.w3.org/2000/svg">
<path d="M27.5004 11.9794C27.7304 11.9794 27.9404 11.8194 27.9904 11.5894C28.0403 11.3594 27.9303 11.1294 27.7104 11.0294L16.6104 5.75938C16.2004 5.55938 15.7304 5.55938 15.3104 5.75938L4.29035 11.0294C4.08035 11.1294 3.97035 11.3594 4.02035 11.5894C4.07035 11.8194 4.27035 11.9794 4.51035 11.9794H6.51035V24.9294L4.36035 24.9194C4.08035 24.9194 3.86035 25.1394 3.86035 25.4194C3.86035 25.6994 4.08035 25.9194 4.36035 25.9194L27.3804 25.9994C27.6604 25.9994 27.8804 25.7794 27.8804 25.4994C27.8804 25.2194 27.6604 24.9994 27.3804 24.9994L25.4904 24.9894V11.9794H27.5004ZM15.7504 6.65937C15.8904 6.58937 16.0404 6.59937 16.1804 6.65937L25.2704 10.9894L15.9704 10.9994L6.71035 10.9794L15.7504 6.65937ZM15.5004 11.9994V24.9594L12.0004 24.9494V11.9894L15.5004 11.9994ZM16.5004 11.9994L20.0004 11.9894V24.9694L16.5004 24.9594V11.9994ZM7.50035 11.9894L11.0004 11.9994V24.9594L7.50035 24.9494V11.9894ZM24.5004 24.9894L21.0004 24.9794V11.9894L24.5004 11.9794V24.9894Z" fill="#202020"/>
</svg>
