<svg width="32" height="32" viewBox="0 0 32 32" fill="none" xmlns="http://www.w3.org/2000/svg">
<path d="M29.5 24H28V7.5C28 7.22 27.78 7 27.5 7H24.5C24.22 7 24 7.22 24 7.5V24H23V18.5C23 18.22 22.78 18 22.5 18H19.5C19.22 18 19 18.22 19 18.5V24H18V9.5C18 9.22 17.78 9 17.5 9H14.5C14.22 9 14 9.22 14 9.5V24H13V13.5C13 13.22 12.78 13 12.5 13H9.5C9.22 13 9 13.22 9 13.5V24H8V5.5C8 5.22 7.78 5 7.5 5H4.5C4.22 5 4 5.22 4 5.5V24H2.5C2.22 24 2 24.22 2 24.5C2 24.78 2.22 25 2.5 25H4.5H7.5H9.5H12.5H14.5H17.5H19.5H22.5H24.5H27.5H29.5C29.78 25 30 24.78 30 24.5C30 24.22 29.78 24 29.5 24ZM5 24V6H7V24H5ZM10 24V14H12V24H10ZM15 24V10H17V24H15ZM20 24V19H22V24H20ZM25 24V8H27V24H25Z" fill="white"/>
</svg>
