<svg width="32" height="32" viewBox="0 0 32 32" fill="none" xmlns="http://www.w3.org/2000/svg">
<path d="M5 7.5V25.5C5 25.78 4.78 26 4.5 26C4.22 26 4 25.78 4 25.5V7.5C4 7.22 4.22 7 4.5 7C4.78 7 5 7.22 5 7.5ZM6.5 7C6.22 7 6 7.22 6 7.5V22.5C6 22.78 6.22 23 6.5 23C6.78 23 7 22.78 7 22.5V7.5C7 7.22 6.78 7 6.5 7ZM8.5 7C8.22 7 8 7.22 8 7.5V22.5C8 22.78 8.22 23 8.5 23C8.78 23 9 22.78 9 22.5V7.5C9 7.22 8.78 7 8.5 7ZM11.5 7C11.22 7 11 7.22 11 7.5V22.5C11 22.78 11.22 23 11.5 23C11.78 23 12 22.78 12 22.5V7.5C12 7.22 11.78 7 11.5 7ZM13.5 7C13.22 7 13 7.22 13 7.5V22.5C13 22.78 13.22 23 13.5 23C13.78 23 14 22.78 14 22.5V7.5C14 7.22 13.78 7 13.5 7ZM15.5 7C15.22 7 15 7.22 15 7.5V22.5C15 22.78 15.22 23 15.5 23C15.78 23 16 22.78 16 22.5V7.5C16 7.22 15.78 7 15.5 7ZM18.5 7C18.22 7 18 7.22 18 7.5V22.5C18 22.78 18.22 23 18.5 23C18.78 23 19 22.78 19 22.5V7.5C19 7.22 18.78 7 18.5 7ZM21.5 7C21.22 7 21 7.22 21 7.5V22.5C21 22.78 21.22 23 21.5 23C21.78 23 22 22.78 22 22.5V7.5C22 7.22 21.78 7 21.5 7ZM23.5 7C23.22 7 23 7.22 23 7.5V22.5C23 22.78 23.22 23 23.5 23C23.78 23 24 22.78 24 22.5V7.5C24 7.22 23.78 7 23.5 7ZM25.5 7C25.22 7 25 7.22 25 7.5V22.5C25 22.78 25.22 23 25.5 23C25.78 23 26 22.78 26 22.5V7.5C26 7.22 25.78 7 25.5 7ZM27.5 7C27.22 7 27 7.22 27 7.5V25C27 25.28 27.22 25.5 27.5 25.5C27.78 25.5 28 25.28 28 25V7.5C28 7.22 27.78 7 27.5 7Z" fill="#202020"/>
</svg>
