<svg width="32" height="32" viewBox="0 0 32 32" fill="none" xmlns="http://www.w3.org/2000/svg">
<path d="M23.2897 4.29C23.0897 4.1 22.8397 4 22.5597 4H10.4397C10.1497 4 9.89969 4.1 9.65969 4.34C9.50969 4.53 9.42969 4.78 9.42969 5.04L10.6897 27.08C10.7397 27.61 11.1597 28 11.6897 28H21.2897C21.8197 28 22.2397 27.61 22.2897 27.06L23.3497 8.27L23.5497 5.01C23.5597 4.78 23.4797 4.53 23.2897 4.29ZM22.5697 4.98L22.4097 7.47H22.3997C20.6597 8.28 18.2697 7.85 15.9697 7.45C13.9697 7.1 12.0597 6.76 10.5597 7.22L10.4397 5L22.5697 4.98ZM21.2997 27L11.6997 27.01L10.6197 8.27C11.8997 7.76 13.7897 8.09 15.7897 8.44C17.1797 8.69 18.5997 8.94 19.9397 8.94C20.7797 8.94 21.5897 8.83 22.3397 8.57L21.2997 27Z" fill="white"/>
</svg>
