<svg width="32" height="32" viewBox="0 0 32 32" fill="none" xmlns="http://www.w3.org/2000/svg">
<path d="M27.5004 13.5986C27.1504 13.2186 26.6604 12.9986 26.1504 12.9986H26.0504L18.8504 5.64859C18.6604 5.44859 18.3404 5.44859 18.1404 5.63859C17.9404 5.82859 17.9404 6.14859 18.1304 6.34859L24.6604 12.9986H7.78041L14.3604 6.34859C14.5504 6.14859 14.5504 5.83859 14.3604 5.63859C14.1604 5.44859 13.8504 5.44859 13.6504 5.63859L6.3704 12.9986H5.84041C5.33041 12.9986 4.8404 13.2186 4.4904 13.5986C4.1304 13.9886 3.95041 14.5186 4.00041 15.0586L4.9904 25.0386C5.1404 26.7286 6.51041 27.9986 8.1704 27.9986H23.8404C25.5004 27.9986 26.8604 26.7286 27.0104 25.0386L28.0004 15.0486C28.0404 14.5186 27.8604 13.9886 27.5004 13.5986ZM26.0104 24.9486C25.9104 26.1186 24.9704 26.9986 23.8404 26.9986H8.1704C7.03041 26.9986 6.1004 26.1186 5.9904 24.9386L5.00041 14.9586C4.98041 14.7086 5.06041 14.4586 5.23041 14.2686C5.39041 14.0986 5.61041 13.9986 5.84041 13.9986H26.1504C26.3804 13.9986 26.6004 14.0986 26.7604 14.2686C26.9304 14.4486 27.0104 14.6986 26.9904 14.9486L26.0104 24.9486ZM11.0004 17.4986V23.4986C11.0004 23.7786 10.7804 23.9986 10.5004 23.9986C10.2204 23.9986 10.0004 23.7786 10.0004 23.4986V17.4986C10.0004 17.2186 10.2204 16.9986 10.5004 16.9986C10.7804 16.9986 11.0004 17.2186 11.0004 17.4986ZM16.5004 17.4986V23.4986C16.5004 23.7786 16.2804 23.9986 16.0004 23.9986C15.7204 23.9986 15.5004 23.7786 15.5004 23.4986V17.4986C15.5004 17.2186 15.7204 16.9986 16.0004 16.9986C16.2804 16.9986 16.5004 17.2186 16.5004 17.4986ZM22.0004 17.4986V23.4986C22.0004 23.7786 21.7804 23.9986 21.5004 23.9986C21.2204 23.9986 21.0004 23.7786 21.0004 23.4986V17.4986C21.0004 17.2186 21.2204 16.9986 21.5004 16.9986C21.7804 16.9986 22.0004 17.2186 22.0004 17.4986Z" fill="#202020"/>
</svg>
