<svg width="32" height="32" viewBox="0 0 32 32" fill="none" xmlns="http://www.w3.org/2000/svg">
<path d="M29 23.5C29 23.78 28.78 24 28.5 24H3.5C3.22 24 3 23.78 3 23.5C3 23.22 3.22 23 3.5 23H28.5C28.78 23 29 23.22 29 23.5ZM14.5 7H15.5V7.5C15.5 7.78 15.72 8 16 8C16.28 8 16.5 7.78 16.5 7.5V7H17.5C17.78 7 18 6.78 18 6.5C18 6.22 17.78 6 17.5 6H14.5C14.22 6 14 6.22 14 6.5C14 6.78 14.22 7 14.5 7ZM4.45 20.49C4.17 20.17 4.03 19.75 4.08 19.32C4.76 13.26 9.89 8.68 16 8.68C22.22 8.68 27.35 13.34 27.95 19.52C27.99 19.94 27.85 20.37 27.56 20.68C27.27 20.99 26.87 21.17 26.45 21.17H26.44L5.56 21C5.13 21 4.73 20.81 4.45 20.49ZM5.07 19.44C5.05 19.58 5.1 19.72 5.19 19.83C5.29 19.94 5.42 20 5.57 20L26.44 20.18C26.57 20.18 26.72 20.12 26.82 20.02C26.92 19.91 26.97 19.77 26.95 19.63C26.41 13.96 21.7 9.68 16 9.68C10.4 9.68 5.7 13.88 5.07 19.44Z" fill="#202020"/>
</svg>
