<svg width="32" height="32" viewBox="0 0 32 32" fill="none" xmlns="http://www.w3.org/2000/svg">
<path d="M25.5 8H6.5C5.12 8 4 9.12 4 10.5V21.5C4 22.88 5.12 24 6.5 24H25.5C26.88 24 28 22.88 28 21.5V10.5C28 9.12 26.88 8 25.5 8ZM27 21.5C27 22.33 26.33 23 25.5 23H6.5C5.67 23 5 22.33 5 21.5V10.5C5 9.67 5.67 9 6.5 9H25.5C26.33 9 27 9.67 27 10.5V21.5ZM22.46 13.06C22.07 12.89 21.65 12.89 21.26 13.06L18.45 14.18L15.2 11.66C14.97 11.46 14.67 11.43 14.43 11.55L13.42 11.97C13.17 12.08 12.99 12.3 12.94 12.56C12.89 12.82 12.96 13.08 13.12 13.25L15.04 15.55L12.42 16.6L10.89 15.82C10.69 15.68 10.43 15.67 10.23 15.78L9.08 16.26C8.82 16.32 8.61 16.51 8.53 16.78C8.44 17.06 8.51 17.37 8.71 17.58L11.15 20.24C11.3 20.4 11.51 20.49 11.73 20.49C11.82 20.49 11.92 20.47 12.01 20.44L22.42 16.3C23.28 15.95 23.71 14.95 23.39 14.08C23.23 13.62 22.89 13.24 22.46 13.06ZM22.05 15.38L11.8 19.46L9.63 17.1L10.51 16.74L12.17 17.59C12.3 17.65 12.45 17.66 12.58 17.61L16.05 16.22C16.2 16.16 16.31 16.03 16.35 15.88C16.39 15.73 16.35 15.56 16.25 15.44L14.04 12.8L14.68 12.53L18.06 15.15C18.2 15.26 18.39 15.28 18.55 15.22L21.63 14C21.63 14 21.64 14 21.65 13.99C21.82 13.92 21.96 13.95 22.06 13.99C22.23 14.07 22.38 14.23 22.45 14.45C22.59 14.81 22.41 15.23 22.05 15.38Z" fill="white"/>
</svg>
