<svg width="32" height="32" viewBox="0 0 32 32" fill="none" xmlns="http://www.w3.org/2000/svg">
<path d="M23.5 5H7.5C6.67 5 6 5.67 6 6.5V26.5C6 27.33 6.67 28 7.5 28H23.5C24.33 28 25 27.33 25 26.5V6.5C25 5.67 24.33 5 23.5 5ZM24 26.5C24 26.78 23.78 27 23.5 27H7.5C7.22 27 7 26.78 7 26.5V6.5C7 6.22 7.22 6 7.5 6H23.5C23.78 6 24 6.22 24 6.5V26.5ZM21.5 8H9.5C9.22 8 9 8.22 9 8.5V12.5C9 12.78 9.22 13 9.5 13H21.5C21.78 13 22 12.78 22 12.5V8.5C22 8.22 21.78 8 21.5 8ZM21 12H10V9H21V12ZM12 15.5C12 15.78 11.78 16 11.5 16H9.5C9.22 16 9 15.78 9 15.5C9 15.22 9.22 15 9.5 15H11.5C11.78 15 12 15.22 12 15.5ZM14 15.5C14 15.22 14.22 15 14.5 15H16.5C16.78 15 17 15.22 17 15.5C17 15.78 16.78 16 16.5 16H14.5C14.22 16 14 15.78 14 15.5ZM22 15.5C22 15.78 21.78 16 21.5 16H19.5C19.22 16 19 15.78 19 15.5C19 15.22 19.22 15 19.5 15H21.5C21.78 15 22 15.22 22 15.5ZM12 18.5C12 18.78 11.78 19 11.5 19H9.5C9.22 19 9 18.78 9 18.5C9 18.22 9.22 18 9.5 18H11.5C11.78 18 12 18.22 12 18.5ZM14 18.5C14 18.22 14.22 18 14.5 18H16.5C16.78 18 17 18.22 17 18.5C17 18.78 16.78 19 16.5 19H14.5C14.22 19 14 18.78 14 18.5ZM12 21.5C12 21.78 11.78 22 11.5 22H9.5C9.22 22 9 21.78 9 21.5C9 21.22 9.22 21 9.5 21H11.5C11.78 21 12 21.22 12 21.5ZM14 21.5C14 21.22 14.22 21 14.5 21H16.5C16.78 21 17 21.22 17 21.5C17 21.78 16.78 22 16.5 22H14.5C14.22 22 14 21.78 14 21.5ZM12 24.5C12 24.78 11.78 25 11.5 25H9.5C9.22 25 9 24.78 9 24.5C9 24.22 9.22 24 9.5 24H11.5C11.78 24 12 24.22 12 24.5ZM22 24.5C22 24.78 21.78 25 21.5 25H14.5C14.22 25 14 24.78 14 24.5C14 24.22 14.22 24 14.5 24H21.5C21.78 24 22 24.22 22 24.5ZM22 18.5C22 18.78 21.78 19 21.5 19H19.5C19.22 19 19 18.78 19 18.5C19 18.22 19.22 18 19.5 18H21.5C21.78 18 22 18.22 22 18.5ZM22 21.5C22 21.78 21.78 22 21.5 22H19.5C19.22 22 19 21.78 19 21.5C19 21.22 19.22 21 19.5 21H21.5C21.78 21 22 21.22 22 21.5Z" fill="white"/>
</svg>
