<svg width="32" height="32" viewBox="0 0 32 32" fill="none" xmlns="http://www.w3.org/2000/svg">
<path d="M26.5 7H24V6C24 5.72 23.78 5.5 23.5 5.5C23.22 5.5 23 5.72 23 6V7H19V6C19 5.72 18.78 5.5 18.5 5.5C18.22 5.5 18 5.72 18 6V7H14V6C14 5.72 13.78 5.5 13.5 5.5C13.22 5.5 13 5.72 13 6V7H9V6C9 5.72 8.78 5.5 8.5 5.5C8.22 5.5 8 5.72 8 6V7H5.5C4.67 7 4 7.67 4 8.5V24.5C4 25.33 4.67 26 5.5 26H26.5C27.33 26 28 25.33 28 24.5V8.5C28 7.67 27.33 7 26.5 7ZM5 8.5C5 8.22 5.22 8 5.5 8H8V9C8 9.28 8.22 9.5 8.5 9.5C8.78 9.5 9 9.28 9 9V8H13V9C13 9.28 13.22 9.5 13.5 9.5C13.78 9.5 14 9.28 14 9V8H18V9C18 9.28 18.22 9.5 18.5 9.5C18.78 9.5 19 9.28 19 9V8H23V9C23 9.28 23.22 9.5 23.5 9.5C23.78 9.5 24 9.28 24 9V8H26.5C26.78 8 27 8.22 27 8.5V10H5V8.5ZM27 24.5C27 24.78 26.78 25 26.5 25H5.5C5.22 25 5 24.78 5 24.5V11H27V24.5ZM12 13.5C12 13.22 12.22 13 12.5 13H14.5C14.78 13 15 13.22 15 13.5C15 13.78 14.78 14 14.5 14H12.5C12.22 14 12 13.78 12 13.5ZM17 13.5C17 13.22 17.22 13 17.5 13H19.5C19.78 13 20 13.22 20 13.5C20 13.78 19.78 14 19.5 14H17.5C17.22 14 17 13.78 17 13.5ZM22 13.5C22 13.22 22.22 13 22.5 13H24.5C24.78 13 25 13.22 25 13.5C25 13.78 24.78 14 24.5 14H22.5C22.22 14 22 13.78 22 13.5ZM12 16.5C12 16.22 12.22 16 12.5 16H14.5C14.78 16 15 16.22 15 16.5C15 16.78 14.78 17 14.5 17H12.5C12.22 17 12 16.78 12 16.5ZM17 16.5C17 16.22 17.22 16 17.5 16H19.5C19.78 16 20 16.22 20 16.5C20 16.78 19.78 17 19.5 17H17.5C17.22 17 17 16.78 17 16.5ZM22 16.5C22 16.22 22.22 16 22.5 16H24.5C24.78 16 25 16.22 25 16.5C25 16.78 24.78 17 24.5 17H22.5C22.22 17 22 16.78 22 16.5ZM7 16.5C7 16.22 7.22 16 7.5 16H9.5C9.78 16 10 16.22 10 16.5C10 16.78 9.78 17 9.5 17H7.5C7.22 17 7 16.78 7 16.5ZM12 19.5C12 19.22 12.22 19 12.5 19H14.5C14.78 19 15 19.22 15 19.5C15 19.78 14.78 20 14.5 20H12.5C12.22 20 12 19.78 12 19.5ZM17 19.5C17 19.22 17.22 19 17.5 19H19.5C19.78 19 20 19.22 20 19.5C20 19.78 19.78 20 19.5 20H17.5C17.22 20 17 19.78 17 19.5ZM22 19.5C22 19.22 22.22 19 22.5 19H24.5C24.78 19 25 19.22 25 19.5C25 19.78 24.78 20 24.5 20H22.5C22.22 20 22 19.78 22 19.5ZM7 19.5C7 19.22 7.22 19 7.5 19H9.5C9.78 19 10 19.22 10 19.5C10 19.78 9.78 20 9.5 20H7.5C7.22 20 7 19.78 7 19.5ZM12 22.5C12 22.22 12.22 22 12.5 22H14.5C14.78 22 15 22.22 15 22.5C15 22.78 14.78 23 14.5 23H12.5C12.22 23 12 22.78 12 22.5ZM17 22.5C17 22.22 17.22 22 17.5 22H19.5C19.78 22 20 22.22 20 22.5C20 22.78 19.78 23 19.5 23H17.5C17.22 23 17 22.78 17 22.5ZM22 22.5C22 22.22 22.22 22 22.5 22H24.5C24.78 22 25 22.22 25 22.5C25 22.78 24.78 23 24.5 23H22.5C22.22 23 22 22.78 22 22.5ZM7 22.5C7 22.22 7.22 22 7.5 22H9.5C9.78 22 10 22.22 10 22.5C10 22.78 9.78 23 9.5 23H7.5C7.22 23 7 22.78 7 22.5Z" fill="white"/>
</svg>
