<svg width="32" height="32" viewBox="0 0 32 32" fill="none" xmlns="http://www.w3.org/2000/svg">
<path d="M11.746 7.0614V9.74297" stroke="white" stroke-miterlimit="10" stroke-linecap="round" stroke-linejoin="round"/>
<path d="M20.254 7.0614V9.74297" stroke="white" stroke-miterlimit="10" stroke-linecap="round" stroke-linejoin="round"/>
<path d="M6.4469 13.3988H26" stroke="white" stroke-miterlimit="10" stroke-linecap="round" stroke-linejoin="round"/>
<path d="M26 12.8715V20.4693C26 23.1508 24.3333 24.9385 20.4444 24.9385H11.5556C7.66667 24.9385 6 23.1508 6 20.4693V12.8715C6 10.1899 7.66667 8.40219 11.5556 8.40219H20.4444C24.3333 8.40219 26 10.1899 26 12.8715Z" stroke="white" stroke-miterlimit="10" stroke-linecap="round" stroke-linejoin="round"/>
<path d="M20.9583 17.5196H20.9663" stroke="white" stroke-linecap="round" stroke-linejoin="round"/>
<path d="M20.9583 20.2011H20.9663" stroke="white" stroke-linecap="round" stroke-linejoin="round"/>
<path d="M14.342 17.5196H14.35" stroke="white" stroke-linecap="round" stroke-linejoin="round"/>
<path d="M17.6502 17.5196H17.6582" stroke="white" stroke-linecap="round" stroke-linejoin="round"/>
<path d="M14.342 20.2011H14.35" stroke="white" stroke-linecap="round" stroke-linejoin="round"/>
<path d="M17.6502 20.2011H17.6582" stroke="white" stroke-linecap="round" stroke-linejoin="round"/>
<path d="M11.0337 17.5196H11.0417" stroke="white" stroke-linecap="round" stroke-linejoin="round"/>
<path d="M11.0337 20.2011H11.0417" stroke="white" stroke-linecap="round" stroke-linejoin="round"/>
</svg>
