<svg width="32" height="32" viewBox="0 0 32 32" fill="none" xmlns="http://www.w3.org/2000/svg">
<path d="M24.1897 18.7C23.1597 17.88 22.3697 17.49 21.6897 17.49C20.8797 17.49 20.3297 18.04 19.7597 18.63L19.5697 18.83C19.4697 18.93 19.3497 18.98 19.1797 18.98C18.6597 18.98 17.5697 18.5 15.2897 16.22C12.2897 13.22 12.3697 12.25 12.6797 11.94L12.8797 11.75C14.0897 10.55 14.6997 9.66 12.8097 7.32C12.0997 6.44 11.3997 6 10.7097 6C9.75967 6 9.01967 6.78 8.36967 7.47C8.24967 7.59 8.13967 7.71 8.02967 7.81C7.30967 8.53 7.31967 10.13 8.05967 12.1C8.88967 14.29 10.5197 16.68 12.6697 18.82C16.4897 22.65 20.0997 24 22.0397 24C22.7797 24 23.3297 23.82 23.6797 23.47L24.0297 23.13C24.6997 22.49 25.5397 21.7 25.4997 20.72C25.4697 20.05 25.0297 19.38 24.1897 18.7ZM23.3397 22.41L22.9697 22.76C22.8997 22.83 22.6697 23 22.0397 23C20.2897 23 16.9797 21.72 13.3797 18.12C11.3397 16.08 9.77967 13.81 8.99967 11.75C8.36967 10.09 8.38967 8.87 8.73967 8.52C8.84967 8.41 8.96967 8.28 9.08967 8.15C9.60967 7.61 10.1897 7 10.7097 7C11.0797 7 11.5297 7.32 12.0197 7.93C13.4697 9.74 13.1397 10.06 12.1597 11.02L11.9597 11.22C10.5897 12.59 12.6397 14.99 14.5697 16.92C17.4997 19.85 19.2797 20.53 20.2697 19.53L20.4697 19.33C20.9997 18.79 21.3197 18.49 21.6897 18.49C21.9797 18.49 22.5397 18.66 23.5597 19.48C24.1497 19.96 24.4797 20.4 24.4897 20.76C24.5197 21.29 23.8697 21.91 23.3397 22.41Z" fill="white"/>
</svg>
