<svg width="32" height="32" viewBox="0 0 32 32" fill="none" xmlns="http://www.w3.org/2000/svg">
<path d="M11.5 4.5C11.5 4.78 11.28 5 11 5H6.5C5.67 5 5 5.67 5 6.5V11C5 11.28 4.78 11.5 4.5 11.5C4.22 11.5 4 11.28 4 11V6.5C4 5.12 5.12 4 6.5 4H11C11.28 4 11.5 4.22 11.5 4.5ZM11 27H6.5C5.67 27 5 26.33 5 25.5V21C5 20.72 4.78 20.5 4.5 20.5C4.22 20.5 4 20.72 4 21V25.5C4 26.88 5.12 28 6.5 28H11C11.28 28 11.5 27.78 11.5 27.5C11.5 27.22 11.28 27 11 27ZM27.5 20.5C27.22 20.5 27 20.72 27 21V25.5C27 26.33 26.33 27 25.5 27H21C20.72 27 20.5 27.22 20.5 27.5C20.5 27.78 20.72 28 21 28H25.5C26.88 28 28 26.88 28 25.5V21C28 20.72 27.78 20.5 27.5 20.5ZM25.5 4H21C20.72 4 20.5 4.22 20.5 4.5C20.5 4.78 20.72 5 21 5H25.5C26.33 5 27 5.67 27 6.5V11C27 11.28 27.22 11.5 27.5 11.5C27.78 11.5 28 11.28 28 11V6.5C28 5.12 26.88 4 25.5 4ZM20 16C20 18.21 18.21 20 16 20C13.79 20 12 18.21 12 16C12 13.79 13.79 12 16 12C18.21 12 20 13.79 20 16ZM19 16C19 14.35 17.65 13 16 13C14.35 13 13 14.35 13 16C13 17.65 14.35 19 16 19C17.65 19 19 17.65 19 16Z" fill="#202020"/>
</svg>
