<svg width="32" height="32" viewBox="0 0 32 32" fill="none" xmlns="http://www.w3.org/2000/svg">
<path d="M25.5 8H19V7.5C19 6.67 18.33 6 17.5 6H13.5C12.67 6 12 6.67 12 7.5V8H6.5C5.12 8 4 9.12 4 10.5V23.5C4 24.88 5.12 26 6.5 26H25.5C26.88 26 28 24.88 28 23.5V10.5C28 9.12 26.88 8 25.5 8ZM13 7.5C13 7.22 13.22 7 13.5 7H17.5C17.78 7 18 7.22 18 7.5V7.96H13V7.5ZM27 23.5C27 24.33 26.33 25 25.5 25H6.5C5.67 25 5 24.33 5 23.5V10.5C5 9.67 5.67 9 6.5 9H25.5C26.33 9 27 9.67 27 10.5V23.5ZM16 11C12.69 11 10 13.69 10 17C10 20.31 12.69 23 16 23C19.31 23 22 20.31 22 17C22 13.69 19.31 11 16 11ZM16 22C13.24 22 11 19.76 11 17C11 14.24 13.24 12 16 12C18.76 12 21 14.24 21 17C21 19.76 18.76 22 16 22ZM26 10.5C26 10.78 25.78 11 25.5 11H22.5C22.22 11 22 10.78 22 10.5C22 10.22 22.22 10 22.5 10H25.5C25.78 10 26 10.22 26 10.5Z" fill="#202020"/>
</svg>
