<svg width="32" height="32" viewBox="0 0 32 32" fill="none" xmlns="http://www.w3.org/2000/svg">
<path d="M7.937 21.7557C8.74251 21.7557 9.39804 22.4124 9.39804 23.2249C9.39804 24.0348 8.74493 24.694 7.937 24.694C7.13149 24.694 6.47596 24.0373 6.47596 23.2249C6.47959 22.4124 7.1327 21.7557 7.937 21.7557ZM7.937 24.0689C8.40143 24.0689 8.7788 23.6894 8.7788 23.2224C8.7788 22.7554 8.40143 22.3759 7.937 22.3759C7.47257 22.3759 7.09521 22.7554 7.09521 23.2224C7.09521 23.6894 7.47257 24.0689 7.937 24.0689Z" fill="white"/>
<path d="M24.5609 21.7557C25.3664 21.7557 26.0219 22.4124 26.0219 23.2249C26.0219 24.0348 25.3688 24.694 24.5609 24.694C23.7554 24.694 23.0998 24.0373 23.0998 23.2249C23.1023 22.4124 23.7554 21.7557 24.5609 21.7557ZM24.5609 24.0689C25.0253 24.0689 25.4027 23.6894 25.4027 23.2224C25.4027 22.7554 25.0253 22.3759 24.5609 22.3759C24.0964 22.3759 23.7191 22.7554 23.7191 23.2224C23.7191 23.6894 24.1001 24.0689 24.5609 24.0689Z" fill="white"/>
<path d="M2.45702 21.1025C2.50298 20.931 2.68319 20.7851 2.90935 20.8447L2.93112 20.8508C3.00489 20.3838 3.13189 19.5775 3.17906 19.3001C3.12342 19.0666 2.94079 18.2786 2.94684 17.7556L2.95652 17.6839C3.14519 16.9274 7.19553 14.4086 7.83304 14.1813C8.73772 13.8603 15.9423 14.0378 17.1616 14.1655C19.1863 14.3747 22.3078 16.9055 22.8159 17.3287C23.1074 17.3749 24.1633 17.544 25.8746 17.7738C27.6489 18.011 28.9708 18.4281 29.5089 18.9195C29.9177 19.2928 29.8742 20.3083 29.8307 20.7498C29.8742 20.8276 29.9262 20.9432 29.9673 21.0794C30.0109 21.2813 30.0109 23.0593 29.9673 23.2685L29.9492 23.3585L29.8839 23.4241C29.8597 23.4485 29.7629 23.536 29.509 23.6953C29.082 23.9665 27.7686 24.2864 27.0876 24.3338C26.6607 25.314 25.6907 26 24.5575 26C23.4641 26 22.5232 25.3591 22.0745 24.4336H16.4155C14.0897 24.4336 11.3625 24.3375 10.4795 24.3059C10.061 25.3019 9.08013 26 7.93719 26C6.56567 26 5.43242 24.9942 5.21591 23.6771C4.41405 23.5616 3.45373 23.3378 3.2469 23.17C2.45712 22.5351 2.44867 21.2363 2.44867 21.184L2.45702 21.1025ZM17.0987 14.7882C15.4792 14.6204 8.69898 14.5389 8.03856 14.7724C7.76885 14.8685 7.19072 15.1993 6.53036 15.6164H8.21514C8.42316 15.4486 8.76301 15.1811 8.99885 15.0752C9.30242 14.9378 10.3486 14.9232 12.857 14.9257H13.6807C15.7585 14.9196 16.9134 14.9257 18.0336 15.3331C19.0278 15.6979 20.7392 17.1075 21.3379 17.6146L21.991 17.4626C20.9751 16.6684 18.6226 14.9439 17.0987 14.7882ZM11.7336 15.5447C10.535 15.5484 9.45736 15.563 9.26023 15.6384C9.15138 15.6882 8.97238 15.8123 8.80183 15.946L11.3284 17.3507C11.3683 17.3726 11.4119 17.3848 11.4554 17.3848L11.7312 17.3908C11.7082 16.9555 11.684 16.2112 11.7336 15.5447ZM12.3528 17.4103L14.9011 17.4821L15.0221 15.552C14.6508 15.5459 14.242 15.5459 13.7836 15.5459H13.682H12.8584H12.354C12.2996 16.2075 12.331 16.9895 12.3528 17.4103ZM15.5202 17.5003L16.0742 17.5161L15.9073 15.58C15.8202 15.5763 15.7343 15.5702 15.6412 15.5678L15.5202 17.5003ZM16.5325 15.6286L16.6994 17.5307L20.387 17.6365C19.6565 17.0455 18.5075 16.1698 17.8206 15.9181C17.4239 15.7722 17.0091 15.6846 16.5325 15.6286ZM29.2208 19.8476H27.2542C27.201 19.8476 27.1708 19.9072 27.201 19.9497L27.6122 20.5128C27.6437 20.5566 27.6932 20.5809 27.7452 20.5809L29.222 20.5907C29.245 20.3243 29.2426 20.0628 29.2208 19.8476ZM29.1833 23.1702C29.2668 23.1167 29.3284 23.0766 29.3696 23.0461C29.3732 22.9866 29.3756 22.9087 29.3756 22.8187C28.9354 22.8966 28.177 23.0084 27.3099 23.0303C27.3135 23.096 27.3195 23.1617 27.3195 23.2261C27.3195 23.3855 27.3038 23.5411 27.276 23.6932C27.9545 23.6019 28.9233 23.3319 29.1833 23.1702ZM24.5607 25.3775C25.7399 25.3775 26.7038 24.4119 26.7038 23.2225C26.7038 22.0331 25.7435 21.0674 24.5607 21.0674C23.3778 21.0686 22.4211 22.0367 22.4211 23.2261C22.4211 24.4155 23.3815 25.3775 24.5607 25.3775ZM10.6556 23.6895C11.6655 23.7272 14.22 23.8111 16.4152 23.8111H21.8639C21.824 23.6214 21.8022 23.4256 21.8022 23.2225C21.8022 23.1106 21.8119 22.9987 21.824 22.8893L21.316 22.8734C21.2628 22.8734 21.137 22.8795 21.0874 22.8978L20.0594 23.203C19.9941 23.2249 19.9263 23.2371 19.8586 23.2371H12.8763C12.7808 23.2371 12.6877 23.2152 12.6042 23.1751L11.8362 22.8078C11.7552 22.7676 11.6596 22.7482 11.5205 22.7457L10.6509 22.7275C10.6788 22.8892 10.6969 23.0547 10.6969 23.2261C10.6993 23.3842 10.6798 23.5375 10.6556 23.6895ZM11.628 22.1267C11.7828 22.1304 11.9001 22.1486 11.9836 22.1887L12.7455 22.5536C12.8326 22.5937 12.9245 22.6156 13.0176 22.6156H19.7556C19.8233 22.6156 19.8923 22.6035 19.9564 22.5816L20.9904 22.2739C21.0437 22.2556 21.167 22.2496 21.219 22.2496L21.9689 22.2714C22.3559 21.2061 23.3682 20.4472 24.5608 20.4472C25.8029 20.4472 26.8515 21.2717 27.1986 22.4052C28.1432 22.3894 28.9825 22.2556 29.3817 22.1815C29.3817 21.7424 29.378 21.307 29.3696 21.2316C29.3659 21.2255 29.3659 21.2219 29.3635 21.2158L27.6364 21.2036C27.4695 21.2036 27.3087 21.1295 27.1877 20.9823L26.4536 19.9741C26.3387 19.8367 26.3145 19.6506 26.3883 19.4888C26.4645 19.3247 26.6193 19.2249 26.7995 19.2249H28.8701C28.5012 19.0097 27.6376 18.64 25.792 18.3906C24.0117 18.1511 22.934 17.9796 22.6862 17.9394L21.2893 18.2666C21.2494 18.2763 21.2082 18.2788 21.1659 18.2788L11.385 18.0051C11.2737 18.0015 11.1649 17.9711 11.0657 17.9176L8.03725 16.2368H5.57842C4.94952 16.6637 4.35205 17.0967 3.96864 17.4165L6.34644 17.5321C6.51092 17.5479 6.64639 17.6634 6.69597 17.8191C6.74193 17.9687 6.6996 18.1304 6.58712 18.2399L5.64011 19.2614L5.61592 19.2858C5.49256 19.3916 5.33775 19.4475 5.17567 19.4475H3.78238C3.72916 19.7625 3.60338 20.5652 3.53444 21.0006C4.55644 21.2341 5.46353 21.3715 5.84087 21.4214C6.34883 20.8267 7.0975 20.4472 7.94047 20.4472C9.06768 20.4472 10.034 21.1259 10.4634 22.0976L11.628 22.1267ZM3.57785 18.0198C3.60204 18.285 3.65889 18.589 3.70848 18.8225L5.17555 18.8237C5.18765 18.8237 5.19732 18.8201 5.20942 18.814L5.84439 18.1293L3.57785 18.0198ZM7.9367 25.3777C9.11592 25.3777 10.0799 24.4121 10.0799 23.2227C10.0799 22.0333 9.11954 21.0676 7.9367 21.0676C6.75747 21.0676 5.79353 22.0333 5.79353 23.2227C5.79474 24.4121 6.75747 25.3777 7.9367 25.3777ZM3.61532 22.6717C3.72417 22.7313 4.37726 22.9211 5.1876 23.0451C5.21179 22.6717 5.30855 22.3203 5.46578 22.0016C5.00497 21.9335 4.26721 21.8082 3.43752 21.6222L3.09644 21.5443C3.14723 21.8873 3.27787 22.3981 3.61532 22.6717Z" fill="white"/>
<path d="M16.9934 18.7482H18.5137C18.5851 18.7482 18.6443 18.8078 18.6443 18.8795V19.2444C18.6443 19.3161 18.5851 19.3757 18.5137 19.3757H16.9934C16.9221 19.3757 16.8628 19.3161 16.8628 19.2444V18.8795C16.8664 18.8078 16.9221 18.7482 16.9934 18.7482Z" fill="white"/>
<path d="M9.98704 18.6862H11.569C11.6428 18.6862 11.7057 18.7482 11.7057 18.8236V19.1751C11.7057 19.2493 11.644 19.3125 11.569 19.3125H9.98704C9.91327 19.3125 9.85037 19.2505 9.85037 19.1751V18.8236C9.85037 18.7482 9.91326 18.6862 9.98704 18.6862Z" fill="white"/>
</svg>
