<svg width="32" height="32" viewBox="0 0 32 32" fill="none" xmlns="http://www.w3.org/2000/svg">
<path d="M7.937 17.7557C8.74251 17.7557 9.39804 18.4124 9.39804 19.2249C9.39804 20.0348 8.74493 20.694 7.937 20.694C7.13149 20.694 6.47596 20.0373 6.47596 19.2249C6.47959 18.4124 7.1327 17.7557 7.937 17.7557ZM7.937 20.0689C8.40143 20.0689 8.7788 19.6894 8.7788 19.2224C8.7788 18.7554 8.40143 18.3759 7.937 18.3759C7.47257 18.3759 7.09521 18.7554 7.09521 19.2224C7.09521 19.6894 7.47257 20.0689 7.937 20.0689Z" fill="black"/>
<path d="M24.5609 17.7557C25.3664 17.7557 26.0219 18.4124 26.0219 19.2249C26.0219 20.0348 25.3688 20.694 24.5609 20.694C23.7554 20.694 23.0998 20.0373 23.0998 19.2249C23.1023 18.4124 23.7554 17.7557 24.5609 17.7557ZM24.5609 20.0689C25.0253 20.0689 25.4027 19.6894 25.4027 19.2224C25.4027 18.7554 25.0253 18.3759 24.5609 18.3759C24.0965 18.3759 23.7191 18.7554 23.7191 19.2224C23.7191 19.6894 24.1001 20.0689 24.5609 20.0689Z" fill="black"/>
<path d="M2.45702 17.1025C2.50298 16.931 2.68319 16.7851 2.90935 16.8447L2.93112 16.8508C3.00489 16.3838 3.13189 15.5775 3.17906 15.3001C3.12342 15.0666 2.94079 14.2786 2.94684 13.7556L2.95652 13.6839C3.14519 12.9274 7.19553 10.4086 7.83304 10.1813C8.73772 9.86025 15.9423 10.0378 17.1616 10.1655C19.1863 10.3747 22.3078 12.9055 22.8159 13.3287C23.1074 13.3749 24.1633 13.544 25.8746 13.7738C27.6489 14.011 28.9708 14.4281 29.5089 14.9195C29.9177 15.2928 29.8742 16.3083 29.8307 16.7498C29.8742 16.8276 29.9262 16.9432 29.9673 17.0794C30.0109 17.2813 30.0109 19.0593 29.9673 19.2685L29.9492 19.3585L29.8839 19.4241C29.8597 19.4485 29.7629 19.536 29.509 19.6953C29.082 19.9665 27.7686 20.2864 27.0876 20.3338C26.6607 21.314 25.6907 22 24.5575 22C23.4641 22 22.5232 21.3591 22.0745 20.4336H16.4155C14.0897 20.4336 11.3625 20.3375 10.4795 20.3059C10.061 21.3019 9.08013 22 7.93719 22C6.56567 22 5.43242 20.9942 5.21591 19.6771C4.41405 19.5616 3.45373 19.3378 3.2469 19.17C2.45712 18.5351 2.44867 17.2363 2.44867 17.184L2.45702 17.1025ZM17.0987 10.7882C15.4792 10.6204 8.69898 10.5389 8.03856 10.7724C7.76885 10.8685 7.19072 11.1993 6.53036 11.6164H8.21514C8.42316 11.4486 8.76301 11.1811 8.99885 11.0752C9.30242 10.9378 10.3486 10.9232 12.857 10.9257H13.6807C15.7585 10.9196 16.9134 10.9257 18.0336 11.3331C19.0278 11.6979 20.7392 13.1075 21.3379 13.6146L21.991 13.4626C20.9751 12.6684 18.6226 10.9439 17.0987 10.7882ZM11.7336 11.5447C10.535 11.5484 9.45736 11.563 9.26023 11.6384C9.15138 11.6882 8.97238 11.8123 8.80183 11.946L11.3284 13.3507C11.3683 13.3726 11.4119 13.3848 11.4554 13.3848L11.7312 13.3908C11.7082 12.9555 11.684 12.2112 11.7336 11.5447ZM12.3528 13.4103L14.9011 13.4821L15.0221 11.552C14.6508 11.5459 14.242 11.5459 13.7836 11.5459H13.682H12.8584H12.354C12.2996 12.2075 12.331 12.9895 12.3528 13.4103ZM15.5202 13.5003L16.0742 13.5161L15.9073 11.58C15.8202 11.5763 15.7343 11.5702 15.6412 11.5678L15.5202 13.5003ZM16.5325 11.6286L16.6994 13.5307L20.387 13.6365C19.6565 13.0455 18.5075 12.1698 17.8206 11.9181C17.4239 11.7722 17.0091 11.6846 16.5325 11.6286ZM29.2208 15.8476H27.2542C27.201 15.8476 27.1708 15.9072 27.201 15.9497L27.6122 16.5128C27.6437 16.5566 27.6932 16.5809 27.7452 16.5809L29.222 16.5907C29.245 16.3243 29.2426 16.0628 29.2208 15.8476ZM29.1833 19.1702C29.2668 19.1167 29.3284 19.0766 29.3696 19.0461C29.3732 18.9866 29.3756 18.9087 29.3756 18.8187C28.9354 18.8966 28.177 19.0084 27.3099 19.0303C27.3135 19.096 27.3195 19.1617 27.3195 19.2261C27.3195 19.3855 27.3038 19.5411 27.276 19.6932C27.9545 19.6019 28.9233 19.3319 29.1833 19.1702ZM24.5607 21.3775C25.7399 21.3775 26.7038 20.4119 26.7038 19.2225C26.7038 18.0331 25.7435 17.0674 24.5607 17.0674C23.3778 17.0686 22.4211 18.0367 22.4211 19.2261C22.4211 20.4155 23.3815 21.3775 24.5607 21.3775ZM10.6556 19.6895C11.6655 19.7272 14.22 19.8111 16.4152 19.8111H21.8639C21.824 19.6214 21.8022 19.4256 21.8022 19.2225C21.8022 19.1106 21.8119 18.9987 21.824 18.8893L21.316 18.8734C21.2628 18.8734 21.137 18.8795 21.0874 18.8978L20.0594 19.203C19.9941 19.2249 19.9263 19.2371 19.8586 19.2371H12.8763C12.7808 19.2371 12.6877 19.2152 12.6042 19.1751L11.8362 18.8078C11.7552 18.7676 11.6596 18.7482 11.5205 18.7457L10.6509 18.7275C10.6788 18.8892 10.6969 19.0547 10.6969 19.2261C10.6993 19.3842 10.6798 19.5375 10.6556 19.6895ZM11.628 18.1267C11.7828 18.1304 11.9001 18.1486 11.9836 18.1887L12.7455 18.5536C12.8326 18.5937 12.9245 18.6156 13.0176 18.6156H19.7556C19.8233 18.6156 19.8923 18.6035 19.9564 18.5816L20.9904 18.2739C21.0437 18.2556 21.167 18.2496 21.219 18.2496L21.9689 18.2714C22.3559 17.2061 23.3682 16.4472 24.5608 16.4472C25.8029 16.4472 26.8515 17.2717 27.1986 18.4052C28.1432 18.3894 28.9825 18.2556 29.3817 18.1815C29.3817 17.7424 29.378 17.307 29.3696 17.2316C29.3659 17.2255 29.3659 17.2219 29.3635 17.2158L27.6364 17.2036C27.4695 17.2036 27.3087 17.1295 27.1877 16.9823L26.4536 15.9741C26.3387 15.8367 26.3145 15.6506 26.3883 15.4888C26.4645 15.3247 26.6193 15.2249 26.7995 15.2249H28.8701C28.5012 15.0097 27.6376 14.64 25.792 14.3906C24.0117 14.1511 22.934 13.9796 22.6862 13.9394L21.2893 14.2666C21.2494 14.2763 21.2082 14.2788 21.1659 14.2788L11.385 14.0051C11.2737 14.0015 11.1649 13.9711 11.0657 13.9176L8.03725 12.2368H5.57842C4.94952 12.6637 4.35205 13.0967 3.96864 13.4165L6.34644 13.5321C6.51092 13.5479 6.64639 13.6634 6.69597 13.8191C6.74193 13.9687 6.6996 14.1304 6.58712 14.2399L5.64011 15.2614L5.61592 15.2858C5.49256 15.3916 5.33775 15.4475 5.17567 15.4475H3.78238C3.72916 15.7625 3.60338 16.5652 3.53444 17.0006C4.55644 17.2341 5.46353 17.3715 5.84087 17.4214C6.34883 16.8267 7.0975 16.4472 7.94047 16.4472C9.06768 16.4472 10.034 17.1259 10.4634 18.0976L11.628 18.1267ZM3.57785 14.0198C3.60204 14.285 3.65889 14.589 3.70848 14.8225L5.17555 14.8237C5.18765 14.8237 5.19732 14.8201 5.20942 14.814L5.84439 14.1293L3.57785 14.0198ZM7.9367 21.3777C9.11592 21.3777 10.0799 20.4121 10.0799 19.2227C10.0799 18.0333 9.11954 17.0676 7.9367 17.0676C6.75747 17.0676 5.79353 18.0333 5.79353 19.2227C5.79474 20.4121 6.75747 21.3777 7.9367 21.3777ZM3.61532 18.6717C3.72417 18.7313 4.37726 18.9211 5.1876 19.0451C5.21179 18.6717 5.30855 18.3203 5.46578 18.0016C5.00497 17.9335 4.26721 17.8082 3.43752 17.6222L3.09644 17.5443C3.14723 17.8873 3.27787 18.3981 3.61532 18.6717Z" fill="black"/>
<path d="M16.9934 14.7482H18.5137C18.5851 14.7482 18.6443 14.8078 18.6443 14.8795V15.2444C18.6443 15.3161 18.5851 15.3757 18.5137 15.3757H16.9934C16.9221 15.3757 16.8628 15.3161 16.8628 15.2444V14.8795C16.8664 14.8078 16.9221 14.7482 16.9934 14.7482Z" fill="black"/>
<path d="M9.98703 14.6862H11.569C11.6428 14.6862 11.7057 14.7482 11.7057 14.8236V15.1751C11.7057 15.2493 11.644 15.3125 11.569 15.3125H9.98703C9.91325 15.3125 9.85036 15.2505 9.85036 15.1751V14.8236C9.85036 14.7482 9.91325 14.6862 9.98703 14.6862Z" fill="black"/>
</svg>
