<svg width="32" height="33" viewBox="0 0 32 33" fill="none" xmlns="http://www.w3.org/2000/svg">
<path fill-rule="evenodd" clip-rule="evenodd" d="M28.5136 13.4612C28.3855 13.2964 28.1852 13.1987 27.9785 13.1987H26.0039L24.5734 9.29016C24.1904 8.24263 23.1835 7.54007 22.07 7.54007L9.87524 7.54134C8.7605 7.54134 7.75354 8.24519 7.37058 9.2927L5.94134 13.1999H4.02512C3.81714 13.1999 3.61676 13.2976 3.48995 13.4612L3.14374 13.9076C2.99917 14.0927 2.96112 14.335 3.04102 14.5556C3.12091 14.7763 3.30607 14.9374 3.5356 14.9868L5.15888 15.3368L5.03333 15.6792C5.02953 15.6907 5.02572 15.7021 5.02318 15.7135C4.94456 16.0508 4.7594 16.3768 4.45757 16.7115C4.22422 16.9703 4.09486 17.3063 4.09486 17.6576V25.3682C4.09486 25.5293 4.22548 25.6599 4.38655 25.6599H6.8316C6.95335 25.6599 7.06241 25.5838 7.10553 25.4697L7.57096 24.2154C8.92413 24.4792 11.9246 24.9573 15.8383 24.9573C18.3633 24.9573 21.2689 24.7544 24.3541 24.1698L24.8347 25.4697C24.8779 25.5838 24.9869 25.6599 25.1087 25.6599H27.5537C27.7148 25.6599 27.8454 25.5293 27.8454 25.3682V17.6576C27.8454 17.3076 27.7161 16.9715 27.4827 16.7115C27.1809 16.3755 26.9957 16.0483 26.9158 15.7097C26.9133 15.6983 26.9095 15.6869 26.9057 15.6755L26.9057 15.6755L26.9057 15.6754L26.7865 15.3495L28.4643 14.9881C28.6938 14.9386 28.879 14.7776 28.9589 14.5569C29.0388 14.3362 29.0007 14.094 28.8574 13.9089L28.5112 13.4637L28.5136 13.4612ZM3.65952 14.4149C3.61514 14.4048 3.59865 14.373 3.59104 14.3553C3.5847 14.3375 3.57709 14.3008 3.60499 14.2665L3.9512 13.8201C3.96896 13.7973 3.99559 13.7846 4.02476 13.7846H5.72667L5.36143 14.7827L3.65825 14.4149L3.65952 14.4149ZM12.1753 24.2293L13.3648 22.7658C13.4587 22.6504 13.5982 22.5832 13.7478 22.5832H18.043C18.1927 22.5832 18.3322 22.6491 18.426 22.7658L19.6067 24.2191C16.7723 24.4487 14.2287 24.3891 12.1753 24.2293ZM27.051 17.1021C27.188 17.2543 27.2641 17.4508 27.2641 17.6563V25.074H25.3149L24.819 23.7348C24.8165 23.7272 24.8117 23.7207 24.8069 23.7142L24.8069 23.7142C24.8045 23.711 24.8021 23.7078 24.8 23.7044C24.7911 23.6879 24.7823 23.6714 24.7708 23.6575C24.7582 23.6422 24.7442 23.6283 24.729 23.6169C24.715 23.6055 24.7024 23.5953 24.6871 23.5864C24.6707 23.5763 24.6529 23.57 24.6352 23.5649C24.6174 23.5585 24.6009 23.5547 24.5819 23.5522C24.5629 23.5497 24.5438 23.5509 24.5248 23.5522C24.5198 23.5528 24.5148 23.5523 24.5096 23.5519C24.5031 23.5513 24.4964 23.5508 24.4893 23.5522C23.0486 23.8337 21.6486 24.0291 20.3068 24.1584L20.3055 24.1562C20.3041 24.1531 20.3035 24.15 20.3004 24.147L18.88 22.3982C18.6746 22.1445 18.369 21.9999 18.043 21.9999H13.7478C13.4206 21.9999 13.1163 22.1458 12.9108 22.3982L11.4905 24.147C11.4869 24.1513 11.4849 24.156 11.483 24.1606C11.4815 24.1642 11.48 24.1678 11.4778 24.1711C9.57043 23.9935 8.16142 23.7399 7.4449 23.5928C7.43785 23.5914 7.43081 23.5919 7.42376 23.5925C7.41813 23.5929 7.41249 23.5934 7.40685 23.5928L7.40453 23.5926C7.38647 23.5914 7.37056 23.5904 7.35232 23.5928C7.33203 23.5953 7.31301 23.6004 7.29398 23.6068C7.2775 23.6118 7.26228 23.6182 7.24706 23.6258C7.22931 23.6347 7.21535 23.6461 7.20014 23.6587C7.18619 23.6702 7.17351 23.6828 7.16082 23.6968C7.14814 23.712 7.13927 23.7285 7.13039 23.7463C7.12804 23.7515 7.1246 23.756 7.12121 23.7604C7.11728 23.7655 7.11341 23.7706 7.11136 23.7767L6.62944 25.074H4.67897V17.6563C4.67897 17.4508 4.7538 17.2543 4.89076 17.1021C5.256 16.6975 5.48426 16.293 5.58825 15.8631L5.611 15.8009H26.3324L26.3537 15.8592C26.4577 16.2891 26.686 16.6962 27.0499 17.102L27.051 17.1021ZM26.1129 15.2009L24.024 9.4917C23.7248 8.67372 22.9385 8.1246 22.0685 8.1246H9.87473C9.00348 8.1246 8.21848 8.67372 7.91919 9.4917L5.83051 15.2009H26.1129ZM28.4118 14.3552C28.4055 14.3729 28.3877 14.4059 28.3433 14.4148L26.5856 14.794L26.2166 13.7845H27.9768C28.006 13.7845 28.0339 13.7985 28.0504 13.8213L28.3979 14.2677C28.4258 14.3032 28.4181 14.3387 28.4118 14.3565L28.4118 14.3552ZM21.131 18.146L24.9331 17.4447C25.1449 17.3965 25.3745 17.4498 25.552 17.5918C25.7309 17.7338 25.8323 17.9456 25.8323 18.1739V19.3039C25.8323 19.7148 25.4975 20.0496 25.0866 20.0496H21.2946C20.8837 20.0496 20.5489 19.7148 20.5489 19.3039V18.874C20.5489 18.5227 20.7886 18.2234 21.131 18.146ZM25.0865 19.4649C25.1753 19.4649 25.2476 19.3926 25.2476 19.3039L25.2488 19.3039V18.1739C25.2488 18.1067 25.2108 18.0661 25.1879 18.0483C25.1702 18.0331 25.1359 18.0128 25.089 18.0128C25.0776 18.0128 25.0649 18.0141 25.0522 18.0166L21.2489 18.718C21.1855 18.7332 21.1335 18.7979 21.1335 18.874V19.3039C21.1335 19.3926 21.2058 19.4649 21.2945 19.4649H25.0865ZM7.1556 17.4473L10.9362 18.1448L10.9362 18.1435C11.29 18.2234 11.5297 18.5227 11.5297 18.874V19.3039C11.5297 19.7149 11.1949 20.0496 10.784 20.0496H6.99201C6.58109 20.0496 6.24631 19.7148 6.24631 19.3039V18.174C6.24631 17.947 6.34776 17.7339 6.52658 17.5919C6.70287 17.4498 6.9324 17.3966 7.1556 17.4473ZM10.784 19.4662C10.8728 19.4662 10.9451 19.3939 10.9451 19.3052L10.9464 19.3051V18.8752C10.9464 18.7991 10.8944 18.7345 10.8209 18.718L7.04025 18.0205C7.02376 18.0167 7.00727 18.0154 6.99332 18.0154C6.9426 18.0154 6.90962 18.0357 6.89187 18.0496C6.86904 18.0674 6.831 18.108 6.831 18.1752V19.3052C6.831 19.3939 6.90328 19.4662 6.99205 19.4662H10.784Z" fill="white"/>
</svg>
