<svg width="32" height="32" viewBox="0 0 32 32" fill="none" xmlns="http://www.w3.org/2000/svg">
<path fill-rule="evenodd" clip-rule="evenodd" d="M28.5137 12.8612C28.3856 12.6964 28.1852 12.5987 27.9785 12.5987H26.0039L24.5734 8.69019C24.1904 7.64265 23.1835 6.94009 22.07 6.94009L9.87527 6.94136C8.76053 6.94136 7.75357 7.64522 7.37061 8.69272L5.94137 12.6H4.02515C3.81717 12.6 3.6168 12.6976 3.48998 12.8612L3.14377 13.3076C2.9992 13.4928 2.96115 13.735 3.04105 13.9557C3.12094 14.1763 3.3061 14.3374 3.53563 14.3868L5.15891 14.7369L5.03336 15.0793C5.02956 15.0907 5.02575 15.1021 5.02321 15.1135C4.94459 15.4509 4.75943 15.7768 4.4576 16.1116C4.22425 16.3703 4.09489 16.7063 4.09489 17.0577V24.7682C4.09489 24.9293 4.22551 25.0599 4.38658 25.0599H6.83163C6.95338 25.0599 7.06244 24.9838 7.10556 24.8697L7.57099 23.6155C8.92416 23.8792 11.9246 24.3574 15.8384 24.3574C18.3633 24.3574 21.2689 24.1544 24.3541 23.5698L24.8348 24.8697C24.8779 24.9838 24.987 25.0599 25.1087 25.0599H27.5538C27.7148 25.0599 27.8454 24.9293 27.8454 24.7682V17.0577C27.8454 16.7076 27.7161 16.3716 27.4827 16.1116C27.1809 15.7755 26.9957 15.4483 26.9158 15.1097C26.9133 15.0983 26.9095 15.0869 26.9057 15.0755L26.9057 15.0755L26.7865 14.7495L28.4643 14.3881C28.6939 14.3386 28.879 14.1776 28.9589 13.9569C29.0388 13.7363 29.0008 13.494 28.8574 13.3089L28.5112 12.8637L28.5137 12.8612ZM3.65955 13.8149C3.61517 13.8048 3.59868 13.7731 3.59107 13.7553C3.58473 13.7376 3.57712 13.7008 3.60502 13.6665L3.95123 13.2201C3.96899 13.1973 3.99562 13.1846 4.02479 13.1846H5.7267L5.36146 14.1827L3.65828 13.8149L3.65955 13.8149ZM12.1753 23.6293L13.3649 22.1658C13.4587 22.0504 13.5982 21.9832 13.7479 21.9832H18.0431C18.1927 21.9832 18.3322 22.0491 18.4261 22.1658L19.6068 23.6192C16.7723 23.8487 14.2288 23.7891 12.1753 23.6293ZM27.0511 16.5021C27.188 16.6543 27.2641 16.8509 27.2641 17.0563V24.474H25.3149L24.8191 23.1348C24.8165 23.1272 24.8117 23.1207 24.807 23.1143L24.8069 23.1143C24.8046 23.111 24.8022 23.1078 24.8 23.1044C24.7912 23.0879 24.7823 23.0714 24.7709 23.0575C24.7582 23.0423 24.7442 23.0283 24.729 23.0169C24.7151 23.0055 24.7024 22.9953 24.6872 22.9865C24.6707 22.9763 24.6529 22.97 24.6352 22.9649C24.6174 22.9586 24.6009 22.9548 24.5819 22.9522C24.5629 22.9497 24.5439 22.951 24.5248 22.9522C24.5198 22.9528 24.5148 22.9524 24.5097 22.9519C24.5031 22.9514 24.4964 22.9508 24.4893 22.9522C23.0487 23.2338 21.6486 23.4291 20.3068 23.5584C20.3058 23.5569 20.3052 23.5554 20.3046 23.5539C20.3036 23.5516 20.3027 23.5493 20.3004 23.547L18.8801 21.7982C18.6746 21.5445 18.369 21.4 18.0431 21.4H13.7479C13.4207 21.4 13.1163 21.5458 12.9109 21.7982L11.4905 23.547C11.4869 23.5513 11.485 23.556 11.483 23.5606C11.4815 23.5642 11.48 23.5678 11.4778 23.5711C9.57046 23.3936 8.16145 23.1399 7.44493 22.9928C7.43788 22.9914 7.43084 22.992 7.42379 22.9925C7.41816 22.993 7.41252 22.9934 7.40688 22.9928L7.40456 22.9927C7.3865 22.9915 7.37059 22.9904 7.35235 22.9928C7.33206 22.9954 7.31304 23.0004 7.29401 23.0068C7.27753 23.0118 7.26231 23.0182 7.24709 23.0258C7.22934 23.0347 7.21539 23.0461 7.20017 23.0588C7.18622 23.0702 7.17354 23.0829 7.16085 23.0968C7.14817 23.112 7.1393 23.1285 7.13042 23.1463C7.12807 23.1516 7.12463 23.156 7.12124 23.1604C7.11731 23.1656 7.11344 23.1706 7.1114 23.1767L6.62948 24.4741H4.679V17.0563C4.679 16.8509 4.75383 16.6543 4.89079 16.5021C5.25603 16.0976 5.48429 15.693 5.58828 15.2631L5.61103 15.2009H26.3324L26.3537 15.2592C26.4577 15.6891 26.686 16.0962 27.05 16.502L27.0511 16.5021ZM26.1129 14.6009L24.0241 8.89172C23.7248 8.07375 22.9385 7.52462 22.0685 7.52462H9.87476C9.00351 7.52462 8.21851 8.07375 7.91922 8.89172L5.83054 14.6009H26.1129ZM28.4118 13.7552C28.4055 13.773 28.3877 13.8059 28.3434 13.8148L26.5856 14.194L26.2166 13.1845H27.9768C28.006 13.1845 28.0339 13.1985 28.0504 13.2213L28.3979 13.6677C28.4258 13.7032 28.4182 13.7387 28.4118 13.7565L28.4118 13.7552ZM21.1311 17.546L24.9331 16.8447C25.1449 16.7965 25.3745 16.8498 25.5521 16.9918C25.7309 17.1338 25.8323 17.3456 25.8323 17.5739V18.7039C25.8323 19.1148 25.4975 19.4496 25.0866 19.4496H21.2947C20.8837 19.4496 20.549 19.1148 20.549 18.7039V18.274C20.549 17.9227 20.7886 17.6234 21.1311 17.546ZM25.0866 18.8649C25.1753 18.8649 25.2476 18.7927 25.2476 18.7039L25.2488 18.7039V17.5739C25.2488 17.5067 25.2108 17.4661 25.188 17.4484C25.1702 17.4332 25.136 17.4129 25.0891 17.4129C25.0776 17.4129 25.065 17.4141 25.0523 17.4167L21.2489 18.118C21.1855 18.1332 21.1335 18.1979 21.1335 18.274V18.7039C21.1335 18.7927 21.2058 18.8649 21.2946 18.8649H25.0866ZM7.15563 16.8473L10.9363 17.5448L10.9362 17.5436C11.29 17.6235 11.5297 17.9228 11.5297 18.274V18.704C11.5297 19.1149 11.1949 19.4497 10.784 19.4497H6.99204C6.58112 19.4497 6.24634 19.1148 6.24634 18.704V17.574C6.24634 17.347 6.34779 17.1339 6.52661 16.9919C6.7029 16.8498 6.93243 16.7966 7.15563 16.8473ZM10.7841 18.8662C10.8728 18.8662 10.9451 18.794 10.9451 18.7052L10.9465 18.7052V18.2753C10.9465 18.1992 10.8945 18.1345 10.8209 18.118L7.04028 17.4205C7.02379 17.4167 7.0073 17.4154 6.99335 17.4154C6.94263 17.4154 6.90965 17.4357 6.8919 17.4497C6.86907 17.4674 6.83103 17.508 6.83103 17.5752V18.7052C6.83103 18.794 6.90331 18.8662 6.99209 18.8662H10.7841Z" fill="black"/>
</svg>
