<svg width="32" height="32" viewBox="0 0 32 32" fill="none" xmlns="http://www.w3.org/2000/svg">
<path d="M25.5 4H14.5C13.67 4 13 4.67 13 5.5V10H11.79L12.19 9.63C12.21 9.62 12.21 9.6 12.22 9.58C12.23 9.57 12.25 9.57 12.26 9.55C12.84 8.97 12.84 8.01 12.26 7.43C11.73 6.9 10.85 6.89 10.28 7.34C10.22 7.36 10.15 7.4 10.1 7.45L5.14 12.14C4.42 12.89 4 13.92 4 15C4 17.21 5.79 19 8 19H13V21.5C13 22.33 13.67 23 14.5 23H16V27.5C16 27.78 16.22 28 16.5 28H23.5C23.78 28 24 27.78 24 27.5V23H25.5C26.33 23 27 22.33 27 21.5V5.5C27 4.67 26.33 4 25.5 4ZM5 15C5 14.19 5.31 13.4 5.84 12.86L10.77 8.19C10.79 8.17 10.82 8.16 10.84 8.14C11.03 7.95 11.36 7.95 11.55 8.14C11.74 8.33 11.74 8.65 11.55 8.85C11.54 8.86 11.54 8.87 11.53 8.88C11.52 8.89 11.52 8.89 11.51 8.89L10.15 10.13C10.15 10.13 10.15 10.14 10.14 10.14C10.11 10.17 10.09 10.2 10.07 10.24C10.06 10.26 10.04 10.28 10.03 10.3C10.02 10.32 10.02 10.35 10.01 10.38C10.02 10.41 10 10.45 10 10.49V10.5C10 10.53 10.01 10.55 10.01 10.57C10.02 10.61 10.02 10.64 10.03 10.68C10.04 10.72 10.07 10.75 10.09 10.78C10.1 10.8 10.11 10.82 10.13 10.84C10.13 10.84 10.14 10.84 10.14 10.85C10.18 10.89 10.23 10.93 10.28 10.95C10.29 10.95 10.29 10.96 10.3 10.96C10.36 10.99 10.43 11 10.5 11H13.49C13.5 11 13.5 11 13.5 11H13.51H15.48C15.49 11 15.49 11 15.49 11H15.5H18.48C18.76 11 18.98 11.22 18.98 11.5C18.98 11.78 18.77 12 18.5 12C18.49 12 18.48 12 18.48 12C18.47 12 18.46 12 18.46 12H15.59C15.56 12 15.54 11.99 15.51 11.99C15.5 11.99 15.48 12 15.47 12H14.5C14.22 12 14 12.22 14 12.5C14 12.78 14.22 13 14.5 13H15.54C15.8 13.02 16 13.23 16 13.49C16 13.77 15.78 13.99 15.5 13.99C15.48 13.99 15.46 14 15.44 14C15.43 14 15.43 14 15.42 14H13.5C13.22 14 13 14.22 13 14.5C13 14.78 13.22 15 13.5 15H14.5C14.78 15 15 15.22 15 15.5C15 15.78 14.77 16 14.5 16C14.49 16 14.47 16.01 14.46 16.01C14.45 16.01 14.43 16 14.42 16H12.5C12.22 16 12 16.22 12 16.5C12 16.78 12.22 17 12.5 17H13.5C13.78 17 14 17.22 14 17.5C14 17.76 13.8 17.96 13.55 17.99C13.53 17.99 13.52 17.98 13.5 17.98C13.47 17.98 13.44 17.99 13.4 18H8C6.35 18 5 16.65 5 15ZM15.97 15.26C15.95 15.15 15.92 15.04 15.88 14.94C16.52 14.77 16.99 14.19 16.99 13.5C16.99 13.33 16.95 13.16 16.9 13.01H18.44C18.45 13.01 18.46 13.01 18.46 13.01C18.47 13.01 18.48 13.01 18.48 13.01C19.31 13.01 19.98 12.34 19.98 11.51C19.98 10.68 19.31 10.01 18.48 10.01H16V7.5C16 7.22 16.22 7 16.5 7H23.5C23.78 7 24 7.22 24 7.5V19.5C24 19.78 23.78 20 23.5 20H16.5C16.22 20 16 19.78 16 19.5V15.38C16 15.34 15.99 15.3 15.97 15.26ZM14.94 17.12C14.94 17.11 14.93 17.1 14.93 17.09C14.93 17.04 14.97 17 14.98 17C14.98 17 14.99 17.01 15 17.01V17.16C14.97 17.18 14.96 17.17 14.94 17.12ZM17 23H18V27H17V23ZM23 27H19V23H23V27ZM26 21.5C26 21.78 25.78 22 25.5 22H14.5C14.22 22 14 21.78 14 21.5V18.91C14.43 18.76 14.77 18.42 14.91 17.98C14.94 17.98 14.96 17.99 14.98 17.99C14.99 17.99 14.99 17.99 15 17.99V19.5C15 20.33 15.67 21 16.5 21H23.5C24.33 21 25 20.33 25 19.5V7.5C25 6.67 24.33 6 23.5 6H16.5C15.67 6 15 6.67 15 7.5V10H14V5.5C14 5.22 14.22 5 14.5 5H25.5C25.78 5 26 5.22 26 5.5V21.5Z" fill="white"/>
</svg>
