<svg width="32" height="32" viewBox="0 0 32 32" fill="none" xmlns="http://www.w3.org/2000/svg">
<path d="M10.6997 27.9998C11.9755 27.9998 13.0128 26.9614 13.0128 25.6867C13.0128 24.412 11.9744 23.3737 10.6997 23.3737C9.42502 23.3737 8.38663 24.412 8.38663 25.6867C8.38663 26.9614 9.42502 27.9998 10.6997 27.9998ZM10.6997 24.2826C11.4745 24.2826 12.1039 24.912 12.1039 25.6868C12.1039 26.4616 11.4745 27.091 10.6997 27.091C9.92488 27.091 9.2955 26.4616 9.2955 25.6868C9.2955 24.912 9.92491 24.2826 10.6997 24.2826Z" fill="#F4F4F5"/>
<path d="M22.1855 25.6867C22.1855 24.4109 21.1471 23.3737 19.8724 23.3737C18.5966 23.3737 17.5593 24.412 17.5593 25.6867C17.5593 26.9614 18.5977 27.9998 19.8724 27.9998C21.1471 27.9998 22.1855 26.9614 22.1855 25.6867ZM18.4683 25.6867C18.4683 24.9119 19.0977 24.2825 19.8725 24.2825C20.6473 24.2825 21.2767 24.9119 21.2767 25.6867C21.2767 26.4616 20.6462 27.091 19.8725 27.091C19.0977 27.091 18.4683 26.4615 18.4683 25.6867Z" fill="#F4F4F5"/>
<path d="M12.299 10.9413C12.0479 10.9413 11.8445 11.1446 11.8445 11.3957V15.7674C11.8445 16.0184 12.0479 16.2218 12.299 16.2218C12.55 16.2218 12.7534 16.0184 12.7534 15.7674V11.3957C12.7534 11.1446 12.55 10.9413 12.299 10.9413Z" fill="#F4F4F5"/>
<path d="M15.8973 10.9413C15.6462 10.9413 15.4429 11.1446 15.4429 11.3957V15.7674C15.4429 16.0184 15.6462 16.2218 15.8973 16.2218C16.1484 16.2218 16.3517 16.0184 16.3517 15.7674V11.3957C16.3517 11.1446 16.1484 10.9413 15.8973 10.9413Z" fill="#F4F4F5"/>
<path d="M19.494 10.9413C19.2429 10.9413 19.0395 11.1446 19.0395 11.3957V15.7674C19.0395 16.0184 19.2429 16.2218 19.494 16.2218C19.7451 16.2218 19.9484 16.0184 19.9484 15.7674V11.3957C19.9484 11.1446 19.7451 10.9413 19.494 10.9413Z" fill="#F4F4F5"/>
<path d="M24.7516 4C22.4453 4 20.5356 5.70075 20.1947 7.91268H7.34304L6.675 5.25649C6.62388 5.05427 6.44324 4.91339 6.23421 4.91339L2.45444 4.91225C2.20336 4.91225 2 5.11561 2 5.36669C2 5.61777 2.20336 5.82113 2.45444 5.82113H5.88084L6.54773 8.47392V8.47732L9.12101 18.7114L8.75745 19.2556C8.32119 19.9077 8.28257 20.711 8.65293 21.4028C9.02329 22.0947 9.71177 22.5071 10.4968 22.5071H22.1246C22.3757 22.5071 22.5791 22.3038 22.5791 22.0527C22.5791 21.8016 22.3757 21.5983 22.1246 21.5983L10.4956 21.5994C10.0526 21.5994 9.66288 21.3654 9.45385 20.9746C9.24483 20.5837 9.2664 20.1293 9.51293 19.7612L9.85376 19.2511H22.1848C22.3927 19.2511 22.5745 19.1091 22.6256 18.908L24.0662 13.1775C24.2911 13.2116 24.5184 13.2344 24.7524 13.2344C27.2984 13.2344 29.3695 11.1632 29.3695 8.61725C29.3695 6.07239 27.2976 4 24.7516 4ZM21.8295 18.3419H9.9641L8.79166 13.6783V13.676L7.57149 8.82161H20.1457C20.2298 10.7269 21.4704 12.3321 23.1847 12.9536L21.8295 18.3419ZM24.7516 12.325C22.7066 12.325 21.0434 10.6618 21.0434 8.61681C21.0434 6.57185 22.7066 4.90859 24.7516 4.90859C26.7966 4.90859 28.4598 6.57185 28.4598 8.61681C28.4598 10.6618 26.7966 12.325 24.7516 12.325Z" fill="#F4F4F5"/>
<path d="M26.0678 7.35647L24.5136 8.91066L23.4355 7.83252C23.2582 7.65528 22.9708 7.65528 22.7925 7.83252C22.6152 8.00975 22.6152 8.29719 22.7925 8.47554L24.1921 9.87521C24.2773 9.96041 24.3932 10.0081 24.5137 10.0081C24.6341 10.0081 24.75 9.96041 24.8352 9.87521L26.7109 7.99952C26.8881 7.82228 26.8881 7.53484 26.7109 7.3565C26.5336 7.17926 26.2462 7.17923 26.0678 7.35647Z" fill="#F4F4F5"/>
</svg>
