<svg width="32" height="32" viewBox="0 0 32 32" fill="none" xmlns="http://www.w3.org/2000/svg">
<path d="M26.5 11H5.5C4.67 11 4 11.67 4 12.5V23.5C4 24.33 4.67 25 5.5 25H26.5C27.33 25 28 24.33 28 23.5V12.5C28 11.67 27.33 11 26.5 11ZM27 23.5C27 23.78 26.78 24 26.5 24H5.5C5.22 24 5 23.78 5 23.5V12.5C5 12.22 5.22 12 5.5 12H26.5C26.78 12 27 12.22 27 12.5V23.5ZM16 14C13.79 14 12 15.79 12 18C12 20.21 13.79 22 16 22C18.21 22 20 20.21 20 18C20 15.79 18.21 14 16 14ZM16 21C14.35 21 13 19.65 13 18C13 16.35 14.35 15 16 15C17.65 15 19 16.35 19 18C19 19.65 17.65 21 16 21ZM5.5 9.5C5.5 9.22 5.72 9 6 9H26C26.28 9 26.5 9.22 26.5 9.5C26.5 9.78 26.28 10 26 10H6C5.72 10 5.5 9.78 5.5 9.5ZM5.5 7.5C5.5 7.22 5.72 7 6 7H26C26.28 7 26.5 7.22 26.5 7.5C26.5 7.78 26.28 8 26 8H6C5.72 8 5.5 7.78 5.5 7.5Z" fill="#202020"/>
</svg>
