<svg width="32" height="32" viewBox="0 0 32 32" fill="none" xmlns="http://www.w3.org/2000/svg">
<path d="M13.5 27.5C12.95 27.5 12.5 27.05 12.5 26.5V25.5H14.5V26.5C14.5 27.05 14.05 27.5 13.5 27.5Z" fill="white"/>
<path d="M18.5 27.5C17.95 27.5 17.5 27.05 17.5 26.5V25.5H19.5V26.5C19.5 27.05 19.05 27.5 18.5 27.5Z" fill="white"/>
<path d="M19.5 11H18V4.5C18 4.22 17.78 4 17.5 4H14.5C14.22 4 14 4.22 14 4.5V11H12.5C11.12 11 10 12.12 10 13.5V23.5C10 24.71 10.86 25.72 12 25.95V26.5C12 27.33 12.67 28 13.5 28C14.33 28 15 27.33 15 26.5V26H17V26.5C17 27.33 17.67 28 18.5 28C19.33 28 20 27.33 20 26.5V25.95C21.14 25.72 22 24.71 22 23.5V13.5C22 12.12 20.88 11 19.5 11ZM15 5H17V6H15V5ZM15 7H17V11H15V7ZM14 26.5C14 26.78 13.78 27 13.5 27C13.22 27 13 26.78 13 26.5V26H14V26.5ZM19 26.5C19 26.78 18.78 27 18.5 27C18.22 27 18 26.78 18 26.5V26H19V26.5ZM21 23.5C21 24.33 20.33 25 19.5 25H17.5H14.5H12.5C11.67 25 11 24.33 11 23.5V13.5C11 12.67 11.67 12 12.5 12H14.5H17.5H19.5C20.33 12 21 12.67 21 13.5V23.5Z" fill="#202020"/>
</svg>
