<svg width="32" height="32" viewBox="0 0 32 32" fill="none" xmlns="http://www.w3.org/2000/svg">
<path d="M26.5 11H20.37C19.81 9.84 18.89 8.98 17.77 8.54C18.4 8.02 18.82 7.24 18.82 6.35C18.82 4.78 17.54 3.5 15.97 3.5C14.4 3.5 13.12 4.78 13.12 6.35C13.12 7.25 13.55 8.05 14.21 8.57C13.1 9.02 12.17 9.87 11.6 11H5.5C4.67 11 4 11.67 4 12.5V13.5C4 14.15 4.42 14.7 5 14.91V25.5C5 25.78 5.22 26 5.5 26H12V26.5C12 27.33 12.67 28 13.5 28H23.5C24.33 28 25 27.33 25 26.5V26H26.5C26.78 26 27 25.78 27 25.5V14.91C27.58 14.7 28 14.15 28 13.5V12.5C28 11.67 27.33 11 26.5 11ZM15.97 4.5C16.99 4.5 17.82 5.33 17.82 6.35C17.82 7.37 16.99 8.2 15.97 8.2C14.95 8.2 14.12 7.37 14.12 6.35C14.12 5.33 14.95 4.5 15.97 4.5ZM16.03 9.2C17.35 9.2 18.52 9.88 19.23 11H12.75C13.49 9.89 14.71 9.2 16.03 9.2ZM24 26.5C24 26.78 23.78 27 23.5 27H13.5C13.22 27 13 26.78 13 26.5V19.5C13 19.22 13.22 19 13.5 19H16H17H20H21H23.5C23.78 19 24 19.22 24 19.5V26.5ZM20 18H17V17.64C17 17.29 17.29 17 17.64 17H19.35C19.7 17 19.99 17.29 19.99 17.64V18H20ZM26 25H25V19.5C25 18.67 24.33 18 23.5 18H21V17.64C21 16.73 20.26 16 19.36 16H17.65C16.74 16 16 16.74 16 17.64V18H13.5C12.67 18 12 18.67 12 19.5V25H6V15H26V25ZM27 13.5C27 13.78 26.78 14 26.5 14H5.5C5.22 14 5 13.78 5 13.5V12.5C5 12.22 5.22 12 5.5 12H11.69C11.69 12 11.69 12 11.7 12C11.76 12.03 11.83 12.04 11.89 12.04C11.94 12.04 11.98 12.01 12.03 12H26.5C26.78 12 27 12.22 27 12.5V13.5Z" fill="white"/>
</svg>
