<svg width="32" height="32" viewBox="0 0 32 32" fill="none" xmlns="http://www.w3.org/2000/svg">
<path d="M27.5 9H4.5C4.22 9 4 9.22 4 9.5V21.5C4 21.78 4.22 22 4.5 22H27.5C27.78 22 28 21.78 28 21.5V9.5C28 9.22 27.78 9 27.5 9ZM27 21H5V10H27V21ZM7 12.5C7 12.22 7.22 12 7.5 12H24.5C24.78 12 25 12.22 25 12.5C25 12.78 24.78 13 24.5 13H7.5C7.22 13 7 12.78 7 12.5ZM7 15.5C7 15.22 7.22 15 7.5 15H24.5C24.78 15 25 15.22 25 15.5C25 15.78 24.78 16 24.5 16H7.5C7.22 16 7 15.78 7 15.5ZM25 18.5C25 18.78 24.78 19 24.5 19H18.5C18.22 19 18 18.78 18 18.5C18 18.22 18.22 18 18.5 18H24.5C24.78 18 25 18.22 25 18.5Z" fill="white"/>
</svg>
