<svg width="32" height="32" viewBox="0 0 32 32" fill="none" xmlns="http://www.w3.org/2000/svg">
<path d="M26.5 7H5.5C4.67 7 4 7.67 4 8.5V22.5C4 23.33 4.67 24 5.5 24H26.5C27.33 24 28 23.33 28 22.5V8.5C28 7.67 27.33 7 26.5 7ZM27 22.5C27 22.78 26.78 23 26.5 23H5.5C5.22 23 5 22.78 5 22.5V8.5C5 8.22 5.22 8 5.5 8H26.5C26.78 8 27 8.22 27 8.5V22.5ZM15.91 14L13.39 15.83L14.35 18.8L11.82 16.97L9.3 18.8L10.26 15.83L7.74 14H10.86L11.82 11.03L12.79 14H15.91ZM17.92 11.57L18.58 10.81L18.06 9.95L18.99 10.34L19.65 9.58L19.56 10.59L20.49 10.98L19.51 11.21L19.42 12.21L18.9 11.35L17.92 11.57ZM20.51 13.83L21.42 13.39L21.28 12.39L21.98 13.11L22.89 12.67L22.42 13.56L23.12 14.28L22.13 14.11L21.65 15L21.51 14L20.51 13.83ZM23.19 17.32L22.4 17.94L22.75 18.89L21.91 18.33L21.12 18.95L21.4 17.98L20.56 17.42L21.57 17.38L21.85 16.41L22.2 17.36L23.19 17.32ZM19.55 20.28L20.49 20.64L19.52 20.91L19.47 21.92L18.92 21.08L17.95 21.35L18.58 20.56L18.03 19.72L18.97 20.08L19.6 19.29L19.55 20.28Z" fill="#202020"/>
</svg>
