<svg width="32" height="32" viewBox="0 0 32 32" fill="none" xmlns="http://www.w3.org/2000/svg">
<path d="M26.5 27H24V7.5C24 6.69 23.31 6 22.5 6H9.5C8.69 6 8 6.69 8 7.5V27H5.5C5.22 27 5 27.22 5 27.5C5 27.78 5.22 28 5.5 28H26.5C26.78 28 27 27.78 27 27.5C27 27.22 26.78 27 26.5 27ZM9 7.5C9 7.23 9.23 7 9.5 7H22.5C22.77 7 23 7.23 23 7.5V27H9V7.5ZM21 9.5C21 9.78 20.78 10 20.5 10H17.5C17.22 10 17 9.78 17 9.5C17 9.22 17.22 9 17.5 9H20.5C20.78 9 21 9.22 21 9.5ZM15 9.5C15 9.78 14.78 10 14.5 10H11.5C11.22 10 11 9.78 11 9.5C11 9.22 11.22 9 11.5 9H14.5C14.78 9 15 9.22 15 9.5ZM21 12.5C21 12.78 20.78 13 20.5 13H17.5C17.22 13 17 12.78 17 12.5C17 12.22 17.22 12 17.5 12H20.5C20.78 12 21 12.22 21 12.5ZM15 12.5C15 12.78 14.78 13 14.5 13H11.5C11.22 13 11 12.78 11 12.5C11 12.22 11.22 12 11.5 12H14.5C14.78 12 15 12.22 15 12.5ZM21 15.5C21 15.78 20.78 16 20.5 16H17.5C17.22 16 17 15.78 17 15.5C17 15.22 17.22 15 17.5 15H20.5C20.78 15 21 15.22 21 15.5ZM15 15.5C15 15.78 14.78 16 14.5 16H11.5C11.22 16 11 15.78 11 15.5C11 15.22 11.22 15 11.5 15H14.5C14.78 15 15 15.22 15 15.5ZM21 18.5C21 18.78 20.78 19 20.5 19H17.5C17.22 19 17 18.78 17 18.5C17 18.22 17.22 18 17.5 18H20.5C20.78 18 21 18.22 21 18.5ZM15 18.5C15 18.78 14.78 19 14.5 19H11.5C11.22 19 11 18.78 11 18.5C11 18.22 11.22 18 11.5 18H14.5C14.78 18 15 18.22 15 18.5ZM21 21.5C21 21.78 20.78 22 20.5 22H17.5C17.22 22 17 21.78 17 21.5C17 21.22 17.22 21 17.5 21H20.5C20.78 21 21 21.22 21 21.5ZM15 21.5C15 21.78 14.78 22 14.5 22H11.5C11.22 22 11 21.78 11 21.5C11 21.22 11.22 21 11.5 21H14.5C14.78 21 15 21.22 15 21.5ZM21 24.5C21 24.78 20.78 25 20.5 25H17.5C17.22 25 17 24.78 17 24.5C17 24.22 17.22 24 17.5 24H20.5C20.78 24 21 24.22 21 24.5ZM15 24.5C15 24.78 14.78 25 14.5 25H11.5C11.22 25 11 24.78 11 24.5C11 24.22 11.22 24 11.5 24H14.5C14.78 24 15 24.22 15 24.5Z" fill="white"/>
</svg>
