<svg width="32" height="32" viewBox="0 0 32 32" fill="none" xmlns="http://www.w3.org/2000/svg">
<path d="M13.8057 6.94794C14.0758 6.94794 14.2783 6.7229 14.2783 6.47536V4.47258C14.2783 4.20254 14.0533 4 13.8057 4C13.5582 4 13.3332 4.22504 13.3332 4.47258V6.47536C13.3107 6.7229 13.5357 6.94794 13.8057 6.94794Z" fill="#F4F4F5"/>
<path d="M11.1057 7.77993C11.1957 7.86994 11.3307 7.91494 11.4432 7.91494C11.5557 7.91494 11.6908 7.86994 11.7808 7.77993C11.9608 7.5999 11.9608 7.28486 11.7808 7.10483L10.3631 5.68711C10.183 5.50709 9.86799 5.50709 9.68797 5.68711C9.50794 5.86714 9.50794 6.18219 9.68797 6.36221L11.1057 7.77993Z" fill="#F4F4F5"/>
<path d="M10.4754 10.2776C10.7454 10.2776 10.9479 10.0526 10.9479 9.80504C10.9479 9.5575 10.7229 9.33246 10.4754 9.33246H8.47256C8.20252 9.33246 8 9.5575 8 9.80504C8 10.0526 8.22503 10.2776 8.47256 10.2776H10.4754Z" fill="#F4F4F5"/>
<path d="M16.6415 9.78421C16.6415 10.0542 16.8665 10.2568 17.1141 10.2568H19.1169C19.3869 10.2568 19.5894 10.0317 19.5894 9.78421C19.5894 9.53667 19.3644 9.31165 19.1169 9.31165H17.1141C16.8665 9.31165 16.6415 9.51417 16.6415 9.78421Z" fill="#F4F4F5"/>
<path d="M16.1466 7.91494C16.2591 7.91494 16.3941 7.86994 16.4842 7.77993L17.9019 6.36221C18.0819 6.18219 18.0819 5.86714 17.9019 5.68711C17.7218 5.50709 17.4068 5.50709 17.2268 5.68711L15.8091 7.10483C15.629 7.28486 15.629 7.5999 15.8091 7.77993C15.8991 7.86994 16.0341 7.91494 16.1466 7.91494Z" fill="#F4F4F5"/>
<path d="M21.4321 15.7353C21.0879 15.7353 20.7689 15.8325 20.5002 16.0107C20.2652 15.3788 19.6439 14.9252 18.9136 14.9252C18.5694 14.9252 18.2504 15.0224 17.9817 15.2006C17.7467 14.5687 17.1254 14.1151 16.3951 14.1151C16.0928 14.1151 15.799 14.1961 15.5556 14.3338V10.0646C15.5556 9.17354 14.8 8.44446 13.8765 8.44446C12.9531 8.44446 12.1975 9.17354 12.1975 10.0646V19.9882L10.9215 18.7002C10.6025 18.36 10.1491 18.1655 9.67901 18.1655C8.75556 18.1655 8 18.8946 8 19.7857C8 20.1746 8.14272 20.5553 8.43654 20.8712L14.4222 26.55C15.3877 27.4816 16.6637 28 18.0153 28C20.8277 28 23.1111 25.7723 23.1111 23.0261V17.3554C23.1111 16.4643 22.3556 15.7353 21.4321 15.7353ZM22.2716 23.0261C22.2716 25.3186 20.3659 27.1899 18.0153 27.1899C16.8904 27.1899 15.8242 26.7606 15.0099 25.9748L9.04099 20.3123C8.91506 20.1665 8.83951 19.9801 8.83951 19.7857C8.83951 19.3402 9.21728 18.9756 9.67901 18.9756C9.91407 18.9756 10.1407 19.0728 10.3086 19.251L12.3151 21.2844C12.4326 21.4059 12.6173 21.4464 12.7768 21.3816C12.9363 21.3168 13.037 21.1629 13.037 21.0008V10.0646C13.037 9.61909 13.4148 9.25455 13.8765 9.25455C14.3383 9.25455 14.716 9.61909 14.716 10.0646V15.7353C14.716 15.7515 14.7244 15.7677 14.7244 15.7839V16.9504C14.7244 17.1772 14.9091 17.3554 15.1442 17.3554C15.3793 17.3554 15.5639 17.1772 15.5639 16.9504V15.7353C15.5639 15.7272 15.5556 15.7191 15.5556 15.711C15.5723 15.2735 15.9417 14.9252 16.3951 14.9252C16.8568 14.9252 17.2346 15.2897 17.2346 15.7353V16.5454V17.7605C17.2346 17.9873 17.4193 18.1655 17.6543 18.1655C17.8894 18.1655 18.0741 17.9873 18.0741 17.7605V16.5454C18.0741 16.0998 18.4519 15.7353 18.9136 15.7353C19.3753 15.7353 19.7531 16.0998 19.7531 16.5454V17.3554V18.5706C19.7531 18.7974 19.9378 18.9756 20.1728 18.9756C20.4079 18.9756 20.5926 18.7974 20.5926 18.5706V17.3554C20.5926 16.9099 20.9704 16.5454 21.4321 16.5454C21.8938 16.5454 22.2716 16.9099 22.2716 17.3554V23.0261Z" fill="#F4F4F5"/>
</svg>
