<svg width="32" height="32" viewBox="0 0 32 32" fill="none" xmlns="http://www.w3.org/2000/svg">
<path d="M16 4C9.38 4 4 9.38 4 16C4 22.62 9.38 28 16 28C22.62 28 28 22.62 28 16C28 9.38 22.62 4 16 4ZM16 27C9.93 27 5 22.07 5 16C5 9.93 9.93 5 16 5C22.07 5 27 9.93 27 16C27 22.07 22.07 27 16 27ZM20.85 20.15C21.05 20.35 21.05 20.66 20.85 20.86C20.75 20.96 20.62 21.01 20.5 21.01C20.38 21.01 20.24 20.96 20.15 20.86L15.65 16.36C15.56 16.27 15.5 16.14 15.5 16.01V7.5C15.5 7.22 15.72 7 16 7C16.28 7 16.5 7.22 16.5 7.5V15.79L20.85 20.15Z" fill="#202020"/>
</svg>
