<svg width="32" height="32" viewBox="0 0 32 32" fill="none" xmlns="http://www.w3.org/2000/svg">
<path d="M28.8298 16.0883C28.0298 14.6783 26.4798 13.8283 24.7898 13.8983C24.7398 13.8983 24.6998 13.8983 24.6698 13.8983C24.5898 13.8783 24.5098 13.8783 24.4298 13.8883C23.1998 10.1083 19.6798 7.48828 15.7398 7.48828C11.1898 7.48828 7.37982 10.8083 6.68982 15.3683C6.67982 15.4183 6.68982 15.4583 6.69982 15.5083C6.64982 15.5083 6.60982 15.4983 6.55982 15.4983C5.37982 15.4983 4.24982 16.0083 3.45982 16.8983C2.64982 17.8083 2.26982 19.0383 2.41982 20.2683C2.65982 22.3983 4.49982 23.9983 6.68982 23.9983H24.6598C26.4098 23.9983 28.0398 23.0483 28.9298 21.5183C29.8898 19.8783 29.8598 17.8883 28.8298 16.0883ZM28.0698 21.0183C27.3598 22.2383 26.0498 22.9983 24.6598 22.9983H6.68982C5.00982 22.9983 3.58982 21.7783 3.39982 20.1683C3.28982 19.2183 3.57982 18.2783 4.19982 17.5783C5.35982 16.2683 7.53982 16.1983 8.76982 17.4383C8.96982 17.6383 9.27982 17.6383 9.47982 17.4383C9.66982 17.2383 9.66982 16.9283 9.47982 16.7283C8.95982 16.2083 8.31982 15.8583 7.62982 15.6683C7.64982 15.6283 7.66982 15.5783 7.67982 15.5283C8.29982 11.4483 11.6898 8.49828 15.7398 8.49828C19.3798 8.49828 22.6098 10.9883 23.5998 14.5483C23.7998 15.2883 23.9098 16.0483 23.9098 16.8183C23.9098 17.2383 23.8798 17.6683 23.8198 18.0783C23.7798 18.3483 23.9698 18.6083 24.2398 18.6483C24.2698 18.6483 24.2898 18.6583 24.3198 18.6583C24.5598 18.6583 24.7798 18.4783 24.8098 18.2283C24.8798 17.7583 24.9198 17.2883 24.9198 16.8183C24.9198 16.1683 24.8298 15.5283 24.6998 14.8983C24.7498 14.8983 24.7998 14.8983 24.8498 14.8983C26.1598 14.8583 27.3698 15.4983 27.9798 16.5783C28.8098 18.0683 28.8498 19.6883 28.0698 21.0183ZM14.0798 14.3983H16.0098V15.2183H13.8598C13.8598 15.2183 13.8298 15.3783 13.8298 15.5483C13.8298 15.7083 13.8598 15.9283 13.8598 15.9283H16.0098V16.7483H14.0898C14.0898 16.7483 14.5998 18.0583 16.0098 18.0583C16.9698 18.0583 17.6498 17.3983 17.8698 16.5783H18.9998C18.6598 17.8983 17.5298 18.9983 16.0098 18.9983C13.6398 18.9983 12.9598 16.7483 12.9598 16.7483H11.9998V15.9283H12.7898C12.7898 15.9283 12.7698 15.7083 12.7698 15.5483C12.7698 15.3883 12.7898 15.2183 12.7898 15.2183H11.9998V14.3983H12.9498C12.9498 14.3983 13.6398 11.9883 16.0098 11.9883C17.5298 11.9883 18.6598 13.0883 18.9998 14.3983H17.8698C17.6398 13.5783 16.9698 12.9183 16.0098 12.9183C14.5998 12.9183 14.0798 14.3983 14.0798 14.3983Z" fill="white"/>
</svg>
