<svg width="32" height="32" viewBox="0 0 32 32" fill="none" xmlns="http://www.w3.org/2000/svg">
<path d="M28.8298 16.0883C28.0298 14.6783 26.4798 13.8283 24.7898 13.8983C24.7398 13.8983 24.6998 13.8983 24.6698 13.8983C24.5898 13.8783 24.5098 13.8783 24.4298 13.8883C23.1998 10.1083 19.6798 7.48828 15.7398 7.48828C11.1898 7.48828 7.37982 10.8083 6.68982 15.3683C6.67982 15.4183 6.68982 15.4683 6.69982 15.5183C5.49982 15.4883 4.27982 15.9683 3.45982 16.8883C2.64982 17.7983 2.26982 19.0283 2.41982 20.2583C2.65982 22.3983 4.49982 23.9983 6.68982 23.9983H24.6598C26.4098 23.9983 28.0398 23.0483 28.9298 21.5183C29.8898 19.8783 29.8598 17.8883 28.8298 16.0883ZM28.0698 21.0183C27.3598 22.2383 26.0498 22.9983 24.6598 22.9983H6.68982C5.00982 22.9983 3.58982 21.7783 3.39982 20.1683C3.28982 19.2183 3.57982 18.2783 4.19982 17.5783C5.08982 16.5683 6.58982 16.2483 7.79982 16.7783C8.04982 16.8883 8.34982 16.7683 8.45982 16.5183C8.56982 16.2683 8.45982 15.9683 8.19982 15.8583C8.00982 15.7783 7.81982 15.7183 7.62982 15.6583C7.64982 15.6183 7.66982 15.5783 7.66982 15.5283C8.28982 11.4483 11.6798 8.49828 15.7298 8.49828C19.3698 8.49828 22.5998 10.9883 23.5898 14.5483C23.7898 15.2883 23.8998 16.0483 23.8998 16.8183C23.8998 17.2383 23.8698 17.6683 23.8098 18.0783C23.7698 18.3483 23.9598 18.6083 24.2298 18.6483C24.2598 18.6483 24.2798 18.6583 24.3098 18.6583C24.5498 18.6583 24.7698 18.4783 24.7998 18.2283C24.8698 17.7583 24.9098 17.2883 24.9098 16.8183C24.9098 16.1683 24.8198 15.5283 24.6898 14.8983C24.7398 14.8983 24.7898 14.8983 24.8398 14.8983C26.1498 14.8583 27.3598 15.4983 27.9698 16.5783C28.8098 18.0683 28.8498 19.6883 28.0698 21.0183ZM21.4998 12.9983H10.4998C10.2198 12.9983 9.99982 13.2183 9.99982 13.4983V16.4983C9.99982 16.7783 10.2198 16.9983 10.4998 16.9983H21.4998C21.7798 16.9983 21.9998 16.7783 21.9998 16.4983V13.4983C21.9998 13.2183 21.7798 12.9983 21.4998 12.9983ZM20.9998 15.9983H10.9998V13.9983H20.9998V15.9983ZM17.4998 15.0183C17.4998 14.7383 17.7198 14.5183 17.9998 14.5183H18.9998C19.2798 14.5183 19.4998 14.7383 19.4998 15.0183C19.4998 15.2983 19.2798 15.5183 18.9998 15.5183H17.9998C17.7198 15.5183 17.4998 15.2883 17.4998 15.0183ZM21.4998 17.9983H10.4998C10.2198 17.9983 9.99982 18.2183 9.99982 18.4983V21.4983C9.99982 21.7783 10.2198 21.9983 10.4998 21.9983H21.4998C21.7798 21.9983 21.9998 21.7783 21.9998 21.4983V18.4983C21.9998 18.2183 21.7798 17.9983 21.4998 17.9983ZM20.9998 20.9983H10.9998V18.9983H20.9998V20.9983ZM17.4998 20.0183C17.4998 19.7383 17.7198 19.5183 17.9998 19.5183H18.9998C19.2798 19.5183 19.4998 19.7383 19.4998 20.0183C19.4998 20.2983 19.2798 20.5183 18.9998 20.5183H17.9998C17.7198 20.5183 17.4998 20.2883 17.4998 20.0183Z" fill="#202020"/>
</svg>
