<svg width="32" height="32" viewBox="0 0 32 32" fill="none" xmlns="http://www.w3.org/2000/svg">
<path d="M27.3 14.98C26.59 13.72 25.23 12.98 23.7 13.03C23.62 13.03 23.58 13.03 23.55 13.03V13.04C23.5 13.03 23.46 13.04 23.41 13.04C22.29 9.76 19.22 7.5 15.77 7.5C11.76 7.5 8.39999 10.42 7.77999 14.44C7.75999 14.44 7.73999 14.43 7.71999 14.43C6.66999 14.43 5.65999 14.89 4.95999 15.68C4.23999 16.49 3.89999 17.59 4.02999 18.68C4.24999 20.58 5.88999 22 7.83999 22H23.59C25.14 22 26.6 21.16 27.39 19.8C28.24 18.34 28.21 16.58 27.3 14.98ZM26.52 19.29C25.91 20.35 24.79 21 23.59 21H7.83999C6.39999 21 5.17999 19.96 5.01999 18.57C4.91999 17.76 5.16999 16.95 5.69999 16.35C6.69999 15.23 8.55999 15.17 9.61999 16.23C9.80999 16.42 10.13 16.43 10.33 16.23C10.52 16.03 10.52 15.72 10.33 15.52C9.88999 15.08 9.34999 14.78 8.76999 14.61C9.30999 11.07 12.26 8.5 15.77 8.5C18.93 8.5 21.73 10.66 22.59 13.76C22.77 14.4 22.86 15.06 22.86 15.74C22.86 16.1 22.83 16.47 22.78 16.84C22.74 17.11 22.93 17.37 23.2 17.41C23.22 17.41 23.25 17.42 23.27 17.42C23.51 17.42 23.73 17.24 23.76 16.99C23.82 16.58 23.85 16.16 23.85 15.74C23.85 15.16 23.77 14.59 23.66 14.03C23.69 14.03 23.71 14.04 23.74 14.03C24.86 13.98 25.9 14.54 26.43 15.47C27.16 16.75 27.19 18.15 26.52 19.29Z" fill="#202020"/>
</svg>
