<svg width="32" height="32" viewBox="0 0 32 32" fill="none" xmlns="http://www.w3.org/2000/svg">
<path d="M25.57 7.08172C25.29 6.77172 24.9 6.57172 24.48 6.53172C21.78 6.29172 19.14 5.65172 16.63 4.63172C16.23 4.47172 15.78 4.47172 15.38 4.63172C12.87 5.65172 10.23 6.29172 7.53 6.53172C7.1 6.56172 6.71 6.76172 6.43 7.08172C6.15 7.39172 6 7.80172 6 8.21172V13.7817C6 19.6917 8.87 23.7217 15.31 26.8517C15.52 26.9517 15.76 27.0017 16 27.0017C16.24 27.0017 16.48 26.9517 16.71 26.8417C23.13 23.6917 26 19.6617 26 13.7817V8.22172C26 7.79172 25.85 7.39172 25.57 7.08172ZM25 13.7817C25 19.2317 22.31 22.9817 16.28 25.9417C16.1 26.0217 15.9 26.0217 15.73 25.9517C9.69 23.0117 7 19.2517 7 13.7817V8.21172C7 8.04172 7.06 7.87172 7.18 7.74172C7.29 7.61172 7.45 7.53172 7.62 7.52172C10.42 7.27172 13.15 6.61172 15.75 5.55172C15.83 5.52172 15.92 5.50172 16 5.50172C16.08 5.50172 16.17 5.52172 16.25 5.55172C18.85 6.61172 21.59 7.27172 24.38 7.52172C24.55 7.54172 24.71 7.62172 24.82 7.74172C24.94 7.87172 25 8.04172 25 8.21172V13.7817ZM21.35 10.6417C21.55 10.8317 21.55 11.1517 21.36 11.3517L14.4 18.5317C14.1 18.8317 13.7 19.0017 13.28 19.0017C12.86 19.0017 12.46 18.8317 12.16 18.5317L10.64 16.9817C10.45 16.7817 10.45 16.4717 10.65 16.2717C10.85 16.0817 11.16 16.0817 11.36 16.2817L12.88 17.8317C13.1 18.0517 13.47 18.0517 13.69 17.8317L20.65 10.6517C20.83 10.4517 21.15 10.4517 21.35 10.6417Z" fill="#202020"/>
</svg>
