<svg width="32" height="32" viewBox="0 0 32 32" fill="none" xmlns="http://www.w3.org/2000/svg">
<path d="M9.35 13.35C10.06 14.06 10.45 15 10.45 16C10.45 17 10.06 17.95 9.35 18.65C9.26 18.75 9.13 18.8 9 18.8C8.87 18.8 8.74 18.75 8.65 18.65C8.46 18.45 8.46 18.14 8.65 17.94C9.17 17.42 9.46 16.73 9.46 15.99C9.46 15.25 9.17 14.56 8.65 14.04C8.45 13.85 8.45 13.53 8.65 13.33C8.84 13.15 9.16 13.15 9.35 13.35ZM12.43 10.28C12.23 10.09 11.92 10.09 11.72 10.28C11.53 10.48 11.53 10.79 11.72 10.99C13.06 12.33 13.8 14.11 13.8 16C13.8 17.89 13.06 19.68 11.72 21.01C11.52 21.21 11.52 21.52 11.72 21.72C11.82 21.82 11.95 21.87 12.07 21.87C12.2 21.87 12.33 21.82 12.42 21.72C13.95 20.19 14.79 18.16 14.79 16C14.79 13.84 13.96 11.81 12.43 10.28ZM15.51 7.21C15.31 7.01 15 7.02 14.8 7.21C14.6 7.41 14.61 7.72 14.8 7.92C16.97 10.08 18.16 12.95 18.16 16C18.16 19.05 16.97 21.92 14.8 24.08C14.6 24.28 14.6 24.59 14.8 24.79C14.9 24.89 15.03 24.94 15.15 24.94C15.28 24.94 15.41 24.89 15.5 24.79C17.86 22.44 19.15 19.32 19.15 16C19.16 12.68 17.86 9.56 15.51 7.21ZM18.58 4.15C18.38 3.96 18.07 3.95 17.87 4.15C17.68 4.35 17.68 4.66 17.87 4.86C20.86 7.83 22.5 11.79 22.5 16C22.5 20.21 20.86 24.17 17.88 27.14C17.68 27.34 17.68 27.65 17.88 27.85C17.98 27.95 18.11 28 18.23 28C18.35 28 18.49 27.95 18.58 27.85C21.75 24.69 23.5 20.48 23.5 16C23.5 11.52 21.75 7.31 18.58 4.15Z" fill="white"/>
</svg>
