<svg width="24" height="24" viewBox="0 0 24 24" fill="none" xmlns="http://www.w3.org/2000/svg">
<path d="M18.2608 8.20565L18.5076 8.42158C18.7991 8.72469 19.149 8.96567 19.5361 9.13002C19.9232 9.29436 20.3396 9.37868 20.7601 9.37788H20.791C21.6503 9.35268 22.4674 8.99944 23.0744 8.39073C23.4467 8.0108 23.7197 7.54504 23.8693 7.0346C24.0189 6.52416 24.0404 5.98474 23.9321 5.464C23.8237 4.94326 23.5887 4.45721 23.2478 4.0488C22.907 3.64039 22.4708 3.32218 21.9777 3.12228C21.4847 2.92238 20.95 2.84694 20.4209 2.90263C19.8918 2.95831 19.3846 3.14341 18.944 3.44157C18.5034 3.73973 18.143 4.14177 17.8947 4.61219C17.6464 5.08261 17.5178 5.60692 17.5203 6.13881C17.5355 6.66686 17.6728 7.1842 17.9214 7.65038L10.6393 10.1182L5.73322 5.30591C6.20233 4.71804 6.46282 3.99102 6.47376 3.23907C6.45493 2.37855 6.10062 1.55941 5.48637 0.956302C5.19488 0.6532 4.84505 0.412218 4.45794 0.247869C4.07083 0.0835209 3.65444 -0.000793087 3.23387 5.62192e-06H3.20302C2.68493 0.00590121 2.17581 0.135933 1.71838 0.379191C1.26094 0.62245 0.868535 0.971839 0.574078 1.39805C0.27962 1.82425 0.091701 2.31485 0.0260859 2.82867C-0.0395291 3.34249 0.0190738 3.86455 0.196978 4.35104C0.374883 4.83754 0.6669 5.27429 1.04853 5.62464C1.43016 5.97499 1.89027 6.22873 2.39026 6.36457C2.89025 6.50041 3.41553 6.51439 3.92204 6.40533C4.42855 6.29626 4.9015 6.06735 5.30123 5.73778L10.2074 10.5501L7.83143 17.892C7.22019 17.5675 6.52038 17.4492 5.83641 17.5548C5.15243 17.6605 4.52093 17.9843 4.03613 18.4781C3.43725 19.089 3.10438 19.9119 3.11016 20.7673C3.11594 21.6226 3.45991 22.4409 4.06699 23.0437C4.36424 23.3477 4.71949 23.589 5.1117 23.7532C5.50391 23.9175 5.92511 24.0014 6.35034 24C6.9953 24.0031 7.62653 23.8138 8.16321 23.4562C8.69989 23.0985 9.11759 22.5889 9.36283 21.9925C9.60806 21.3962 9.66968 20.7402 9.53978 20.1086C9.40989 19.477 9.09439 18.8985 8.63369 18.4473L8.38684 18.2313L10.7936 10.7044L18.2608 8.20565ZM18.9088 4.28792C19.1485 4.04 19.4364 3.84371 19.7548 3.71108C20.0731 3.57846 20.4153 3.51232 20.7601 3.51671C21.2743 3.51785 21.7768 3.67005 22.2052 3.9544C22.6335 4.23875 22.9688 4.64271 23.1694 5.11604C23.3699 5.58936 23.4269 6.11119 23.3332 6.61663C23.2395 7.12206 22.9993 7.58882 22.6424 7.95886C22.4065 8.21385 22.12 8.41687 21.8012 8.55497C21.4825 8.69306 21.1384 8.7632 20.791 8.76091C20.4466 8.76177 20.1056 8.69401 19.7877 8.56159C19.4698 8.42918 19.1815 8.23477 18.9396 7.98971C18.447 7.49687 18.1602 6.8352 18.1374 6.13881C18.1424 5.44471 18.4193 4.78023 18.9088 4.28792ZM8.20171 22.5809C7.96244 22.8292 7.67602 23.0272 7.35923 23.1634C7.04244 23.2996 6.70165 23.3713 6.35682 23.3742C6.01199 23.377 5.67006 23.3111 5.35104 23.1802C5.03203 23.0493 4.74235 22.856 4.49897 22.6118C4.00387 22.1209 3.7241 21.4535 3.7212 20.7564C3.71831 20.0593 3.99253 19.3895 4.48355 18.8946C4.97456 18.3996 5.64214 18.1199 6.33943 18.117C7.03672 18.1141 7.7066 18.3883 8.20171 18.8791C8.69161 19.3706 8.96669 20.0362 8.96669 20.73C8.96669 21.4239 8.69161 22.0895 8.20171 22.5809ZM1.38251 5.12082C0.888484 4.63344 0.607839 3.97016 0.602055 3.2763C0.596272 2.58244 0.865821 1.91457 1.35165 1.41903C1.58754 1.16404 1.87401 0.961019 2.19278 0.822921C2.51155 0.684823 2.85561 0.614681 3.20302 0.616971H3.23387C3.5733 0.618494 3.90904 0.687458 4.22157 0.819853C4.5341 0.952248 4.81719 1.14543 5.05438 1.38818C5.54704 1.88102 5.83383 2.54269 5.85664 3.23907C5.84734 3.75303 5.68888 4.25321 5.40054 4.67881C5.1122 5.10441 4.70639 5.4371 4.23246 5.63642C3.75852 5.83575 3.23687 5.89314 2.73092 5.8016C2.22497 5.71007 1.75651 5.47356 1.38251 5.12082Z" fill="white"/>
</svg>
