<svg width="32" height="32" viewBox="0 0 32 32" fill="none" xmlns="http://www.w3.org/2000/svg">
<path d="M24.56 8.35L20.65 4.44C20.37 4.16 19.98 4 19.59 4H10.5C9.67 4 9 4.67 9 5.5V6H8.5C7.67 6 7 6.67 7 7.5V28.5C7 29.33 7.67 30 8.5 30H21.5C22.33 30 23 29.33 23 28.5V28H23.5C24.33 28 25 27.33 25 26.5V9.41C25 9.01 24.84 8.64 24.56 8.35ZM21 6.21L23.79 9H21V6.21ZM22 28.5C22 28.78 21.78 29 21.5 29H8.5C8.22 29 8 28.78 8 28.5V7.5C8 7.22 8.22 7 8.5 7H9V26.5C9 27.33 9.67 28 10.5 28H22V28.5ZM23.5 27H10.5C10.22 27 10 26.78 10 26.5V6.59C10.01 6.56 10.02 6.53 10.02 6.5C10.02 6.47 10.01 6.44 10 6.41V5.5C10 5.22 10.22 5 10.5 5H19.59C19.72 5 19.85 5.05 19.94 5.15L20.06 5.27C20.03 5.34 20 5.42 20 5.5V9.5C20 9.78 20.22 10 20.5 10H24V26.5C24 26.78 23.78 27 23.5 27ZM12 7.5C12 7.22 12.22 7 12.5 7H17.5C17.78 7 18 7.22 18 7.5C18 7.78 17.78 8 17.5 8H12.5C12.22 8 12 7.78 12 7.5ZM22 11.5C22 11.78 21.78 12 21.5 12H12.5C12.22 12 12 11.78 12 11.5C12 11.22 12.22 11 12.5 11H21.5C21.78 11 22 11.22 22 11.5ZM22 15.5C22 15.78 21.78 16 21.5 16H12.5C12.22 16 12 15.78 12 15.5C12 15.22 12.22 15 12.5 15H21.5C21.78 15 22 15.22 22 15.5ZM22 19.5C22 19.78 21.78 20 21.5 20H12.5C12.22 20 12 19.78 12 19.5C12 19.22 12.22 19 12.5 19H21.5C21.78 19 22 19.22 22 19.5ZM22 23.5C22 23.78 21.78 24 21.5 24H12.5C12.22 24 12 23.78 12 23.5C12 23.22 12.22 23 12.5 23H21.5C21.78 23 22 23.22 22 23.5Z" fill="#202020"/>
</svg>
