<svg width="32" height="32" viewBox="0 0 32 32" fill="none" xmlns="http://www.w3.org/2000/svg">
<path d="M25.85 25.1483C26.05 25.3483 26.05 25.6583 25.85 25.8583C25.75 25.9583 25.62 26.0083 25.5 26.0083C25.38 26.0083 25.24 25.9583 25.15 25.8583L16 16.7083L6.85 25.8583C6.76 25.9483 6.63 25.9983 6.5 25.9983C6.37 25.9983 6.24 25.9483 6.15 25.8483C5.95 25.6483 5.95 25.3383 6.15 25.1383L15.29 15.9983L6.15 6.84828C5.95 6.64828 5.95 6.33828 6.15 6.13828C6.35 5.93828 6.66 5.93828 6.86 6.13828L16 15.2883L25.15 6.13828C25.35 5.93828 25.66 5.93828 25.86 6.13828C26.06 6.33828 26.06 6.64828 25.86 6.84828L16.71 15.9983L25.85 25.1483Z" fill="#202020"/>
</svg>
