<svg width="32" height="32" viewBox="0 0 32 32" fill="none" xmlns="http://www.w3.org/2000/svg">
<path d="M25.35 24.65L19.85 19.15C19.85 19.15 19.84 19.15 19.84 19.14C21.18 17.64 22 15.67 22 13.5C22 8.81 18.19 5 13.5 5C8.81 5 5 8.81 5 13.5C5 18.19 8.81 22 13.5 22C15.66 22 17.64 21.18 19.14 19.84C19.14 19.84 19.14 19.85 19.15 19.85L24.65 25.35C24.75 25.45 24.88 25.5 25 25.5C25.12 25.5 25.26 25.45 25.35 25.35C25.55 25.16 25.55 24.84 25.35 24.65ZM13.5 21C9.36 21 6 17.64 6 13.5C6 9.36 9.36 6 13.5 6C17.64 6 21 9.36 21 13.5C21 17.64 17.64 21 13.5 21ZM15.05 11.86C15.47 11.45 15.74 10.88 15.74 10.25C15.74 9.01 14.74 8.01 13.5 8.01C12.26 8.01 11.26 9.01 11.26 10.25C11.26 10.9 11.54 11.48 11.98 11.89C10.81 12.48 10 13.69 10 15.11V18.09C10 18.59 10.39 19.01 10.88 19.01H16.13C16.61 19.01 17.01 18.6 17.01 18.09V15.11C17 13.65 16.21 12.44 15.05 11.86ZM13.5 9.01C14.18 9.01 14.74 9.57 14.74 10.25C14.74 10.93 14.18 11.49 13.5 11.49C12.82 11.49 12.26 10.93 12.26 10.25C12.26 9.57 12.82 9.01 13.5 9.01ZM16 18H11V15.11C11 13.65 12.12 12.5 13.54 12.5C14.94 12.5 16 13.62 16 15.11V18Z" fill="#202020"/>
</svg>
