<svg width="32" height="32" viewBox="0 0 32 32" fill="none" xmlns="http://www.w3.org/2000/svg">
<path d="M18.8 13.35C20.11 12.56 21 11.14 21 9.5C21 8.97 20.9 8.44 20.72 7.94C20.88 7.86 21 7.7 21 7.5V6.5C21 5.67 20.33 5 19.5 5H13.5C12.67 5 12 5.67 12 6.5V7H10.5C10.22 7 10 7.22 10 7.5C10 7.78 10.22 8 10.5 8H12.26C12.1 8.48 12 8.99 12 9.5C12 11.16 12.91 12.6 14.26 13.38C11.18 14.4 9 17.38 9 21V25.5C9 26.33 9.62 27 10.38 27H22.63C23.39 27 24.01 26.33 24.01 25.5V21C24 17.35 21.84 14.34 18.8 13.35ZM23 21V25.25L12.89 15.18C13.94 14.43 15.21 14 16.6 14C20.19 14 23 17.08 23 21ZM13 6.5C13 6.22 13.22 6 13.5 6H19.5C19.78 6 20 6.22 20 6.5V7H13V6.5ZM13 9.5C13 8.98 13.14 8.47 13.36 8H19.65C19.87 8.47 20 8.98 20 9.5C20 11.43 18.43 13 16.5 13C14.57 13 13 11.43 13 9.5ZM10 25.5V21C10 18.93 10.82 17.09 12.13 15.82C12.14 15.83 12.14 15.84 12.15 15.85L22.33 26H10.38C10.17 26 10 25.77 10 25.5Z" fill="white"/>
</svg>
