<svg width="32" height="32" viewBox="0 0 32 32" fill="none" xmlns="http://www.w3.org/2000/svg">
<path d="M26.5 11H20.4C19.8 9.8 18.9 9 17.8 8.5C18.4 8 18.8 7.2 18.8 6.3C18.8 4.7 17.5 3.5 15.9 3.5C14.3 3.5 13 4.8 13 6.3C13 7.2 13.4 8 14.1 8.5C13 9 12.1 9.8 11.5 10.9H5.5C4.7 11 4 11.7 4 12.5V13.5C4 14.1 4.4 14.7 5 14.9V27.5C5 27.8 5.2 28 5.5 28H26.5C26.8 28 27 27.8 27 27.5V14.9C27.6 14.7 28 14.1 28 13.5V12.5C28 11.7 27.3 11 26.5 11ZM16 4.5C17 4.5 17.8 5.3 17.8 6.3C17.8 7.3 17 8.2 16 8.2C15 8.2 14.1 7.4 14.1 6.4C14.1 5.3 14.9 4.5 16 4.5ZM16 9.2C17.3 9.2 18.5 9.9 19.2 11H12.7C13.5 9.9 14.7 9.2 16 9.2ZM26 27H6V15H26V27ZM27 13.5C27 13.8 26.8 14 26.5 14H5.5C5.2 14 5 13.8 5 13.5V12.5C5 12.2 5.2 12 5.5 12H11.7C11.8 12 11.8 12 11.9 12C12 12 12 12 12 12H26.5C26.8 12 27 12.2 27 12.5V13.5ZM14 23C15.9 24.9 17.6 25.5 18.6 25.5C19 25.5 19.4 25.4 19.6 25.2L19.7 25.1C19.7 25.1 19.7 25.1 19.8 25C20.2 24.7 20.6 24.2 20.6 23.7C20.6 23.3 20.3 22.9 19.9 22.6C19.4 22.2 18.9 22 18.6 22C18.1 22 17.8 22.3 17.5 22.6L17.4 22.7C17.3 22.7 16.9 22.6 15.8 21.5C14.5 20.2 14.6 19.9 14.6 19.9L14.7 19.8C15.3 19.2 15.7 18.6 14.7 17.4C14.3 16.9 13.9 16.7 13.5 16.7C12.9 16.7 12.5 17.1 12.2 17.5L12.1 17.6C11.7 18 11.7 18.9 12 19.9C12.2 20.8 13 22 14 23ZM12.5 18.1L12.7 17.9C12.8 17.7 13.1 17.4 13.3 17.4C13.3 17.4 13.4 17.4 13.7 17.7C14.2 18.4 14.2 18.4 13.8 18.8L13.7 19C12.8 19.9 14.2 21.4 14.9 22.1C16.4 23.6 17.4 23.9 18 23.3L18.1 23.2C18.2 23.1 18.4 22.9 18.5 22.9C18.5 22.9 18.7 22.9 19.2 23.3C19.5 23.5 19.5 23.7 19.5 23.7C19.5 23.8 19.2 24.1 19 24.3V24.4L18.9 24.5C18.9 24.5 18.8 24.5 18.6 24.5C18 24.5 16.5 24 14.7 22.3C13.8 21.4 13.1 20.3 12.7 19.4C12.4 18.6 12.5 18.2 12.5 18.1Z" fill="white"/>
</svg>
