<svg width="32" height="32" viewBox="0 0 32 32" fill="none" xmlns="http://www.w3.org/2000/svg">
<path d="M16 4C9.38 4 4 9.38 4 16C4 22.62 9.38 28 16 28C22.62 28 28 22.62 28 16C28 9.38 22.62 4 16 4ZM16 27C9.93 27 5 22.07 5 16C5 9.93 9.93 5 16 5C22.07 5 27 9.93 27 16C27 22.07 22.07 27 16 27ZM20.95 11.76L16.71 16L20.95 20.24C21.15 20.44 21.15 20.75 20.95 20.95C20.85 21.05 20.72 21.1 20.6 21.1C20.48 21.1 20.34 21.05 20.25 20.95L16 16.71L11.76 20.95C11.66 21.05 11.53 21.1 11.41 21.1C11.29 21.1 11.15 21.05 11.06 20.95C10.86 20.75 10.86 20.44 11.06 20.24L15.29 16L11.05 11.76C10.85 11.56 10.85 11.25 11.05 11.05C11.25 10.85 11.56 10.85 11.76 11.05L16 15.29L20.24 11.05C20.44 10.85 20.75 10.85 20.95 11.05C21.15 11.25 21.15 11.56 20.95 11.76Z" fill="white"/>
</svg>
