<svg width="32" height="32" viewBox="0 0 32 32" fill="none" xmlns="http://www.w3.org/2000/svg">
<path d="M8.94 20.24C9.12 20.41 9.36 20.5 9.6 20.5C9.7 20.5 9.8 20.48 9.9 20.45L25.51 15.02C26.11 14.8 26.59 14.37 26.83 13.82C27.05 13.32 27.05 12.77 26.84 12.28C26.39 11.16 25.12 10.59 24 11.02L19.62 12.54L14.55 9.1C14.33 9 14.08 9 13.93 9L12.25 9.59C11.94 9.71 11.71 9.97 11.65 10.28C11.59 10.57 11.69 10.87 11.9 11.06L14.91 14.21L10.63 15.72L8.19 14.63C7.98 14.49 7.71 14.48 7.48 14.59L5.7 15.23C5.38 15.29 5.13 15.53 5.03 15.84C4.94 16.16 5.03 16.51 5.27 16.74L8.94 20.24ZM7.78 15.54L10.57 16.79L16.69 14.64L12.72 10.48L14.03 10C14.04 10 14.05 9.99 14.06 9.99H14.07L19.48 13.66L24.34 11.97L24.35 11.96C24.96 11.73 25.66 12.04 25.91 12.67C26.01 12.91 26.01 13.18 25.91 13.43C25.78 13.73 25.51 13.96 25.18 14.09L9.63 19.51L6.1 16.14L7.78 15.54ZM27.5 27.5C27.5 27.78 27.28 28 27 28H5C4.72 28 4.5 27.78 4.5 27.5C4.5 27.22 4.72 27 5 27H27C27.28 27 27.5 27.22 27.5 27.5Z" fill="#202020"/>
</svg>
