<svg width="32" height="32" viewBox="0 0 32 32" fill="none" xmlns="http://www.w3.org/2000/svg">
<path d="M19 20.5C19 20.78 18.78 21 18.5 21H13V14.55C13 13.14 14.35 12 16 12C17.68 12 19 13.1 19 14.5C19 14.78 18.78 15 18.5 15C18.22 15 18 14.78 18 14.5C18 13.66 17.12 13 16 13C14.9 13 14 13.7 14 14.55V16H16.5C16.78 16 17 16.22 17 16.5C17 16.78 16.78 17 16.5 17H14V20H18.5C18.78 20 19 20.22 19 20.5ZM16.5 26H15.5C15.22 26 15 26.22 15 26.5C15 26.78 15.22 27 15.5 27H16.5C16.78 27 17 26.78 17 26.5C17 26.22 16.78 26 16.5 26ZM17.5 6H14.5C14.22 6 14 6.22 14 6.5C14 6.78 14.22 7 14.5 7H17.5C17.78 7 18 6.78 18 6.5C18 6.22 17.78 6 17.5 6ZM23 24.66V26.5C23 27.88 21.88 29 20.5 29H11.5C10.12 29 9 27.88 9 26.5V6.5C9 5.12 10.12 4 11.5 4H20.5C21.88 4 23 5.12 23 6.5V24.24C23.03 24.3 23.05 24.37 23.05 24.45C23.05 24.53 23.03 24.6 23 24.66ZM10 23.95H22V8.95H10V23.95ZM10 7.95H22V6.5C22 5.67 21.33 5 20.5 5H11.5C10.67 5 10 5.67 10 6.5V7.95ZM22 26.5V24.95H10V26.5C10 27.33 10.67 28 11.5 28H20.5C21.33 28 22 27.33 22 26.5Z" fill="white"/>
</svg>
