<svg width="32" height="32" viewBox="0 0 32 32" fill="none" xmlns="http://www.w3.org/2000/svg">
<path d="M13.99 16.64H12.99V8.44H13.99V16.64ZM11.5 20.75C11.5 21.21 11.66 21.64 11.92 22H11V23H14V22C13.17 22 12.5 21.44 12.5 20.75C12.5 20.06 13.17 19.5 14 19.5V18.5C12.62 18.5 11.5 19.51 11.5 20.75ZM16 18C15.45 18 15 18.45 15 19C15 19.55 15.45 20 16 20C16.55 20 17 19.55 17 19C17 18.45 16.55 18 16 18ZM19.81 10.11L19.19 10.89C21.44 12.69 22.51 14.71 21.99 16.18C21.58 17.35 20.13 18.03 18.03 18.03C18.02 18.03 18.01 18.03 18 18.03V19.03C18.01 19.03 18.02 19.03 18.03 19.03C20.58 19.03 22.37 18.11 22.93 16.52C23.6 14.61 22.44 12.21 19.81 10.11ZM28 16C28 22.62 22.62 28 16 28C9.38 28 4 22.62 4 16C4 9.38 9.38 4 16 4C22.62 4 28 9.38 28 16ZM27 16C27 9.93 22.07 5 16 5C9.93 5 5 9.93 5 16C5 22.07 9.93 27 16 27C22.07 27 27 22.07 27 16Z" fill="#202020"/>
</svg>
