<svg width="32" height="32" viewBox="0 0 32 32" fill="none" xmlns="http://www.w3.org/2000/svg">
<path d="M21 20.02C21 16.91 18.74 15.94 16.5 15.24V8.04C18.23 8.43 19.59 9.93 19.84 11.82H20.74L20.73 11.69C20.48 9.32 18.72 7.47 16.5 7.09V5H15.5V7.01C12.58 7.07 10.55 8.86 10.55 11.42C10.55 14.44 13.04 15.18 15.45 15.9C15.47 15.91 15.48 15.91 15.5 15.92V24.07C13.03 24.07 11.19 22.44 10.92 20.01L10.91 19.9H10L10.01 20.03C10.3 23 12.51 25 15.5 25V27H16.5V24.92C19.23 24.56 21 22.69 21 20.02ZM11.46 11.42C11.46 9.72 12.85 8 15.5 7.94V14.95C13.39 14.32 11.46 13.67 11.46 11.42ZM16.5 23.99V16.23C18.46 16.87 20.09 17.7 20.09 20.02C20.09 22.14 18.69 23.64 16.5 23.99Z" fill="#202020"/>
</svg>
