<svg width="32" height="32" viewBox="0 0 32 32" fill="none" xmlns="http://www.w3.org/2000/svg">
<path fill-rule="evenodd" clip-rule="evenodd" d="M15.5 4C15.7761 4 16 4.03282 16 4.07331V5.03628C17.383 5.2567 18.44 6.45491 18.44 7.9C18.44 9.34509 17.383 10.5433 16 10.7637V13.1363C17.383 13.3567 18.44 14.5549 18.44 16C18.44 17.4451 17.383 18.6433 16 18.8637V21.0363C17.383 21.2567 18.44 22.4549 18.44 23.9C18.44 25.3451 17.383 26.5433 16 26.7637V27.9267C16 27.9672 15.7761 28 15.5 28C15.2239 28 15 27.9672 15 27.9267V26.7498C13.6564 26.4968 12.64 25.3171 12.64 23.9C12.64 22.4829 13.6564 21.3032 15 21.0502V18.8498C13.6564 18.5968 12.64 17.4171 12.64 16C12.64 14.5829 13.6564 13.4032 15 13.1502V10.7498C13.6564 10.4968 12.64 9.31709 12.64 7.9C12.64 6.48291 13.6564 5.30321 15 5.05018V4.07331C15 4.03282 15.2239 4 15.5 4ZM15.54 6C14.4907 6 13.64 6.85066 13.64 7.9C13.64 8.94934 14.4907 9.8 15.54 9.8C16.5893 9.8 17.44 8.94934 17.44 7.9C17.44 6.85066 16.5893 6 15.54 6ZM15.54 22C14.4907 22 13.64 22.8507 13.64 23.9C13.64 24.9493 14.4907 25.8 15.54 25.8C16.5893 25.8 17.44 24.9493 17.44 23.9C17.44 22.8507 16.5893 22 15.54 22Z" fill="#1D1D1B"/>
<circle cx="15.5" cy="4" r="0.5" fill="#1D1D1B"/>
<circle cx="15.5" cy="28" r="0.5" fill="#1D1D1B"/>
</svg>
