<svg width="32" height="32" viewBox="0 0 32 32" fill="none" xmlns="http://www.w3.org/2000/svg">
<path d="M11.15 18.35C10.95 18.15 10.95 17.84 11.15 17.64C11.35 17.44 11.66 17.44 11.86 17.64L15.51 21.29V6.5C15.5 6.22 15.72 6 16 6C16.28 6 16.5 6.22 16.5 6.5V21.29L20.15 17.64C20.35 17.44 20.66 17.44 20.86 17.64C21.06 17.84 21.06 18.15 20.86 18.35L16.36 22.85C16.31 22.9 16.26 22.93 16.2 22.96C16.13 22.99 16.07 23 16 23C15.93 23 15.87 22.99 15.81 22.96C15.75 22.93 15.69 22.9 15.65 22.85L11.15 18.35ZM23.5 21C23.22 21 23 21.22 23 21.5V24.5C23 24.82 22.84 25 22.79 25H9.21C9.16 25 9 24.82 9 24.5V21.5C9 21.22 8.78 21 8.5 21C8.22 21 8 21.22 8 21.5V24.5C8 25.34 8.53 26 9.21 26H22.78C23.46 26 23.99 25.34 23.99 24.5V21.5C24 21.22 23.78 21 23.5 21Z" fill="white"/>
</svg>
