<svg width="32" height="32" viewBox="0 0 32 32" fill="none" xmlns="http://www.w3.org/2000/svg">
<path d="M16 4C9.38 4 4 9.38 4 16C4 22.62 9.38 28 16 28C22.62 28 28 22.62 28 16C28 9.38 22.62 4 16 4ZM16 27C9.93 27 5 22.07 5 16C5 9.93 9.93 5 16 5C22.07 5 27 9.93 27 16C27 22.07 22.07 27 16 27ZM20.66 10.37C20.21 9.92 19.54 9.87 19.14 10.27L11.68 17.73C11.64 17.77 11.62 17.81 11.59 17.85L10.05 20.76C9.95 20.95 9.98 21.19 10.14 21.35C10.24 21.45 10.36 21.5 10.49 21.5C10.57 21.5 10.65 21.48 10.72 21.44L13.63 19.9C13.67 19.88 13.71 19.85 13.75 19.81L21.21 12.35C21.61 11.95 21.56 11.29 21.11 10.83L20.66 10.37ZM13.11 19.04L11.7 19.78L12.45 18.37L19.81 11C19.84 11 19.89 11.02 19.96 11.08L20.42 11.54C20.48 11.6 20.5 11.67 20.52 11.64L13.11 19.04Z" fill="#202020"/>
</svg>
