<svg width="32" height="32" viewBox="0 0 32 32" fill="none" xmlns="http://www.w3.org/2000/svg">
<path d="M17.64 16.37C18.16 15.91 18.5 15.25 18.5 14.5C18.5 13.12 17.38 12 16 12C14.62 12 13.5 13.12 13.5 14.5C13.5 15.25 13.84 15.91 14.36 16.37C12.69 17.02 11.5 18.62 11.5 20.5C11.5 20.78 11.72 21 12 21H20C20.28 21 20.5 20.78 20.5 20.5C20.5 18.62 19.31 17.02 17.64 16.37ZM16 13C16.83 13 17.5 13.67 17.5 14.5C17.5 15.33 16.83 16 16 16C15.17 16 14.5 15.33 14.5 14.5C14.5 13.67 15.17 13 16 13ZM12.54 20C12.78 18.31 14.21 17.05 16 17.05C17.79 17.05 19.23 18.31 19.46 20H12.54ZM17 26.5C17 26.78 16.78 27 16.5 27H15.5C15.22 27 15 26.78 15 26.5C15 26.22 15.22 26 15.5 26H16.5C16.78 26 17 26.22 17 26.5ZM18 6.5C18 6.78 17.78 7 17.5 7H14.5C14.22 7 14 6.78 14 6.5C14 6.22 14.22 6 14.5 6H17.5C17.78 6 18 6.22 18 6.5ZM23.05 24.45C23.05 24.37 23.03 24.31 23 24.24V6.5C23 5.12 21.88 4 20.5 4H11.5C10.12 4 9 5.12 9 6.5V26.5C9 27.88 10.12 29 11.5 29H20.5C21.88 29 23 27.88 23 26.5V24.66C23.03 24.6 23.05 24.53 23.05 24.45ZM10 8.95H22V23.95H10V8.95ZM10 6.5C10 5.67 10.67 5 11.5 5H20.5C21.33 5 22 5.67 22 6.5V7.95H10V6.5ZM20.5 28H11.5C10.67 28 10 27.33 10 26.5V24.95H22V26.5C22 27.33 21.33 28 20.5 28Z" fill="#202020"/>
</svg>
