<svg width="32" height="20" viewBox="0 0 32 20" fill="none" xmlns="http://www.w3.org/2000/svg">
<path d="M7.15556 0C6.74413 0 6.4 0.33302 6.4 0.744444V3.2H4.18889C4.00541 2.23104 3.12048 1.45555 2.11111 1.45556C0.975815 1.45554 -0.000117785 2.43142 1.06624e-08 3.56667C0.000331068 4.70162 0.976111 5.67779 2.11111 5.67778C3.12788 5.67779 4.01448 4.89026 4.18889 3.91111H6.4V9.24444H4.18889C4.01006 8.2703 3.12431 7.48888 2.11111 7.48889C0.975815 7.48888 -0.000117785 8.46474 1.06624e-08 9.6C-0.000117785 10.7353 0.975815 11.7111 2.11111 11.7111C3.12431 11.7111 4.01006 10.9297 4.18889 9.95556H6.4V15.2778H4.18889C4.00977 14.3038 3.12405 13.5222 2.11111 13.5222C0.976111 13.5222 0.000331068 14.4984 1.06624e-08 15.6333C-0.000117785 16.7686 0.975815 17.7445 2.11111 17.7444C3.12431 17.7445 4.01006 16.963 4.18889 15.9889H6.4V18.4444C6.4 18.8559 6.74413 19.2 7.15556 19.2H24.8444C25.2559 19.2 25.6 18.8559 25.6 18.4444V15.9889H27.8111C27.9899 16.963 28.8757 17.7445 29.8889 17.7444C31.0242 17.7445 32.0001 16.7686 32 15.6333C31.9997 14.4984 31.0239 13.5222 29.8889 13.5222C28.876 13.5222 27.9902 14.3038 27.8111 15.2778H25.6V9.95556H27.8111C27.9899 10.9297 28.8757 11.7111 29.8889 11.7111C31.0242 11.7111 32.0001 10.7353 32 9.6C32.0001 8.46474 31.0242 7.48888 29.8889 7.48889C28.8757 7.48888 27.9899 8.2703 27.8111 9.24444H25.6V3.91111H27.8111C27.9855 4.89026 28.8721 5.67779 29.8889 5.67778C31.0239 5.67779 31.9997 4.70162 32 3.56667C32.0001 2.43142 31.0242 1.45554 29.8889 1.45556C28.8795 1.45555 27.9946 2.23104 27.8111 3.2H25.6V0.744444C25.6 0.33302 25.2559 0 24.8444 0H7.15556ZM7.15556 0.711111H24.8444C24.8742 0.711111 24.8889 0.714684 24.8889 0.744444V18.4444C24.8889 18.4743 24.8742 18.4889 24.8444 18.4889H7.15556C7.12579 18.4889 7.11111 18.4743 7.11111 18.4444V0.744444C7.11111 0.714684 7.12579 0.711111 7.15556 0.711111ZM2.11111 2.16667C2.81507 2.16666 3.51118 2.86283 3.51111 3.56667C3.51091 4.27033 2.8149 4.96667 2.11111 4.96667C1.40732 4.96667 0.711316 4.27033 0.711111 3.56667C0.711038 2.86283 1.40715 2.16666 2.11111 2.16667ZM29.8889 2.16667C30.5928 2.16666 31.289 2.86283 31.2889 3.56667C31.2887 4.27033 30.5927 4.96667 29.8889 4.96667C29.1851 4.96667 28.4891 4.27033 28.4889 3.56667C28.4888 2.86283 29.1849 2.16666 29.8889 2.16667ZM10.9556 3.96667C10.639 3.96667 10.3778 4.23895 10.3778 4.55556V14.6444C10.3778 14.9611 10.639 15.2222 10.9556 15.2222H21.0444C21.361 15.2222 21.6222 14.9611 21.6222 14.6444V4.55556C21.6222 4.23895 21.361 3.96667 21.0444 3.96667H10.9556ZM11.0889 4.67778H20.9111V14.5111H11.0889V4.67778ZM2.11111 8.2C2.81507 8.19999 3.51118 8.89618 3.51111 9.6C3.51118 10.3038 2.81507 11 2.11111 11C1.40715 11 0.711038 10.3038 0.711111 9.6C0.711038 8.89618 1.40715 8.19999 2.11111 8.2ZM29.8889 8.2C30.5928 8.19999 31.289 8.89618 31.2889 9.6C31.289 10.3038 30.5928 11 29.8889 11C29.1849 11 28.4888 10.3038 28.4889 9.6C28.4888 8.89618 29.1849 8.19999 29.8889 8.2ZM2.11111 14.2333C2.8149 14.2333 3.51091 14.9297 3.51111 15.6333C3.51118 16.3372 2.81507 17.0333 2.11111 17.0333C1.40715 17.0333 0.711038 16.3372 0.711111 15.6333C0.711316 14.9297 1.40732 14.2333 2.11111 14.2333ZM29.8889 14.2333C30.5927 14.2333 31.2887 14.9297 31.2889 15.6333C31.289 16.3372 30.5928 17.0333 29.8889 17.0333C29.1849 17.0333 28.4888 16.3372 28.4889 15.6333C28.4891 14.9297 29.1851 14.2333 29.8889 14.2333Z" fill="white"/>
</svg>
