<svg width="32" height="32" viewBox="0 0 32 32" fill="none" xmlns="http://www.w3.org/2000/svg">
<path d="M27.5 7H4.5C4.22 7 4 7.22 4 7.5V24.5C4 24.78 4.22 25 4.5 25H27.5C27.78 25 28 24.78 28 24.5V7.5C28 7.22 27.78 7 27.5 7ZM27 24H5V8H27V24ZM22.5 13H25.5C25.78 13 26 12.78 26 12.5V9.5C26 9.22 25.78 9 25.5 9H22.5C22.22 9 22 9.22 22 9.5V12.5C22 12.78 22.22 13 22.5 13ZM23 10H25V12H23V10ZM7 15.5C7 15.22 7.22 15 7.5 15H14.5C14.78 15 15 15.22 15 15.5C15 15.78 14.78 16 14.5 16H7.5C7.22 16 7 15.78 7 15.5ZM7 17.5C7 17.22 7.22 17 7.5 17H18.5C18.78 17 19 17.22 19 17.5C19 17.78 18.78 18 18.5 18H7.5C7.22 18 7 17.78 7 17.5ZM7 19.5C7 19.22 7.22 19 7.5 19H18.5C18.78 19 19 19.22 19 19.5C19 19.78 18.78 20 18.5 20H7.5C7.22 20 7 19.78 7 19.5Z" fill="white"/>
</svg>
