<svg width="32" height="32" viewBox="0 0 32 32" fill="none" xmlns="http://www.w3.org/2000/svg">
<path d="M26.5 8H5.54C4.71 8 4.04 8.67 4.04 9.5V22.49C4.04 23.32 4.71 23.99 5.54 23.99H26.5C27.33 23.99 28 23.32 28 22.49V9.5C28 8.67 27.33 8 26.5 8ZM27 22.49C27 22.77 26.78 22.99 26.5 22.99H5.54C5.26 22.99 5.04 22.77 5.04 22.49V9.5C5.04 9.22 5.26 9 5.54 9H26.5C26.78 9 27 9.22 27 9.5V22.49ZM11 18.5H14.46V19.5H10V12.5H14.35V13.5H11V15.5H14V16.5H11V18.5ZM21 12.5H22V17C22 18.52 21.02 19.5 19.5 19.5C17.98 19.5 17 18.52 17 17V12.5H18V17C18 18.3 18.94 18.5 19.5 18.5C20.06 18.5 21 18.3 21 17V12.5Z" fill="white"/>
</svg>
