<svg width="32" height="32" viewBox="0 0 32 32" fill="none" xmlns="http://www.w3.org/2000/svg">
<path d="M26.0004 20.01L27.0004 20C25.4804 24.69 22.6404 28.01 17.6904 28.01C12.5504 28.01 8.55035 23.88 7.40035 19.19H4.36035V18.25H7.22035C7.22035 18.25 7.03035 17.31 7.03035 16.19C7.03035 15.25 7.18035 14.31 7.18035 14.31H4.36035V13.37H7.33035C8.17035 8.69 12.1704 4 17.6904 4C22.6404 4 25.8804 7.19 27.2104 11.88H26.2604C24.9304 7.75 22.0704 4.94 17.6904 4.94C12.7404 4.94 9.12035 9.25 8.28035 13.38H17.1204V14.32H8.13035C8.13035 14.32 7.98035 15.26 7.98035 16.2C7.98035 17.33 8.17035 18.26 8.17035 18.26H17.1204V19.2H8.36035C9.50035 23.33 13.1304 27.02 17.7004 27.02C22.0704 27.01 24.4804 24.13 26.0004 20.01Z" fill="#202020"/>
</svg>
