<svg width="32" height="32" viewBox="0 0 32 32" fill="none" xmlns="http://www.w3.org/2000/svg">
<path d="M11.15 11.3497C10.95 11.1497 10.95 10.8397 11.15 10.6397L15.65 6.13969C15.7 6.08969 15.75 6.05969 15.81 6.02969C15.93 5.97969 16.07 5.97969 16.19 6.02969C16.25 6.05969 16.31 6.08969 16.35 6.13969L20.85 10.6397C21.05 10.8397 21.05 11.1497 20.85 11.3497C20.75 11.4497 20.62 11.4997 20.5 11.4997C20.38 11.4997 20.24 11.4497 20.15 11.3497L16.5 7.70969V22.4997C16.5 22.7797 16.28 22.9997 16 22.9997C15.72 22.9997 15.5 22.7797 15.5 22.4997V7.70969L11.85 11.3597C11.66 11.5497 11.34 11.5497 11.15 11.3497ZM23.5 20.9997C23.22 20.9997 23 21.2197 23 21.4997V24.4997C23 24.8197 22.84 24.9997 22.79 24.9997H9.21C9.16 24.9997 9 24.8197 9 24.4997V21.4997C9 21.2197 8.78 20.9997 8.5 20.9997C8.22 20.9997 8 21.2197 8 21.4997V24.4997C8 25.3397 8.53 25.9997 9.21 25.9997H22.78C23.46 25.9997 23.99 25.3397 23.99 24.4997V21.4997C24 21.2197 23.78 20.9997 23.5 20.9997Z" fill="#202020"/>
</svg>
