<svg width="32" height="32" viewBox="0 0 32 32" fill="none" xmlns="http://www.w3.org/2000/svg">
<path d="M16 4C9.38 4 4 9.38 4 16C4 22.62 9.38 28 16 28C22.62 28 28 22.62 28 16C28 9.38 22.62 4 16 4ZM16 27C9.93 27 5 22.07 5 16C5 9.93 9.93 5 16 5C22.07 5 27 9.93 27 16C27 22.07 22.07 27 16 27ZM11 13C11 12.45 11.45 12 12 12C12.55 12 13 12.45 13 13C13 13.55 12.55 14 12 14C11.45 14 11 13.55 11 13ZM21 13C21 13.55 20.55 14 20 14C19.45 14 19 13.55 19 13C19 12.45 19.45 12 20 12C20.55 12 21 12.45 21 13ZM20.8 19.63C21.01 19.81 21.02 20.13 20.84 20.34C19.61 21.72 17.84 22.51 16 22.51C14.16 22.51 12.39 21.72 11.16 20.34C10.98 20.13 10.99 19.82 11.2 19.63C11.41 19.45 11.72 19.46 11.91 19.67C12.95 20.84 14.45 21.5 16.01 21.5C17.57 21.5 19.07 20.83 20.11 19.67C20.29 19.46 20.6 19.44 20.8 19.63Z" fill="#202020"/>
</svg>
