<svg width="32" height="32" viewBox="0 0 32 32" fill="none" xmlns="http://www.w3.org/2000/svg">
<path d="M21.97 21.34C22.06 21.6 21.92 21.88 21.66 21.97C21.61 21.99 21.55 22 21.5 22C21.29 22 21.1 21.87 21.03 21.66C20.27 19.47 18.25 18 16 18C13.75 18 11.73 19.47 10.97 21.66C10.88 21.92 10.59 22.06 10.33 21.97C10.07 21.88 9.93 21.6 10.02 21.34C10.92 18.74 13.32 17 16 17C18.68 17 21.08 18.74 21.97 21.34ZM28 16C28 22.62 22.62 28 16 28C9.38 28 4 22.62 4 16C4 9.38 9.38 4 16 4C22.62 4 28 9.38 28 16ZM27 16C27 9.93 22.07 5 16 5C9.93 5 5 9.93 5 16C5 22.07 9.93 27 16 27C22.07 27 27 22.07 27 16ZM12 14C12.55 14 13 13.55 13 13C13 12.45 12.55 12 12 12C11.45 12 11 12.45 11 13C11 13.55 11.45 14 12 14ZM20 14C20.55 14 21 13.55 21 13C21 12.45 20.55 12 20 12C19.45 12 19 12.45 19 13C19 13.55 19.45 14 20 14Z" fill="white"/>
</svg>
