<svg width="32" height="32" viewBox="0 0 32 32" fill="none" xmlns="http://www.w3.org/2000/svg">
<path d="M27.72 12.05C27.55 11.96 27.35 11.99 27.2 12.1L25 13.76V11.5C25 10.12 23.88 9 22.5 9H6.5C5.12 9 4 10.12 4 11.5V20.5C4 21.88 5.12 23 6.5 23H22.5C23.88 23 25 21.88 25 20.5V18.24L27.2 19.9C27.29 19.97 27.39 20 27.5 20C27.58 20 27.65 19.98 27.72 19.95C27.89 19.86 28 19.69 28 19.5V12.5C28 12.31 27.89 12.14 27.72 12.05ZM24 20.5C24 21.33 23.33 22 22.5 22H6.5C5.67 22 5 21.33 5 20.5V11.5C5 10.67 5.67 10 6.5 10H22.5C23.33 10 24 10.67 24 11.5V20.5ZM27 18.5L25 16.99V15.01L27 13.5V18.5ZM9 12.5C9 12.78 8.78 13 8.5 13H7.5C7.22 13 7 12.78 7 12.5C7 12.22 7.22 12 7.5 12H8.5C8.78 12 9 12.22 9 12.5ZM15 12.5C15 12.78 14.78 13 14.5 13H10.5C10.22 13 10 12.78 10 12.5C10 12.22 10.22 12 10.5 12H14.5C14.78 12 15 12.22 15 12.5Z" fill="white"/>
</svg>
