<svg width="32" height="32" viewBox="0 0 32 32" fill="none" xmlns="http://www.w3.org/2000/svg">
<path d="M11 18.09V5C11 4.72 10.78 4.5 10.5 4.5C10.22 4.5 10 4.72 10 5V18.09C9.42 18.3 9 18.85 9 19.5C9 20.15 9.42 20.7 10 20.91V27.5C10 27.78 10.22 28 10.5 28C10.78 28 11 27.78 11 27.5V20.91C11.58 20.7 12 20.15 12 19.5C12 18.85 11.58 18.3 11 18.09ZM10.5 20C10.22 20 10 19.77 10 19.5C10 19.22 10.22 19 10.5 19C10.78 19 11 19.22 11 19.5C11 19.77 10.78 20 10.5 20ZM16 8.09V5C16 4.72 15.78 4.5 15.5 4.5C15.22 4.5 15 4.72 15 5V8.09C14.42 8.3 14 8.85 14 9.5C14 10.15 14.42 10.7 15 10.91V27.5C15 27.78 15.22 28 15.5 28C15.78 28 16 27.78 16 27.5V10.91C16.58 10.7 17 10.15 17 9.5C17 8.85 16.58 8.3 16 8.09ZM15.5 10C15.22 10 15 9.78 15 9.5C15 9.22 15.22 9 15.5 9C15.78 9 16 9.22 16 9.5C16 9.78 15.78 10 15.5 10ZM22 14.5C22 13.85 21.58 13.3 21 13.09V5C21 4.72 20.78 4.5 20.5 4.5C20.22 4.5 20 4.72 20 5V13.09C19.42 13.3 19 13.85 19 14.5C19 15.15 19.42 15.7 20 15.91V27.5C20 27.78 20.22 28 20.5 28C20.78 28 21 27.78 21 27.5V15.91C21.58 15.7 22 15.15 22 14.5ZM20.5 15C20.22 15 20 14.78 20 14.5C20 14.22 20.22 14 20.5 14C20.78 14 21 14.22 21 14.5C21 14.78 20.78 15 20.5 15Z" fill="white"/>
</svg>
