<svg width="32" height="32" viewBox="0 0 32 32" fill="none" xmlns="http://www.w3.org/2000/svg">
<path d="M26.5 10H16.96C16.81 10 16.68 9.94 16.52 9.76L13.73 7.52C13.44 7.19 13.03 7 12.59 7H5.5C4.67 7 4 7.67 4 8.5V23.5C4 24.33 4.67 25 5.5 25H26.5C27.33 25 28 24.33 28 23.5V11.5C28 10.67 27.33 10 26.5 10ZM27 23.5C27 23.78 26.78 24 26.5 24H5.5C5.22 24 5 23.78 5 23.5V8.5C5 8.22 5.22 8 5.5 8H12.59C12.74 8 12.87 8.06 13.03 8.24L15.82 10.48C16.1 10.81 16.52 11 16.96 11H26.5C26.78 11 27 11.22 27 11.5V23.5ZM16 13C10.83 13 7.27 17 7.12 17.17C6.96 17.36 6.96 17.64 7.12 17.83C7.27 18 10.83 22 16 22C21.17 22 24.73 18 24.88 17.83C25.05 17.64 25.05 17.36 24.88 17.17C24.73 17 21.17 13 16 13ZM16 21C12.13 21 9.15 18.43 8.2 17.5C9.15 16.57 12.13 14 16 14C19.88 14 22.85 16.57 23.8 17.5C22.85 18.43 19.88 21 16 21ZM13.5 17.5C13.5 18.88 14.62 20 16 20C17.38 20 18.5 18.88 18.5 17.5C18.5 16.12 17.38 15 16 15C14.62 15 13.5 16.12 13.5 17.5ZM17.5 17.5C17.5 18.33 16.83 19 16 19C15.17 19 14.5 18.33 14.5 17.5C14.5 16.67 15.17 16 16 16C16.83 16 17.5 16.67 17.5 17.5Z" fill="white"/>
</svg>
