<svg width="32" height="32" viewBox="0 0 32 32" fill="none" xmlns="http://www.w3.org/2000/svg">
<path d="M26.5 10H16.96C16.81 10 16.68 9.94 16.52 9.76L13.73 7.52C13.44 7.19 13.03 7 12.59 7H5.5C4.67 7 4 7.67 4 8.5V23.5C4 24.33 4.67 25 5.5 25H26.5C27.33 25 28 24.33 28 23.5V11.5C28 10.67 27.33 10 26.5 10ZM27 23.5C27 23.78 26.78 24 26.5 24H5.5C5.22 24 5 23.78 5 23.5V8.5C5 8.22 5.22 8 5.5 8H12.59C12.74 8 12.87 8.06 13.03 8.24L15.82 10.48C16.1 10.81 16.52 11 16.96 11H26.5C26.78 11 27 11.22 27 11.5V23.5ZM18.9 17.86C18.88 17.82 18.85 17.78 18.81 17.74L12.35 11.28C12.15 11.08 11.86 10.98 11.55 11.02C11.29 11.05 11.03 11.18 10.83 11.38L10.37 11.84C10.17 12.04 10.04 12.29 10.01 12.56C9.97 12.86 10.07 13.16 10.27 13.36L16.73 19.82C16.77 19.86 16.81 19.88 16.85 19.91L19.76 21.45C19.83 21.49 19.91 21.51 19.99 21.51C20.12 21.51 20.25 21.46 20.34 21.36C20.5 21.2 20.53 20.97 20.43 20.77L18.9 17.86ZM11.09 12.54L11.55 12.08C11.61 12.02 11.67 12 11.65 11.98L12.73 13.06L12.06 13.73L11.01 12.68C11.01 12.67 11.03 12.61 11.09 12.54ZM17.39 19.05L12.77 14.45L13.44 13.78L18.05 18.39L18.79 19.79L17.39 19.05Z" fill="white"/>
</svg>
