<svg width="32" height="32" viewBox="0 0 32 32" fill="none" xmlns="http://www.w3.org/2000/svg">
<path d="M7 7.5C7 7.22 7.22 7 7.5 7H12.5C12.78 7 13 7.22 13 7.5C13 7.78 12.78 8 12.5 8H7.5C7.22 8 7 7.78 7 7.5ZM7.5 12H16.5C16.78 12 17 11.78 17 11.5C17 11.22 16.78 11 16.5 11H7.5C7.22 11 7 11.22 7 11.5C7 11.78 7.22 12 7.5 12ZM7.5 16H16.5C16.78 16 17 15.78 17 15.5C17 15.22 16.78 15 16.5 15H7.5C7.22 15 7 15.22 7 15.5C7 15.78 7.22 16 7.5 16ZM7.5 20H14.5C14.78 20 15 19.78 15 19.5C15 19.22 14.78 19 14.5 19H7.5C7.22 19 7 19.22 7 19.5C7 19.78 7.22 20 7.5 20ZM28.67 12.12L20 20.79V26.5C20 27.33 19.33 28 18.5 28H5.5C4.67 28 4 27.33 4 26.5V5.5C4 4.67 4.67 4 5.5 4H14.59C14.99 4 15.37 4.16 15.65 4.44L19.56 8.35C19.84 8.64 20 9.01 20 9.41V15.2L25.88 9.32C26.37 8.83 27.24 8.9 27.82 9.48L28.52 10.17C28.78 10.43 28.95 10.77 29 11.11C29.04 11.51 28.92 11.87 28.67 12.12ZM16 9H18.79L16 6.21V9ZM19 26.5V21.68L14.73 23.94C14.72 23.94 14.72 23.94 14.71 23.94C14.65 23.98 14.58 24 14.5 24H7.5C7.22 24 7 23.78 7 23.5C7 23.22 7.22 23 7.5 23H14.2L16.42 18.82C16.44 18.78 16.47 18.74 16.51 18.7L19.01 16.2V10H15.51C15.22 10 15 9.78 15 9.5V5.5C15 5.42 15.03 5.34 15.06 5.27L14.94 5.15C14.85 5.05 14.72 5 14.59 5H5.5C5.22 5 5 5.22 5 5.5V26.5C5 26.78 5.22 27 5.5 27H18.5C18.78 27 19 26.78 19 26.5ZM28 11.25C27.98 11.13 27.92 11 27.81 10.89L27.11 10.2C26.91 9.99 26.66 9.97 26.58 10.04L17.26 19.36L15.7 22.3L18.64 20.74L27.96 11.42C28.01 11.37 28 11.28 28 11.25Z" fill="#202020"/>
</svg>
