<svg width="32" height="32" viewBox="0 0 32 32" fill="none" xmlns="http://www.w3.org/2000/svg">
<path fill-rule="evenodd" clip-rule="evenodd" d="M6.44 3.5C6.71614 3.5 6.94 3.72386 6.94 4V15.3102C8.28358 15.5632 9.3 16.7429 9.3 18.16C9.3 19.5771 8.28358 20.7568 6.94 21.0098V27.12C6.94 27.3961 6.71614 27.62 6.44 27.62C6.16386 27.62 5.94 27.3961 5.94 27.12V21.0237C4.55698 20.8033 3.5 19.6051 3.5 18.16C3.5 16.7149 4.55698 15.5167 5.94 15.2963V4C5.94 3.72386 6.16386 3.5 6.44 3.5ZM4.5 18.16C4.5 17.1107 5.35066 16.26 6.4 16.26C7.44934 16.26 8.3 17.1107 8.3 18.16C8.3 19.2094 7.44934 20.06 6.4 20.06C5.35066 20.06 4.5 19.2094 4.5 18.16ZM21.79 18.16C21.79 19.6051 22.847 20.8033 24.23 21.0237V27.12C24.23 27.3962 24.4539 27.62 24.73 27.62C25.0062 27.62 25.23 27.3962 25.23 27.12V21.0098C26.5736 20.7568 27.59 19.5771 27.59 18.16C27.59 16.7429 26.5736 15.5632 25.23 15.3102V4C25.23 3.72386 25.0062 3.5 24.73 3.5C24.4539 3.5 24.23 3.72386 24.23 4V15.2963C22.847 15.5167 21.79 16.7149 21.79 18.16ZM24.69 16.26C23.6407 16.26 22.79 17.1107 22.79 18.16C22.79 19.2094 23.6407 20.06 24.69 20.06C25.7393 20.06 26.59 19.2094 26.59 18.16C26.59 17.1107 25.7393 16.26 24.69 16.26ZM15.08 14.9237V27.12C15.08 27.3962 15.3039 27.62 15.58 27.62C15.8561 27.62 16.08 27.3962 16.08 27.12V14.9098C17.4236 14.6568 18.44 13.4771 18.44 12.06C18.44 10.6429 17.4236 9.46322 16.08 9.21019V4C16.08 3.72386 15.8561 3.5 15.58 3.5C15.3039 3.5 15.08 3.72386 15.08 4V9.19628C13.697 9.4167 12.64 10.6149 12.64 12.06C12.64 13.5051 13.697 14.7033 15.08 14.9237ZM13.64 12.06C13.64 11.0107 14.4907 10.16 15.54 10.16C16.5893 10.16 17.44 11.0107 17.44 12.06C17.44 13.1093 16.5893 13.96 15.54 13.96C14.4907 13.96 13.64 13.1093 13.64 12.06Z" fill="#1D1D1B"/>
</svg>
