<svg width="32" height="32" viewBox="0 0 32 32" fill="none" xmlns="http://www.w3.org/2000/svg">
<path d="M18.98 12.32C20.48 11.46 21.5 9.85 21.5 8C21.5 5.24 19.26 3 16.5 3C13.74 3 11.5 5.24 11.5 8C11.5 9.85 12.52 11.45 14.02 12.32C9.98 13.42 7 17.14 7 21.56V27.5C7 28.33 7.67 29 8.5 29H24.5C25.33 29 26 28.33 26 27.5V21.56C26 17.14 23.02 13.42 18.98 12.32ZM12.5 8C12.5 5.79 14.29 4 16.5 4C18.71 4 20.5 5.79 20.5 8C20.5 10.15 18.8 11.89 16.67 11.98C16.61 11.98 16.56 11.97 16.5 11.97C16.44 11.97 16.39 11.98 16.33 11.98C14.2 11.89 12.5 10.15 12.5 8ZM25 27.5C25 27.78 24.78 28 24.5 28H8.5C8.22 28 8 27.78 8 27.5V21.56C8 16.89 11.72 13.08 16.33 12.99C16.39 12.99 16.44 13.01 16.5 13.01C16.56 13.01 16.61 12.99 16.67 12.99C21.28 13.08 25 16.89 25 21.56V27.5ZM13.51 21.16H16V22.56C15.99 23.25 15.75 23.83 15.28 24.29C14.81 24.75 14.22 24.99 13.5 25C12.95 24.99 12.49 24.86 12.12 24.6C11.75 24.36 11.47 24.08 11.3 23.76C11.25 23.66 11.2 23.56 11.16 23.46C11.12 23.36 11.09 23.24 11.06 23.09C11.02 22.82 11 22.29 11 21.5C11 20.7 11.02 20.16 11.07 19.89C11.12 19.62 11.2 19.4 11.31 19.23C11.48 18.91 11.75 18.63 12.13 18.38C12.5 18.13 12.96 18 13.51 17.99C14.19 18 14.74 18.19 15.16 18.58C15.59 18.97 15.85 19.45 15.97 20.03H14.84C14.75 19.75 14.6 19.51 14.37 19.32C14.13 19.13 13.84 19.04 13.5 19.03C13.25 19.04 13.03 19.08 12.86 19.18C12.68 19.27 12.53 19.39 12.42 19.54C12.28 19.69 12.19 19.88 12.15 20.11C12.1 20.36 12.07 20.82 12.07 21.5C12.07 22.18 12.1 22.64 12.15 22.88C12.19 23.12 12.29 23.31 12.42 23.46C12.53 23.6 12.68 23.72 12.86 23.81C13.04 23.91 13.25 23.97 13.51 23.97C13.92 23.97 14.27 23.83 14.54 23.55C14.81 23.28 14.95 22.94 14.95 22.5V22.14H13.52V21.16H13.51ZM17.02 18H21V18.8L18.06 24H21V25H17V24.12L19.84 18.94H17.02V18Z" fill="#202020"/>
</svg>
