<svg width="32" height="32" viewBox="0 0 32 32" fill="none" xmlns="http://www.w3.org/2000/svg">
<path d="M26.9404 13.4798C26.8704 13.2798 26.6904 13.1398 26.4804 13.1398L19.0404 12.8398L16.4604 5.81984C16.3204 5.42984 15.6704 5.42984 15.5204 5.81984L12.9404 12.8398L5.5004 13.1398C5.2904 13.1498 5.1104 13.2898 5.0404 13.4798C4.9804 13.6798 5.0404 13.8998 5.2004 14.0298L11.0504 18.6698L9.0304 25.8798C8.9704 26.0798 9.0504 26.2998 9.2204 26.4198C9.3104 26.4798 9.4104 26.5098 9.5104 26.5098C9.6104 26.5098 9.7004 26.4798 9.7904 26.4298L16.0004 22.2698L22.1904 26.4298C22.3604 26.5498 22.5904 26.5398 22.7604 26.4198C22.9304 26.2998 23.0104 26.0798 22.9504 25.8798L20.9304 18.6698L26.7704 14.0298C26.9404 13.8998 27.0104 13.6798 26.9404 13.4798ZM20.0504 18.0898C19.8904 18.2098 19.8204 18.4198 19.8804 18.6198L21.6204 24.8398L16.2804 21.2498C16.2004 21.1898 16.1004 21.1698 16.0004 21.1698C15.9004 21.1698 15.8104 21.1998 15.7204 21.2498L10.3804 24.8398L12.1204 18.6198C12.1704 18.4298 12.1104 18.2198 11.9504 18.0898L6.9004 14.0798L13.3304 13.8198C13.5304 13.8098 13.7104 13.6798 13.7804 13.4898L16.0004 7.43984L18.2304 13.4998C18.3004 13.6898 18.4804 13.8198 18.6804 13.8298L25.1004 14.0898L20.0504 18.0898Z" fill="white"/>
</svg>
