<svg width="32" height="32" viewBox="0 0 32 32" fill="none" xmlns="http://www.w3.org/2000/svg">
<path d="M16.91 20.69C21.65 20.69 25.5 16.84 25.5 12.1C25.5 7.36 21.64 3.5 16.91 3.5C12.17 3.5 8.32 7.35 8.32 12.09C8.32 16.83 12.17 20.69 16.91 20.69ZM16.91 4.5C21.1 4.5 24.5 7.91 24.5 12.09C24.5 16.27 21.09 19.68 16.91 19.68C12.72 19.68 9.32 16.27 9.32 12.09C9.32 7.91 12.72 4.5 16.91 4.5ZM24.46 19.26C24.65 19.46 24.64 19.78 24.44 19.97C22.66 21.67 20.4 22.71 17.98 22.94C17.98 22.96 17.99 22.98 17.99 22.99V26.99H21.99C22.27 26.99 22.49 27.21 22.49 27.49C22.49 27.77 22.28 28 22 28H13C12.72 28 12.5 27.78 12.5 27.5C12.5 27.22 12.72 27 13 27H17V23C16.97 23 16.94 23 16.91 23C10.89 23 6 18.11 6 12.09C6 9 7.32 6.03 9.63 3.96C9.84 3.78 10.16 3.8 10.34 4C10.52 4.21 10.51 4.52 10.3 4.71C8.2 6.59 7 9.28 7 12.09C7 17.56 11.44 22 16.91 22C19.48 22 21.91 21.02 23.76 19.25C23.96 19.06 24.27 19.06 24.46 19.26Z" fill="#202020"/>
</svg>
