<svg width="32" height="32" viewBox="0 0 32 32" fill="none" xmlns="http://www.w3.org/2000/svg">
<path d="M19.49 6.81C19.49 6.8 19.49 6.79 19.49 6.78C19.15 5.17 17.69 4 16.01 4C14.3 4 12.87 5.17 12.54 6.8C9.86 8.09 8 10.83 8 14V25.5C8 26.88 9.12 28 10.5 28H21.5C22.88 28 24 26.88 24 25.5V14C24 10.84 22.15 8.11 19.49 6.81ZM16.01 5C16.97 5 17.83 5.53 18.26 6.33C17.54 6.12 16.79 6 16 6C15.22 6 14.47 6.12 13.76 6.33C14.19 5.53 15.04 5 16.01 5ZM23 25.5C23 26.33 22.33 27 21.5 27H10.5C9.67 27 9 26.33 9 25.5V14C9 10.14 12.14 7 16 7C19.86 7 23 10.14 23 14V25.5ZM21 20.5C21 20.78 20.78 21 20.5 21H11.5C11.22 21 11 20.78 11 20.5C11 20.22 11.22 20 11.5 20H20.5C20.78 20 21 20.22 21 20.5Z" fill="#202020"/>
</svg>
