<svg width="32" height="32" viewBox="0 0 32 32" fill="none" xmlns="http://www.w3.org/2000/svg">
<path fill-rule="evenodd" clip-rule="evenodd" d="M4.87061 14.4621C4.8403 14.7869 4.8248 15.116 4.8248 15.4486L4.8248 17.5363C4.8248 17.9835 5.1962 18.3575 5.66095 18.3575H5.84786C6.31098 18.3575 6.68541 17.9845 6.69148 17.5338V14.7292C6.69148 14.282 6.32008 13.908 5.85534 13.908H5.66095C5.29299 13.908 4.98354 14.1425 4.87061 14.4621ZM5.06822 13.1917C5.25268 13.1216 5.45261 13.0832 5.66095 13.0832H5.85534C6.76624 13.0832 7.51629 13.8172 7.51629 14.7292V17.5408C7.5063 18.4484 6.75969 19.1823 5.84786 19.1823H5.66095C4.75005 19.1823 4 18.4483 4 17.5363V15.4486V14.7292C4 14.5798 4.02012 14.4352 4.05778 14.2978C4.64194 8.51228 9.58339 4 15.5821 4C21.4238 4 26.256 8.27221 27.0553 13.8387C27.0663 13.9158 27.0553 13.9909 27.0271 14.0577C27.1198 14.2626 27.1715 14.4898 27.1715 14.7292V17.5363C27.1715 18.0023 26.9757 18.4219 26.6626 18.7208C26.6637 18.765 26.6577 18.8101 26.6437 18.8546C25.4275 22.73 22.1807 25.7189 18.1437 26.6169C17.9699 27.4089 17.2538 28.0015 16.4108 28.0015C15.4401 28.0015 14.6377 27.2158 14.6377 26.2447C14.6377 25.2735 15.4401 24.4878 16.4108 24.4878C17.2193 24.4878 17.911 25.0328 18.1196 25.7761C21.5995 24.9479 24.4239 22.4425 25.6603 19.1757C25.611 19.1801 25.561 19.1823 25.5106 19.1823H25.3162C24.4053 19.1823 23.6553 18.4483 23.6553 17.5363V14.7292C23.6553 13.8172 24.4053 13.0832 25.3162 13.0832H25.5106C25.7176 13.0832 25.9163 13.1211 26.0998 13.1904C25.0467 8.40883 20.7427 4.8248 15.5821 4.8248C10.4224 4.8248 6.1159 8.41181 5.06822 13.1917ZM25.3162 13.908C24.8515 13.908 24.4801 14.282 24.4801 14.7292V17.5363C24.4801 17.9835 24.8515 18.3575 25.3162 18.3575H25.5106C25.9753 18.3575 26.3467 17.9835 26.3467 17.5363V14.7292C26.3467 14.282 25.9753 13.908 25.5106 13.908H25.3162ZM15.4625 26.2447C15.4625 25.7384 15.8862 25.3126 16.4108 25.3126C16.9353 25.3126 17.3591 25.7384 17.3591 26.2447C17.3591 26.7509 16.9353 27.1767 16.4108 27.1767C15.8862 27.1767 15.4625 26.7509 15.4625 26.2447Z" fill="white"/>
</svg>
