<svg width="32" height="32" viewBox="0 0 32 32" fill="none" xmlns="http://www.w3.org/2000/svg">
<path d="M16 4C9.38 4 4 9.38 4 16C4 22.62 9.38 28 16 28C22.62 28 28 22.62 28 16C28 9.38 22.62 4 16 4ZM16 27C9.93 27 5 22.07 5 16C5 9.93 9.93 5 16 5C22.07 5 27 9.93 27 16C27 22.07 22.07 27 16 27ZM19.98 12.48C19.98 13.13 19.77 13.77 19.38 14.32L16.81 17.58C16.61 17.9 16.49 18.29 16.49 18.71V20.94H15.49V18.71C15.49 18.11 15.66 17.52 15.99 17L18.57 13.72C18.82 13.36 18.97 12.92 18.97 12.48C18.97 11.11 17.63 9.99 15.99 9.99C14.34 9.99 13.01 11.11 13.01 12.48H12.01C12.01 10.55 13.8 8.99 15.99 8.99C18.18 8.99 19.98 10.55 19.98 12.48ZM16.52 22.5C16.52 22.78 16.3 23 16.02 23C15.74 23 15.52 22.78 15.52 22.5C15.52 22.22 15.74 22 16.02 22C16.29 22 16.52 22.22 16.52 22.5Z" fill="#202020"/>
</svg>
