<svg width="32" height="32" viewBox="0 0 32 32" fill="none" xmlns="http://www.w3.org/2000/svg">
<path d="M27 16.99C27 23.06 22.07 27.99 16 27.99C9.93 27.99 5 23.06 5 16.99C5 12.49 7.7 8.48001 11.87 6.79001C12.12 6.69001 12.42 6.81001 12.52 7.07001C12.62 7.33001 12.5 7.62001 12.24 7.72001C8.45 9.26001 6 12.9 6 16.99C6 22.5 10.49 26.99 16 26.99C21.51 26.99 26 22.5 26 16.99C26 11.48 21.51 6.99001 16 6.99001C15.99 6.99001 15.98 6.98001 15.97 6.98001L17.04 8.25001C17.22 8.46001 17.19 8.78001 16.98 8.95001C16.89 9.03001 16.77 9.07001 16.66 9.07001C16.52 9.07001 16.38 9.01001 16.28 8.89001L14.46 6.72001C14.37 6.62001 14.33 6.49001 14.34 6.36001C14.35 6.23001 14.42 6.11001 14.52 6.02001L16.69 4.20001C16.9 4.02001 17.22 4.05001 17.39 4.26001C17.57 4.47001 17.54 4.79001 17.33 4.96001L16.11 6.00001C22.12 6.05001 27 10.96 27 16.99ZM15.95 11C19.26 11 21.95 13.69 21.95 17C21.95 20.31 19.26 23 15.95 23C12.64 23 9.95 20.31 9.95 17C9.95 13.69 12.64 11 15.95 11ZM10.95 17C10.95 19.76 13.19 22 15.95 22C18.71 22 20.95 19.76 20.95 17C20.95 14.24 18.71 12 15.95 12C13.19 12 10.95 14.24 10.95 17ZM17.17 18.89C17.27 18.98 17.39 19.02 17.51 19.02C17.64 19.02 17.78 18.97 17.88 18.86C18.07 18.66 18.05 18.34 17.85 18.15L16.36 16.77V13.92C16.36 13.64 16.14 13.42 15.86 13.42C15.58 13.42 15.36 13.64 15.36 13.92V17C15.36 17.14 15.42 17.27 15.52 17.37L17.17 18.89Z" fill="white"/>
</svg>
