<svg width="32" height="32" viewBox="0 0 32 32" fill="none" xmlns="http://www.w3.org/2000/svg">
<path d="M26.5 27H24V5.46C24 4.65 23.32 4 22.5 4H9.5C8.67 4 8 4.65 8 5.46V27H5.5C5.22 27 5 27.22 5 27.5C5 27.78 5.22 28 5.5 28H26.5C26.78 28 27 27.78 27 27.5C27 27.22 26.78 27 26.5 27ZM17 27H15V24.46C15 24.21 15.22 24 15.5 24H16.5C16.78 24 17 24.21 17 24.46V27ZM9 5.46C9 5.21 9.22 5 9.5 5H22.5C22.77 5 23 5.21 23 5.46V27H18V24.46C18 23.66 17.33 23 16.5 23H15.5C14.67 23 14 23.66 14 24.46V27H9V5.46ZM11 7.5C11 7.22 11.22 7 11.5 7H20.5C20.78 7 21 7.22 21 7.5C21 7.78 20.78 8 20.5 8H11.5C11.22 8 11 7.78 11 7.5ZM11 10.5C11 10.22 11.22 10 11.5 10H20.5C20.78 10 21 10.22 21 10.5C21 10.78 20.78 11 20.5 11H11.5C11.22 11 11 10.78 11 10.5ZM11 13.5C11 13.22 11.22 13 11.5 13H20.5C20.78 13 21 13.22 21 13.5C21 13.78 20.78 14 20.5 14H11.5C11.22 14 11 13.78 11 13.5ZM11 16.5C11 16.22 11.22 16 11.5 16H20.5C20.78 16 21 16.22 21 16.5C21 16.78 20.78 17 20.5 17H11.5C11.22 17 11 16.78 11 16.5ZM11.5 20C11.22 20 11 19.78 11 19.5C11 19.22 11.22 19 11.5 19H20.5C20.78 19 21 19.22 21 19.5C21 19.78 20.78 20 20.5 20H11.5Z" fill="white"/>
</svg>
