<svg width="32" height="32" viewBox="0 0 32 32" fill="none" xmlns="http://www.w3.org/2000/svg">
<path d="M27.5 5H4.5C3.67 5 3 5.67 3 6.5V21.5C3 22.33 3.67 23 4.5 23H14V25H11.5C11.22 25 11 25.22 11 25.5C11 25.78 11.22 26 11.5 26H20.5C20.78 26 21 25.78 21 25.5C21 25.22 20.78 25 20.5 25H18V23H27.5C28.33 23 29 22.33 29 21.5V6.5C29 5.67 28.33 5 27.5 5ZM4 8H28V20H4V8ZM4.5 6H27.5C27.78 6 28 6.22 28 6.5V7H4V6.5C4 6.22 4.22 6 4.5 6ZM17 25H15V23H17V25ZM27.5 22H4.5C4.22 22 4 21.78 4 21.5V21H28V21.5C28 21.78 27.78 22 27.5 22ZM10.5 11H11.5V17H10.5V11ZM13.42 12.81C13.38 13.02 13.36 13.42 13.36 14C13.36 14.58 13.38 14.98 13.42 15.18C13.46 15.39 13.53 15.55 13.64 15.68C13.73 15.8 13.85 15.9 14 15.98C14.14 16.07 14.32 16.11 14.52 16.11C15 16.11 15.36 15.84 15.6 15.3H16.51C16.39 15.85 16.15 16.27 15.8 16.56C15.43 16.85 15.01 17 14.52 17C14.08 16.99 13.71 16.88 13.41 16.66C13.11 16.45 12.89 16.21 12.75 15.94C12.71 15.85 12.67 15.77 12.64 15.68C12.61 15.6 12.58 15.49 12.56 15.36C12.52 15.12 12.5 14.67 12.5 13.99C12.5 13.3 12.52 12.85 12.56 12.61C12.6 12.38 12.66 12.19 12.75 12.05C12.89 11.78 13.11 11.53 13.41 11.32C13.71 11.1 14.08 10.99 14.52 10.99C15.06 11 15.51 11.16 15.85 11.5C16.19 11.83 16.41 12.25 16.5 12.74H15.59C15.52 12.5 15.39 12.3 15.21 12.13C15.02 11.97 14.79 11.89 14.51 11.88C14.31 11.89 14.13 11.93 13.99 12.01C13.84 12.09 13.72 12.19 13.63 12.31C13.53 12.45 13.45 12.61 13.42 12.81ZM21.5 13.7V14.9C21.49 15.49 21.3 15.98 20.92 16.38C20.54 16.78 20.07 16.98 19.5 16.99C19.06 16.98 18.69 16.87 18.4 16.65C18.1 16.44 17.88 16.2 17.75 15.93C17.71 15.84 17.67 15.76 17.64 15.67C17.61 15.59 17.58 15.48 17.56 15.35C17.52 15.11 17.5 14.66 17.5 13.98C17.5 13.29 17.52 12.84 17.56 12.6C17.6 12.37 17.66 12.18 17.75 12.04C17.89 11.77 18.1 11.52 18.4 11.31C18.69 11.09 19.06 10.98 19.5 10.98C20.04 10.99 20.48 11.15 20.82 11.49C21.16 11.82 21.38 12.24 21.47 12.73H20.57C20.5 12.49 20.37 12.29 20.19 12.12C20 11.96 19.77 11.88 19.5 11.87C19.3 11.88 19.13 11.92 18.98 12C18.83 12.08 18.72 12.18 18.63 12.3C18.52 12.43 18.45 12.59 18.41 12.79C18.37 13 18.35 13.4 18.35 13.98C18.35 14.56 18.37 14.96 18.41 15.16C18.45 15.37 18.52 15.53 18.63 15.66C18.72 15.78 18.84 15.88 18.98 15.96C19.12 16.05 19.3 16.09 19.5 16.09C19.83 16.09 20.1 15.97 20.32 15.73C20.53 15.5 20.65 15.2 20.65 14.83V14.52H19.51V13.7H21.5Z" fill="white"/>
</svg>
