<svg width="32" height="32" viewBox="0 0 32 32" fill="none" xmlns="http://www.w3.org/2000/svg">
<path d="M16.5 13V22.5C16.5 22.78 16.28 23 16 23C15.72 23 15.5 22.78 15.5 22.5V13C15.5 12.72 15.72 12.5 16 12.5C16.28 12.5 16.5 12.72 16.5 13ZM16 9C15.72 9 15.5 9.22 15.5 9.5V10.5C15.5 10.78 15.72 11 16 11C16.28 11 16.5 10.78 16.5 10.5V9.5C16.5 9.22 16.28 9 16 9ZM28 16C28 22.62 22.62 28 16 28C9.38 28 4 22.62 4 16C4 9.38 9.38 4 16 4C22.62 4 28 9.38 28 16ZM27 16C27 9.93 22.07 5 16 5C9.93 5 5 9.93 5 16C5 22.07 9.93 27 16 27C22.07 27 27 22.07 27 16Z" fill="#202020"/>
</svg>
