<svg width="32" height="32" viewBox="0 0 32 32" fill="none" xmlns="http://www.w3.org/2000/svg">
<path d="M17.9305 9.37C18.7505 8.76 19.2905 7.79 19.2905 6.69C19.2905 6.2 19.1905 5.73 18.9905 5.3C18.9105 5.11 18.7105 5 18.5305 5L13.4205 5.08C13.2205 5.08 13.0405 5.2 12.9705 5.39C12.8005 5.8 12.7105 6.23 12.7105 6.68C12.7105 7.78 13.2505 8.76 14.0705 9.36C9.68047 10.87 6.28047 17.39 6.00047 25.43C5.99047 25.82 6.14047 26.2 6.42047 26.5C6.73047 26.82 7.17047 27 7.63047 27H24.3805C24.8405 27 25.2805 26.82 25.5905 26.5C25.8705 26.21 26.0205 25.83 26.0105 25.43C25.7205 17.39 22.3205 10.87 17.9305 9.37ZM13.7805 6.08L18.1905 6.01C18.2605 6.23 18.2905 6.46 18.2905 6.69C18.2905 7.97 17.2605 9.02 16.0005 9.02C14.7405 9.02 13.7105 7.98 13.7105 6.69C13.7105 6.48 13.7305 6.28 13.7805 6.08ZM24.8605 25.8C24.7405 25.93 24.5605 26 24.3705 26H7.63047C7.44047 26 7.26047 25.93 7.14047 25.8C7.07047 25.73 7.00047 25.62 7.00047 25.47C7.30047 16.82 11.2505 10.05 16.0005 10.05C20.7505 10.05 24.7005 16.82 25.0005 25.47C25.0005 25.62 24.9305 25.73 24.8605 25.8ZM15.0005 15.19V17.5H16.5005C16.7805 17.5 17.0005 17.72 17.0005 18C17.0005 18.28 16.7805 18.5 16.5005 18.5H15.0005V22H18.5005C18.7805 22 19.0005 22.22 19.0005 22.5C19.0005 22.78 18.7805 23 18.5005 23H14.0005V15.19C14.0005 13.98 15.1205 13 16.5005 13C17.8805 13 19.0005 13.98 19.0005 15.19C19.0005 15.47 18.7805 15.69 18.5005 15.69C18.2205 15.69 18.0005 15.47 18.0005 15.19C18.0005 14.54 17.3305 14 16.5005 14C15.6705 14 15.0005 14.53 15.0005 15.19Z" fill="#202020"/>
</svg>
