<svg width="32" height="32" viewBox="0 0 32 32" fill="none" xmlns="http://www.w3.org/2000/svg">
<path d="M8.5004 14.0008C7.6704 14.0008 7.0004 14.6708 7.0004 15.5008C7.0004 16.3308 7.6704 17.0008 8.5004 17.0008C9.3304 17.0008 10.0004 16.3308 10.0004 15.5008C10.0004 14.6708 9.3304 14.0008 8.5004 14.0008ZM8.5004 16.0008C8.2204 16.0008 8.0004 15.7808 8.0004 15.5008C8.0004 15.2208 8.2204 15.0008 8.5004 15.0008C8.7804 15.0008 9.0004 15.2208 9.0004 15.5008C9.0004 15.7808 8.7804 16.0008 8.5004 16.0008ZM27.2804 14.9408L25.0004 13.1008C24.9204 13.0408 24.8304 13.0008 24.7204 13.0008H15.4404C14.5304 11.2508 12.7304 10.0508 10.6204 10.0508C6.8604 10.0508 3.9804 13.8708 5.6504 17.8308C6.1804 19.0308 7.1704 20.0008 8.3904 20.5008C9.1604 20.8108 9.9104 20.9608 10.6404 20.9608C12.7404 20.9608 14.5404 19.7508 15.4504 18.0108H18.3804C18.4804 18.0108 18.5804 17.9708 18.6604 17.9108L19.7404 17.0108L20.8104 17.9008C20.8904 17.9708 21.0004 18.0108 21.1004 18.0108C21.2004 18.0108 21.3104 17.9708 21.3904 17.9008L22.4504 17.0008L23.5304 17.9008C23.6104 17.9708 23.7104 18.0008 23.8104 18.0008C23.9004 18.0008 23.9904 17.9708 24.0604 17.9208L27.2504 15.6608C27.3704 15.5808 27.4404 15.4508 27.4404 15.3008C27.4604 15.1608 27.3904 15.0308 27.2804 14.9408ZM23.8404 16.8608L23.0904 16.2308L22.4504 15.7008L21.8104 16.2308L21.0904 16.8308L20.3704 16.2308L19.7304 15.7008L19.0904 16.2308L18.1604 17.0008H15.4404H14.8304L14.5504 17.5408C13.7704 19.0308 12.2704 19.9608 10.6304 19.9608C10.0104 19.9608 9.3804 19.8308 8.7604 19.5808C7.7804 19.1808 6.9904 18.4008 6.5804 17.4408C5.9404 15.9308 6.0604 14.3308 6.9104 13.0508C7.7404 11.8008 9.1304 11.0508 10.6304 11.0508C12.2804 11.0508 13.7804 11.9808 14.5604 13.4708L14.8404 14.0008H15.4504H24.5304L26.0904 15.2608L23.8404 16.8608Z" fill="#202020"/>
</svg>
