<svg width="32" height="32" viewBox="0 0 32 32" fill="none" xmlns="http://www.w3.org/2000/svg">
<path d="M26.5 8H5.5C4.67 8 4 8.67 4 9.5V22.5C4 23.33 4.67 24 5.5 24H26.5C27.33 24 28 23.33 28 22.5V9.5C28 8.67 27.33 8 26.5 8ZM27 22.5C27 22.78 26.78 23 26.5 23H5.5C5.22 23 5 22.78 5 22.5V9.5C5 9.22 5.22 9 5.5 9H26.5C26.78 9 27 9.22 27 9.5V22.5ZM7 11.5C7 11.22 7.22 11 7.5 11H9.5C9.78 11 10 11.22 10 11.5C10 11.78 9.78 12 9.5 12H7.5C7.22 12 7 11.78 7 11.5ZM12 11.5C12 11.22 12.22 11 12.5 11H14.5C14.78 11 15 11.22 15 11.5C15 11.78 14.78 12 14.5 12H12.5C12.22 12 12 11.78 12 11.5ZM17 11.5C17 11.22 17.22 11 17.5 11H19.5C19.78 11 20 11.22 20 11.5C20 11.78 19.78 12 19.5 12H17.5C17.22 12 17 11.78 17 11.5ZM25 11.5C25 11.78 24.78 12 24.5 12H22.5C22.22 12 22 11.78 22 11.5C22 11.22 22.22 11 22.5 11H24.5C24.78 11 25 11.22 25 11.5ZM7 14.5C7 14.22 7.22 14 7.5 14H9.5C9.78 14 10 14.22 10 14.5C10 14.78 9.78 15 9.5 15H7.5C7.22 15 7 14.78 7 14.5ZM12 14.5C12 14.22 12.22 14 12.5 14H14.5C14.78 14 15 14.22 15 14.5C15 14.78 14.78 15 14.5 15H12.5C12.22 15 12 14.78 12 14.5ZM17 14.5C17 14.22 17.22 14 17.5 14H19.5C19.78 14 20 14.22 20 14.5C20 14.78 19.78 15 19.5 15H17.5C17.22 15 17 14.78 17 14.5ZM25 14.5C25 14.78 24.78 15 24.5 15H22.5C22.22 15 22 14.78 22 14.5C22 14.22 22.22 14 22.5 14H24.5C24.78 14 25 14.22 25 14.5ZM9.5 18H7.5C7.22 18 7 17.78 7 17.5C7 17.22 7.22 17 7.5 17H9.5C9.78 17 10 17.22 10 17.5C10 17.78 9.78 18 9.5 18ZM12 17.5C12 17.22 12.22 17 12.5 17H14.5C14.78 17 15 17.22 15 17.5C15 17.78 14.78 18 14.5 18H12.5C12.22 18 12 17.78 12 17.5ZM17 17.5C17 17.22 17.22 17 17.5 17H19.5C19.78 17 20 17.22 20 17.5C20 17.78 19.78 18 19.5 18H17.5C17.22 18 17 17.78 17 17.5ZM23.5 20.5C23.5 20.78 23.28 21 23 21H9C8.72 21 8.5 20.78 8.5 20.5C8.5 20.22 8.72 20 9 20H23C23.28 20 23.5 20.22 23.5 20.5ZM25 17.5C25 17.78 24.78 18 24.5 18H22.5C22.22 18 22 17.78 22 17.5C22 17.22 22.22 17 22.5 17H24.5C24.78 17 25 17.22 25 17.5Z" fill="#202020"/>
</svg>
