<svg width="32" height="32" viewBox="0 0 32 32" fill="none" xmlns="http://www.w3.org/2000/svg">
<path d="M22.5 4H9.5C8.67 4 8 4.67 8 5.5V27.5C8 27.78 8.22 28 8.5 28H23.5C23.78 28 24 27.78 24 27.5V5.5C24 4.67 23.33 4 22.5 4ZM23 27H9V5.5C9 5.22 9.22 5 9.5 5H22.5C22.78 5 23 5.22 23 5.5V27ZM20.5 7H11.5C11.22 7 11 7.22 11 7.5V15.5C11 15.78 11.22 16 11.5 16H20.5C20.78 16 21 15.78 21 15.5V7.5C21 7.22 20.78 7 20.5 7ZM20 15H12V8H20V15ZM21 18.5C21 18.78 20.78 19 20.5 19H14.5C14.22 19 14 18.78 14 18.5C14 18.22 14.22 18 14.5 18H20.5C20.78 18 21 18.22 21 18.5ZM21 21.5C21 21.78 20.78 22 20.5 22H18.5C18.22 22 18 21.78 18 21.5C18 21.22 18.22 21 18.5 21H20.5C20.78 21 21 21.22 21 21.5ZM21 24.5C21 24.78 20.78 25 20.5 25H18.5C18.22 25 18 24.78 18 24.5C18 24.22 18.22 24 18.5 24H20.5C20.78 24 21 24.22 21 24.5ZM17 21.5C17 21.78 16.78 22 16.5 22H14.5C14.22 22 14 21.78 14 21.5C14 21.22 14.22 21 14.5 21H16.5C16.78 21 17 21.22 17 21.5ZM17 24.5C17 24.78 16.78 25 16.5 25H14.5C14.22 25 14 24.78 14 24.5C14 24.22 14.22 24 14.5 24H16.5C16.78 24 17 24.22 17 24.5Z" fill="white"/>
</svg>
