<svg width="32" height="32" viewBox="0 0 32 32" fill="none" xmlns="http://www.w3.org/2000/svg">
<path d="M29.5 21H28V7.5C28 6.67 27.33 6 26.5 6H5.5C4.67 6 4 6.67 4 7.5V21H2.5C2.22 21 2 21.22 2 21.5V22.5C2 23.88 3.12 25 4.5 25H27.5C28.88 25 30 23.88 30 22.5V21.5C30 21.22 29.78 21 29.5 21ZM5 7.5C5 7.22 5.22 7 5.5 7H26.5C26.78 7 27 7.22 27 7.5V21H5V7.5ZM29 22.5C29 23.33 28.33 24 27.5 24H4.5C3.67 24 3 23.33 3 22.5V22H4.5H27.5H29V22.5ZM25.5 8H6.5C6.22 8 6 8.22 6 8.5V19.5C6 19.78 6.22 20 6.5 20H25.5C25.78 20 26 19.78 26 19.5V8.5C26 8.22 25.78 8 25.5 8ZM25 19H7V9H25V19ZM18 23C18 23.28 17.78 23.5 17.5 23.5H13.5C13.22 23.5 13 23.28 13 23C13 22.72 13.22 22.5 13.5 22.5H17.5C17.78 22.5 18 22.72 18 23Z" fill="white"/>
</svg>
