<svg width="32" height="32" viewBox="0 0 32 32" fill="none" xmlns="http://www.w3.org/2000/svg">
<path d="M7.15 20.85C6.95 20.65 6.95 20.34 7.15 20.14L13.65 13.64C13.85 13.44 14.16 13.44 14.36 13.64L16 15.29L24.29 7H23.51C23.23 7 23.01 6.78 23.01 6.5C23.01 6.22 23.23 6 23.51 6L25.51 5.99C25.66 5.97 25.77 6.04 25.87 6.14C25.94 6.24 26 6.37 26 6.5V8.5C26 8.78 25.78 9 25.5 9C25.22 9 25 8.78 25 8.5V7.71L16.36 16.35C16.16 16.55 15.85 16.55 15.65 16.35L14 14.71L7.85 20.86C7.76 20.95 7.63 21 7.5 21C7.37 21 7.24 20.95 7.15 20.85ZM27.5 27H5V4.5C5 4.22 4.78 4 4.5 4C4.22 4 4 4.22 4 4.5V27.5C4 27.78 4.22 28 4.5 28H27.5C27.78 28 28 27.78 28 27.5C28 27.22 27.78 27 27.5 27Z" fill="#202020"/>
</svg>
