<svg width="32" height="32" viewBox="0 0 32 32" fill="none" xmlns="http://www.w3.org/2000/svg">
<path d="M28 4.5V10.5C28 10.78 27.78 11 27.5 11C27.22 11 27 10.78 27 10.5V5.71L11.35 21.35C11.25 21.45 11.12 21.5 11 21.5C10.88 21.5 10.74 21.45 10.65 21.35C10.45 21.15 10.45 20.84 10.65 20.64L26.29 5H21.5C21.22 5 21 4.78 21 4.5C21 4.22 21.22 4 21.5 4H27.5C27.57 4 27.63 4.01 27.69 4.04C27.81 4.09 27.91 4.19 27.96 4.31C27.99 4.37 28 4.43 28 4.5ZM24.5 16.4C24.22 16.4 24 16.62 24 16.9V27H5V8H15.04C15.32 8 15.54 7.78 15.54 7.5C15.54 7.22 15.31 7 15.04 7H4.5C4.22 7 4 7.22 4 7.5V27.5C4 27.78 4.22 28 4.5 28H24.5C24.78 28 25 27.78 25 27.5V16.9C25 16.62 24.78 16.4 24.5 16.4Z" fill="#202020"/>
</svg>
