<svg width="32" height="32" viewBox="0 0 32 32" fill="none" xmlns="http://www.w3.org/2000/svg">
<circle cx="16" cy="16" r="16" fill="white"/>
<path d="M13.8424 22.9973C13.8242 22.9655 13.8274 22.9302 13.8274 22.8956C13.8276 22.7365 13.8271 22.5772 13.8291 22.4181C13.8478 20.9262 13.8351 19.4341 13.8425 17.9421C13.8452 17.4175 13.8509 16.8928 13.8499 16.3682C13.8481 15.4954 13.8418 14.6226 13.8374 13.7498C13.8372 13.7324 13.8372 13.715 13.8362 13.6976C13.8272 13.5469 13.8272 13.5469 13.9751 13.5469C14.8963 13.5469 15.8175 13.5469 16.7387 13.5469C16.8459 13.5469 16.8462 13.5471 16.8462 13.6567C16.8464 14.0247 16.8461 14.3929 16.8467 14.7609C16.8467 14.787 16.8392 14.8146 16.8571 14.8466C16.9498 14.7067 17.0418 14.572 17.1428 14.4441C17.6286 13.8283 18.2514 13.4719 19.0067 13.3655C19.6722 13.2718 20.3226 13.333 20.9481 13.5961C21.7231 13.922 22.258 14.5082 22.5973 15.2967C22.8151 15.8027 22.9274 16.3374 22.9751 16.8883C22.9822 16.9698 22.9907 17.051 22.9987 17.1324C22.9987 19.0651 22.9984 20.9977 22.9999 22.9303C22.9999 22.9863 22.9879 22.999 22.9344 22.999C21.9559 22.997 20.9774 22.9975 19.9989 22.9975C19.9972 22.9578 19.9942 22.9181 19.9942 22.8784C19.9939 21.4781 19.9948 20.0778 19.9935 18.6775C19.9932 18.3493 20.0009 18.0211 19.9836 17.693C19.9696 17.4263 19.9384 17.163 19.8632 16.9075C19.7395 16.4874 19.5261 16.1385 19.1273 15.9502C18.8225 15.8062 18.4995 15.7839 18.176 15.8475C17.4964 15.9812 16.9691 16.5716 16.8718 17.2911C16.8518 17.4388 16.8461 17.5878 16.8461 17.7372C16.8465 19.4483 16.8464 21.1595 16.8462 22.8706C16.8462 22.9129 16.8435 22.9551 16.8421 22.9972C15.8422 22.9973 14.8423 22.9973 13.8424 22.9973Z" fill="#202020"/>
<path d="M9.17166 22.997C9.1708 22.9573 9.16909 22.9175 9.16909 22.8778C9.16895 19.8136 9.16895 16.7495 9.16895 13.6853C9.16895 13.6729 9.16895 13.6604 9.16895 13.648C9.16966 13.5492 9.17123 13.547 9.26451 13.547C10.2073 13.5468 11.1499 13.5468 12.0927 13.547C12.1861 13.547 12.1882 13.5492 12.1882 13.648C12.1884 16.7395 12.1884 19.8311 12.1882 22.9226C12.1882 22.9473 12.1865 22.9722 12.1857 22.997C11.181 22.997 10.1763 22.997 9.17166 22.997Z" fill="#202020"/>
<path d="M10.7713 9C10.9174 9.01776 11.0638 9.02985 11.2077 9.06716C11.8769 9.24117 12.3303 9.81185 12.3771 10.5295C12.4334 11.3909 11.8929 12.0955 11.0585 12.2422C10.6717 12.3102 10.289 12.2935 9.92392 12.1276C9.41039 11.8942 9.10999 11.4829 9.01128 10.9086C9.008 10.8892 9.00371 10.8698 9 10.8505C9 10.7062 9 10.5621 9 10.4178C9.026 10.3097 9.03971 10.1987 9.07671 10.0935C9.27755 9.52188 9.67951 9.19625 10.2343 9.05537C10.364 9.02239 10.4969 9.01657 10.6284 9C10.676 9 10.7237 9 10.7713 9Z" fill="#202020"/>
</svg>
