<svg width="32" height="32" viewBox="0 0 32 32" fill="none" xmlns="http://www.w3.org/2000/svg">
<path d="M16.5 6V10.5C16.5 10.78 16.28 11 16 11C15.72 11 15.5 10.78 15.5 10.5V6C15.5 5.72 15.72 5.5 16 5.5C16.28 5.5 16.5 5.72 16.5 6ZM16 21C15.72 21 15.5 21.22 15.5 21.5V26C15.5 26.28 15.72 26.5 16 26.5C16.28 26.5 16.5 26.28 16.5 26V21.5C16.5 21.22 16.28 21 16 21ZM9.28 8.58C9.08 8.38 8.77 8.38 8.57 8.58C8.37 8.78 8.37 9.09 8.57 9.29L11.75 12.47C11.85 12.57 11.98 12.62 12.1 12.62C12.22 12.62 12.36 12.57 12.45 12.47C12.65 12.27 12.65 11.96 12.45 11.76L9.28 8.58ZM20.24 19.54C20.04 19.34 19.73 19.34 19.53 19.54C19.33 19.74 19.33 20.05 19.53 20.25L22.71 23.43C22.81 23.53 22.94 23.58 23.06 23.58C23.18 23.58 23.32 23.53 23.41 23.43C23.61 23.23 23.61 22.92 23.41 22.72L20.24 19.54ZM19.89 12.61C20.02 12.61 20.15 12.56 20.24 12.46L23.42 9.28C23.62 9.08 23.62 8.77 23.42 8.57C23.22 8.37 22.91 8.37 22.71 8.57L19.53 11.75C19.33 11.95 19.33 12.26 19.53 12.46C19.63 12.56 19.76 12.61 19.89 12.61ZM11.76 19.54L8.58 22.72C8.38 22.92 8.38 23.23 8.58 23.43C8.68 23.53 8.81 23.58 8.93 23.58C9.05 23.58 9.19 23.53 9.28 23.43L12.46 20.25C12.66 20.05 12.66 19.74 12.46 19.54C12.26 19.34 11.95 19.34 11.76 19.54ZM11 16C11 15.72 10.78 15.5 10.5 15.5H6C5.72 15.5 5.5 15.72 5.5 16C5.5 16.28 5.72 16.5 6 16.5H10.5C10.78 16.5 11 16.28 11 16ZM26 15.5H21.5C21.22 15.5 21 15.72 21 16C21 16.28 21.22 16.5 21.5 16.5H26C26.28 16.5 26.5 16.28 26.5 16C26.5 15.72 26.28 15.5 26 15.5Z" fill="white"/>
</svg>
