<svg width="32" height="32" viewBox="0 0 32 32" fill="none" xmlns="http://www.w3.org/2000/svg">
<path d="M22.5 13H21V9C21 6.24 18.76 4 16 4C13.24 4 11 6.24 11 9V13H9.5C8.67 13 8 13.67 8 14.5V26.5C8 27.33 8.67 28 9.5 28H22.5C23.33 28 24 27.33 24 26.5V14.5C24 13.67 23.33 13 22.5 13ZM12 9C12 6.79 13.79 5 16 5C18.21 5 20 6.79 20 9V13H12V9ZM23 26.5C23 26.78 22.78 27 22.5 27H9.5C9.22 27 9 26.78 9 26.5V14.5C9 14.22 9.22 14 9.5 14H11.47C11.48 14 11.49 14.01 11.5 14.01C11.51 14.01 11.52 14 11.53 14H22.5C22.78 14 23 14.22 23 14.5V26.5ZM16.5 18.5V22.5C16.5 22.78 16.28 23 16 23C15.72 23 15.5 22.78 15.5 22.5V18.5C15.5 18.22 15.72 18 16 18C16.28 18 16.5 18.22 16.5 18.5Z" fill="white"/>
</svg>
