<svg width="32" height="32" viewBox="0 0 32 32" fill="none" xmlns="http://www.w3.org/2000/svg">
<path d="M26.5 10H16.96C16.81 10 16.68 9.94 16.52 9.76L13.73 7.52C13.44 7.19 13.03 7 12.59 7H5.5C4.67 7 4 7.67 4 8.5V23.5C4 24.33 4.67 25 5.5 25H26.5C27.33 25 28 24.33 28 23.5V11.5C28 10.67 27.33 10 26.5 10ZM27 23.5C27 23.78 26.78 24 26.5 24H5.5C5.22 24 5 23.78 5 23.5V8.5C5 8.22 5.22 8 5.5 8H12.59C12.74 8 12.87 8.06 13.03 8.24L15.82 10.48C16.1 10.81 16.52 11 16.96 11H26.5C26.78 11 27 11.22 27 11.5V23.5ZM20 17.5C20 17.57 19.99 17.63 19.96 17.69C19.93 17.75 19.9 17.81 19.85 17.85L17.4 20.26C17.3 20.36 17.18 20.4 17.05 20.4C16.92 20.4 16.79 20.35 16.69 20.25C16.5 20.05 16.5 19.74 16.7 19.54L18.28 18H11.5C11.22 18 11 17.78 11 17.5C11 17.22 11.22 17 11.5 17H18.28L16.74 15.49C16.54 15.3 16.54 14.98 16.73 14.78C16.92 14.58 17.24 14.58 17.44 14.77L19.85 17.14C19.9 17.19 19.93 17.24 19.96 17.3C19.99 17.37 20 17.43 20 17.5Z" fill="#202020"/>
</svg>
