<svg width="32" height="32" viewBox="0 0 32 32" fill="none" xmlns="http://www.w3.org/2000/svg">
<path d="M27.5 5H4.5C3.67 5 3 5.67 3 6.5V21.5C3 22.33 3.67 23 4.5 23H14V25H11.5C11.22 25 11 25.22 11 25.5C11 25.78 11.22 26 11.5 26H20.5C20.78 26 21 25.78 21 25.5C21 25.22 20.78 25 20.5 25H18V23H27.5C28.33 23 29 22.33 29 21.5V6.5C29 5.67 28.33 5 27.5 5ZM4 8H28V20H4V8ZM4.5 6H27.5C27.78 6 28 6.22 28 6.5V7H4V6.5C4 6.22 4.22 6 4.5 6ZM17 25H15V23H17V25ZM27.5 22H4.5C4.22 22 4 21.78 4 21.5V21H28V21.5C28 21.78 27.78 22 27.5 22ZM12.16 11H13V17H12.11V13.26H12.09L10.86 16.14H10.12L8.9 13.26H8.89V17H8V11H8.84L10.52 14.91L12.16 11ZM16.13 11L14 17H14.94L15.39 15.66H17.61L18.06 17H19L16.87 11H16.13ZM15.65 14.85L16.5 12.23H16.52L17.37 14.85H15.65ZM23.5 15.28C23.47 16.41 22.83 16.98 21.58 17C20.77 17 20.08 16.73 19.5 16.19L20.04 15.52C20.47 15.91 20.99 16.1 21.59 16.11C22.3 16.1 22.66 15.82 22.67 15.29C22.67 14.85 22.44 14.59 21.96 14.5C21.74 14.47 21.5 14.43 21.24 14.39C20.77 14.31 20.41 14.12 20.17 13.83C19.92 13.53 19.79 13.17 19.79 12.74C19.79 12.22 19.95 11.81 20.27 11.49C20.58 11.18 21.01 11.02 21.58 11.01C22.26 11.03 22.85 11.23 23.35 11.62L22.89 12.35C22.48 12.06 22.03 11.91 21.54 11.9C21.29 11.9 21.07 11.97 20.9 12.11C20.72 12.25 20.63 12.47 20.63 12.75C20.63 12.92 20.69 13.07 20.81 13.21C20.93 13.35 21.13 13.45 21.4 13.5C21.55 13.53 21.75 13.56 22.01 13.59C22.52 13.67 22.9 13.86 23.15 14.19C23.38 14.5 23.5 14.86 23.5 15.28Z" fill="#202020"/>
</svg>
