<svg width="32" height="32" viewBox="0 0 32 32" fill="none" xmlns="http://www.w3.org/2000/svg">
<path d="M25.5 4H6.5C5.12 4 4 5.12 4 6.5V25.5C4 26.88 5.12 28 6.5 28H25.5C26.88 28 28 26.88 28 25.5V6.5C28 5.12 26.88 4 25.5 4ZM27 25.5C27 26.33 26.33 27 25.5 27H6.5C5.67 27 5 26.33 5 25.5V6.5C5 5.67 5.67 5 6.5 5H25.5C26.33 5 27 5.67 27 6.5V25.5ZM20.95 11.76L16.71 16L20.95 20.24C21.15 20.44 21.15 20.75 20.95 20.95C20.85 21.05 20.72 21.1 20.6 21.1C20.48 21.1 20.34 21.05 20.25 20.95L16 16.71L11.76 20.95C11.66 21.05 11.53 21.1 11.41 21.1C11.29 21.1 11.15 21.05 11.06 20.95C10.86 20.75 10.86 20.44 11.06 20.24L15.29 16L11.05 11.76C10.85 11.56 10.85 11.25 11.05 11.05C11.25 10.85 11.56 10.85 11.76 11.05L16 15.29L20.24 11.05C20.44 10.85 20.75 10.85 20.95 11.05C21.15 11.25 21.15 11.56 20.95 11.76Z" fill="#202020"/>
</svg>
