<svg width="32" height="32" viewBox="0 0 32 32" fill="none" xmlns="http://www.w3.org/2000/svg">
<path d="M25.5 4H6.5C5.12 4 4 5.12 4 6.5V25.5C4 26.88 5.12 28 6.5 28H25.5C26.88 28 28 26.88 28 25.5V6.5C28 5.12 26.88 4 25.5 4ZM27 25.5C27 26.33 26.33 27 25.5 27H6.5C5.67 27 5 26.33 5 25.5V6.5C5 5.67 5.67 5 6.5 5H25.5C26.33 5 27 5.67 27 6.5V25.5ZM24 12.5C24 12.78 23.78 13 23.5 13H20V16.5C20 16.78 19.78 17 19.5 17C19.22 17 19 16.78 19 16.5V13H15.5C15.22 13 15 12.78 15 12.5C15 12.22 15.22 12 15.5 12H19V8.5C19 8.22 19.22 8 19.5 8C19.78 8 20 8.22 20 8.5V12H23.5C23.78 12 24 12.22 24 12.5ZM17 19.5C17 19.78 16.78 20 16.5 20H13V23.5C13 23.78 12.78 24 12.5 24C12.22 24 12 23.78 12 23.5V20H8.5C8.22 20 8 19.78 8 19.5C8 19.22 8.22 19 8.5 19H12V15.5C12 15.22 12.22 15 12.5 15C12.78 15 13 15.22 13 15.5V19H16.5C16.78 19 17 19.22 17 19.5Z" fill="white"/>
</svg>
