<svg width="32" height="32" viewBox="0 0 32 32" fill="none" xmlns="http://www.w3.org/2000/svg">
<path d="M16 21C18.21 21 20 19.21 20 17V10C20 7.79 18.21 6 16 6C13.79 6 12 7.79 12 10V17C12 19.21 13.79 21 16 21ZM13 10C13 8.35 14.35 7 16 7C17.65 7 19 8.35 19 10V17C19 18.65 17.65 20 16 20C14.35 20 13 18.65 13 17V10ZM16.5 22.97V27H19.5C19.78 27 20 27.22 20 27.5C20 27.78 19.78 28 19.5 28H12.5C12.22 28 12 27.78 12 27.5C12 27.22 12.22 27 12.5 27H15.5V22.97C12.43 22.72 10 20.14 10 17C10 16.72 10.22 16.5 10.5 16.5C10.78 16.5 11 16.72 11 17C11 19.76 13.24 22 16 22C18.76 22 21 19.76 21 17C21 16.72 21.22 16.5 21.5 16.5C21.78 16.5 22 16.72 22 17C22 20.14 19.57 22.72 16.5 22.97Z" fill="white"/>
</svg>
