<svg width="32" height="32" viewBox="0 0 32 32" fill="none" xmlns="http://www.w3.org/2000/svg">
<path d="M27.5 5H4.5C3.67 5 3 5.67 3 6.5V21.5C3 22.33 3.67 23 4.5 23H14V25H11.5C11.22 25 11 25.22 11 25.5C11 25.78 11.22 26 11.5 26H20.5C20.78 26 21 25.78 21 25.5C21 25.22 20.78 25 20.5 25H18V23H27.5C28.33 23 29 22.33 29 21.5V6.5C29 5.67 28.33 5 27.5 5ZM4 8H28V20H4V8ZM4.5 6H27.5C27.78 6 28 6.22 28 6.5V7H4V6.5C4 6.22 4.22 6 4.5 6ZM17 25H15V23H17V25ZM27.5 22H4.5C4.22 22 4 21.78 4 21.5V21H28V21.5C28 21.78 27.78 22 27.5 22Z" fill="#202020"/>
</svg>
