<svg width="32" height="32" viewBox="0 0 32 32" fill="none" xmlns="http://www.w3.org/2000/svg">
<path d="M6 8.5C6 8.22 6.22 8 6.5 8H25.5C25.78 8 26 8.22 26 8.5C26 8.78 25.78 9 25.5 9H6.5C6.22 9 6 8.78 6 8.5ZM6.5 14H25.5C25.78 14 26 13.78 26 13.5C26 13.22 25.78 13 25.5 13H6.5C6.22 13 6 13.22 6 13.5C6 13.78 6.22 14 6.5 14ZM23.5 20H22V18.5C22 18.22 21.78 18 21.5 18C21.22 18 21 18.22 21 18.5V20H19.5C19.22 20 19 20.22 19 20.5C19 20.78 19.22 21 19.5 21H21V22.5C21 22.78 21.22 23 21.5 23C21.78 23 22 22.78 22 22.5V21H23.5C23.78 21 24 20.78 24 20.5C24 20.22 23.78 20 23.5 20ZM27 20.5C27 23.53 24.53 26 21.5 26C18.47 26 16 23.53 16 20.5C16 19.98 16.08 19.48 16.21 19H6.5C6.22 19 6 18.78 6 18.5C6 18.22 6.22 18 6.5 18H16.5C16.53 18 16.57 18.01 16.6 18.02C17.51 16.23 19.36 15 21.5 15C24.53 15 27 17.47 27 20.5ZM26 20.5C26 18.02 23.98 16 21.5 16C19.02 16 17 18.02 17 20.5C17 22.98 19.02 25 21.5 25C23.98 25 26 22.98 26 20.5Z" fill="#202020"/>
</svg>
