<svg width="32" height="32" viewBox="0 0 32 32" fill="none" xmlns="http://www.w3.org/2000/svg">
<g clip-path="url(#clip0_188_7744)">
<path fill-rule="evenodd" clip-rule="evenodd" d="M16.0703 1C15.7942 1 15.5703 1.22386 15.5703 1.5V9.03357L10.0903 17.6433C10.0591 17.6797 10.0336 17.7199 10.0143 17.7627L2.07819 30.2312C1.9802 30.3852 1.97387 30.5803 2.06169 30.7403C2.1495 30.9003 2.3175 30.9997 2.5 30.9997H29.64C29.8225 30.9997 29.9905 30.9003 30.0783 30.7403C30.1661 30.5803 30.1598 30.3852 30.0618 30.2312L16.5703 9.03455V6.29H21.6403C21.8391 6.29 22.0189 6.1723 22.0985 5.99018C22.1781 5.80807 22.1422 5.59612 22.0072 5.4503L20.3239 3.63238L22.0048 1.84226C22.1413 1.69691 22.1784 1.48439 22.0992 1.30141C22.02 1.11844 21.8397 1 21.6403 1H16.0703ZM20.4959 5.29H16.5703V2H20.485L19.2758 3.28774C19.0961 3.47917 19.095 3.77703 19.2734 3.9697L20.4959 5.29ZM3.41094 29.9997L10.4722 18.9057L12.7077 22.427C12.7993 22.5714 12.9585 22.659 13.1295 22.6591C13.3006 22.6592 13.4598 22.5718 13.5516 22.4275L16.0691 18.4715L18.5775 22.4268C18.6692 22.5714 18.8285 22.659 18.9997 22.6591C19.1709 22.6591 19.3302 22.5716 19.4219 22.427L21.6626 18.8975L28.7291 29.9997H3.41094ZM16.07 10.1109L21.0696 17.9658L19 21.2258L16.492 17.2713C16.4004 17.1268 16.2413 17.0392 16.0702 17.0391C15.8991 17.0389 15.7398 17.1263 15.648 17.2706L13.1303 21.227L11.0652 17.974L16.07 10.1109Z" fill="white"/>
</g>
<defs>
<clipPath id="clip0_188_7744">
<rect width="28.14" height="30" fill="white" transform="translate(2 1)"/>
</clipPath>
</defs>
</svg>
