<svg width="32" height="32" viewBox="0 0 32 32" fill="none" xmlns="http://www.w3.org/2000/svg">
<path d="M24.26 12.0191L17.06 4.84906C16.48 4.26906 15.52 4.26906 14.94 4.84906L7.73 12.0591C7.26 12.5291 7 13.1591 7 13.8291V25.4991C7 26.3291 7.67 26.9991 8.5 26.9991H13.4C13.42 26.9991 13.43 26.9891 13.45 26.9891C13.47 26.9891 13.48 26.9991 13.5 26.9991C13.78 26.9991 14 26.7791 14 26.4991V21.4991C14 21.2191 14.22 20.9991 14.5 20.9991H17.5C17.78 20.9991 18 21.2191 18 21.4991V26.4991C18 26.7791 18.22 26.9991 18.5 26.9991C18.51 26.9991 18.51 26.9991 18.52 26.9991C18.53 26.9991 18.53 26.9991 18.54 26.9991H23.5C24.33 26.9991 25 26.3291 25 25.4991V13.7891C25 13.1191 24.74 12.4891 24.26 12.0191ZM24 25.4991C24 25.7791 23.78 25.9991 23.5 25.9991H19V21.4991C19 20.6691 18.33 19.9991 17.5 19.9991H14.5C13.67 19.9991 13 20.6691 13 21.4991V25.9991H8.5C8.22 25.9991 8 25.7791 8 25.4991V13.8291C8 13.4291 8.16 13.0491 8.44 12.7691L15.65 5.55906C15.84 5.36906 16.16 5.36906 16.36 5.55906L23.56 12.7291C23.85 13.0091 24 13.3891 24 13.7891V25.4991Z" fill="white"/>
</svg>
