<svg width="32" height="32" viewBox="0 0 32 32" fill="none" xmlns="http://www.w3.org/2000/svg">
<path d="M16 4C9.38 4 4 9.38 4 16C4 22.62 9.38 28 16 28C22.62 28 28 22.62 28 16C28 9.38 22.62 4 16 4ZM16 27C9.93 27 5 22.07 5 16C5 9.93 9.93 5 16 5C22.07 5 27 9.93 27 16C27 22.07 22.07 27 16 27ZM23 16C23 16.28 22.78 16.5 22.5 16.5H16.5V22.5C16.5 22.78 16.28 23 16 23C15.72 23 15.5 22.78 15.5 22.5V16.5H9.5C9.22 16.5 9 16.28 9 16C9 15.72 9.22 15.5 9.5 15.5H15.5V9.5C15.5 9.22 15.72 9 16 9C16.28 9 16.5 9.22 16.5 9.5V15.5H22.5C22.78 15.5 23 15.72 23 16Z" fill="#202020"/>
</svg>
