<svg width="32" height="32" viewBox="0 0 32 32" fill="none" xmlns="http://www.w3.org/2000/svg">
<path d="M16 9C12.14 9 9 12.14 9 16C9 19.86 12.14 23 16 23C19.86 23 23 19.86 23 16C23 12.14 19.86 9 16 9ZM16 22C12.69 22 10 19.31 10 16C10 12.69 12.69 10 16 10C19.31 10 22 12.69 22 16C22 19.31 19.31 22 16 22ZM19.89 16C19.89 16.28 19.67 16.5 19.39 16.5H16.5V19.39C16.5 19.67 16.28 19.89 16 19.89C15.72 19.89 15.5 19.67 15.5 19.39V16.5H12.61C12.33 16.5 12.11 16.28 12.11 16C12.11 15.72 12.33 15.5 12.61 15.5H15.5V12.61C15.5 12.33 15.72 12.11 16 12.11C16.28 12.11 16.5 12.33 16.5 12.61V15.5H19.39C19.67 15.5 19.89 15.72 19.89 16ZM16 4C9.38 4 4 9.38 4 16C4 22.62 9.38 28 16 28C22.62 28 28 22.62 28 16C28 9.38 22.62 4 16 4ZM16 27C9.93 27 5 22.07 5 16C5 9.93 9.93 5 16 5C22.07 5 27 9.93 27 16C27 22.07 22.07 27 16 27Z" fill="#202020"/>
</svg>
