<svg width="32" height="32" viewBox="0 0 32 32" fill="none" xmlns="http://www.w3.org/2000/svg">
<path d="M18.9996 27.5C18.9996 27.78 18.7796 28 18.4996 28H13.4996C13.2196 28 12.9996 27.78 12.9996 27.5C12.9996 27.22 13.2196 27 13.4996 27H18.4996C18.7796 27 18.9996 27.22 18.9996 27.5ZM24.7996 25.24C24.5296 25.72 24.0396 26 23.4996 26H8.49957C7.94957 26 7.45957 25.71 7.18957 25.24C6.91957 24.76 6.92957 24.2 7.20957 23.73L8.01957 22.38C8.69957 21.26 8.99957 19.91 8.99957 18.01V12C8.99957 8.14 12.1396 5 15.9996 5C19.8596 5 22.9996 8.14 22.9996 12V18.01C22.9996 19.91 23.2996 21.26 23.9696 22.38L24.7796 23.73C25.0696 24.2 25.0696 24.76 24.7996 25.24ZM23.9296 24.24L23.1196 22.89C22.3396 21.61 21.9996 20.1 21.9996 18.01V12C21.9996 8.69 19.3096 6 15.9996 6C12.6896 6 9.99957 8.69 9.99957 12V18.01C9.99957 20.11 9.65957 21.61 8.87957 22.9L8.06957 24.25C7.92957 24.47 8.01957 24.68 8.05957 24.75C8.10957 24.82 8.23957 25 8.49957 25H15.9896H23.4896C23.7496 25 23.8796 24.82 23.9296 24.75C23.9796 24.68 24.0596 24.47 23.9296 24.24Z" fill="white"/>
</svg>
