<svg width="32" height="32" viewBox="0 0 32 32" fill="none" xmlns="http://www.w3.org/2000/svg">
<path d="M25 11C23.9 11 23 11.9 23 13C23 13.17 23.03 13.34 23.07 13.5L19.45 15.02C18.84 13.96 17.76 13.21 16.5 13.05V8.93C17.36 8.71 18 7.93 18 7C18 5.9 17.1 5 16 5C14.9 5 14 5.9 14 7C14 7.93 14.64 8.71 15.5 8.93V13.05C14.24 13.21 13.16 13.95 12.55 15.01L8.93 13.49C8.97 13.33 9 13.17 9 13C9 11.9 8.1 11 7 11C5.9 11 5 11.9 5 13C5 14.1 5.9 15 7 15C7.57 15 8.08 14.76 8.45 14.37L12.17 15.93C12.07 16.27 12 16.63 12 17C12 17.92 12.33 18.76 12.85 19.44L10.01 22.28C9.71 22.11 9.37 22 9 22C7.9 22 7 22.9 7 24C7 25.1 7.9 26 9 26C10.1 26 11 25.1 11 24C11 23.63 10.89 23.29 10.72 22.99L13.56 20.15C14.24 20.67 15.08 21 16 21C16.92 21 17.76 20.67 18.44 20.15L21.28 23C21.11 23.3 21 23.64 21 24C21 25.1 21.9 26 23 26C24.1 26 25 25.1 25 24C25 22.9 24.1 22 23 22C22.63 22 22.28 22.11 21.98 22.29L19.14 19.44C19.67 18.76 20 17.92 20 17C20 16.63 19.93 16.28 19.84 15.94L23.56 14.38C23.92 14.76 24.43 15 25 15C26.1 15 27 14.1 27 13C27 11.9 26.1 11 25 11ZM7 14C6.45 14 6 13.55 6 13C6 12.45 6.45 12 7 12C7.55 12 8 12.45 8 13C8 13.55 7.55 14 7 14ZM15 7C15 6.45 15.45 6 16 6C16.55 6 17 6.45 17 7C17 7.55 16.55 8 16 8C15.45 8 15 7.55 15 7ZM9 25C8.45 25 8 24.55 8 24C8 23.45 8.45 23 9 23C9.55 23 10 23.45 10 24C10 24.55 9.55 25 9 25ZM13 17C13 15.35 14.35 14 16 14C17.65 14 19 15.35 19 17C19 18.65 17.65 20 16 20C14.35 20 13 18.65 13 17ZM24 24C24 24.55 23.55 25 23 25C22.45 25 22 24.55 22 24C22 23.45 22.45 23 23 23C23.55 23 24 23.45 24 24ZM25 14C24.45 14 24 13.55 24 13C24 12.45 24.45 12 25 12C25.55 12 26 12.45 26 13C26 13.55 25.55 14 25 14Z" fill="#202020"/>
</svg>
