<svg width="32" height="32" viewBox="0 0 32 32" fill="none" xmlns="http://www.w3.org/2000/svg">
<path d="M27.5 5H4.5C3.67 5 3 5.67 3 6.5V21.5C3 22.33 3.67 23 4.5 23H14V25H11.5C11.22 25 11 25.22 11 25.5C11 25.78 11.22 26 11.5 26H20.5C20.78 26 21 25.78 21 25.5C21 25.22 20.78 25 20.5 25H18V23H27.5C28.33 23 29 22.33 29 21.5V6.5C29 5.67 28.33 5 27.5 5ZM4 8H28V20H4V8ZM4.5 6H27.5C27.78 6 28 6.22 28 6.5V7H4V6.5C4 6.22 4.22 6 4.5 6ZM17 25H15V23H17V25ZM27.5 22H4.5C4.22 22 4 21.78 4 21.5V21H28V21.5C28 21.78 27.78 22 27.5 22ZM16 9C13.24 9 11 11.24 11 14C11 16.76 13.24 19 16 19C18.76 19 21 16.76 21 14C21 11.24 18.76 9 16 9ZM16 18C13.79 18 12 16.21 12 14C12 11.79 13.79 10 16 10C18.21 10 20 11.79 20 14C20 16.21 18.21 18 16 18ZM15.85 11.15C15.71 11.01 15.49 10.96 15.31 11.04C15.12 11.12 15 11.3 15 11.5V16.5C15 16.7 15.12 16.88 15.31 16.96C15.37 16.99 15.44 17 15.5 17C15.63 17 15.76 16.95 15.85 16.85L18.35 14.35C18.55 14.15 18.55 13.84 18.35 13.64L15.85 11.15ZM16 15.29V12.7L17.29 14L16 15.29Z" fill="white"/>
</svg>
