<svg width="32" height="32" viewBox="0 0 32 32" fill="none" xmlns="http://www.w3.org/2000/svg">
<path d="M25.5 4H6.5C5.12 4 4 5.12 4 6.5V25.5C4 26.88 5.12 28 6.5 28H25.5C26.88 28 28 26.88 28 25.5V6.5C28 5.12 26.88 4 25.5 4ZM27 25.5C27 26.33 26.33 27 25.5 27H6.5C5.67 27 5 26.33 5 25.5V6.5C5 5.67 5.67 5 6.5 5H25.5C26.33 5 27 5.67 27 6.5V25.5ZM15.69 9H12.5C12.22 9 12 9.22 12 9.5V22.5C12 22.78 12.22 23 12.5 23C12.78 23 13 22.78 13 22.5V18H15.69C18.07 18 20 15.98 20 13.5C20 11.02 18.07 9 15.69 9ZM15.69 17H13V10H15.69C17.51 10 19 11.57 19 13.5C19 15.43 17.52 17 15.69 17Z" fill="#202020"/>
</svg>
