<svg width="32" height="32" viewBox="0 0 32 32" fill="none" xmlns="http://www.w3.org/2000/svg">
<path d="M23.8 13.35C25.11 12.56 26 11.14 26 9.5C26 7.02 23.98 5 21.5 5C19.02 5 17 7.02 17 9.5C17 11.17 17.92 12.61 19.27 13.39C18.04 13.8 16.93 14.54 16.04 15.54C15.17 14.53 14.06 13.76 12.8 13.35C14.11 12.56 15 11.14 15 9.5C15 7.02 12.98 5 10.5 5C8.02 5 6 7.02 6 9.5C6 11.16 6.91 12.6 8.26 13.38C5.18 14.4 3 17.38 3 21V25.5C3 26.33 3.62 27 4.38 27H16.5H16.62H27.62C28.38 27 29 26.33 29 25.5V21C29 17.35 26.84 14.34 23.8 13.35ZM18 9.5C18 7.57 19.57 6 21.5 6C23.43 6 25 7.57 25 9.5C25 11.43 23.43 13 21.5 13C19.57 13 18 11.43 18 9.5ZM7 9.5C7 7.57 8.57 6 10.5 6C12.43 6 14 7.57 14 9.5C14 11.43 12.43 13 10.5 13C8.57 13 7 11.43 7 9.5ZM16.5 26H4.38C4.17 26 4 25.77 4 25.5V21C4 17.08 6.9 14 10.6 14C14.19 14 17 17.08 17 21V25.5C17 25.77 16.83 26 16.62 26H16.5ZM28 25.5C28 25.77 27.83 26 27.62 26H17.91C17.96 25.84 17.99 25.68 17.99 25.5V21C17.99 19.25 17.49 17.66 16.65 16.36C17.9 14.86 19.69 14 21.6 14C25.19 14 28 17.08 28 21V25.5Z" fill="#202020"/>
</svg>
