<svg width="32" height="32" viewBox="0 0 32 32" fill="none" xmlns="http://www.w3.org/2000/svg">
<path d="M22.5 4H9.5C8.67 4 8 4.67 8 5.5V26.5C8 27.33 8.67 28 9.5 28H22.5C23.33 28 24 27.33 24 26.5V5.5C24 4.67 23.33 4 22.5 4ZM23 26.5C23 26.78 22.78 27 22.5 27H9.5C9.22 27 9 26.78 9 26.5V5.5C9 5.22 9.22 5 9.5 5H22.5C22.78 5 23 5.22 23 5.5V26.5ZM16 8C13.79 8 12 9.79 12 12C12 14.21 13.79 16 16 16C18.21 16 20 14.21 20 12C20 9.79 18.21 8 16 8ZM18.58 10.5H16.5V9.05C17.39 9.2 18.14 9.75 18.58 10.5ZM19 12C19 12.17 18.98 12.34 18.95 12.5H16.5V11.5H18.95C18.98 11.66 19 11.83 19 12ZM15.5 9.05V10.5H13.42C13.86 9.75 14.61 9.2 15.5 9.05ZM13.05 11.5H15.5V12.5H13.05C13.02 12.34 13 12.17 13 12C13 11.83 13.02 11.66 13.05 11.5ZM13.42 13.5H15.5V14.95C14.61 14.8 13.86 14.25 13.42 13.5ZM16.5 14.95V13.5H18.58C18.14 14.25 17.39 14.8 16.5 14.95ZM20 24.5C20 24.78 19.78 25 19.5 25H12.5C12.22 25 12 24.78 12 24.5C12 24.22 12.22 24 12.5 24H19.5C19.78 24 20 24.22 20 24.5Z" fill="#202020"/>
</svg>
