<svg width="32" height="32" viewBox="0 0 32 32" fill="none" xmlns="http://www.w3.org/2000/svg">
<path d="M25.5 11H18V5.5C18 4.12 16.88 3 15.5 3H6.5C5.12 3 4 4.12 4 5.5V25.5C4 26.88 5.12 28 6.5 28H15.5C16.88 28 18 26.88 18 25.5V21H25.5C26.33 21 27 20.33 27 19.5V12.5C27 11.67 26.33 11 25.5 11ZM26 12.5V18H14V12.5C14 12.22 14.22 12 14.5 12H25.5C25.78 12 26 12.22 26 12.5ZM6.5 4H15.5C16.33 4 17 4.67 17 5.5V7H5V5.5C5 4.67 5.67 4 6.5 4ZM15.5 27H6.5C5.67 27 5 26.33 5 25.5V24H17V25.5C17 26.33 16.33 27 15.5 27ZM17 23H5V8H17V11H14.5C13.67 11 13 11.67 13 12.5V19.5C13 20.33 13.67 21 14.5 21H17V23ZM25.5 20H14.5C14.22 20 14 19.78 14 19.5V19H26V19.5C26 19.78 25.78 20 25.5 20ZM12 25.5C12 25.78 11.78 26 11.5 26H10.5C10.22 26 10 25.78 10 25.5C10 25.22 10.22 25 10.5 25H11.5C11.78 25 12 25.22 12 25.5ZM9 5.5C9 5.22 9.22 5 9.5 5H12.5C12.78 5 13 5.22 13 5.5C13 5.78 12.78 6 12.5 6H9.5C9.22 6 9 5.78 9 5.5Z" fill="#202020"/>
</svg>
