<svg width="32" height="32" viewBox="0 0 32 32" fill="none" xmlns="http://www.w3.org/2000/svg">
<path d="M26.5701 6.12953L25.8801 5.43953C25.3201 4.87953 24.3501 4.87953 23.7901 5.43953L6.19007 23.0395C6.14007 23.0895 6.10007 23.1595 6.08007 23.2195L6.07007 23.2295L5.03007 26.3495C4.97007 26.5295 5.02007 26.7295 5.15007 26.8595C5.24007 26.9495 5.37007 26.9995 5.50007 26.9995C5.55007 26.9995 5.61007 26.9895 5.66007 26.9695L8.78007 25.9295C8.79007 25.9295 8.79007 25.9195 8.79007 25.9195C8.86007 25.8995 8.92007 25.8595 8.97007 25.8095L26.5701 8.20953C26.8501 7.93953 27.0001 7.56953 27.0001 7.16953C27.0001 6.76953 26.8501 6.39953 26.5701 6.12953ZM6.29007 25.7095L6.76007 24.3095L7.69007 25.2395L6.29007 25.7095ZM25.8601 7.50953L8.62007 24.7495L7.94007 24.0695L7.26007 23.3795L24.4901 6.13953C24.6701 5.95953 24.9901 5.95953 25.1701 6.13953L25.8601 6.82953C25.9501 6.91953 26.0001 7.03953 26.0001 7.16953C26.0001 7.29953 25.9501 7.41953 25.8601 7.50953Z" fill="#202020"/>
</svg>
