<svg width="32" height="32" viewBox="0 0 32 32" fill="none" xmlns="http://www.w3.org/2000/svg">
<path d="M20 16.03V13.5C20 12.67 19.33 12 18.5 12H17V8.5C17 6.57 15.43 5 13.5 5C11.57 5 10 6.57 10 8.5V9.47C10 9.75 10.22 9.97 10.5 9.97C10.78 9.97 11 9.75 11 9.47V8.5C11 7.12 12.12 6 13.5 6C14.88 6 16 7.12 16 8.5V12H8.5C7.67 12 7 12.67 7 13.5V23.5C7 24.33 7.67 25 8.5 25H15.26C16.27 26.22 17.8 27 19.5 27C22.53 27 25 24.53 25 21.5C25 18.64 22.8 16.28 20 16.03ZM8.5 24C8.22 24 8 23.78 8 23.5V13.5C8 13.22 8.22 13 8.5 13H18.5C18.78 13 19 13.22 19 13.5V16.03C16.2 16.28 14 18.64 14 21.5C14 22.4 14.22 23.25 14.61 24H8.5ZM19.5 26C18.08 26 16.83 25.33 16.01 24.3C15.98 24.22 15.92 24.16 15.85 24.11C15.32 23.37 15 22.48 15 21.5C15 19.02 17.02 17 19.5 17C21.98 17 24 19.02 24 21.5C24 23.98 21.98 26 19.5 26ZM21.86 19.65C22.05 19.85 22.05 20.16 21.86 20.36L18.35 23.84C18.25 23.94 18.13 23.98 18 23.98C17.87 23.98 17.74 23.93 17.65 23.83L16.66 22.84C16.46 22.64 16.46 22.33 16.66 22.13C16.86 21.93 17.17 21.93 17.37 22.13L18 22.76L21.16 19.63C21.35 19.45 21.66 19.45 21.86 19.65Z" fill="white"/>
</svg>
