<svg width="32" height="32" viewBox="0 0 32 32" fill="none" xmlns="http://www.w3.org/2000/svg">
<path d="M18.8 13.35C20.11 12.56 21 11.14 21 9.5C21 7.02 18.98 5 16.5 5C14.02 5 12 7.02 12 9.5C12 11.16 12.91 12.6 14.26 13.38C11.18 14.4 9 17.38 9 21V25.5C9 26.33 9.62 27 10.38 27H22.63C23.39 27 24.01 26.33 24.01 25.5V21C24 17.35 21.84 14.34 18.8 13.35ZM13 9.5C13 7.57 14.57 6 16.5 6C18.43 6 20 7.57 20 9.5C20 11.43 18.43 13 16.5 13C14.57 13 13 11.43 13 9.5ZM23 25.5C23 25.77 22.83 26 22.62 26H10.38C10.18 26 10 25.77 10 25.5V21C10 17.08 12.9 14 16.6 14C20.19 14 23 17.08 23 21V25.5Z" fill="white"/>
</svg>
