<svg width="32" height="32" viewBox="0 0 32 32" fill="none" xmlns="http://www.w3.org/2000/svg">
<path d="M16.5 5C16.22 5 16 5.22 16 5.5V15.5C16 15.78 16.22 16 16.5 16H26.5C26.78 16 27 15.78 27 15.5C27 9.71 22.29 5 16.5 5ZM17 15V6.01C21.84 6.26 25.73 10.16 25.99 15H17ZM24.5 17H15V7.5C15 7.22 14.78 7 14.5 7C8.71 7 4 11.71 4 17.5C4 23.29 8.71 28 14.5 28C20.29 28 25 23.29 25 17.5C25 17.22 24.78 17 24.5 17ZM14.5 27C9.26 27 5 22.74 5 17.5C5 12.43 8.99 8.27 14 8.01V17.5C14 17.78 14.22 18 14.5 18H23.99C23.73 23.01 19.57 27 14.5 27Z" fill="#202020"/>
</svg>
