<svg width="32" height="32" viewBox="0 0 32 32" fill="none" xmlns="http://www.w3.org/2000/svg">
<path d="M16 4C11.31 4 7.5 7.82 7.5 12.5C7.5 16.3 9.68 20.15 11.51 22.71C13.24 25.14 15.01 26.46 15.47 26.77C15.61 26.92 15.8 27 16 27C16.21 27 16.41 26.92 16.53 26.79C17.03 26.41 18.79 24.98 20.5 22.53C23.16 18.72 24.5 15.35 24.5 12.51C24.51 7.82 20.69 4 16 4ZM19.69 21.96C18.13 24.19 16.55 25.52 16 25.94C15.45 25.55 13.88 24.33 12.32 22.14C10.58 19.7 8.5 16.04 8.5 12.51C8.5 8.37 11.87 5 16 5C20.14 5 23.5 8.37 23.5 12.5C23.51 15.14 22.22 18.32 19.69 21.96ZM16 9C14.35 9 13 10.35 13 12C13 13.65 14.35 15 16 15C17.65 15 19 13.65 19 12C19 10.35 17.65 9 16 9ZM16 14C14.9 14 14 13.1 14 12C14 10.9 14.9 10 16 10C17.1 10 18 10.9 18 12C18 13.1 17.1 14 16 14Z" fill="white"/>
</svg>
