<svg width="32" height="32" viewBox="0 0 32 32" fill="none" xmlns="http://www.w3.org/2000/svg">
<path d="M23.121 18.8491C22.8311 18.5591 22.4775 18.3753 22.0957 18.3046C22.4493 17.5551 22.322 16.6358 21.7068 16.0206C21.4169 15.7307 21.0633 15.5469 20.6815 15.4762C21.035 14.7266 20.9078 13.8074 20.2926 13.1922C20.038 12.9376 19.7198 12.7609 19.3946 12.676L23.121 8.94956C23.8988 8.17174 23.8988 6.89895 23.121 6.12113C22.3432 5.34332 21.0704 5.34332 20.2926 6.12113L11.6305 14.7832L11.68 12.5841C11.7083 12.0184 11.4962 11.4669 11.1002 11.0709C10.3224 10.2931 9.04958 10.2931 8.27176 11.0709C7.93235 11.4103 7.72022 11.8628 7.69193 12.3861L7.77679 22.3846C7.77679 24.0109 8.39904 25.5383 9.53748 26.6767C11.9063 29.0455 15.7742 29.0243 18.1713 26.6272L23.121 21.6775C23.8988 20.8997 23.8988 19.6269 23.121 18.8491ZM17.4642 25.9201C15.463 27.9212 12.2245 27.9495 10.2446 25.9696C9.29707 25.0221 8.77381 23.7493 8.77381 22.3775L8.68896 12.4073C8.71017 12.174 8.80916 11.9477 8.97887 11.778C9.36778 11.3891 10.0042 11.3891 10.3931 11.778C10.5911 11.976 10.6971 12.2517 10.683 12.5487L10.5981 16.0136C10.5911 16.2186 10.7113 16.4095 10.9022 16.4873C11.0931 16.5651 11.3123 16.5156 11.4537 16.3742L20.9997 6.82824C21.3886 6.43933 22.025 6.43933 22.4139 6.82824C22.8028 7.21715 22.8028 7.85355 22.4139 8.24245L17.4642 13.1922C17.45 13.2063 17.4429 13.2276 17.4288 13.2417L16.4106 14.2599C16.2126 14.4579 16.2126 14.7691 16.4106 14.967C16.6086 15.165 16.9197 15.165 17.1177 14.967L18.1783 13.9064C18.1854 13.8993 18.1854 13.8852 18.1925 13.8781C18.5885 13.5104 19.2036 13.5175 19.5855 13.8993C19.9744 14.2882 19.9744 14.9246 19.5855 15.3135L18.8784 16.0206L17.8177 17.0813C17.6197 17.2793 17.6197 17.5904 17.8177 17.7884C18.0157 17.9864 18.3268 17.9864 18.5248 17.7884L19.5855 16.7277C19.9744 16.3388 20.6108 16.3388 20.9997 16.7277C21.3886 17.1166 21.3886 17.753 20.9997 18.1419L20.2926 18.8491L19.2319 19.9097C19.0339 20.1077 19.0339 20.4188 19.2319 20.6168C19.4299 20.8148 19.741 20.8148 19.939 20.6168L20.9997 19.5562C21.3886 19.1673 22.025 19.1673 22.4139 19.5562C22.8028 19.9451 22.8028 20.5815 22.4139 20.9704L17.4642 25.9201Z" fill="white"/>
</svg>
