<svg width="32" height="32" viewBox="0 0 32 32" fill="none" xmlns="http://www.w3.org/2000/svg">
<path d="M23 13C22.59 13 22.21 13.12 21.89 13.34C21.61 12.56 20.87 12 20 12C19.59 12 19.21 12.12 18.89 12.34C18.61 11.56 17.87 11 17 11C16.64 11 16.29 11.1 16 11.27V6C16 4.9 15.1 4 14 4C12.9 4 12 4.9 12 6V18.25L10.48 16.66C10.1 16.24 9.56 16 9 16C7.9 16 7 16.9 7 18C7 18.48 7.17 18.95 7.52 19.34L14.65 26.35C15.8 27.5 17.32 28.14 18.93 28.14C22.28 28.14 25 25.39 25 22V15C25 13.9 24.1 13 23 13ZM24 22C24 24.83 21.73 27.14 18.93 27.14C17.59 27.14 16.32 26.61 15.35 25.64L8.24 18.65C8.09 18.47 8 18.24 8 18C8 17.45 8.45 17 9 17C9.28 17 9.55 17.12 9.75 17.34L12.14 19.85C12.28 20 12.5 20.05 12.69 19.97C12.88 19.89 13 19.7 13 19.5V6C13 5.45 13.45 5 14 5C14.55 5 15 5.45 15 6V13C15 13.02 15.01 13.04 15.01 13.06V14.5C15.01 14.78 15.23 15 15.51 15C15.79 15 16.01 14.78 16.01 14.5V13C16.01 12.99 16 12.98 16 12.97C16.02 12.43 16.46 12 17 12C17.55 12 18 12.45 18 13V14V15.5C18 15.78 18.22 16 18.5 16C18.78 16 19 15.78 19 15.5V14C19 13.45 19.45 13 20 13C20.55 13 21 13.45 21 14V15V16.5C21 16.78 21.22 17 21.5 17C21.78 17 22 16.78 22 16.5V15C22 14.45 22.45 14 23 14C23.55 14 24 14.45 24 15V22Z" fill="white"/>
</svg>
