<svg width="32" height="32" viewBox="0 0 32 32" fill="none" xmlns="http://www.w3.org/2000/svg">
<path d="M26.5 4H5.5C4.67 4 4 4.67 4 5.5V18.5C4 19.33 4.67 20 5.5 20H13.2L8.14 25.15C7.95 25.35 7.95 25.66 8.15 25.86C8.25 25.95 8.37 26 8.5 26C8.63 26 8.76 25.95 8.86 25.85L14.6 20H17.15L23.15 25.86C23.25 25.96 23.37 26 23.5 26C23.63 26 23.76 25.95 23.86 25.85C24.05 25.65 24.05 25.34 23.85 25.14L18.58 20H26.5C27.33 20 28 19.33 28 18.5V5.5C28 4.67 27.33 4 26.5 4ZM27 18.5C27 18.78 26.78 19 26.5 19H5.5C5.22 19 5 18.78 5 18.5V5.5C5 5.22 5.22 5 5.5 5H26.5C26.78 5 27 5.22 27 5.5V18.5ZM25.5 6H6.5C6.22 6 6 6.22 6 6.5V17.5C6 17.78 6.22 18 6.5 18H25.5C25.78 18 26 17.78 26 17.5V6.5C26 6.22 25.78 6 25.5 6ZM25 17H7V7H25V17Z" fill="white"/>
</svg>
