<svg width="32" height="32" viewBox="0 0 32 32" fill="none" xmlns="http://www.w3.org/2000/svg">
<path d="M24.5 11H21V7.5C21 7.22 20.78 7 20.5 7H11.5C11.22 7 11 7.22 11 7.5V11H7.5C6.12 11 5 12.12 5 13.5V19.5C5 20.88 6.12 22 7.5 22H11V25.5C11 25.78 11.22 26 11.5 26H20.5C20.78 26 21 25.78 21 25.5V22H24.5C25.88 22 27 20.88 27 19.5V13.5C27 12.12 25.88 11 24.5 11ZM12 8H20V11H12V8ZM12 25V17H20V21.49V21.5V21.51V25H12ZM26 19.5C26 20.33 25.33 21 24.5 21H21V17H22.5C22.78 17 23 16.78 23 16.5C23 16.22 22.78 16 22.5 16H20.5H11.5H9.5C9.22 16 9 16.22 9 16.5C9 16.78 9.22 17 9.5 17H11V21H7.5C6.67 21 6 20.33 6 19.5V13.5C6 12.67 6.67 12 7.5 12H11.5H20.5H24.5C25.33 12 26 12.67 26 13.5V19.5ZM19 19.5C19 19.78 18.78 20 18.5 20H13.5C13.22 20 13 19.78 13 19.5C13 19.22 13.22 19 13.5 19H18.5C18.78 19 19 19.22 19 19.5ZM19 22.5C19 22.78 18.78 23 18.5 23H13.5C13.22 23 13 22.78 13 22.5C13 22.22 13.22 22 13.5 22H18.5C18.78 22 19 22.22 19 22.5Z" fill="#202020"/>
</svg>
