<svg width="24" height="24" viewBox="0 0 24 24" fill="none" xmlns="http://www.w3.org/2000/svg">
<path d="M14.1381 0.21441C14.1868 0.224086 14.2354 0.233762 14.2856 0.243731C16.3879 0.666857 18.2721 1.57268 19.8832 2.99047C19.9196 3.02142 19.9559 3.05237 19.9934 3.08426C20.1709 3.23609 20.3385 3.39511 20.5032 3.56083C20.5423 3.60002 20.5813 3.63922 20.6215 3.67961C20.651 3.70934 20.6805 3.73908 20.7109 3.76971C20.7112 3.7353 20.7115 3.70088 20.7118 3.66543C20.7146 3.33945 20.7181 3.01348 20.7224 2.68752C20.7246 2.51997 20.7265 2.35244 20.7278 2.18489C20.7293 1.9918 20.732 1.79874 20.7347 1.60567C20.735 1.54615 20.7353 1.48662 20.7356 1.42529C20.7424 1.03142 20.762 0.676166 21.0244 0.366606C21.3421 0.103036 21.5462 0.0481275 21.962 0.0513695C22.2585 0.0825725 22.4281 0.223129 22.628 0.433572C22.7619 0.63966 22.8166 0.811032 22.8175 1.05662C22.8181 1.13312 22.8181 1.13312 22.8188 1.21116C22.8187 1.26659 22.8187 1.32203 22.8186 1.37915C22.819 1.43794 22.8193 1.49673 22.8196 1.5573C22.8204 1.71821 22.8207 1.87911 22.8208 2.04002C22.8209 2.14069 22.8211 2.24135 22.8213 2.34202C22.8222 2.69362 22.8226 3.04522 22.8225 3.39682C22.8225 3.72391 22.8235 4.05098 22.8251 4.37806C22.8263 4.65941 22.8268 4.94076 22.8268 5.22211C22.8268 5.38991 22.827 5.5577 22.8281 5.7255C22.8292 5.91283 22.8287 6.10014 22.8282 6.28748C22.8287 6.34262 22.8292 6.39777 22.8298 6.45458C22.8269 6.82565 22.7706 7.08203 22.5282 7.37486C22.5019 7.39659 22.4756 7.41831 22.4485 7.44069C22.4226 7.46316 22.3966 7.48564 22.3699 7.5088C22.053 7.69629 21.7118 7.68012 21.3548 7.67932C21.2979 7.67956 21.241 7.67981 21.1824 7.68007C20.9949 7.68075 20.8074 7.6807 20.6198 7.68059C20.5222 7.68073 20.4246 7.68087 20.327 7.68105C20.0202 7.68158 19.7135 7.68161 19.4068 7.68131C19.0912 7.68102 18.7755 7.68162 18.4599 7.68266C18.1881 7.68352 17.9164 7.68381 17.6446 7.68365C17.4826 7.68356 17.3207 7.68375 17.1587 7.68436C16.978 7.68497 16.7972 7.68464 16.6165 7.68407C16.5634 7.68444 16.5102 7.68482 16.4554 7.6852C16.0925 7.6827 15.8037 7.64773 15.5135 7.41025C15.2576 7.09738 15.1744 6.90093 15.1911 6.49384C15.225 6.22584 15.2988 6.04812 15.5093 5.8744C15.7884 5.68209 15.9853 5.61459 16.3266 5.61042C16.3779 5.6097 16.3779 5.6097 16.4303 5.60896C16.5433 5.60742 16.6563 5.60622 16.7693 5.60501C16.8477 5.60401 16.9261 5.60299 17.0045 5.60194C17.2107 5.59926 17.417 5.59685 17.6233 5.5945C17.8338 5.59205 18.0443 5.58934 18.2548 5.58665C18.6677 5.58142 19.0807 5.57647 19.4937 5.57172C19.4402 5.51019 19.3865 5.4487 19.3329 5.38722C19.303 5.35297 19.2732 5.31872 19.2424 5.28343C17.5517 3.36956 15.1008 2.30401 12.5766 2.12733C10.0016 1.97352 7.46753 2.854 5.51889 4.5369C5.30216 4.72944 5.09285 4.9289 4.88739 5.13339C4.8632 5.1574 4.839 5.1814 4.81408 5.20614C3.04607 6.98506 2.14044 9.52361 2.10002 12.0005C2.1471 14.724 3.21707 17.1871 5.13083 19.1111C5.15483 19.1353 5.17883 19.1595 5.20356 19.1844C6.98193 20.953 9.51969 21.8589 11.9958 21.8993C14.7184 21.8522 17.1809 20.7819 19.1042 18.8676C19.1284 18.8436 19.1526 18.8196 19.1775 18.7948C20.9008 17.061 21.7203 14.7009 21.8733 12.3079C21.8759 12.2706 21.8785 12.2332 21.8812 12.1948C21.8861 12.1245 21.8905 12.0542 21.8943 11.9838C21.9146 11.7003 21.9999 11.5053 22.1807 11.2882C22.4376 11.0712 22.687 10.9382 23.0301 10.956C23.3324 11.0129 23.5974 11.1481 23.7813 11.3978C24.1919 12.1133 23.9253 13.3591 23.7783 14.1434C23.7702 14.1867 23.7621 14.2299 23.7537 14.2745C23.3364 16.4238 22.3461 18.397 20.8707 20.0119C20.7968 20.093 20.7238 20.1748 20.6516 20.2573C19.0009 22.1382 16.565 23.3199 14.1381 23.7866C14.0806 23.7985 14.0806 23.7985 14.0219 23.8107C12.7149 24.0757 11.1575 24.0577 9.85355 23.7866C9.81143 23.7785 9.76932 23.7704 9.72593 23.762C7.57578 23.3454 5.60227 22.3549 3.98686 20.8781C3.90581 20.8042 3.82403 20.7312 3.74152 20.6589C1.86119 19.0077 0.679935 16.571 0.213366 14.1434C0.205395 14.1051 0.197425 14.0667 0.189212 14.0272C-0.0756914 12.7198 -0.0576723 11.1619 0.213366 9.85756C0.22551 9.79438 0.22551 9.79438 0.2379 9.72991C0.654358 7.57909 1.64457 5.60498 3.12094 3.98907C3.19478 3.90799 3.26783 3.82618 3.34003 3.74365C4.99077 1.86275 7.42667 0.681122 9.85355 0.21441C9.8919 0.206437 9.93024 0.198463 9.96975 0.190249C11.2749 -0.0743545 12.8362 -0.0598379 14.1381 0.21441Z" fill="black"/>
</svg>
