<svg width="32" height="32" viewBox="0 0 32 32" fill="none" xmlns="http://www.w3.org/2000/svg">
<path d="M24.1697 23.3694C21.9997 25.7694 19.0097 26.9894 16.0097 26.9894C13.7897 26.9894 11.5697 26.3194 9.66974 24.9694L9.89974 26.3994C9.93974 26.6694 9.75974 26.9294 9.47974 26.9694C9.44974 26.9694 9.42974 26.9794 9.39974 26.9794C9.15974 26.9794 8.94974 26.8094 8.90974 26.5594L8.46974 23.8294V23.8194C8.46974 23.8094 8.46974 23.8094 8.46974 23.7994C8.43974 23.5394 8.61974 23.2994 8.87974 23.2494L11.6097 22.8094C11.8797 22.7694 12.1397 22.9494 12.1797 23.2294C12.2197 23.4994 12.0397 23.7594 11.7597 23.7994L10.0897 24.0694C14.1697 27.0594 19.9497 26.5394 23.4097 22.7094C26.5797 19.1994 26.8597 13.8894 24.0597 10.0894C23.8997 9.86938 23.9397 9.54938 24.1697 9.38938C24.3897 9.22938 24.6997 9.26938 24.8697 9.49938C27.9697 13.6794 27.6697 19.5094 24.1697 23.3694ZM8.59974 9.27938C10.3897 7.29938 12.8497 6.12938 15.5197 5.99938C17.7997 5.88938 19.9997 6.53938 21.8197 7.84938L20.2397 8.09938C19.9697 8.13938 19.7797 8.39938 19.8197 8.66938C19.8597 8.91938 20.0697 9.08938 20.3097 9.08938C20.3397 9.08938 20.3597 9.08938 20.3897 9.07938L22.9397 8.66938C23.1097 8.70938 23.2897 8.65938 23.4197 8.51938C23.5297 8.39938 23.5597 8.24938 23.5297 8.09938C23.5297 8.08938 23.5297 8.07938 23.5297 8.06938L23.0997 5.33938C23.0597 5.06938 22.7897 4.87938 22.5297 4.91938C22.2597 4.95938 22.0697 5.21938 22.1097 5.48938L22.3497 6.98938C20.3497 5.56938 17.9497 4.84938 15.4497 4.97938C12.5197 5.12938 9.80974 6.40938 7.83974 8.58938C4.34974 12.4494 4.04974 18.2894 7.11974 22.4694C7.21974 22.5994 7.36974 22.6694 7.51974 22.6694C7.61974 22.6694 7.72974 22.6394 7.81974 22.5694C8.03974 22.4094 8.08974 22.0894 7.92974 21.8694C5.14974 18.0994 5.42974 12.7894 8.59974 9.27938Z" fill="white"/>
</svg>
