<svg width="32" height="32" viewBox="0 0 32 32" fill="none" xmlns="http://www.w3.org/2000/svg">
<path d="M10.48 16.5498C10.29 16.4298 10.05 16.4198 9.86 16.5198L8.62 16.9698C8.34 17.0198 8.12 17.2298 8.04 17.5098C7.96 17.7898 8.04 18.0898 8.25 18.2898L10.85 20.7798C11.01 20.9298 11.21 21.0098 11.42 21.0098C11.51 21.0098 11.6 20.9998 11.68 20.9698L22.79 17.0998C23.25 16.9298 23.62 16.5898 23.81 16.1698C23.98 15.7698 23.99 15.3398 23.82 14.9598C23.47 14.0898 22.49 13.6498 21.62 13.9798L18.57 15.0398L15 12.6098C14.83 12.5298 14.65 12.5198 14.5 12.5198L13.25 12.9498C12.98 13.0498 12.79 13.2798 12.73 13.5498C12.68 13.8098 12.77 14.0698 12.94 14.2298L14.93 16.3198L12.15 17.2998L10.48 16.5498ZM13.89 13.7798L14.58 13.5298L18.43 16.1498L21.96 14.9198L21.98 14.9098C22.34 14.7698 22.75 14.9598 22.91 15.3398C22.99 15.5198 22.95 15.6698 22.91 15.7698C22.83 15.9398 22.67 16.0898 22.47 16.1598L11.47 19.9898L9.2 17.8198L10.12 17.4898L12.11 18.3798L16.73 16.7498L13.89 13.7798ZM27 16.9898C27 23.0598 22.07 27.9898 16 27.9898C9.93 27.9898 5 23.0598 5 16.9898C5 10.9598 9.88 6.05975 15.89 5.99975L14.67 4.97975C14.46 4.79975 14.43 4.48975 14.61 4.27975C14.79 4.06975 15.1 4.03975 15.31 4.21975L17.48 6.03975C17.69 6.21975 17.72 6.52975 17.54 6.73975L15.73 8.89975C15.63 9.01975 15.49 9.07975 15.35 9.07975C15.24 9.07975 15.12 9.03975 15.03 8.95975C14.82 8.77975 14.79 8.46975 14.97 8.25975L16.04 6.98975C16.03 6.98975 16.02 6.99975 16.01 6.99975C10.5 6.99975 6.01 11.4898 6.01 16.9998C6.01 22.5098 10.5 26.9998 16.01 26.9998C21.52 26.9998 26.01 22.5098 26.01 16.9998C26.01 12.9098 23.56 9.26975 19.76 7.72975C19.5 7.62975 19.38 7.32975 19.48 7.07975C19.58 6.81975 19.88 6.69975 20.13 6.79975C24.3 8.47975 27 12.4898 27 16.9898Z" fill="#202020"/>
</svg>
