<svg width="32" height="32" viewBox="0 0 32 32" fill="none" xmlns="http://www.w3.org/2000/svg">
<path d="M27 16.9898C27 23.0598 22.07 27.9898 16 27.9898C9.93 27.9898 5 23.0598 5 16.9898C5 10.9598 9.88 6.05975 15.89 5.99975L14.67 4.97975C14.46 4.79975 14.43 4.48975 14.61 4.27975C14.79 4.06975 15.1 4.03975 15.31 4.21975L17.48 6.03975C17.69 6.21975 17.72 6.52975 17.54 6.73975L15.73 8.89975C15.63 9.01975 15.49 9.07975 15.35 9.07975C15.24 9.07975 15.12 9.03975 15.03 8.95975C14.82 8.77975 14.79 8.46975 14.97 8.25975L16.04 6.98975C16.03 6.98975 16.02 6.99975 16.01 6.99975C10.5 6.99975 6.01 11.4898 6.01 16.9998C6.01 22.5098 10.5 26.9998 16.01 26.9998C21.52 26.9998 26.01 22.5098 26.01 16.9998C26.01 12.9098 23.56 9.26975 19.76 7.72975C19.5 7.62975 19.38 7.32975 19.48 7.07975C19.58 6.81975 19.88 6.69975 20.13 6.79975C24.3 8.47975 27 12.4898 27 16.9898ZM16 10.9998C19.31 10.9998 22 13.6898 22 16.9998C22 20.3098 19.31 22.9998 16 22.9998C13.73 22.9998 11.76 21.7398 10.74 19.8798C10.65 19.7998 10.59 19.6798 10.58 19.5498C10.21 18.7698 10 17.9098 10 16.9998C10 13.6898 12.69 10.9998 16 10.9998ZM12.03 13.9998H15.5V12.0498C14.08 12.1898 12.84 12.9198 12.03 13.9998ZM20.95 17.4598H16.5V19.0098H20.57C20.78 18.5298 20.9 17.9998 20.95 17.4598ZM11.43 19.0098H15.5V17.4598H11.05C11.1 17.9998 11.22 18.5298 11.43 19.0098ZM20.58 14.9998H16.5V16.4598H20.95C20.89 15.9498 20.78 15.4498 20.58 14.9998ZM15.5 14.9998H11.42C11.22 15.4498 11.11 15.9498 11.05 16.4598H15.5V14.9998ZM15.5 21.9498V20.0098H12.03C12.85 21.0798 14.08 21.8098 15.5 21.9498ZM19.97 20.0098H16.5V21.9498C17.92 21.8098 19.15 21.0798 19.97 20.0098ZM16.5 12.0498V13.9998H19.97C19.16 12.9198 17.92 12.1898 16.5 12.0498Z" fill="#202020"/>
</svg>
