<svg width="32" height="32" viewBox="0 0 32 32" fill="none" xmlns="http://www.w3.org/2000/svg">
<path d="M27 16.9898C27 23.0598 22.07 27.9898 16 27.9898C9.93 27.9898 5 23.0598 5 16.9898C5 10.9598 9.88 6.05975 15.89 5.99975L14.67 4.97975C14.46 4.79975 14.43 4.48975 14.61 4.27975C14.79 4.06975 15.1 4.03975 15.31 4.21975L17.48 6.03975C17.69 6.21975 17.72 6.52975 17.54 6.73975L15.73 8.89975C15.63 9.01975 15.49 9.07975 15.35 9.07975C15.24 9.07975 15.12 9.03975 15.03 8.95975C14.82 8.77975 14.79 8.46975 14.97 8.25975L16.04 6.98975C16.03 6.98975 16.02 6.99975 16.01 6.99975C10.5 6.99975 6.01 11.4898 6.01 16.9998C6.01 22.5098 10.5 26.9998 16.01 26.9998C21.52 26.9998 26.01 22.5098 26.01 16.9998C26.01 12.9098 23.56 9.26975 19.76 7.72975C19.5 7.62975 19.38 7.32975 19.48 7.07975C19.58 6.81975 19.88 6.69975 20.13 6.79975C24.3 8.47975 27 12.4898 27 16.9898ZM22.82 15.8498L19.27 18.7898L20.5 23.3698C20.55 23.5698 20.48 23.7898 20.3 23.9098C20.22 23.9698 20.12 23.9998 20.02 23.9998C19.92 23.9998 19.82 23.9698 19.73 23.9098L16 21.2898L12.27 23.9098C12.1 24.0298 11.87 24.0298 11.7 23.9098C11.53 23.7898 11.45 23.5698 11.5 23.3698L12.73 18.7898L9.19 15.8498C9.03 15.7198 8.97 15.4998 9.04 15.3098C9.11 15.1098 9.29 14.9798 9.49 14.9698L13.98 14.7798L15.54 10.3398C15.68 9.93975 16.34 9.93975 16.48 10.3398L18.04 14.7798L22.53 14.9698C22.74 14.9798 22.92 15.1098 22.98 15.3098C23.04 15.4998 22.98 15.7198 22.82 15.8498ZM21.18 15.9098L17.65 15.7598C17.44 15.7498 17.27 15.6198 17.2 15.4298L16 12.0098L14.8 15.4298C14.73 15.6198 14.55 15.7598 14.35 15.7598L10.82 15.9098L13.61 18.2298C13.76 18.3498 13.82 18.5598 13.77 18.7398L12.82 22.2998L15.71 20.2698C15.88 20.1498 16.11 20.1498 16.28 20.2698L19.17 22.2998L18.22 18.7398C18.17 18.5498 18.23 18.3498 18.38 18.2298L21.18 15.9098Z" fill="white"/>
</svg>
