<svg width="32" height="32" viewBox="0 0 32 32" fill="none" xmlns="http://www.w3.org/2000/svg">
<path d="M27 16.9898C27 23.0598 22.07 27.9898 16 27.9898C9.93 27.9898 5 23.0598 5 16.9898C5 10.9598 9.88 6.05975 15.89 5.99975L14.67 4.97975C14.46 4.79975 14.43 4.48975 14.61 4.27975C14.79 4.06975 15.1 4.03975 15.31 4.21975L17.48 6.03975C17.69 6.21975 17.72 6.52975 17.54 6.73975L15.73 8.89975C15.63 9.01975 15.49 9.07975 15.35 9.07975C15.24 9.07975 15.12 9.03975 15.03 8.95975C14.82 8.77975 14.79 8.46975 14.97 8.25975L16.04 6.98975C16.03 6.98975 16.02 6.99975 16.01 6.99975C10.5 6.99975 6.01 11.4898 6.01 16.9998C6.01 22.5098 10.5 26.9998 16.01 26.9998C21.52 26.9998 26.01 22.5098 26.01 16.9998C26.01 12.9098 23.56 9.26975 19.76 7.72975C19.5 7.62975 19.38 7.32975 19.48 7.07975C19.58 6.81975 19.88 6.69975 20.13 6.79975C24.3 8.47975 27 12.4898 27 16.9898ZM15.85 16.6498C15.95 16.7398 16 16.8698 16 16.9998C16 17.1298 15.95 17.2598 15.85 17.3498L11.85 21.3498C11.75 21.4498 11.63 21.4998 11.5 21.4998C11.44 21.4998 11.37 21.4898 11.31 21.4598C11.12 21.3798 11 21.1998 11 20.9998V12.9998C11 12.7998 11.12 12.6198 11.31 12.5398C11.5 12.4598 11.71 12.5098 11.85 12.6498L15.85 16.6498ZM14.79 16.9998L12 14.2098V19.7998L14.79 16.9998ZM16 20.9998V16.9998V12.9998C16 12.7998 16.12 12.6198 16.31 12.5398C16.5 12.4598 16.71 12.5098 16.85 12.6498L20.85 16.6498C21.05 16.8498 21.05 17.1598 20.85 17.3598L16.85 21.3598C16.75 21.4598 16.63 21.5098 16.5 21.5098C16.44 21.5098 16.37 21.4998 16.31 21.4698C16.12 21.3798 16 21.1998 16 20.9998ZM17 19.7898L19.79 16.9998L17 14.2098V19.7898Z" fill="#202020"/>
</svg>
