<svg width="32" height="32" viewBox="0 0 32 32" fill="none" xmlns="http://www.w3.org/2000/svg">
<path d="M27 16.9898C27 23.0598 22.07 27.9898 16 27.9898C9.93 27.9898 5 23.0598 5 16.9898C5 10.9598 9.88 6.05975 15.89 5.99975L14.67 4.97975C14.46 4.79975 14.43 4.48975 14.61 4.27975C14.79 4.06975 15.1 4.03975 15.31 4.21975L17.48 6.03975C17.69 6.21975 17.72 6.52975 17.54 6.73975L15.73 8.89975C15.63 9.01975 15.49 9.07975 15.35 9.07975C15.24 9.07975 15.12 9.03975 15.03 8.95975C14.82 8.77975 14.79 8.46975 14.97 8.25975L16.04 6.98975C16.03 6.98975 16.02 6.99975 16.01 6.99975C10.5 6.99975 6.01 11.4898 6.01 16.9998C6.01 22.5098 10.5 26.9998 16.01 26.9998C21.52 26.9998 26.01 22.5098 26.01 16.9998C26.01 12.9098 23.56 9.26975 19.76 7.72975C19.5 7.62975 19.38 7.32975 19.48 7.07975C19.58 6.81975 19.88 6.69975 20.13 6.79975C24.3 8.47975 27 12.4898 27 16.9898ZM17 23.9998V23.4998C17 22.9498 16.55 22.4998 16 22.4998C15.45 22.4998 15 22.9498 15 23.4998V23.9998H12V10.9998H15V11.4998C15 12.0498 15.45 12.4998 16 12.4998C16.55 12.4998 17 12.0498 17 11.4998V10.9998H20V23.9998H17ZM17.94 22.9998H19V11.9998H17.94C17.72 12.8598 16.93 13.4998 16 13.4998C15.07 13.4998 14.29 12.8598 14.06 11.9998H13V22.9998H14.06C14.28 22.1398 15.07 21.4998 16 21.4998C16.93 21.4998 17.71 22.1398 17.94 22.9998ZM18 15.4998C18 15.2198 17.78 14.9998 17.5 14.9998H14.5C14.22 14.9998 14 15.2198 14 15.4998C14 15.7798 14.22 15.9998 14.5 15.9998H17.5C17.78 15.9998 18 15.7798 18 15.4998Z" fill="white"/>
</svg>
