<svg width="32" height="32" viewBox="0 0 32 32" fill="none" xmlns="http://www.w3.org/2000/svg">
<path d="M27 16.9898C27 23.0598 22.07 27.9898 16 27.9898C9.93 27.9898 5 23.0598 5 16.9898C5 10.9598 9.88 6.05975 15.89 5.99975L14.67 4.97975C14.46 4.79975 14.43 4.48975 14.61 4.27975C14.79 4.06975 15.1 4.03975 15.31 4.21975L17.48 6.03975C17.69 6.21975 17.72 6.52975 17.54 6.73975L15.73 8.89975C15.63 9.01975 15.49 9.07975 15.35 9.07975C15.24 9.07975 15.12 9.03975 15.03 8.95975C14.82 8.77975 14.79 8.46975 14.97 8.25975L16.04 6.98975C16.03 6.98975 16.02 6.99975 16.01 6.99975C10.5 6.99975 6.01 11.4898 6.01 16.9998C6.01 22.5098 10.5 26.9998 16.01 26.9998C21.52 26.9998 26.01 22.5098 26.01 16.9998C26.01 12.9098 23.56 9.26975 19.76 7.72975C19.5 7.62975 19.38 7.32975 19.48 7.07975C19.58 6.81975 19.88 6.69975 20.13 6.79975C24.3 8.47975 27 12.4898 27 16.9898ZM21.5 13.9998C22.33 13.9998 23 14.6698 23 15.4998V20.4998C23 21.3298 22.33 21.9998 21.5 21.9998H10.5C9.67 21.9998 9 21.3298 9 20.4998V15.4998C9 14.6698 9.67 13.9998 10.5 13.9998H21.5ZM21.5 14.9998H10.5C10.22 14.9998 10 15.2198 10 15.4998V20.4998C10 20.7798 10.22 20.9998 10.5 20.9998H21.5C21.78 20.9998 22 20.7798 22 20.4998V15.4998C22 15.2198 21.78 14.9998 21.5 14.9998ZM18.5 17.9998C18.5 19.3798 17.38 20.4998 16 20.4998C14.62 20.4998 13.5 19.3798 13.5 17.9998C13.5 16.6198 14.62 15.4998 16 15.4998C17.38 15.4998 18.5 16.6198 18.5 17.9998ZM17.5 17.9998C17.5 17.1698 16.83 16.4998 16 16.4998C15.17 16.4998 14.5 17.1698 14.5 17.9998C14.5 18.8298 15.17 19.4998 16 19.4998C16.83 19.4998 17.5 18.8298 17.5 17.9998ZM21.81 11.9998H10C9.72 11.9998 9.5 12.2198 9.5 12.4998C9.5 12.7798 9.72 12.9998 10 12.9998H21.81C22.09 12.9998 22.31 12.7798 22.31 12.4998C22.31 12.2198 22.08 11.9998 21.81 11.9998Z" fill="white"/>
</svg>
