<svg width="32" height="32" viewBox="0 0 32 32" fill="none" xmlns="http://www.w3.org/2000/svg">
<path d="M27 16.9898C27 23.0598 22.07 27.9898 16 27.9898C9.93 27.9898 5 23.0598 5 16.9898C5 10.9598 9.88 6.05975 15.89 5.99975L14.67 4.97975C14.46 4.79975 14.43 4.48975 14.61 4.27975C14.79 4.06975 15.1 4.03975 15.31 4.21975L17.48 6.03975C17.69 6.21975 17.72 6.52975 17.54 6.73975L15.73 8.89975C15.63 9.01975 15.49 9.07975 15.35 9.07975C15.24 9.07975 15.12 9.03975 15.03 8.95975C14.82 8.77975 14.79 8.46975 14.97 8.25975L16.04 6.98975C16.03 6.98975 16.02 6.99975 16.01 6.99975C10.5 6.99975 6.01 11.4898 6.01 16.9998C6.01 22.5098 10.5 26.9998 16.01 26.9998C21.52 26.9998 26.01 22.5098 26.01 16.9998C26.01 12.9098 23.56 9.26975 19.76 7.72975C19.5 7.62975 19.38 7.32975 19.48 7.07975C19.58 6.81975 19.88 6.69975 20.13 6.79975C24.3 8.47975 27 12.4898 27 16.9898ZM16 11.4998C19.03 11.4998 21.5 13.9698 21.5 16.9998C21.5 20.0298 19.03 22.4998 16 22.4998C12.97 22.4998 10.5 20.0298 10.5 16.9998C10.5 13.9698 12.97 11.4998 16 11.4998ZM11.5 16.9998C11.5 19.4798 13.52 21.4998 16 21.4998C18.48 21.4998 20.5 19.4798 20.5 16.9998C20.5 14.5198 18.48 12.4998 16 12.4998C13.52 12.4998 11.5 14.5198 11.5 16.9998ZM17 10.9998C17.28 10.9998 17.5 10.7798 17.5 10.4998C17.5 10.2198 17.28 9.99975 17 9.99975H15C14.72 9.99975 14.5 10.2198 14.5 10.4998C14.5 10.7798 14.72 10.9998 15 10.9998H17ZM16 17.4998C16.28 17.4998 16.5 17.2798 16.5 16.9998V13.9998C16.5 13.7198 16.28 13.4998 16 13.4998C15.72 13.4998 15.5 13.7198 15.5 13.9998V16.9998C15.5 17.2798 15.72 17.4998 16 17.4998Z" fill="#202020"/>
</svg>
