<svg width="32" height="32" viewBox="0 0 32 32" fill="none" xmlns="http://www.w3.org/2000/svg">
<path d="M27 16.9898C27 23.0598 22.07 27.9898 16 27.9898C9.93 27.9898 5 23.0598 5 16.9898C5 10.9598 9.88 6.05975 15.89 5.99975L14.67 4.97975C14.46 4.79975 14.43 4.48975 14.61 4.27975C14.79 4.06975 15.1 4.03975 15.31 4.21975L17.48 6.03975C17.69 6.21975 17.72 6.52975 17.54 6.73975L15.73 8.89975C15.63 9.01975 15.49 9.07975 15.35 9.07975C15.24 9.07975 15.12 9.03975 15.03 8.95975C14.82 8.77975 14.79 8.46975 14.97 8.25975L16.04 6.98975C16.03 6.98975 16.02 6.99975 16.01 6.99975C10.5 6.99975 6.01 11.4898 6.01 16.9998C6.01 22.5098 10.5 26.9998 16.01 26.9998C21.52 26.9998 26.01 22.5098 26.01 16.9998C26.01 12.9098 23.56 9.26975 19.76 7.72975C19.5 7.62975 19.38 7.32975 19.48 7.07975C19.58 6.81975 19.88 6.69975 20.13 6.79975C24.3 8.47975 27 12.4898 27 16.9898ZM20 12.0398V21.9998H21C21.28 21.9998 21.5 22.2198 21.5 22.4998C21.5 22.7798 21.28 22.9998 21 22.9998H11C10.72 22.9998 10.5 22.7798 10.5 22.4998C10.5 22.2198 10.72 21.9998 11 21.9998H12V12.0398C12 11.4698 12.43 10.9998 12.97 10.9998H19.04C19.57 10.9998 20 11.4598 20 12.0398ZM13 21.9998H19V12.0398L12.97 11.9998L13 21.9998ZM14 13.9998H18C18.28 13.9998 18.5 13.7798 18.5 13.4998C18.5 13.2198 18.28 12.9998 18 12.9998H14C13.72 12.9998 13.5 13.2198 13.5 13.4998C13.5 13.7798 13.72 13.9998 14 13.9998ZM18 14.9998H14C13.72 14.9998 13.5 15.2198 13.5 15.4998C13.5 15.7798 13.72 15.9998 14 15.9998H18C18.28 15.9998 18.5 15.7798 18.5 15.4998C18.5 15.2198 18.28 14.9998 18 14.9998ZM18 16.9998H14C13.72 16.9998 13.5 17.2198 13.5 17.4998C13.5 17.7798 13.72 17.9998 14 17.9998H18C18.28 17.9998 18.5 17.7798 18.5 17.4998C18.5 17.2198 18.28 16.9998 18 16.9998ZM18 18.9998H14C13.72 18.9998 13.5 19.2198 13.5 19.4998C13.5 19.7798 13.72 19.9998 14 19.9998H18C18.28 19.9998 18.5 19.7798 18.5 19.4998C18.5 19.2198 18.28 18.9998 18 18.9998Z" fill="#202020"/>
</svg>
