<svg width="32" height="32" viewBox="0 0 32 32" fill="none" xmlns="http://www.w3.org/2000/svg">
<path d="M20.8502 11.3514C20.7502 11.4514 20.6202 11.5014 20.5002 11.5014C20.3802 11.5014 20.2402 11.4514 20.1502 11.3514L16.5002 7.71141V22.5014C16.5002 22.7814 16.2802 23.0014 16.0002 23.0014C15.7202 23.0014 15.5002 22.7814 15.5002 22.5014V7.71141L11.8502 11.3614C11.6502 11.5614 11.3402 11.5614 11.1402 11.3614C10.9402 11.1614 10.9402 10.8514 11.1402 10.6514L15.6402 6.15141C15.6902 6.10141 15.7402 6.07141 15.8002 6.04141C15.9202 5.99141 16.0602 5.99141 16.1802 6.04141C16.2402 6.07141 16.3002 6.10141 16.3402 6.15141L20.8402 10.6514C21.0502 10.8414 21.0502 11.1614 20.8502 11.3514ZM18.0002 25.0014H14.0002C13.7202 25.0014 13.5002 25.2214 13.5002 25.5014C13.5002 25.7814 13.7202 26.0014 14.0002 26.0014H18.0002C18.2802 26.0014 18.5002 25.7814 18.5002 25.5014C18.5002 25.2214 18.2802 25.0014 18.0002 25.0014Z" fill="white"/>
</svg>
