<svg width="32" height="32" viewBox="0 0 32 32" fill="none" xmlns="http://www.w3.org/2000/svg">
<path d="M20.59 3.52C20.57 3.52 20.55 3.51 20.52 3.51C20.51 3.51 20.51 3.51 20.5 3.51C20.48 3.51 20.46 3.52 20.44 3.52C20.41 3.52 20.38 3.52 20.34 3.53C18.41 4.09 17 6.76 17 9.88C17 12.8 18.25 15.31 20 16.08V28C20 28.28 20.22 28.5 20.5 28.5C20.78 28.5 21 28.28 21 28V4C21 3.76 20.82 3.56 20.59 3.52ZM18 9.88C18 7.63 18.83 5.62 20 4.8V14.95C18.83 14.14 18 12.13 18 9.88ZM15.01 4V13.28C15.01 14.79 13.78 16.02 12.27 16.02H12V28C12 28.28 11.78 28.5 11.5 28.5C11.22 28.5 11 28.28 11 28V16.02H10.74C9.23 16.02 8 14.79 8 13.28V4C8 3.72 8.22 3.5 8.5 3.5C8.78 3.5 9 3.72 9 4V13.28C9 13.98 9.41 14.58 10.01 14.85V4.02C10.01 3.74 10.23 3.52 10.51 3.52C10.79 3.52 11 3.75 11 4.02V15.02H12V4.02C12 3.74 12.22 3.52 12.5 3.52C12.78 3.52 13 3.75 13 4.02V14.85C13.59 14.57 14.01 13.97 14.01 13.28V4C14.01 3.72 14.23 3.5 14.51 3.5C14.79 3.5 15.01 3.72 15.01 4Z" fill="white"/>
</svg>
