<svg width="32" height="32" viewBox="0 0 32 32" fill="none" xmlns="http://www.w3.org/2000/svg">
<path d="M27 16.99C27 23.06 22.07 27.99 16 27.99C9.93 27.99 5 23.06 5 16.99C5 12.49 7.7 8.48 11.87 6.79C12.12 6.69 12.42 6.81 12.52 7.07C12.62 7.33 12.5 7.62 12.24 7.72C8.45 9.26 6 12.9 6 16.99C6 22.5 10.49 26.99 16 26.99C21.51 26.99 26 22.5 26 16.99C26 11.48 21.51 6.99 16 6.99C15.99 6.99 15.98 6.98 15.97 6.98L17.04 8.25C17.22 8.46 17.19 8.78 16.98 8.95C16.89 9.03 16.77 9.07 16.66 9.07C16.52 9.07 16.38 9.01 16.28 8.89L14.46 6.72C14.37 6.62 14.33 6.49 14.34 6.36C14.35 6.23 14.42 6.11 14.52 6.02L16.69 4.2C16.9 4.02 17.22 4.05 17.39 4.26C17.57 4.47 17.54 4.79 17.33 4.96L16.11 6C22.12 6.05 27 10.96 27 16.99Z" fill="#202020"/>
</svg>
