<svg width="32" height="32" viewBox="0 0 32 32" fill="none" xmlns="http://www.w3.org/2000/svg">
<g clip-path="url(#clip0_188_7735)">
<path fill-rule="evenodd" clip-rule="evenodd" d="M12.2965 1.22293C12.4227 0.984662 12.7151 0.889384 12.9575 1.00755L16 2.491L19.0425 1.00755C19.2849 0.889384 19.5773 0.984662 19.7035 1.22293L21.2882 4.2145L24.61 4.79391C24.8756 4.84023 25.0566 5.08876 25.0193 5.35575L24.5506 8.70592L26.9024 11.1354C27.0899 11.329 27.0901 11.6363 26.903 11.8303L24.5505 14.2689L25.0193 17.6197C25.0566 17.8866 24.8756 18.1352 24.61 18.1815L22.5455 18.5416L25.0227 27.0555C25.0758 27.238 25.0209 27.4348 24.8809 27.5634C24.741 27.692 24.5402 27.7301 24.3629 27.6618L20.9082 26.3307L18.4467 29.8317C18.3325 29.994 18.1332 30.0735 17.9386 30.0342C17.7441 29.9949 17.5912 29.8442 17.5491 29.6503L15.9929 22.4906L14.4514 29.5762C14.4092 29.7701 14.2563 29.9207 14.0618 29.96C13.8672 29.9993 13.6679 29.9198 13.5538 29.7575L11.0922 26.2565L7.63757 27.5876C7.46023 27.6559 7.25948 27.6178 7.11952 27.4892C6.97957 27.3606 6.92461 27.1638 6.97771 26.9813L9.43422 18.5387L7.38108 18.1815C7.11492 18.1352 6.93368 17.8859 6.97177 17.6184L7.44895 14.2684L5.09696 11.8303C4.90986 11.6363 4.91013 11.329 5.09757 11.1354L7.44888 8.70647L6.97177 5.35698C6.93368 5.08953 7.11492 4.84018 7.38108 4.79387L10.7119 4.21438L12.2965 1.22293ZM16.649 20.8008L18.2842 28.3242L20.3147 25.4362C20.4467 25.2485 20.6894 25.1747 20.9035 25.2572L23.7806 26.3658L21.5543 18.7145L21.2882 18.7609L19.7035 21.7525C19.5773 21.9907 19.2849 22.086 19.0425 21.9679L16.649 20.8008ZM16.143 19.4487C16.2137 19.4641 16.2777 19.4937 16.3325 19.534L19.0461 20.8571L20.5191 18.0764C20.5914 17.9398 20.7228 17.8444 20.875 17.8179L23.9619 17.2794L23.5264 14.1663C23.5051 14.0141 23.555 13.8605 23.6617 13.7499L25.8479 11.4837L23.6623 9.22611C23.5552 9.11545 23.5051 8.9616 23.5264 8.80907L23.9619 5.69597L20.875 5.15754C20.7228 5.13099 20.5914 5.03557 20.5191 4.89903L19.0461 2.11831L16.2191 3.49669C16.0808 3.56413 15.9192 3.56413 15.7809 3.49669L12.9539 2.11831L11.4809 4.89903C11.4085 5.03563 11.277 5.13108 11.1247 5.15758L8.03015 5.69597L8.47341 8.80783C8.49519 8.96074 8.44508 9.11514 8.33765 9.22611L6.15213 11.4837L8.33826 13.7499C8.44528 13.8609 8.49515 14.015 8.47341 14.1676L8.03015 17.2794L9.98176 17.619C10.0583 17.6036 10.1395 17.606 10.2196 17.6293C10.2621 17.6416 10.3017 17.6591 10.3379 17.6809L11.1247 17.8178C11.277 17.8443 11.4085 17.9398 11.4809 18.0764L12.9539 20.8571L15.7809 19.4787C15.8932 19.4239 16.0209 19.4137 16.139 19.4478L16.143 19.4487ZM10.7119 18.761L10.4255 18.7112L8.21989 26.2915L11.097 25.183C11.3111 25.1005 11.5538 25.1743 11.6858 25.362L13.7164 28.2502L15.3355 20.8084L12.9575 21.9679C12.7151 22.086 12.4227 21.9907 12.2965 21.7525L10.7119 18.761ZM16.0003 6.54672C13.2744 6.54672 11.0642 8.7574 11.0642 11.4848C11.0642 14.2122 13.2744 16.4229 16.0003 16.4229C18.7262 16.4229 20.9363 14.2122 20.9363 11.4848C20.9363 8.7574 18.7262 6.54672 16.0003 6.54672ZM10.0642 11.4848C10.0642 8.20546 12.7217 5.54672 16.0003 5.54672C19.2788 5.54672 21.9363 8.20546 21.9363 11.4848C21.9363 14.7641 19.2788 17.4229 16.0003 17.4229C12.7217 17.4229 10.0642 14.7641 10.0642 11.4848ZM18.2809 10.311C18.4765 10.1161 18.477 9.79949 18.282 9.60391C18.0871 9.40832 17.7705 9.4078 17.5749 9.60275L15.4252 11.7454L14.2616 10.5813C14.0664 10.386 13.7498 10.386 13.5545 10.5812C13.3592 10.7764 13.3591 11.093 13.5544 11.2883L15.071 12.8055C15.266 13.0006 15.5822 13.0009 15.7776 12.8061L18.2809 10.311Z" fill="white"/>
</g>
<defs>
<clipPath id="clip0_188_7735">
<rect width="22" height="29" fill="white" transform="translate(5 1)"/>
</clipPath>
</defs>
</svg>
