<svg width="32" height="32" viewBox="0 0 32 32" fill="none" xmlns="http://www.w3.org/2000/svg">
<path d="M26.56 9.82L22.13 5.44C21.84 5.15 21.47 5 21.07 5H20.5H10.5H6.5C5.67 5 5 5.67 5 6.5V25.5C5 26.33 5.67 27 6.5 27H10.5H20.5H25.5C26.33 27 27 26.33 27 25.5V10.88C27 10.49 26.84 10.1 26.56 9.82ZM20 6V11H11V6H20ZM11 26V17H20V26H11ZM26 25.5C26 25.78 25.78 26 25.5 26H21V16.5C21 16.22 20.78 16 20.5 16H10.5C10.22 16 10 16.22 10 16.5V26H6.5C6.22 26 6 25.78 6 25.5V6.5C6 6.22 6.22 6 6.5 6H10V11.5C10 11.78 10.22 12 10.5 12H20.5C20.78 12 21 11.78 21 11.5V6H21.07C21.2 6 21.33 6.05 21.42 6.15L25.85 10.53C25.94 10.62 26 10.75 26 10.89V25.5ZM17 9.5V7.5C17 7.22 17.22 7 17.5 7C17.78 7 18 7.22 18 7.5V9.5C18 9.78 17.78 10 17.5 10C17.22 10 17 9.78 17 9.5Z" fill="white"/>
</svg>
