<svg width="32" height="32" viewBox="0 0 32 32" fill="none" xmlns="http://www.w3.org/2000/svg">
<path d="M21 15.5C21 15.78 20.78 16 20.5 16C20.22 16 20 15.78 20 15.5L19.99 13.71L13.71 20H15.5C15.78 20 16 20.22 16 20.5C16 20.78 15.78 21 15.5 21L12.51 20.99C12.5 20.99 12.5 20.99 12.49 20.99C12.43 20.99 12.37 20.98 12.32 20.95C12.26 20.93 12.21 20.89 12.17 20.85C12.17 20.85 12.16 20.85 12.16 20.84C12.16 20.84 12.16 20.83 12.15 20.83C12.11 20.79 12.07 20.74 12.05 20.68C12.03 20.63 12.02 20.58 12.02 20.53C12.02 20.52 12.01 20.51 12.01 20.49L12 17.5C12 17.22 12.22 17 12.5 17C12.78 17 13 17.22 13 17.5L13.01 19.29L19.29 13H17.5C17.22 13 17 12.77 17 12.5C17 12.22 17.22 12 17.5 12L20.49 12.01C20.54 12.01 20.59 12.03 20.64 12.04C20.65 12.04 20.67 12.04 20.68 12.05C20.74 12.08 20.8 12.11 20.84 12.16C20.87 12.19 20.88 12.22 20.9 12.25C20.91 12.27 20.93 12.29 20.94 12.32C20.97 12.39 20.98 12.46 20.98 12.53L21 15.5ZM16.5 26H15.5C15.22 26 15 26.22 15 26.5C15 26.78 15.22 27 15.5 27H16.5C16.78 27 17 26.78 17 26.5C17 26.22 16.78 26 16.5 26ZM17.5 6H14.5C14.22 6 14 6.22 14 6.5C14 6.78 14.22 7 14.5 7H17.5C17.78 7 18 6.78 18 6.5C18 6.22 17.78 6 17.5 6ZM23 24.66V26.5C23 27.88 21.88 29 20.5 29H11.5C10.12 29 9 27.88 9 26.5V6.5C9 5.12 10.12 4 11.5 4H20.5C21.88 4 23 5.12 23 6.5V24.24C23.03 24.3 23.05 24.37 23.05 24.45C23.05 24.53 23.03 24.6 23 24.66ZM10 23.95H22V8.95H10V23.95ZM10 7.95H22V6.5C22 5.67 21.33 5 20.5 5H11.5C10.67 5 10 5.67 10 6.5V7.95ZM22 26.5V24.95H10V26.5C10 27.33 10.67 28 11.5 28H20.5C21.33 28 22 27.33 22 26.5Z" fill="#202020"/>
</svg>
