<svg width="32" height="32" viewBox="0 0 32 32" fill="none" xmlns="http://www.w3.org/2000/svg">
<path d="M25.35 24.65L20.13 19.43C21.29 18.11 22 16.39 22 14.5C22 10.36 18.64 7 14.5 7C10.36 7 7 10.36 7 14.5C7 18.64 10.36 22 14.5 22C16.39 22 18.11 21.29 19.43 20.14L24.65 25.36C24.75 25.46 24.88 25.51 25 25.51C25.12 25.51 25.26 25.46 25.35 25.36C25.55 25.16 25.55 24.84 25.35 24.65ZM8 14.5C8 10.92 10.92 8 14.5 8C18.08 8 21 10.92 21 14.5C21 18.08 18.08 21 14.5 21C10.92 21 8 18.08 8 14.5Z" fill="white"/>
</svg>
