<svg width="32" height="32" viewBox="0 0 32 32" fill="none" xmlns="http://www.w3.org/2000/svg">
<path d="M12.85 12.15C13.04 12.35 13.04 12.66 12.85 12.86L9 16.68C8.81 16.88 8.54 17 8.24 17C7.94 17 7.67 16.88 7.47 16.67L6.14 15.28C5.95 15.08 5.96 14.76 6.16 14.57C6.36 14.38 6.68 14.39 6.87 14.59L8.2 15.98L8.31 15.97L12.16 12.15C12.34 11.95 12.66 11.95 12.85 12.15ZM15 11.5V17.5C15 18.88 13.88 20 12.5 20H6.5C5.12 20 4 18.88 4 17.5V11.5C4 10.12 5.12 9 6.5 9H12.5C13.88 9 15 10.12 15 11.5ZM14 11.5C14 10.67 13.33 10 12.5 10H6.5C5.67 10 5 10.67 5 11.5V17.5C5 18.33 5.67 19 6.5 19H12.5C13.33 19 14 18.33 14 17.5V11.5ZM28.02 11.5V17.5C28.02 18.88 26.9 20 25.52 20H19.52C18.14 20 17.02 18.88 17.02 17.5V11.5C17.02 10.12 18.14 9 19.52 9H25.52C26.9 9 28.02 10.12 28.02 11.5ZM27.02 11.5C27.02 10.67 26.35 10 25.52 10H19.52C18.69 10 18.02 10.67 18.02 11.5V17.5C18.02 18.33 18.69 19 19.52 19H25.52C26.35 19 27.02 18.33 27.02 17.5V11.5ZM24.85 12.15C24.65 11.95 24.34 11.95 24.14 12.15L22.49 13.8L20.84 12.15C20.64 11.95 20.33 11.95 20.13 12.15C19.93 12.35 19.93 12.66 20.13 12.86L21.78 14.51L20.13 16.16C19.93 16.36 19.93 16.67 20.13 16.87C20.23 16.97 20.36 17.02 20.48 17.02C20.6 17.02 20.74 16.97 20.83 16.87L22.48 15.22L24.13 16.87C24.23 16.97 24.36 17.02 24.48 17.02C24.6 17.02 24.74 16.97 24.83 16.87C25.03 16.67 25.03 16.36 24.83 16.16L23.18 14.51L24.83 12.86C25.05 12.66 25.05 12.34 24.85 12.15Z" fill="#202020"/>
</svg>
