<svg width="24" height="24" viewBox="0 0 24 24" fill="none" xmlns="http://www.w3.org/2000/svg">
<path d="M11.6216 3.62586C5.65278 5.61925 0.701426 7.28431 0.621716 7.32652C0.406032 7.43909 0.148149 7.75803 0.0590621 8.03007C-0.137867 8.62574 0.176282 9.36213 0.72487 9.59195C0.809268 9.62478 3.21461 10.3236 6.07008 11.1398C8.93024 11.9559 11.2934 12.6454 11.3215 12.6782C11.3543 12.7063 12.0436 15.0703 12.8594 17.9313C13.6753 20.7878 14.3739 23.1939 14.4067 23.2783C14.6365 23.8224 15.3257 24.1273 15.94 23.949C16.2354 23.8599 16.5542 23.6066 16.6808 23.3581C16.8449 23.0344 24 1.473 24 1.30415C24 0.595909 23.3764 -0.013834 22.6684 0.000236511C22.5465 0.000236511 18.4485 1.34636 11.6216 3.62586ZM16.4933 6.59014L11.6826 11.4024L6.55303 9.93903C3.73038 9.1323 1.40474 8.46158 1.37661 8.44751C1.3391 8.42406 21.1211 1.79194 21.2571 1.78256C21.2805 1.77787 19.1377 3.9448 16.4933 6.59014ZM18.8986 12.7063C17.07 18.1846 15.5649 22.6498 15.5508 22.6264C15.5367 22.5982 14.8662 20.2718 14.0598 17.4482L12.5969 12.317L17.3935 7.51883C20.0333 4.87818 22.1948 2.72532 22.2042 2.7347C22.2089 2.73939 20.7225 7.22803 18.8986 12.7063Z" fill="black"/>
</svg>
