<svg width="32" height="32" viewBox="0 0 32 32" fill="none" xmlns="http://www.w3.org/2000/svg">
<path d="M27.5 5H4.5C4.22 5 4 5.22 4 5.5V11.5C4 11.78 4.22 12 4.5 12H27.5C27.78 12 28 11.78 28 11.5V5.5C28 5.22 27.78 5 27.5 5ZM27 11H5V6H27V11ZM21.5 8.5C21.5 8.22 21.72 8 22 8H24.5C24.78 8 25 8.22 25 8.5C25 8.78 24.78 9 24.5 9H22C21.72 9 21.5 8.78 21.5 8.5ZM27.5 13H4.5C4.22 13 4 13.22 4 13.5V19.5C4 19.78 4.22 20 4.5 20H27.5C27.78 20 28 19.78 28 19.5V13.5C28 13.22 27.78 13 27.5 13ZM27 19H5V14H27V19ZM21.5 16.5C21.5 16.22 21.72 16 22 16H24.5C24.78 16 25 16.22 25 16.5C25 16.78 24.78 17 24.5 17H22C21.72 17 21.5 16.78 21.5 16.5ZM27.5 21H4.5C4.22 21 4 21.22 4 21.5V27.5C4 27.78 4.22 28 4.5 28H27.5C27.78 28 28 27.78 28 27.5V21.5C28 21.22 27.78 21 27.5 21ZM27 27H5V22H27V27ZM21.5 24.5C21.5 24.22 21.72 24 22 24H24.5C24.78 24 25 24.22 25 24.5C25 24.78 24.78 25 24.5 25H22C21.72 25 21.5 24.78 21.5 24.5Z" fill="white"/>
</svg>
