<svg width="32" height="32" viewBox="0 0 32 32" fill="none" xmlns="http://www.w3.org/2000/svg">
<path d="M15.3696 16.01C15.6196 15.79 15.8596 15.55 16.0696 15.3L17.2896 15.65C17.3796 15.68 17.4696 15.69 17.5596 15.69C17.9596 15.69 18.3296 15.45 18.4896 15.07L18.9896 13.84C19.1796 13.37 18.9896 12.82 18.5296 12.58L17.4096 11.98C17.4396 11.65 17.4396 11.31 17.4096 10.98L18.5196 10.37C18.9696 10.12 19.1596 9.57 18.9496 9.1L18.4196 7.88C18.2596 7.51 17.8896 7.28 17.4996 7.28C17.3996 7.28 17.2996 7.29 17.2096 7.32L15.9996 7.68C15.7796 7.42 15.5396 7.19 15.2896 6.98L15.6396 5.76C15.7796 5.27 15.5296 4.74 15.0496 4.55L13.8296 4.07C13.6996 4.02 13.5696 4 13.4496 4C13.0896 4 12.7396 4.2 12.5696 4.53L11.9796 5.65C11.8296 5.64 11.6896 5.63 11.5396 5.63C11.3596 5.63 11.1696 5.64 10.9896 5.66L10.3696 4.54C10.1896 4.21 9.84964 4.03 9.49964 4.03C9.36964 4.03 9.23964 4.06 9.10964 4.11L7.86964 4.62C7.39964 4.83 7.15964 5.35 7.29964 5.84L7.66964 7.05C7.41964 7.27 7.17964 7.51 6.96964 7.76L5.75964 7.41C5.66964 7.39 5.57964 7.37 5.47964 7.37C5.07964 7.37 4.69964 7.61 4.54964 8L4.06964 9.24C3.87964 9.71 4.07964 10.25 4.52964 10.49L5.64964 11.08C5.61964 11.41 5.61964 11.74 5.64964 12.08L4.52964 12.7C4.07964 12.95 3.89964 13.5 4.09964 13.97L4.61964 15.19C4.77964 15.57 5.14964 15.8 5.53964 15.8C5.63964 15.8 5.73964 15.79 5.82964 15.76L7.03964 15.39C7.25964 15.65 7.49964 15.88 7.75964 16.1L7.39964 17.3C7.24964 17.8 7.50964 18.32 7.98964 18.51L9.21964 18.99C9.33964 19.04 9.45964 19.06 9.58964 19.06C9.94964 19.06 10.2996 18.86 10.4696 18.53L11.0596 17.41C11.2196 17.42 11.3896 17.43 11.5496 17.43C11.7196 17.43 11.8896 17.42 12.0596 17.41L12.6796 18.53C12.8596 18.86 13.1996 19.04 13.5496 19.04C13.6796 19.04 13.8196 19.01 13.9496 18.96L15.1696 18.43C15.6396 18.23 15.8796 17.71 15.7296 17.22L15.3696 16.01ZM14.5396 15.4C14.4396 15.47 14.3696 15.58 14.3396 15.69C14.2996 15.81 14.2996 15.93 14.3396 16.04L14.7896 17.51L13.5696 18.04L12.8196 16.7C12.7596 16.59 12.6696 16.51 12.5696 16.45C12.4896 16.41 12.3896 16.38 12.2996 16.38C12.2696 16.38 12.2496 16.38 12.2196 16.39C11.9996 16.42 11.7896 16.43 11.5696 16.43C11.3496 16.43 11.1396 16.42 10.9196 16.39C10.8996 16.39 10.8696 16.39 10.8496 16.39C10.7596 16.39 10.6596 16.41 10.5796 16.46C10.4696 16.52 10.3896 16.6 10.3296 16.71L9.59964 18.06L8.36964 17.58L8.80964 16.1C8.83964 15.98 8.83964 15.86 8.79964 15.75C8.75964 15.64 8.68964 15.54 8.58964 15.47C8.23964 15.21 7.92964 14.9 7.66964 14.56C7.59964 14.46 7.48964 14.39 7.37964 14.36C7.31964 14.34 7.25964 14.33 7.19964 14.33C7.13964 14.33 7.07964 14.34 7.02964 14.36L5.55964 14.81L5.03964 13.59L6.37964 12.84C6.48964 12.78 6.56964 12.69 6.62964 12.59C6.68964 12.48 6.70964 12.36 6.68964 12.24C6.62964 11.81 6.62964 11.37 6.68964 10.94C6.69964 10.82 6.67964 10.7 6.62964 10.59C6.56964 10.48 6.48964 10.4 6.37964 10.34L4.99964 9.6L5.47964 8.37L6.95964 8.8C7.00964 8.81 7.06964 8.82 7.11964 8.82C7.18964 8.82 7.24964 8.81 7.30964 8.79C7.42964 8.75 7.52964 8.68 7.59964 8.58C7.85964 8.23 8.16964 7.92 8.50964 7.66C8.60964 7.59 8.67964 7.48 8.70964 7.37C8.74964 7.25 8.74964 7.13 8.70964 7.02L8.25964 5.54L9.47964 5.02L10.2196 6.36C10.2696 6.47 10.3596 6.56 10.4696 6.62C10.5596 6.67 10.6496 6.69 10.7496 6.69C10.7796 6.69 10.7996 6.69 10.8296 6.69C11.0596 6.66 11.2896 6.64 11.5296 6.64C11.7296 6.64 11.9296 6.65 12.1296 6.68C12.1496 6.68 12.1796 6.68 12.1996 6.68C12.2996 6.68 12.3896 6.66 12.4696 6.61C12.5796 6.55 12.6696 6.47 12.7196 6.36L13.4496 5L14.6696 5.48L14.2496 6.96C14.2196 7.08 14.2196 7.2 14.2596 7.31C14.2996 7.42 14.3696 7.52 14.4696 7.6C14.8196 7.86 15.1296 8.17 15.3896 8.51C15.4596 8.61 15.5596 8.68 15.6796 8.71C15.7396 8.73 15.7996 8.74 15.8596 8.74C15.9196 8.74 15.9796 8.73 16.0396 8.71L17.5096 8.26L18.0396 9.48L16.6996 10.23C16.5996 10.29 16.5096 10.38 16.4596 10.49C16.4096 10.6 16.3896 10.72 16.3996 10.84C16.4596 11.27 16.4596 11.71 16.3996 12.13C16.3896 12.25 16.4096 12.37 16.4596 12.48C16.5196 12.59 16.5996 12.68 16.7096 12.73L18.0696 13.45L17.5696 14.68L16.0896 14.26C16.0396 14.25 15.9796 14.24 15.9296 14.24C15.8696 14.24 15.7996 14.25 15.7396 14.27C15.6296 14.31 15.5296 14.38 15.4496 14.48C15.1796 14.82 14.8796 15.13 14.5396 15.4ZM11.4996 8C9.56964 8 7.99964 9.57 7.99964 11.5C7.99964 13.43 9.56964 15 11.4996 15C13.4296 15 14.9996 13.43 14.9996 11.5C14.9996 9.57 13.4296 8 11.4996 8ZM11.4996 14C10.1196 14 8.99964 12.88 8.99964 11.5C8.99964 10.12 10.1196 9 11.4996 9C12.8796 9 13.9996 10.12 13.9996 11.5C13.9996 12.88 12.8796 14 11.4996 14ZM27.1296 20.57L26.3696 20.48C26.3196 20.34 26.2696 20.21 26.2096 20.07L26.6996 19.48C27.0296 19.08 26.9996 18.5 26.6396 18.14L25.9496 17.44C25.7596 17.24 25.4996 17.14 25.2396 17.14C25.0196 17.14 24.7996 17.21 24.6196 17.36L24.0196 17.84C23.8896 17.78 23.7496 17.72 23.6196 17.67L23.5496 16.91C23.4996 16.4 23.0696 16.01 22.5596 16H21.5896C21.0796 16 20.6496 16.38 20.5996 16.89L20.5096 17.65C20.3696 17.7 20.2396 17.75 20.1096 17.81L19.5096 17.31C19.3196 17.16 19.0996 17.08 18.8696 17.08C18.6196 17.08 18.3596 17.18 18.1696 17.37L17.4696 18.06C17.1096 18.42 17.0696 18.99 17.3896 19.39L17.8696 19.99C17.8096 20.12 17.7496 20.26 17.6996 20.39L16.9396 20.46C16.4296 20.51 16.0296 20.94 16.0296 21.46V22.43C16.0296 22.94 16.4096 23.37 16.9196 23.42L17.6796 23.51C17.7296 23.65 17.7796 23.78 17.8396 23.91L17.3496 24.51C17.0296 24.91 17.0496 25.48 17.4096 25.85L18.0996 26.55C18.2896 26.75 18.5496 26.85 18.8096 26.85C19.0296 26.85 19.2496 26.78 19.4296 26.63L20.0296 26.15C20.1596 26.21 20.2996 26.27 20.4396 26.32L20.5096 27.07C20.5096 27.6 20.9396 28 21.4596 28H22.4296C22.9396 28 23.3696 27.62 23.4196 27.11L23.5096 26.35C23.6496 26.3 23.7796 26.25 23.9196 26.19L24.5196 26.69C24.7096 26.84 24.9296 26.92 25.1596 26.92C25.4196 26.92 25.6696 26.82 25.8696 26.63L26.5596 25.94C26.9196 25.58 26.9496 25.01 26.6396 24.61L26.1596 24.01C26.2196 23.88 26.2796 23.74 26.3296 23.61L27.0896 23.54C27.5996 23.49 27.9896 23.07 27.9896 22.56L27.9996 21.58C28.0196 21.06 27.6296 20.63 27.1296 20.57ZM26.9996 22.54L25.8696 22.65C25.7796 22.66 25.6996 22.69 25.6296 22.75C25.5596 22.81 25.5096 22.88 25.4896 22.97C25.3996 23.28 25.2796 23.57 25.1196 23.85C25.0696 23.93 25.0496 24.02 25.0596 24.1C25.0696 24.19 25.0996 24.27 25.1496 24.34L25.8596 25.23L25.1696 25.92L24.2896 25.2C24.2196 25.14 24.1396 25.11 24.0496 25.1C24.0396 25.1 24.0196 25.1 24.0096 25.1C23.9396 25.1 23.8596 25.12 23.7996 25.16C23.5196 25.32 23.2196 25.43 22.9096 25.51C22.8196 25.53 22.7496 25.58 22.6896 25.65C22.6296 25.72 22.5896 25.8 22.5796 25.89L22.4396 27H21.4696L21.3696 25.87C21.3596 25.78 21.3196 25.7 21.2696 25.63C21.2096 25.56 21.1296 25.51 21.0496 25.49C20.7396 25.4 20.4496 25.28 20.1696 25.12C20.0996 25.08 20.0196 25.06 19.9496 25.06C19.9396 25.06 19.9296 25.06 19.9196 25.06C19.8296 25.07 19.7496 25.1 19.6796 25.15L18.7896 25.85L18.0996 25.15L18.8196 24.28C18.8796 24.21 18.9096 24.13 18.9196 24.04C18.9296 23.95 18.9096 23.86 18.8696 23.78C18.7096 23.5 18.5996 23.2 18.5196 22.89C18.4996 22.8 18.4496 22.73 18.3796 22.67C18.3096 22.61 18.2296 22.57 18.1396 22.56L16.9996 22.43V21.46L18.1296 21.36C18.2196 21.35 18.2996 21.32 18.3696 21.26C18.4396 21.2 18.4896 21.13 18.5096 21.04C18.5996 20.73 18.7196 20.44 18.8796 20.16C18.9296 20.08 18.9496 19.99 18.9396 19.91C18.9296 19.82 18.8996 19.74 18.8496 19.67L18.1396 18.78L18.8396 18.09L19.7096 18.81C19.7796 18.87 19.8596 18.91 19.9496 18.92C19.9696 18.92 19.9796 18.92 19.9996 18.92C20.0696 18.92 20.1496 18.9 20.2096 18.87C20.4896 18.71 20.7796 18.59 21.0896 18.51C21.1796 18.49 21.2496 18.44 21.3096 18.37C21.3696 18.3 21.4096 18.22 21.4196 18.13L21.5596 17H22.5296L22.6396 18.13C22.6496 18.22 22.6796 18.3 22.7396 18.37C22.7996 18.44 22.8696 18.49 22.9596 18.51C23.2696 18.6 23.5596 18.72 23.8396 18.88C23.9096 18.92 23.9896 18.94 24.0596 18.94C24.0696 18.94 24.0796 18.94 24.0896 18.94C24.1796 18.93 24.2596 18.9 24.3296 18.84L25.2196 18.14L25.9096 18.84L25.1896 19.71C25.1296 19.78 25.0996 19.86 25.0896 19.95C25.0796 20.04 25.0996 20.13 25.1496 20.2C25.3096 20.48 25.4196 20.78 25.4996 21.09C25.5196 21.18 25.5696 21.25 25.6396 21.31C25.7096 21.37 25.7896 21.41 25.8796 21.42L27.0096 21.55L26.9996 22.54ZM22.7996 20.17C22.3096 19.96 21.7696 19.95 21.2696 20.14C20.7696 20.34 20.3796 20.71 20.1696 21.2C19.9596 21.69 19.9496 22.23 20.1396 22.73C20.3296 23.23 20.7096 23.62 21.1996 23.83C21.4596 23.94 21.7296 24 21.9996 24C22.2496 24 22.4996 23.95 22.7296 23.86C23.2296 23.66 23.6196 23.29 23.8296 22.8C24.0396 22.31 24.0496 21.77 23.8596 21.27C23.6696 20.77 23.2896 20.38 22.7996 20.17ZM22.9196 22.4C22.8096 22.64 22.6196 22.83 22.3696 22.93C22.1196 23.03 21.8496 23.02 21.6096 22.92C21.3696 22.81 21.1796 22.62 21.0796 22.37C20.9796 22.12 20.9896 21.85 21.0896 21.61C21.1896 21.37 21.3896 21.18 21.6396 21.08C21.7496 21.02 21.8796 21 21.9996 21C22.1296 21 22.2696 21.03 22.3996 21.08C22.6396 21.19 22.8296 21.38 22.9296 21.63C23.0296 21.88 23.0196 22.16 22.9196 22.4Z" fill="#202020"/>
</svg>
