<svg width="32" height="32" viewBox="0 0 32 32" fill="none" xmlns="http://www.w3.org/2000/svg">
<path d="M27.5 11H17.81C17.12 8.09 14.51 6 11.5 6C7.91999 6 4.99999 8.92 4.99999 12.5C4.99999 14.44 5.86999 16.26 7.34999 17.49L3.68999 21.15C3.54999 21.29 3.49999 21.51 3.57999 21.69C3.65999 21.88 3.83999 22 4.03999 22H14V24.5C14 24.78 14.22 25 14.5 25H27.5C27.78 25 28 24.78 28 24.5V11.5C28 11.22 27.78 11 27.5 11ZM5.99999 12.5C5.99999 9.47 8.46999 7 11.5 7C13.96 7 16.11 8.66 16.77 11H14.5C14.22 11 14 11.22 14 11.5V13.79L12.88 12.67C12.68 12.47 12.37 12.47 12.17 12.67L8.05999 16.78C6.76999 15.74 5.99999 14.17 5.99999 12.5ZM8.31999 17.93C8.40999 17.89 8.49999 17.84 8.55999 17.75C8.57999 17.72 8.58999 17.68 8.60999 17.64L12.53 13.72L19.79 21H5.24999L8.31999 17.93ZM27 24H15V22H21C21.2 22 21.38 21.88 21.46 21.69C21.54 21.5 21.49 21.29 21.35 21.15L14.93 14.73C14.97 14.66 15 14.58 15 14.5V12H27V24Z" fill="white"/>
</svg>
