<svg width="32" height="32" viewBox="0 0 32 32" fill="none" xmlns="http://www.w3.org/2000/svg">
<path d="M24.4 11H20.5V8.5C20.5 6.02 18.48 4 16 4C13.52 4 11.5 6.02 11.5 8.5V11H7.6C6.17 11 5 12.07 5 13.42L5.88 24.86C5.99 26.62 7.6 28 9.53 28H23.52C25.92 28 26.05 25.88 26.11 24.87L27 13.38C27 12.07 25.83 11 24.4 11ZM12.5 8.5C12.5 6.57 14.07 5 16 5C17.93 5 19.5 6.57 19.5 8.5V11H12.5V8.5ZM25.12 24.8C25.02 26.46 24.63 27 23.52 27H9.53C8.12 27 6.96 26.03 6.88 24.79L6 13.38C6 12.62 6.72 12 7.6 12H11.5V14.5C11.5 14.78 11.72 15 12 15C12.28 15 12.5 14.78 12.5 14.5V12H19.5V14.5C19.5 14.78 19.72 15 20 15C20.28 15 20.5 14.78 20.5 14.5V12H24.4C25.28 12 26 12.62 26 13.34L25.12 24.8Z" fill="#202020"/>
</svg>
