<svg width="32" height="32" viewBox="0 0 32 32" fill="none" xmlns="http://www.w3.org/2000/svg">
<path d="M24.56 8.85L20.15 4.44C19.87 4.16 19.48 4 19.09 4H8.5C7.67 4 7 4.67 7 5.5V26.5C7 27.33 7.67 28 8.5 28H23.5C24.33 28 25 27.33 25 26.5V9.91C25 9.51 24.84 9.14 24.56 8.85ZM24 26.5C24 26.78 23.78 27 23.5 27H8.5C8.22 27 8 26.78 8 26.5V5.5C8 5.22 8.22 5 8.5 5H19.09C19.22 5 19.35 5.05 19.44 5.15L23.85 9.56C23.95 9.65 24 9.78 24 9.91V26.5ZM21.5 16H16.5H10.5C10.22 16 10 16.22 10 16.5V19.5V24.5C10 24.78 10.22 25 10.5 25H14.5H16.5H21.5C21.78 25 22 24.78 22 24.5V21.5V16.5C22 16.22 21.78 16 21.5 16ZM21 17V21H17V17H21ZM16 17V21.5V24H15V19.5C15 19.22 14.78 19 14.5 19H11V17H16ZM11 24V20H14V24H11ZM21 24H17V22H21V24Z" fill="#202020"/>
</svg>
