<svg width="32" height="32" viewBox="0 0 32 32" fill="none" xmlns="http://www.w3.org/2000/svg">
<path d="M19.5 5H12.5C8.36 5 5 8.36 5 12.5V19.5C5 23.64 8.36 27 12.5 27H19.5C23.64 27 27 23.64 27 19.5V12.5C27 8.36 23.64 5 19.5 5ZM26 19.5C26 23.08 23.08 26 19.5 26H12.5C8.92 26 6 23.08 6 19.5V12.5C6 8.92 8.92 6 12.5 6H19.5C23.08 6 26 8.92 26 12.5V19.5ZM16 10.5C12.97 10.5 10.5 12.97 10.5 16C10.5 19.03 12.97 21.5 16 21.5C19.03 21.5 21.5 19.03 21.5 16C21.5 12.97 19.03 10.5 16 10.5ZM16 20.5C13.52 20.5 11.5 18.48 11.5 16C11.5 13.52 13.52 11.5 16 11.5C18.48 11.5 20.5 13.52 20.5 16C20.5 18.48 18.48 20.5 16 20.5ZM23 10C23 10.55 22.55 11 22 11C21.45 11 21 10.55 21 10C21 9.45 21.45 9 22 9C22.55 9 23 9.45 23 10Z" fill="white"/>
</svg>
