<svg width="32" height="32" viewBox="0 0 32 32" fill="none" xmlns="http://www.w3.org/2000/svg">
<path d="M26.38 9.69C26.24 9.52 26 9.46 25.8 9.55C25.62 9.63 25.43 9.71 25.24 9.77C25.52 9.37 25.75 8.93 25.9 8.46C25.96 8.26 25.9 8.05 25.74 7.92C25.58 7.79 25.35 7.77 25.17 7.88C24.44 8.31 23.66 8.62 22.85 8.81C21.96 7.98 20.78 7.5 19.55 7.5C16.9 7.5 14.74 9.65 14.74 12.29C14.74 12.43 14.75 12.58 14.76 12.72C11.68 12.4 8.83001 10.87 6.86001 8.46C6.76001 8.33 6.60001 8.26 6.43001 8.28C6.26001 8.3 6.12001 8.39 6.03001 8.53C5.60001 9.26 5.38001 10.09 5.38001 10.94C5.38001 11.9 5.67001 12.82 6.18001 13.59C6.15001 13.57 6.11001 13.56 6.08001 13.54C5.92001 13.46 5.74001 13.49 5.59001 13.57C5.44001 13.66 5.35001 13.85 5.35001 14.03C5.35001 15.55 6.08001 16.95 7.23001 17.83C7.14001 17.86 7.05001 17.91 6.98001 17.98C6.86001 18.11 6.83001 18.3 6.88001 18.46C7.37001 19.98 8.57001 21.12 10.05 21.58C8.55001 22.43 6.76001 22.77 5.06001 22.57C4.83001 22.53 4.61001 22.68 4.53001 22.9C4.45001 23.12 4.54001 23.37 4.73001 23.49C6.79001 24.8 9.17001 25.49 11.6 25.49C19.59 25.49 24.36 19.03 24.36 12.78C24.36 12.68 24.36 12.57 24.36 12.47C25.16 11.86 25.85 11.13 26.42 10.28C26.54 10.1 26.53 9.86 26.38 9.69ZM23.56 11.83C23.42 11.93 23.34 12.09 23.35 12.26C23.36 12.44 23.36 12.61 23.36 12.79C23.36 18.55 18.96 24.5 11.6 24.5C10.02 24.5 8.48001 24.19 7.04001 23.58C8.73001 23.4 10.32 22.75 11.69 21.69C11.86 21.56 11.92 21.34 11.86 21.14C11.79 20.94 11.61 20.8 11.4 20.8C10.04 20.77 8.82001 20.04 8.17001 18.9C8.61001 18.88 9.03001 18.84 9.45001 18.73C9.67001 18.67 9.82001 18.46 9.82001 18.23C9.81001 18 9.65001 17.8 9.42001 17.76C7.91001 17.46 6.75001 16.27 6.45001 14.78C6.89001 14.93 7.35001 15.01 7.81001 15.02C8.02001 15.02 8.23001 14.88 8.30001 14.67C8.37001 14.46 8.29001 14.23 8.10001 14.1C7.04001 13.39 6.41001 12.21 6.41001 10.94C6.41001 10.51 6.48001 10.09 6.62001 9.69C8.88001 12.12 12.02 13.6 15.35 13.77C15.52 13.78 15.66 13.71 15.76 13.59C15.86 13.47 15.9 13.31 15.86 13.16C15.79 12.87 15.76 12.58 15.76 12.29C15.76 10.2 17.47 8.5 19.57 8.5C20.64 8.5 21.62 8.92 22.35 9.7C22.47 9.82 22.64 9.88 22.81 9.85C23.31 9.75 23.8 9.61 24.28 9.43C24.01 9.76 23.68 10.04 23.3 10.26C23.1 10.38 23.01 10.63 23.08 10.85C23.16 11.07 23.38 11.22 23.61 11.18C23.93 11.14 24.24 11.09 24.54 11.02C24.22 11.32 23.9 11.58 23.56 11.83Z" fill="#202020"/>
</svg>
