<svg width="32" height="32" viewBox="0 0 32 32" fill="none" xmlns="http://www.w3.org/2000/svg">
<path d="M16 5C9.93 5 5 9.93 5 16C5 17.95 5.54 19.77 6.43 21.36L5.02 26.39C4.95 26.64 5.1 26.91 5.35 26.98C5.43 27 5.51 27 5.59 26.98L10.84 25.68C12.38 26.51 14.13 27 16 27C22.07 27 27 22.07 27 16C27 9.93 22.07 5 16 5ZM16 26.04C14.22 26.04 12.55 25.58 11.1 24.76C10.99 24.7 10.87 24.68 10.75 24.71L6.16 25.85L7.39 21.45C7.43 21.32 7.41 21.19 7.34 21.08C6.46 19.6 5.96 17.86 5.96 16C5.96 10.45 10.45 5.96 16 5.96C21.55 5.96 26.04 10.45 26.04 16C26.04 21.55 21.55 26.04 16 26.04ZM21.37 17.8C21.22 17.73 20.81 17.52 20.39 17.33C19.97 17.13 19.61 16.96 19.39 16.88C19.25 16.83 19.08 16.76 18.83 16.78C18.58 16.8 18.34 16.99 18.2 17.2C18.07 17.4 17.52 18.04 17.36 18.23C17.36 18.23 17.37 18.24 17.31 18.2C17.11 18.1 16.85 18.01 16.48 17.82C16.11 17.63 15.65 17.34 15.14 16.89C14.38 16.23 13.86 15.39 13.69 15.11C13.7 15.1 13.69 15.11 13.71 15.09C13.88 14.92 14.03 14.72 14.16 14.57C14.34 14.36 14.42 14.18 14.51 14.01C14.68 13.67 14.59 13.29 14.49 13.09C14.5 13.1 14.44 12.97 14.37 12.81C14.3 12.65 14.22 12.45 14.13 12.24C13.95 11.81 13.75 11.33 13.63 11.05C13.49 10.72 13.3 10.48 13.05 10.36C12.8 10.24 12.58 10.28 12.57 10.28C12.39 10.27 12.2 10.27 12.01 10.27C11.7 10.27 11.27 10.38 10.91 10.77C10.69 11 9.79 11.88 9.79 13.42C9.79 15.03 10.9 16.41 11.04 16.59C11.03 16.57 11.21 16.84 11.46 17.16C11.71 17.48 12.05 17.9 12.48 18.35C13.34 19.26 14.56 20.31 16.06 20.95C16.75 21.25 17.3 21.42 17.71 21.55C18.48 21.79 19.18 21.75 19.7 21.68C20.09 21.62 20.53 21.43 20.95 21.16C21.38 20.89 21.8 20.55 21.98 20.04C22.11 19.67 22.18 19.33 22.2 19.06C22.21 18.92 22.21 18.8 22.2 18.68C22.19 18.57 22.2 18.48 22.09 18.3C21.88 17.94 21.63 17.93 21.37 17.8ZM21.25 18.98C21.23 19.17 21.18 19.44 21.08 19.72C21.03 19.86 20.77 20.15 20.44 20.36C20.11 20.57 19.71 20.72 19.56 20.74C19.11 20.81 18.58 20.83 17.99 20.65C17.58 20.52 17.08 20.36 16.42 20.08C15.09 19.51 13.96 18.55 13.16 17.7C12.76 17.28 12.43 16.88 12.2 16.58C11.97 16.28 11.87 16.13 11.79 16.02C11.64 15.82 10.73 14.56 10.73 13.43C10.73 12.23 11.29 11.76 11.59 11.43C11.75 11.26 11.92 11.23 11.99 11.23C12.17 11.23 12.36 11.23 12.51 11.24C12.58 11.24 12.62 11.25 12.63 11.25C12.65 11.27 12.68 11.32 12.73 11.43C12.85 11.71 13.05 12.19 13.23 12.62C13.32 12.84 13.4 13.04 13.47 13.2C13.54 13.36 13.57 13.45 13.62 13.53C13.66 13.61 13.66 13.56 13.64 13.59C13.54 13.79 13.53 13.84 13.42 13.96C13.26 14.14 13.11 14.34 13.02 14.42C12.95 14.49 12.81 14.6 12.73 14.82C12.65 15.04 12.69 15.34 12.82 15.57C13 15.87 13.58 16.82 14.49 17.62C15.06 18.12 15.59 18.46 16.02 18.68C16.44 18.9 16.79 19.03 16.87 19.07C17.05 19.16 17.25 19.23 17.49 19.2C17.72 19.17 17.93 19.03 18.05 18.89C18.22 18.7 18.73 18.12 18.97 17.76C18.98 17.76 18.98 17.76 19.06 17.79C19.1 17.8 19.56 18.01 19.97 18.21C20.38 18.41 20.8 18.61 20.94 18.68C21.14 18.78 21.23 18.84 21.25 18.84C21.26 18.86 21.26 18.91 21.25 18.98Z" fill="white"/>
</svg>
