<svg width="32" height="32" viewBox="0 0 32 32" fill="none" xmlns="http://www.w3.org/2000/svg">
<path d="M24.8204 20.3817C24.0504 18.9017 22.5004 17.4117 21.7504 16.6917L21.6104 16.5617L21.7304 16.4117C23.1504 14.7217 24.0804 12.8817 24.4804 11.7217C24.6204 11.3117 24.5504 10.8617 24.2904 10.5117C24.0704 10.2117 23.7504 10.0317 23.4104 10.0317H21.9604C21.4004 10.0317 20.8904 10.3317 20.6804 10.7817C19.5504 13.2917 18.5504 14.2217 17.7804 14.9417L17.4404 15.2617V11.3917C17.4404 10.6617 16.8804 10.0517 16.2104 10.0417H13.6604C13.3804 10.0417 13.1204 10.2117 12.9704 10.5017C12.8004 10.8317 12.8104 11.2217 13.0004 11.5017L13.4904 12.2117C13.6004 12.3617 13.6604 12.5517 13.6604 12.7417L13.6704 16.1217L13.3104 15.7117C12.2504 14.5017 11.1504 12.0017 10.8204 10.9417C10.6504 10.3917 10.1804 10.0217 9.65041 10.0117H8.21041C7.85041 10.0117 7.51041 10.1917 7.27041 10.5017C7.00041 10.8517 6.91041 11.3117 7.02041 11.7317C7.78041 14.6017 8.83041 16.9417 10.1404 18.6817C11.7504 20.8117 13.7504 22.0217 16.0704 22.2717C16.1104 22.2717 16.1504 22.2817 16.1904 22.2817C16.8704 22.2817 17.4404 21.6517 17.4404 20.9017V19.0717C17.4404 18.8517 17.5904 18.6717 17.8304 18.6717C18.2104 18.6717 18.8704 19.1217 19.4204 19.7717C19.9504 20.3917 20.4304 21.1617 20.6804 21.6317C20.9004 22.0417 21.3004 22.2917 21.7404 22.2917H23.7804C24.1604 22.2917 24.5104 22.0717 24.7304 21.7117C25.0004 21.2917 25.0304 20.7817 24.8204 20.3817ZM24.0904 21.1817C24.0304 21.2717 23.9304 21.3317 23.8004 21.3317H21.7604C21.6204 21.3317 21.4904 21.2517 21.4204 21.1317C21.2404 20.7917 20.7504 19.9217 20.0504 19.1017C19.4304 18.3817 18.7404 17.7117 17.8504 17.7117H17.7904C17.1404 17.7317 16.6204 18.3317 16.6204 19.0617V20.8917C16.6204 21.1317 16.4504 21.3217 16.1804 21.3217C14.0504 21.0917 12.2904 20.0217 10.8104 18.0617C9.57041 16.4217 8.58041 14.2017 7.85041 11.4617C7.81041 11.3317 7.83041 11.2017 7.90041 11.1017C7.97041 11.0117 8.09041 10.9517 8.22041 10.9517H9.66041C9.84041 10.9517 9.98041 11.0617 10.0304 11.2317C10.3904 12.4217 11.4404 15.0517 12.8504 16.5317C13.0304 16.7217 13.2804 16.8317 13.5404 16.8317C13.6704 16.8317 13.7904 16.8017 13.9004 16.7617C14.2604 16.6017 14.5104 16.1917 14.5104 15.7617L14.5004 12.7217C14.5004 12.3217 14.3804 11.9317 14.1604 11.6117L13.7104 10.9717H16.2004C16.4204 10.9717 16.5904 11.1417 16.5904 11.3717V14.8117C16.5904 15.4817 17.1504 15.9317 17.6704 15.9317C17.9004 15.9317 18.1204 15.8417 18.3004 15.6817C18.9704 15.0517 20.2204 13.8917 21.4304 11.1917C21.5004 10.9917 21.6804 10.9717 21.9504 10.9717H23.4004L23.6004 11.0017L23.6604 11.0917C23.7204 11.1717 23.7204 11.2717 23.6904 11.3817C23.3204 12.4617 22.4104 14.2717 21.0404 15.8617C20.6904 16.2717 20.7204 16.9417 21.1004 17.3117C21.7904 17.9717 23.4504 19.6317 24.0804 20.8517C24.1704 21.0117 24.1204 21.1317 24.0904 21.1817Z" fill="#202020"/>
</svg>
