<svg width="32" height="32" viewBox="0 0 32 32" fill="none" xmlns="http://www.w3.org/2000/svg">
<path d="M15.04 11.86C15.04 11.32 15.47 10.89 16 10.89C16.53 10.89 16.96 11.33 16.96 11.86C16.96 12.4 16.53 12.83 16 12.83C15.47 12.83 15.04 12.4 15.04 11.86ZM10.26 10.89C9.73 10.89 9.3 11.33 9.3 11.86C9.3 12.4 9.73 12.83 10.26 12.83C10.79 12.83 11.22 12.39 11.22 11.86C11.22 11.33 10.79 10.89 10.26 10.89ZM18.15 16.73C17.77 16.73 17.43 17.07 17.43 17.46C17.43 17.85 17.76 18.19 18.15 18.19C18.54 18.19 18.87 17.85 18.87 17.46C18.87 17.07 18.54 16.73 18.15 16.73ZM22.46 16.73C22.08 16.73 21.74 17.07 21.74 17.46C21.74 17.85 22.07 18.19 22.46 18.19C22.84 18.19 23.18 17.85 23.18 17.46C23.18 17.07 22.84 16.73 22.46 16.73ZM24.96 22.81L25.87 26L22.6 24.14C21.89 24.35 21.13 24.51 20.31 24.51C17.6 24.51 15.23 23.1 14.19 21.04C13.84 21.08 13.5 21.11 13.14 21.11C12.22 21.11 11.32 20.97 10.5 20.71L6.53 23.21L7.8 19.33C6.1 18.03 5 16.19 5 14.05C5 10.09 8.7 7 13.13 7C17.11 7 20.49 9.49 21.14 12.89C24.41 13.25 27 15.65 27 18.67C27 20.32 26.19 21.77 24.96 22.81ZM13.61 18.67C13.61 15.44 16.57 12.91 20.16 12.84C19.5 10.09 16.62 7.97 13.13 7.97C9.14 7.97 5.96 10.71 5.96 14.05C5.96 15.97 6.96 17.61 8.62 18.75L8.92 18.96L8.27 20.96L10.36 19.65L10.57 19.73C11.32 20 12.23 20.14 13.14 20.14C13.37 20.14 13.6 20.13 13.83 20.11C13.69 19.65 13.61 19.17 13.61 18.67ZM23.87 22.47L24.14 22.27C25.33 21.37 26.05 20.11 26.05 18.67C26.05 16.01 23.54 13.81 20.31 13.81C17.08 13.81 14.57 16.02 14.57 18.67C14.57 21.32 17.08 23.53 20.31 23.53C21.12 23.53 21.88 23.39 22.55 23.17L22.75 23.1L24.3 23.99L23.87 22.47Z" fill="white"/>
</svg>
