<svg width="32" height="32" viewBox="0 0 32 32" fill="none" xmlns="http://www.w3.org/2000/svg">
<path d="M8.94953 10.9195C10.2895 10.9195 11.3795 9.81953 11.3795 8.46953C11.3795 7.11953 10.2895 6.01953 8.94953 6.01953C7.60953 6.01953 6.51953 7.11953 6.51953 8.46953C6.51953 9.81953 7.60953 10.9195 8.94953 10.9195ZM8.94953 7.02953C9.73953 7.02953 10.3795 7.67953 10.3795 8.47953C10.3795 9.27953 9.73953 9.92953 8.94953 9.92953C8.15953 9.92953 7.51953 9.27953 7.51953 8.47953C7.51953 7.67953 8.15953 7.02953 8.94953 7.02953ZM10.9795 12.5895H7.01953C6.73953 12.5895 6.51953 12.8095 6.51953 13.0895V25.4995C6.51953 25.7795 6.73953 25.9995 7.01953 25.9995H10.9795C11.2595 25.9995 11.4795 25.7795 11.4795 25.4995V13.0895C11.4795 12.8095 11.2595 12.5895 10.9795 12.5895ZM10.4795 24.9995H7.51953V13.5895H10.4795V24.9995ZM20.6695 12.2695C19.2995 12.2695 18.2395 12.7795 17.5095 13.4295V13.0795C17.5095 12.7995 17.2895 12.5795 17.0095 12.5795H13.3595C13.0795 12.5795 12.8595 12.7995 12.8595 13.0795V25.4995C12.8595 25.7795 13.0795 25.9995 13.3595 25.9995H17.1695C17.4495 25.9995 17.6695 25.7795 17.6695 25.4995V19.3595C17.6695 17.3995 18.1495 16.6695 19.4595 16.6695C20.7195 16.6695 20.9395 17.5695 20.9395 19.4595V25.4995C20.9395 25.7795 21.1595 25.9995 21.4395 25.9995H25.2495C25.5295 25.9995 25.7495 25.7795 25.7495 25.4995V18.6895C25.7395 15.5095 25.1395 12.2695 20.6695 12.2695ZM24.7395 24.9995H21.9295V19.4595C21.9295 18.1295 21.9295 15.6695 19.4495 15.6695C16.6595 15.6695 16.6595 18.3495 16.6595 19.3595V24.9995H13.8495V13.5795H16.4995V14.7795C16.4995 15.2395 17.2795 15.4195 17.4995 15.0095C17.9195 14.2095 18.9995 13.2695 20.6595 13.2695C24.0495 13.2695 24.7295 15.3395 24.7295 18.6795V24.9995H24.7395Z" fill="white"/>
</svg>
