<svg width="32" height="32" viewBox="0 0 32 32" fill="none" xmlns="http://www.w3.org/2000/svg">
<path d="M16 5C9.93 5 5 9.94 5 16.02C5 21.54 9.06 26.11 14.36 26.9L14.93 26.99V18.3H12.33V16.54H14.93V14.2C14.93 12.76 15.28 11.81 15.85 11.21C16.42 10.61 17.27 10.31 18.44 10.31C19.38 10.31 19.75 10.37 20.09 10.41V11.85H18.87C18.18 11.85 17.61 12.24 17.31 12.75C17.01 13.26 16.92 13.88 16.92 14.51V16.52H19.98L19.71 18.28H16.92V27L17.49 26.92C22.86 26.19 27 21.59 27 16.02C27 9.94 22.07 5 16 5ZM17.92 25.8V19.31H20.57L21.15 15.54H17.92V14.53C17.92 14.01 18.01 13.54 18.17 13.27C18.33 13 18.48 12.87 18.86 12.87H21.08V9.51L20.65 9.45C20.35 9.41 19.67 9.31 18.43 9.31C17.08 9.31 15.92 9.68 15.12 10.51C14.32 11.34 13.92 12.59 13.92 14.19V15.53H11.32V19.3H13.92V25.76C9.41 24.81 6 20.84 6 16.02C6 10.48 10.47 6 16 6C21.53 6 26 10.48 26 16.02C26 20.89 22.52 24.9 17.92 25.8Z" fill="#202020"/>
</svg>
