<svg width="32" height="32" viewBox="0 0 32 32" fill="none" xmlns="http://www.w3.org/2000/svg">
<path d="M19.51 9.32859H21.99V5.00859L21.54 4.95859C20.58 4.85859 19.61 4.80859 18.67 4.80859C15.32 4.80859 13.25 6.87859 13.25 10.2786V12.5586H10V17.3286H13.25V26.9686H18.12V17.3186H21.33L21.95 12.5486H18.14V10.6486C18.14 9.71859 18.33 9.32859 19.51 9.32859ZM20.81 13.5586L20.45 16.3286H17.11V25.9786H14.24V16.3386H11V13.5686H14.25V10.2886C14.25 7.48859 15.87 5.81859 18.59 5.81859C19.39 5.81859 20.18 5.84859 20.99 5.91859V8.32859H19.51C17.39 8.32859 17.14 9.65859 17.14 10.6586V13.5586H20.81Z" fill="white"/>
</svg>
