<svg width="32" height="32" viewBox="0 0 32 32" fill="none" xmlns="http://www.w3.org/2000/svg">
<path d="M25.5 19H18V13.5C19.53 12.72 20.5 11.18 20.5 9.5C20.5 7.02 18.48 5 16 5C13.52 5 11.5 7.02 11.5 9.5C11.5 11.24 12.47 12.79 14 13.54V19H6.5C5.67 19 5 19.67 5 20.5V22.5C5 22.78 5.22 23 5.5 23H26.5C26.78 23 27 22.78 27 22.5V20.5C27 19.67 26.33 19 25.5 19ZM26 22H6V20.5C6 20.22 6.22 20 6.5 20H14.5C14.78 20 15 19.78 15 19.5V13.22C15 13.02 14.88 12.83 14.69 12.76C13.36 12.23 12.5 10.95 12.5 9.51C12.5 7.57 14.07 6 16 6C17.93 6 19.5 7.57 19.5 9.5C19.5 10.87 18.62 12.17 17.31 12.73C17.12 12.8 17 13.03 17 13.23V19.5C17 19.78 17.22 20 17.5 20H25.5C25.78 20 26 20.22 26 20.5V22ZM27 25.5C27 25.78 26.78 26 26.5 26H5.5C5.22 26 5 25.78 5 25.5C5 25.22 5.22 25 5.5 25H26.5C26.78 25 27 25.22 27 25.5Z" fill="#202020"/>
</svg>
