<svg width="32" height="32" viewBox="0 0 32 32" fill="none" xmlns="http://www.w3.org/2000/svg">
<path d="M23.02 9.71L23.87 8.86C24.07 8.66 24.07 8.35 23.87 8.15C23.67 7.95 23.36 7.95 23.16 8.15L22.24 9.07C20.62 7.87 18.64 7.12 16.5 7.02V5H18.5C18.78 5 19 4.78 19 4.5C19 4.22 18.78 4 18.5 4H13.5C13.22 4 13 4.22 13 4.5C13 4.78 13.22 5 13.5 5H15.5V7.03C9.94 7.29 5.5 11.88 5.5 17.5C5.5 23.29 10.21 28 16 28C21.79 28 26.5 23.29 26.5 17.5C26.5 14.41 25.15 11.64 23.02 9.71ZM16 27C10.76 27 6.5 22.74 6.5 17.5C6.5 12.26 10.76 8 16 8C21.24 8 25.5 12.26 25.5 17.5C25.5 22.74 21.24 27 16 27ZM16.5 10.5V17.5C16.5 17.78 16.28 18 16 18C15.72 18 15.5 17.78 15.5 17.5V10.5C15.5 10.22 15.72 10 16 10C16.28 10 16.5 10.22 16.5 10.5Z" fill="white"/>
</svg>
