<svg width="32" height="32" viewBox="0 0 32 32" fill="none" xmlns="http://www.w3.org/2000/svg">
<path d="M26.5 3.99922H21H9.71C9.65 3.96922 9.58 3.94922 9.5 3.94922C9.42 3.94922 9.35 3.96922 9.29 3.99922H4.5C3.67 3.99922 3 4.66922 3 5.49922V10.3292C3 11.7592 3.83 13.0392 5 13.6392V26.4992C5 27.3292 5.67 27.9992 6.5 27.9992H17.5H22.5H24.5C25.33 27.9992 26 27.3292 26 26.4992V13.6492C26.33 13.4892 26.64 13.2992 26.91 13.0392C27.61 12.3692 28 11.4692 28 10.4992V5.49922C28 4.66922 27.33 3.99922 26.5 3.99922ZM21.01 10.4492C21.01 10.4692 21 10.4892 21 10.4992C21 11.8792 19.88 12.9992 18.5 12.9992C17.12 12.9992 16 11.8792 16 10.4992V4.99922H21V10.3292C21 10.3692 21.01 10.4092 21.01 10.4492ZM10 4.99922H15V10.4992C15 11.8792 13.88 12.9992 12.5 12.9992C11.12 12.9992 10 11.8792 10 10.4992V4.99922ZM4 10.3292V5.49922C4 5.21922 4.22 4.99922 4.5 4.99922H9V10.4992C9 11.1892 8.72 11.8392 8.22 12.3092C7.72 12.7892 7.05 13.0292 6.36 12.9892C5.06 12.9292 4 11.7292 4 10.3292ZM18 26.9992V18.9992H22V26.9992H18ZM25 26.4992C25 26.7792 24.78 26.9992 24.5 26.9992H23V18.4992C23 18.2192 22.78 17.9992 22.5 17.9992H17.5C17.22 17.9992 17 18.2192 17 18.4992V26.9992H6.5C6.22 26.9992 6 26.7792 6 26.4992V13.9492C6.1 13.9692 6.21 13.9892 6.31 13.9992C6.37 13.9992 6.44 13.9992 6.5 13.9992C7.4 13.9992 8.25 13.6592 8.91 13.0392C9.15 12.8092 9.34 12.5492 9.5 12.2692C10.11 13.2992 11.22 13.9992 12.5 13.9992C13.78 13.9992 14.89 13.2992 15.5 12.2692C16.11 13.2992 17.22 13.9992 18.5 13.9992C19.8 13.9992 20.92 13.2792 21.53 12.2292C22.12 13.2292 23.15 13.9392 24.32 13.9992C24.38 13.9992 24.45 13.9992 24.51 13.9992C24.68 13.9992 24.84 13.9792 25.01 13.9492V26.4992H25ZM27 10.4992C27 11.1892 26.72 11.8392 26.22 12.3092C25.72 12.7892 25.05 13.0292 24.36 12.9892C23.06 12.9192 21.99 11.7292 21.99 10.3192V4.99922H26.49C26.78 4.99922 27 5.21922 27 5.49922V10.4992Z" fill="white"/>
</svg>
