<svg width="32" height="32" viewBox="0 0 32 32" fill="none" xmlns="http://www.w3.org/2000/svg">
<path d="M26.5 9H20V8.5C20 7.12 18.88 6 17.5 6H14.5C13.12 6 12 7.12 12 8.5V9H5.5C4.67 9 4 9.67 4 10.5V24.5C4 25.33 4.67 26 5.5 26H26.5C27.33 26 28 25.33 28 24.5V10.5C28 9.67 27.33 9 26.5 9ZM13 8.5C13 7.67 13.68 7 14.5 7H17.5C18.33 7 19 7.67 19 8.5V9H13V8.5ZM27 24.5C27 24.78 26.78 25 26.5 25H5.5C5.22 25 5 24.78 5 24.5V10.5C5 10.22 5.22 10 5.5 10H12H13H19H20H26.5C26.78 10 27 10.22 27 10.5V24.5Z" fill="white"/>
</svg>
