<svg width="32" height="32" viewBox="0 0 32 32" fill="none" xmlns="http://www.w3.org/2000/svg">
<path d="M27.96 20.6883C27.93 20.7483 27.9 20.8083 27.85 20.8483L24.85 23.8483C24.75 23.9483 24.62 23.9983 24.5 23.9983C24.38 23.9983 24.24 23.9483 24.15 23.8483C23.95 23.6483 23.95 23.3383 24.15 23.1383L26.29 20.9983H21.33C20.66 20.9983 20.04 20.7383 19.56 20.2683L16 16.7083L12.44 20.2683C11.97 20.7383 11.34 20.9983 10.67 20.9983H4.5C4.22 20.9983 4 20.7783 4 20.4983C4 20.2183 4.22 19.9983 4.5 19.9983H10.67C11.07 19.9983 11.45 19.8383 11.73 19.5583L15.29 15.9983L11.73 12.4383C11.45 12.1583 11.07 11.9983 10.67 11.9983H4.5C4.22 11.9983 4 11.7783 4 11.4983C4 11.2183 4.22 10.9983 4.5 10.9983H10.67C11.34 10.9983 11.97 11.2583 12.44 11.7283L16 15.2883L19.56 11.7283C20.03 11.2583 20.66 10.9983 21.33 10.9983H26.29L24.14 8.84828C23.94 8.64828 23.94 8.33828 24.14 8.13828C24.34 7.93828 24.65 7.93828 24.85 8.13828L27.85 11.1383C27.9 11.1883 27.93 11.2383 27.96 11.2983C28.01 11.4183 28.01 11.5583 27.96 11.6783C27.93 11.7383 27.9 11.7983 27.85 11.8383L24.85 14.8383C24.75 14.9383 24.62 14.9883 24.5 14.9883C24.38 14.9883 24.24 14.9383 24.15 14.8383C23.95 14.6383 23.95 14.3283 24.15 14.1283L26.29 11.9983H21.33C20.94 11.9983 20.55 12.1583 20.27 12.4383L16.71 15.9983L20.27 19.5583C20.55 19.8383 20.94 19.9983 21.33 19.9983H26.29L24.14 17.8483C23.94 17.6483 23.94 17.3383 24.14 17.1383C24.34 16.9383 24.65 16.9383 24.85 17.1383L27.85 20.1383C27.9 20.1883 27.93 20.2383 27.96 20.2983C28.01 20.4283 28.01 20.5683 27.96 20.6883Z" fill="#202020"/>
</svg>
