<svg width="32" height="32" viewBox="0 0 32 32" fill="none" xmlns="http://www.w3.org/2000/svg">
<path d="M23.5602 23.8116V23.8216L23.1202 26.5516C23.0802 26.8016 22.8702 26.9716 22.6302 26.9716C22.6002 26.9716 22.5802 26.9716 22.5502 26.9616C22.2802 26.9216 22.0902 26.6616 22.1302 26.3916L22.3602 24.9616C20.4602 26.3116 18.2402 26.9816 16.0202 26.9816C13.0202 26.9816 10.0302 25.7616 7.86025 23.3616C4.37025 19.5016 4.07025 13.6616 7.14025 9.48158C7.30025 9.26158 7.62025 9.21158 7.84025 9.37158C8.06025 9.53158 8.11025 9.85158 7.95025 10.0716C5.15025 13.8816 5.43025 19.1816 8.60025 22.6916C12.0602 26.5216 17.8402 27.0416 21.9202 24.0516L20.2502 23.7816C19.9802 23.7416 19.7902 23.4816 19.8302 23.2116C19.8702 22.9416 20.1202 22.7616 20.4002 22.7916L23.1302 23.2316C23.4102 23.2916 23.5902 23.5316 23.5602 23.8116C23.5602 23.8016 23.5602 23.8016 23.5602 23.8116ZM24.1702 8.61158C20.4002 4.44158 14.1402 3.84158 9.67025 7.01158L9.91025 5.50158C9.95025 5.24158 9.77025 4.98158 9.50025 4.94158C9.22025 4.89158 8.97025 5.08158 8.92025 5.36158L8.49025 8.09158C8.49025 8.10158 8.49025 8.11158 8.49025 8.12158C8.46025 8.27158 8.49025 8.42158 8.60025 8.54158C8.72025 8.68158 8.91025 8.72158 9.08025 8.69158L11.6302 9.10158C11.6602 9.10158 11.6802 9.11158 11.7102 9.11158C11.9502 9.11158 12.1602 8.93158 12.2002 8.69158C12.2402 8.42158 12.0602 8.16158 11.7802 8.12158L10.2002 7.87158C14.2902 4.95158 20.0002 5.49158 23.4302 9.28158C26.6002 12.7916 26.8802 18.0916 24.0802 21.9016C23.9202 22.1216 23.9602 22.4416 24.1902 22.6016C24.2802 22.6716 24.3802 22.7016 24.4902 22.7016C24.6402 22.7016 24.7902 22.6316 24.8902 22.5016C27.9702 18.3116 27.6702 12.4716 24.1702 8.61158Z" fill="#202020"/>
</svg>
