<svg width="32" height="32" viewBox="0 0 32 32" fill="none" xmlns="http://www.w3.org/2000/svg">
<path d="M24.4696 17.48L22.9696 16.68C23.0196 16.19 23.0196 15.69 22.9696 15.2L24.4496 14.38C24.8996 14.13 25.0896 13.58 24.8796 13.11L24.2296 11.61C24.0696 11.24 23.6996 11.01 23.3096 11.01C23.2096 11.01 23.1096 11.02 23.0196 11.05L21.3896 11.55C21.0696 11.17 20.7196 10.82 20.3296 10.51L20.7996 8.88C20.9396 8.39 20.6896 7.86 20.2096 7.67L18.7096 7.08C18.5996 7.02 18.4796 7 18.3496 7C17.9896 7 17.6396 7.2 17.4696 7.53L16.6696 9.03C16.4596 9.01 16.2296 9 15.9996 9C15.7396 9 15.4696 9.02 15.1996 9.05L14.3596 7.54C14.1796 7.21 13.8396 7.03 13.4896 7.03C13.3596 7.03 13.2296 7.06 13.0996 7.11L11.5996 7.75C11.1296 7.95 10.8896 8.47 11.0396 8.96L11.5396 10.59C11.1596 10.91 10.8096 11.26 10.4996 11.65L8.86964 11.18C8.77964 11.15 8.67964 11.14 8.58964 11.14C8.18964 11.14 7.80964 11.38 7.65964 11.77L7.06964 13.28C6.87964 13.75 7.07964 14.29 7.52964 14.53L9.02964 15.33C8.97964 15.82 8.97964 16.31 9.02964 16.8L7.53964 17.64C7.08964 17.89 6.90964 18.44 7.10964 18.91L7.74964 20.41C7.90964 20.77 8.26964 21 8.66964 21C8.76964 21 8.86964 20.99 8.95964 20.96L10.5896 20.46C10.9096 20.84 11.2596 21.19 11.6496 21.5L11.1696 23.12C11.0196 23.62 11.2796 24.14 11.7596 24.33L13.2696 24.92C13.3896 24.97 13.5096 24.99 13.6396 24.99C13.9996 24.99 14.3496 24.79 14.5196 24.46L15.3196 22.96C15.5496 22.99 15.7996 23 16.0496 23C16.2996 23 16.5496 22.99 16.7896 22.96L17.6196 24.46C17.7996 24.79 18.1396 24.97 18.4896 24.97C18.6196 24.97 18.7596 24.94 18.8896 24.89L20.3796 24.24C20.8496 24.04 21.0896 23.52 20.9396 23.03L20.4396 21.41C20.8196 21.1 21.1696 20.74 21.4796 20.35L23.1096 20.82C23.1996 20.85 23.2896 20.86 23.3796 20.86C23.7796 20.86 24.1496 20.62 24.3096 20.24L24.9196 18.74C25.1196 18.26 24.9196 17.72 24.4696 17.48ZM23.3896 19.86L21.5796 19.34C21.5196 19.32 21.4496 19.31 21.3796 19.31C21.2996 19.31 21.2196 19.32 21.1496 19.35C21.0096 19.4 20.8896 19.48 20.7996 19.6C20.4796 20.03 20.1096 20.41 19.6896 20.73C19.5696 20.82 19.4896 20.95 19.4396 21.09C19.3996 21.23 19.3896 21.38 19.4396 21.52L19.9896 23.32L18.4996 23.97L17.5796 22.32C17.5096 22.19 17.3996 22.08 17.2696 22.01C17.1696 21.96 17.0496 21.93 16.9396 21.93C16.9096 21.93 16.8696 21.93 16.8396 21.94C16.5796 21.98 16.3096 21.99 16.0496 21.99C15.7796 21.99 15.5196 21.97 15.2596 21.94C15.2296 21.94 15.1996 21.93 15.1696 21.93C15.0496 21.93 14.9396 21.96 14.8296 22.01C14.6996 22.08 14.5896 22.18 14.5196 22.31L13.6296 24L12.1196 23.41L12.6596 21.6C12.6996 21.46 12.6896 21.31 12.6396 21.17C12.5896 21.03 12.4996 20.91 12.3796 20.82C11.9496 20.5 11.5696 20.13 11.2496 19.71C11.1596 19.59 11.0396 19.51 10.8896 19.46C10.8196 19.44 10.7396 19.43 10.6696 19.43C10.5996 19.43 10.5296 19.44 10.4596 19.46L8.66964 20L8.02964 18.5L9.66964 17.58C9.79964 17.51 9.90964 17.4 9.97964 17.27C10.0496 17.14 10.0696 16.99 10.0496 16.84C9.97964 16.31 9.97964 15.78 10.0496 15.25C10.0696 15.1 10.0396 14.96 9.96964 14.82C9.89964 14.69 9.79964 14.58 9.66964 14.51L7.99964 13.64L8.58964 12.13L10.3996 12.65C10.4596 12.67 10.5296 12.68 10.5996 12.68C10.6796 12.68 10.7596 12.67 10.8396 12.64C10.9796 12.59 11.0996 12.5 11.1896 12.39C11.5096 11.97 11.8796 11.59 12.2996 11.26C12.4196 11.17 12.4996 11.05 12.5496 10.9C12.5896 10.76 12.5996 10.61 12.5496 10.47L11.9996 8.67L13.4996 8.03L14.4096 9.67C14.4796 9.81 14.5796 9.92 14.7196 9.99C14.8296 10.05 14.9396 10.08 15.0596 10.08C15.0896 10.08 15.1196 10.08 15.1496 10.07C15.4296 10.02 15.7196 10 15.9996 10C16.2396 10 16.4896 10.02 16.7296 10.05C16.7596 10.05 16.7896 10.06 16.8196 10.06C16.9396 10.06 17.0496 10.03 17.1596 9.98C17.2896 9.91 17.3996 9.81 17.4696 9.68L18.3496 8L19.8496 8.59L19.3296 10.4C19.2896 10.54 19.2896 10.69 19.3396 10.83C19.3896 10.97 19.4796 11.09 19.5896 11.18C20.0196 11.5 20.3996 11.87 20.7196 12.29C20.8096 12.41 20.9296 12.49 21.0796 12.54C21.1496 12.56 21.2196 12.57 21.2996 12.57C21.3696 12.57 21.4496 12.56 21.5196 12.54L23.3196 11.99L23.9696 13.49L22.3196 14.4C22.1896 14.47 22.0896 14.58 22.0196 14.71C21.9496 14.84 21.9296 14.99 21.9496 15.14C22.0196 15.67 22.0196 16.2 21.9496 16.73C21.9296 16.88 21.9596 17.03 22.0296 17.16C22.0996 17.29 22.1996 17.4 22.3396 17.47L23.9996 18.36L23.3896 19.86ZM15.9996 12C13.7896 12 11.9996 13.79 11.9996 16C11.9996 18.21 13.7896 20 15.9996 20C18.2096 20 19.9996 18.21 19.9996 16C19.9996 13.79 18.2096 12 15.9996 12ZM15.9996 19C14.3496 19 12.9996 17.65 12.9996 16C12.9996 14.35 14.3496 13 15.9996 13C17.6496 13 18.9996 14.35 18.9996 16C18.9996 17.65 17.6496 19 15.9996 19Z" fill="#202020"/>
</svg>
