<svg width="32" height="32" viewBox="0 0 32 32" fill="none" xmlns="http://www.w3.org/2000/svg">
<path d="M23.5 4H8.5C7.67 4 7 4.67 7 5.5V26.5C7 27.33 7.67 28 8.5 28H23.5C24.33 28 25 27.33 25 26.5V5.5C25 4.67 24.33 4 23.5 4ZM24 26.5C24 26.78 23.78 27 23.5 27H8.5C8.22 27 8 26.78 8 26.5V5.5C8 5.22 8.22 5 8.5 5H23.5C23.78 5 24 5.22 24 5.5V26.5ZM16.51 25.5C16.51 25.78 16.29 26 16.01 26C15.73 26 15.51 25.78 15.51 25.5C15.51 25.22 15.73 25 16.01 25C16.29 25 16.51 25.22 16.51 25.5ZM22.5 6H9.5C9.22 6 9 6.22 9 6.5V23.5C9 23.78 9.22 24 9.5 24H22.5C22.78 24 23 23.78 23 23.5V6.5C23 6.22 22.78 6 22.5 6ZM22 23H10V7H22V23Z" fill="white"/>
</svg>
