<svg width="32" height="32" viewBox="0 0 32 32" fill="none" xmlns="http://www.w3.org/2000/svg">
<path d="M28.13 6.5791C28.04 6.3991 27.89 6.2891 27.65 6.2991L25.18 6.4191L25.06 3.9791C25.05 3.7791 24.92 3.5991 24.73 3.5291C24.54 3.4591 24.33 3.5191 24.19 3.6691L21.39 6.7791C21.3 6.8791 21.26 7.0091 21.26 7.1391L21.43 9.9091C21.42 9.9191 21.42 9.9191 21.41 9.9191L19.86 11.4591C18.18 9.9391 15.95 8.9991 13.5 8.9991C8.26 8.9991 4 13.2591 4 18.4991C4 23.7391 8.26 27.9991 13.5 27.9991C18.74 27.9991 23 23.7391 23 18.4991C23 16.0691 22.08 13.8591 20.57 12.1791L22.12 10.6391C22.14 10.6191 22.14 10.5991 22.16 10.5791L24.91 10.4191C25.04 10.4091 25.16 10.3491 25.25 10.2491L28.05 7.1391C28.19 6.9791 28.22 6.7691 28.13 6.5791ZM22 18.4991C22 23.1891 18.19 26.9991 13.5 26.9991C8.81 26.9991 5 23.1891 5 18.4991C5 13.8091 8.81 9.9991 13.5 9.9991C15.67 9.9991 17.65 10.8291 19.16 12.1691L17.46 13.8591C16.39 12.9491 15.02 12.3991 13.51 12.3991C10.15 12.3991 7.41 15.1291 7.41 18.4991C7.41 21.8591 10.14 24.5991 13.51 24.5991C16.88 24.5991 19.61 21.8591 19.61 18.4991C19.61 16.9991 19.07 15.6391 18.17 14.5691L19.87 12.8791C21.19 14.3791 22 16.3391 22 18.4991ZM15.68 18.3491C15.68 19.4791 14.76 20.3891 13.64 20.3891C12.52 20.3891 11.6 19.4691 11.6 18.3491C11.6 17.2191 12.52 16.3091 13.64 16.3091C14.03 16.3091 14.39 16.4191 14.69 16.6091L13.15 18.1391C12.95 18.3291 12.95 18.6491 13.15 18.8491C13.25 18.9491 13.38 18.9991 13.5 18.9991C13.63 18.9991 13.75 18.9491 13.85 18.8491L15.39 17.3191C15.57 17.6291 15.68 17.9791 15.68 18.3491ZM15.41 15.8891C14.91 15.5291 14.3 15.3091 13.63 15.3091C11.95 15.3091 10.59 16.6791 10.59 18.3491C10.59 20.0291 11.96 21.3891 13.63 21.3891C15.3 21.3891 16.67 20.0191 16.67 18.3491C16.67 17.6991 16.46 17.0991 16.11 16.5991L17.42 15.2891C18.14 16.1691 18.59 17.2691 18.59 18.4891C18.59 21.2991 16.3 23.5891 13.49 23.5891C10.68 23.5891 8.39 21.2991 8.39 18.4891C8.39 15.6791 10.68 13.3891 13.49 13.3891C14.72 13.3891 15.83 13.8491 16.72 14.5691L15.41 15.8891ZM24.65 9.4191L22.42 9.5491L22.28 7.2791L24.12 5.2291L24.2 6.9591C24.21 7.0891 24.26 7.2191 24.36 7.3091C24.46 7.3991 24.57 7.4491 24.72 7.4391L26.49 7.3491L24.65 9.4191Z" fill="white"/>
</svg>
