<svg width="32" height="32" viewBox="0 0 32 32" fill="none" xmlns="http://www.w3.org/2000/svg">
<path d="M26 11.12C26.84 10.5 27.4 9.51 27.4 8.39C27.39 6.52 25.87 5 24 5C22.13 5 20.61 6.52 20.61 8.39C20.61 9.53 21.18 10.54 22.05 11.16C20.82 11.61 19.76 12.46 19.03 13.61C18.7 13.41 18.36 13.25 17.99 13.11C18.83 12.49 19.39 11.5 19.39 10.38C19.39 8.52 17.87 7 16 7C14.13 7 12.61 8.52 12.61 10.39C12.61 11.53 13.18 12.54 14.05 13.16C13.7 13.29 13.36 13.46 13.04 13.65C12.31 12.44 11.25 11.56 10 11.12C10.84 10.5 11.4 9.51 11.4 8.39C11.39 6.52 9.87 5 8 5C6.13 5 4.61 6.52 4.61 8.39C4.61 9.53 5.18 10.54 6.05 11.16C3.69 12.04 2 14.4 2 17.18V20.72C2 21.42 2.53 22 3.19 22H10V22.71C10 23.42 10.53 24 11.19 24H20.81C21.47 24 22 23.42 22 22.71V22H28.81C29.47 22 30 21.42 30 20.71V17.17C30 14.32 28.35 11.96 26 11.12ZM24 6C25.32 6 26.39 7.07 26.39 8.39C26.39 9.71 25.32 10.78 24 10.78C22.68 10.78 21.61 9.71 21.61 8.39C21.61 7.07 22.68 6 24 6ZM16 8C17.32 8 18.39 9.07 18.39 10.39C18.39 11.71 17.32 12.78 16 12.78C14.68 12.78 13.61 11.71 13.61 10.39C13.61 9.07 14.68 8 16 8ZM8 6C9.32 6 10.39 7.07 10.39 8.39C10.39 9.71 9.32 10.79 8 10.79C6.68 10.79 5.61 9.71 5.61 8.39C5.61 7.07 6.68 6 8 6ZM3.19 21C3.1 21 3 20.88 3 20.71V17.17C3 14.15 5.23 11.78 8.08 11.78C9.82 11.78 11.34 12.7 12.23 14.23C10.87 15.41 10 17.19 10 19.18V21H3.19ZM20.81 23H11.19C11.1 23 11 22.88 11 22.71V19.17C11 16.15 13.23 13.78 16.08 13.78C18.88 13.78 21 16.1 21 19.17V21.42C21 21.44 20.99 21.46 20.99 21.49C20.99 21.52 21 21.54 21 21.57V22.72C21 22.88 20.9 23 20.81 23ZM29 20.71C29 20.87 28.9 21 28.81 21H22V19.18C22 17.15 21.17 15.37 19.84 14.21C20.77 12.71 22.36 11.79 24.08 11.79C26.88 11.79 29 14.11 29 17.18V20.71Z" fill="white"/>
</svg>
