<svg width="32" height="32" viewBox="0 0 32 32" fill="none" xmlns="http://www.w3.org/2000/svg">
<path d="M21.5 4H10.5C9.67 4 9 4.67 9 5.5V21.5C9 22.33 9.67 23 10.5 23H12V27.5C12 27.78 12.22 28 12.5 28H19.5C19.78 28 20 27.78 20 27.5V23H21.5C22.33 23 23 22.33 23 21.5V5.5C23 4.67 22.33 4 21.5 4ZM13 23H14V27H13V23ZM19 27H15V23H19V27ZM22 21.5C22 21.78 21.78 22 21.5 22H10.5C10.22 22 10 21.78 10 21.5V5.5C10 5.22 10.22 5 10.5 5H21.5C21.78 5 22 5.22 22 5.5V21.5ZM19.5 6H12.5C11.67 6 11 6.67 11 7.5V19.5C11 20.33 11.67 21 12.5 21H19.5C20.33 21 21 20.33 21 19.5V7.5C21 6.67 20.33 6 19.5 6ZM20 19.5C20 19.78 19.78 20 19.5 20H12.5C12.22 20 12 19.78 12 19.5V7.5C12 7.22 12.22 7 12.5 7H19.5C19.78 7 20 7.22 20 7.5V19.5Z" fill="#202020"/>
</svg>
