<svg width="32" height="32" viewBox="0 0 32 32" fill="none" xmlns="http://www.w3.org/2000/svg">
<path d="M27.5 22H27V8.5C27 7.67 26.33 7 25.5 7H6.5C5.67 7 5 7.67 5 8.5V22H4.5C4.22 22 4 22.22 4 22.5V26.5C4 26.78 4.22 27 4.5 27H27.5C27.78 27 28 26.78 28 26.5V22.5C28 22.22 27.78 22 27.5 22ZM6 8.5C6 8.22 6.22 8 6.5 8H25.5C25.78 8 26 8.22 26 8.5V22H6V8.5ZM27 26H5V23H5.5H26.5H27V26ZM25 24.5C25 24.78 24.78 25 24.5 25H7.5C7.22 25 7 24.78 7 24.5C7 24.22 7.22 24 7.5 24H24.5C24.78 24 25 24.22 25 24.5ZM10 16.5C10 16.78 9.78 17 9.5 17H7.5C7.22 17 7 16.78 7 16.5C7 16.22 7.22 16 7.5 16H9.5C9.78 16 10 16.22 10 16.5ZM15 16.5C15 16.78 14.78 17 14.5 17H12.5C12.22 17 12 16.78 12 16.5C12 16.22 12.22 16 12.5 16H14.5C14.78 16 15 16.22 15 16.5ZM20 16.5C20 16.78 19.78 17 19.5 17H17.5C17.22 17 17 16.78 17 16.5C17 16.22 17.22 16 17.5 16H19.5C19.78 16 20 16.22 20 16.5ZM10 19.5C10 19.78 9.78 20 9.5 20H7.5C7.22 20 7 19.78 7 19.5C7 19.22 7.22 19 7.5 19H9.5C9.78 19 10 19.22 10 19.5ZM15 19.5C15 19.78 14.78 20 14.5 20H12.5C12.22 20 12 19.78 12 19.5C12 19.22 12.22 19 12.5 19H14.5C14.78 19 15 19.22 15 19.5ZM20 19.5C20 19.78 19.78 20 19.5 20H17.5C17.22 20 17 19.78 17 19.5C17 19.22 17.22 19 17.5 19H19.5C19.78 19 20 19.22 20 19.5ZM25 16.5C25 16.78 24.78 17 24.5 17H22.5C22.22 17 22 16.78 22 16.5C22 16.22 22.22 16 22.5 16H24.5C24.78 16 25 16.22 25 16.5ZM25 19.5C25 19.78 24.78 20 24.5 20H22.5C22.22 20 22 19.78 22 19.5C22 19.22 22.22 19 22.5 19H24.5C24.78 19 25 19.22 25 19.5ZM14.5 9H7.5C7.22 9 7 9.22 7 9.5V13.5C7 13.78 7.22 14 7.5 14H14.5C14.78 14 15 13.78 15 13.5V9.5C15 9.22 14.78 9 14.5 9ZM14 13H8V10H14V13Z" fill="white"/>
</svg>
