<svg width="32" height="32" viewBox="0 0 32 32" fill="none" xmlns="http://www.w3.org/2000/svg">
<path d="M15.5 4C9.16 4 4 9.16 4 15.5C4 21.84 9.16 27 15.5 27C21.84 27 27 21.84 27 15.5C27 9.16 21.84 4 15.5 4ZM15.5 26C9.71 26 5 21.29 5 15.5C5 9.71 9.71 5 15.5 5C21.29 5 26 9.71 26 15.5C26 21.29 21.29 26 15.5 26ZM10.67 9.72C10.19 10.12 9.76 10.58 9.4 11.09C9.3 11.23 9.15 11.3 8.99 11.3C8.89 11.3 8.79 11.27 8.7 11.21C8.47 11.05 8.42 10.74 8.58 10.51C8.99 9.92 9.48 9.39 10.03 8.94C10.24 8.76 10.56 8.79 10.73 9.01C10.9 9.23 10.88 9.54 10.67 9.72ZM15.45 7.49C15.47 7.76 15.27 8.01 15 8.03C14.35 8.09 13.72 8.21 13.14 8.39C13.09 8.41 13.04 8.41 12.99 8.41C12.78 8.41 12.58 8.27 12.51 8.06C12.43 7.8 12.57 7.52 12.84 7.43C13.49 7.23 14.19 7.09 14.91 7.02C15.18 7.01 15.43 7.22 15.45 7.49ZM7.54 16.02C7.26 16.02 7.04 15.81 7.04 15.54V15.5C7.04 14.8 7.12 14.1 7.28 13.42C7.34 13.15 7.61 12.98 7.88 13.05C8.15 13.11 8.32 13.38 8.25 13.65C8.11 14.25 8.04 14.87 8.04 15.5C8.04 15.78 7.82 16.02 7.54 16.02ZM9.43 19.96C9.59 20.18 9.54 20.5 9.31 20.66C9.22 20.72 9.12 20.75 9.02 20.75C8.86 20.75 8.71 20.68 8.61 20.54C8.2 19.97 7.86 19.33 7.61 18.66C7.51 18.4 7.64 18.11 7.9 18.01C8.16 17.92 8.45 18.04 8.55 18.3C8.78 18.9 9.07 19.45 9.43 19.96ZM13.52 23.24C13.45 23.45 13.26 23.59 13.04 23.59C12.99 23.59 12.94 23.58 12.89 23.57C12.19 23.36 11.54 23.07 10.95 22.7C10.71 22.56 10.64 22.25 10.78 22.01C10.92 21.77 11.23 21.7 11.47 21.84C11.99 22.16 12.57 22.42 13.19 22.6C13.46 22.7 13.6 22.98 13.52 23.24ZM23.5 15.44L24 15.48C24 16.22 23.91 16.93 23.74 17.61C23.68 17.84 23.48 17.99 23.26 17.99C23.22 17.99 23.18 17.99 23.14 17.97C22.87 17.9 22.71 17.63 22.78 17.36C22.93 16.76 23.01 16.13 23.01 15.5C23.01 15.22 23.23 14.97 23.51 14.97C23.79 14.97 24.01 15.16 24.01 15.44H23.5ZM22.92 13C22.72 13 22.54 12.88 22.46 12.69C22.23 12.11 21.92 11.56 21.54 11.05C21.38 10.83 21.42 10.51 21.65 10.35C21.87 10.19 22.18 10.23 22.35 10.45C22.77 11.02 23.12 11.65 23.39 12.31C23.49 12.57 23.37 12.86 23.11 12.96C23.04 12.99 22.98 13 22.92 13ZM22.27 19.79C22.49 19.95 22.54 20.26 22.38 20.49C21.96 21.07 21.47 21.59 20.92 22.04C20.83 22.12 20.71 22.16 20.6 22.16C20.46 22.16 20.31 22.1 20.22 21.98C20.04 21.77 20.07 21.45 20.29 21.28C20.77 20.88 21.21 20.42 21.58 19.91C21.73 19.68 22.05 19.63 22.27 19.79ZM20.17 8.98C20.08 9.13 19.91 9.21 19.75 9.21C19.66 9.21 19.57 9.19 19.48 9.13C18.95 8.8 18.37 8.53 17.78 8.34C17.52 8.26 17.37 7.98 17.45 7.71C17.53 7.45 17.81 7.3 18.08 7.38C18.76 7.59 19.41 7.9 20.01 8.27C20.24 8.44 20.31 8.75 20.17 8.98ZM18.46 22.95C18.54 23.21 18.4 23.49 18.14 23.58C17.47 23.8 16.76 23.93 16.05 23.98C16.04 23.98 16.03 23.98 16.02 23.98C15.76 23.98 15.54 23.78 15.52 23.51C15.5 23.23 15.71 23 15.99 22.98C16.62 22.94 17.24 22.82 17.83 22.63C18.09 22.55 18.37 22.69 18.46 22.95Z" fill="#202020"/>
</svg>
