<svg width="32" height="32" viewBox="0 0 32 32" fill="none" xmlns="http://www.w3.org/2000/svg">
<path d="M21.83 18.2986C21.37 17.8386 20.69 17.7586 20.13 18.0186L19.75 17.6386C19.29 17.1786 18.61 17.0986 18.05 17.3586L17.4 16.6986L19.47 14.6286C19.97 14.8586 20.51 14.9886 21.07 14.9986C21.1 14.9986 21.13 14.9986 21.16 14.9986C22.2 14.9986 23.16 14.5986 23.89 13.8786C25.12 12.6486 25.36 10.7486 24.47 9.15859C24.39 9.01859 24.26 8.92859 24.1 8.90859C23.94 8.88859 23.79 8.93859 23.68 9.04859L21.38 11.3486L20.64 10.6086L22.94 8.30859C23.05 8.19859 23.1 8.03859 23.08 7.88859C23.06 7.72859 22.96 7.59859 22.83 7.51859C21.24 6.63859 19.34 6.86859 18.12 8.09859C17.38 8.83859 16.98 9.84859 17 10.9186C17.01 11.4686 17.14 11.9986 17.36 12.4886L15.28 14.5686L11.71 10.9986L12.06 10.6486C12.26 10.4486 12.26 10.1386 12.06 9.93859L9.56004 7.43859C9.36004 7.23859 9.05004 7.23859 8.85004 7.43859L7.44004 8.84859C7.24004 9.04859 7.24004 9.35859 7.44004 9.55859L9.94004 12.0586C10.04 12.1586 10.17 12.2086 10.29 12.2086C10.41 12.2086 10.55 12.1586 10.64 12.0586L11 11.7086L14.58 15.2886L8.47004 21.3986C7.85004 21.9986 7.83004 22.9786 8.42004 23.5586C8.70004 23.8386 9.06004 23.9886 9.46004 23.9886C9.48004 23.9886 9.49004 23.9886 9.51004 23.9886C9.91004 23.9786 10.3 23.8086 10.59 23.5186L16.7 17.4086L17.35 18.0586C17.09 18.6186 17.17 19.2986 17.63 19.7586L18.01 20.1386C17.75 20.6986 17.83 21.3786 18.29 21.8386L20.31 23.8586C20.78 24.3286 21.41 24.5886 22.08 24.5886C22.75 24.5886 23.37 24.3286 23.85 23.8586C24.33 23.3886 24.58 22.7586 24.58 22.0886C24.58 21.4186 24.32 20.7886 23.85 20.3186L21.83 18.2986ZM10.29 10.9986L8.50004 9.20859L9.21004 8.49859L11 10.2886L10.29 10.9986ZM18.83 8.80859C19.37 8.26859 20.09 7.98859 20.83 7.98859C21.12 7.98859 21.43 8.02859 21.72 8.11859L19.59 10.2486C19.39 10.4486 19.39 10.7586 19.59 10.9586L21.04 12.4086C21.13 12.4986 21.26 12.5586 21.39 12.5586C21.52 12.5586 21.65 12.5086 21.74 12.4086L23.87 10.2786C24.18 11.3086 23.94 12.4086 23.18 13.1686C22.63 13.7186 21.85 14.0186 21.09 13.9886C20.28 13.9686 19.52 13.6386 18.93 13.0486C18.34 12.4586 18.02 11.7086 18 10.8986C17.98 10.0986 18.28 9.35859 18.83 8.80859ZM9.88004 22.8086C9.77004 22.9186 9.63004 22.9886 9.48004 22.9886C9.34004 22.9886 9.22004 22.9486 9.13004 22.8586C8.94004 22.6586 8.96004 22.3286 9.18004 22.1086L17.91 13.3786C18.02 13.5186 18.12 13.6486 18.24 13.7786C18.36 13.8986 18.49 13.9886 18.62 14.0886L9.88004 22.8086ZM19.05 18.3386L19.36 18.6486L18.65 19.3586L18.34 19.0486C18.14 18.8486 18.14 18.5386 18.34 18.3386C18.44 18.2386 18.57 18.1886 18.69 18.1886C18.81 18.1886 18.95 18.2386 19.05 18.3386ZM23.15 23.1486C22.58 23.7186 21.59 23.7186 21.03 23.1486L19 21.1186C18.8 20.9186 18.8 20.6086 19 20.4086L20.42 18.9986C20.52 18.8986 20.65 18.8486 20.77 18.8486C20.89 18.8486 21.03 18.8986 21.12 18.9986L23.14 21.0186C23.42 21.2986 23.58 21.6786 23.58 22.0786C23.59 22.4886 23.43 22.8586 23.15 23.1486Z" fill="#202020"/>
</svg>
