<svg width="32" height="32" viewBox="0 0 32 32" fill="none" xmlns="http://www.w3.org/2000/svg">
<path d="M21.31 18.44C20.74 17.86 19.74 17.87 19.16 18.44L19.14 18.46L16.71 16.03L20.29 12.46C20.78 12.8 21.37 13 22 13C23.65 13 25 11.65 25 10H24C24 11.1 23.1 12 22 12C20.9 12 20 11.1 20 10C20 8.9 20.9 8 22 8V7C20.35 7 19 8.35 19 10C19 10.66 19.22 11.27 19.59 11.76L16.01 15.32L8.35 7.65L7.65 8.35L15.3 16.03L11.75 19.57C11.25 19.21 10.65 19 10 19C8.35 19 7 20.35 7 22H8C8 20.9 8.9 20 10 20C11.1 20 12 20.9 12 22C12 23.1 11.1 24 10 24V25C11.65 25 13 23.65 13 22C13 21.36 12.79 20.77 12.45 20.28L16.01 16.74L18.44 19.18C18.15 19.46 18 19.84 18 20.24C18 20.64 18.16 21.03 18.44 21.31L21.19 24.06C21.48 24.35 21.86 24.5 22.26 24.5C22.67 24.5 23.05 24.34 23.33 24.06L24.05 23.34C24.34 23.05 24.49 22.67 24.49 22.27C24.49 21.87 24.33 21.48 24.05 21.2L21.31 18.44ZM23.35 22.63L22.63 23.35C22.43 23.55 22.1 23.55 21.9 23.35L19.15 20.6C18.95 20.4 18.95 20.07 19.15 19.87L19.87 19.15C19.97 19.05 20.1 19 20.24 19C20.37 19 20.51 19.05 20.61 19.15L23.36 21.9C23.55 22.1 23.55 22.43 23.35 22.63Z" fill="#202020"/>
</svg>
