<svg width="32" height="32" viewBox="0 0 32 32" fill="none" xmlns="http://www.w3.org/2000/svg">
<path d="M18.98 12.32C20.48 11.46 21.5 9.85 21.5 8C21.5 5.24 19.26 3 16.5 3C13.74 3 11.5 5.24 11.5 8C11.5 9.85 12.52 11.45 14.02 12.32C9.98 13.42 7 17.14 7 21.56V27.5C7 28.33 7.67 29 8.5 29H24.5C25.33 29 26 28.33 26 27.5V21.56C26 17.14 23.02 13.42 18.98 12.32ZM12.5 8C12.5 5.79 14.29 4 16.5 4C18.71 4 20.5 5.79 20.5 8C20.5 10.15 18.8 11.89 16.67 11.98C16.61 11.98 16.56 11.97 16.5 11.97C16.44 11.97 16.39 11.98 16.33 11.98C14.2 11.89 12.5 10.15 12.5 8ZM25 27.5C25 27.78 24.78 28 24.5 28H8.5C8.22 28 8 27.78 8 27.5V21.56C8 16.89 11.72 13.08 16.33 12.99C16.39 12.99 16.44 13.01 16.5 13.01C16.56 13.01 16.61 12.99 16.67 12.99C21.28 13.08 25 16.89 25 21.56V27.5ZM11 18H16V19H14V25H13V19H11V18ZM21.74 19.95C21.72 19.3 21.49 18.81 21.06 18.46C20.7 18.15 20.24 18 19.67 18H17V25H18.03V22.01H19.35L20.77 25H22L20.42 21.89C21.29 21.55 21.72 20.9 21.74 19.95ZM18.03 21.07V18.94H19.65C19.98 18.94 20.24 19.01 20.41 19.16C20.63 19.32 20.75 19.59 20.75 19.95C20.75 20.25 20.65 20.51 20.46 20.72C20.27 20.95 19.97 21.06 19.59 21.07H18.03Z" fill="#202020"/>
</svg>
