<svg width="32" height="32" viewBox="0 0 32 32" fill="none" xmlns="http://www.w3.org/2000/svg">
<path d="M4.51977 12.4887C4.51977 12.2087 4.73977 11.9887 5.01977 11.9887L25.9098 11.9787L22.5098 8.57875C22.3098 8.37875 22.3098 8.06875 22.5098 7.86875C22.7098 7.66875 23.0198 7.66875 23.2198 7.86875L27.4598 12.1087C27.6598 12.3087 27.6598 12.6188 27.4598 12.8187L23.2198 17.0587C23.1198 17.1587 22.9898 17.2087 22.8698 17.2087C22.7498 17.2087 22.6098 17.1587 22.5198 17.0587C22.3198 16.8587 22.3198 16.5487 22.5198 16.3488L25.8898 12.9787L5.01977 12.9887C4.73977 12.9887 4.51977 12.7688 4.51977 12.4887ZM27.1098 18.9987L6.20977 18.9887L9.60977 15.5888C9.80976 15.3888 9.80976 15.0788 9.60977 14.8788C9.40977 14.6788 9.09976 14.6788 8.89977 14.8788L4.65977 19.1188C4.56977 19.2088 4.50977 19.3387 4.50977 19.4687C4.50977 19.5987 4.55977 19.7287 4.65977 19.8187L8.89977 24.0588C8.99976 24.1588 9.12977 24.2087 9.24977 24.2087C9.36977 24.2087 9.50977 24.1588 9.59977 24.0588C9.79977 23.8587 9.79977 23.5487 9.59977 23.3488L6.21977 19.9687L27.1098 19.9987C27.3898 19.9987 27.6098 19.7787 27.6098 19.4987C27.6098 19.2188 27.3898 18.9987 27.1098 18.9987Z" fill="white"/>
</svg>
