<svg width="32" height="32" viewBox="0 0 32 32" fill="none" xmlns="http://www.w3.org/2000/svg">
<path d="M16 10C13.7 10 11.69 11.2 10.53 13H10.5V13.05C9.87 14.05 9.5 15.23 9.5 16.5C9.5 17.77 9.87 18.95 10.5 19.95V20H10.53C11.69 21.8 13.7 23 16 23C19.58 23 22.5 20.08 22.5 16.5C22.5 12.92 19.58 10 16 10ZM10.53 17H15.5V19H11.11C10.79 18.39 10.59 17.72 10.53 17ZM10.53 16C10.59 15.28 10.8 14.61 11.11 14H15.5V16H10.53ZM16.5 17H21.47C21.41 17.72 21.2 18.39 20.89 19H16.5V17ZM16.5 16V14H20.89C21.2 14.61 21.41 15.28 21.47 16H16.5ZM20.24 13H16.5V11.03C18 11.16 19.33 11.9 20.24 13ZM15.5 11.03V13H11.76C12.67 11.9 14 11.16 15.5 11.03ZM11.76 20H15.5V21.97C14 21.84 12.67 21.1 11.76 20ZM16.5 21.97V20H20.24C19.33 21.1 18 21.84 16.5 21.97ZM16 6C10.21 6 5.5 10.71 5.5 16.5C5.5 22.29 10.21 27 16 27H26C26.28 27 26.5 26.78 26.5 26.5V16.5C26.5 10.71 21.79 6 16 6ZM25.5 26H16C10.76 26 6.5 21.74 6.5 16.5C6.5 11.26 10.76 7 16 7C21.24 7 25.5 11.26 25.5 16.5V26Z" fill="white"/>
</svg>
