<svg width="32" height="32" viewBox="0 0 32 32" fill="none" xmlns="http://www.w3.org/2000/svg">
<path d="M15.5 21.29V6.71L11.85 10.36C11.65 10.56 11.34 10.56 11.14 10.36C10.94 10.16 10.94 9.85 11.14 9.65L15.64 5.15C15.84 4.95 16.15 4.95 16.35 5.15L20.85 9.65C21.05 9.85 21.05 10.16 20.85 10.36C20.75 10.46 20.62 10.51 20.5 10.51C20.38 10.51 20.24 10.46 20.15 10.36L16.5 6.71V21.3L20.15 17.65C20.35 17.45 20.66 17.45 20.86 17.65C21.06 17.85 21.06 18.16 20.86 18.36L16.36 22.86C16.31 22.91 16.26 22.94 16.2 22.97C16.13 22.99 16.07 23 16 23C15.93 23 15.87 22.99 15.81 22.96C15.75 22.93 15.69 22.9 15.65 22.85L11.15 18.35C10.95 18.15 10.95 17.84 11.15 17.64C11.35 17.44 11.66 17.44 11.86 17.64L15.5 21.29ZM23.5 21C23.22 21 23 21.22 23 21.5V24.5C23 24.82 22.84 25 22.79 25H9.21C9.16 25 9 24.82 9 24.5V21.5C9 21.22 8.78 21 8.5 21C8.22 21 8 21.22 8 21.5V24.5C8 25.34 8.53 26 9.21 26H22.78C23.46 26 23.99 25.34 23.99 24.5V21.5C24 21.22 23.78 21 23.5 21Z" fill="white"/>
</svg>
