<svg width="32" height="32" viewBox="0 0 32 32" fill="none" xmlns="http://www.w3.org/2000/svg">
<path d="M12 15.45C12 17.42 13.6 19.01 15.56 19.01C16.61 19.01 17.56 18.55 18.21 17.83C17.42 19.08 16.03 19.9 14.44 19.9C12 19.91 10 17.92 10 15.45C10 12.98 12 11 14.45 11C16.04 11 17.43 11.83 18.22 13.08C17.57 12.35 16.62 11.9 15.57 11.9C13.6 11.89 12 13.49 12 15.45ZM20.96 14.65L20.01 13.34V14.96L18.47 15.46L20.01 15.96V17.58L20.96 16.27L22.5 16.77L21.55 15.46L22.5 14.15L20.96 14.65ZM28 8.5V22.5C28 23.33 27.33 24 26.5 24H5.5C4.67 24 4 23.33 4 22.5V8.5C4 7.67 4.67 7 5.5 7H26.5C27.33 7 28 7.67 28 8.5ZM27 8.5C27 8.22 26.78 8 26.5 8H5.5C5.22 8 5 8.22 5 8.5V22.5C5 22.78 5.22 23 5.5 23H26.5C26.78 23 27 22.78 27 22.5V8.5Z" fill="white"/>
</svg>
