<svg width="32" height="32" viewBox="0 0 32 32" fill="none" xmlns="http://www.w3.org/2000/svg">
<path d="M27 16.99C27 23.06 22.07 27.99 16 27.99C9.93 27.99 5 23.06 5 16.99C5 12.49 7.7 8.47999 11.87 6.78999C12.12 6.68999 12.42 6.80999 12.52 7.06999C12.62 7.32999 12.5 7.61999 12.24 7.71999C8.45 9.25999 6 12.9 6 16.99C6 22.5 10.49 26.99 16 26.99C21.51 26.99 26 22.5 26 16.99C26 11.48 21.51 6.98999 16 6.98999C15.99 6.98999 15.98 6.97999 15.97 6.97999L17.04 8.24999C17.22 8.45999 17.19 8.77999 16.98 8.94999C16.89 9.02999 16.77 9.06999 16.66 9.06999C16.52 9.06999 16.38 9.00999 16.28 8.88999L14.46 6.71999C14.37 6.61999 14.33 6.48999 14.34 6.35999C14.35 6.22999 14.42 6.10999 14.52 6.01999L16.69 4.19999C16.9 4.01999 17.22 4.04999 17.39 4.25999C17.57 4.46999 17.54 4.78999 17.33 4.95999L16.11 5.99999C22.12 6.04999 27 10.96 27 16.99Z" fill="#202020"/>
</svg>
