<svg width="32" height="32" viewBox="0 0 32 32" fill="none" xmlns="http://www.w3.org/2000/svg">
<path d="M16 4C9.38 4 4 9.38 4 16C4 22.62 9.38 28 16 28C22.62 28 28 22.62 28 16C28 9.38 22.62 4 16 4ZM16 27C9.93 27 5 22.07 5 16C5 9.93 9.93 5 16 5C22.07 5 27 9.93 27 16C27 22.07 22.07 27 16 27ZM22.5 11.5C22.5 11.78 22.28 12 22 12H10C9.72 12 9.5 11.78 9.5 11.5C9.5 11.22 9.72 11 10 11H22C22.28 11 22.5 11.22 22.5 11.5ZM22.5 15.5C22.5 15.78 22.28 16 22 16H10C9.72 16 9.5 15.78 9.5 15.5C9.5 15.22 9.72 15 10 15H22C22.28 15 22.5 15.22 22.5 15.5ZM22.5 19.5C22.5 19.78 22.28 20 22 20H10C9.72 20 9.5 19.78 9.5 19.5C9.5 19.22 9.72 19 10 19H22C22.28 19 22.5 19.22 22.5 19.5Z" fill="#202020"/>
</svg>
