<svg width="32" height="32" viewBox="0 0 32 32" fill="none" xmlns="http://www.w3.org/2000/svg">
<path d="M26.5 15H26V13C26 11.9 25.1 11 24 11H10.5C10.22 11 10 11.22 10 11.5V13V15H8H5V8.5C5 8.22 4.78 8 4.5 8C4.22 8 4 8.22 4 8.5V15.5V19.5V21.5C4 21.78 4.22 22 4.5 22C4.78 22 5 21.78 5 21.5V20H27V21.5C27 21.78 27.22 22 27.5 22C27.78 22 28 21.78 28 21.5V19.5V17.5V16.5C28 15.67 27.33 15 26.5 15ZM11 12H24C24.55 12 25 12.45 25 13V15H11V12ZM5 19V16H10.5H25.5H26.5C26.78 16 27 16.22 27 16.5V17.5V19H5ZM10 13C10 11.9 9.1 11 8 11C6.9 11 6 11.9 6 13C6 14.1 6.9 15 8 15C9.1 15 10 14.1 10 13ZM8 14C7.45 14 7 13.55 7 13C7 12.45 7.45 12 8 12C8.55 12 9 12.45 9 13C9 13.55 8.55 14 8 14Z" fill="white"/>
</svg>
