<svg width="32" height="32" viewBox="0 0 32 32" fill="none" xmlns="http://www.w3.org/2000/svg">
<path d="M25.5 6H7.5C7.22 6 7 6.22 7 6.5V24.5C7 24.78 7.22 25 7.5 25H8V26.5C8 26.78 8.22 27 8.5 27H11.5C11.78 27 12 26.78 12 26.5V25H21V26.5C21 26.78 21.22 27 21.5 27H24.5C24.78 27 25 26.78 25 26.5V25H25.5C25.78 25 26 24.78 26 24.5V6.5C26 6.22 25.78 6 25.5 6ZM11 26H9V25H11V26ZM24 26H22V25H24V26ZM25 24H24.5H21.5H11.5H8.5H8V7H25V24ZM13.5 19C15.43 19 17 17.43 17 15.5C17 13.57 15.43 12 13.5 12C11.57 12 10 13.57 10 15.5C10 17.43 11.57 19 13.5 19ZM13.5 18C12.99 18 12.52 17.85 12.12 17.58L15.58 14.12C15.84 14.52 16 14.99 16 15.5C16 16.88 14.88 18 13.5 18ZM13.5 13C14.01 13 14.48 13.15 14.88 13.42L11.42 16.88C11.15 16.48 11 16.01 11 15.5C11 14.12 12.12 13 13.5 13ZM18 15.5C18 15.22 18.22 15 18.5 15H22.5C22.78 15 23 15.22 23 15.5C23 15.78 22.78 16 22.5 16H18.5C18.22 16 18 15.78 18 15.5Z" fill="#202020"/>
</svg>
