<svg width="32" height="32" viewBox="0 0 32 32" fill="none" xmlns="http://www.w3.org/2000/svg">
<path d="M10.5 13H20.5C20.78 13 21 12.78 21 12.5V6.5C21 6.22 20.78 6 20.5 6H16.21L15.36 5.15C15.26 5.05 15.13 5 15 5H10.5C10.22 5 10 5.22 10 5.5V12.5C10 12.78 10.22 13 10.5 13ZM11 6H14.79L15.64 6.85C15.74 6.95 15.87 7 16 7H20V12H11V6ZM27.5 19H23.21L22.36 18.15C22.26 18.05 22.13 18 22 18H17.5C17.22 18 17 18.22 17 18.5V25.5C17 25.78 17.22 26 17.5 26H27.5C27.78 26 28 25.78 28 25.5V19.5C28 19.22 27.78 19 27.5 19ZM27 25H18V19H21.79L22.64 19.85C22.74 19.95 22.87 20 23 20H27V25ZM14.5 19H10.21L9.36 18.15C9.26 18.05 9.13 18 9 18H4.5C4.22 18 4 18.22 4 18.5V25.5C4 25.78 4.22 26 4.5 26H14.5C14.78 26 15 25.78 15 25.5V19.5C15 19.22 14.78 19 14.5 19ZM14 25H5V19H8.79L9.64 19.85C9.74 19.95 9.87 20 10 20H14V25ZM22 16H9V16.5C9 16.78 8.78 17 8.5 17C8.22 17 8 16.78 8 16.5V15.5C8 15.22 8.22 15 8.5 15H15V14C15 13.72 15.22 13.5 15.5 13.5C15.78 13.5 16 13.72 16 14V15H22.5C22.78 15 23 15.22 23 15.5V16.5C23 16.78 22.78 17 22.5 17C22.22 17 22 16.78 22 16.5V16Z" fill="white"/>
</svg>
