<svg width="32" height="32" viewBox="0 0 32 32" fill="none" xmlns="http://www.w3.org/2000/svg">
<path d="M22.72 4.04828C22.54 3.96828 22.34 3.98828 22.19 4.10828L20.04 5.82828L18.36 4.14828C18.16 3.94828 17.85 3.94828 17.65 4.14828L16 5.78828L14.35 4.13828C14.15 3.93828 13.84 3.93828 13.64 4.13828L11.96 5.81828L9.81 4.10828C9.66 3.98828 9.46 3.96828 9.28 4.04828C9.11 4.12828 9 4.30828 9 4.49828V27.4983C9 27.7783 9.22 27.9983 9.5 27.9983H22.5C22.78 27.9983 23 27.7783 23 27.4983V4.49828C23 4.30828 22.89 4.12828 22.72 4.04828ZM22 26.9983H10V5.53828L11.69 6.88828C11.89 7.04828 12.18 7.02828 12.36 6.84828L14 5.20828L15.65 6.85828C15.85 7.05828 16.16 7.05828 16.36 6.85828L18 5.20828L19.65 6.85828C19.83 7.03828 20.12 7.05828 20.32 6.89828L22 5.53828V26.9983ZM20 10.4983C20 10.7783 19.78 10.9983 19.5 10.9983H12.5C12.22 10.9983 12 10.7783 12 10.4983C12 10.2183 12.22 9.99828 12.5 9.99828H19.5C19.78 9.99828 20 10.2183 20 10.4983ZM20 14.4983C20 14.7783 19.78 14.9983 19.5 14.9983H12.5C12.22 14.9983 12 14.7783 12 14.4983C12 14.2183 12.22 13.9983 12.5 13.9983H19.5C19.78 13.9983 20 14.2183 20 14.4983ZM20 19.4983C20 19.7783 19.78 19.9983 19.5 19.9983H12.5C12.22 19.9983 12 19.7783 12 19.4983C12 19.2183 12.22 18.9983 12.5 18.9983H19.5C19.78 18.9983 20 19.2183 20 19.4983Z" fill="#202020"/>
</svg>
