<svg width="32" height="32" viewBox="0 0 32 32" fill="none" xmlns="http://www.w3.org/2000/svg">
<path d="M26.5 7H5.5C4.67 7 4 7.67 4 8.5V23.5C4 24.33 4.67 25 5.5 25H26.5C27.33 25 28 24.33 28 23.5V18.5V13.5V8.5C28 7.67 27.33 7 26.5 7ZM26.5 24H5.5C5.22 24 5 23.78 5 23.5V8.5C5 8.22 5.22 8 5.5 8H26.5C26.78 8 27 8.22 27 8.5V13H20.5C19.12 13 18 14.12 18 15.5V16.5C18 17.88 19.12 19 20.5 19H27V23.5C27 23.78 26.78 24 26.5 24ZM27 18H20.5C19.67 18 19 17.33 19 16.5V15.5C19 14.67 19.67 14 20.5 14H27V18Z" fill="white"/>
</svg>
