<svg width="32" height="32" viewBox="0 0 32 32" fill="none" xmlns="http://www.w3.org/2000/svg">
<path d="M27.64 22.22L18.15 6.22C17.7 5.46 16.89 5 16 5C15.11 5 14.3 5.46 13.85 6.22L4.35999 22.22C3.89999 23 3.88999 23.94 4.33999 24.73C4.78999 25.53 5.59999 26 6.50999 26H25.49C26.4 26 27.21 25.53 27.66 24.74C28.11 23.95 28.11 23.01 27.64 22.22ZM26.79 24.24C26.52 24.71 26.03 25 25.49 25H6.50999C5.95999 25 5.47999 24.72 5.20999 24.24C4.93999 23.76 4.93999 23.2 5.21999 22.73L14.71 6.73C14.98 6.27 15.46 6 16 6C16.53 6 17.02 6.27 17.29 6.73L26.78 22.73C27.06 23.2 27.07 23.77 26.79 24.24ZM16.5 11V19.5C16.5 19.78 16.28 20 16 20C15.72 20 15.5 19.78 15.5 19.5V11C15.5 10.72 15.72 10.5 16 10.5C16.28 10.5 16.5 10.72 16.5 11ZM16.5 21.5C16.5 21.78 16.28 22 16 22C15.72 22 15.5 21.78 15.5 21.5C15.5 21.22 15.72 21 16 21C16.28 21 16.5 21.22 16.5 21.5Z" fill="#202020"/>
</svg>
