<svg width="32" height="32" viewBox="0 0 32 32" fill="none" xmlns="http://www.w3.org/2000/svg">
<path d="M20.51 8.46813C18.79 5.99813 17.03 4.57813 16.56 4.22813C16.27 3.93813 15.73 3.95813 15.5 4.17813C15 4.52813 13.23 5.84813 11.5 8.26814C9.68 10.8381 7.5 14.6881 7.5 18.4881C7.5 23.1781 11.32 26.9881 16 26.9881C20.69 26.9881 24.5 23.1681 24.5 18.4881C24.51 15.6481 23.16 12.2681 20.51 8.46813ZM16 25.9981C11.86 25.9981 8.5 22.6281 8.5 18.4981C8.5 14.9681 10.58 11.3081 12.32 8.86813C13.88 6.67813 15.45 5.45813 16 5.06813C16.55 5.48813 18.13 6.80813 19.69 9.04813C22.23 12.6881 23.51 15.8681 23.51 18.4981C23.51 22.6281 20.14 25.9981 16 25.9981ZM19.85 14.1481C20.05 14.3381 20.05 14.6581 19.85 14.8581L13.76 20.9781C13.67 21.0681 13.54 21.1281 13.41 21.1281H13.4C13.26 21.1281 13.13 21.0681 13.04 20.9581L11.13 18.8381C10.95 18.6281 10.96 18.3181 11.17 18.1281C11.37 17.9381 11.69 17.9581 11.88 18.1681L13.44 19.8981L19.16 14.1481C19.34 13.9481 19.66 13.9481 19.85 14.1481Z" fill="white"/>
</svg>
