<svg width="32" height="32" viewBox="0 0 32 32" fill="none" xmlns="http://www.w3.org/2000/svg">
<path d="M21 13C21 10.24 18.76 8 16 8C13.24 8 11 10.24 11 13C11 15.76 13.24 18 16 18C18.76 18 21 15.76 21 13ZM12 13C12 10.79 13.79 9 16 9C18.21 9 20 10.79 20 13C20 15.21 18.21 17 16 17C13.79 17 12 15.21 12 13ZM19 13C19 11.35 17.65 10 16 10C14.35 10 13 11.35 13 13C13 14.65 14.35 16 16 16C17.65 16 19 14.65 19 13ZM14 13C14 11.9 14.9 11 16 11C17.1 11 18 11.9 18 13C18 14.1 17.1 15 16 15C14.9 15 14 14.1 14 13ZM15.52 6.5C15.52 6.22 15.74 6 16.01 6H16.02C16.3 6 16.52 6.22 16.52 6.5C16.52 6.78 16.3 7 16.02 7C15.74 7 15.52 6.78 15.52 6.5ZM26.5 25H25.71L21.11 20.4C23.46 18.78 25 16.07 25 13C25 8.04 20.96 4 16 4C11.04 4 7 8.04 7 13C7 16.07 8.54 18.78 10.89 20.4L6.29 25H5.5C4.67 25 4 25.67 4 26.5V27.5C4 27.78 4.22 28 4.5 28H27.5C27.78 28 28 27.78 28 27.5V26.5C28 25.67 27.33 25 26.5 25ZM8 13C8 8.59 11.59 5 16 5C20.41 5 24 8.59 24 13C24 17.41 20.41 21 16 21C11.59 21 8 17.41 8 13ZM11.77 20.94C13.03 21.61 14.47 22 16 22C17.53 22 18.97 21.61 20.23 20.94L24.3 25H7.7L11.77 20.94ZM27 27H5V26.5C5 26.22 5.22 26 5.5 26H26.5C26.78 26 27 26.22 27 26.5V27Z" fill="#202020"/>
</svg>
