<svg width="32" height="32" viewBox="0 0 32 32" fill="none" xmlns="http://www.w3.org/2000/svg">
<path d="M27.18 15.61C27.17 15.84 27.16 16.07 27.13 16.29C27.1 16.52 27.07 16.74 27.02 16.97C26.97 17.2 26.92 17.42 26.85 17.65C26.71 18.13 26.52 18.59 26.29 19.04C26.04 19.52 25.75 19.98 25.42 20.41C25.36 20.49 25.3 20.56 25.24 20.63C25.12 20.78 24.99 20.93 24.85 21.08C24.76 21.18 24.66 21.28 24.56 21.38C24.42 21.52 24.27 21.66 24.12 21.79C24.04 21.86 23.96 21.93 23.88 21.99C23.68 22.15 23.48 22.31 23.27 22.46C23.24 22.48 23.21 22.5 23.18 22.53C22.96 22.69 22.73 22.84 22.49 22.98C22.4 23.03 22.31 23.09 22.21 23.14C22.08 23.21 21.94 23.29 21.81 23.36C21.58 23.48 21.35 23.58 21.12 23.68C21.01 23.73 20.9 23.77 20.79 23.82C20.67 23.87 20.54 23.92 20.42 23.96C20.2 24.04 19.98 24.11 19.75 24.18C19.51 24.25 19.28 24.31 19.04 24.37C18.84 24.42 18.63 24.46 18.43 24.5C18.42 24.5 18.4 24.51 18.38 24.51C18.15 24.55 17.92 24.59 17.69 24.62C17.46 24.65 17.23 24.67 17.01 24.69C16.78 24.71 16.55 24.72 16.32 24.73C16.09 24.74 15.86 24.74 15.63 24.73C15.4 24.72 15.17 24.71 14.94 24.7C14.71 24.68 14.48 24.66 14.26 24.63C14.05 24.6 13.85 24.57 13.65 24.54C13.58 24.53 13.5 24.51 13.43 24.5C13.25 24.46 13.08 24.43 12.9 24.39C12.67 24.34 12.44 24.27 12.21 24.21C11.98 24.15 11.74 24.17 11.53 24.25L11.06 24.51C10.98 24.55 10.9 24.6 10.83 24.64C10.6 24.77 10.38 24.9 10.15 25.03C10.05 25.09 9.95 25.15 9.85 25.2C9.72 25.27 9.59 25.35 9.46 25.42C9.23 25.55 9 25.69 8.76 25.82C8.59 25.86 8.4 25.79 8.32 25.63C8.25 25.5 8.29 25.35 8.33 25.21C8.39 24.98 8.45 24.76 8.51 24.53C8.57 24.3 8.63 24.07 8.69 23.85C8.72 23.73 8.76 23.6 8.79 23.48C8.82 23.37 8.86 23.25 8.88 23.14C8.9 22.98 8.86 22.83 8.79 22.69C8.73 22.6 8.66 22.51 8.57 22.45C8.41 22.33 8.25 22.21 8.1 22.09C7.98 21.99 7.86 21.89 7.75 21.79C7.64 21.69 7.54 21.6 7.43 21.5C7.29 21.37 7.16 21.23 7.03 21.09C6.93 20.98 6.83 20.87 6.73 20.75C6.64 20.64 6.55 20.53 6.46 20.42C6.32 20.24 6.19 20.05 6.06 19.85C6.05 19.79 6.03 19.75 6 19.71C5.86 19.49 5.73 19.27 5.61 19.03C5.53 18.87 5.45 18.7 5.37 18.53C5.34 18.47 5.32 18.4 5.29 18.34C5.19 18.11 5.11 17.87 5.04 17.63C4.97 17.41 4.92 17.19 4.87 16.96C4.82 16.73 4.78 16.5 4.76 16.27C4.69 15.6 4.7 14.9 4.8 14.22C4.83 14 4.87 13.77 4.93 13.55C4.98 13.32 5.05 13.09 5.12 12.87C5.2 12.64 5.29 12.41 5.38 12.18L5.39 12.16C5.49 11.93 5.6 11.71 5.72 11.49C5.98 11.01 6.29 10.55 6.64 10.12C6.68 10.07 6.72 10.02 6.76 9.97C6.91 9.79 7.08 9.61 7.24 9.44C7.3 9.38 7.36 9.32 7.43 9.26C7.6 9.09 7.78 8.93 7.97 8.77C8.02 8.72 8.08 8.68 8.13 8.64C8.56 8.29 9.02 7.98 9.49 7.7C9.68 7.59 9.86 7.49 10.06 7.39C10.1 7.37 10.15 7.35 10.19 7.32C10.41 7.21 10.64 7.1 10.87 7.01C11.32 6.82 11.77 6.66 12.24 6.52C12.49 6.45 12.73 6.38 12.98 6.33C13.19 6.28 13.39 6.24 13.6 6.2C13.94 6.14 14.29 6.1 14.63 6.06C14.97 6.02 15.32 6 15.66 6H16.26C16.75 6.01 17.23 6.05 17.72 6.12C17.95 6.15 18.18 6.19 18.4 6.23C18.63 6.27 18.86 6.32 19.08 6.38C19.31 6.44 19.54 6.5 19.77 6.57C20.24 6.71 20.7 6.88 21.15 7.08C21.38 7.18 21.6 7.29 21.83 7.4L21.85 7.41C22.07 7.53 22.3 7.65 22.52 7.78C23 8.07 23.46 8.4 23.9 8.76C23.91 8.77 23.93 8.78 23.94 8.79C24.16 8.98 24.37 9.16 24.57 9.37C24.6 9.4 24.64 9.44 24.67 9.47C24.83 9.63 24.99 9.81 25.14 9.98C25.05 10.02 24.96 10.06 24.87 10.1C24.77 10.14 24.67 10.19 24.57 10.24C24.35 10.34 24.12 10.44 23.9 10.54C23.7 10.63 23.5 10.72 23.3 10.81C23.27 10.82 23.24 10.83 23.21 10.85C22.98 10.95 22.75 11.05 22.52 11.16C22.06 11.36 21.6 11.57 21.14 11.77C20.69 11.97 20.23 12.17 19.78 12.38C19.55 12.48 19.32 12.58 19.09 12.69C18.95 12.75 18.81 12.82 18.66 12.88C18.57 12.92 18.48 12.96 18.4 12.99C18.17 13.09 17.94 13.2 17.7 13.3C17.51 13.38 17.32 13.47 17.14 13.55C17.1 13.57 17.06 13.58 17.02 13.6C16.79 13.7 16.56 13.8 16.33 13.91C15.87 14.11 15.41 14.32 14.95 14.52C14.6 14.67 14.25 14.83 13.9 14.99C13.8 15.04 13.69 15.08 13.58 15.1C13.35 15.14 13.11 15.11 12.9 15.01C12.85 14.98 12.8 14.96 12.75 14.93C12.57 14.8 12.4 14.68 12.22 14.55C12.08 14.45 11.93 14.34 11.79 14.24C11.7 14.18 11.62 14.12 11.53 14.06C11.31 13.9 11.09 13.74 10.86 13.58C10.86 13.58 10.85 13.57 10.84 13.57C10.68 13.45 10.52 13.34 10.36 13.23C10.3 13.19 10.23 13.16 10.15 13.14C9.91 13.13 9.7 13.36 9.75 13.6C9.94 14.05 10.16 14.5 10.36 14.95C10.47 15.18 10.57 15.42 10.68 15.65C10.72 15.74 10.76 15.83 10.8 15.93C10.86 16.06 10.92 16.2 10.98 16.33C11.08 16.56 11.19 16.78 11.29 17.01C11.36 17.15 11.42 17.3 11.49 17.44C11.53 17.53 11.57 17.61 11.6 17.7C11.72 17.94 11.8 18.2 11.96 18.42C12.03 18.48 12.1 18.54 12.18 18.58C12.41 18.69 12.69 18.68 12.91 18.55C12.99 18.5 13.07 18.46 13.15 18.41C13.29 18.33 13.44 18.24 13.58 18.16C14.04 17.9 14.49 17.63 14.95 17.37C15.15 17.26 15.34 17.14 15.54 17.03C15.57 17.01 15.61 16.99 15.64 16.97C15.87 16.84 16.1 16.71 16.32 16.58C16.45 16.51 16.58 16.43 16.71 16.36C16.81 16.3 16.91 16.24 17.01 16.19C17.24 16.06 17.46 15.93 17.69 15.8C17.76 15.76 17.83 15.72 17.9 15.68C18.06 15.59 18.22 15.49 18.38 15.4C18.84 15.14 19.3 14.87 19.75 14.61C19.92 14.51 20.1 14.41 20.27 14.31C20.32 14.28 20.37 14.25 20.43 14.22C20.66 14.09 20.89 13.96 21.11 13.82C21.23 13.75 21.35 13.68 21.47 13.61C21.58 13.55 21.69 13.49 21.8 13.42C22.26 13.15 22.72 12.89 23.19 12.62C23.41 12.49 23.62 12.37 23.84 12.24C23.86 12.23 23.87 12.22 23.89 12.21C24.12 12.08 24.34 11.95 24.57 11.82C24.73 11.73 24.89 11.63 25.05 11.54C25.11 11.5 25.18 11.47 25.24 11.43C25.46 11.31 25.67 11.17 25.89 11.07C25.97 11.23 26.07 11.38 26.15 11.54C26.27 11.77 26.39 12 26.49 12.24C26.52 12.31 26.55 12.38 26.57 12.45C26.63 12.61 26.69 12.77 26.75 12.93C26.82 13.15 26.88 13.37 26.94 13.59C26.99 13.82 27.04 14.05 27.07 14.28C27.1 14.51 27.13 14.73 27.14 14.96C27.19 15.15 27.19 15.38 27.18 15.61Z" fill="#202020"/>
</svg>
