<svg width="32" height="32" viewBox="0 0 32 32" fill="none" xmlns="http://www.w3.org/2000/svg">
<path d="M28.3196 12.75C28.2196 12.85 28.0896 12.9 27.9696 12.9C27.8496 12.9 27.7097 12.85 27.6196 12.75C24.5497 9.69 20.4796 8 16.1496 8C11.8196 8 7.74965 9.69 4.67965 12.75C4.48965 12.94 4.16965 12.95 3.96965 12.75C3.77965 12.55 3.77965 12.24 3.96965 12.04C7.21965 8.79 11.5496 7 16.1496 7C20.7496 7 25.0696 8.79 28.3296 12.04C28.5196 12.24 28.5196 12.56 28.3196 12.75ZM16.1496 11C12.7396 11 9.52965 12.33 7.11965 14.74C6.91965 14.94 6.91965 15.25 7.11965 15.45C7.31965 15.65 7.62965 15.65 7.82965 15.45C10.0496 13.22 12.9996 12 16.1496 12C19.2996 12 22.2496 13.22 24.4796 15.44C24.5796 15.54 24.7096 15.59 24.8296 15.59C24.9496 15.59 25.0896 15.54 25.1796 15.44C25.3797 15.24 25.3797 14.93 25.1796 14.73C22.7696 12.33 19.5596 11 16.1496 11ZM16.1496 15C13.7596 15 11.5096 15.86 9.80965 17.42C9.60965 17.61 9.58965 17.92 9.77965 18.13C9.96965 18.33 10.2796 18.35 10.4896 18.16C11.9796 16.79 14.0396 16 16.1496 16C18.2896 16 20.2996 16.77 21.8096 18.16C21.9096 18.25 22.0296 18.29 22.1496 18.29C22.2796 18.29 22.4196 18.24 22.5196 18.13C22.7097 17.93 22.6896 17.61 22.4896 17.42C20.7896 15.86 18.5396 15 16.1496 15ZM20.1796 23.14C20.4996 23.45 20.5896 23.9 20.4196 24.3C20.2496 24.72 19.8296 25 19.3496 25H12.6396C12.1696 25 11.7496 24.73 11.5696 24.3C11.3996 23.89 11.4996 23.45 11.8096 23.14L15.1596 19.83C15.6096 19.38 16.3496 19.38 16.7996 19.83L20.1796 23.14ZM19.4996 23.92L16.1196 20.54C16.0596 20.48 15.9396 20.48 15.8796 20.54L12.5296 23.85C12.5096 23.94 12.5396 24 12.6496 24H19.3596C19.4596 24 19.4896 23.94 19.4996 23.92Z" fill="#202020"/>
</svg>
