<svg width="32" height="32" viewBox="0 0 32 32" fill="none" xmlns="http://www.w3.org/2000/svg">
<path d="M30.5797 7.23812C30.7797 7.43812 30.7797 7.74813 30.5797 7.94812C30.4797 8.04812 30.3497 8.09813 30.2297 8.09813C30.1097 8.09813 29.9697 8.04812 29.8797 7.94812L27.3597 5.42812L24.6197 8.16813C26.6697 10.1681 27.9497 12.9581 27.9497 16.0381C27.9497 22.1081 23.0197 27.0381 16.9497 27.0381C10.9197 27.0381 6.00971 22.1581 5.95972 16.1481L4.93972 17.3681C4.83972 17.4881 4.69971 17.5481 4.55971 17.5481C4.44971 17.5481 4.32971 17.5081 4.23971 17.4281C4.02971 17.2481 3.99971 16.9381 4.17971 16.7281L5.99971 14.5581C6.17971 14.3481 6.48971 14.3181 6.69971 14.4981L8.86971 16.3181C9.07971 16.4981 9.10971 16.8081 8.92972 17.0181C8.74972 17.2281 8.43971 17.2581 8.22971 17.0781L6.95972 16.0081C6.95972 16.0181 6.96971 16.0281 6.96971 16.0381C6.96971 21.5481 11.4597 26.0381 16.9697 26.0381C22.4797 26.0381 26.9697 21.5481 26.9697 16.0381C26.9697 10.5281 22.4797 6.03813 16.9697 6.03813C12.8797 6.03813 9.23971 8.48812 7.69971 12.2881C7.59971 12.5481 7.29972 12.6681 7.04972 12.5681C6.78972 12.4681 6.66972 12.1681 6.76972 11.9181C8.45971 7.74813 12.4597 5.04813 16.9697 5.04813C19.5897 5.04813 21.9997 5.96813 23.8897 7.50813L26.6697 4.72813L24.2397 2.29812C24.0397 2.09812 24.0397 1.78813 24.2397 1.58813C24.4397 1.38813 24.7497 1.38813 24.9497 1.58813L27.3797 4.01813L29.9197 1.47813C30.1197 1.27813 30.4297 1.27813 30.6297 1.47813C30.8297 1.67813 30.8297 1.98813 30.6297 2.18813L28.0897 4.72813L30.5797 7.23812Z" fill="white"/>
</svg>
