<svg width="32" height="32" viewBox="0 0 32 32" fill="none" xmlns="http://www.w3.org/2000/svg">
<rect width="32" height="32" rx="16" fill="white"/>
<path d="M8.03949 8.49056C8.03293 8.50041 8.56461 9.22572 9.21772 10.0987C9.87083 10.9717 11.2591 12.8293 12.3028 14.2242L14.1997 16.7611L14.0783 16.899C14.0094 16.9744 12.6146 18.4809 10.9801 20.2466C9.34572 22.0155 8.00339 23.4727 8.00011 23.4891C7.99355 23.5055 8.27908 23.5187 8.68932 23.5154L9.38838 23.5121L9.61812 23.2594C9.74612 23.1216 10.9342 21.8383 12.2601 20.4041C13.586 18.9699 14.7084 17.7555 14.7544 17.703L14.8364 17.6079L15.4928 18.4874C15.8539 18.9699 16.8483 20.3024 17.7016 21.4445L19.2572 23.5187H21.6367C23.6157 23.5187 24.0128 23.5121 23.9997 23.476C23.9898 23.4498 23.386 22.6358 22.6574 21.6611C21.9288 20.6896 21.0952 19.5738 20.8063 19.1865C20.5142 18.7992 19.6576 17.6472 18.8962 16.6331C18.1348 15.6157 17.5112 14.769 17.5112 14.7558C17.5112 14.7329 21.5349 10.3646 22.9035 8.90409L23.2941 8.48728H22.5753L21.8598 8.49056L21.0229 9.39638C20.5635 9.89524 19.4378 11.1161 18.5188 12.104L16.8549 13.9025L14.8364 11.2047L12.8148 8.50369L10.4353 8.48728C9.12582 8.47743 8.04606 8.48072 8.03949 8.49056ZM13.6779 11.3984C14.4557 12.442 15.6569 14.0469 16.3461 14.9692C17.0354 15.8881 18.5648 17.9361 19.7463 19.5147C20.9278 21.0966 21.9058 22.4061 21.9222 22.4291C21.9419 22.4586 21.7089 22.4684 20.8588 22.4684H19.7725L17.6195 19.5869C12.6507 12.9475 10.1432 9.5933 10.1137 9.54407C10.094 9.51453 10.3172 9.50469 11.1738 9.50469H12.2601L13.6779 11.3984Z" fill="black"/>
</svg>
