<svg width="512" height="424" viewBox="0 0 512 424" fill="none" xmlns="http://www.w3.org/2000/svg">
<path d="M275.341 424C389.294 424 481.67 331.624 481.67 217.668C481.67 103.716 389.294 11.339 275.341 11.339C161.386 11.339 69.0089 103.716 69.0089 217.668C69.0089 331.624 161.386 424 275.341 424Z" fill="#F5F5F5"/>
<path d="M320.346 234.604V229.086H190.496H130.851H1V234.604C1 235.312 1.56822 235.877 2.27655 235.877H2.31497C3.73163 236.439 14.9706 240.708 32.2087 240.858H289.133C306.377 240.708 317.608 236.439 319.025 235.877H319.069C319.771 235.877 320.346 235.312 320.346 234.604ZM255.407 229.086H293.964V71.1562C293.964 66.4016 290.108 62.5402 285.346 62.5402H35.9996C31.245 62.5402 27.3839 66.4016 27.3839 71.1562V229.086H255.407Z" fill="white"/>
<path d="M2.31497 235.877H2.27655C1.56822 235.877 1 235.312 1 234.604V229.086H130.851H190.496H320.346V234.604C320.346 235.312 319.771 235.877 319.069 235.877H319.025M2.31497 235.877C3.73163 236.439 14.9706 240.708 32.2087 240.858H289.133C306.377 240.708 317.608 236.439 319.025 235.877M2.31497 235.877H319.025M255.407 229.086H293.964V71.1562C293.964 66.4016 290.108 62.5402 285.346 62.5402H35.9996C31.245 62.5402 27.3839 66.4016 27.3839 71.1562V229.086H255.407Z" stroke="black" stroke-width="0.635259" stroke-miterlimit="10"/>
<path d="M286.217 215.934H35.1255V71.0096H286.217V215.934Z" fill="#9AAEF9"/>
<path d="M190.496 229.087V229.172C190.496 231.316 188.76 233.051 186.622 233.051H134.725C132.581 233.051 130.845 231.316 130.845 229.172L130.851 229.087M286.217 215.934H35.1255V71.0096H286.217V215.934Z" stroke="black" stroke-width="0.635259" stroke-miterlimit="10"/>
<path d="M402.161 71.5359V44.9366C402.161 39.3403 397.597 34.8036 391.968 34.8036H336.774C331.146 34.8036 326.581 39.3403 326.581 44.9366V71.5359C326.581 77.1325 331.146 81.6692 336.774 81.6692H374.137L387.725 95.1799V81.6692H391.968C397.597 81.6692 402.161 77.1325 402.161 71.5359Z" fill="#9AAEF9"/>
<path d="M402.161 71.5359V44.9366C402.161 39.3403 397.597 34.8036 391.968 34.8036H336.774C331.146 34.8036 326.581 39.3403 326.581 44.9366V71.5359C326.581 77.1325 331.146 81.6692 336.774 81.6692H374.137L387.725 95.1799V81.6692H391.968C397.597 81.6692 402.161 77.1325 402.161 71.5359Z" stroke="#9AAEF9" stroke-width="0.635259" stroke-miterlimit="10"/>
<path d="M378.39 57.6674C378.39 65.6663 371.923 72.1503 363.947 72.1503C355.972 72.1503 349.505 65.6663 349.505 57.6674C349.505 49.6688 355.972 43.1844 363.947 43.1844C371.923 43.1844 378.39 49.6688 378.39 57.6674Z" stroke="white" stroke-width="0.635259" stroke-miterlimit="10"/>
<path d="M378.383 57.8459C378.387 57.729 378.39 57.6121 378.39 57.4949C378.39 49.5916 372.005 43.1844 364.128 43.1844V57.8459H378.383Z" fill="white"/>
<path d="M378.383 57.8459C378.387 57.729 378.39 57.6121 378.39 57.4949C378.39 49.5916 372.005 43.1844 364.128 43.1844V57.8459H378.383Z" stroke="white" stroke-width="0.635259" stroke-miterlimit="10"/>
<path d="M164.928 176.741C162.578 176.741 160.674 178.644 160.674 180.993C160.674 183.342 162.578 185.247 164.928 185.247C167.277 185.247 169.182 183.342 169.182 180.993C169.182 178.644 167.277 176.741 164.928 176.741Z" fill="#C2CEFB"/>
<path d="M206.846 192.333C204.497 192.333 202.593 194.236 202.593 196.585C202.593 198.934 204.497 200.839 206.846 200.839C209.196 200.839 211.1 198.934 211.1 196.585C211.1 194.236 209.196 192.333 206.846 192.333Z" fill="#C2CEFB"/>
<path d="M209.746 116.707C207.396 116.707 205.492 114.803 205.492 112.454C205.492 110.105 207.396 108.2 209.746 108.2C212.095 108.2 214 110.105 214 112.454C214 114.803 212.095 116.707 209.746 116.707Z" fill="#C2CEFB"/>
<path d="M282.764 160.902H214.765L194.674 180.993H164.927M285.855 178.622H224.81L206.845 196.585M285.855 127.089H238.565L225.583 112.454H209.746M285.664 143.703H186.563" stroke="#C2CEFB" stroke-width="2.12677" stroke-miterlimit="10"/>
<path d="M186.563 139.449C184.214 139.449 182.311 141.354 182.311 143.703C182.311 146.052 184.214 147.956 186.563 147.956C188.913 147.956 190.817 146.052 190.817 143.703C190.817 141.354 188.913 139.449 186.563 139.449Z" fill="#C2CEFB"/>
<path d="M368.969 170.257C370.913 168.71 373.746 169.031 375.293 170.974L380.892 178.003L373.851 183.606L368.251 176.577C366.704 174.634 367.025 171.804 368.969 170.257Z" fill="white"/>
<path d="M368.969 170.257C370.913 168.71 373.746 169.031 375.293 170.974L380.892 178.003L373.851 183.606L368.251 176.577C366.704 174.634 367.025 171.804 368.969 170.257Z" stroke="black" stroke-width="0.635259" stroke-miterlimit="10"/>
<path d="M420.615 183.538C412.014 183.538 405.042 176.572 405.042 167.979V143.834C405.042 135.241 412.014 128.275 420.615 128.275C429.22 128.275 436.192 135.241 436.192 143.834V167.979C436.192 176.572 429.22 183.538 420.615 183.538Z" fill="black"/>
<path d="M420.615 183.538C412.014 183.538 405.042 176.572 405.042 167.979V143.834C405.042 135.241 412.014 128.275 420.615 128.275C429.22 128.275 436.192 135.241 436.192 143.834V167.979C436.192 176.572 429.22 183.538 420.615 183.538Z" stroke="white" stroke-width="0.635259"/>
<path d="M380.261 177.108L393.15 189.859C394.671 191.365 397.197 191.082 398.35 189.276L404.204 180.087L404.207 180.095C407.783 173.201 415.003 170.292 425.415 170.292C440.518 170.292 448.91 176.408 449.196 191.943L458.474 310.19H395.98L400.357 217.808C396.946 219.262 392.832 219.786 388.122 218.119C373.73 213.021 363.509 189.487 363.509 189.487L380.261 177.108Z" fill="black"/>
<path d="M380.261 177.108L393.15 189.859C394.671 191.365 397.197 191.082 398.35 189.276L404.204 180.087L404.207 180.095C407.783 173.201 415.003 170.292 425.415 170.292C440.518 170.292 448.91 176.408 449.196 191.943L458.474 310.19H395.98L400.357 217.808C396.946 219.262 392.832 219.786 388.122 218.119C373.73 213.021 363.509 189.487 363.509 189.487L380.261 177.108Z" stroke="white" stroke-width="0.635259"/>
<path d="M428.426 173.607V148.753C428.426 145.88 426.101 143.548 423.227 143.54L410.115 143.505H408.917C408.847 143.974 408.803 144.45 408.803 144.938V152.799C408.803 157.879 412.643 162.06 417.579 162.604V174.469C417.579 178.824 421.508 182.262 426.015 181.43C428.321 181.004 430.119 179.437 431.043 177.415C429.493 176.865 428.426 175.319 428.426 173.607Z" fill="white"/>
<path d="M428.388 148.758V173.64C428.388 175.66 429.878 177.464 431.907 177.656C434.232 177.876 436.192 176.068 436.192 173.806V144.783" fill="black"/>
<path d="M428.388 148.758V173.64C428.388 175.66 429.878 177.464 431.907 177.656C434.232 177.876 436.192 176.068 436.192 173.806V144.783" stroke="white" stroke-width="0.635259"/>
<path d="M425.126 151.508C425.126 149.686 426.603 148.208 428.426 148.208C430.249 148.208 431.726 149.686 431.726 151.508C431.726 153.331 430.249 154.808 428.426 154.808C426.603 154.808 425.126 153.331 425.126 151.508Z" fill="white"/>
<path d="M381.207 199.635L386.381 219.345H444.476L439.302 199.635H381.207Z" fill="white"/>
<path d="M277.511 224.627V355.389H505.858V224.627H277.511Z" fill="black"/>
<path d="M271.905 219.735V225.31H511.467V219.735H271.905Z" fill="black"/>
<path d="M271.905 219.735V225.31H511.467V219.735H271.905Z" stroke="white" stroke-width="0.635259" stroke-miterlimit="10"/>
<path d="M263.268 270.146H263.392C265.838 270.229 267.887 268.314 267.966 265.874L268.093 258.499L259.225 258.553L259.114 265.579C259.031 268.018 260.822 270.064 263.268 270.146Z" fill="white"/>
<path d="M263.268 270.146H263.392C265.838 270.229 267.887 268.314 267.966 265.874L268.093 258.499L259.225 258.553L259.114 265.579C259.031 268.018 260.822 270.064 263.268 270.146Z" stroke="black" stroke-width="0.635259" stroke-miterlimit="10"/>
<path d="M244.755 275.676H278.518H280.709L282.799 323.886L279.55 325.56H241.558L244.755 275.676Z" fill="white"/>
<path d="M244.755 275.676H278.518H280.709L282.799 323.886L279.55 325.56H241.558L244.755 275.676Z" stroke="black" stroke-width="0.635259" stroke-miterlimit="10"/>
<path d="M278.298 275.705L279.524 325.531" stroke="#9AAEF9" stroke-width="0.635259" stroke-miterlimit="10"/>
<path d="M278.27 275.705L279.553 325.531" stroke="black" stroke-width="0.635259"/>
<path d="M267.826 278.596C267.873 274.228 267.73 267.561 261.886 267.269C256.054 266.977 255.896 273.583 255.946 277.998" stroke="#9AAEF9" stroke-width="0.635259" stroke-miterlimit="10"/>
<path d="M258.164 201.903V258.963H272.899V201.903H258.164Z" fill="white"/>
<path d="M258.164 201.903V258.963H272.899V201.903H258.164Z" stroke="black" stroke-width="0.635259" stroke-miterlimit="10"/>
<path d="M302.546 159.038L300.523 148.836C299.376 143.052 293.97 138.858 288.065 139.617C281.599 140.449 277.279 146.489 278.517 152.726L280.23 161.376C280.233 161.382 280.233 161.388 280.233 161.394C280.487 162.652 280.604 163.933 280.411 165.201L278.343 178.798H292.172V170.269C292.563 170.234 292.957 170.181 293.351 170.105C299.614 170.105 303.75 165.125 302.546 159.038Z" fill="white"/>
<path d="M302.546 159.038L300.523 148.836C299.376 143.052 293.97 138.858 288.065 139.617C281.599 140.449 277.279 146.489 278.517 152.726L280.23 161.376C280.233 161.382 280.233 161.388 280.233 161.394C280.487 162.652 280.604 163.933 280.411 165.201L278.343 178.798H292.172V170.269C292.563 170.234 292.957 170.181 293.351 170.105C299.614 170.105 303.75 165.125 302.546 159.038Z" stroke="black" stroke-width="0.635259" stroke-miterlimit="10"/>
<path d="M281.097 135.62L282.469 135.353C283.65 135.122 284.746 134.458 285.337 133.412C285.934 132.353 286.973 131.552 288.262 131.3C289.752 131.009 291.207 131.517 292.195 132.522C292.245 129.751 294.968 127.415 298.318 128.584C299.694 129.062 300.65 130.325 300.786 131.768V131.776L302.337 139.639C302.711 141.544 301.466 143.391 299.554 143.765L295.479 144.562C292.242 145.195 290.13 148.324 290.765 151.551L291.48 155.03C292.357 159.317 289.793 163.726 285.515 164.707C281.093 165.72 276.742 162.883 275.875 158.482L273.572 146.779C272.556 141.626 275.926 136.63 281.097 135.62Z" fill="black"/>
<path d="M281.097 135.62L282.469 135.353C283.65 135.122 284.746 134.458 285.337 133.412C285.934 132.353 286.973 131.552 288.262 131.3C289.752 131.009 291.207 131.517 292.195 132.522C292.245 129.751 294.968 127.415 298.318 128.584C299.694 129.062 300.65 130.325 300.786 131.768V131.776L302.337 139.639C302.711 141.544 301.466 143.391 299.554 143.765L295.479 144.562C292.242 145.195 290.13 148.324 290.765 151.551L291.48 155.03C292.357 159.317 289.793 163.726 285.515 164.707C281.093 165.72 276.742 162.883 275.875 158.482L273.572 146.779C272.556 141.626 275.926 136.63 281.097 135.62Z" stroke="white" stroke-width="0.635259" stroke-miterlimit="10"/>
<path d="M277.107 338.637H270.065V344.561H277.107V338.637Z" fill="white"/>
<path d="M277.107 338.637H270.065V344.561H277.107V338.637Z" stroke="black" stroke-width="0.635259" stroke-miterlimit="10"/>
<path d="M300.335 338.637H291.489V346.425L300.335 344.478V338.637Z" fill="white"/>
<path d="M300.335 338.637H291.489V346.425L300.335 344.478V338.637Z" stroke="black" stroke-width="0.635259" stroke-miterlimit="10"/>
<path d="M300.021 343.935L291.496 345.825L290.657 354.674H313.27V351.078L300.021 343.935Z" fill="black"/>
<path d="M300.021 343.935L291.496 345.825L290.657 354.674H313.27V351.078L300.021 343.935Z" stroke="white" stroke-width="0.635259" stroke-miterlimit="10"/>
<path d="M270.231 343.948H277.018L279.918 350.135V354.674H265.943V350.135L270.231 343.948Z" fill="black"/>
<path d="M270.231 343.948H277.018L279.918 350.135V354.674H265.943V350.135L270.231 343.948Z" stroke="white" stroke-width="0.635259" stroke-miterlimit="10"/>
<path d="M283.758 254.675L283.755 254.636L305.097 254.675L300.93 339.139H291.004L285.477 274.685L277.806 339.139H267.852L265.542 254.675H283.758Z" fill="black"/>
<path d="M283.758 254.675L283.755 254.636L305.097 254.675L300.93 339.139H291.004L285.477 274.685L277.806 339.139H267.852L265.542 254.675H283.758Z" stroke="white" stroke-width="0.635259" stroke-miterlimit="10"/>
<path d="M335.948 185.85C333.544 185.406 331.231 186.969 330.78 189.34L329.154 197.917L337.857 199.524L339.483 190.947C339.934 188.576 338.349 186.294 335.948 185.85Z" fill="white"/>
<path d="M335.948 185.85C333.544 185.406 331.231 186.969 330.78 189.34L329.154 197.917L337.857 199.524L339.483 190.947C339.934 188.576 338.349 186.294 335.948 185.85Z" stroke="black" stroke-width="0.635259" stroke-miterlimit="10"/>
<path d="M330.075 195.977L324.971 211.026C324.221 213.237 321.042 213.084 320.508 210.81C320.508 210.81 312.748 187.675 311.843 185.89L311.83 185.851L311.824 185.857C307.546 177.463 298.836 173.919 286.239 173.919C267.747 173.919 257.608 181.529 257.608 200.952C257.608 201.881 258.008 207.216 258.199 208.302L264.113 255.177H307.063L308.238 223.884C310.979 229.28 314.61 233.4 319.32 233.4C332.985 233.4 338.575 195.977 338.575 195.977H330.075Z" fill="white"/>
<path d="M302.041 206.392C302.067 206.502 304.598 217.471 308.927 224.992M330.075 195.977L324.971 211.026C324.221 213.237 321.042 213.084 320.508 210.81C320.508 210.81 312.748 187.675 311.843 185.89L311.83 185.851L311.824 185.857C307.546 177.463 298.836 173.919 286.239 173.919C267.747 173.919 257.608 181.529 257.608 200.952C257.608 201.881 258.008 207.216 258.199 208.302L264.113 255.177H307.063L308.238 223.884C310.979 229.28 314.61 233.4 319.32 233.4C332.985 233.4 338.575 195.977 338.575 195.977H330.075Z" stroke="black" stroke-width="0.635259" stroke-miterlimit="10"/>
<path d="M144.038 250.244C145.814 248.776 146.065 246.146 144.598 244.368L130.013 226.177L123.578 231.491L138.163 249.682C139.63 251.46 142.261 251.711 144.038 250.244Z" fill="white"/>
<path d="M144.038 250.244C145.814 248.776 146.065 246.146 144.598 244.368L130.013 226.177L123.578 231.491L138.163 249.682C139.63 251.46 142.261 251.711 144.038 250.244Z" stroke="black" stroke-width="0.635259" stroke-miterlimit="10"/>
<path d="M133.97 227.038L127.454 232.641L114.212 219.748L123.442 211.811L133.97 227.038Z" fill="#9AAEF9"/>
<path d="M133.97 227.038L127.454 232.641L114.212 219.748L123.442 211.811L133.97 227.038Z" stroke="black" stroke-width="0.635259" stroke-miterlimit="10"/>
<path d="M125.26 253.715H157.3H159.381L161.364 299.467L158.28 301.055H122.225L125.26 253.715Z" fill="white"/>
<path d="M125.26 253.715H157.3H159.381L161.364 299.467L158.28 301.055H122.225L125.26 253.715Z" stroke="black" stroke-width="0.635259" stroke-miterlimit="10"/>
<path d="M64.9186 257.876C63.7815 258.13 62.7736 258.899 62.2645 260.042L50.8266 285.745C50.4137 286.673 50.387 287.705 50.751 288.655C51.115 289.601 51.8262 290.351 52.754 290.764H52.7549C54.6693 291.615 56.9194 290.751 57.7713 288.836L69.2091 263.133C69.622 262.206 69.6487 261.173 69.2847 260.224C68.9207 259.277 68.2095 258.527 67.2817 258.114C66.5109 257.771 65.6853 257.708 64.9186 257.876Z" stroke="#9AAEF9" stroke-width="0.635259" stroke-miterlimit="10"/>
<path d="M26.9476 347.934L16.5882 343.325C12.1668 341.359 10.1774 336.182 12.1452 331.76L32.7574 285.456C34.7248 281.038 39.9018 279.05 44.322 281.016L54.6815 285.621C59.1029 287.591 61.0922 292.768 59.1245 297.189L38.5122 343.493C36.5448 347.912 31.3678 349.9 26.9476 347.934Z" fill="white"/>
<path d="M26.9476 347.934L16.5882 343.325C12.1668 341.359 10.1774 336.182 12.1452 331.76L32.7574 285.456C34.7248 281.038 39.9018 279.05 44.322 281.016L54.6815 285.621C59.1029 287.591 61.0922 292.768 59.1245 297.189L38.5122 343.493C36.5448 347.912 31.3678 349.9 26.9476 347.934Z" stroke="black" stroke-width="0.635259" stroke-miterlimit="10"/>
<path d="M15.4369 350.05C14.7854 350.196 14.0847 350.138 13.4297 349.849C12.6417 349.497 12.0376 348.862 11.7282 348.058C11.4191 347.251 11.442 346.375 11.7927 345.587C12.5162 343.961 14.4287 343.227 16.0553 343.951C16.8433 344.3 17.4474 344.936 17.7568 345.742C18.0662 346.546 18.043 347.423 17.6926 348.21C17.26 349.182 16.4034 349.837 15.4369 350.05Z" fill="black"/>
<path d="M15.4369 350.05C14.7854 350.196 14.0847 350.138 13.4297 349.849C12.6417 349.497 12.0376 348.862 11.7282 348.058C11.4191 347.251 11.442 346.375 11.7927 345.587C12.5162 343.961 14.4287 343.227 16.0553 343.951C16.8433 344.3 17.4474 344.936 17.7568 345.742C18.0662 346.546 18.043 347.423 17.6926 348.21C17.26 349.182 16.4034 349.837 15.4369 350.05Z" stroke="white" stroke-width="0.635259" stroke-miterlimit="10"/>
<path d="M25.9452 354.725C25.2941 354.871 24.5931 354.814 23.9381 354.525C23.1501 354.172 22.5459 353.537 22.2369 352.73C21.9275 351.927 21.9504 351.05 22.3011 350.262C23.0249 348.636 24.9367 347.902 26.5636 348.623C27.3517 348.976 27.9558 349.611 28.2652 350.415C28.5746 351.221 28.5517 352.098 28.201 352.886C27.7687 353.858 26.9121 354.512 25.9452 354.725Z" fill="black"/>
<path d="M25.9452 354.725C25.2941 354.871 24.5931 354.814 23.9381 354.525C23.1501 354.172 22.5459 353.537 22.2369 352.73C21.9275 351.927 21.9504 351.05 22.3011 350.262C23.0249 348.636 24.9367 347.902 26.5636 348.623C27.3517 348.976 27.9558 349.611 28.2652 350.415C28.5746 351.221 28.5517 352.098 28.201 352.886C27.7687 353.858 26.9121 354.512 25.9452 354.725Z" stroke="white" stroke-width="0.635259" stroke-miterlimit="10"/>
<path d="M141.945 336.102L143.995 345.469L136.75 347.156L132.594 336.922L141.945 336.102Z" fill="white"/>
<path d="M141.945 336.102L143.995 345.469L136.75 347.156L132.594 336.922L141.945 336.102Z" stroke="black" stroke-width="0.635259" stroke-miterlimit="10"/>
<path d="M143.991 345.037L136.761 346.721L136.819 354.671L160.914 354.496L160.897 352.209L143.991 345.037Z" fill="black"/>
<path d="M143.991 345.037L136.761 346.721L136.819 354.671L160.914 354.496L160.897 352.209L143.991 345.037Z" stroke="white" stroke-width="0.635259" stroke-miterlimit="10"/>
<path d="M86.4131 336.013L85.2331 338.98L76.7209 337.976L77.529 333.917L86.4131 336.013Z" fill="white"/>
<path d="M86.4131 336.013L85.2331 338.98L76.7209 337.976L77.529 333.917L86.4131 336.013Z" stroke="black" stroke-width="0.635259" stroke-miterlimit="10"/>
<path d="M65.6867 265.808C67.8555 266.586 70.245 265.462 71.0239 263.292L84.7004 225.882L76.8454 223.064L63.1692 260.475C62.3904 262.641 63.5177 265.03 65.6867 265.808Z" fill="white"/>
<path d="M65.6867 265.808C67.8555 266.586 70.245 265.462 71.0239 263.292L84.7004 225.882L76.8454 223.064L63.1692 260.475C62.3904 262.641 63.5177 265.03 65.6867 265.808Z" stroke="black" stroke-width="0.635259" stroke-miterlimit="10"/>
<path d="M103.428 184.335L106.38 162.607V157.477C106.38 152.315 110.565 148.13 115.729 148.13C120.892 148.13 125.078 152.315 125.078 157.477V164.922C125.078 169.734 121.44 173.693 116.764 174.208H116.764V185.446C116.764 189.57 113.041 192.826 108.772 192.038C105.234 191.385 102.944 187.899 103.428 184.335Z" fill="white"/>
<path d="M103.428 184.335L106.38 162.607V157.477C106.38 152.315 110.565 148.13 115.729 148.13C120.892 148.13 125.078 152.315 125.078 157.477V164.922C125.078 169.734 121.44 173.693 116.764 174.208H116.764V185.446C116.764 189.57 113.041 192.826 108.772 192.038C105.234 191.385 102.944 187.899 103.428 184.335Z" stroke="black" stroke-width="0.635259" stroke-miterlimit="10"/>
<path d="M150.433 335.346L127.862 253.62L91.9104 257.788L71.95 333.917L95.2033 337.027L111.191 337.624L125.067 340.206L150.433 335.346Z" fill="black"/>
<path d="M150.433 335.346L127.862 253.62L91.9104 257.788L71.95 333.917L95.2033 337.027L111.191 337.624L125.067 340.206L150.433 335.346Z" stroke="white" stroke-width="0.635259" stroke-miterlimit="10"/>
<path d="M130.537 253.15C130.537 253.15 123.802 203.25 121.434 191.501C120.74 188.061 117.905 185.47 114.417 185.082L103.554 183.766C100.593 183.408 97.8404 184.918 96.4692 187.366L74.7153 222.696L85.0767 229.074L92.4766 217.058L87.4148 260.741L130.537 253.15Z" fill="#9AAEF9"/>
<path d="M130.537 253.15C130.537 253.15 123.802 203.25 121.434 191.501C120.74 188.061 117.905 185.47 114.417 185.082L103.554 183.766C100.593 183.408 97.8404 184.918 96.4692 187.366L74.7153 222.696L85.0767 229.074L92.4766 217.058L87.4148 260.741L130.537 253.15Z" stroke="black" stroke-width="0.635259" stroke-miterlimit="10"/>
<path d="M147.135 256.485C147.181 252.35 147.046 246.035 141.519 245.759C136.003 245.483 135.854 251.74 135.901 255.923" stroke="#9AAEF9" stroke-width="0.635259" stroke-miterlimit="10"/>
<path d="M109.683 163.054C109.683 161.453 108.385 160.155 106.784 160.155C105.183 160.155 103.885 161.453 103.885 163.054C103.885 164.655 105.183 165.953 106.784 165.953C108.385 165.953 109.683 164.655 109.683 163.054Z" fill="white"/>
<path d="M109.683 163.054C109.683 161.453 108.385 160.155 106.784 160.155C105.183 160.155 103.885 161.453 103.885 163.054C103.885 164.655 105.183 165.953 106.784 165.953C108.385 165.953 109.683 164.655 109.683 163.054Z" stroke="white" stroke-width="0.635259" stroke-miterlimit="10"/>
<path d="M104.732 178.699C100.935 178.699 97.3757 177.017 94.9662 174.082C92.5569 171.149 91.5986 167.331 92.3375 163.607L94.3519 153.447C95.05 144.951 102.233 138.317 110.771 138.317C119.864 138.317 127.262 145.714 127.263 154.807V155.005L108.807 154.989C108.748 156.006 108.522 161.074 109.498 166.179C110.585 171.867 113.305 178.343 113.332 178.407L113.449 178.682L104.732 178.699Z" fill="black"/>
<path d="M104.732 178.699C100.935 178.699 97.3757 177.017 94.9662 174.082C92.5569 171.149 91.5986 167.331 92.3375 163.607L94.3519 153.447C95.05 144.951 102.233 138.317 110.771 138.317C119.864 138.317 127.262 145.714 127.263 154.807V155.005L108.807 154.989C108.748 156.006 108.522 161.074 109.498 166.179C110.585 171.867 113.305 178.343 113.332 178.407L113.449 178.682L104.732 178.699Z" stroke="white" stroke-width="0.635259" stroke-miterlimit="10"/>
<path d="M85.2045 338.593L76.8448 337.637L73.8766 346.152L97.042 354.223L97.8957 351.774L85.2045 338.593Z" fill="black"/>
<path d="M85.2045 338.593L76.8448 337.637L73.8766 346.152L97.0419 354.223L97.8957 351.774L85.2045 338.593Z" stroke="white" stroke-width="0.635259" stroke-miterlimit="10"/>
<path d="M432.047 99.9597V75.2633C432.047 70.0675 436.262 65.8555 441.455 65.8555H492.416C497.612 65.8555 501.824 70.0675 501.824 75.2633V99.9597C501.824 105.156 497.612 109.368 492.416 109.368H457.921L445.378 121.912V109.368H441.455C436.262 109.368 432.047 105.156 432.047 99.9597Z" fill="white"/>
<path d="M484.459 79.5367H449.447M484.459 87.2186H449.447M484.459 94.9008H449.447M432.047 99.9597V75.2633C432.047 70.0675 436.262 65.8555 441.455 65.8555H492.416C497.612 65.8555 501.824 70.0675 501.824 75.2633V99.9597C501.824 105.156 497.612 109.368 492.416 109.368H457.921L445.378 121.912V109.368H441.455C436.262 109.368 432.047 105.156 432.047 99.9597Z" stroke="#9AAEF9" stroke-width="0.952889"/>
<path d="M239.007 62.8111C239.007 42.3944 222.459 25.8444 202.047 25.8444C200.545 25.8444 199.068 25.9444 197.613 26.1185C189.136 11.1264 173.061 1 154.612 1C130.189 1 109.92 18.738 105.949 42.0336C105.611 42.0219 105.273 42.0079 104.932 42.0079C88.9822 42.0079 76.0521 54.9402 76.0521 70.8928C76.0521 86.8457 88.9822 99.778 104.932 99.778H202.047C222.459 99.778 239.007 83.227 239.007 62.8111Z" fill="white"/>
<path d="M239.007 62.8111C239.007 42.3944 222.459 25.8444 202.047 25.8444C200.545 25.8444 199.068 25.9444 197.613 26.1185C189.136 11.1264 173.061 1 154.612 1C130.189 1 109.92 18.738 105.949 42.0336C105.611 42.0219 105.273 42.0079 104.932 42.0079C88.9822 42.0079 76.0521 54.9402 76.0521 70.8928C76.0521 86.8457 88.9822 99.778 104.932 99.778H202.047C222.459 99.778 239.007 83.227 239.007 62.8111Z" stroke="#9AAEF9" stroke-width="0.952889"/>
<path d="M138.805 63.1044V105.631H176.253V63.1044H192.969L157.529 29.1104L122.09 63.1044H138.805Z" fill="#9AAEF9"/>
</svg>
