<svg width="279" height="231" viewBox="0 0 279 231" fill="none" xmlns="http://www.w3.org/2000/svg">
<path d="M150.169 231C212.129 231 262.357 180.772 262.357 118.81C262.357 56.8503 212.129 6.6217 150.169 6.6217C88.2079 6.6217 37.979 56.8503 37.979 118.81C37.979 180.772 88.2079 231 150.169 231Z" fill="#F5F5F5"/>
<path d="M174.64 128.018V125.019H104.036H71.6044H1V128.018C1 128.404 1.30896 128.711 1.6941 128.711H1.715C2.48528 129.017 8.59631 131.338 17.9693 131.419H157.668C167.044 131.338 173.151 129.017 173.921 128.711H173.945C174.327 128.711 174.64 128.404 174.64 128.018ZM139.33 125.019H160.295V39.1464C160.295 36.5611 158.198 34.4615 155.609 34.4615H20.0305C17.4453 34.4615 15.3458 36.5611 15.3458 39.1464V125.019H139.33Z" fill="white"/>
<path d="M1.715 128.711H1.6941C1.30896 128.711 1 128.404 1 128.018V125.019H71.6044H104.036H174.64V128.018C174.64 128.404 174.327 128.711 173.945 128.711H173.921M1.715 128.711C2.48528 129.017 8.59631 131.338 17.9693 131.419H157.668C167.044 131.338 173.151 129.017 173.921 128.711M1.715 128.711H173.921M139.33 125.019H160.295V39.1464C160.295 36.5611 158.198 34.4615 155.609 34.4615H20.0305C17.4453 34.4615 15.3458 36.5611 15.3458 39.1464V125.019H139.33Z" stroke="black" stroke-width="0.345413" stroke-miterlimit="10"/>
<path d="M156.083 117.867H19.5553V39.0668H156.083V117.867Z" fill="#9AAEF9"/>
<path d="M104.036 125.019V125.065C104.036 126.231 103.092 127.174 101.93 127.174H73.7112C72.5451 127.174 71.6012 126.231 71.6012 125.065L71.6047 125.019M156.083 117.867H19.5553V39.0668H156.083V117.867Z" stroke="black" stroke-width="0.345413" stroke-miterlimit="10"/>
<path d="M219.125 39.3529V24.8899C219.125 21.847 216.644 19.3802 213.583 19.3802H183.572C180.512 19.3802 178.03 21.847 178.03 24.8899V39.3529C178.03 42.396 180.512 44.8627 183.572 44.8627H203.887L211.276 52.209V44.8627H213.583C216.644 44.8627 219.125 42.396 219.125 39.3529Z" fill="#9AAEF9"/>
<path d="M219.125 39.3529V24.8899C219.125 21.847 216.644 19.3802 213.583 19.3802H183.572C180.512 19.3802 178.03 21.847 178.03 24.8899V39.3529C178.03 42.396 180.512 44.8627 183.572 44.8627H203.887L211.276 52.209V44.8627H213.583C216.644 44.8627 219.125 42.396 219.125 39.3529Z" stroke="#9AAEF9" stroke-width="0.345413" stroke-miterlimit="10"/>
<path d="M206.2 31.812C206.2 36.1613 202.684 39.6869 198.347 39.6869C194.011 39.6869 190.494 36.1613 190.494 31.812C190.494 27.4629 194.011 23.9371 198.347 23.9371C202.684 23.9371 206.2 27.4629 206.2 31.812Z" stroke="white" stroke-width="0.345413" stroke-miterlimit="10"/>
<path d="M206.197 31.9091C206.198 31.8455 206.2 31.7819 206.2 31.7182C206.2 27.4209 202.729 23.9371 198.446 23.9371V31.9091H206.197Z" fill="white"/>
<path d="M206.197 31.9091C206.198 31.8455 206.2 31.7819 206.2 31.7182C206.2 27.4209 202.729 23.9371 198.446 23.9371V31.9091H206.197Z" stroke="white" stroke-width="0.345413" stroke-miterlimit="10"/>
<path d="M90.1332 96.5564C88.8559 96.5564 87.8202 97.5912 87.8202 98.8686C87.8202 100.146 88.8559 101.182 90.1332 101.182C91.4106 101.182 92.4463 100.146 92.4463 98.8686C92.4463 97.5912 91.4106 96.5564 90.1332 96.5564Z" fill="#C2CEFB"/>
<path d="M112.925 105.034C111.648 105.034 110.613 106.069 110.613 107.347C110.613 108.624 111.648 109.66 112.925 109.66C114.204 109.66 115.239 108.624 115.239 107.347C115.239 106.069 114.204 105.034 112.925 105.034Z" fill="#C2CEFB"/>
<path d="M114.503 63.9143C113.225 63.9143 112.189 62.8786 112.189 61.6014C112.189 60.3241 113.225 59.2883 114.503 59.2883C115.78 59.2883 116.816 60.3241 116.816 61.6014C116.816 62.8786 115.78 63.9143 114.503 63.9143Z" fill="#C2CEFB"/>
<path d="M154.205 87.9445H117.232L106.308 98.8686H90.1332M155.886 97.5792H122.694L112.925 107.346M155.886 69.5588H130.172L123.114 61.6014H114.502M155.782 78.5929H101.897" stroke="#C2CEFB" stroke-width="1.1564" stroke-miterlimit="10"/>
<path d="M101.897 76.2799C100.62 76.2799 99.585 77.3156 99.585 78.593C99.585 79.8701 100.62 80.9052 101.897 80.9052C103.175 80.9052 104.21 79.8701 104.21 78.593C104.21 77.3156 103.175 76.2799 101.897 76.2799Z" fill="#C2CEFB"/>
<path d="M201.078 93.031C202.135 92.1898 203.675 92.3644 204.516 93.421L207.561 97.2428L203.732 100.289L200.687 96.4674C199.846 95.4107 200.021 93.8723 201.078 93.031Z" fill="white"/>
<path d="M201.078 93.031C202.135 92.1898 203.675 92.3644 204.516 93.421L207.561 97.2428L203.732 100.289L200.687 96.4674C199.846 95.4107 200.021 93.8723 201.078 93.031Z" stroke="black" stroke-width="0.345413" stroke-miterlimit="10"/>
<path d="M229.16 100.252C224.483 100.252 220.692 96.4647 220.692 91.7925V78.6638C220.692 73.9916 224.483 70.2042 229.16 70.2042C233.838 70.2042 237.629 73.9916 237.629 78.6638V91.7925C237.629 96.4647 233.838 100.252 229.16 100.252Z" fill="black"/>
<path d="M229.16 100.252C224.483 100.252 220.692 96.4647 220.692 91.7925V78.6638C220.692 73.9916 224.483 70.2042 229.16 70.2042C233.838 70.2042 237.629 73.9916 237.629 78.6638V91.7925C237.629 96.4647 233.838 100.252 229.16 100.252Z" stroke="white" stroke-width="0.345413"/>
<path d="M207.217 96.7562L214.226 103.689C215.053 104.508 216.426 104.354 217.053 103.372L220.236 98.376L220.238 98.3803C222.182 94.6319 226.108 93.0501 231.769 93.0501C239.982 93.0501 244.544 96.3756 244.7 104.822L249.745 169.118H215.765L218.145 118.886C216.29 119.677 214.053 119.962 211.492 119.055C203.667 116.283 198.109 103.487 198.109 103.487L207.217 96.7562Z" fill="black"/>
<path d="M207.217 96.7562L214.226 103.689C215.053 104.508 216.426 104.354 217.053 103.372L220.236 98.376L220.238 98.3803C222.182 94.6319 226.108 93.0501 231.769 93.0501C239.982 93.0501 244.544 96.3756 244.7 104.822L249.745 169.118H215.765L218.145 118.886C216.29 119.677 214.053 119.962 211.492 119.055C203.667 116.283 198.109 103.487 198.109 103.487L207.217 96.7562Z" stroke="white" stroke-width="0.345413"/>
<path d="M233.407 94.8523V81.3387C233.407 79.7762 232.143 78.5084 230.58 78.5042L223.45 78.4852H222.799C222.761 78.7401 222.737 78.9989 222.737 79.2641V83.5383C222.737 86.3009 224.825 88.5739 227.509 88.8695V95.3211C227.509 97.6893 229.645 99.5583 232.096 99.106C233.35 98.8744 234.327 98.0223 234.83 96.923C233.987 96.6242 233.407 95.7835 233.407 94.8523Z" fill="white"/>
<path d="M233.386 81.3412V94.8702C233.386 95.9689 234.196 96.9499 235.299 97.0542C236.564 97.1739 237.629 96.1905 237.629 94.9605V79.1796" fill="black"/>
<path d="M233.386 81.3412V94.8702C233.386 95.9689 234.196 96.9499 235.299 97.0542C236.564 97.1739 237.629 96.1905 237.629 94.9605V79.1796" stroke="white" stroke-width="0.345413"/>
<path d="M231.612 82.8367C231.612 81.8459 232.415 81.0425 233.407 81.0425C234.398 81.0425 235.201 81.8459 235.201 82.8367C235.201 83.8277 234.398 84.631 233.407 84.631C232.415 84.631 231.612 83.8277 231.612 82.8367Z" fill="white"/>
<path d="M207.732 109.005L210.545 119.722H242.133L239.32 109.005H207.732Z" fill="white"/>
<path d="M151.349 122.594V193.694H275.509V122.594H151.349Z" fill="black"/>
<path d="M148.3 119.934V122.965H278.559V119.934H148.3Z" fill="black"/>
<path d="M148.3 119.934V122.965H278.559V119.934H148.3Z" stroke="white" stroke-width="0.345413" stroke-miterlimit="10"/>
<path d="M143.604 147.344H143.672C145.002 147.389 146.116 146.348 146.159 145.021L146.228 141.011L141.406 141.041L141.345 144.861C141.3 146.187 142.275 147.299 143.604 147.344Z" fill="white"/>
<path d="M143.604 147.344H143.672C145.002 147.389 146.116 146.348 146.159 145.021L146.228 141.011L141.406 141.041L141.345 144.861C141.3 146.187 142.275 147.299 143.604 147.344Z" stroke="black" stroke-width="0.345413" stroke-miterlimit="10"/>
<path d="M133.538 150.351H151.896H153.088L154.224 176.565L152.457 177.475H131.8L133.538 150.351Z" fill="white"/>
<path d="M133.538 150.351H151.896H153.088L154.224 176.565L152.457 177.475H131.8L133.538 150.351Z" stroke="black" stroke-width="0.345413" stroke-miterlimit="10"/>
<path d="M151.777 150.367L152.443 177.459" stroke="#9AAEF9" stroke-width="0.345413" stroke-miterlimit="10"/>
<path d="M151.761 150.367L152.459 177.459" stroke="black" stroke-width="0.345413"/>
<path d="M146.082 151.939C146.108 149.564 146.031 145.939 142.853 145.78C139.682 145.621 139.596 149.213 139.623 151.614" stroke="#9AAEF9" stroke-width="0.345413" stroke-miterlimit="10"/>
<path d="M140.829 110.238V141.263H148.841V110.238H140.829Z" fill="white"/>
<path d="M140.829 110.238V141.263H148.841V110.238H140.829Z" stroke="black" stroke-width="0.345413" stroke-miterlimit="10"/>
<path d="M164.961 86.931L163.861 81.3839C163.238 78.2389 160.298 75.9583 157.088 76.3711C153.571 76.8234 151.222 80.1077 151.896 83.499L152.827 88.2023C152.829 88.2056 152.829 88.2087 152.829 88.212C152.967 88.8961 153.031 89.5924 152.925 90.282L151.801 97.6749H159.321V93.0374C159.533 93.0187 159.747 92.9899 159.961 92.9484C163.367 92.9484 165.616 90.2406 164.961 86.931Z" fill="white"/>
<path d="M164.961 86.931L163.861 81.3839C163.238 78.2389 160.298 75.9583 157.088 76.3711C153.571 76.8234 151.222 80.1077 151.896 83.499L152.827 88.2023C152.829 88.2056 152.829 88.2087 152.829 88.212C152.967 88.8961 153.031 89.5924 152.925 90.282L151.801 97.6749H159.321V93.0374C159.533 93.0187 159.747 92.9899 159.961 92.9484C163.367 92.9484 165.616 90.2406 164.961 86.931Z" stroke="black" stroke-width="0.345413" stroke-miterlimit="10"/>
<path d="M153.298 74.1977L154.045 74.0522C154.687 73.9269 155.283 73.5659 155.604 72.9972C155.929 72.4215 156.493 71.986 157.195 71.8487C158.005 71.6905 158.796 71.967 159.333 72.5131C159.36 71.0068 160.84 69.7365 162.663 70.3717C163.41 70.632 163.93 71.3185 164.004 72.1034V72.1074L164.847 76.3827C165.051 77.4186 164.374 78.4231 163.334 78.6264L161.119 79.0595C159.359 79.4039 158.21 81.1054 158.556 82.8601L158.944 84.7518C159.421 87.0826 158.027 89.4798 155.701 90.0131C153.297 90.5642 150.931 89.0214 150.459 86.6284L149.207 80.265C148.654 77.4634 150.487 74.7469 153.298 74.1977Z" fill="black"/>
<path d="M153.298 74.1977L154.045 74.0522C154.687 73.9269 155.283 73.5659 155.604 72.9972C155.929 72.4215 156.493 71.986 157.195 71.8487C158.005 71.6905 158.796 71.967 159.333 72.5131C159.36 71.0068 160.84 69.7365 162.663 70.3717C163.41 70.632 163.93 71.3185 164.004 72.1034V72.1074L164.847 76.3827C165.051 77.4186 164.374 78.4231 163.334 78.6264L161.119 79.0595C159.359 79.4039 158.21 81.1054 158.556 82.8601L158.944 84.7518C159.421 87.0826 158.027 89.4798 155.701 90.0131C153.297 90.5642 150.931 89.0214 150.459 86.6284L149.207 80.265C148.654 77.4634 150.487 74.7469 153.298 74.1977Z" stroke="white" stroke-width="0.345413" stroke-miterlimit="10"/>
<path d="M151.129 184.585H147.3V187.806H151.129V184.585Z" fill="white"/>
<path d="M151.129 184.585H147.3V187.806H151.129V184.585Z" stroke="black" stroke-width="0.345413" stroke-miterlimit="10"/>
<path d="M163.759 184.585H158.949V188.82L163.759 187.761V184.585Z" fill="white"/>
<path d="M163.759 184.585H158.949V188.82L163.759 187.761V184.585Z" stroke="black" stroke-width="0.345413" stroke-miterlimit="10"/>
<path d="M163.588 187.466L158.953 188.493L158.497 193.305H170.792V191.35L163.588 187.466Z" fill="black"/>
<path d="M163.588 187.466L158.953 188.493L158.497 193.305H170.792V191.35L163.588 187.466Z" stroke="white" stroke-width="0.345413" stroke-miterlimit="10"/>
<path d="M147.39 187.473H151.081L152.658 190.837V193.305H145.059V190.837L147.39 187.473Z" fill="black"/>
<path d="M147.39 187.473H151.081L152.658 190.837V193.305H145.059V190.837L147.39 187.473Z" stroke="white" stroke-width="0.345413" stroke-miterlimit="10"/>
<path d="M154.746 138.932L154.744 138.911L166.348 138.932L164.082 184.858H158.685L155.68 149.812L151.509 184.858H146.097L144.841 138.932H154.746Z" fill="black"/>
<path d="M154.746 138.932L154.744 138.911L166.348 138.932L164.082 184.858H158.685L155.68 149.812L151.509 184.858H146.097L144.841 138.932H154.746Z" stroke="white" stroke-width="0.345413" stroke-miterlimit="10"/>
<path d="M183.123 101.51C181.816 101.268 180.558 102.118 180.313 103.407L179.429 108.071L184.161 108.944L185.045 104.281C185.291 102.992 184.429 101.751 183.123 101.51Z" fill="white"/>
<path d="M183.123 101.51C181.816 101.268 180.558 102.118 180.313 103.407L179.429 108.071L184.161 108.944L185.045 104.281C185.291 102.992 184.429 101.751 183.123 101.51Z" stroke="black" stroke-width="0.345413" stroke-miterlimit="10"/>
<path d="M179.93 107.016L177.154 115.199C176.747 116.401 175.018 116.318 174.728 115.081C174.728 115.081 170.509 102.502 170.016 101.531L170.009 101.51L170.006 101.513C167.68 96.9489 162.944 95.0224 156.095 95.0224C146.04 95.0224 140.527 99.1599 140.527 109.721C140.527 110.226 140.744 113.127 140.848 113.718L144.064 139.205H167.417L168.056 122.19C169.547 125.124 171.521 127.364 174.082 127.364C181.512 127.364 184.551 107.016 184.551 107.016H179.93Z" fill="white"/>
<path d="M164.687 112.679C164.7 112.739 166.077 118.703 168.431 122.793M179.93 107.016L177.154 115.199C176.747 116.401 175.018 116.318 174.728 115.081C174.728 115.081 170.509 102.502 170.016 101.531L170.009 101.51L170.006 101.513C167.68 96.9489 162.944 95.0224 156.095 95.0224C146.04 95.0224 140.527 99.1599 140.527 109.721C140.527 110.226 140.744 113.127 140.848 113.718L144.064 139.205H167.417L168.056 122.19C169.547 125.124 171.521 127.364 174.082 127.364C181.512 127.364 184.551 107.016 184.551 107.016H179.93Z" stroke="black" stroke-width="0.345413" stroke-miterlimit="10"/>
<path d="M78.7746 136.523C79.7407 135.725 79.8772 134.295 79.0793 133.328L71.1491 123.437L67.6503 126.326L75.5803 136.217C76.3783 137.184 77.8085 137.321 78.7746 136.523Z" fill="white"/>
<path d="M78.7746 136.523C79.7407 135.725 79.8772 134.295 79.0793 133.328L71.1491 123.437L67.6503 126.326L75.5803 136.217C76.3783 137.184 77.8085 137.321 78.7746 136.523Z" stroke="black" stroke-width="0.345413" stroke-miterlimit="10"/>
<path d="M73.3006 123.905L69.7572 126.951L62.5574 119.941L67.576 115.625L73.3006 123.905Z" fill="#9AAEF9"/>
<path d="M73.3006 123.905L69.7572 126.951L62.5574 119.941L67.576 115.625L73.3006 123.905Z" stroke="black" stroke-width="0.345413" stroke-miterlimit="10"/>
<path d="M68.5643 138.41H85.9855H87.1173L88.1955 163.287L86.5185 164.15H66.9144L68.5643 138.41Z" fill="white"/>
<path d="M68.5643 138.41H85.9855H87.1173L88.1955 163.287L86.5185 164.15H66.9144L68.5643 138.41Z" stroke="black" stroke-width="0.345413" stroke-miterlimit="10"/>
<path d="M35.7548 140.673C35.1365 140.811 34.5885 141.229 34.3117 141.851L28.0925 155.826C27.868 156.33 27.8535 156.892 28.0514 157.408C28.2493 157.923 28.636 158.33 29.1405 158.555H29.141C30.1819 159.018 31.4054 158.548 31.8685 157.506L38.0877 143.531C38.3122 143.027 38.3267 142.465 38.1288 141.949C37.9309 141.434 37.5442 141.027 37.0397 140.802C36.6206 140.616 36.1717 140.581 35.7548 140.673Z" stroke="#9AAEF9" stroke-width="0.345413" stroke-miterlimit="10"/>
<path d="M15.1085 189.64L9.4757 187.134C7.07163 186.065 5.98997 183.25 7.05988 180.846L18.2675 155.669C19.3372 153.266 22.1522 152.185 24.5556 153.254L30.1884 155.759C32.5925 156.829 33.6741 159.644 32.6042 162.049L21.3966 187.226C20.3268 189.628 17.5119 190.709 15.1085 189.64Z" fill="white"/>
<path d="M15.1085 189.64L9.4757 187.134C7.07163 186.065 5.98997 183.25 7.05988 180.846L18.2675 155.669C19.3372 153.266 22.1522 152.185 24.5556 153.254L30.1884 155.759C32.5925 156.829 33.6741 159.644 32.6042 162.049L21.3966 187.226C20.3268 189.628 17.5119 190.709 15.1085 189.64Z" stroke="black" stroke-width="0.345413" stroke-miterlimit="10"/>
<path d="M8.8498 190.791C8.49558 190.87 8.11458 190.839 7.75846 190.682C7.32997 190.49 7.00149 190.145 6.83328 189.708C6.66523 189.269 6.67767 188.792 6.86834 188.364C7.26176 187.48 8.30163 187.081 9.18605 187.475C9.61453 187.665 9.94302 188.01 10.1112 188.449C10.2795 188.886 10.2668 189.362 10.0763 189.791C9.84112 190.319 9.37533 190.675 8.8498 190.791Z" fill="black"/>
<path d="M8.8498 190.791C8.49558 190.87 8.11458 190.839 7.75846 190.682C7.32997 190.49 7.00149 190.145 6.83328 189.708C6.66523 189.269 6.67767 188.792 6.86834 188.364C7.26176 187.48 8.30163 187.081 9.18605 187.475C9.61453 187.665 9.94302 188.01 10.1112 188.449C10.2795 188.886 10.2668 189.362 10.0763 189.791C9.84112 190.319 9.37533 190.675 8.8498 190.791Z" stroke="white" stroke-width="0.345413" stroke-miterlimit="10"/>
<path d="M14.5638 193.333C14.2097 193.412 13.8285 193.381 13.4724 193.224C13.0439 193.032 12.7155 192.687 12.5474 192.248C12.3792 191.811 12.3916 191.334 12.5823 190.906C12.9759 190.022 14.0154 189.623 14.9 190.015C15.3285 190.207 15.657 190.552 15.8252 190.989C15.9934 191.428 15.981 191.904 15.7903 192.333C15.5553 192.861 15.0895 193.217 14.5638 193.333Z" fill="black"/>
<path d="M14.5638 193.333C14.2097 193.412 13.8285 193.381 13.4724 193.224C13.0439 193.032 12.7155 192.687 12.5474 192.248C12.3792 191.811 12.3916 191.334 12.5823 190.906C12.9759 190.022 14.0154 189.623 14.9 190.015C15.3285 190.207 15.657 190.552 15.8252 190.989C15.9934 191.428 15.981 191.904 15.7903 192.333C15.5553 192.861 15.0895 193.217 14.5638 193.333Z" stroke="white" stroke-width="0.345413" stroke-miterlimit="10"/>
<path d="M77.6367 183.207L78.7515 188.3L74.8121 189.217L72.5522 183.653L77.6367 183.207Z" fill="white"/>
<path d="M77.6367 183.207L78.7515 188.3L74.8121 189.217L72.5522 183.653L77.6367 183.207Z" stroke="black" stroke-width="0.345413" stroke-miterlimit="10"/>
<path d="M78.7493 188.065L74.818 188.981L74.8496 193.303L87.9509 193.208L87.9418 191.965L78.7493 188.065Z" fill="black"/>
<path d="M78.7493 188.065L74.818 188.981L74.8496 193.303L87.9509 193.208L87.9418 191.965L78.7493 188.065Z" stroke="white" stroke-width="0.345413" stroke-miterlimit="10"/>
<path d="M47.4421 183.158L46.8005 184.772L42.1721 184.226L42.6115 182.019L47.4421 183.158Z" fill="white"/>
<path d="M47.4421 183.158L46.8005 184.772L42.1721 184.226L42.6115 182.019L47.4421 183.158Z" stroke="black" stroke-width="0.345413" stroke-miterlimit="10"/>
<path d="M36.1725 144.985C37.3518 145.408 38.651 144.797 39.0745 143.617L46.5109 123.276L42.2399 121.744L34.8036 142.086C34.3802 143.263 34.9931 144.562 36.1725 144.985Z" fill="white"/>
<path d="M36.1725 144.985C37.3518 145.408 38.651 144.797 39.0745 143.617L46.5109 123.276L42.2399 121.744L34.8036 142.086C34.3802 143.263 34.9931 144.562 36.1725 144.985Z" stroke="black" stroke-width="0.345413" stroke-miterlimit="10"/>
<path d="M56.6937 100.685L58.2987 88.8713V86.0822C58.2987 83.2754 60.5746 81 63.3823 81C66.1898 81 68.4657 83.2754 68.4657 86.0822V90.1301C68.4657 92.7466 66.4874 94.8992 63.945 95.1794H63.9448V101.29C63.9448 103.532 61.9208 105.303 59.5993 104.874C57.6756 104.519 56.4305 102.623 56.6937 100.685Z" fill="white"/>
<path d="M56.6937 100.685L58.2987 88.8713V86.0822C58.2987 83.2754 60.5746 81 63.3823 81C66.1898 81 68.4657 83.2754 68.4657 86.0822V90.1301C68.4657 92.7466 66.4874 94.8992 63.945 95.1794H63.9448V101.29C63.9448 103.532 61.9208 105.303 59.5993 104.874C57.6756 104.519 56.4305 102.623 56.6937 100.685Z" stroke="black" stroke-width="0.345413" stroke-miterlimit="10"/>
<path d="M82.252 182.796L69.9795 138.359L50.4312 140.624L39.578 182.019L52.2217 183.71L60.915 184.034L68.4599 185.438L82.252 182.796Z" fill="black"/>
<path d="M82.252 182.796L69.9795 138.359L50.4312 140.624L39.578 182.019L52.2217 183.71L60.915 184.034L68.4599 185.438L82.252 182.796Z" stroke="white" stroke-width="0.345413" stroke-miterlimit="10"/>
<path d="M71.4341 138.103C71.4341 138.103 67.7722 110.97 66.4843 104.582C66.1071 102.712 64.5655 101.303 62.6691 101.092L56.7625 100.376C55.1525 100.182 53.6557 101.003 52.9101 102.334L41.0818 121.544L46.7156 125.012L50.7392 118.478L47.9869 142.23L71.4341 138.103Z" fill="#9AAEF9"/>
<path d="M71.4341 138.103C71.4341 138.103 67.7722 110.97 66.4843 104.582C66.1071 102.712 64.5655 101.303 62.669 101.092L56.7625 100.376C55.1525 100.182 53.6557 101.003 52.9101 102.334L41.0818 121.544L46.7156 125.012L50.7392 118.478L47.9869 142.231L71.4341 138.103Z" stroke="black" stroke-width="0.345413" stroke-miterlimit="10"/>
<path d="M80.4588 139.916C80.484 137.668 80.4103 134.234 77.405 134.084C74.4061 133.934 74.325 137.336 74.3505 139.611" stroke="#9AAEF9" stroke-width="0.345413" stroke-miterlimit="10"/>
<path d="M60.0949 89.1144C60.0949 88.244 59.389 87.5383 58.5184 87.5383C57.648 87.5383 56.9421 88.244 56.9421 89.1144C56.9421 89.9852 57.648 90.6909 58.5184 90.6909C59.389 90.6909 60.0949 89.9852 60.0949 89.1144Z" fill="white"/>
<path d="M60.0949 89.1144C60.0949 88.244 59.389 87.5383 58.5184 87.5383C57.648 87.5383 56.9421 88.244 56.9421 89.1144C56.9421 89.9852 57.648 90.6909 58.5184 90.6909C59.389 90.6909 60.0949 89.9852 60.0949 89.1144Z" stroke="white" stroke-width="0.345413" stroke-miterlimit="10"/>
<path d="M57.4029 97.6213C55.3383 97.6213 53.4028 96.7064 52.0927 95.111C50.7827 93.5159 50.2616 91.4398 50.6633 89.4149L51.7586 83.8906C52.1382 79.2712 56.044 75.6641 60.6865 75.6641C65.6306 75.6641 69.6531 79.686 69.6534 84.6301V84.7381L59.6187 84.7291C59.5865 85.2823 59.4636 88.0376 59.994 90.8134C60.585 93.9063 62.0644 97.4275 62.079 97.4625L62.1423 97.6119L57.4029 97.6213Z" fill="black"/>
<path d="M57.4029 97.6213C55.3383 97.6213 53.4028 96.7064 52.0927 95.111C50.7827 93.5159 50.2616 91.4398 50.6633 89.4149L51.7586 83.8906C52.1382 79.2712 56.044 75.6641 60.6865 75.6641C65.6306 75.6641 69.6531 79.686 69.6534 84.6301V84.7381L59.6187 84.7291C59.5865 85.2823 59.4636 88.0376 59.994 90.8134C60.585 93.9063 62.0644 97.4275 62.079 97.4625L62.1423 97.6119L57.4029 97.6213Z" stroke="white" stroke-width="0.345413" stroke-miterlimit="10"/>
<path d="M46.7848 184.561L42.2393 184.041L40.6254 188.671L53.2212 193.06L53.6854 191.728L46.7848 184.561Z" fill="black"/>
<path d="M46.7848 184.561L42.2393 184.041L40.6254 188.671L53.2212 193.06L53.6854 191.728L46.7848 184.561Z" stroke="white" stroke-width="0.345413" stroke-miterlimit="10"/>
<path d="M235.376 54.8078V41.3795C235.376 38.5544 237.667 36.2642 240.491 36.2642H268.2C271.026 36.2642 273.316 38.5544 273.316 41.3795V54.8078C273.316 57.6331 271.026 59.9234 268.2 59.9234H249.444L242.624 66.7441V59.9234H240.491C237.667 59.9234 235.376 57.6331 235.376 54.8078Z" fill="white"/>
<path d="M263.874 43.7031H244.836M263.874 47.88H244.836M263.874 52.0571H244.836M235.376 54.8078V41.3795C235.376 38.5544 237.667 36.2642 240.491 36.2642H268.2C271.026 36.2642 273.316 38.5544 273.316 41.3795V54.8078C273.316 57.6331 271.026 59.9234 268.2 59.9234H249.444L242.624 66.7441V59.9234H240.491C237.667 59.9234 235.376 57.6331 235.376 54.8078Z" stroke="#9AAEF9" stroke-width="0.518119"/>
<path d="M130.413 34.6088C130.413 23.5076 121.415 14.5087 110.316 14.5087C109.5 14.5087 108.696 14.5631 107.905 14.6578C103.296 6.50607 94.5554 1 84.5241 1C71.2445 1 60.2238 10.6448 58.0646 23.3114C57.8807 23.305 57.6971 23.2974 57.5116 23.2974C48.839 23.2974 41.8085 30.3292 41.8085 39.0032C41.8085 47.6774 48.839 54.7091 57.5116 54.7091H110.316C121.415 54.7091 130.413 45.7097 130.413 34.6088Z" fill="white"/>
<path d="M130.413 34.6088C130.413 23.5076 121.415 14.5087 110.316 14.5087C109.5 14.5087 108.696 14.5631 107.905 14.6578C103.296 6.50607 94.5554 1 84.5241 1C71.2445 1 60.2238 10.6448 58.0646 23.3114C57.8807 23.305 57.6971 23.2974 57.5116 23.2974C48.839 23.2974 41.8085 30.3292 41.8085 39.0032C41.8085 47.6774 48.839 54.7091 57.5116 54.7091H110.316C121.415 54.7091 130.413 45.7097 130.413 34.6088Z" stroke="#9AAEF9" stroke-width="0.518119"/>
<path d="M75.9295 34.7683V57.8918H96.2914V34.7683H105.38L86.1104 16.2845L66.8412 34.7683H75.9295Z" fill="#9AAEF9"/>
</svg>
