<svg width="98" height="36" viewBox="0 0 98 36" fill="none" xmlns="http://www.w3.org/2000/svg">
<g id="Group">
<path id="path4191" fill-rule="evenodd" clip-rule="evenodd" d="M50.474 13.061C48.5952 13.0486 47.0742 13.5339 45.8473 14.4796C44.6075 15.4258 43.9942 16.5757 43.9942 18.007C43.9942 19.1828 44.6075 20.2567 45.6043 21.1002C46.8059 22.1226 48.4672 22.5826 50.512 22.5826C51.3682 22.5826 52.2506 22.4419 52.9151 22.2631C53.8992 22.0076 55.2027 21.4195 55.5986 20.5505L55.5733 19.2599C55.5478 18.3652 55.6118 18.3267 56.532 18.3141V18.007H53.0684V18.3141C53.4264 18.3141 53.669 18.3013 53.8862 18.4418C54.0909 18.5952 54.0395 19.2852 54.0395 19.5538L54.0271 20.3333C53.733 20.8957 53.0553 21.2023 52.57 21.3941C52.1227 21.5731 51.3043 21.7647 50.5379 21.7774C49.2596 21.7902 48.2627 21.4323 47.432 20.9084C46.5885 20.3586 45.7705 19.2216 45.7705 17.8028C45.7705 16.4353 46.6398 15.3103 47.6623 14.6073C48.3269 14.1474 49.4513 13.7511 50.5632 13.7641C51.522 13.7771 52.4168 14.0067 53.0684 14.3777C53.8099 14.7866 54.6023 15.6175 54.8959 16.2307L55.1897 16.1157L54.717 14.1091C54.1293 13.7511 53.4004 13.4954 52.7104 13.3296C51.9565 13.1503 51.1896 13.074 50.474 13.061ZM5.54435 13.2731C4.23768 13.2778 2.93608 13.297 0.578107 13.2873L0.56543 13.5814C0.884903 13.5814 1.00012 13.5685 1.19172 13.7218C1.37073 13.8756 1.39618 14.0412 1.39618 14.604V20.6234C1.39618 21.1347 1.43451 21.6587 1.31942 21.7992C1.15339 21.991 1.03825 22.0294 0.629271 22.0166V22.3232H5.48608C6.81531 22.3232 9.00073 22.285 9.89522 21.5821C10.2404 21.3905 10.8664 20.8026 10.8537 19.8056C10.8537 18.5915 10.3299 18.2206 9.85697 17.9523C9.43516 17.7224 8.7706 17.5435 7.991 17.4157C8.61716 17.1985 8.75771 17.1343 9.1539 16.8277C9.56288 16.5336 9.83163 15.9459 9.83163 15.358C9.83163 13.8241 8.16985 13.3388 6.89195 13.2749C6.41585 13.2716 5.9799 13.2715 5.54435 13.2731ZM97.7495 13.2873L94.5798 13.2999V13.5685C95.1035 13.594 95.2575 13.607 95.3594 13.9774C95.4103 14.1182 95.3979 14.4373 95.3979 14.8847V20.7255C95.3979 21.7862 95.4877 22.0293 94.6439 22.0293V22.3232H97.7749L97.7624 22.0293C96.9061 22.0293 96.9441 21.6968 96.9441 20.7255V14.8847C96.9441 13.8367 96.9187 13.5685 97.7495 13.5685V13.2873ZM14.7774 13.3002V13.6324C15.0842 13.6324 15.2122 13.6453 15.391 13.7476C15.5956 13.8754 15.8512 14.4631 16.1579 15.0638L19.9922 22.3232H21.283C22.0754 20.7512 23.3533 18.1952 24.3374 16.2652C25.002 14.9874 25.4879 13.965 25.6795 13.7223C25.7946 13.5815 26.1141 13.6324 26.3184 13.6324V13.3002L23.6346 13.3129V13.6324C23.6602 13.6324 24.4142 13.5304 24.3374 14.0157C24.2735 14.3991 21.283 19.9973 20.9123 20.892L17.9342 15.2814C17.717 14.872 17.5381 14.5654 17.4487 14.3227C17.2058 13.7475 17.5767 13.6324 18.0879 13.6324V13.3002H14.7774ZM82.9944 13.3088C82.8034 13.3073 82.6002 13.308 82.3843 13.3091C82.0965 13.3105 81.7861 13.3129 81.4537 13.3129H77.3646V13.5941C77.9268 13.5941 78.1571 13.7604 78.1571 14.4119V21.5307C78.1571 22.0162 77.799 22.0033 77.3646 21.9905V22.3232H80.5596V21.9905C80.0354 21.9905 79.7287 21.9399 79.7157 21.3136V18.6551C80.0607 18.6805 80.3677 18.6551 80.9045 18.6551C81.0962 18.6551 82.1183 18.6679 82.4254 18.6551C83.5882 18.6551 84.125 20.0354 84.7516 21.0068C85.2754 21.8247 85.0453 22.3232 88.3941 22.3232C88.3941 22.2465 88.3688 22.0801 88.3688 22.0035C86.9373 22.0162 86.6685 21.1598 86.0549 20.0607C85.4802 19.064 85.3263 18.4122 83.8439 18.246C86.0932 17.8244 86.6814 16.802 86.6814 15.6387C86.6685 14.4634 85.7998 13.7343 84.3807 13.4147C84.0285 13.3358 83.5673 13.3133 82.9944 13.3088ZM31.5456 13.3126V13.5938C31.993 13.5938 32.1208 13.6322 32.2487 13.8115C32.3764 13.9772 32.3764 14.2584 32.3764 14.7572V21.3262C32.3764 21.9143 32.1464 22.0163 31.5968 22.029V22.3232H39.6358L40.5686 20.4572L40.275 20.3419C39.9681 20.8404 39.2652 21.3262 38.1531 21.3262H33.9229V14.3608C33.9229 13.9388 33.9996 13.8115 34.1017 13.7091C34.2552 13.5813 34.3318 13.6068 34.728 13.5938V13.3126H31.5456ZM65.6061 13.3129L61.8869 20.3934C61.5549 21.0325 61.4271 21.2497 61.2738 21.5436C61.0945 21.8503 60.9921 22.055 60.3784 22.0678V22.3232H63.1521L63.1651 22.0296C62.6663 22.0423 62.4497 22.0037 62.4367 21.5563C62.4367 21.4156 62.5644 21.1861 62.7561 20.8411L63.2799 19.9206H68.6477L69.2871 21.0068C69.709 21.7098 69.5934 21.9656 68.8395 22.004V22.3232H72.1625V21.9781C71.3701 21.9781 71.4084 21.7613 70.7054 20.4704L66.7822 13.3129H65.6061ZM81.3884 13.963C82.3708 13.9571 83.3664 14.0063 83.9974 14.3096C84.5341 14.5652 84.9815 14.8592 84.9815 15.7539C84.9815 17.0192 84.2018 17.3516 83.6136 17.5687C82.5786 17.837 80.8786 17.7475 79.7157 17.7603V13.9898C80.2142 13.9898 80.7989 13.9665 81.3884 13.963ZM5.66167 14.037C6.44472 14.0359 7.21146 14.067 7.63327 14.3352C8.18269 14.6932 8.31048 14.9489 8.31048 15.4856C8.31048 15.8177 8.04231 16.3934 7.76121 16.6105C7.09649 17.1474 5.90789 17.1727 5.02598 17.1727H2.91707V14.0413H4.88513C5.13758 14.0413 5.40065 14.0373 5.66167 14.037ZM65.9127 14.6678L68.1751 18.9108H63.7658L65.9127 14.6678ZM5.59326 17.9743C6.89256 17.9708 7.81502 18.0209 8.46376 18.5018C8.80882 18.7574 9.14123 19.2047 9.14123 19.7417C9.14123 21.2242 7.28822 21.3265 5.46049 21.3265H2.91707V17.9779C3.60716 17.9779 4.32304 17.9907 5.01333 17.9779C5.21462 17.9763 5.40764 17.9748 5.59326 17.9743Z" fill="#202020"/>
</g>
</svg>
