<svg width="98" height="36" viewBox="0 0 98 36" fill="none" xmlns="http://www.w3.org/2000/svg">
<g id="Group">
<g id="layer1">
<path id="path14148" d="M48.8591 24.0071C20.5868 24.0071 0.517578 25.7398 0.517578 25.7398V26.5075H50.526L51.0524 24.0071C50.4164 23.9851 49.6487 24.0071 48.8591 24.0071ZM52.5658 24.0071L52.1052 26.5075H97.727V25.7398C97.7489 25.7398 78.8861 24.1387 52.5658 24.0071Z" fill="#202020"/>
<path id="path14156" d="M12.8666 9.13623L10.2126 21.6383H19.7537L20.1266 19.2914H13.6124L14.2265 16.4182H20.1266L20.5872 13.9177H14.6871L15.2135 11.5709H21.8155L22.1884 9.13623H12.8666ZM44.7799 12.185C41.0512 12.185 39.5597 14.159 38.9456 17.0323C38.3315 19.9056 39.7571 21.9674 42.7401 21.9674C46.2714 21.9674 47.9603 19.9933 48.5744 17.12C49.1666 14.2248 48.2015 12.185 44.7799 12.185ZM66.0554 12.185C62.3267 12.185 60.9011 14.159 60.2869 17.0323C59.6728 19.9056 61.0326 21.9674 63.9937 21.9674C67.0205 21.9674 68.7094 20.5197 69.521 18.3263H66.7354C66.3625 19.2256 65.7484 19.8398 64.4543 19.8398C62.7873 19.8398 62.6338 18.4141 62.9409 16.9665C63.248 15.5189 63.9937 14.0932 65.6606 14.0932C66.9547 14.0932 67.3057 14.9925 67.2618 16.0672H69.9815C70.157 13.7423 69.0603 12.185 66.0554 12.185ZM56.295 12.3385C55.4615 12.3385 54.1017 12.5359 53.4217 13.2378L53.5753 12.5579H50.8555C50.7678 13.1501 48.048 26.5076 48.048 26.5076H50.702L51.8425 21.0461C52.3689 21.8577 53.8385 22.0331 54.4965 22.0331C57.1724 22.0331 58.4006 19.445 58.8832 17.0981C59.3876 14.6415 58.8832 12.3385 56.295 12.3385ZM76.4519 12.3385C71.6923 12.2069 71.9117 15.2996 71.9117 15.2996H74.4121C74.4121 15.2996 74.3682 14.0932 76.1449 14.0932C76.1449 14.0932 77.746 14.0274 77.5047 15.146C77.5047 15.146 77.4609 16.133 76.3642 16.0453C76.3642 16.0453 71.0782 15.4969 70.6834 19.3792C70.6834 19.3792 70.4641 22.0989 73.5567 22.0989C73.5567 22.0989 75.5965 22.0331 76.5177 21.0461C76.5177 21.0461 76.7809 21.6602 77.6583 21.6602H79.1717L79.6323 19.8398L79.413 19.6862C79.413 19.6862 79.2375 19.7082 79.3472 19.2257L80.3342 14.4441C80.729 12.3605 76.4519 12.3385 76.4519 12.3385ZM23.0876 12.5579L21.7936 18.458C21.7278 18.7651 21.6181 19.3353 21.6401 19.9056C21.6839 21.2216 23.307 21.8796 24.2063 21.8796C25.4784 21.8796 26.2899 21.5725 26.926 21.0461V21.6602H29.6458C29.7116 21.1119 29.7774 20.6075 29.8651 20.0591L31.4663 12.5579H28.7465L27.606 17.778C27.277 19.116 26.3119 19.3792 25.6319 19.3792C24.4695 19.3792 24.3817 18.8747 24.5791 18.0193L25.7855 12.5579H23.0876ZM33.3306 12.5579C33.221 13.2378 31.5101 21.6602 31.5101 21.6602H34.3834L35.3705 16.9665C35.5021 16.3743 35.4582 15.7601 35.831 15.2337C36.1381 14.817 36.8839 14.6635 37.3445 14.6196H38.6385L39.1649 12.5798C37.9147 12.5798 37.1032 12.5578 36.0504 13.2597V12.5798L33.3306 12.5579ZM82.8127 12.5579C82.703 13.2378 80.9921 21.6602 80.9921 21.6602H83.8655L84.7647 16.9665C84.8963 16.3743 84.9183 15.7601 85.2911 15.2337C85.5982 14.817 86.3439 14.6635 86.8045 14.6196H88.0109L88.625 12.5798C87.3748 12.5798 86.5633 12.5578 85.5105 13.2597V12.5798L82.8127 12.5579ZM44.3851 14.0713C46.0521 14.0713 46.1398 15.5847 45.8327 17.0323C45.5257 18.4799 45.0212 19.8398 43.1788 19.8398C41.5118 19.8398 41.3583 18.4141 41.6654 16.9665C41.9724 15.497 42.7182 14.0713 44.3851 14.0713ZM55.0667 14.4441C56.317 14.4441 56.646 15.6286 56.3608 17.0104C56.0537 18.4141 55.3299 19.5766 53.9262 19.5766C52.4566 19.5766 52.3031 18.2606 52.5663 17.0104C52.8515 15.7602 53.5972 14.4441 55.0667 14.4441ZM76.8248 17.6245C76.8248 17.6245 76.43 20.1249 74.3902 20.1249C74.3902 20.1249 73.2497 20.1907 73.2497 19.2914C73.2497 19.2914 73.2715 18.129 74.9166 17.9316C74.9385 17.9316 76.2107 17.8438 76.8248 17.6245Z" fill="#202020"/>
</g>
</g>
</svg>
