<svg width="98" height="36" viewBox="0 0 98 36" fill="none" xmlns="http://www.w3.org/2000/svg">
<g id="Group">
<path id="Vector" fill-rule="evenodd" clip-rule="evenodd" d="M88.0246 24.2427H85.7783V8.04123H80.3486V6.24462H93.4521V8.04123H88.0246V24.2427ZM69.2234 21.74C74.5771 23.2542 79.6005 25.4571 84.6718 28.358V28.8476C76.7742 25.3702 67.8932 22.7936 57.4567 21.9247L60.6343 29.7405H58.1743L55.0373 21.756C53.2849 21.6575 51.4875 21.6024 49.6453 21.6024C48.3382 21.6024 47.0543 21.63 45.7921 21.6807L42.6254 29.7405H40.164L43.3864 21.811C32.3156 22.5467 22.8879 25.2029 14.6072 28.8454V28.353C20.1332 25.229 25.5998 22.8972 31.4995 21.3736V16.5761L24.8547 6.24462H27.3233L32.5973 14.8287L37.872 6.24462H40.3378L33.6944 16.5761L33.6929 20.8479C37.0689 20.1049 40.5999 19.6146 44.3742 19.3822L49.8509 5.90283H50.948L56.469 19.4894C60.173 19.7892 63.6467 20.341 66.9757 21.1491V8.04123H61.5467V6.24462H74.651V8.04123H69.2234C69.2234 8.04123 69.2234 21.74 69.2234 21.74ZM50.4006 9.94868L46.7378 19.2707C47.6908 19.241 48.6547 19.2236 49.6402 19.2236C51.1617 19.2236 52.6426 19.2605 54.0865 19.3337C54.0865 19.3337 50.4006 9.94867 50.4006 9.94868ZM15.986 15.3631H6.29682V24.2427H4.0498V6.24462H6.29682V13.568H15.986V6.24462H18.2323V24.2427L15.986 24.2449C15.986 24.2449 15.986 15.3631 15.986 15.3631Z" fill="#202020"/>
</g>
</svg>
