<svg width="98" height="36" viewBox="0 0 98 36" fill="none" xmlns="http://www.w3.org/2000/svg">
<g id="Group">
<g id="Group_2">
<path id="Fill-1" d="M22.3051 10.2114H19.982V16.9404H11.691V10.2114H9.40796V25.4718H11.691V18.5025H20.0221V25.4718H22.3452V10.2114H22.3051Z" fill="#202020"/>
<path id="Fill-2" d="M0.356201 25.4722H2.63924V10.2119H0.356201V25.4722Z" fill="#202020"/>
<g id="Clip-Path: Clip-Path: Fill-3">
<g id="Clip-Path: Fill-3">
<path id="Fill-3" fill-rule="evenodd" clip-rule="evenodd" d="M38.6872 18.1018V24.0297C38.0463 24.4703 36.9649 24.8307 35.7232 24.8307C32.1585 24.8307 29.7152 21.6665 29.7152 17.7013C29.7152 13.9362 31.8381 10.8521 35.4429 10.8521C37.9262 10.8521 39.328 12.0137 40.3694 13.2954H40.4896V10.6118C39.7686 10.4115 37.6859 9.93091 35.563 9.93091C30.3561 9.93091 27.2319 13.736 27.2319 17.8614C27.2319 22.3875 30.6365 25.7119 35.6431 25.7119C38.1264 25.7119 40.0089 24.7506 41.0503 24.4702V18.1018H38.6872Z" fill="#202020"/>
</g>
</g>
<path id="Fill-6" fill-rule="evenodd" clip-rule="evenodd" d="M42.4916 10.3716C43.0124 10.3716 43.413 10.7722 43.413 11.2931C43.413 11.8139 43.0124 12.2146 42.4916 12.2146C41.9707 12.2146 41.5701 11.8139 41.5701 11.2931C41.5701 10.7722 41.9707 10.3716 42.4916 10.3716ZM42.4916 10.4918C42.0508 10.4918 41.7303 10.8123 41.7303 11.253C41.7303 11.6937 42.0508 12.0143 42.4916 12.0143C42.9323 12.0143 43.2528 11.6937 43.2528 11.253C43.2528 10.8123 42.9323 10.4918 42.4916 10.4918ZM42.171 10.8123H42.4916C42.6919 10.8123 42.8521 10.8925 42.8521 11.0928C42.8521 11.213 42.772 11.2931 42.6518 11.3332L42.8922 11.6937H42.6919L42.4515 11.3332H42.3714V11.6937H42.171V10.8123ZM42.4916 11.213C42.6118 11.213 42.6518 11.1729 42.6518 11.0928C42.6518 11.0127 42.6117 10.9726 42.4916 10.9726H42.3714V11.253H42.4916V11.213Z" fill="#202020"/>
<path id="Fill-8" d="M49.2212 10.2114H49.9822V12.7749H54.348V10.2114H55.109V15.899H54.348V13.3756H49.9822V15.899H49.2212V10.2114Z" fill="#202020"/>
<path id="Fill-10" fill-rule="evenodd" clip-rule="evenodd" d="M56.6313 13.0953V13.0151C56.6313 11.413 58.1133 10.1313 60.3563 10.1313C62.6394 10.1313 64.0813 11.413 64.0813 13.0151V13.0953C64.0813 14.6974 62.5993 15.9791 60.3563 15.9791C58.1133 15.9791 56.6313 14.6974 56.6313 13.0953ZM63.3603 13.0552V13.0151C63.3603 11.7334 62.2789 10.6921 60.3964 10.6921C58.5139 10.6921 57.4324 11.6533 57.4324 13.0151V13.0953C57.4324 14.4571 58.6741 15.4184 60.4364 15.4184C62.2388 15.3783 63.3603 14.4571 63.3603 13.0552Z" fill="#202020"/>
<path id="Fill-12" d="M67.0851 10.7722H64.762V10.2114H70.1692V10.7722H67.8461V15.899H67.0851V10.7722Z" fill="#202020"/>
<path id="Fill-14" d="M71.5713 10.2114H76.3777V10.7722H72.3323V12.6947H75.7368V13.2555H72.3323V15.2982H76.578V15.859H71.6113V10.2114H71.5713Z" fill="#202020"/>
<path id="Fill-16" d="M78.02 10.2114H78.741V15.3383H82.4259V15.899H78.02V10.2114Z" fill="#202020"/>
<path id="Fill-18" fill-rule="evenodd" clip-rule="evenodd" d="M83.3464 14.1767H84.0674C84.1876 14.8976 84.7083 15.4184 86.2303 15.4184C87.4319 15.4184 88.1528 15.0178 88.1528 14.2968C88.1528 13.6159 87.6321 13.4157 86.1101 13.2154C84.548 13.0552 83.6669 12.6547 83.6669 11.6533C83.6669 10.7722 84.5881 10.1313 86.0701 10.1313C87.552 10.1313 88.5133 10.652 88.6335 11.6934H87.9526C87.7924 10.9724 87.1515 10.6921 86.03 10.6921C84.8284 10.6921 84.3077 11.0525 84.3077 11.6533C84.3077 12.174 84.6682 12.4544 86.2703 12.6547C87.9526 12.855 88.8337 13.1754 88.8337 14.2968C88.8337 15.2982 87.8725 15.9791 86.2303 15.9791C84.3077 15.9791 83.4666 15.178 83.3464 14.1767Z" fill="#202020"/>
<path id="Fill-20" fill-rule="evenodd" clip-rule="evenodd" d="M49.2212 19.7441H51.9448C53.2265 19.7441 54.2679 20.2247 54.2679 21.4263V21.4664C54.2679 22.4678 53.4268 22.9484 52.6257 23.0685L54.7085 25.4317H53.8273L51.7846 23.1086H49.9422V25.4317H49.1812V19.7441H49.2212ZM51.9849 22.5879C52.9462 22.5879 53.547 22.1874 53.547 21.4664V21.4263C53.547 20.6253 52.9061 20.3049 51.9849 20.3049H49.9822V22.5479H51.9849V22.5879Z" fill="#202020"/>
<path id="Fill-22" d="M56.3501 19.7441H61.1565V20.3049H57.1111V22.2274H60.5156V22.7882H57.1111V24.8309H61.3568V25.3916H56.3902V19.7441H56.3501Z" fill="#202020"/>
<path id="Fill-24" fill-rule="evenodd" clip-rule="evenodd" d="M62.5991 23.7095H63.3201C63.4402 24.4304 63.9609 24.9511 65.483 24.9511C66.6846 24.9511 67.4055 24.5506 67.4055 23.8296C67.4055 23.1487 66.8848 22.9484 65.3628 22.7481C63.8007 22.5479 62.9195 22.1874 62.9195 21.186C62.9195 20.3049 63.8408 19.6641 65.3227 19.6641C66.8047 19.6641 67.766 20.1848 67.8861 21.2262H67.2052C67.045 20.5052 66.4042 20.2248 65.2827 20.2248C64.0811 20.2248 63.5604 20.5853 63.5604 21.146C63.5604 21.6667 63.9209 21.9471 65.523 22.1474C67.2052 22.3476 68.0864 22.668 68.0864 23.7895C68.0864 24.7909 67.1251 25.4718 65.4829 25.4718C63.5604 25.5118 62.7193 24.7108 62.5991 23.7095Z" fill="#202020"/>
<path id="Fill-26" fill-rule="evenodd" clip-rule="evenodd" d="M69.5283 22.628V22.5479C69.5283 20.9458 71.0103 19.6641 73.2533 19.6641C75.5363 19.6641 76.9782 20.9458 76.9782 22.5479V22.628C76.9782 24.2301 75.4963 25.5118 73.2533 25.5118C71.0103 25.5118 69.5283 24.2301 69.5283 22.628ZM76.2573 22.628V22.5479C76.2573 21.2662 75.1758 20.2649 73.2933 20.2649C71.4108 20.2649 70.3294 21.2261 70.3294 22.5879V22.628C70.3294 23.9898 71.5711 24.9511 73.3334 24.9511C75.0957 24.9511 76.2573 23.9898 76.2573 22.628Z" fill="#202020"/>
<path id="Fill-28" fill-rule="evenodd" clip-rule="evenodd" d="M78.8604 19.7441H81.584C82.8657 19.7441 83.9071 20.2247 83.9071 21.4263V21.4664C83.9071 22.4678 83.066 22.9484 82.2649 23.0685L84.3477 25.4317H83.4665L81.4238 23.1086H79.5813V25.4317H78.8203V19.7441H78.8604ZM81.6241 22.5879C82.5853 22.5879 83.1861 22.1874 83.1861 21.4664V21.4263C83.1861 20.6253 82.5453 20.3049 81.6241 20.3049H79.6214V22.5479H81.6241V22.5879Z" fill="#202020"/>
<path id="Fill-30" d="M87.5926 20.3449H85.2695V19.7842H90.6767V20.3449H88.3536V25.4717H87.6327V20.3449H87.5926Z" fill="#202020"/>
<path id="Fill-32" fill-rule="evenodd" clip-rule="evenodd" d="M91.7183 23.7095H92.4392C92.5594 24.4304 93.0801 24.9511 94.6021 24.9511C95.8037 24.9511 96.5246 24.5506 96.5246 23.8296C96.5246 23.1487 96.044 22.9484 94.4819 22.7481C92.9198 22.5479 92.0387 22.1874 92.0387 21.186C92.0387 20.3049 92.9599 19.6641 94.4419 19.6641C95.9239 19.6641 96.8851 20.1848 97.0053 21.2262H96.3244C96.1641 20.5052 95.5233 20.2248 94.4018 20.2248C93.2002 20.2248 92.6795 20.5853 92.6795 21.146C92.6795 21.6667 93.04 21.9471 94.6421 22.1474C96.3244 22.3476 97.2055 22.668 97.2055 23.7895C97.2055 24.7909 96.2443 25.4718 94.6021 25.4718C92.7196 25.5118 91.8785 24.7108 91.7183 23.7095Z" fill="#202020"/>
<g id="Clip-Path: Clip-Path: Fill-34">
<g id="Clip-Path: Fill-34">
<path id="Fill-34" fill-rule="evenodd" clip-rule="evenodd" d="M95.9232 15.1383C95.5227 15.6189 94.8818 15.9793 94.0808 15.9793C92.9192 15.9793 92.1582 15.4186 92.1582 14.4573C92.1582 13.5361 92.8792 13.0555 93.6001 12.7751C93.2396 12.4547 92.9593 12.0541 92.9593 11.4934C92.9593 10.6122 93.6802 10.1316 94.4813 10.1316C95.3625 10.1316 95.9232 10.6923 95.9232 11.4533C95.9232 12.0141 95.4826 12.5748 94.6015 12.8953L96.0033 14.2971L96.8845 12.9353H97.4853L96.3638 14.6576L97.5654 15.8592H96.7243L95.9232 15.1383ZM95.6028 14.7778L93.9606 13.0955C93.2797 13.3358 92.7991 13.7364 92.7991 14.3772C92.7991 14.978 93.2397 15.3785 94.0808 15.3785C94.7617 15.4186 95.2423 15.1382 95.6028 14.7778ZM95.3224 11.4533C95.3224 11.0128 95.002 10.6923 94.4813 10.6923C93.9606 10.6923 93.5601 10.9727 93.5601 11.5334C93.5601 11.974 93.8405 12.2944 94.241 12.6148C95.002 12.2543 95.3224 11.8939 95.3224 11.4533Z" fill="#202020"/>
</g>
</g>
</g>
</g>
</svg>
