<svg width="98" height="36" viewBox="0 0 98 36" fill="none" xmlns="http://www.w3.org/2000/svg">
<g id="Group">
<g id="Group_2">
<path id="Vector" d="M22.9094 35.6435H74.9153V35.4077H22.9094V35.6435ZM22.9094 29.2166V29.4524H74.9153V29.2166H22.9094Z" fill="#202020"/>
<path id="Vector_2" d="M26.2998 33.8746C26.3293 33.9041 26.3293 33.9925 26.2998 34.022H25.2975C25.268 33.9925 25.2385 33.9041 25.2975 33.8746L25.4154 33.8451C25.5628 33.8156 25.5923 33.7861 25.5923 33.4618V31.5455C25.4743 31.8109 25.4154 31.9287 25.3564 32.1351L24.9731 32.9606C24.8257 33.2849 24.6488 33.8156 24.5604 34.022C24.5309 34.0514 24.4719 34.0514 24.4719 34.022C24.413 33.7566 24.2361 33.3144 24.1477 33.0786L23.7939 32.1941C23.7055 31.9877 23.6465 31.7813 23.558 31.5749C23.558 31.8108 23.5285 32.1646 23.5285 32.3709C23.5285 32.6658 23.4991 33.0785 23.4991 33.4618C23.4991 33.7566 23.4991 33.8451 23.676 33.8746L23.7939 33.904C23.8234 33.9335 23.8234 34.022 23.7939 34.0515C23.4991 34.022 23.2337 34.022 22.9389 34.0515C22.9094 34.022 22.9094 33.9335 22.9389 33.904H22.9979C23.1748 33.8745 23.2337 33.8156 23.2337 33.5208C23.2632 33.226 23.2632 32.9311 23.2927 32.43C23.3222 32.1057 23.3222 31.7224 23.3222 31.4276C23.3222 31.2212 23.2632 31.1033 23.1158 31.0738L22.9684 31.0443C22.9389 31.0148 22.9389 30.9264 22.9979 30.8969H23.7939C23.8234 31.1917 23.9118 31.4275 24.0003 31.6634L24.4425 32.7542C24.472 32.8427 24.5899 33.0786 24.6194 33.167C24.6783 33.0196 24.7373 32.9017 24.8258 32.6953L25.209 31.8109C25.3269 31.516 25.4744 31.2211 25.5333 30.9263H26.2703C26.2998 30.9558 26.3293 31.0443 26.2703 31.0738L26.1524 31.1033C25.9755 31.1328 25.9461 31.2212 25.9461 31.4571C25.9461 32.1352 25.9461 32.8427 25.9755 33.5208C25.9755 33.8451 26.0345 33.8746 26.1524 33.8746C26.1819 33.8451 26.2998 33.8746 26.2998 33.8746ZM27.8624 32.8427C27.7444 32.8427 27.7739 32.8427 27.715 32.9606L27.5381 33.5208C27.4496 33.7861 27.4791 33.8156 27.6265 33.8451L27.7445 33.8746C27.7739 33.9041 27.7739 33.9925 27.7445 34.022H26.9484C26.9189 33.9925 26.9189 33.9335 26.9484 33.8746L27.0664 33.8451C27.1843 33.8156 27.2138 33.7861 27.2727 33.6387C27.3317 33.5207 27.3906 33.3144 27.4791 33.0786L28.0098 31.4276C28.0688 31.2802 28.0982 31.1622 28.0982 31.0738C28.2456 31.0443 28.3636 30.838 28.3636 30.838C28.3931 30.838 28.4225 30.8379 28.4225 30.8674C28.4815 31.0738 28.5405 31.3096 28.5994 31.516L29.1596 33.4618C29.248 33.7861 29.2775 33.8156 29.4839 33.8451H29.5428C29.5723 33.8745 29.5723 33.963 29.5428 33.9924H28.5405C28.511 33.963 28.511 33.8745 28.5405 33.8451H28.6289C28.7763 33.8156 28.7763 33.7861 28.7468 33.6092L28.5699 32.9606C28.5404 32.8427 28.511 32.8427 28.393 32.8427H27.8624ZM28.3341 32.6363C28.4127 32.6363 28.4422 32.597 28.4225 32.5184L28.2456 31.9582C28.1867 31.7224 28.1572 31.6339 28.1277 31.5749C28.0982 31.6044 28.0688 31.7224 28.0098 31.9582L27.8329 32.5184C27.8133 32.6167 27.8329 32.6658 27.8918 32.6658C27.9213 32.6363 28.3341 32.6363 28.3341 32.6363ZM32.6089 33.1964V34.022C32.5794 34.0809 32.5205 34.0809 32.4615 34.0809C32.4025 33.9924 32.2846 33.8156 31.9898 33.4324L31.0464 32.1941C30.7811 31.8403 30.6631 31.6634 30.6042 31.6045V32.8132C30.6042 33.1669 30.6042 33.5797 30.6632 33.7271C30.6926 33.7861 30.7811 33.8156 30.8695 33.8451H30.958C30.9874 33.8745 30.9874 33.963 30.958 33.9924H30.103C30.0735 33.963 30.0735 33.904 30.103 33.8451L30.1914 33.8156C30.2799 33.8156 30.3388 33.7861 30.3683 33.6977C30.4273 33.5503 30.4273 33.1375 30.4273 32.7837V31.6634C30.4273 31.3096 30.4273 31.2212 30.3093 31.1033C30.2799 31.0738 30.1619 31.0148 30.103 31.0148H30.044C30.0145 30.9853 30.0146 30.8969 30.0735 30.8674C30.2209 30.8969 30.4568 30.8674 30.5452 30.8674H30.8105C30.8695 31.0738 31.3117 31.6634 31.4592 31.8403L31.8424 32.3415C32.0193 32.5479 32.3731 33.0491 32.432 33.0786V32.0467C32.432 31.6929 32.432 31.2801 32.3436 31.1327C32.3141 31.0738 32.2552 31.0443 32.1372 31.0148H32.0488C32.0193 30.9853 32.0193 30.8969 32.0488 30.8674H32.9038C32.9332 30.8969 32.9332 30.9558 32.9038 31.0148L32.8153 31.0443C32.7269 31.0443 32.6679 31.0738 32.6384 31.1622C32.5795 31.3096 32.5795 31.7224 32.5795 32.0762C32.6089 32.0762 32.6089 33.1964 32.6089 33.1964ZM34.083 31.6045C34.083 31.1622 34.083 31.1033 33.9061 31.0738H33.8177C33.7882 31.0443 33.7882 30.9558 33.8177 30.9558C34.1125 30.9264 34.4073 30.9263 34.8201 30.9263C35.2033 30.9263 35.4687 30.9559 35.7635 31.0738C36.2352 31.2802 36.589 31.7813 36.589 32.4594C36.589 32.9901 36.3826 33.5207 35.8814 33.8156C35.5866 33.9924 35.2623 34.0515 34.9085 34.0515C34.6727 34.0515 34.4663 34.022 34.3189 34.022H33.8177C33.7882 33.9925 33.7882 33.9335 33.8177 33.8746H33.9061C34.083 33.8451 34.142 33.8451 34.142 33.3439C34.083 33.3144 34.083 31.6045 34.083 31.6045ZM34.5547 33.1375C34.5547 33.5797 34.5842 33.8451 34.997 33.8451C35.7045 33.8451 36.0288 33.2554 36.0288 32.4594C36.0288 31.5455 35.5866 31.0738 34.9085 31.0738C34.7316 31.0738 34.6137 31.1032 34.5842 31.1327C34.5547 31.1622 34.5547 31.2507 34.5547 31.4865V33.1375ZM37.7388 32.8427C37.6798 32.8427 37.6307 32.882 37.5913 32.9606L37.4145 33.5208C37.326 33.7861 37.3555 33.8156 37.5029 33.8451L37.6209 33.8746C37.6503 33.9041 37.6503 33.9925 37.6209 34.022H36.8248C36.7953 33.9925 36.7953 33.9335 36.8248 33.8746L36.9428 33.8451C37.0607 33.8156 37.0902 33.7861 37.1491 33.6387C37.2081 33.5207 37.267 33.3144 37.3555 33.0786L37.8862 31.4276C37.9451 31.2802 37.9746 31.1622 37.9746 31.0738C38.122 31.0443 38.24 30.838 38.24 30.838C38.2694 30.838 38.2989 30.8379 38.2989 30.8674C38.3579 31.0738 38.4169 31.3096 38.4758 31.516L39.036 33.4618C39.1244 33.7861 39.1539 33.8156 39.3603 33.8451H39.4192C39.4487 33.8745 39.4487 33.963 39.4192 33.9924H38.4168C38.3874 33.963 38.3874 33.8745 38.4168 33.8451H38.5053C38.6527 33.8156 38.6527 33.7861 38.5937 33.6092L38.4168 32.9606C38.3874 32.8427 38.3579 32.8427 38.24 32.8427H37.7388ZM38.2105 32.6363C38.2891 32.6363 38.3186 32.597 38.2989 32.5184L38.122 31.9582C38.063 31.7224 38.0336 31.6339 38.0041 31.5749C37.9746 31.6044 37.9451 31.7224 37.8862 31.9582L37.7093 32.5184C37.6896 32.6167 37.7093 32.6658 37.7682 32.6658C37.7977 32.6363 38.2105 32.6363 38.2105 32.6363ZM40.2152 31.6045C40.2152 31.1622 40.2152 31.1033 40.0384 31.0738H39.9499C39.9204 31.0443 39.9204 30.9558 39.9499 30.9558C40.1858 30.9264 40.5395 30.9263 40.8638 30.9263C41.1881 30.9263 41.4535 30.9853 41.6303 31.0738C41.8367 31.1917 41.9841 31.4275 41.9841 31.7518C41.9841 32.1941 41.6893 32.4004 41.5124 32.4889C41.483 32.4889 41.483 32.5479 41.5124 32.5773C41.8367 33.1965 42.0431 33.6092 42.22 33.7861C42.3379 33.9041 42.3969 33.904 42.4263 33.904C42.4558 33.9335 42.4263 34.022 42.4263 34.022H41.7483C41.7483 34.022 41.6303 33.8746 41.3945 33.4324C41.2766 33.226 41.1881 32.9901 41.0702 32.7837C41.0112 32.6363 40.9523 32.6363 40.8343 32.6363C40.7557 32.6363 40.7164 32.6658 40.7164 32.7247V33.3144C40.7164 33.8156 40.7459 33.8156 40.9523 33.8451H41.0407C41.0702 33.8745 41.0702 33.963 41.0407 33.9924C40.6869 33.963 40.3332 33.963 39.9794 33.9924C39.9499 33.963 39.9499 33.904 39.9794 33.8451H40.0678C40.2447 33.8156 40.3037 33.8156 40.3037 33.3144C40.2152 33.3144 40.2152 31.6045 40.2152 31.6045ZM40.6869 32.2825C40.6869 32.3808 40.7459 32.43 40.8638 32.43C41.2471 32.43 41.424 32.1941 41.424 31.7518C41.424 31.3686 41.2176 31.0738 40.8638 31.0738C40.7262 31.0738 40.6575 31.1524 40.6575 31.3096C40.6869 31.3096 40.6869 32.2825 40.6869 32.2825ZM54.1601 31.6045C54.1601 31.1622 54.1601 31.1033 53.9832 31.0738H53.8948C53.8653 31.0443 53.8653 30.9558 53.8948 30.9558C54.1306 30.9264 54.4844 30.9263 54.8087 30.9263C55.133 30.9263 55.3984 30.9853 55.5752 31.0738C55.7816 31.1917 55.929 31.4275 55.929 31.7518C55.929 32.1941 55.6342 32.4004 55.4573 32.4889C55.4278 32.4889 55.4278 32.5479 55.4573 32.5773C55.7816 33.1965 55.988 33.6092 56.1648 33.7861C56.2828 33.9041 56.3418 33.904 56.3712 33.904C56.4007 33.9335 56.3712 34.022 56.3712 34.022H55.6932C55.6932 34.022 55.5752 33.8746 55.3394 33.4324C55.2215 33.226 55.133 32.9901 55.0151 32.7837C54.9561 32.6363 54.8971 32.6363 54.7792 32.6363C54.6613 32.6363 54.6613 32.6363 54.6613 32.7247V33.3144C54.6613 33.8156 54.6908 33.8156 54.8972 33.8451H54.9856C55.0151 33.8745 55.0151 33.963 54.9856 33.9924C54.6318 33.963 54.278 33.963 53.9242 33.9924C53.8948 33.963 53.8948 33.904 53.9242 33.8451H54.0127C54.1896 33.8156 54.2485 33.8156 54.2485 33.3144L54.1601 31.6045ZM54.6318 32.2825C54.6318 32.3808 54.6908 32.43 54.8087 32.43C55.192 32.43 55.3688 32.1941 55.3688 31.7518C55.3688 31.3686 55.1625 31.0738 54.8087 31.0738C54.6711 31.0738 54.6023 31.1524 54.6023 31.3096C54.6318 31.3096 54.6318 32.2825 54.6318 32.2825ZM43.7236 33.3144C43.7236 33.8156 43.753 33.8156 43.9594 33.8451H44.0478C44.0773 33.8745 44.0773 33.963 44.0478 33.9924C43.6941 33.963 43.3403 33.963 42.9865 33.9924C42.957 33.963 42.957 33.904 42.9865 33.8451H43.075C43.2518 33.8156 43.3108 33.8156 43.3108 33.3144V31.5749C43.3108 31.0738 43.2813 31.0738 43.075 31.0443H42.9865C42.957 31.0148 42.957 30.9264 42.9865 30.8969C43.3403 30.9264 43.6941 30.9264 44.0478 30.8969C44.0773 30.9264 44.0773 30.9853 44.0478 31.0443H43.9594C43.7825 31.0738 43.7236 31.0738 43.7236 31.5749V33.3144ZM47.5562 33.1964V34.022C47.5267 34.0809 47.4677 34.0809 47.4088 34.0809C47.3498 33.9924 47.2319 33.8156 46.9371 33.4324L45.9937 32.1941C45.7283 31.8403 45.6104 31.6634 45.5514 31.6045V32.8132C45.5514 33.1669 45.5514 33.5797 45.6104 33.7271C45.6399 33.7861 45.6988 33.8156 45.8168 33.8451H45.9052C45.9347 33.8745 45.9347 33.963 45.9052 33.9924H45.0502C45.0208 33.963 45.0208 33.904 45.0502 33.8451L45.1387 33.8156C45.2271 33.8156 45.2861 33.7861 45.3156 33.6977C45.3745 33.5503 45.3745 33.1375 45.3745 32.7837V31.6634C45.3745 31.3096 45.3745 31.2212 45.2566 31.1033C45.2271 31.0738 45.1092 31.0148 45.0502 31.0148H44.9913C44.9618 30.9853 44.9618 30.8969 45.0208 30.8674C45.1682 30.8969 45.404 30.8674 45.4925 30.8674H45.7578C45.8168 31.0738 46.259 31.6634 46.4064 31.8403L46.7896 32.3415C46.9665 32.5479 47.3203 33.0491 47.3793 33.0786V32.0467C47.3793 31.6929 47.3793 31.2801 47.2908 31.1327C47.2614 31.0738 47.2024 31.0443 47.0845 31.0148H46.996C46.9666 30.9853 46.9666 30.8969 46.996 30.8674H47.851C47.8805 30.8969 47.8805 30.9558 47.851 31.0148L47.7626 31.0443C47.6741 31.0443 47.6152 31.0738 47.5857 31.1622C47.5267 31.3096 47.5267 31.7224 47.5267 32.0762C47.5562 32.0762 47.5562 33.1964 47.5562 33.1964ZM52.9808 32.4594C52.9808 33.3733 52.3912 34.0515 51.5952 34.0515C50.7107 34.0515 50.1801 33.3144 50.1801 32.4889C50.1801 31.5455 50.7697 30.8379 51.5952 30.8379C52.5091 30.8379 52.9808 31.6044 52.9808 32.4594ZM50.7107 32.3415C50.7107 32.9901 50.9466 33.8746 51.6247 33.8746C52.0669 33.8746 52.4502 33.4912 52.4502 32.5478C52.4502 31.8403 52.1848 31.0148 51.5362 31.0148C51.153 31.0148 50.7107 31.3391 50.7107 32.3415ZM57.9927 33.3144C57.9927 33.8156 58.0222 33.8156 58.2286 33.8451H58.3171C58.3465 33.8745 58.3465 33.963 58.3171 33.9924C57.9633 33.963 57.6095 33.963 57.2557 33.9924C57.2262 33.963 57.2262 33.904 57.2557 33.8451H57.3441C57.521 33.8156 57.58 33.8156 57.58 33.3144V31.5749C57.58 31.0738 57.5505 31.0738 57.3441 31.0443H57.2557C57.2262 31.0148 57.2262 30.9264 57.2557 30.8969C57.6095 30.9264 57.9633 30.9264 58.3171 30.8969C58.3465 30.9264 58.3465 30.9853 58.3171 31.0443H58.2286C58.0517 31.0738 57.9927 31.0738 57.9927 31.5749V33.3144ZM59.8501 31.5749C59.8501 31.0738 59.8206 31.0738 59.6142 31.0443H59.5553C59.5258 31.0148 59.5258 30.9264 59.5553 30.8969H61.3537C61.3831 30.9853 61.3832 31.3391 61.4126 31.5455C61.3832 31.575 61.3242 31.6044 61.2947 31.5749C61.2357 31.3096 61.1768 31.1917 61.0588 31.1622C60.9704 31.1328 60.8525 31.1327 60.7346 31.1327H60.4692C60.3513 31.1327 60.2923 31.2212 60.2923 31.3981V32.1941C60.2923 32.2727 60.3218 32.312 60.3808 32.312H60.5577C60.9114 32.312 60.9704 32.312 60.9999 32.1056L61.0294 31.9582C61.0588 31.9287 61.1473 31.9287 61.1473 31.9582V32.9311C61.1178 32.9606 61.0588 32.9606 61.0294 32.9311L60.9999 32.7542C60.9704 32.5479 60.9114 32.5478 60.5577 32.5478H60.3808C60.3218 32.5478 60.2923 32.5872 60.2923 32.6658V33.2555C60.2923 33.4913 60.2923 33.6682 60.3513 33.7271C60.4102 33.7861 60.4692 33.8156 60.7935 33.8156C61.2947 33.8156 61.3831 33.6977 61.5305 33.3144C61.56 33.2849 61.6485 33.2849 61.6485 33.3439C61.619 33.5503 61.5305 33.904 61.4716 34.022H59.4668C59.4373 33.9925 59.4373 33.9335 59.4668 33.8746L59.6142 33.8451C59.7911 33.8156 59.8501 33.8156 59.8501 33.3144V31.5749ZM65.1273 33.1964V34.022C65.0978 34.0809 65.0389 34.0809 64.9799 34.0809C64.9209 33.9924 64.803 33.8156 64.5082 33.4324L63.5648 32.1941C63.2995 31.8403 63.1815 31.6634 63.1225 31.6045V32.8132C63.1225 33.1669 63.1226 33.5797 63.1815 33.7271C63.211 33.7861 63.2994 33.8156 63.3879 33.8451H63.4764C63.5058 33.8745 63.5058 33.963 63.4764 33.9924H62.6214C62.5919 33.963 62.5919 33.904 62.6214 33.8451L62.7098 33.8156C62.7983 33.8156 62.8572 33.7861 62.8867 33.6977C62.9457 33.5503 62.9457 33.1375 62.9457 32.7837V31.6634C62.9457 31.3096 62.9457 31.2212 62.8277 31.1033C62.7983 31.0738 62.6803 31.0148 62.6214 31.0148H62.5624C62.5329 30.9853 62.5329 30.8969 62.5919 30.8674C62.7393 30.8969 62.9752 30.8674 63.0636 30.8674H63.3289C63.3879 31.0738 63.8301 31.6634 63.9776 31.8403L64.3608 32.3415C64.5377 32.5479 64.8915 33.0491 64.9504 33.0786V32.0467C64.9504 31.6929 64.9504 31.2801 64.862 31.1327C64.8325 31.0738 64.7735 31.0443 64.6556 31.0148H64.5672C64.5377 30.9853 64.5377 30.8969 64.5672 30.8674H65.4221C65.4516 30.8969 65.4516 30.9558 65.4221 31.0148L65.3337 31.0443C65.2452 31.0443 65.1863 31.0738 65.1568 31.1622C65.0978 31.3096 65.0979 31.7224 65.0979 32.0762L65.1273 33.1964ZM67.3974 31.2802C67.3974 31.1426 67.3581 31.0738 67.2795 31.0738H67.0436C66.6898 31.0738 66.5719 31.1327 66.4245 31.516C66.395 31.5455 66.3066 31.516 66.3066 31.4865C66.3656 31.2212 66.4245 30.9558 66.454 30.7789L66.4835 30.7494C66.5032 30.7494 66.513 30.7593 66.513 30.7789C66.5424 30.8969 66.6014 30.8969 66.8667 30.8969H68.4882C68.6946 30.8969 68.7536 30.8969 68.783 30.7789C68.8125 30.7789 68.8125 30.7494 68.842 30.7494C68.8617 30.7494 68.8813 30.7593 68.901 30.7789C68.8715 30.9558 68.842 31.3686 68.842 31.516C68.8125 31.5455 68.7536 31.575 68.7241 31.516C68.6651 31.1622 68.6062 31.0738 68.1639 31.0738H67.9281C67.8495 31.0738 67.8102 31.1426 67.8102 31.2802V33.2849C67.8102 33.7861 67.8396 33.7861 68.046 33.8156L68.1934 33.8451C68.2229 33.8745 68.2229 33.963 68.1934 33.9924H66.9847C66.9552 33.963 66.9552 33.8745 66.9847 33.8451L67.1616 33.8156C67.3385 33.7861 67.3974 33.7861 67.3974 33.2849V31.2802ZM70.2866 32.8427C70.1687 32.8427 70.1982 32.8427 70.1392 32.9606L69.9623 33.5208C69.8739 33.7861 69.9034 33.8156 70.0508 33.8451L70.1687 33.8746C70.1982 33.9041 70.1982 33.9925 70.1687 34.022H69.3727C69.3432 33.9925 69.3432 33.9335 69.3727 33.8746L69.4906 33.8451C69.6085 33.8156 69.638 33.7861 69.697 33.6387C69.756 33.5207 69.8149 33.3144 69.9033 33.0786L70.434 31.4276C70.493 31.2802 70.5225 31.1622 70.5225 31.0738C70.6699 31.0443 70.7878 30.838 70.7878 30.838C70.8173 30.838 70.8468 30.8379 70.8468 30.8674C70.9057 31.0738 70.9647 31.3096 71.0237 31.516L71.5838 33.4618C71.6723 33.7861 71.7018 33.8156 71.9081 33.8451H71.9671C71.9966 33.8745 71.9966 33.963 71.9671 33.9924H70.9647C70.9352 33.963 70.9352 33.8745 70.9647 33.8451H71.0532C71.2006 33.8156 71.2006 33.7861 71.1711 33.6092L70.9942 32.9606C70.9647 32.8427 70.9352 32.8427 70.8173 32.8427H70.2866ZM70.7583 32.6363C70.8369 32.6363 70.8664 32.597 70.8468 32.5184L70.6699 31.9582C70.6109 31.7224 70.5814 31.6339 70.552 31.5749C70.5225 31.6044 70.493 31.7224 70.4341 31.9582L70.2572 32.5184C70.2375 32.6167 70.2571 32.6658 70.3161 32.6658C70.3456 32.6363 70.7583 32.6363 70.7583 32.6363ZM73.5886 33.1964C73.5886 33.4323 73.5886 33.6092 73.6475 33.6682C73.7065 33.7271 73.7655 33.7566 74.0898 33.7566C74.532 33.7566 74.591 33.7272 74.7679 33.2555C74.7973 33.226 74.8858 33.2554 74.8858 33.2849C74.8563 33.4913 74.7678 33.8451 74.7089 33.963H72.7926C72.7631 33.9335 72.7631 33.845 72.7926 33.8156L72.9105 33.7861C73.0874 33.7566 73.1464 33.7567 73.1464 33.2555V31.516C73.1464 31.0443 73.1169 31.0148 72.9105 30.9853L72.7926 30.9558C72.7631 30.9264 72.7631 30.8379 72.7926 30.8085H73.8834C73.9129 30.8379 73.9129 30.9264 73.8834 30.9558L73.795 30.9853C73.6181 31.0148 73.5591 31.0443 73.5591 31.516L73.5886 33.1964ZM50.0032 19.399C49.5315 19.3695 49.0303 19.3695 48.5586 19.399L49.1777 25.2364H49.443C49.443 25.2659 50.0032 19.399 50.0032 19.399ZM50.0621 18.9273C49.5609 18.8978 49.0303 18.8978 48.4996 18.9273L46.4654 0L51.831 0.707553C51.831 0.707553 50.0621 18.9273 50.0621 18.9273ZM51.949 19.7528C51.4772 19.6054 51.0056 19.5169 50.5339 19.4579L49.9147 25.2953L50.1506 25.3544L51.949 19.7528ZM52.0964 19.3106C51.5952 19.1632 51.094 19.0452 50.5928 18.9862L52.5681 0.0589364L57.6684 1.88683L52.0964 19.3106ZM48.0279 19.4579C47.5562 19.5169 47.0845 19.6349 46.6128 19.7528L48.4406 25.3544L48.6765 25.2953C48.706 25.2953 48.0279 19.4579 48.0279 19.4579ZM47.9689 18.9862C47.4677 19.0452 46.9371 19.1632 46.4654 19.3106L40.51 1.23822L45.9052 0.795997L47.9689 18.9862ZM46.1116 19.9297C45.8757 20.0181 45.6694 20.1066 45.463 20.195C45.2271 20.2835 45.0208 20.4013 44.7849 20.5193L47.7626 25.5902L47.9984 25.4722C47.9984 25.5017 46.1116 19.9297 46.1116 19.9297ZM45.9642 19.4875C45.463 19.6643 44.9913 19.8707 44.549 20.1361L34.9675 3.68522L40.1563 2.15217L45.9642 19.4875ZM44.3427 20.7846C44.1363 20.9025 43.9594 21.05 43.753 21.1679C43.5467 21.3153 43.3698 21.4627 43.1634 21.6396L47.114 25.9735L47.3203 25.826C47.3498 25.8555 44.3427 20.7846 44.3427 20.7846ZM44.1068 20.3719C43.9004 20.4898 43.6941 20.6372 43.4877 20.7846C43.2813 20.932 43.075 21.109 42.8686 21.2858L30.0145 7.22307L34.7611 4.6286L44.1068 20.3719ZM42.8096 21.9934C42.4558 22.3177 42.1316 22.701 41.8367 23.0842L46.6128 26.5041L46.7896 26.3272C46.7897 26.3272 42.8096 21.9934 42.8096 21.9934ZM42.4558 21.6396C42.0726 21.9934 41.7483 22.3766 41.424 22.7894L25.9461 11.7337L30.044 8.19595L42.4558 21.6396ZM41.5419 23.5265C41.2766 23.9392 41.0407 24.352 40.8343 24.7942L46.2 27.1232L46.318 26.9168L41.5419 23.5265ZM41.1291 23.2316C40.8343 23.6738 40.569 24.1161 40.3626 24.5878L22.9094 16.9815L26.1819 12.6772L41.1291 23.2316ZM53.7769 20.5193C53.3641 20.2834 52.9219 20.0771 52.4502 19.9297L50.6223 25.5312L50.8582 25.6491C50.8582 25.6196 53.7474 20.5193 53.7769 20.5193ZM54.0127 20.1066C53.5705 19.8707 53.0988 19.6349 52.5976 19.4875L58.4939 1.38568L63.0931 4.2454C63.0636 4.21592 54.0127 20.1066 54.0127 20.1066ZM55.3984 21.6396C55.2215 21.4922 55.0446 21.3448 54.8382 21.1974C54.6318 21.05 54.4254 20.9025 54.2191 20.7846L51.2709 25.885L51.4773 26.0324C51.4773 26.0029 55.3984 21.6396 55.3984 21.6396ZM55.7226 21.2563C55.5457 21.0794 55.3394 20.932 55.133 20.7846C54.9266 20.6372 54.6908 20.4898 54.4844 20.3424L64.0365 3.86211L67.9576 7.60627C67.8986 7.63576 55.7226 21.2563 55.7226 21.2563ZM56.725 23.0547C56.4302 22.6715 56.1059 22.3177 55.7521 21.9639L51.831 26.3272L52.0079 26.5041L56.725 23.0547ZM57.1378 22.7894C56.8135 22.3766 56.4892 21.9934 56.1059 21.6396L68.8715 7.51783L71.9081 11.9991L57.1378 22.7894ZM57.7569 24.7352C57.6684 24.5288 57.5505 24.3224 57.4326 24.1161C57.3146 23.9097 57.1673 23.7033 57.0493 23.4969L52.2733 26.9168L52.3912 27.1232L57.7569 24.7352ZM58.1991 24.5583C57.9927 24.0866 57.7274 23.6444 57.4326 23.2022L72.881 12.0581L74.9153 17.07L58.1991 24.5583Z" fill="#202020"/>
</g>
</g>
</svg>
