<svg width="98" height="36" viewBox="0 0 98 36" fill="none" xmlns="http://www.w3.org/2000/svg">
<g id="Group">
<g id="Group_2">
<path id="Vector" d="M58.9613 15.638V9.29826H52.4807V15.638H49.663V0.281787H52.4807V6.62152H58.9613V0.281787H61.779V15.4971H58.9613V15.638ZM44.4503 3.66292C44.7321 4.08557 44.7321 4.64913 44.7321 5.21267V15.4971H47.5498V4.22649C47.5498 3.09942 47.268 2.25409 46.8453 1.54967C46.2818 0.563488 45.0139 0 43.605 0C41.6327 0 40.2238 0.986179 38.9559 2.11324L38.2515 2.81763V0.281787H33.4614V2.53585H35.5747V15.638H38.3923V4.36738L38.5332 4.22649C39.5194 3.38119 40.9282 2.53585 42.3371 2.53585C43.605 2.53585 44.1685 3.09938 44.4503 3.66292Z" fill="#202020"/>
<path id="Vector_2" d="M13.1736 31.8395H8.66538V35.5025H7.6792V27.4721H8.66538V30.9942H13.1736V27.4721H14.1598V35.5025H13.1736V31.8395ZM24.0217 31.5578C24.0217 33.6711 22.7537 35.6434 19.936 35.6434C17.2593 35.6434 15.8504 33.6711 15.8504 31.5578C15.8504 29.3037 17.4001 27.4721 19.936 27.4721C22.7537 27.3313 24.1625 29.4446 24.0217 31.5578ZM20.0769 28.3175C18.1045 28.3175 16.9775 29.8672 16.9775 31.5578C16.9775 33.1075 17.9637 34.7981 20.0769 34.7981C22.1902 34.7981 23.1764 33.2484 23.1764 31.5578C23.1764 29.8672 22.1902 28.3175 20.0769 28.3175ZM24.7261 28.3175V27.4721H31.2067V28.3175H28.5299V35.3616H27.5437V28.3175H24.7261ZM32.6155 27.4721H38.2509V28.3175H33.6017V30.8533H37.9691V31.8395H33.6017V34.5163H38.3917V35.5025H32.6155V27.4721ZM41.2094 34.5163H45.5768V35.5025H40.2232V27.4721H41.2094L41.2094 34.5163ZM55.8613 29.1628C55.2977 28.5992 54.3116 28.1766 53.4663 28.1766C51.353 28.1766 50.3668 29.7263 50.3668 31.4169C50.3668 32.9666 51.353 34.5163 53.6071 34.5163C54.3116 34.5163 55.1569 34.2346 55.7204 33.6711V31.8395H53.1845V30.9942H56.5657V34.0937C55.7204 34.939 54.7342 35.5025 53.4663 35.5025C50.6486 35.5025 49.2398 33.5302 49.2398 31.4169C49.2398 29.0219 50.7895 27.1904 53.3254 27.1904C54.4524 27.1904 55.4386 27.6131 56.2839 28.3175L55.8613 29.1628ZM61.3557 32.544H59.3833V35.3616H58.3972V27.3313H62.0601C63.8916 27.3313 64.7369 28.5992 64.7369 29.8672C64.7369 31.1351 64.0325 32.2622 62.4828 32.4031L65.1596 35.3616H63.8916L61.3557 32.544ZM63.7507 30.0081C63.7507 29.1628 63.1872 28.3175 62.0601 28.3175H59.3833V31.6986H61.9192C63.1872 31.6986 63.7507 30.9942 63.7507 30.0081ZM74.317 31.5578C74.317 33.6711 73.049 35.6434 70.2313 35.6434C67.5546 35.6434 66.1457 33.6711 66.1457 31.5578C66.1457 29.3037 67.6954 27.4721 70.2313 27.4721C73.049 27.3313 74.317 29.4446 74.317 31.5578ZM70.3722 28.3175C68.3999 28.3175 67.2728 29.8672 67.2728 31.5578C67.2728 33.1075 68.259 34.7981 70.3722 34.7981C72.4855 34.7981 73.4717 33.2484 73.4717 31.5578C73.3308 29.8672 72.3446 28.3175 70.3722 28.3175ZM82.6291 27.4721V32.2622C82.6291 34.5163 81.0794 35.6434 79.3888 35.6434C77.6982 35.6434 76.1484 34.5163 76.1484 32.2622V27.4721H77.1346V32.2622C77.1346 33.8119 78.2617 34.6572 79.3887 34.6572C80.6567 34.6572 81.6429 33.8119 81.6429 32.2622V27.4721H82.6291ZM85.7285 35.5025H84.7423V27.4721H88.4053C92.0683 27.4721 92.0683 32.8257 88.4053 32.8257H85.7285V35.5025ZM88.4053 28.4583H85.7285V31.9804H88.4053C90.8003 31.9804 90.8003 28.4583 88.4053 28.4583Z" fill="#202020"/>
<path id="Vector_3" d="M91.2232 21.2734H7.53857V21.5552H91.2232V21.2734Z" fill="#202020"/>
</g>
</g>
</svg>
