<svg width="99" height="36" viewBox="0 0 99 36" fill="none" xmlns="http://www.w3.org/2000/svg">
<g id="Group">
<g id="Group_2">
<path id="Vector" d="M61.5882 32.9277L61.5729 29.9691L56.6621 29.9843V27.2239L61.5577 27.2087V24.25L56.6469 24.2653L56.5859 5.61336L61.4814 5.58282V2.6394L53.6272 2.66994L53.734 32.9583L61.5882 32.9277Z" fill="#202020"/>
<path id="Vector_2" d="M75.4362 5.55244L75.421 2.59375L65.4011 2.62421V5.58289L68.9393 5.56762L69.0461 32.8973L71.9895 32.8821L71.898 5.56762L75.4362 5.55244Z" fill="#202020"/>
<path id="Vector_3" d="M46.1093 15.1452C46.094 11.9272 44.7214 9.50239 42.6778 7.65703L42.7388 23.6095C45.0874 20.7271 46.1245 18.1801 46.1093 15.1452ZM49.8152 32.9736C46.6735 32.7143 44.3554 31.2654 42.7541 28.3677L42.7693 33.004L39.8259 33.0193L39.7039 2.70044C45.6975 4.19503 49.0374 10.7682 49.0527 15.0385C49.0679 19.2935 48.0766 21.6269 44.3249 25.8209C45.5602 28.2153 47.2836 29.4963 49.7847 30.0149L49.8152 32.9736Z" fill="#202020"/>
<path id="Vector_4" d="M35.7995 15.0843C35.464 10.936 32.6578 4.27143 26.4507 2.74634L26.5574 33.0499L29.5161 33.0347L29.5009 27.7273C29.4856 27.7425 36.379 22.115 35.7995 15.0843ZM32.8408 15.1758C32.8561 18.226 31.819 20.7729 29.4704 23.6401L29.4094 7.70285C31.4682 9.54821 32.8256 11.9731 32.8408 15.1758Z" fill="#202020"/>
<path id="Vector_5" fill-rule="evenodd" clip-rule="evenodd" d="M9.62907 9.22778L11.9625 16.0298L18.3068 16.0145L13.2435 19.5985L15.2414 25.7751L9.67482 22.1911L4.16923 25.7751L6.12135 19.6137L0.936035 16.0755L7.32618 16.045L9.62907 9.22778Z" fill="#202020"/>
<path id="Vector_6" fill-rule="evenodd" clip-rule="evenodd" d="M89.4672 8.75488L91.8158 15.5568L98.145 15.5263L93.0969 19.1256L95.0795 25.3022L89.513 21.7182L84.0074 25.3022L85.9595 19.1408L80.7742 15.6026L87.1643 15.572L89.4672 8.75488Z" fill="#202020"/>
</g>
</g>
</svg>
