<svg width="98" height="36" viewBox="0 0 98 36" fill="none" xmlns="http://www.w3.org/2000/svg">
<g id="Group">
<g id="Group_2">
<path id="Vector" d="M6.8266 13.3969C6.48324 13.0847 6.08018 12.8451 5.64174 12.6929C5.15548 12.5294 4.64492 12.45 4.13198 12.4581H0.193848V23.1614H2.32798V19.3832H4.13052C4.64458 19.3883 5.15553 19.3033 5.64024 19.132C6.0783 18.9789 6.4812 18.7395 6.8251 18.428C7.15605 18.1207 7.42006 17.7484 7.60057 17.3344C7.78773 16.8888 7.88115 16.4095 7.875 15.9263C7.88001 15.4432 7.78664 14.9641 7.60057 14.5182C7.42629 14.0926 7.16169 13.7099 6.8251 13.3965L6.8266 13.3969ZM5.28469 17.039C4.97286 17.3402 4.5486 17.4961 4.11593 17.4685H2.32948V14.3877H4.11593C4.54683 14.3604 4.96985 14.5125 5.28469 14.808C5.56492 15.1052 5.71325 15.5029 5.69597 15.911C5.71403 16.3269 5.56563 16.7328 5.28358 17.039H5.28469Z" fill="#202020"/>
<path id="Vector_2" d="M18.0455 17.752C18.3793 17.1965 18.549 16.5578 18.5349 15.9099C18.5392 15.4266 18.4451 14.9475 18.2583 14.5018C18.0809 14.0854 17.8164 13.7118 17.4828 13.4059C17.1395 13.0937 16.7364 12.8542 16.298 12.7019C15.8118 12.5383 15.3012 12.4589 14.7882 12.4671H10.8516V23.1704H12.9857V19.3919H14.5344L17.2451 23.1584H19.6469L16.7074 18.96C17.2583 18.6915 17.7222 18.2727 18.0455 17.752ZM15.9409 17.0293C15.6272 17.3268 15.2036 17.4798 14.7721 17.4517H12.9857V14.3858H14.7721C15.2031 14.3582 15.6262 14.5104 15.9409 14.8062C16.2212 15.1033 16.3695 15.501 16.3522 15.9091C16.372 16.3225 16.2238 16.7264 15.9413 17.0289L15.9409 17.0293Z" fill="#202020"/>
<path id="Vector_3" d="M25.1942 12.4558H23.0601V23.1591H25.1942V12.4558Z" fill="#202020"/>
<path id="Vector_4" d="M36.361 18.8463L30.3247 12.2659H29.6143V23.1542H31.7484V16.7394L37.8013 23.349H38.4967V12.4606H36.3626L36.361 18.8463Z" fill="#202020"/>
<path id="Vector_5" d="M42.1553 14.452H45.4926V23.177H47.6238V14.452H50.9749V12.4741H42.1553V14.452Z" fill="#202020"/>
<path id="Vector_6" d="M56.7523 18.49H60.3551V16.6243H56.7523V14.452H61.636V12.4741H54.6182V23.1774H61.826V21.1992H56.7523V18.49Z" fill="#202020"/>
<path id="Vector_7" d="M71.0495 18.165L66.6552 12.3618H65.9448V23.2551H68.0786V17.5316L70.7022 20.9187H71.3976L74.0373 17.5316V23.2551H76.1714V12.3618H75.476L71.0495 18.165Z" fill="#202020"/>
<path id="Vector_8" d="M87.6999 14.4717C87.5225 14.056 87.2581 13.6831 86.9245 13.3781C86.5812 13.0658 86.1781 12.8263 85.7396 12.6741C85.2534 12.5106 84.7428 12.4312 84.2299 12.4393H80.2861V23.1425H82.421V19.3648H84.2235C84.7376 19.3699 85.2485 19.2849 85.7333 19.1136C86.1722 18.9568 86.5751 18.7135 86.9181 18.3979C87.2496 18.0911 87.5137 17.7186 87.6936 17.3043C87.881 16.8588 87.9744 16.3795 87.968 15.8963C87.9769 15.4081 87.8857 14.9232 87.6999 14.4717ZM85.3818 17.0179C85.07 17.3191 84.6457 17.475 84.2131 17.4474H82.4266V14.3733H84.2131C84.6444 14.3458 85.0678 14.4989 85.3818 14.7959C85.6623 15.0928 85.8107 15.4907 85.7931 15.8988C85.8073 16.3121 85.6569 16.7141 85.3748 17.0164L85.3818 17.0179Z" fill="#202020"/>
<path id="Vector_9" d="M96.7319 18.2863C96.1829 17.7469 95.5373 17.3157 94.8288 17.0151L93.6462 16.4875C93.3286 16.3463 93.0266 16.1727 92.7448 15.9693C92.5323 15.7995 92.4148 15.5377 92.4292 15.2661C92.4065 14.9553 92.5513 14.656 92.8091 14.4809C93.082 14.3075 93.4008 14.2202 93.724 14.2301C94.1246 14.2211 94.5186 14.3339 94.8539 14.5535C95.1994 14.795 95.4927 15.1035 95.7164 15.4608L97.169 14.3096C96.8577 13.7191 96.3981 13.2198 95.8353 12.8608C95.199 12.462 94.4585 12.2612 93.7079 12.284C93.2465 12.2802 92.7877 12.3514 92.3492 12.4948C91.9489 12.6231 91.5781 12.8294 91.2582 13.102C90.9518 13.3667 90.7039 13.6924 90.5306 14.0584C90.3468 14.4515 90.2546 14.8811 90.2607 15.315C90.2558 15.6643 90.3203 16.0109 90.4506 16.335C90.5779 16.6369 90.7541 16.9157 90.9722 17.1602C91.2063 17.4199 91.4749 17.6463 91.7704 17.8332C92.0981 18.0419 92.4389 18.2292 92.7908 18.394L93.8978 18.9122C94.242 19.0624 94.5701 19.247 94.8771 19.4633C95.1156 19.6475 95.2461 19.9389 95.2248 20.2395C95.2438 20.5768 95.1 20.9028 94.8382 21.1163C94.5225 21.3379 94.1411 21.4461 93.7561 21.4232C93.2053 21.4363 92.6649 21.2719 92.2146 20.9543C92.0098 20.8109 91.8217 20.645 91.6538 20.4597C91.4859 20.2777 91.3329 20.0825 91.1962 19.8761L89.7275 21.0108C90.5154 22.4983 92.0752 23.4138 93.758 23.3764C94.2461 23.3806 94.7318 23.3069 95.1968 23.1584C95.6151 23.0229 96.0035 22.808 96.3405 22.5254C96.6697 22.2484 96.9344 21.9027 97.1159 21.5126C97.3094 21.0915 97.4063 20.6325 97.3997 20.1692C97.4396 19.4773 97.1989 18.7985 96.7319 18.2863Z" fill="#202020"/>
</g>
</g>
</svg>
