<svg width="99" height="36" viewBox="0 0 99 36" fill="none" xmlns="http://www.w3.org/2000/svg">
<g id="Group">
<path id="Vector" fill-rule="evenodd" clip-rule="evenodd" d="M70.4766 25.4481C67.8083 25.4481 67.0517 23.2179 67.0517 20.9082H69.4411C69.4411 21.7045 69.5208 23.1781 70.5961 23.1781C71.3926 23.1781 71.7908 22.4612 71.7908 21.7444C71.7908 19.156 66.9322 18.4789 66.9322 14.2177C66.9322 12.0674 68.0871 10.1956 70.3969 10.1956C73.0254 10.1956 73.7422 12.4258 73.782 14.6956H71.3925C71.3925 14.1381 71.512 12.4656 70.3173 12.4656C69.6004 12.4656 69.3217 13.1824 69.3217 13.7798C69.3217 16.2487 74.1801 17.1647 74.1801 21.3861C74.1801 23.656 72.8661 25.4481 70.4766 25.4481ZM60.3613 25.1693V10.4743H66.4146V12.7444H63.0296V16.4877H65.4987V18.8772H63.0296V22.8993H66.5341V25.1693H60.3613ZM58.9278 25.1693H57.8127L57.4145 24.1737C56.9366 24.8905 56.1799 25.4481 55.3038 25.4481C51.6002 25.4481 51.4808 20.5896 51.4808 17.9214C51.4808 15.4124 51.879 10.1956 55.3038 10.1956C58.649 10.1956 58.8083 13.1028 58.8083 15.7311H56.4188L56.4587 14.8151C56.4587 14.1779 56.3392 12.4656 55.4232 12.4656C54.1488 12.4656 54.2683 16.9258 54.2683 17.9612C54.2683 20.1118 54.1489 23.1781 55.5427 23.1781C56.6976 23.1781 56.6578 21.2268 56.6578 20.4303H55.6622V18.3197H58.9278V25.1693ZM46.025 25.1693H43.2373V10.4743H45.5869C50.3657 10.4743 50.525 14.0584 50.525 17.8019C50.525 21.2268 50.525 25.1693 46.025 25.1693ZM41.7239 10.4743V25.1693H39.016V10.4743H41.7239ZM35.1132 25.1693L33.8388 18.8374H33.2016V25.1693H30.5336V10.4743H33.5601C36.3478 10.4743 37.7814 11.7885 37.7814 14.6557C37.7814 15.9699 37.423 17.5231 36.2283 18.2399L37.7814 25.1693H35.1132ZM26.1529 12.7444V16.6868H28.5821V19.0365H26.1529V25.1693H23.4847V10.4743H29.4583V12.7444H26.1529ZM16.5156 25.1693V10.4743H19.1837V22.8993H22.6086V25.1693H16.5156ZM9.22791 25.1693V10.4743H15.3209V12.7444H11.896V16.4877H14.4049V18.8772H11.896V22.8993H15.4404V25.1693H9.22791ZM4.52861 25.4481C1.86053 25.4481 1.10385 23.2179 1.10385 20.9082H3.49332C3.49332 21.5454 3.57297 23.1781 4.64808 23.1781C5.44457 23.1781 5.84283 22.4612 5.84283 21.7444C5.84283 19.156 0.984375 18.4789 0.984375 14.2177C0.984375 12.0674 2.13929 10.1956 4.44912 10.1956C7.07738 10.1956 7.79423 12.4258 7.83405 14.6956H5.48441C5.48441 14.0584 5.40475 12.4656 4.36946 12.4656C3.65264 12.4656 3.37385 13.1824 3.37385 13.7798C3.37385 16.2487 8.23228 17.1647 8.23228 21.3861C8.23228 23.656 6.91806 25.4481 4.52861 25.4481ZM45.9055 22.8993C48.016 22.8993 47.6974 20.6693 47.6974 18.0807C47.6974 15.8107 48.255 12.7444 45.9055 12.7444V22.8993ZM33.6397 12.6248H33.2016V16.7267H33.7592C34.8344 16.7267 35.1132 15.5319 35.1132 14.6956C35.1132 13.6205 34.8743 12.6248 33.6397 12.6248ZM79.6759 13.4612C79.6759 12.824 79.4768 12.4656 79.0387 12.4656C78.6404 12.4656 78.4811 12.824 78.4811 13.3019C78.4811 13.8594 78.7201 14.616 78.9192 15.1735C79.3175 14.6956 79.6759 14.1381 79.6759 13.4612ZM79.0387 12.1469C79.7555 12.1469 79.9945 12.824 79.9945 13.4612C79.9945 14.4168 79.3971 15.0939 78.8794 15.8107C78.5608 15.0541 78.1626 14.138 78.1626 13.3019C78.1626 12.7841 78.3219 12.1469 79.0387 12.1469ZM83.698 25.1693C82.5829 25.1693 81.7068 24.8507 80.9899 24.094C80.3131 24.8905 79.3175 25.4481 78.2024 25.4481C75.9324 25.4481 74.8969 23.3772 74.8969 21.7444C74.8969 20.0321 75.7731 18.5586 77.0475 17.1249C76.4103 15.8505 75.9324 14.7752 75.9324 13.3019C75.9324 11.4301 77.2068 10.1956 79.0387 10.1956C80.9501 10.1956 81.9855 11.7487 81.9855 13.2621C81.9855 15.1337 81.0696 15.8903 79.9945 17.1647C80.2334 17.9214 80.6715 18.5984 81.0298 19.3153C81.2289 18.5984 81.3484 17.9214 81.428 17.2046L83.4989 17.6426C83.2998 19.0763 82.9812 20.4701 82.3838 21.7842C82.7422 22.3815 83.2201 22.6205 83.8971 22.7798V25.1693H83.698ZM83.5387 23.0188C82.8219 22.8595 82.3838 22.4214 82.0254 21.824C82.6227 20.5896 82.9413 19.2754 83.1405 17.8816L81.7068 17.6028C81.5873 18.4789 81.3882 19.3153 81.1094 20.1117C80.5919 19.1162 79.9945 18.2002 79.5962 17.1249C80.6715 15.8505 81.6271 15.0938 81.6271 13.2621C81.6271 11.8682 80.7113 10.5142 79.0387 10.5142C77.4059 10.5142 76.251 11.6292 76.251 13.3019C76.251 14.815 76.8085 15.8903 77.4059 17.2046C76.251 18.4789 75.2155 19.9525 75.2155 21.7444C75.2155 23.2976 76.1713 25.1295 78.2024 25.1295C79.3971 25.1295 80.2733 24.4922 80.9501 23.5763C81.7068 24.4126 82.3838 24.8108 83.5387 24.8108V23.0188ZM77.5652 20.9481C77.5652 21.824 77.9634 22.8993 78.8396 22.8993C79.2776 22.8993 79.4768 22.5807 79.6361 22.302L78.1227 19.4745C77.7643 19.8728 77.5652 20.3507 77.5652 20.9481ZM80.0343 22.3418C79.7555 22.7798 79.3573 23.2179 78.7997 23.2179C77.7643 23.2179 77.2466 21.7842 77.2466 20.9481C77.2466 20.0719 77.5652 19.5542 78.1626 18.917L80.0343 22.3418ZM88.875 15.7709C88.875 15.3328 88.9547 12.7444 88.0785 12.7444C87.0034 12.7444 87.1229 17.2046 87.1229 17.6825C87.1229 22.1426 87.5211 22.8993 88.0387 22.8993C89.114 22.8993 89.0343 20.2312 89.0343 19.5542H91.5433V19.7135C91.5831 22.063 91.3043 25.4481 87.9989 25.4481C84.1361 25.4481 84.0962 20.1516 84.0962 17.6825C84.0962 15.3726 84.4547 10.1956 87.9989 10.1956C91.3043 10.1956 91.5433 13.4214 91.5035 15.7709V15.97H88.875V15.7709ZM91.2247 15.6115C91.1849 13.2222 90.8663 10.5142 87.9989 10.5142C84.8131 10.5142 84.4547 15.2133 84.4547 17.6825C84.4547 20.3507 84.5343 25.1295 87.9989 25.1295C90.8663 25.1295 91.2247 22.2621 91.2645 19.8728H89.3529C89.3529 20.7489 89.3529 23.2179 88.0387 23.2179C87.1229 23.2179 86.8043 21.8639 86.8043 17.6825C86.8043 16.647 86.6848 12.4257 88.0785 12.4257C89.2733 12.4257 89.1936 14.9345 89.1936 15.6115H91.2247ZM95.7645 22.2222C94.8087 22.2222 94.4106 21.3861 93.6938 21.3861C93.3354 21.3861 93.0168 21.6251 92.738 21.9435L92.3398 21.3463C92.8575 20.4702 93.6142 19.7533 94.57 19.7533C95.4857 19.7533 95.884 20.5896 96.6008 20.5896C96.9991 20.5896 97.2778 20.3506 97.5566 20.0719L97.9549 20.6693C97.4372 21.4658 96.6805 22.2222 95.7645 22.2222ZM97.5168 20.51C97.2778 20.7489 96.9593 20.9082 96.6008 20.9082C95.8043 20.9082 95.4061 20.1117 94.57 20.1117C93.8133 20.1117 93.1363 20.6693 92.6982 21.3463L92.7778 21.4658C93.0168 21.2268 93.3354 21.0675 93.6938 21.0675C94.4903 21.0675 94.8884 21.9036 95.7645 21.9036C96.5212 21.9036 97.1584 21.3065 97.5964 20.6693L97.5168 20.51ZM95.207 10.2354C97.7557 10.2354 98.1938 12.7842 98.1938 14.7753C98.1938 16.7665 97.7557 19.3153 95.207 19.3153C92.6982 19.3153 92.2203 16.7665 92.2203 14.7753C92.2203 12.7842 92.6982 10.2354 95.207 10.2354ZM95.207 18.9568C97.5168 18.9568 97.8752 16.5674 97.8752 14.7753C97.8752 12.9833 97.5168 10.554 95.207 10.554C92.8973 10.554 92.5787 12.9833 92.5787 14.7753C92.5787 16.5674 92.8973 18.9568 95.207 18.9568ZM95.207 17.4833C95.4459 17.4833 95.6849 17.2046 95.6849 14.7753C95.6849 13.9391 95.6849 12.0674 95.207 12.0674C94.7689 12.0674 94.7291 12.9833 94.7291 14.7753C94.7291 17.0453 94.968 17.4833 95.207 17.4833ZM96.0034 14.7753C96.0034 17.4037 95.7247 17.8019 95.207 17.8019C94.7689 17.8019 94.4106 17.4037 94.4106 14.7753C94.4106 13.5409 94.4505 12.7842 94.57 12.3461C94.6893 11.7886 94.968 11.7089 95.207 11.7089C95.7645 11.7089 96.0034 12.3859 96.0034 14.7753Z" fill="#202020"/>
</g>
</svg>
