<svg width="98" height="36" viewBox="0 0 98 36" fill="none" xmlns="http://www.w3.org/2000/svg">
<g id="Group">
<g id="Group_2">
<path id="Vector" d="M7.36295 15.8654C7.8906 18.802 8.87527 21.4765 11.1206 23.5166C13.7419 25.8983 17.0713 25.9763 19.8564 23.7629C21.4468 22.4989 22.5673 20.8712 23.4837 19.0856C23.8062 18.4572 24.1157 17.8222 24.4341 17.1917C25.0019 16.0673 25.9646 16.2843 26.7792 16.8753C27.2036 17.1831 27.1788 17.688 27.089 18.1498C26.8215 19.5248 26.2895 20.8091 25.6756 22.0588C24.5597 24.3304 23.0712 26.3062 21.0089 27.811C19.5777 28.8553 17.9966 29.5645 16.226 29.7423C13.905 29.9754 11.7998 29.3777 9.94377 27.9423C8.07102 26.494 6.81749 24.586 5.86745 22.4551C5.00408 20.5186 4.46894 18.484 4.11593 16.3998C4.07528 16.1598 3.98687 16.101 3.77018 16.1207C3.30055 16.1634 2.8289 16.1848 2.35979 16.2319C1.36136 16.3321 0.757144 15.8172 0.734289 14.8159C0.725848 14.4461 0.712076 14.0682 0.774358 13.7067C0.920959 12.8558 1.30402 12.5116 2.17032 12.5049C4.53234 12.4864 6.89479 12.4817 9.25669 12.507C10.2567 12.5178 10.7082 13.0609 10.7818 14.2142C10.7968 14.4483 10.8044 14.6919 10.7577 14.9192C10.6558 15.4156 10.2215 15.6766 9.53321 15.7168C8.82793 15.758 8.12344 15.8127 7.36295 15.8654Z" fill="#202020"/>
<path id="Vector_2" d="M51.1547 20.9671C51.1547 21.833 51.1547 22.699 51.1547 23.565C51.1546 25.3611 50.3211 26.3967 48.5556 26.7513C47.6744 26.9283 46.789 26.9009 45.9204 26.6536C44.5454 26.2622 43.7505 25.2372 43.7403 23.8066C43.7266 21.8836 43.7358 19.9604 43.7377 18.0373C43.7381 17.6688 43.8824 17.5055 44.2605 17.4789C44.5723 17.457 44.8874 17.4558 45.1996 17.4725C45.6853 17.4984 45.8049 17.6326 45.8057 18.1229C45.808 19.6749 45.8066 21.2269 45.8066 22.7789C45.8067 23.0488 45.8044 23.3188 45.8073 23.5887C45.8172 24.5175 46.249 25.0098 47.176 25.088C47.4942 25.1149 47.8313 25.0823 48.1417 25.0044C48.7758 24.8453 49.0767 24.4 49.0824 23.6652C49.0909 22.5631 49.0848 21.4609 49.0849 20.3588C49.0849 19.6278 49.0837 18.8967 49.0852 18.1657C49.0864 17.6303 49.2128 17.491 49.7566 17.4663C50.0586 17.4526 50.3636 17.4547 50.6645 17.481C51.028 17.5128 51.1525 17.6639 51.1536 18.0318C51.1566 19.0102 51.1546 19.9886 51.1547 20.9671Z" fill="#202020"/>
<path id="Vector_3" d="M82.1725 22.0974C82.1826 23.0329 82.0196 23.9252 81.5943 24.7615C80.8481 26.2285 79.2856 26.958 77.6559 26.6725C76.1633 26.4111 75.2248 25.5393 74.7743 24.1438C74.2582 22.5452 74.2836 20.9441 75.0448 19.4176C75.687 18.1298 76.7599 17.5167 78.2076 17.4663C80.7629 17.3772 81.8756 19.3772 82.0744 20.9952C82.1194 21.3611 82.1404 21.7299 82.1725 22.0974ZM80.7905 22.1178C80.8275 21.4112 80.7272 20.7181 80.4549 20.0576C80.0929 19.1797 79.4515 18.6273 78.489 18.5635C77.5689 18.5025 76.7907 18.8492 76.3624 19.6895C75.587 21.2112 75.5909 22.7877 76.2718 24.3386C76.6414 25.1805 77.3452 25.5845 78.281 25.5981C79.2345 25.612 79.9178 25.1855 80.348 24.3648C80.7129 23.6688 80.8266 22.9073 80.7905 22.1178Z" fill="#202020"/>
<path id="Vector_4" d="M37.2704 19.2258C36.5273 19.2258 35.8324 19.2268 35.1374 19.2255C34.5363 19.2244 34.4517 19.1347 34.4818 18.5416C34.4858 18.463 34.482 18.3838 34.4905 18.3058C34.5619 17.6496 34.7352 17.4937 35.392 17.4936C37.4376 17.4934 39.4832 17.4931 41.5289 17.4939C42.0605 17.4942 42.1546 17.5961 42.1263 18.13C42.1245 18.1636 42.1184 18.1969 42.116 18.2305C42.0519 19.1131 41.9316 19.2249 41.0513 19.226C40.5119 19.2267 39.9725 19.2298 39.4331 19.2332C39.4136 19.2334 39.3941 19.2495 39.3402 19.2734C39.3402 19.3791 39.3402 19.4995 39.3402 19.6198C39.3402 21.7442 39.3404 23.8685 39.34 25.9928C39.3399 26.511 39.2561 26.627 38.733 26.6824C38.4243 26.7151 38.1053 26.7012 37.7958 26.6658C37.3602 26.616 37.2717 26.4949 37.2711 26.0467C37.2694 24.7766 37.2704 23.5065 37.2704 22.2364C37.2704 21.2486 37.2704 20.2608 37.2704 19.2258Z" fill="#202020"/>
<path id="Vector_5" d="M68.6422 22.8079V25.8369C68.6422 26.5565 68.3919 26.7489 67.6772 26.5781C67.5028 26.5365 67.4227 26.4434 67.4231 26.2463C67.4291 23.5014 67.4277 20.7565 67.426 18.0116C67.4259 17.8173 67.4777 17.6812 67.7018 17.6724C67.7561 17.6703 67.8098 17.6312 67.8631 17.6329C68.9945 17.6683 70.1351 17.6302 71.2546 17.7657C72.5213 17.919 73.1424 18.7692 73.1715 20.0326C73.2024 21.3764 72.605 22.2517 71.2841 22.6738C71.7228 23.2908 72.1401 23.8784 72.5581 24.4654C72.9159 24.968 73.2836 25.4639 73.6263 25.9766C73.7105 26.1026 73.7776 26.3055 73.733 26.4303C73.7011 26.5197 73.4735 26.5588 73.327 26.5842C72.7706 26.6804 72.396 26.4779 72.0838 25.9765C71.5095 25.0542 70.833 24.1958 70.2482 23.2794C70.0214 22.9239 69.7418 22.8167 69.3711 22.8087C69.1464 22.8039 68.9215 22.8079 68.6422 22.8079ZM68.6625 18.6588V21.7194C69.3158 21.7194 69.9564 21.7795 70.5801 21.7029C71.2295 21.6231 71.7254 21.263 71.845 20.548C72.0113 19.5546 71.6821 18.8376 70.6436 18.757C69.9968 18.7068 69.3472 18.6915 68.6625 18.6588Z" fill="#202020"/>
<path id="Vector_6" d="M64.4563 23.0101C63.9042 23.0101 63.3893 22.9997 62.875 23.0144C62.6054 23.0221 62.4884 22.9422 62.4933 22.6526C62.5037 22.0436 62.6036 21.9301 63.2145 21.9301C63.8666 21.93 64.5187 21.9284 65.1708 21.9306C65.5699 21.932 65.6706 22.0314 65.6711 22.4232C65.6724 23.5026 65.6645 24.5821 65.6763 25.6613C65.6794 25.9477 65.5817 26.1627 65.3184 26.2404C64.7447 26.4097 64.1689 26.6064 63.5799 26.6821C62.3836 26.8358 61.2313 26.6953 60.2488 25.8937C59.4744 25.2619 59.0537 24.4137 58.8747 23.4615C58.6404 22.2149 58.6888 20.9798 59.1832 19.7786C59.6787 18.5748 60.9487 17.4469 62.6546 17.4648C63.4806 17.4735 64.2841 17.5164 65.039 17.8849C65.2216 17.974 65.472 18.072 65.3869 18.3057C65.2855 18.5841 65.0922 18.8349 64.9044 19.0703C64.8726 19.1101 64.6576 19.0312 64.544 18.9738C63.726 18.5608 62.8593 18.5102 61.9925 18.7076C61.1733 18.8942 60.6526 19.473 60.4011 20.2555C59.9777 21.5735 59.9361 22.8975 60.5621 24.1699C61.037 25.1351 61.8464 25.6163 62.9261 25.5855C63.3586 25.5731 63.7891 25.4915 64.2204 25.4407C64.3914 25.4205 64.4633 25.337 64.4605 25.1513C64.4501 24.455 64.4563 23.7584 64.4563 23.0101Z" fill="#202020"/>
<path id="Vector_7" d="M88.9623 21.004C88.9623 20.0252 88.9613 19.0464 88.9628 18.0676C88.9634 17.6852 89.0358 17.614 89.4108 17.6096C89.9669 17.603 90.245 17.8777 90.245 18.4337C90.245 20.1662 90.2536 21.8988 90.2384 23.6312C90.235 24.0191 90.1863 24.416 90.0915 24.7919C89.8847 25.6118 89.3545 26.1831 88.5611 26.4541C87.3433 26.8702 86.1173 26.8809 84.9392 26.3075C84.1256 25.9116 83.6718 25.1965 83.6449 24.3228C83.5808 22.2337 83.5963 20.1422 83.5804 18.0517C83.5781 17.7561 83.6929 17.6022 84.0233 17.6043C84.9782 17.6103 84.8426 17.5981 84.8437 18.4231C84.8459 20.1782 84.866 21.9336 84.8377 23.6882C84.8137 25.1803 86.0112 25.7429 87.203 25.6043C87.433 25.5776 87.6687 25.5329 87.8826 25.4482C88.6207 25.1559 88.9622 24.6316 88.9623 23.839C88.9624 22.894 88.9623 21.949 88.9623 21.004Z" fill="#202020"/>
<path id="Vector_8" d="M93.3323 22.8088C93.3323 23.8834 93.3429 24.9163 93.3232 25.9487C93.3194 26.1458 93.2293 26.4847 93.1222 26.5091C92.8232 26.5774 92.493 26.5273 92.1789 26.491C92.1315 26.4856 92.0727 26.3046 92.0725 26.2047C92.0667 23.4946 92.0666 20.7844 92.0694 18.0742C92.0697 17.7328 92.1899 17.6368 92.6292 17.6301C93.1913 17.6215 93.755 17.6033 94.3156 17.6343C94.9374 17.6686 95.5706 17.6919 96.1731 17.8314C97.0072 18.0245 97.6002 18.5413 97.8352 19.4098C98.2586 20.9741 97.3071 22.5031 95.7164 22.7297C95.1034 22.817 94.4735 22.7871 93.8512 22.8081C93.6953 22.8134 93.5391 22.8088 93.3323 22.8088ZM93.3491 18.6279V21.712C93.6276 21.7395 93.8913 21.7839 94.1556 21.7881C94.7618 21.7978 95.3656 21.7653 95.9065 21.4443C96.5182 21.0813 96.6693 20.5026 96.5835 19.8518C96.5116 19.3074 96.1593 18.9259 95.6378 18.8391C94.8952 18.7155 94.1354 18.6952 93.3491 18.6279Z" fill="#202020"/>
<path id="Vector_9" d="M28.0009 11.1457C26.5078 11.1488 25.3543 10 25.353 8.50868C25.3518 7.03954 26.4906 5.90163 27.9167 5.85354C29.4392 5.80219 30.6514 7.08805 30.6393 8.45963C30.6258 9.98239 29.5005 11.1426 28.0009 11.1457Z" fill="#202020"/>
<path id="Vector_10" d="M55.3595 22.0751C55.3595 23.3783 55.3602 24.6817 55.3591 25.985C55.3586 26.5303 55.2816 26.64 54.7358 26.6868C54.3932 26.7162 54.0428 26.681 53.6981 26.65C53.4556 26.6282 53.3188 26.4736 53.3108 26.2212C53.3072 26.109 53.3009 25.9967 53.3009 25.8845C53.3003 23.3341 53.3001 20.7837 53.3006 18.2333C53.3007 17.601 53.4089 17.483 54.0304 17.4603C54.2761 17.4513 54.5234 17.456 54.7688 17.4725C55.2385 17.504 55.3581 17.6328 55.3588 18.0978C55.3608 19.4236 55.3595 20.7493 55.3595 22.0751Z" fill="#202020"/>
</g>
</g>
</svg>
