<svg width="24" height="16" viewBox="0 0 24 16" fill="none" xmlns="http://www.w3.org/2000/svg">
<path d="M1.5 16L22.5 16C23.33 16 24 15.33 24 14.5L24 1.5C24 0.67 23.33 -5.85733e-08 22.5 -1.31134e-07L1.5 -1.96701e-06C0.670001 -2.03957e-06 1.34019e-06 0.669998 1.26763e-06 1.5L1.31134e-07 14.5C5.85733e-08 15.33 0.67 16 1.5 16ZM22.5 15L1.5 15C1.22 15 1 14.78 1 14.5L1 4L23 4L23 14.5C23 14.78 22.78 15 22.5 15ZM1.5 0.999998L22.5 1C22.78 1 23 1.22 23 1.5L23 3L1 3L1 1.5C1 1.22 1.22 0.999998 1.5 0.999998Z" fill="#4F46E5"/>
</svg>
