<svg width="25" height="11" viewBox="0 0 25 11" fill="none" xmlns="http://www.w3.org/2000/svg">
<g id="ICON">
<path id="Vector" d="M24.0639 5.99184L19.5639 10.4918C19.4639 10.5918 19.3339 10.6418 19.2139 10.6418C19.0939 10.6418 18.9539 10.5918 18.8639 10.4918C18.6639 10.2918 18.6639 9.98183 18.8639 9.78183L22.5039 6.14184H0.713867C0.433867 6.14184 0.213867 5.92184 0.213867 5.64184C0.213867 5.36184 0.433867 5.14184 0.713867 5.14184H22.5039L18.8539 1.49184C18.6539 1.29184 18.6539 0.981836 18.8539 0.781836C19.0539 0.581836 19.3639 0.581836 19.5639 0.781836L24.0639 5.28184C24.1139 5.33184 24.1439 5.38184 24.1739 5.44184C24.2239 5.56184 24.2239 5.70184 24.1739 5.82184C24.1539 5.89184 24.1139 5.95184 24.0639 5.99184Z" fill="#005AB2"/>
</g>
</svg>
