<svg width="32" height="32" viewBox="0 0 32 32" fill="none" xmlns="http://www.w3.org/2000/svg">
<path d="M24.6312 14.733C24.4968 14.74 24.3696 14.6835 24.2776 14.5915C24.1857 14.4996 24.1291 14.3723 24.1362 14.238L24.1291 9.08317L8.72129 24.491C8.5233 24.689 8.21217 24.689 8.01418 24.491C7.81619 24.293 7.81619 23.9819 8.01418 23.7839L23.422 8.37607L18.2602 8.37607C17.9773 8.37607 17.7581 8.15686 17.7581 7.87402C17.7581 7.59118 17.9773 7.37197 18.2602 7.37197L24.6241 7.37197C24.6948 7.37197 24.7514 7.38612 24.815 7.40733C24.9352 7.45683 25.0342 7.55582 25.0837 7.67603C25.1049 7.73967 25.1262 7.80331 25.1191 7.86695L25.1191 14.2309C25.1332 14.5138 24.907 14.74 24.6312 14.733Z" fill="white"/>
</svg>
