<svg width="25" height="26" viewBox="0 0 25 26" fill="none" xmlns="http://www.w3.org/2000/svg">
<g id="ICON">
<path id="Vector" d="M20.6312 11.7328C20.4969 11.7399 20.3696 11.6833 20.2777 11.5914C20.1858 11.4995 20.1292 11.3722 20.1363 11.2378L20.1292 6.08304L4.72135 21.4909C4.52336 21.6889 4.21223 21.6889 4.01424 21.4909C3.81625 21.2929 3.81625 20.9818 4.01424 20.7838L19.4221 5.37593L14.2602 5.37593C13.9774 5.37593 13.7582 5.15673 13.7582 4.87388C13.7582 4.59104 13.9774 4.37184 14.2602 4.37184L20.6242 4.37184C20.6949 4.37184 20.7515 4.38598 20.8151 4.40719C20.9353 4.45669 21.0343 4.55568 21.0838 4.67589C21.105 4.73953 21.1262 4.80317 21.1192 4.86681L21.1192 11.2308C21.1333 11.5136 20.907 11.7399 20.6312 11.7328Z" fill="black"/>
</g>
</svg>
