<svg width="24" height="11" viewBox="0 0 24 11" fill="none" xmlns="http://www.w3.org/2000/svg">
<g id="ICON">
<path id="Vector" d="M23.85 5.84828L19.35 10.3483C19.25 10.4483 19.12 10.4983 19 10.4983C18.88 10.4983 18.74 10.4483 18.65 10.3483C18.45 10.1483 18.45 9.83828 18.65 9.63828L22.29 5.99828H0.5C0.22 5.99828 0 5.77828 0 5.49828C0 5.21828 0.22 4.99828 0.5 4.99828H22.29L18.64 1.34828C18.44 1.14828 18.44 0.838281 18.64 0.638281C18.84 0.438281 19.15 0.438281 19.35 0.638281L23.85 5.13828C23.9 5.18828 23.93 5.23828 23.96 5.29828C24.01 5.41828 24.01 5.55828 23.96 5.67828C23.94 5.74828 23.9 5.80828 23.85 5.84828Z" fill="white"/>
</g>
</svg>
