<svg width="18" height="11" viewBox="0 0 18 11" fill="none" xmlns="http://www.w3.org/2000/svg">
<g id="ICON">
<path id="Vector" d="M16.875 5.25L16.5 5.25L16.5 3.75C16.5 2.925 15.825 2.25 15 2.25L4.875 2.25C4.665 2.25 4.5 2.415 4.5 2.625L4.5 3.75L4.5 5.25L3 5.25L0.750001 5.25L0.75 0.375C0.75 0.165 0.585 -1.02285e-07 0.375 -6.55671e-08C0.165 -2.88495e-08 2.88495e-08 0.165 6.55671e-08 0.375L9.83506e-07 5.625L1.50804e-06 8.625L1.77031e-06 10.125C1.80703e-06 10.335 0.165002 10.5 0.375002 10.5C0.585002 10.5 0.750002 10.335 0.750002 10.125L0.750002 9L17.25 9L17.25 10.125C17.25 10.335 17.415 10.5 17.625 10.5C17.835 10.5 18 10.335 18 10.125L18 8.625L18 7.125L18 6.375C18 5.7525 17.4975 5.25 16.875 5.25ZM5.25 3L15 3C15.4125 3 15.75 3.3375 15.75 3.75L15.75 5.25L5.25 5.25L5.25 3ZM0.750001 8.25L0.750001 6L4.875 6L16.125 6L16.875 6C17.085 6 17.25 6.165 17.25 6.375L17.25 7.125L17.25 8.25L0.750001 8.25ZM4.5 3.75C4.5 2.925 3.825 2.25 3 2.25C2.175 2.25 1.5 2.925 1.5 3.75C1.5 4.575 2.175 5.25 3 5.25C3.825 5.25 4.5 4.575 4.5 3.75ZM3 4.5C2.5875 4.5 2.25 4.1625 2.25 3.75C2.25 3.3375 2.5875 3 3 3C3.4125 3 3.75 3.3375 3.75 3.75C3.75 4.1625 3.4125 4.5 3 4.5Z" fill="#4f46e5"/>
</g>
</svg>
