<svg width="36" height="21" viewBox="0 0 36 21" fill="none" xmlns="http://www.w3.org/2000/svg">
<g id="ICON">
<path id="Vector" d="M33.75 10.5H33V7.5C33 5.85 31.65 4.5 30 4.5H9.75C9.33 4.5 9 4.83 9 5.25V7.5V10.5H6H1.5V0.75C1.5 0.33 1.17 0 0.75 0C0.33 0 0 0.33 0 0.75V11.25V17.25V20.25C0 20.67 0.33 21 0.75 21C1.17 21 1.5 20.67 1.5 20.25V18H34.5V20.25C34.5 20.67 34.83 21 35.25 21C35.67 21 36 20.67 36 20.25V17.25V14.25V12.75C36 11.505 34.995 10.5 33.75 10.5ZM10.5 6H30C30.825 6 31.5 6.675 31.5 7.5V10.5H10.5V6ZM1.5 16.5V12H9.75H32.25H33.75C34.17 12 34.5 12.33 34.5 12.75V14.25V16.5H1.5ZM9 7.5C9 5.85 7.65 4.5 6 4.5C4.35 4.5 3 5.85 3 7.5C3 9.15 4.35 10.5 6 10.5C7.65 10.5 9 9.15 9 7.5ZM6 9C5.175 9 4.5 8.325 4.5 7.5C4.5 6.675 5.175 6 6 6C6.825 6 7.5 6.675 7.5 7.5C7.5 8.325 6.825 9 6 9Z" fill="white"/>
</g>
</svg>
