<svg width="38" height="36" viewBox="0 0 38 36" fill="none" xmlns="http://www.w3.org/2000/svg">
<g id="ICON">
<path id="Vector" d="M24.61 10.785C21.295 8.46 16.69 8.46 13.39 10.785C11.74 11.955 10.51 13.575 9.82 15.48C9.145 17.385 9.07 19.425 9.595 21.375C10.135 23.325 11.245 25.035 12.805 26.325C13.42 26.82 13.765 27.6 13.735 28.5V32.37C13.735 33.09 14.065 33.825 14.65 34.425C15.19 34.965 15.925 35.28 16.69 35.28H21.265C22.03 35.28 22.78 34.965 23.305 34.425C23.89 33.84 24.22 33.09 24.22 32.385V28.515C24.205 27.615 24.535 26.85 25.165 26.34C26.725 25.05 27.835 23.34 28.375 21.39C28.915 19.44 28.84 17.4 28.15 15.495C27.505 13.56 26.26 11.94 24.61 10.785ZM22.27 33.345C22.015 33.6 21.655 33.75 21.28 33.75H16.705C16.33 33.75 15.985 33.6 15.715 33.345C15.415 33.045 15.235 32.67 15.235 32.355V29.25H22.735V32.355C22.75 32.67 22.57 33.045 22.27 33.345ZM26.95 20.97C26.5 22.62 25.555 24.075 24.235 25.155C23.455 25.8 22.96 26.73 22.81 27.765H15.175C15.025 26.73 14.53 25.8 13.75 25.17C12.43 24.075 11.485 22.635 11.035 20.985C10.585 19.335 10.645 17.61 11.215 16.005C11.785 14.4 12.835 13.02 14.23 12.03C15.625 11.04 17.275 10.53 18.985 10.53C20.695 10.53 22.33 11.055 23.74 12.03C25.135 13.02 26.185 14.385 26.755 16.005C27.34 17.595 27.4 19.32 26.95 20.97ZM18.25 5.25V0.75C18.25 0.33 18.58 0 19 0C19.42 0 19.75 0.33 19.75 0.75V5.25C19.75 5.67 19.42 6 19 6C18.58 6 18.25 5.67 18.25 5.25ZM6.25 17.25C6.25 17.67 5.92 18 5.5 18H1C0.58 18 0.25 17.67 0.25 17.25C0.25 16.83 0.58 16.5 1 16.5H5.5C5.92 16.5 6.25 16.83 6.25 17.25ZM37.75 17.25C37.75 17.67 37.42 18 37 18H32.5C32.08 18 31.75 17.67 31.75 17.25C31.75 16.83 32.08 16.5 32.5 16.5H37C37.42 16.5 37.75 16.83 37.75 17.25ZM31.525 5.775L28.345 8.955C28.195 9.105 28 9.18 27.82 9.18C27.64 9.18 27.43 9.105 27.295 8.955C26.995 8.655 26.995 8.19 27.295 7.89L30.475 4.71C30.775 4.41 31.24 4.41 31.54 4.71C31.84 5.01 31.825 5.49 31.525 5.775ZM9.655 8.955L6.475 5.775C6.175 5.475 6.175 5.01 6.475 4.71C6.775 4.41 7.24 4.41 7.54 4.71L10.72 7.89C11.02 8.19 11.02 8.655 10.72 8.955C10.57 9.105 10.375 9.18 10.195 9.18C10.015 9.18 9.805 9.105 9.655 8.955Z" fill="#202020"/>
</g>
</svg>
