<svg width="32" height="32" viewBox="0 0 32 32" fill="none" xmlns="http://www.w3.org/2000/svg">
<path d="M24.9331 19.7578L21.1311 20.4591C20.7886 20.5365 20.549 20.8358 20.549 21.1871V21.617C20.549 22.0279 20.8837 22.3627 21.2947 22.3627H25.0866C25.4975 22.3627 25.8323 22.0279 25.8323 21.617V20.487C25.8323 20.2587 25.7309 20.0469 25.5521 19.9049C25.3745 19.7629 25.1449 19.7096 24.9331 19.7578ZM25.2476 21.617C25.2476 21.7057 25.1753 21.778 25.0866 21.778H21.2946C21.2058 21.778 21.1335 21.7057 21.1335 21.617V21.1871C21.1335 21.111 21.1855 21.0463 21.2489 21.0311L25.0523 20.3298C25.065 20.3272 25.0776 20.3259 25.0891 20.3259C25.136 20.3259 25.1702 20.3462 25.188 20.3615C25.2108 20.3792 25.2488 20.4198 25.2488 20.487V21.617L25.2476 21.617Z" fill="black"/>
<mask id="path-2-outside-1_7081_40006" maskUnits="userSpaceOnUse" x="2" y="8.85318" width="28" height="20" fill="black">
<rect fill="white" x="2" y="8.85318" width="28" height="20"/>
<path d="M28.5137 15.7743C28.3856 15.6095 28.1852 15.5118 27.9785 15.5118H26.0039L24.5734 11.6033C24.1904 10.5557 23.1835 9.85318 22.07 9.85318L9.87527 9.85445C8.76053 9.85445 7.75357 10.5583 7.37061 11.6058L5.94137 15.5131H4.02515C3.81717 15.5131 3.6168 15.6107 3.48998 15.7743L3.14377 16.2207C2.9992 16.4059 2.96115 16.6481 3.04105 16.8687C3.12094 17.0894 3.3061 17.2505 3.53563 17.2999L5.15891 17.6499L5.03336 17.9924C5.02956 18.0038 5.02575 18.0152 5.02321 18.0266C4.94459 18.3639 4.75943 18.6899 4.4576 19.0247C4.22425 19.2834 4.09489 19.6194 4.09489 19.9707V27.6813C4.09489 27.8424 4.22551 27.973 4.38658 27.973H6.83163C6.95338 27.973 7.06244 27.8969 7.10556 27.7828L7.57099 26.5285C8.92416 26.7923 11.9246 27.2704 15.8384 27.2704C18.3633 27.2704 21.2689 27.0675 24.3541 26.4829L24.8348 27.7828C24.8779 27.8969 24.987 27.973 25.1087 27.973H27.5538C27.7148 27.973 27.8454 27.8424 27.8454 27.6813V19.9707C27.8454 19.6207 27.7161 19.2846 27.4827 19.0247C27.1809 18.6886 26.9957 18.3614 26.9158 18.0228C26.9133 18.0114 26.9095 18 26.9057 17.9886L26.7865 17.6626L28.4643 17.3012C28.6939 17.2517 28.879 17.0907 28.9589 16.87C29.0388 16.6493 29.0008 16.4071 28.8574 16.222L28.5112 15.7768L28.5137 15.7743ZM3.65955 16.728C3.61517 16.7179 3.59868 16.6862 3.59107 16.6684C3.58473 16.6507 3.57712 16.6139 3.60502 16.5796L3.95123 16.1332C3.96899 16.1104 3.99562 16.0977 4.02479 16.0977H5.7267L5.36146 17.0958L3.65828 16.728L3.65955 16.728ZM12.1753 26.5424L13.3649 25.0789C13.4587 24.9635 13.5982 24.8963 13.7479 24.8963H18.0431C18.1927 24.8963 18.3322 24.9622 18.4261 25.0789L19.6068 26.5323C16.7723 26.7618 14.2288 26.7022 12.1753 26.5424ZM27.0511 19.4152C27.188 19.5674 27.2641 19.7639 27.2641 19.9694V27.3871H25.3149L24.8191 26.0479C24.8153 26.0365 24.8064 26.0276 24.8 26.0175C24.7912 26.001 24.7823 25.9845 24.7709 25.9706C24.7582 25.9554 24.7442 25.9414 24.729 25.93C24.7151 25.9186 24.7024 25.9084 24.6872 25.8996C24.6707 25.8894 24.6529 25.8831 24.6352 25.878C24.6174 25.8716 24.6009 25.8678 24.5819 25.8653C24.5629 25.8628 24.5439 25.864 24.5248 25.8653C24.5134 25.8666 24.502 25.8628 24.4893 25.8653C23.0487 26.1468 21.6486 26.3422 20.3068 26.4715C20.3043 26.4677 20.3043 26.4639 20.3004 26.4601L18.8801 24.7113C18.6746 24.4576 18.369 24.313 18.0431 24.313H13.7479C13.4207 24.313 13.1163 24.4589 12.9109 24.7113L11.4905 26.4601C11.4842 26.4677 11.4829 26.4766 11.4778 26.4842C9.57046 26.3066 8.16145 26.053 7.44493 25.9059C7.43225 25.9034 7.41957 25.9072 7.40688 25.9059C7.38786 25.9046 7.37137 25.9034 7.35235 25.9059C7.33206 25.9084 7.31304 25.9135 7.29401 25.9199C7.27753 25.9249 7.26231 25.9313 7.24709 25.9389C7.22934 25.9478 7.21539 25.9592 7.20017 25.9719C7.18622 25.9833 7.17354 25.996 7.16085 26.0099C7.14817 26.0251 7.1393 26.0416 7.13042 26.0594C7.12535 26.0708 7.1152 26.0784 7.1114 26.0898L6.62948 27.3872H4.679V19.9694C4.679 19.764 4.75383 19.5674 4.89079 19.4152C5.25603 19.0107 5.48429 18.6061 5.58828 18.1762L7.91922 11.8048C8.21851 10.9868 9.00351 10.4377 9.87476 10.4377H22.0685C22.9385 10.4377 23.7248 10.9868 24.0241 11.8048L26.3537 18.1723C26.4577 18.6022 26.686 19.0093 27.05 19.4151L27.0511 19.4152ZM28.4118 16.6683C28.4055 16.6861 28.3877 16.719 28.3434 16.7279L26.5856 17.1071L26.2166 16.0976H27.9768C28.006 16.0976 28.0339 16.1116 28.0504 16.1344L28.3979 16.5808C28.4258 16.6163 28.4182 16.6518 28.4118 16.6696L28.4118 16.6683Z"/>
</mask>
<path d="M28.5137 15.7743C28.3856 15.6095 28.1852 15.5118 27.9785 15.5118H26.0039L24.5734 11.6033C24.1904 10.5557 23.1835 9.85318 22.07 9.85318L9.87527 9.85445C8.76053 9.85445 7.75357 10.5583 7.37061 11.6058L5.94137 15.5131H4.02515C3.81717 15.5131 3.6168 15.6107 3.48998 15.7743L3.14377 16.2207C2.9992 16.4059 2.96115 16.6481 3.04105 16.8687C3.12094 17.0894 3.3061 17.2505 3.53563 17.2999L5.15891 17.6499L5.03336 17.9924C5.02956 18.0038 5.02575 18.0152 5.02321 18.0266C4.94459 18.3639 4.75943 18.6899 4.4576 19.0247C4.22425 19.2834 4.09489 19.6194 4.09489 19.9707V27.6813C4.09489 27.8424 4.22551 27.973 4.38658 27.973H6.83163C6.95338 27.973 7.06244 27.8969 7.10556 27.7828L7.57099 26.5285C8.92416 26.7923 11.9246 27.2704 15.8384 27.2704C18.3633 27.2704 21.2689 27.0675 24.3541 26.4829L24.8348 27.7828C24.8779 27.8969 24.987 27.973 25.1087 27.973H27.5538C27.7148 27.973 27.8454 27.8424 27.8454 27.6813V19.9707C27.8454 19.6207 27.7161 19.2846 27.4827 19.0247C27.1809 18.6886 26.9957 18.3614 26.9158 18.0228C26.9133 18.0114 26.9095 18 26.9057 17.9886L26.7865 17.6626L28.4643 17.3012C28.6939 17.2517 28.879 17.0907 28.9589 16.87C29.0388 16.6493 29.0008 16.4071 28.8574 16.222L28.5112 15.7768L28.5137 15.7743ZM3.65955 16.728C3.61517 16.7179 3.59868 16.6862 3.59107 16.6684C3.58473 16.6507 3.57712 16.6139 3.60502 16.5796L3.95123 16.1332C3.96899 16.1104 3.99562 16.0977 4.02479 16.0977H5.7267L5.36146 17.0958L3.65828 16.728L3.65955 16.728ZM12.1753 26.5424L13.3649 25.0789C13.4587 24.9635 13.5982 24.8963 13.7479 24.8963H18.0431C18.1927 24.8963 18.3322 24.9622 18.4261 25.0789L19.6068 26.5323C16.7723 26.7618 14.2288 26.7022 12.1753 26.5424ZM27.0511 19.4152C27.188 19.5674 27.2641 19.7639 27.2641 19.9694V27.3871H25.3149L24.8191 26.0479C24.8153 26.0365 24.8064 26.0276 24.8 26.0175C24.7912 26.001 24.7823 25.9845 24.7709 25.9706C24.7582 25.9554 24.7442 25.9414 24.729 25.93C24.7151 25.9186 24.7024 25.9084 24.6872 25.8996C24.6707 25.8894 24.6529 25.8831 24.6352 25.878C24.6174 25.8716 24.6009 25.8678 24.5819 25.8653C24.5629 25.8628 24.5439 25.864 24.5248 25.8653C24.5134 25.8666 24.502 25.8628 24.4893 25.8653C23.0487 26.1468 21.6486 26.3422 20.3068 26.4715C20.3043 26.4677 20.3043 26.4639 20.3004 26.4601L18.8801 24.7113C18.6746 24.4576 18.369 24.313 18.0431 24.313H13.7479C13.4207 24.313 13.1163 24.4589 12.9109 24.7113L11.4905 26.4601C11.4842 26.4677 11.4829 26.4766 11.4778 26.4842C9.57046 26.3066 8.16145 26.053 7.44493 25.9059C7.43225 25.9034 7.41957 25.9072 7.40688 25.9059C7.38786 25.9046 7.37137 25.9034 7.35235 25.9059C7.33206 25.9084 7.31304 25.9135 7.29401 25.9199C7.27753 25.9249 7.26231 25.9313 7.24709 25.9389C7.22934 25.9478 7.21539 25.9592 7.20017 25.9719C7.18622 25.9833 7.17354 25.996 7.16085 26.0099C7.14817 26.0251 7.1393 26.0416 7.13042 26.0594C7.12535 26.0708 7.1152 26.0784 7.1114 26.0898L6.62948 27.3872H4.679V19.9694C4.679 19.764 4.75383 19.5674 4.89079 19.4152C5.25603 19.0107 5.48429 18.6061 5.58828 18.1762L7.91922 11.8048C8.21851 10.9868 9.00351 10.4377 9.87476 10.4377H22.0685C22.9385 10.4377 23.7248 10.9868 24.0241 11.8048L26.3537 18.1723C26.4577 18.6022 26.686 19.0093 27.05 19.4151L27.0511 19.4152ZM28.4118 16.6683C28.4055 16.6861 28.3877 16.719 28.3434 16.7279L26.5856 17.1071L26.2166 16.0976H27.9768C28.006 16.0976 28.0339 16.1116 28.0504 16.1344L28.3979 16.5808C28.4258 16.6163 28.4182 16.6518 28.4118 16.6696L28.4118 16.6683Z" fill="black"/>
<path d="M28.5137 15.7743C28.3856 15.6095 28.1852 15.5118 27.9785 15.5118H26.0039L24.5734 11.6033C24.1904 10.5557 23.1835 9.85318 22.07 9.85318L9.87527 9.85445C8.76053 9.85445 7.75357 10.5583 7.37061 11.6058L5.94137 15.5131H4.02515C3.81717 15.5131 3.6168 15.6107 3.48998 15.7743L3.14377 16.2207C2.9992 16.4059 2.96115 16.6481 3.04105 16.8687C3.12094 17.0894 3.3061 17.2505 3.53563 17.2999L5.15891 17.6499L5.03336 17.9924C5.02956 18.0038 5.02575 18.0152 5.02321 18.0266C4.94459 18.3639 4.75943 18.6899 4.4576 19.0247C4.22425 19.2834 4.09489 19.6194 4.09489 19.9707V27.6813C4.09489 27.8424 4.22551 27.973 4.38658 27.973H6.83163C6.95338 27.973 7.06244 27.8969 7.10556 27.7828L7.57099 26.5285C8.92416 26.7923 11.9246 27.2704 15.8384 27.2704C18.3633 27.2704 21.2689 27.0675 24.3541 26.4829L24.8348 27.7828C24.8779 27.8969 24.987 27.973 25.1087 27.973H27.5538C27.7148 27.973 27.8454 27.8424 27.8454 27.6813V19.9707C27.8454 19.6207 27.7161 19.2846 27.4827 19.0247C27.1809 18.6886 26.9957 18.3614 26.9158 18.0228C26.9133 18.0114 26.9095 18 26.9057 17.9886L26.7865 17.6626L28.4643 17.3012C28.6939 17.2517 28.879 17.0907 28.9589 16.87C29.0388 16.6493 29.0008 16.4071 28.8574 16.222L28.5112 15.7768L28.5137 15.7743ZM3.65955 16.728C3.61517 16.7179 3.59868 16.6862 3.59107 16.6684C3.58473 16.6507 3.57712 16.6139 3.60502 16.5796L3.95123 16.1332C3.96899 16.1104 3.99562 16.0977 4.02479 16.0977H5.7267L5.36146 17.0958L3.65828 16.728L3.65955 16.728ZM12.1753 26.5424L13.3649 25.0789C13.4587 24.9635 13.5982 24.8963 13.7479 24.8963H18.0431C18.1927 24.8963 18.3322 24.9622 18.4261 25.0789L19.6068 26.5323C16.7723 26.7618 14.2288 26.7022 12.1753 26.5424ZM27.0511 19.4152C27.188 19.5674 27.2641 19.7639 27.2641 19.9694V27.3871H25.3149L24.8191 26.0479C24.8153 26.0365 24.8064 26.0276 24.8 26.0175C24.7912 26.001 24.7823 25.9845 24.7709 25.9706C24.7582 25.9554 24.7442 25.9414 24.729 25.93C24.7151 25.9186 24.7024 25.9084 24.6872 25.8996C24.6707 25.8894 24.6529 25.8831 24.6352 25.878C24.6174 25.8716 24.6009 25.8678 24.5819 25.8653C24.5629 25.8628 24.5439 25.864 24.5248 25.8653C24.5134 25.8666 24.502 25.8628 24.4893 25.8653C23.0487 26.1468 21.6486 26.3422 20.3068 26.4715C20.3043 26.4677 20.3043 26.4639 20.3004 26.4601L18.8801 24.7113C18.6746 24.4576 18.369 24.313 18.0431 24.313H13.7479C13.4207 24.313 13.1163 24.4589 12.9109 24.7113L11.4905 26.4601C11.4842 26.4677 11.4829 26.4766 11.4778 26.4842C9.57046 26.3066 8.16145 26.053 7.44493 25.9059C7.43225 25.9034 7.41957 25.9072 7.40688 25.9059C7.38786 25.9046 7.37137 25.9034 7.35235 25.9059C7.33206 25.9084 7.31304 25.9135 7.29401 25.9199C7.27753 25.9249 7.26231 25.9313 7.24709 25.9389C7.22934 25.9478 7.21539 25.9592 7.20017 25.9719C7.18622 25.9833 7.17354 25.996 7.16085 26.0099C7.14817 26.0251 7.1393 26.0416 7.13042 26.0594C7.12535 26.0708 7.1152 26.0784 7.1114 26.0898L6.62948 27.3872H4.679V19.9694C4.679 19.764 4.75383 19.5674 4.89079 19.4152C5.25603 19.0107 5.48429 18.6061 5.58828 18.1762L7.91922 11.8048C8.21851 10.9868 9.00351 10.4377 9.87476 10.4377H22.0685C22.9385 10.4377 23.7248 10.9868 24.0241 11.8048L26.3537 18.1723C26.4577 18.6022 26.686 19.0093 27.05 19.4151L27.0511 19.4152ZM28.4118 16.6683C28.4055 16.6861 28.3877 16.719 28.3434 16.7279L26.5856 17.1071L26.2166 16.0976H27.9768C28.006 16.0976 28.0339 16.1116 28.0504 16.1344L28.3979 16.5808C28.4258 16.6163 28.4182 16.6518 28.4118 16.6696L28.4118 16.6683Z" stroke="black" stroke-width="0.2" mask="url(#path-2-outside-1_7081_40006)"/>
<path d="M6 16.8532L26 16.8532" stroke="black" stroke-width="0.7"/>
<path d="M10.9363 20.4953L7.15563 19.7978C6.93243 19.7471 6.7029 19.8003 6.52661 19.9424C6.34779 20.0844 6.24634 20.2975 6.24634 20.5245V21.6544C6.24634 22.0653 6.58112 22.4001 6.99204 22.4001H10.784C11.1949 22.4001 11.5297 22.0653 11.5297 21.6544V21.2245C11.5297 20.8732 11.29 20.5739 10.9362 20.494L10.9363 20.4953ZM10.9451 21.6557C10.9451 21.7444 10.8728 21.8167 10.7841 21.8167H6.99209C6.90331 21.8167 6.83103 21.7444 6.83103 21.6557V20.5257C6.83103 20.4585 6.86907 20.4179 6.8919 20.4001C6.90965 20.3862 6.94263 20.3659 6.99335 20.3659C7.0073 20.3659 7.02379 20.3672 7.04028 20.371L10.8209 21.0685C10.8945 21.085 10.9465 21.1496 10.9465 21.2257V21.6556L10.9451 21.6557Z" fill="black"/>
<path d="M28.5137 15.8117C28.3856 15.6468 28.1852 15.5492 27.9785 15.5492H26.0039L24.5734 11.6407C24.1904 10.5931 23.1835 9.89056 22.07 9.89056L9.87527 9.89183C8.76053 9.89183 7.75357 10.5957 7.37061 11.6432L5.94137 15.5504H4.02515C3.81717 15.5504 3.6168 15.6481 3.48998 15.8117L3.14377 16.2581C2.9992 16.4432 2.96115 16.6855 3.04105 16.9061C3.12094 17.1268 3.3061 17.2879 3.53563 17.3373L5.15891 17.6873L5.03336 18.0297C5.02956 18.0412 5.02575 18.0526 5.02321 18.064C4.94459 18.4013 4.75943 18.7273 4.4576 19.062C4.22425 19.3208 4.09489 19.6568 4.09489 20.0081V27.7187C4.09489 27.8798 4.22551 28.0104 4.38658 28.0104H6.83163C6.95338 28.0104 7.06244 27.9343 7.10556 27.8202L7.57099 26.5659C8.92416 26.8297 11.9246 27.3078 15.8384 27.3078C18.3633 27.3078 21.2689 27.1049 24.3541 26.5203L24.8348 27.8202C24.8779 27.9343 24.987 28.0104 25.1087 28.0104H27.5538C27.7148 28.0104 27.8454 27.8798 27.8454 27.7187V20.0081C27.8454 19.6581 27.7161 19.322 27.4827 19.062C27.1809 18.726 26.9957 18.3988 26.9158 18.0602C26.9133 18.0488 26.9095 18.0374 26.9057 18.0259L26.7865 17.7L28.4643 17.3386C28.6939 17.2891 28.879 17.1281 28.9589 16.9074C29.0388 16.6867 29.0008 16.4445 28.8574 16.2594L28.5112 15.8142L28.5137 15.8117ZM3.65955 16.7654C3.61517 16.7552 3.59868 16.7235 3.59107 16.7058C3.58473 16.688 3.57712 16.6513 3.60502 16.617L3.95123 16.1706C3.96899 16.1478 3.99562 16.1351 4.02479 16.1351H5.7267L5.36146 17.1332L3.65828 16.7654L3.65955 16.7654ZM12.1753 26.5798L13.3649 25.1163C13.4587 25.0009 13.5982 24.9337 13.7479 24.9337H18.0431C18.1927 24.9337 18.3322 24.9996 18.4261 25.1163L19.6068 26.5696C16.7723 26.7992 14.2288 26.7396 12.1753 26.5798ZM27.0511 19.4526C27.188 19.6048 27.2641 19.8013 27.2641 20.0068V27.4245H25.3149L24.8191 26.0853C24.8153 26.0739 24.8064 26.065 24.8 26.0549C24.7912 26.0384 24.7823 26.0219 24.7709 26.008C24.7582 25.9927 24.7442 25.9788 24.729 25.9674C24.7151 25.956 24.7024 25.9458 24.6872 25.9369C24.6707 25.9268 24.6529 25.9204 24.6352 25.9154C24.6174 25.909 24.6009 25.9052 24.5819 25.9027C24.5629 25.9002 24.5439 25.9014 24.5248 25.9027C24.5134 25.904 24.502 25.9002 24.4893 25.9027C23.0487 26.1842 21.6486 26.3795 20.3068 26.5089C20.3043 26.5051 20.3043 26.5013 20.3004 26.4975L18.8801 24.7486C18.6746 24.495 18.369 24.3504 18.0431 24.3504H13.7479C13.4207 24.3504 13.1163 24.4963 12.9109 24.7486L11.4905 26.4975C11.4842 26.5051 11.4829 26.514 11.4778 26.5216C9.57046 26.344 8.16145 26.0904 7.44493 25.9433C7.43225 25.9408 7.41957 25.9446 7.40688 25.9433C7.38786 25.942 7.37137 25.9408 7.35235 25.9433C7.33206 25.9458 7.31304 25.9509 7.29401 25.9572C7.27753 25.9623 7.26231 25.9687 7.24709 25.9763C7.22934 25.9851 7.21539 25.9966 7.20017 26.0092C7.18622 26.0207 7.17354 26.0333 7.16085 26.0473C7.14817 26.0625 7.1393 26.079 7.13042 26.0967C7.12535 26.1082 7.1152 26.1158 7.1114 26.1272L6.62948 27.4245H4.679V20.0068C4.679 19.8013 4.75383 19.6048 4.89079 19.4526C5.25603 19.048 5.48429 18.6435 5.58828 18.2136L7.91922 11.8422C8.21851 11.0242 9.00351 10.4751 9.87476 10.4751H22.0685C22.9385 10.4751 23.7248 11.0242 24.0241 11.8422L26.3537 18.2097C26.4577 18.6396 26.686 19.0467 27.05 19.4525L27.0511 19.4526ZM28.4118 16.7057C28.4055 16.7234 28.3877 16.7564 28.3434 16.7653L26.5856 17.1445L26.2166 16.135H27.9768C28.006 16.135 28.0339 16.149 28.0504 16.1718L28.3979 16.6182C28.4258 16.6537 28.4182 16.6892 28.4118 16.707L28.4118 16.7057Z" fill="black"/>
<path d="M6 16.8906L26 16.8906" stroke="black" stroke-width="0.5"/>
</svg>
