<svg width="25" height="11" viewBox="0 0 25 11" fill="none" xmlns="http://www.w3.org/2000/svg">
<g id="ICON">
<path id="Vector" d="M24.35 5.39833L19.85 9.89833C19.75 9.99833 19.62 10.0483 19.5 10.0483C19.38 10.0483 19.24 9.99833 19.15 9.89833C18.95 9.69833 18.95 9.38833 19.15 9.18833L22.79 5.54833H1C0.72 5.54833 0.5 5.32833 0.5 5.04833C0.5 4.76833 0.72 4.54833 1 4.54833H22.79L19.14 0.89833C18.94 0.69833 18.94 0.38833 19.14 0.18833C19.34 -0.0116699 19.65 -0.0116699 19.85 0.18833L24.35 4.68833C24.4 4.73833 24.43 4.78833 24.46 4.84833C24.51 4.96833 24.51 5.10833 24.46 5.22833C24.44 5.29833 24.4 5.35833 24.35 5.39833Z" fill="black"/>
</g>
</svg>
