<svg width="24" height="24" viewBox="0 0 24 24" fill="none" xmlns="http://www.w3.org/2000/svg">
<g id="Icons">
<g id="ICON">
<path id="Vector" d="M4.125 14.25L5.25 14.25L5.25 15.375C5.25 15.9975 5.7525 16.5 6.375 16.5L7.5 16.5L7.5 17.625C7.5 18.2475 8.0025 18.75 8.625 18.75L19.125 18.75C19.7475 18.75 20.25 18.2475 20.25 17.625L20.25 11.625C20.25 11.0025 19.7475 10.5 19.125 10.5L18 10.5L18 9.375C18 8.7525 17.4975 8.25 16.875 8.25L15.75 8.25L15.75 7.125C15.75 6.5025 15.2475 6 14.625 6L4.125 6C3.5025 6 3 6.5025 3 7.125L3 13.125C3 13.7475 3.5025 14.25 4.125 14.25ZM3.75 13.125L3.75 8.25L15 8.25L15 13.125C15 13.335 14.835 13.5 14.625 13.5L4.125 13.5C3.915 13.5 3.75 13.335 3.75 13.125ZM6 15.375L6 14.25L14.625 14.25C15.2475 14.25 15.75 13.7475 15.75 13.125L15.75 10.5L17.25 10.5L17.25 15.375C17.25 15.585 17.085 15.75 16.875 15.75L6.375 15.75C6.165 15.75 6 15.585 6 15.375ZM19.5 17.625C19.5 17.835 19.335 18 19.125 18L8.625 18C8.415 18 8.25 17.835 8.25 17.625L8.25 16.5L16.875 16.5C17.4975 16.5 18 15.9975 18 15.375L18 12.75L19.5 12.75L19.5 17.625ZM19.125 11.25C19.335 11.25 19.5 11.415 19.5 11.625L19.5 12L18 12L18 11.25L19.125 11.25ZM16.875 9C17.085 9 17.25 9.165 17.25 9.375L17.25 9.75L15.75 9.75L15.75 9L16.875 9ZM4.125 6.75L14.625 6.75C14.835 6.75 15 6.915 15 7.125L15 7.5L3.75 7.5L3.75 7.125C3.75 6.915 3.915 6.75 4.125 6.75Z" fill="#4f46e5"/>
</g>
</g>
</svg>
