<svg width="25" height="11" viewBox="0 0 25 11" fill="none" xmlns="http://www.w3.org/2000/svg">
<g id="ICON">
<path id="Vector" d="M24.35 5.84828L19.85 10.3483C19.75 10.4483 19.62 10.4983 19.5 10.4983C19.38 10.4983 19.24 10.4483 19.15 10.3483C18.95 10.1483 18.95 9.83828 19.15 9.63828L22.79 5.99828H1C0.72 5.99828 0.5 5.77828 0.5 5.49828C0.5 5.21828 0.72 4.99828 1 4.99828H22.79L19.14 1.34828C18.94 1.14828 18.94 0.838281 19.14 0.638281C19.34 0.438281 19.65 0.438281 19.85 0.638281L24.35 5.13828C24.4 5.18828 24.43 5.23828 24.46 5.29828C24.51 5.41828 24.51 5.55828 24.46 5.67828C24.44 5.74828 24.4 5.80828 24.35 5.84828Z" fill="white"/>
</g>
</svg>
