<svg width="24" height="24" viewBox="0 0 24 24" fill="none" xmlns="http://www.w3.org/2000/svg">
<g id="Icons">
<g id="ICON">
<path id="Vector" d="M19.3875 18.8612C19.5375 19.0112 19.5375 19.2437 19.3875 19.3937C19.3125 19.4687 19.215 19.5062 19.125 19.5062C19.035 19.5062 18.93 19.4687 18.8625 19.3937L12 12.5312L5.1375 19.3937C5.07 19.4612 4.9725 19.4987 4.875 19.4987C4.7775 19.4987 4.68 19.4612 4.6125 19.3862C4.4625 19.2362 4.4625 19.0037 4.6125 18.8537L11.4675 11.9987L4.6125 5.13621C4.4625 4.98621 4.4625 4.75371 4.6125 4.60371C4.7625 4.45371 4.995 4.45371 5.145 4.60371L12 11.4662L18.8625 4.60371C19.0125 4.45371 19.245 4.45371 19.395 4.60371C19.545 4.75371 19.545 4.98621 19.395 5.13621L12.5325 11.9987L19.3875 18.8612Z" fill="#FFF"/>
</g>
</g>
</svg>
