<svg width="18" height="18" viewBox="0 0 18 18" fill="none" xmlns="http://www.w3.org/2000/svg">
<g id="ICON">
<path id="Vector" d="M16.125 -2.81938e-06L7.875 -1.37691e-06C7.2525 -1.26807e-06 6.75 0.502499 6.75 1.125L6.75 4.5L5.8425 4.5L6.1425 4.2225C6.1575 4.215 6.1575 4.2 6.165 4.185C6.1725 4.1775 6.1875 4.1775 6.195 4.1625C6.63 3.7275 6.63 3.0075 6.195 2.5725C5.7975 2.175 5.1375 2.1675 4.71 2.505C4.665 2.52 4.6125 2.55 4.575 2.5875L0.855001 6.105C0.315001 6.6675 1.30085e-06 7.44 1.44248e-06 8.25C1.73228e-06 9.9075 1.3425 11.25 3 11.25L6.75 11.25L6.75 13.125C6.75 13.7475 7.2525 14.25 7.875 14.25L9 14.25L9 17.625C9 17.835 9.165 18 9.375 18L14.625 18C14.835 18 15 17.835 15 17.625L15 14.25L16.125 14.25C16.7475 14.25 17.25 13.7475 17.25 13.125L17.25 1.125C17.25 0.502497 16.7475 -2.92823e-06 16.125 -2.81938e-06ZM0.750001 8.25C0.750001 7.6425 0.982501 7.05 1.38 6.645L5.0775 3.1425C5.0925 3.1275 5.115 3.12 5.13 3.105C5.2725 2.9625 5.52 2.9625 5.6625 3.105C5.805 3.2475 5.805 3.4875 5.6625 3.6375C5.655 3.645 5.655 3.6525 5.6475 3.66C5.64 3.6675 5.64 3.6675 5.6325 3.6675L4.6125 4.5975C4.6125 4.5975 4.6125 4.605 4.605 4.605C4.5825 4.6275 4.5675 4.65 4.5525 4.68C4.545 4.695 4.53 4.71 4.5225 4.725C4.515 4.74 4.515 4.7625 4.5075 4.785C4.515 4.8075 4.5 4.8375 4.5 4.8675L4.5 4.875C4.5 4.8975 4.5075 4.9125 4.5075 4.9275C4.515 4.9575 4.515 4.98 4.5225 5.01C4.53 5.04 4.5525 5.0625 4.5675 5.085C4.575 5.1 4.5825 5.115 4.5975 5.13C4.5975 5.13 4.605 5.13 4.605 5.1375C4.635 5.1675 4.6725 5.1975 4.71 5.2125C4.7175 5.2125 4.7175 5.22 4.725 5.22C4.77 5.2425 4.8225 5.25 4.875 5.25L7.1175 5.25C7.125 5.25 7.125 5.25 7.125 5.25L7.1325 5.25L8.61 5.25C8.6175 5.25 8.6175 5.25 8.6175 5.25L8.625 5.25L10.86 5.25C11.07 5.25 11.235 5.415 11.235 5.625C11.235 5.835 11.0775 6 10.875 6C10.8675 6 10.86 6 10.86 6C10.8525 6 10.845 6 10.845 6L8.6925 6C8.67 6 8.655 5.9925 8.6325 5.9925C8.625 5.9925 8.61 6 8.6025 6L7.875 6C7.665 6 7.5 6.165 7.5 6.375C7.5 6.585 7.665 6.75 7.875 6.75L8.655 6.75C8.85 6.765 9 6.9225 9 7.1175C9 7.3275 8.835 7.4925 8.625 7.4925C8.61 7.4925 8.595 7.5 8.58 7.5C8.5725 7.5 8.5725 7.5 8.565 7.5L7.125 7.5C6.915 7.5 6.75 7.665 6.75 7.875C6.75 8.085 6.915 8.25 7.125 8.25L7.875 8.25C8.085 8.25 8.25 8.415 8.25 8.625C8.25 8.835 8.0775 9 7.875 9C7.8675 9 7.8525 9.0075 7.845 9.0075C7.8375 9.0075 7.8225 9 7.815 9L6.375 9C6.165 9 6 9.165 6 9.375C6 9.585 6.165 9.75 6.375 9.75L7.125 9.75C7.335 9.75 7.5 9.915 7.5 10.125C7.5 10.32 7.35 10.47 7.1625 10.4925C7.1475 10.4925 7.14 10.485 7.125 10.485C7.1025 10.485 7.08 10.4925 7.05 10.5L3 10.5C1.7625 10.5 0.750002 9.4875 0.750001 8.25ZM8.9775 8.445C8.9625 8.3625 8.94 8.28 8.91 8.205C9.39 8.0775 9.7425 7.6425 9.7425 7.125C9.7425 6.9975 9.7125 6.87 9.675 6.7575L10.83 6.7575C10.8375 6.7575 10.845 6.7575 10.845 6.7575C10.8525 6.7575 10.86 6.7575 10.86 6.7575C11.4825 6.7575 11.985 6.255 11.985 5.6325C11.985 5.01 11.4825 4.5075 10.86 4.5075L9 4.5075L9 2.625C9 2.415 9.165 2.25 9.375 2.25L14.625 2.25C14.835 2.25 15 2.415 15 2.625L15 11.625C15 11.835 14.835 12 14.625 12L9.375 12C9.165 12 9 11.835 9 11.625L9 8.535C9 8.505 8.9925 8.475 8.9775 8.445ZM8.205 9.84C8.205 9.8325 8.1975 9.825 8.1975 9.8175C8.1975 9.78 8.2275 9.75 8.235 9.75C8.235 9.75 8.2425 9.7575 8.25 9.7575L8.25 9.87C8.2275 9.885 8.22 9.8775 8.205 9.84ZM9.75 14.25L10.5 14.25L10.5 17.25L9.75 17.25L9.75 14.25ZM14.25 17.25L11.25 17.25L11.25 14.25L14.25 14.25L14.25 17.25ZM16.5 13.125C16.5 13.335 16.335 13.5 16.125 13.5L7.875 13.5C7.665 13.5 7.5 13.335 7.5 13.125L7.5 11.1825C7.8225 11.07 8.0775 10.815 8.1825 10.485C8.205 10.485 8.22 10.4925 8.235 10.4925C8.2425 10.4925 8.2425 10.4925 8.25 10.4925L8.25 11.625C8.25 12.2475 8.7525 12.75 9.375 12.75L14.625 12.75C15.2475 12.75 15.75 12.2475 15.75 11.625L15.75 2.625C15.75 2.0025 15.2475 1.5 14.625 1.5L9.375 1.5C8.7525 1.5 8.25 2.0025 8.25 2.625L8.25 4.5L7.5 4.5L7.5 1.125C7.5 0.914999 7.665 0.749999 7.875 0.749999L16.125 0.749997C16.335 0.749997 16.5 0.914997 16.5 1.125L16.5 13.125Z" fill="black"/>
</g>
</svg>
