<svg width="9" height="18" viewBox="0 0 9 18" fill="none" xmlns="http://www.w3.org/2000/svg">
<g id="ICON">
<path id="Vector" d="M8.75 12.015C8.75 9.6825 7.055 8.955 5.375 8.43L5.375 3.03C6.6725 3.3225 7.6925 4.4475 7.88 5.865L8.555 5.865L8.5475 5.7675C8.36 3.99 7.04 2.6025 5.375 2.3175L5.375 0.749999L4.625 0.749999L4.625 2.2575C2.435 2.3025 0.912501 3.645 0.912501 5.565C0.912501 7.83 2.78 8.385 4.5875 8.925C4.6025 8.9325 4.61 8.9325 4.625 8.94L4.625 15.0525C2.7725 15.0525 1.3925 13.83 1.19 12.0075L1.1825 11.925L0.500002 11.925L0.507502 12.0225C0.725003 14.25 2.3825 15.75 4.625 15.75L4.625 17.25L5.375 17.25L5.375 15.69C7.4225 15.42 8.75 14.0175 8.75 12.015ZM1.595 5.565C1.595 4.29 2.6375 3 4.625 2.955L4.625 8.2125C3.0425 7.74 1.595 7.2525 1.595 5.565ZM5.375 14.9925L5.375 9.1725C6.845 9.6525 8.0675 10.275 8.0675 12.015C8.0675 13.605 7.0175 14.73 5.375 14.9925Z" fill="#4F46E5" stroke="#4F46E5" stroke-width="0.3"/>
</g>
</svg>
