<svg width="25" height="24" viewBox="0 0 25 24" fill="none" xmlns="http://www.w3.org/2000/svg">
<g id="ICON">
<path id="Vector" d="M24.5 0.5V6.5C24.5 6.78 24.28 7 24 7C23.72 7 23.5 6.78 23.5 6.5V1.71L7.85 17.35C7.75 17.45 7.62 17.5 7.5 17.5C7.38 17.5 7.24 17.45 7.15 17.35C6.95 17.15 6.95 16.84 7.15 16.64L22.79 1H18C17.72 1 17.5 0.78 17.5 0.5C17.5 0.22 17.72 0 18 0H24C24.07 0 24.13 0.00999996 24.19 0.04C24.31 0.09 24.41 0.19 24.46 0.31C24.49 0.37 24.5 0.43 24.5 0.5ZM21 12.4C20.72 12.4 20.5 12.62 20.5 12.9V23H1.5V4H11.54C11.82 4 12.04 3.78 12.04 3.5C12.04 3.22 11.81 3 11.54 3H1C0.72 3 0.5 3.22 0.5 3.5V23.5C0.5 23.78 0.72 24 1 24H21C21.28 24 21.5 23.78 21.5 23.5V12.9C21.5 12.62 21.28 12.4 21 12.4Z" fill="#000000"/>
</g>
</svg>