<svg width="24" height="24" viewBox="0 0 24 24" fill="none" xmlns="http://www.w3.org/2000/svg">
<g id="ICON">
<g id="Vector">
<path d="M24 0.5V6.5C24 6.78 23.78 7 23.5 7C23.22 7 23 6.78 23 6.5V1.71L7.35 17.35C7.25 17.45 7.12 17.5 7 17.5C6.88 17.5 6.74 17.45 6.65 17.35C6.45 17.15 6.45 16.84 6.65 16.64L22.29 1H17.5C17.22 1 17 0.78 17 0.5C17 0.22 17.22 0 17.5 0H23.5C23.57 0 23.63 0.00999996 23.69 0.04C23.81 0.09 23.91 0.19 23.96 0.31C23.99 0.37 24 0.43 24 0.5ZM20.5 12.4C20.22 12.4 20 12.62 20 12.9V23H1V4H11.04C11.32 4 11.54 3.78 11.54 3.5C11.54 3.22 11.31 3 11.04 3H0.5C0.22 3 0 3.22 0 3.5V23.5C0 23.78 0.22 24 0.5 24H20.5C20.78 24 21 23.78 21 23.5V12.9C21 12.62 20.78 12.4 20.5 12.4Z" fill="#0071DE"/>
<path d="M24 0.5V6.5C24 6.78 23.78 7 23.5 7C23.22 7 23 6.78 23 6.5V1.71L7.35 17.35C7.25 17.45 7.12 17.5 7 17.5C6.88 17.5 6.74 17.45 6.65 17.35C6.45 17.15 6.45 16.84 6.65 16.64L22.29 1H17.5C17.22 1 17 0.78 17 0.5C17 0.22 17.22 0 17.5 0H23.5C23.57 0 23.63 0.00999996 23.69 0.04C23.81 0.09 23.91 0.19 23.96 0.31C23.99 0.37 24 0.43 24 0.5ZM20.5 12.4C20.22 12.4 20 12.62 20 12.9V23H1V4H11.04C11.32 4 11.54 3.78 11.54 3.5C11.54 3.22 11.31 3 11.04 3H0.5C0.22 3 0 3.22 0 3.5V23.5C0 23.78 0.22 24 0.5 24H20.5C20.78 24 21 23.78 21 23.5V12.9C21 12.62 20.78 12.4 20.5 12.4Z" fill="black" fill-opacity="0.2"/>
</g>
</g>
</svg>
