<svg width="36" height="36" viewBox="0 0 36 36" fill="none" xmlns="http://www.w3.org/2000/svg">
<g id="ICON">
<path id="Vector" d="M17.0535 18.015C17.4285 17.685 17.7885 17.325 18.1035 16.95L19.9335 17.475C20.0685 17.52 20.2035 17.535 20.3385 17.535C20.9385 17.535 21.4935 17.175 21.7335 16.605L22.4835 14.76C22.7685 14.055 22.4835 13.23 21.7935 12.87L20.1135 11.97C20.1585 11.475 20.1585 10.965 20.1135 10.47L21.7785 9.555C22.4535 9.18 22.7385 8.355 22.4235 7.65L21.6285 5.82C21.3885 5.265 20.8335 4.92 20.2485 4.92C20.0985 4.92 19.9485 4.935 19.8135 4.98L17.9985 5.52C17.6685 5.13 17.3085 4.785 16.9335 4.47L17.4585 2.64C17.6685 1.905 17.2935 1.11 16.5735 0.825L14.7435 0.105C14.5485 0.0300003 14.3535 0 14.1735 0C13.6335 0 13.1085 0.3 12.8535 0.795L11.9685 2.475C11.7435 2.46 11.5335 2.445 11.3085 2.445C11.0385 2.445 10.7535 2.46 10.4835 2.49L9.55348 0.81C9.28348 0.315 8.77348 0.0450003 8.24848 0.0450003C8.05348 0.0450003 7.85848 0.0900002 7.66348 0.165L5.80348 0.93C5.09848 1.245 4.73848 2.025 4.94848 2.76L5.50348 4.575C5.12848 4.905 4.76848 5.265 4.45348 5.64L2.63848 5.115C2.50348 5.085 2.36848 5.055 2.21848 5.055C1.61848 5.055 1.04848 5.415 0.823482 6L0.103482 7.86C-0.181518 8.565 0.118482 9.375 0.793482 9.735L2.47348 10.62C2.42848 11.115 2.42848 11.61 2.47348 12.12L0.793482 13.05C0.118482 13.425 -0.151518 14.25 0.148482 14.955L0.928482 16.785C1.16848 17.355 1.72348 17.7 2.30848 17.7C2.45848 17.7 2.60848 17.685 2.74348 17.64L4.55848 17.085C4.88848 17.475 5.24848 17.82 5.63848 18.15L5.09848 19.95C4.87348 20.7 5.26348 21.48 5.98348 21.765L7.82848 22.485C8.00848 22.56 8.18848 22.59 8.38348 22.59C8.92348 22.59 9.44848 22.29 9.70348 21.795L10.5885 20.115C10.8285 20.13 11.0835 20.145 11.3235 20.145C11.5785 20.145 11.8335 20.13 12.0885 20.115L13.0185 21.795C13.2885 22.29 13.7985 22.56 14.3235 22.56C14.5185 22.56 14.7285 22.515 14.9235 22.44L16.7535 21.645C17.4585 21.345 17.8185 20.565 17.5935 19.83L17.0535 18.015ZM15.8085 17.1C15.6585 17.205 15.5535 17.37 15.5085 17.535C15.4485 17.715 15.4485 17.895 15.5085 18.06L16.1835 20.265L14.3535 21.06L13.2285 19.05C13.1385 18.885 13.0035 18.765 12.8535 18.675C12.7335 18.615 12.5835 18.57 12.4485 18.57C12.4035 18.57 12.3735 18.57 12.3285 18.585C11.9985 18.63 11.6835 18.645 11.3535 18.645C11.0235 18.645 10.7085 18.63 10.3785 18.585C10.3485 18.585 10.3035 18.585 10.2735 18.585C10.1385 18.585 9.98848 18.615 9.86848 18.69C9.70348 18.78 9.58348 18.9 9.49348 19.065L8.39848 21.09L6.55348 20.37L7.21348 18.15C7.25848 17.97 7.25848 17.79 7.19848 17.625C7.13848 17.46 7.03348 17.31 6.88348 17.205C6.35848 16.815 5.89348 16.35 5.50348 15.84C5.39848 15.69 5.23348 15.585 5.06848 15.54C4.97848 15.51 4.88848 15.495 4.79848 15.495C4.70848 15.495 4.61848 15.51 4.54348 15.54L2.33848 16.215L1.55848 14.385L3.56848 13.26C3.73348 13.17 3.85348 13.035 3.94348 12.885C4.03348 12.72 4.06348 12.54 4.03348 12.36C3.94348 11.715 3.94348 11.055 4.03348 10.41C4.04848 10.23 4.01848 10.05 3.94348 9.885C3.85348 9.72 3.73348 9.6 3.56848 9.51L1.49848 8.4L2.21848 6.555L4.43848 7.2C4.51348 7.215 4.60348 7.23 4.67848 7.23C4.78348 7.23 4.87348 7.215 4.96348 7.185C5.14348 7.125 5.29348 7.02 5.39848 6.87C5.78848 6.345 6.25348 5.88 6.76348 5.49C6.91348 5.385 7.01848 5.22 7.06348 5.055C7.12348 4.875 7.12348 4.695 7.06348 4.53L6.38848 2.31L8.21848 1.53L9.32848 3.54C9.40348 3.705 9.53848 3.84 9.70348 3.93C9.83848 4.005 9.97348 4.035 10.1235 4.035C10.1685 4.035 10.1985 4.035 10.2435 4.035C10.5885 3.99 10.9335 3.96 11.2935 3.96C11.5935 3.96 11.8935 3.975 12.1935 4.02C12.2235 4.02 12.2685 4.02 12.2985 4.02C12.4485 4.02 12.5835 3.99 12.7035 3.915C12.8685 3.825 13.0035 3.705 13.0785 3.54L14.1735 1.5L16.0035 2.22L15.3735 4.44C15.3285 4.62 15.3285 4.8 15.3885 4.965C15.4485 5.13 15.5535 5.28 15.7035 5.4C16.2285 5.79 16.6935 6.255 17.0835 6.765C17.1885 6.915 17.3385 7.02 17.5185 7.065C17.6085 7.095 17.6985 7.11 17.7885 7.11C17.8785 7.11 17.9685 7.095 18.0585 7.065L20.2635 6.39L21.0585 8.22L19.0485 9.345C18.8985 9.435 18.7635 9.57 18.6885 9.735C18.6135 9.9 18.5835 10.08 18.5985 10.26C18.6885 10.905 18.6885 11.565 18.5985 12.195C18.5835 12.375 18.6135 12.555 18.6885 12.72C18.7785 12.885 18.8985 13.02 19.0635 13.095L21.1035 14.175L20.3535 16.02L18.1335 15.39C18.0585 15.375 17.9685 15.36 17.8935 15.36C17.8035 15.36 17.6985 15.375 17.6085 15.405C17.4435 15.465 17.2935 15.57 17.1735 15.72C16.7685 16.23 16.3185 16.695 15.8085 17.1ZM11.2485 6C8.35348 6 5.99848 8.355 5.99848 11.25C5.99848 14.145 8.35348 16.5 11.2485 16.5C14.1435 16.5 16.4985 14.145 16.4985 11.25C16.4985 8.355 14.1435 6 11.2485 6ZM11.2485 15C9.17848 15 7.49848 13.32 7.49848 11.25C7.49848 9.18 9.17848 7.5 11.2485 7.5C13.3185 7.5 14.9985 9.18 14.9985 11.25C14.9985 13.32 13.3185 15 11.2485 15ZM34.6935 24.855L33.5535 24.72C33.4785 24.51 33.4035 24.315 33.3135 24.105L34.0485 23.22C34.5435 22.62 34.4985 21.75 33.9585 21.21L32.9235 20.16C32.6385 19.86 32.2485 19.71 31.8585 19.71C31.5285 19.71 31.1985 19.815 30.9285 20.04L30.0285 20.76C29.8335 20.67 29.6235 20.58 29.4285 20.505L29.3235 19.365C29.2485 18.6 28.6035 18.015 27.8385 18H26.3835C25.6185 18 24.9735 18.57 24.8985 19.335L24.7635 20.475C24.5535 20.55 24.3585 20.625 24.1635 20.715L23.2635 19.965C22.9785 19.74 22.6485 19.62 22.3035 19.62C21.9285 19.62 21.5385 19.77 21.2535 20.055L20.2035 21.09C19.6635 21.63 19.6035 22.485 20.0835 23.085L20.8035 23.985C20.7135 24.18 20.6235 24.39 20.5485 24.585L19.4085 24.69C18.6435 24.765 18.0435 25.41 18.0435 26.19V27.645C18.0435 28.41 18.6135 29.055 19.3785 29.13L20.5185 29.265C20.5935 29.475 20.6685 29.67 20.7585 29.865L20.0235 30.765C19.5435 31.365 19.5735 32.22 20.1135 32.775L21.1485 33.825C21.4335 34.125 21.8235 34.275 22.2135 34.275C22.5435 34.275 22.8735 34.17 23.1435 33.945L24.0435 33.225C24.2385 33.315 24.4485 33.405 24.6585 33.48L24.7635 34.605C24.7635 35.4 25.4085 36 26.1885 36H27.6435C28.4085 36 29.0535 35.43 29.1285 34.665L29.2635 33.525C29.4735 33.45 29.6685 33.375 29.8785 33.285L30.7785 34.035C31.0635 34.26 31.3935 34.38 31.7385 34.38C32.1285 34.38 32.5035 34.23 32.8035 33.945L33.8385 32.91C34.3785 32.37 34.4235 31.515 33.9585 30.915L33.2385 30.015C33.3285 29.82 33.4185 29.61 33.4935 29.415L34.6335 29.31C35.3985 29.235 35.9835 28.605 35.9835 27.84L35.9985 26.37C36.0285 25.59 35.4435 24.945 34.6935 24.855ZM34.4985 27.81L32.8035 27.975C32.6685 27.99 32.5485 28.035 32.4435 28.125C32.3385 28.215 32.2635 28.32 32.2335 28.455C32.0985 28.92 31.9185 29.355 31.6785 29.775C31.6035 29.895 31.5735 30.03 31.5885 30.15C31.6035 30.285 31.6485 30.405 31.7235 30.51L32.7885 31.845L31.7535 32.88L30.4335 31.8C30.3285 31.71 30.2085 31.665 30.0735 31.65C30.0585 31.65 30.0285 31.65 30.0135 31.65C29.9085 31.65 29.7885 31.68 29.6985 31.74C29.2785 31.98 28.8285 32.145 28.3635 32.265C28.2285 32.295 28.1235 32.37 28.0335 32.475C27.9435 32.58 27.8835 32.7 27.8685 32.835L27.6585 34.5H26.2035L26.0535 32.805C26.0385 32.67 25.9785 32.55 25.9035 32.445C25.8135 32.34 25.6935 32.265 25.5735 32.235C25.1085 32.1 24.6735 31.92 24.2535 31.68C24.1485 31.62 24.0285 31.59 23.9235 31.59C23.9085 31.59 23.8935 31.59 23.8785 31.59C23.7435 31.605 23.6235 31.65 23.5185 31.725L22.1835 32.775L21.1485 31.725L22.2285 30.42C22.3185 30.315 22.3635 30.195 22.3785 30.06C22.3935 29.925 22.3635 29.79 22.3035 29.67C22.0635 29.25 21.8985 28.8 21.7785 28.335C21.7485 28.2 21.6735 28.095 21.5685 28.005C21.4635 27.915 21.3435 27.855 21.2085 27.84L19.4985 27.645V26.19L21.1935 26.04C21.3285 26.025 21.4485 25.98 21.5535 25.89C21.6585 25.8 21.7335 25.695 21.7635 25.56C21.8985 25.095 22.0785 24.66 22.3185 24.24C22.3935 24.12 22.4235 23.985 22.4085 23.865C22.3935 23.73 22.3485 23.61 22.2735 23.505L21.2085 22.17L22.2585 21.135L23.5635 22.215C23.6685 22.305 23.7885 22.365 23.9235 22.38C23.9535 22.38 23.9685 22.38 23.9985 22.38C24.1035 22.38 24.2235 22.35 24.3135 22.305C24.7335 22.065 25.1685 21.885 25.6335 21.765C25.7685 21.735 25.8735 21.66 25.9635 21.555C26.0535 21.45 26.1135 21.33 26.1285 21.195L26.3385 19.5H27.7935L27.9585 21.195C27.9735 21.33 28.0185 21.45 28.1085 21.555C28.1985 21.66 28.3035 21.735 28.4385 21.765C28.9035 21.9 29.3385 22.08 29.7585 22.32C29.8635 22.38 29.9835 22.41 30.0885 22.41C30.1035 22.41 30.1185 22.41 30.1335 22.41C30.2685 22.395 30.3885 22.35 30.4935 22.26L31.8285 21.21L32.8635 22.26L31.7835 23.565C31.6935 23.67 31.6485 23.79 31.6335 23.925C31.6185 24.06 31.6485 24.195 31.7235 24.3C31.9635 24.72 32.1285 25.17 32.2485 25.635C32.2785 25.77 32.3535 25.875 32.4585 25.965C32.5635 26.055 32.6835 26.115 32.8185 26.13L34.5135 26.325L34.4985 27.81ZM28.1985 24.255C27.4635 23.94 26.6535 23.925 25.9035 24.21C25.1535 24.51 24.5685 25.065 24.2535 25.8C23.9385 26.535 23.9235 27.345 24.2085 28.095C24.4935 28.845 25.0635 29.43 25.7985 29.745C26.1885 29.91 26.5935 30 26.9985 30C27.3735 30 27.7485 29.925 28.0935 29.79C28.8435 29.49 29.4285 28.935 29.7435 28.2C30.0585 27.465 30.0735 26.655 29.7885 25.905C29.5035 25.155 28.9335 24.57 28.1985 24.255ZM28.3785 27.6C28.2135 27.96 27.9285 28.245 27.5535 28.395C27.1785 28.545 26.7735 28.53 26.4135 28.38C26.0535 28.215 25.7685 27.93 25.6185 27.555C25.4685 27.18 25.4835 26.775 25.6335 26.415C25.7835 26.055 26.0835 25.77 26.4585 25.62C26.6235 25.53 26.8185 25.5 26.9985 25.5C27.1935 25.5 27.4035 25.545 27.5985 25.62C27.9585 25.785 28.2435 26.07 28.3935 26.445C28.5435 26.82 28.5285 27.24 28.3785 27.6Z" fill="#202020"/>
</g>
</svg>
