<svg width="8" height="12" viewBox="0 0 8 12" fill="none" xmlns="http://www.w3.org/2000/svg">
<g id="ICON">
<path id="Vector" d="M5.4 4.675C6.055 4.28 6.5 3.57 6.5 2.75C6.5 1.51 5.49 0.5 4.25 0.5C3.01 0.5 2 1.51 2 2.75C2 3.58 2.455 4.3 3.13 4.69C1.59 5.2 0.5 6.69 0.5 8.5V10.75C0.5 11.165 0.81 11.5 1.19 11.5H7.315C7.695 11.5 8.005 11.165 8.005 10.75V8.5C8 6.675 6.92 5.17 5.4 4.675ZM2.5 2.75C2.5 1.785 3.285 1 4.25 1C5.215 1 6 1.785 6 2.75C6 3.715 5.215 4.5 4.25 4.5C3.285 4.5 2.5 3.715 2.5 2.75ZM7.5 10.75C7.5 10.885 7.415 11 7.31 11H1.19C1.09 11 1 10.885 1 10.75V8.5C1 6.54 2.45 5 4.3 5C6.095 5 7.5 6.54 7.5 8.5V10.75Z" fill="#202020"/>
</g>
</svg>
