<svg width="19" height="19" viewBox="0 0 19 19" fill="none" xmlns="http://www.w3.org/2000/svg">
<g id="ICON">
<path id="Vector" d="M17.875 0.999411L13.75 0.999412L5.2825 0.999413C5.2375 0.976913 5.185 0.961913 5.125 0.961913C5.065 0.961913 5.0125 0.976913 4.9675 0.999413L1.375 0.999414C0.7525 0.999414 0.25 1.50191 0.25 2.12441L0.250001 5.74691C0.250001 6.81941 0.872501 7.77941 1.75 8.22941L1.75 17.8744C1.75 18.4969 2.2525 18.9994 2.875 18.9994L11.125 18.9994L14.875 18.9994L16.375 18.9994C16.9975 18.9994 17.5 18.4969 17.5 17.8744L17.5 8.23691C17.7475 8.11691 17.98 7.97441 18.1825 7.77941C18.7075 7.27691 19 6.60191 19 5.87441L19 2.12441C19 1.50191 18.4975 0.999411 17.875 0.999411ZM13.7575 5.83691C13.7575 5.85191 13.75 5.86691 13.75 5.87441C13.75 6.90941 12.91 7.74941 11.875 7.74941C10.84 7.74941 10 6.90941 10 5.87441L10 1.74941L13.75 1.74941L13.75 5.74691C13.75 5.77691 13.7575 5.80691 13.7575 5.83691ZM5.5 1.74941L9.25 1.74941L9.25 5.87441C9.25 6.90941 8.41 7.74941 7.375 7.74941C6.34 7.74941 5.5 6.90941 5.5 5.87441L5.5 1.74941ZM1 5.74691L1 2.12441C1 1.91441 1.165 1.74941 1.375 1.74941L4.75 1.74941L4.75 5.87441C4.75 6.39191 4.54 6.87941 4.165 7.23191C3.79 7.59191 3.2875 7.77191 2.77 7.74191C1.795 7.69691 1 6.79691 1 5.74691ZM11.5 18.2494L11.5 12.2494L14.5 12.2494L14.5 18.2494L11.5 18.2494ZM16.75 17.8744C16.75 18.0844 16.585 18.2494 16.375 18.2494L15.25 18.2494L15.25 11.8744C15.25 11.6644 15.085 11.4994 14.875 11.4994L11.125 11.4994C10.915 11.4994 10.75 11.6644 10.75 11.8744L10.75 18.2494L2.875 18.2494C2.665 18.2494 2.5 18.0844 2.5 17.8744L2.5 8.46191C2.575 8.47691 2.6575 8.49191 2.7325 8.49941C2.7775 8.49941 2.83 8.49941 2.875 8.49941C3.55 8.49941 4.1875 8.24441 4.6825 7.77941C4.8625 7.60691 5.005 7.41191 5.125 7.20191C5.5825 7.97441 6.415 8.49941 7.375 8.49941C8.335 8.49941 9.1675 7.97441 9.625 7.20191C10.0825 7.97441 10.915 8.49941 11.875 8.49941C12.85 8.49941 13.69 7.95941 14.1475 7.17191C14.59 7.92191 15.3625 8.45441 16.24 8.49941C16.285 8.49941 16.3375 8.49941 16.3825 8.49941C16.51 8.49941 16.63 8.48441 16.7575 8.46191L16.7575 17.8744L16.75 17.8744ZM18.25 5.87441C18.25 6.39191 18.04 6.87941 17.665 7.23191C17.29 7.59191 16.7875 7.77191 16.27 7.74191C15.295 7.68941 14.4925 6.79691 14.4925 5.73941L14.4925 1.74941L17.8675 1.74941C18.085 1.74941 18.25 1.91441 18.25 2.12441L18.25 5.87441Z" fill="#4F46E5" stroke="#4F46E5" stroke-width="0.3"/>
</g>
</svg>
