<svg width="48" height="48" viewBox="0 0 48 48" fill="none" xmlns="http://www.w3.org/2000/svg">
<path d="M43.5 35.25C43.5 35.67 43.17 36 42.75 36H5.25C4.83 36 4.5 35.67 4.5 35.25C4.5 34.83 4.83 34.5 5.25 34.5H42.75C43.17 34.5 43.5 34.83 43.5 35.25ZM21.75 10.5H23.25V11.25C23.25 11.67 23.58 12 24 12C24.42 12 24.75 11.67 24.75 11.25V10.5H26.25C26.67 10.5 27 10.17 27 9.75C27 9.33 26.67 9 26.25 9H21.75C21.33 9 21 9.33 21 9.75C21 10.17 21.33 10.5 21.75 10.5ZM6.675 30.735C6.255 30.255 6.045 29.625 6.12 28.98C7.14 19.89 14.835 13.02 24 13.02C33.33 13.02 41.025 20.01 41.925 29.28C41.985 29.91 41.775 30.555 41.34 31.02C40.905 31.485 40.305 31.755 39.675 31.755H39.66L8.34 31.5C7.695 31.5 7.095 31.215 6.675 30.735ZM7.605 29.16C7.575 29.37 7.65 29.58 7.785 29.745C7.935 29.91 8.13 30 8.355 30L39.66 30.27C39.855 30.27 40.08 30.18 40.23 30.03C40.38 29.865 40.455 29.655 40.425 29.445C39.615 20.94 32.55 14.52 24 14.52C15.6 14.52 8.55 20.82 7.605 29.16Z" fill="black"/>
</svg>
