<svg width="32" height="32" viewBox="0 0 32 32" fill="none" xmlns="http://www.w3.org/2000/svg">
<path d="M29 27.5C29 27.78 28.78 28 28.5 28H3.5C3.22 28 3 27.78 3 27.5C3 27.22 3.22 27 3.5 27H28.5C28.78 27 29 27.22 29 27.5ZM14.5 11H15.5V11.5C15.5 11.78 15.72 12 16 12C16.28 12 16.5 11.78 16.5 11.5V11H17.5C17.78 11 18 10.78 18 10.5C18 10.22 17.78 10 17.5 10H14.5C14.22 10 14 10.22 14 10.5C14 10.78 14.22 11 14.5 11ZM4.45 24.49C4.17 24.17 4.03 23.75 4.08 23.32C4.76 17.26 9.89 12.68 16 12.68C22.22 12.68 27.35 17.34 27.95 23.52C27.99 23.94 27.85 24.37 27.56 24.68C27.27 24.99 26.87 25.17 26.45 25.17H26.44L5.56 25C5.13 25 4.73 24.81 4.45 24.49ZM5.07 23.44C5.05 23.58 5.1 23.72 5.19 23.83C5.29 23.94 5.42 24 5.57 24L26.44 24.18C26.57 24.18 26.72 24.12 26.82 24.02C26.92 23.91 26.97 23.77 26.95 23.63C26.41 17.96 21.7 13.68 16 13.68C10.4 13.68 5.7 17.88 5.07 23.44Z" fill="#202020"/>
</svg>
