<svg width="40" height="24" viewBox="0 0 40 24" fill="none" xmlns="http://www.w3.org/2000/svg">
<g id="ICON">
<path id="Vector" d="M37.0625 12.0186H36.25V8.76855C36.25 6.98105 34.7875 5.51855 33 5.51855H11.0625C10.6075 5.51855 10.25 5.87605 10.25 6.33105V8.76855V12.0186H7H2.125V1.45605C2.125 1.00105 1.7675 0.643555 1.3125 0.643555C0.8575 0.643555 0.5 1.00105 0.5 1.45605V12.8311V19.3311V22.5811C0.5 23.0361 0.8575 23.3936 1.3125 23.3936C1.7675 23.3936 2.125 23.0361 2.125 22.5811V20.1436H37.875V22.5811C37.875 23.0361 38.2325 23.3936 38.6875 23.3936C39.1425 23.3936 39.5 23.0361 39.5 22.5811V19.3311V16.0811V14.4561C39.5 13.1073 38.4112 12.0186 37.0625 12.0186ZM11.875 7.14355H33C33.8938 7.14355 34.625 7.8748 34.625 8.76855V12.0186H11.875V7.14355ZM2.125 18.5186V13.6436H11.0625H35.4375H37.0625C37.5175 13.6436 37.875 14.0011 37.875 14.4561V16.0811V18.5186H2.125ZM10.25 8.76855C10.25 6.98105 8.7875 5.51855 7 5.51855C5.2125 5.51855 3.75 6.98105 3.75 8.76855C3.75 10.5561 5.2125 12.0186 7 12.0186C8.7875 12.0186 10.25 10.5561 10.25 8.76855ZM7 10.3936C6.10625 10.3936 5.375 9.6623 5.375 8.76855C5.375 7.8748 6.10625 7.14355 7 7.14355C7.89375 7.14355 8.625 7.8748 8.625 8.76855C8.625 9.6623 7.89375 10.3936 7 10.3936Z" fill="white"/>
</g>
</svg>
