<svg width="24" height="24" viewBox="0 0 24 24" fill="none" xmlns="http://www.w3.org/2000/svg">
<path d="M11.2235 16.0936L12.493 17.3635C12.5954 17.4668 12.7172 17.5489 12.8514 17.6048C12.9857 17.6608 13.1297 17.6895 13.2751 17.6895H14.9018V19.1028C14.9018 19.4486 15.0392 19.7802 15.2836 20.0248C15.5281 20.2693 15.8596 20.4066 16.2053 20.4066H17.6182V22.0286C17.6198 22.3221 17.7369 22.6031 17.9441 22.8109L18.8487 23.7158C19.0367 23.8964 19.2867 23.9981 19.5474 24H23.1397C23.3677 23.9993 23.5861 23.9084 23.7473 23.7472C23.9085 23.586 23.9993 23.3675 24 23.1395V19.5461C23.9975 19.2756 23.89 19.0166 23.7002 18.8238L16.0906 11.2225C16.757 9.44541 16.7949 7.49366 16.1978 5.69211C15.6008 3.89056 14.4049 2.34789 12.8093 1.32091C11.2136 0.293931 9.31447 -0.155403 7.42794 0.0477087C5.54142 0.250821 3.78136 1.09412 2.44074 2.43724C1.09642 3.77791 0.251956 5.53888 0.0480512 7.42674C-0.155853 9.3146 0.293114 11.2153 1.32015 12.8123C2.34718 14.4092 3.89026 15.6059 5.69228 16.203C7.49431 16.8001 9.44645 16.7614 11.2235 16.0936ZM3.1785 3.17521C4.36921 1.98461 5.93657 1.24496 7.61236 1.08283C9.28814 0.920699 10.9682 1.34617 12.3649 2.28644C13.7617 3.2267 14.7883 4.6233 15.2692 6.23723C15.75 7.85116 15.6552 9.58209 15.0009 11.1338C14.9607 11.2293 14.9499 11.3347 14.9699 11.4364C14.9899 11.5381 15.0397 11.6316 15.113 11.7049L22.9546 19.5487V22.9569H19.5656L18.661 22.0521C18.655 22.0459 18.6503 22.0385 18.6472 22.0304C18.644 22.0224 18.6425 22.0138 18.6428 22.0051V20.0885C18.6428 19.8907 18.5642 19.701 18.4244 19.5612C18.2846 19.4213 18.0949 19.3427 17.8972 19.3427H16.1766C16.1441 19.3427 16.1119 19.3363 16.082 19.3238C16.052 19.3112 16.0248 19.2928 16.002 19.2697C15.956 19.222 15.9299 19.1586 15.929 19.0924V17.3896C15.929 17.1918 15.8504 17.0021 15.7106 16.8622C15.5708 16.7224 15.3811 16.6438 15.1834 16.6438H13.2647C13.2559 16.6437 13.2472 16.6418 13.2391 16.6382C13.231 16.6346 13.2238 16.6294 13.2178 16.6229L11.7057 15.1105C11.6325 15.0372 11.5391 14.9873 11.4374 14.9673C11.3357 14.9474 11.2304 14.9582 11.1348 14.9983C9.58402 15.6514 7.85458 15.7454 6.24217 15.2642C4.62976 14.783 3.23449 13.7566 2.29489 12.3603C1.35529 10.9641 0.929694 9.28473 1.09086 7.60936C1.25204 5.93398 1.98996 4.36662 3.1785 3.17521ZM6.63789 9.24584C7.15349 9.24584 7.65751 9.09291 8.08622 8.80637C8.51492 8.51984 8.84906 8.11258 9.04637 7.63609C9.24368 7.1596 9.29531 6.63529 9.19472 6.12945C9.09413 5.62362 8.84584 5.15897 8.48126 4.79429C8.11667 4.4296 7.65216 4.18124 7.14647 4.08062C6.64078 3.98001 6.11661 4.03165 5.64026 4.22902C5.16391 4.42638 4.75676 4.76061 4.47031 5.18944C4.18385 5.61827 4.03096 6.12244 4.03096 6.63818C4.03096 7.32978 4.30562 7.99305 4.79451 8.48208C5.2834 8.97111 5.94649 9.24584 6.63789 9.24584ZM6.63789 5.09445C6.94725 5.09445 7.24966 5.18621 7.50688 5.35813C7.76411 5.53005 7.96459 5.77441 8.08298 6.0603C8.20136 6.34619 8.23234 6.66078 8.17199 6.96428C8.11163 7.26778 7.96266 7.54657 7.74391 7.76538C7.52516 7.98419 7.24645 8.13321 6.94304 8.19358C6.63962 8.25395 6.32512 8.22296 6.03931 8.10454C5.7535 7.98612 5.50921 7.78558 5.33734 7.52829C5.16547 7.27099 5.07373 6.96849 5.07373 6.65904C5.07339 6.45336 5.11359 6.24962 5.19205 6.0595C5.2705 5.86937 5.38566 5.69658 5.53094 5.55102C5.67622 5.40546 5.84876 5.28998 6.03871 5.21119C6.22865 5.13239 6.43226 5.09184 6.63789 5.09184V5.09445Z" fill="black"/>
</svg>
