<svg width="32" height="32" viewBox="0 0 32 32" fill="none" xmlns="http://www.w3.org/2000/svg">
<path d="M19.74 11.19C17.53 9.64 14.46 9.64 12.26 11.19C11.16 11.97 10.34 13.05 9.88 14.32C9.43 15.59 9.38 16.95 9.73 18.25C10.09 19.55 10.83 20.69 11.87 21.55C12.28 21.88 12.51 22.4 12.49 23V25.58C12.49 26.06 12.71 26.55 13.1 26.95C13.46 27.31 13.95 27.52 14.46 27.52H17.51C18.02 27.52 18.52 27.31 18.87 26.95C19.26 26.56 19.48 26.06 19.48 25.59V23.01C19.47 22.41 19.69 21.9 20.11 21.56C21.15 20.7 21.89 19.56 22.25 18.26C22.61 16.96 22.56 15.6 22.1 14.33C21.67 13.04 20.84 11.96 19.74 11.19ZM18.18 26.23C18.01 26.4 17.77 26.5 17.52 26.5H14.47C14.22 26.5 13.99 26.4 13.81 26.23C13.61 26.03 13.49 25.78 13.49 25.57V23.5H18.49V25.57C18.5 25.78 18.38 26.03 18.18 26.23ZM21.3 17.98C21 19.08 20.37 20.05 19.49 20.77C18.97 21.2 18.64 21.82 18.54 22.51H13.45C13.35 21.82 13.02 21.2 12.5 20.78C11.62 20.05 10.99 19.09 10.69 17.99C10.39 16.89 10.43 15.74 10.81 14.67C11.19 13.6 11.89 12.68 12.82 12.02C13.75 11.36 14.85 11.02 15.99 11.02C17.13 11.02 18.22 11.37 19.16 12.02C20.09 12.68 20.79 13.59 21.17 14.67C21.56 15.73 21.6 16.88 21.3 17.98ZM15.5 7.5V4.5C15.5 4.22 15.72 4 16 4C16.28 4 16.5 4.22 16.5 4.5V7.5C16.5 7.78 16.28 8 16 8C15.72 8 15.5 7.78 15.5 7.5ZM7.5 15.5C7.5 15.78 7.28 16 7 16H4C3.72 16 3.5 15.78 3.5 15.5C3.5 15.22 3.72 15 4 15H7C7.28 15 7.5 15.22 7.5 15.5ZM28.5 15.5C28.5 15.78 28.28 16 28 16H25C24.72 16 24.5 15.78 24.5 15.5C24.5 15.22 24.72 15 25 15H28C28.28 15 28.5 15.22 28.5 15.5ZM24.35 7.85L22.23 9.97C22.13 10.07 22 10.12 21.88 10.12C21.76 10.12 21.62 10.07 21.53 9.97C21.33 9.77 21.33 9.46 21.53 9.26L23.65 7.14C23.85 6.94 24.16 6.94 24.36 7.14C24.56 7.34 24.55 7.66 24.35 7.85ZM9.77 9.97L7.65 7.85C7.45 7.65 7.45 7.34 7.65 7.14C7.85 6.94 8.16 6.94 8.36 7.14L10.48 9.26C10.68 9.46 10.68 9.77 10.48 9.97C10.38 10.07 10.25 10.12 10.13 10.12C10.01 10.12 9.87 10.07 9.77 9.97Z" fill="#202020"/>
</svg>
