<svg width="18" height="14" viewBox="0 0 18 14" fill="none" xmlns="http://www.w3.org/2000/svg">
<g id="ICON">
<path id="Vector" d="M17.625 0.249997L0.375 0.25C0.165 0.25 2.88495e-08 0.415 6.55671e-08 0.625L2.29485e-06 13.375C2.33157e-06 13.585 0.165002 13.75 0.375002 13.75L17.625 13.75C17.835 13.75 18 13.585 18 13.375L18 0.624997C18 0.414997 17.835 0.249997 17.625 0.249997ZM17.25 13L0.750002 13L0.75 1L17.25 0.999997L17.25 13ZM13.875 4.75L16.125 4.75C16.335 4.75 16.5 4.585 16.5 4.375L16.5 2.125C16.5 1.915 16.335 1.75 16.125 1.75L13.875 1.75C13.665 1.75 13.5 1.915 13.5 2.125L13.5 4.375C13.5 4.585 13.665 4.75 13.875 4.75ZM14.25 2.5L15.75 2.5L15.75 4L14.25 4L14.25 2.5ZM2.25 6.625C2.25 6.415 2.415 6.25 2.625 6.25L7.875 6.25C8.085 6.25 8.25 6.415 8.25 6.625C8.25 6.835 8.085 7 7.875 7L2.625 7C2.415 7 2.25 6.835 2.25 6.625ZM2.25 8.125C2.25 7.915 2.415 7.75 2.625 7.75L10.875 7.75C11.085 7.75 11.25 7.915 11.25 8.125C11.25 8.335 11.085 8.5 10.875 8.5L2.625 8.5C2.415 8.5 2.25 8.335 2.25 8.125ZM2.25 9.625C2.25 9.415 2.415 9.25 2.625 9.25L10.875 9.25C11.085 9.25 11.25 9.415 11.25 9.625C11.25 9.835 11.085 10 10.875 10L2.625 10C2.415 10 2.25 9.835 2.25 9.625Z" fill="black"/>
</g>
</svg>
