<svg width="12" height="18" viewBox="0 0 12 18" fill="none" xmlns="http://www.w3.org/2000/svg">
<g id="Layer_3">
<path id="Vector" d="M10.875 6.75L9.75 6.75L9.75 3.75C9.75 1.68 8.07 -1.411e-06 6 -1.04907e-06C3.93 -6.87143e-07 2.25 1.68 2.25 3.75L2.25 6.75L1.125 6.75C0.502501 6.75 1.26807e-06 7.2525 1.37691e-06 7.875L2.95052e-06 16.875C3.05936e-06 17.4975 0.502503 18 1.125 18L10.875 18C11.4975 18 12 17.4975 12 16.875L12 7.875C12 7.2525 11.4975 6.75 10.875 6.75ZM3 3.75C3 2.0925 4.3425 0.749999 6 0.749999C7.6575 0.749999 9 2.0925 9 3.75L9 6.75L3 6.75L3 3.75ZM11.25 16.875C11.25 17.085 11.085 17.25 10.875 17.25L1.125 17.25C0.915003 17.25 0.750003 17.085 0.750003 16.875L0.750001 7.875C0.750001 7.665 0.915001 7.5 1.125 7.5L2.6025 7.5C2.61 7.5 2.6175 7.5075 2.625 7.5075C2.6325 7.5075 2.64 7.5 2.6475 7.5L10.875 7.5C11.085 7.5 11.25 7.665 11.25 7.875L11.25 16.875ZM6.375 10.875L6.375 13.875C6.375 14.085 6.21 14.25 6 14.25C5.79 14.25 5.625 14.085 5.625 13.875L5.625 10.875C5.625 10.665 5.79 10.5 6 10.5C6.21 10.5 6.375 10.665 6.375 10.875Z" fill="black"/>
</g>
</svg>
