<svg width="32" height="32" viewBox="0 0 32 32" fill="none" xmlns="http://www.w3.org/2000/svg">
<path d="M5.5 19L7 19L7 20.5C7 21.33 7.67 22 8.5 22L10 22L10 23.5C10 24.33 10.67 25 11.5 25L25.5 25C26.33 25 27 24.33 27 23.5L27 15.5C27 14.67 26.33 14 25.5 14L24 14L24 12.5C24 11.67 23.33 11 22.5 11L21 11L21 9.5C21 8.67 20.33 8 19.5 8L5.5 8C4.67 8 4 8.67 4 9.5L4 17.5C4 18.33 4.67 19 5.5 19ZM5 17.5L5 11L20 11L20 17.5C20 17.78 19.78 18 19.5 18L5.5 18C5.22 18 5 17.78 5 17.5ZM8 20.5L8 19L19.5 19C20.33 19 21 18.33 21 17.5L21 14L23 14L23 20.5C23 20.78 22.78 21 22.5 21L8.5 21C8.22 21 8 20.78 8 20.5ZM26 23.5C26 23.78 25.78 24 25.5 24L11.5 24C11.22 24 11 23.78 11 23.5L11 22L22.5 22C23.33 22 24 21.33 24 20.5L24 17L26 17L26 23.5ZM25.5 15C25.78 15 26 15.22 26 15.5L26 16L24 16L24 15L25.5 15ZM22.5 12C22.78 12 23 12.22 23 12.5L23 13L21 13L21 12L22.5 12ZM5.5 9L19.5 9C19.78 9 20 9.22 20 9.5L20 10L5 10L5 9.5C5 9.22 5.22 9 5.5 9Z" fill="#4F46E5" stroke="#4F46E5" stroke-width="0.3"/>
</svg>
