<svg width="40" height="27" viewBox="0 0 40 27" fill="none" xmlns="http://www.w3.org/2000/svg">
<g id="Icons/Card/Dark">
<path id="Vector" d="M2.9375 26.6436L37.0625 26.6436C38.4112 26.6436 39.5 25.5548 39.5 24.2061L39.5 3.08105C39.5 1.73231 38.4113 0.643555 37.0625 0.643554L2.9375 0.643551C1.58875 0.643551 0.500002 1.7323 0.500002 3.08105L0.5 24.2061C0.5 25.5548 1.58875 26.6436 2.9375 26.6436ZM37.0625 25.0186L2.9375 25.0186C2.4825 25.0186 2.125 24.6611 2.125 24.2061L2.125 7.14355L37.875 7.14355L37.875 24.2061C37.875 24.6611 37.5175 25.0186 37.0625 25.0186ZM2.9375 2.26855L37.0625 2.26855C37.5175 2.26855 37.875 2.62605 37.875 3.08105L37.875 5.51855L2.125 5.51855L2.125 3.08105C2.125 2.62605 2.4825 2.26855 2.9375 2.26855Z" fill="white"/>
</g>
</svg>
