<svg width="10" height="18" viewBox="0 0 10 18" fill="none" xmlns="http://www.w3.org/2000/svg">
<g id="ICON">
<path id="Vector" d="M3.125 17.625C2.7125 17.625 2.375 17.2875 2.375 16.875L2.375 16.125L3.875 16.125L3.875 16.875C3.875 17.2875 3.5375 17.625 3.125 17.625Z" fill="white"/>
<path id="Vector_2" d="M6.875 17.625C6.4625 17.625 6.125 17.2875 6.125 16.875L6.125 16.125L7.625 16.125L7.625 16.875C7.625 17.2875 7.2875 17.625 6.875 17.625Z" fill="white"/>
<g id="Group">
<path id="Vector_3" d="M7.625 5.25L6.5 5.25L6.5 0.374999C6.5 0.164999 6.335 -1.02022e-06 6.125 -9.83506e-07L3.875 -5.90104e-07C3.665 -5.53386e-07 3.5 0.164999 3.5 0.374999L3.5 5.25L2.375 5.25C1.34 5.25 0.500001 6.09 0.500001 7.125L0.500003 14.625C0.500003 15.5325 1.145 16.29 2 16.4625L2 16.875C2 17.4975 2.5025 18 3.125 18C3.7475 18 4.25 17.4975 4.25 16.875L4.25 16.5L5.75 16.5L5.75 16.875C5.75 17.4975 6.2525 18 6.875 18C7.4975 18 8 17.4975 8 16.875L8 16.4625C8.855 16.29 9.5 15.5325 9.5 14.625L9.5 7.125C9.5 6.09 8.66 5.25 7.625 5.25ZM4.25 0.749999L5.75 0.749999L5.75 1.5L4.25 1.5L4.25 0.749999ZM4.25 2.25L5.75 2.25L5.75 5.25L4.25 5.25L4.25 2.25ZM3.5 16.875C3.5 17.085 3.335 17.25 3.125 17.25C2.915 17.25 2.75 17.085 2.75 16.875L2.75 16.5L3.5 16.5L3.5 16.875ZM7.25 16.875C7.25 17.085 7.085 17.25 6.875 17.25C6.665 17.25 6.5 17.085 6.5 16.875L6.5 16.5L7.25 16.5L7.25 16.875ZM8.75 14.625C8.75 15.2475 8.2475 15.75 7.625 15.75L6.125 15.75L3.875 15.75L2.375 15.75C1.7525 15.75 1.25 15.2475 1.25 14.625L1.25 7.125C1.25 6.5025 1.7525 6 2.375 6L3.875 6L6.125 6L7.625 6C8.2475 6 8.75 6.5025 8.75 7.125L8.75 14.625Z" fill="#4f46e5"/>
</g>
</g>
</svg>