<svg width="14" height="19" viewBox="0 0 14 19" fill="none" xmlns="http://www.w3.org/2000/svg">
<g id="ICON">
<path id="Vector" d="M12.25 6.75C11.9425 6.75 11.6575 6.84 11.4175 7.005C11.2075 6.42 10.6525 6 10 6C9.6925 6 9.4075 6.09 9.1675 6.255C8.9575 5.67 8.4025 5.25 7.75 5.25C7.48 5.25 7.2175 5.325 7 5.4525L7 1.5C7 0.674999 6.325 -1.06219e-06 5.5 -9.17939e-07C4.675 -7.73692e-07 4 0.674999 4 1.5L4 10.6875L2.86 9.495C2.575 9.18 2.17 9 1.75 9C0.925002 9 0.250002 9.675 0.250002 10.5C0.250002 10.86 0.377502 11.2125 0.640002 11.505L5.9875 16.7625C6.85 17.625 7.99 18.105 9.1975 18.105C11.71 18.105 13.75 16.0425 13.75 13.5L13.75 8.25C13.75 7.425 13.075 6.75 12.25 6.75ZM13 13.5C13 15.6225 11.2975 17.355 9.1975 17.355C8.1925 17.355 7.24 16.9575 6.5125 16.23L1.18 10.9875C1.0675 10.8525 1 10.68 1 10.5C1 10.0875 1.3375 9.75 1.75 9.75C1.96 9.75 2.1625 9.84 2.3125 10.005L4.105 11.8875C4.21 12 4.375 12.0375 4.5175 11.9775C4.66 11.9175 4.75 11.775 4.75 11.625L4.75 1.5C4.75 1.0875 5.0875 0.749999 5.5 0.749999C5.9125 0.749999 6.25 1.0875 6.25 1.5L6.25 6.75C6.25 6.765 6.2575 6.78 6.2575 6.795L6.2575 7.875C6.2575 8.085 6.4225 8.25 6.6325 8.25C6.8425 8.25 7.0075 8.085 7.0075 7.875L7.0075 6.75C7.0075 6.7425 7 6.735 7 6.7275C7.015 6.3225 7.345 6 7.75 6C8.1625 6 8.5 6.3375 8.5 6.75L8.5 7.5L8.5 8.625C8.5 8.835 8.665 9 8.875 9C9.085 9 9.25 8.835 9.25 8.625L9.25 7.5C9.25 7.0875 9.5875 6.75 10 6.75C10.4125 6.75 10.75 7.0875 10.75 7.5L10.75 8.25L10.75 9.375C10.75 9.585 10.915 9.75 11.125 9.75C11.335 9.75 11.5 9.585 11.5 9.375L11.5 8.25C11.5 7.8375 11.8375 7.5 12.25 7.5C12.6625 7.5 13 7.8375 13 8.25L13 13.5Z" fill="#4F46E5" stroke="#4F46E5" stroke-width="0.3"/>
</g>
</svg>
