<svg width="48" height="48" viewBox="0 0 48 48" fill="none" xmlns="http://www.w3.org/2000/svg">
<path d="M36.6 16.5H30.75V12.75C30.75 9.03 27.72 6 24 6C20.28 6 17.25 9.03 17.25 12.75V16.5H11.4C9.255 16.5 7.5 18.105 7.5 20.13L8.82 37.29C8.985 39.93 11.4 42 14.295 42H35.28C38.88 42 39.075 38.82 39.165 37.305L40.5 20.07C40.5 18.105 38.745 16.5 36.6 16.5ZM18.75 12.75C18.75 9.855 21.105 7.5 24 7.5C26.895 7.5 29.25 9.855 29.25 12.75V16.5H18.75V12.75ZM37.68 37.2C37.53 39.69 36.945 40.5 35.28 40.5H14.295C12.18 40.5 10.44 39.045 10.32 37.185L9 20.07C9 18.93 10.08 18 11.4 18H17.25V21.75C17.25 22.17 17.58 22.5 18 22.5C18.42 22.5 18.75 22.17 18.75 21.75V18H29.25V21.75C29.25 22.17 29.58 22.5 30 22.5C30.42 22.5 30.75 22.17 30.75 21.75V18H36.6C37.92 18 39 18.93 39 20.01L37.68 37.2Z" fill="black"/>
</svg>
