<svg width="40" height="27" viewBox="0 0 40 27" fill="none" xmlns="http://www.w3.org/2000/svg">
<g id="ICON">
<path id="Vector" d="M39.5 26.25C39.5 26.67 39.17 27 38.75 27H1.25C0.83 27 0.5 26.67 0.5 26.25C0.5 25.83 0.83 25.5 1.25 25.5H38.75C39.17 25.5 39.5 25.83 39.5 26.25ZM17.75 1.5H19.25V2.25C19.25 2.67 19.58 3 20 3C20.42 3 20.75 2.67 20.75 2.25V1.5H22.25C22.67 1.5 23 1.17 23 0.75C23 0.33 22.67 0 22.25 0H17.75C17.33 0 17 0.33 17 0.75C17 1.17 17.33 1.5 17.75 1.5ZM2.675 21.735C2.255 21.255 2.045 20.625 2.12 19.98C3.14 10.89 10.835 4.02 20 4.02C29.33 4.02 37.025 11.01 37.925 20.28C37.985 20.91 37.775 21.555 37.34 22.02C36.905 22.485 36.305 22.755 35.675 22.755H35.66L4.34 22.5C3.695 22.5 3.095 22.215 2.675 21.735ZM3.605 20.16C3.575 20.37 3.65 20.58 3.785 20.745C3.935 20.91 4.13 21 4.355 21L35.66 21.27C35.855 21.27 36.08 21.18 36.23 21.03C36.38 20.865 36.455 20.655 36.425 20.445C35.615 11.94 28.55 5.52 20 5.52C11.6 5.52 4.55 11.82 3.605 20.16Z" fill="black"/>
</g>
</svg>
