<svg width="19" height="19" viewBox="0 0 19 19" fill="none" xmlns="http://www.w3.org/2000/svg">
<g id="ICON">
<path id="Vector" d="M18.35 17.65L13.13 12.43C14.29 11.11 15 9.39 15 7.5C15 3.36 11.64 0 7.5 0C3.36 0 0 3.36 0 7.5C0 11.64 3.36 15 7.5 15C9.39 15 11.11 14.29 12.43 13.14L17.65 18.36C17.75 18.46 17.88 18.51 18 18.51C18.12 18.51 18.26 18.46 18.35 18.36C18.55 18.16 18.55 17.84 18.35 17.65ZM1 7.5C1 3.92 3.92 1 7.5 1C11.08 1 14 3.92 14 7.5C14 11.08 11.08 14 7.5 14C3.92 14 1 11.08 1 7.5Z" fill="white"/>
</g>
</svg>