<svg width="24" height="24" viewBox="0 0 24 24" fill="none" xmlns="http://www.w3.org/2000/svg">
<path d="M20.6253 10.1989C20.3628 9.91394 19.9953 9.74894 19.6128 9.74894L19.5378 9.74894L14.1378 4.23644C13.9953 4.08644 13.7553 4.08644 13.6053 4.22894C13.4553 4.37144 13.4553 4.61144 13.5978 4.76144L18.4953 9.74894L5.83531 9.74894L10.7703 4.76144C10.9128 4.61144 10.9128 4.37894 10.7703 4.22894C10.6203 4.08644 10.3878 4.08644 10.2378 4.22894L4.7778 9.74894L4.3803 9.74894C3.9978 9.74895 3.6303 9.91395 3.3678 10.1989C3.0978 10.4914 2.9628 10.8889 3.00031 11.2939L3.74281 18.7789C3.85531 20.0464 4.88281 20.9989 6.12781 20.9989L17.8803 20.9989C19.1253 20.9989 20.1453 20.0464 20.2578 18.7789L21.0003 11.2864C21.0303 10.8889 20.8953 10.4914 20.6253 10.1989ZM19.5078 18.7114C19.4328 19.5889 18.7278 20.2489 17.8803 20.2489L6.12781 20.2489C5.27281 20.2489 4.57531 19.5889 4.49281 18.7039L3.75031 11.2189C3.73531 11.0314 3.7953 10.8439 3.9228 10.7014C4.0428 10.5739 4.20781 10.4989 4.3803 10.4989L19.6128 10.4989C19.7853 10.4989 19.9503 10.5739 20.0703 10.7014C20.1978 10.8364 20.2578 11.0239 20.2428 11.2114L19.5078 18.7114ZM8.25031 13.1239L8.25031 17.6239C8.25031 17.8339 8.08531 17.9989 7.87531 17.9989C7.66531 17.9989 7.50031 17.8339 7.50031 17.6239L7.50031 13.1239C7.50031 12.9139 7.66531 12.7489 7.87531 12.7489C8.08531 12.7489 8.25031 12.9139 8.25031 13.1239ZM12.3753 13.1239L12.3753 17.6239C12.3753 17.8339 12.2103 17.9989 12.0003 17.9989C11.7903 17.9989 11.6253 17.8339 11.6253 17.6239L11.6253 13.1239C11.6253 12.9139 11.7903 12.7489 12.0003 12.7489C12.2103 12.7489 12.3753 12.9139 12.3753 13.1239ZM16.5003 13.1239L16.5003 17.6239C16.5003 17.8339 16.3353 17.9989 16.1253 17.9989C15.9153 17.9989 15.7503 17.8339 15.7503 17.6239L15.7503 13.1239C15.7503 12.9139 15.9153 12.7489 16.1253 12.7489C16.3353 12.7489 16.5003 12.9139 16.5003 13.1239Z" fill="black"/>
</svg>
