<svg width="34" height="36" viewBox="0 0 34 36" fill="none" xmlns="http://www.w3.org/2000/svg">
<g id="ICON">
<path id="Vector" d="M29.6 10.5H23.75V6.75C23.75 3.03 20.72 0 17 0C13.28 0 10.25 3.03 10.25 6.75V10.5H4.4C2.255 10.5 0.5 12.105 0.5 14.13L1.82 31.29C1.985 33.93 4.4 36 7.295 36H28.28C31.88 36 32.075 32.82 32.165 31.305L33.5 14.07C33.5 12.105 31.745 10.5 29.6 10.5ZM11.75 6.75C11.75 3.855 14.105 1.5 17 1.5C19.895 1.5 22.25 3.855 22.25 6.75V10.5H11.75V6.75ZM30.68 31.2C30.53 33.69 29.945 34.5 28.28 34.5H7.295C5.18 34.5 3.44 33.045 3.32 31.185L2 14.07C2 12.93 3.08 12 4.4 12H10.25V15.75C10.25 16.17 10.58 16.5 11 16.5C11.42 16.5 11.75 16.17 11.75 15.75V12H22.25V15.75C22.25 16.17 22.58 16.5 23 16.5C23.42 16.5 23.75 16.17 23.75 15.75V12H29.6C30.92 12 32 12.93 32 14.01L30.68 31.2Z" fill="black"/>
</g>
</svg>
