<svg width="56" height="24" viewBox="0 0 56 24" fill="none" xmlns="http://www.w3.org/2000/svg">
<g id="Group">
<path id="Vector" d="M11.8741 15.5115C13.4851 15.5115 14.7961 16.825 14.7961 18.4498C14.7961 20.0697 13.4899 21.3881 11.8741 21.3881C10.263 21.3881 8.95199 20.0746 8.95199 18.4498C8.95924 16.825 10.2655 15.5115 11.8741 15.5115ZM11.8741 20.1378C12.8029 20.1378 13.5577 19.3789 13.5577 18.4448C13.5577 17.5108 12.8029 16.7519 11.8741 16.7519C10.9452 16.7519 10.1905 17.5108 10.1905 18.4448C10.1905 19.3789 10.9452 20.1378 11.8741 20.1378Z" fill="white"/>
<path id="Vector_2" d="M45.1219 15.5115C46.7329 15.5115 48.0439 16.825 48.0439 18.4498C48.0439 20.0697 46.7377 21.3881 45.1219 21.3881C43.5108 21.3881 42.1998 20.0746 42.1998 18.4498C42.2046 16.825 43.5108 15.5115 45.1219 15.5115ZM45.1219 20.1378C46.0507 20.1378 46.8055 19.3789 46.8055 18.4448C46.8055 17.5108 46.0507 16.7519 45.1219 16.7519C44.193 16.7519 43.4383 17.5108 43.4383 18.4448C43.4383 19.3789 44.2003 20.1378 45.1219 20.1378Z" fill="white"/>
<path id="Vector_3" d="M0.914044 14.205C1.00596 13.8621 1.36639 13.5702 1.8187 13.6894L1.86223 13.7015C2.00979 12.7675 2.26378 11.1549 2.35811 10.6003C2.24684 10.1333 1.88159 8.55716 1.89368 7.51125L1.91303 7.36774C2.29038 5.85482 10.3911 0.817165 11.6661 0.36261C13.4754 -0.279496 27.8846 0.0755926 30.3232 0.33099C34.3725 0.749355 40.6156 5.81105 41.6318 6.6574C42.2148 6.74983 44.3265 7.08792 47.7492 7.54764C51.2978 8.02195 53.9417 8.85626 55.0179 9.83891C55.8355 10.5856 55.7484 12.6166 55.6614 13.4996C55.7484 13.6552 55.8524 13.8863 55.9347 14.1587C56.0218 14.5625 56.0218 18.1186 55.9347 18.5369L55.8984 18.7169L55.7678 18.8483C55.7194 18.8969 55.5259 19.072 55.0179 19.3907C54.1641 19.9331 51.5371 20.5728 50.1753 20.6677C49.3214 22.6281 47.3815 24 45.1149 24C42.9282 24 41.0463 22.7181 40.1489 20.8672H28.831C24.1795 20.8672 18.725 20.675 16.9589 20.6118C16.122 22.6038 14.1603 24 11.8744 24C9.13133 24 6.86485 21.9884 6.43181 19.3543C4.8281 19.1232 2.90746 18.6757 2.49381 18.34C0.914245 17.0703 0.897338 14.4726 0.897338 14.368L0.914044 14.205ZM30.1974 1.5765C26.9584 1.24083 13.398 1.07787 12.0771 1.54488C11.5377 1.73703 10.3814 2.39863 9.06073 3.23289H12.4303C12.8463 2.89723 13.526 2.36214 13.9977 2.15049C14.6048 1.87563 16.6972 1.84645 21.7141 1.85131H23.3614C27.517 1.83915 29.8269 1.85131 32.0673 2.66615C34.0556 3.39587 37.4784 6.21492 38.6758 7.2292L39.9821 6.92516C37.9502 5.33683 33.2453 1.88783 30.1974 1.5765ZM19.4671 3.08942C17.07 3.09671 14.9147 3.1259 14.5205 3.27671C14.3028 3.37643 13.9448 3.62453 13.6037 3.89209L18.6568 6.70142C18.7366 6.74521 18.8237 6.76953 18.9108 6.76953L19.4623 6.78169C19.4163 5.91094 19.368 4.42232 19.4671 3.08942ZM20.7056 6.82063L25.8023 6.96414L26.0442 3.10403C25.3016 3.09187 24.484 3.09187 23.5672 3.09187H23.364H21.7167H20.708C20.5992 4.41506 20.6621 5.97902 20.7056 6.82063ZM27.0405 7.00062L28.1484 7.03224L27.8146 3.15993C27.6404 3.15263 27.4686 3.14047 27.2824 3.13561L27.0405 7.00062ZM29.0651 3.25727L29.3989 7.06145L36.7741 7.27307C35.313 6.09097 33.0151 4.33969 31.6411 3.8362C30.8477 3.54431 30.0182 3.36915 29.0651 3.25727ZM54.4416 11.6952H50.5084C50.402 11.6952 50.3415 11.8144 50.402 11.8995L51.2244 13.0257C51.2873 13.1132 51.3865 13.1619 51.4905 13.1619L54.444 13.1813C54.4899 12.6487 54.4851 12.1257 54.4416 11.6952ZM54.3666 18.3404C54.5335 18.2334 54.6569 18.1531 54.7391 18.0923C54.7464 17.9731 54.7512 17.8174 54.7512 17.6375C53.8707 17.7931 52.3541 18.0169 50.6197 18.0607C50.627 18.192 50.6391 18.3234 50.6391 18.4523C50.6391 18.7709 50.6076 19.0823 50.552 19.3863C51.909 19.2039 53.8465 18.6639 54.3666 18.3404ZM45.1213 22.7551C47.4798 22.7551 49.4077 20.8238 49.4077 18.4449C49.4077 16.0661 47.487 14.1348 45.1213 14.1348C42.7557 14.1373 40.8423 16.0734 40.8423 18.4522C40.8423 20.831 42.7629 22.7551 45.1213 22.7551ZM17.3112 19.379C19.331 19.4544 24.4399 19.6222 28.8303 19.6222H39.7277C39.6479 19.2427 39.6044 18.8511 39.6044 18.445C39.6044 18.2212 39.6237 17.9974 39.6479 17.7785L38.632 17.7469C38.5256 17.7469 38.274 17.759 38.1748 17.7955L36.1188 18.406C35.9881 18.4498 35.8527 18.4742 35.7172 18.4742H21.7527C21.5616 18.4742 21.3753 18.4304 21.2084 18.3501L19.6724 17.6155C19.5103 17.5353 19.3192 17.4963 19.0411 17.4915L17.3019 17.455C17.3575 17.7785 17.3938 18.1093 17.3938 18.4523C17.3986 18.7685 17.3596 19.0749 17.3112 19.379ZM19.256 16.2534C19.5656 16.2607 19.8003 16.2972 19.9671 16.3775L21.491 17.1072C21.6652 17.1875 21.849 17.2312 22.0353 17.2312H35.5112C35.6467 17.2312 35.7846 17.2069 35.9128 17.1631L37.9809 16.5478C38.0873 16.5113 38.3341 16.4991 38.4381 16.4991L39.9378 16.5429C40.7119 14.4121 42.7365 12.8944 45.1215 12.8944C47.6058 12.8944 49.7029 14.5435 50.3972 16.8105C52.2864 16.7788 53.9651 16.5113 54.7633 16.3629C54.7633 15.4848 54.7561 14.6141 54.7391 14.4632C54.7319 14.4511 54.7319 14.4438 54.727 14.4316L51.2729 14.4073C50.939 14.4073 50.6173 14.2589 50.3754 13.9646L48.9072 11.9482C48.6774 11.6733 48.629 11.3012 48.7765 10.9777C48.9289 10.6493 49.2385 10.4499 49.599 10.4499H53.7401C53.0024 10.0193 51.2752 9.27992 47.584 8.78128C44.0234 8.30211 41.8681 7.95915 41.3724 7.87889L38.5786 8.5332C38.4987 8.55266 38.4165 8.55752 38.3318 8.55752L18.77 8.01025C18.5474 8.00295 18.3297 7.94214 18.1314 7.83512L12.0745 4.47365H7.15685C5.89904 5.32741 4.7041 6.1933 3.93729 6.83304L8.69288 7.06411C9.02185 7.09573 9.29277 7.32681 9.39194 7.63815C9.48386 7.93732 9.3992 8.26082 9.17424 8.47976L7.28023 10.5229L7.23185 10.5715C6.98512 10.7831 6.6755 10.895 6.35135 10.895H3.56476C3.45833 11.525 3.20676 13.1303 3.06888 14.0011C5.11288 14.4681 6.92707 14.743 7.68174 14.8428C8.69766 13.6533 10.195 12.8945 11.8809 12.8945C14.1354 12.8945 16.0681 14.2517 16.9268 16.1951L19.256 16.2534ZM3.15571 8.03968C3.20408 8.56993 3.31777 9.178 3.41695 9.64501L6.35111 9.64744C6.3753 9.64744 6.39465 9.64014 6.41884 9.62798L7.68878 8.25859L3.15571 8.03968ZM11.8734 22.7554C14.2318 22.7554 16.1597 20.8241 16.1597 18.4453C16.1597 16.0665 14.2391 14.1352 11.8734 14.1352C9.51495 14.1352 7.58706 16.0665 7.58706 18.4453C7.58948 20.8241 9.51495 22.7554 11.8734 22.7554ZM3.23063 17.3435C3.44834 17.4627 4.75453 17.8421 6.37521 18.0902C6.42359 17.3435 6.61709 16.6405 6.93156 16.0032C6.00994 15.867 4.53441 15.6165 2.87503 15.2443L2.19287 15.0886C2.29447 15.7746 2.55575 16.7962 3.23063 17.3435Z" fill="white"/>
<path id="Vector_4" d="M29.9867 9.49634H33.0273C33.17 9.49634 33.2886 9.61552 33.2886 9.75903V10.4887C33.2886 10.6323 33.17 10.7514 33.0273 10.7514H29.9867C29.844 10.7514 29.7255 10.6323 29.7255 10.4887V9.75903C29.7327 9.61552 29.844 9.49634 29.9867 9.49634Z" fill="white"/>
<path id="Vector_5" d="M15.9741 9.37231H19.138C19.2856 9.37231 19.4114 9.49636 19.4114 9.64717V10.3501C19.4114 10.4985 19.288 10.625 19.138 10.625H15.9741C15.8265 10.625 15.7007 10.5009 15.7007 10.3501V9.64717C15.7007 9.49636 15.8265 9.37231 15.9741 9.37231Z" fill="white"/>
</g>
</svg>
