<svg width="48" height="48" viewBox="0 0 48 48" fill="none" xmlns="http://www.w3.org/2000/svg">
<g id="Icon">
<path id="Union" fill-rule="evenodd" clip-rule="evenodd" d="M7.30592 21.6931C7.26044 22.1804 7.2372 22.674 7.2372 23.173V26.3045C7.2372 26.9752 7.7943 27.5363 8.49143 27.5363H8.77179C9.46647 27.5363 10.0281 26.9768 10.0372 26.3007V22.0939C10.0372 21.4231 9.48012 20.862 8.783 20.862H8.49143C7.93948 20.862 7.47531 21.2137 7.30592 21.6931ZM7.60233 19.7876C7.87902 19.6824 8.17891 19.6248 8.49143 19.6248H8.783C10.1494 19.6248 11.2744 20.7258 11.2744 22.0939V26.3113C11.2595 27.6726 10.1395 28.7735 8.77179 28.7735H8.49143C7.12508 28.7735 6 27.6725 6 26.3045V23.173V22.0939C6 21.8698 6.03018 21.6529 6.08667 21.4468C6.96292 12.7684 14.3751 6 23.3731 6C32.1357 6 39.384 12.4083 40.5829 20.7581C40.5995 20.8737 40.583 20.9863 40.5406 21.0866C40.6797 21.3938 40.7573 21.7346 40.7573 22.0939V26.3045C40.7573 27.0035 40.4636 27.6328 39.9939 28.0812C39.9956 28.1474 39.9865 28.2151 39.9656 28.2819C38.1413 34.095 33.2711 38.5784 27.2155 39.9253C26.9548 41.1133 25.8807 42.0023 24.6162 42.0023C23.1601 42.0023 21.9565 40.8237 21.9565 39.367C21.9565 37.9103 23.1601 36.7317 24.6162 36.7317C25.8289 36.7317 26.8665 37.5493 27.1794 38.6641C32.3992 37.4219 36.6359 33.6637 38.4905 28.7635C38.4164 28.7701 38.3415 28.7735 38.2659 28.7735H37.9743C36.608 28.7735 35.4829 27.6725 35.4829 26.3045V22.0939C35.4829 20.7258 36.608 19.6248 37.9743 19.6248H38.2659C38.5764 19.6248 38.8745 19.6817 39.1497 19.7856C37.5701 12.6132 31.114 7.2372 23.3731 7.2372C15.6336 7.2372 9.17385 12.6177 7.60233 19.7876ZM37.9743 20.862C37.2772 20.862 36.7201 21.4231 36.7201 22.0939V26.3045C36.7201 26.9752 37.2772 27.5363 37.9743 27.5363H38.2659C38.963 27.5363 39.5201 26.9752 39.5201 26.3045V22.0939C39.5201 21.4231 38.963 20.862 38.2659 20.862H37.9743ZM23.1937 39.367C23.1937 38.6076 23.8293 37.9689 24.6162 37.9689C25.403 37.9689 26.0386 38.6076 26.0386 39.367C26.0386 40.1264 25.403 40.7651 24.6162 40.7651C23.8293 40.7651 23.1937 40.1264 23.1937 39.367Z" fill="black"/>
</g>
</svg>
