<svg width="36" height="40" viewBox="0 0 36 40" fill="none" xmlns="http://www.w3.org/2000/svg">
<g id="ICON">
<path id="Vector" d="M9.03 20.5369C8.72125 20.3419 8.33125 20.3257 8.0225 20.4882L6.0075 21.2194C5.5525 21.3007 5.195 21.6419 5.065 22.0969C4.935 22.5519 5.065 23.0394 5.40625 23.3644L9.63125 27.4107C9.89125 27.6544 10.2163 27.7844 10.5575 27.7844C10.7038 27.7844 10.85 27.7682 10.98 27.7194L29.0338 21.4307C29.7813 21.1544 30.3825 20.6019 30.6912 19.9194C30.9675 19.2694 30.9837 18.5707 30.7075 17.9532C30.1387 16.5394 28.5463 15.8244 27.1325 16.3607L22.1762 18.0832L16.375 14.1344C16.0987 14.0044 15.8063 13.9882 15.5625 13.9882L13.5312 14.6869C13.0925 14.8494 12.7837 15.2232 12.6862 15.6619C12.605 16.0844 12.7512 16.5069 13.0275 16.7669L16.2613 20.1632L11.7437 21.7557L9.03 20.5369ZM14.5713 16.0357L15.6925 15.6294L21.9488 19.8869L27.685 17.8882L27.7175 17.8719C28.3025 17.6444 28.9687 17.9532 29.2287 18.5707C29.3587 18.8632 29.2937 19.1069 29.2287 19.2694C29.0987 19.5457 28.8387 19.7894 28.5137 19.9032L10.6388 26.1269L6.95 22.6007L8.445 22.0644L11.6787 23.5107L19.1862 20.8619L14.5713 16.0357ZM35.875 21.2519C35.875 31.1157 27.8638 39.1269 18 39.1269C8.13625 39.1269 0.125 31.1157 0.125 21.2519C0.125 11.4532 8.055 3.49065 17.8213 3.39315L15.8388 1.73565C15.4975 1.44315 15.4487 0.939405 15.7412 0.598155C16.0337 0.256905 16.5375 0.208154 16.8788 0.500654L20.405 3.45815C20.7462 3.75065 20.795 4.2544 20.5025 4.59565L17.5612 8.10565C17.3987 8.30065 17.1713 8.39815 16.9438 8.39815C16.765 8.39815 16.57 8.33315 16.4237 8.20315C16.0825 7.91065 16.0338 7.40691 16.3263 7.06566L18.065 5.0019C18.0488 5.0019 18.0325 5.01815 18.0163 5.01815C9.0625 5.01815 1.76625 12.3144 1.76625 21.2682C1.76625 30.2219 9.0625 37.5182 18.0163 37.5182C26.97 37.5182 34.2663 30.2219 34.2663 21.2682C34.2663 14.6219 30.285 8.7069 24.11 6.2044C23.6875 6.0419 23.4925 5.5544 23.655 5.14815C23.8175 4.72565 24.305 4.53066 24.7112 4.69316C31.4875 7.42316 35.875 13.9394 35.875 21.2519Z" fill="white"/>
</g>
</svg>
