<svg width="26" height="40" viewBox="0 0 26 40" fill="none" xmlns="http://www.w3.org/2000/svg">
<g id="Layer_3">
<path id="Vector" d="M23.5625 14.7686H21.125V8.26855C21.125 3.78355 17.485 0.143555 13 0.143555C8.515 0.143555 4.875 3.78355 4.875 8.26855V14.7686H2.4375C1.08875 14.7686 0 15.8573 0 17.2061V36.7061C0 38.0548 1.08875 39.1436 2.4375 39.1436H23.5625C24.9112 39.1436 26 38.0548 26 36.7061V17.2061C26 15.8573 24.9112 14.7686 23.5625 14.7686ZM6.5 8.26855C6.5 4.6773 9.40875 1.76855 13 1.76855C16.5913 1.76855 19.5 4.6773 19.5 8.26855V14.7686H6.5V8.26855ZM24.375 36.7061C24.375 37.1611 24.0175 37.5186 23.5625 37.5186H2.4375C1.9825 37.5186 1.625 37.1611 1.625 36.7061V17.2061C1.625 16.7511 1.9825 16.3936 2.4375 16.3936H5.63875C5.655 16.3936 5.67125 16.4098 5.6875 16.4098C5.70375 16.4098 5.72 16.3936 5.73625 16.3936H23.5625C24.0175 16.3936 24.375 16.7511 24.375 17.2061V36.7061ZM13.8125 23.7061V30.2061C13.8125 30.6611 13.455 31.0186 13 31.0186C12.545 31.0186 12.1875 30.6611 12.1875 30.2061V23.7061C12.1875 23.2511 12.545 22.8936 13 22.8936C13.455 22.8936 13.8125 23.2511 13.8125 23.7061Z" fill="white"/>
</g>
</svg>
