<svg width="15" height="15" viewBox="0 0 15 15" fill="none" xmlns="http://www.w3.org/2000/svg">
<g id="ICON">
<path id="Vector" d="M14.6426 5.74856C14.6276 5.60606 14.5301 5.49356 14.3951 5.44106L1.12758 0.64856C0.992583 0.59606 0.835083 0.63356 0.737583 0.73856C0.632583 0.83606 0.595084 0.99356 0.647584 1.12856L5.43259 14.4036C5.47759 14.5386 5.59759 14.6286 5.74009 14.6511C5.75509 14.6511 5.77009 14.6511 5.78509 14.6511C5.91259 14.6511 6.02509 14.5911 6.09259 14.4861L8.18509 11.3811L10.9826 14.1786C11.1326 14.3286 11.3651 14.3286 11.5151 14.1786L12.8426 12.8511L14.1701 11.5236C14.3201 11.3736 14.3201 11.1411 14.1701 10.9911L11.3726 8.19356L14.4776 6.10106C14.5976 6.02606 14.6576 5.88356 14.6426 5.74856ZM10.5776 7.83356C10.4876 7.89356 10.4276 7.99856 10.4126 8.11106C10.4051 8.22356 10.4426 8.33606 10.5176 8.41106L13.3676 11.2686L11.2451 13.3911L8.39509 10.5411C8.31259 10.4586 8.20008 10.4211 8.09508 10.4361C7.98258 10.4436 7.88509 10.5036 7.81759 10.6011L5.88259 13.4736L1.62258 1.62356L13.4426 5.89106L10.5776 7.83356Z" fill="black"/>
</g>
</svg>
