<svg width="18" height="18" viewBox="0 0 18 18" fill="none" xmlns="http://www.w3.org/2000/svg">
<rect y="0.257324" width="17.4854" height="17.4853" rx="8.74263" fill="#E00083"/>
<path fill-rule="evenodd" clip-rule="evenodd" d="M4.85355 4.40377C4.65829 4.20851 4.34171 4.20851 4.14645 4.40377C3.95118 4.59903 3.95118 4.91562 4.14645 5.11088L8.03557 9L4.14652 12.8891C3.95125 13.0843 3.95125 13.4009 4.14652 13.5962C4.34178 13.7914 4.65836 13.7914 4.85362 13.5962L8.74268 9.70711L12.6317 13.5962C12.827 13.7914 13.1436 13.7914 13.3388 13.5962C13.5341 13.4009 13.5341 13.0843 13.3388 12.8891L9.44978 9L13.3389 5.11088C13.5342 4.91562 13.5342 4.59903 13.3389 4.40377C13.1436 4.20851 12.8271 4.20851 12.6318 4.40377L8.74268 8.29289L4.85355 4.40377Z" fill="white"/>
</svg>
