<svg width="59" height="59" viewBox="0 0 59 59" fill="none" xmlns="http://www.w3.org/2000/svg">
<circle cx="29.5" cy="29.5" r="29.5" fill="#202020"/>
<g clip-path="url(#clip0_5000_161660)">
<path d="M31.0871 46.0936C29.1218 46.0936 27.1565 46.0936 25.191 46.0936C25.1914 46.0412 25.1921 45.9888 25.1921 45.9364C25.1925 41.4486 25.1927 36.961 25.1936 32.4732C25.1936 32.3758 25.2007 32.2787 25.2012 32.1813C25.2025 31.8441 25.2051 31.507 25.2012 31.1698C25.1992 30.9933 25.1534 30.9526 24.9864 30.9501C24.954 30.9496 24.9215 30.9499 24.8893 30.9499C23.4353 30.951 21.981 30.9521 20.5269 30.953C20.4873 30.953 20.4475 30.9532 20.4084 30.9483C20.334 30.9391 20.2916 30.893 20.2847 30.8158C20.2804 30.7675 20.2815 30.7186 20.2815 30.6698C20.2812 28.9092 20.2812 27.1485 20.2812 25.3881C20.2812 25.044 20.2897 25.0343 20.6177 25.0352C22.061 25.0392 23.5042 25.044 24.9475 25.0478C25.1663 25.0485 25.2046 25.0087 25.2029 24.7783C25.1996 24.3251 25.1897 23.8719 25.1903 23.4189C25.1925 22.2206 25.162 21.0215 25.2284 19.8241C25.2753 18.9779 25.43 18.1523 25.7215 17.3585C26.322 15.7229 27.3392 14.471 28.8688 13.7025C29.9236 13.1724 31.0455 12.9353 32.2116 12.9119C33.0898 12.8941 33.9677 12.918 34.8451 12.963C35.4488 12.994 36.0519 13.0331 36.654 13.0923C36.7431 13.1011 36.8246 13.1238 36.8752 13.2102C36.8752 14.9258 36.8752 16.6415 36.8752 18.3572C36.8168 18.4368 36.7331 18.4339 36.6494 18.4336C35.6921 18.433 34.7348 18.4298 33.7776 18.4341C33.3335 18.4361 32.8945 18.486 32.4695 18.6331C31.8383 18.852 31.4274 19.2913 31.2406 19.9561C31.1346 20.3331 31.097 20.7208 31.0955 21.1108C31.0901 22.3429 31.092 23.5753 31.0916 24.8076C31.0916 25.0186 31.1193 25.0482 31.3223 25.0469C31.898 25.0431 32.4739 25.0433 33.0495 25.0383C34.1615 25.0287 35.2737 25.0345 36.3856 25.0347C36.4395 25.0347 36.4935 25.0395 36.5467 25.0467C36.627 25.0575 36.667 25.1087 36.667 25.1922C36.667 25.237 36.6657 25.2822 36.66 25.3267C36.4367 27.12 36.2128 28.913 35.989 30.706C35.9618 30.9242 35.9313 30.9526 35.723 30.9526C34.28 30.9519 32.8367 30.951 31.3937 30.9496C31.0959 30.9494 31.0914 30.9532 31.0914 31.2618C31.092 36.1347 31.0929 41.0073 31.0933 45.8801C31.0931 45.9514 31.0892 46.0225 31.0871 46.0936Z" fill="white"/>
</g>
<defs>
<clipPath id="clip0_5000_161660">
<rect width="16.5938" height="33.1875" fill="white" transform="translate(20.2812 12.9062)"/>
</clipPath>
</defs>
</svg>
