<svg width="59" height="59" viewBox="0 0 59 59" fill="none" xmlns="http://www.w3.org/2000/svg">
<circle cx="29.5" cy="29.5" r="29.5" fill="#202020"/>
<path d="M25.5241 42.4012C25.4907 42.3426 25.4965 42.2774 25.4965 42.2136C25.497 41.9202 25.496 41.6266 25.4996 41.3333C25.5341 38.5826 25.5107 35.8316 25.5244 33.0805C25.5294 32.1134 25.5399 31.1459 25.5381 30.1787C25.5347 28.5696 25.5231 26.9602 25.5149 25.3511C25.5146 25.3189 25.5146 25.287 25.5128 25.2548C25.4962 24.9769 25.4962 24.9769 25.7688 24.9769C27.4673 24.9769 29.1657 24.9769 30.8642 24.9769C31.062 24.9769 31.0625 24.9774 31.0625 25.1794C31.0628 25.8579 31.0622 26.5367 31.0633 27.2153C31.0633 27.2634 31.0496 27.3143 31.0825 27.3732C31.2535 27.1154 31.4231 26.8669 31.6093 26.6311C32.505 25.4958 33.6533 24.8388 35.046 24.6426C36.273 24.4698 37.4721 24.5826 38.6254 25.0677C40.0542 25.6686 41.0405 26.7494 41.666 28.2031C42.0676 29.1362 42.2746 30.122 42.3626 31.1377C42.3758 31.2879 42.3913 31.4376 42.4061 31.5878C42.4061 35.1511 42.4055 38.7144 42.4084 42.2777C42.4084 42.3809 42.3863 42.4042 42.2875 42.4042C40.4835 42.4007 38.6794 42.4015 36.8753 42.4015C36.8722 42.3283 36.8666 42.2551 36.8666 42.1819C36.8661 39.6001 36.8677 37.0183 36.8653 34.4365C36.8648 33.8314 36.879 33.2264 36.8471 32.6213C36.8213 32.1296 36.7637 31.6442 36.6251 31.1731C36.397 30.3986 36.0036 29.7553 35.2682 29.408C34.7062 29.1425 34.1107 29.1015 33.5142 29.2187C32.2614 29.4652 31.289 30.5538 31.1097 31.8803C31.0728 32.1527 31.0622 32.4273 31.0622 32.7027C31.063 35.8577 31.0628 39.0127 31.0625 42.1676C31.0625 42.2455 31.0575 42.3233 31.0549 42.4009C29.2113 42.4012 27.3677 42.4012 25.5241 42.4012Z" fill="white"/>
<path d="M16.9093 42.4008C16.9077 42.3276 16.9046 42.2541 16.9046 42.1809C16.9043 36.5314 16.9043 30.8819 16.9043 25.2323C16.9043 25.2095 16.9043 25.1864 16.9043 25.1635C16.9056 24.9814 16.9085 24.9773 17.0805 24.9773C18.8187 24.977 20.5567 24.977 22.2949 24.9773C22.4672 24.9773 22.4711 24.9814 22.4711 25.1635C22.4714 30.8634 22.4714 36.5636 22.4711 42.2635C22.4711 42.3091 22.468 42.3551 22.4664 42.4008C20.6141 42.4008 18.7616 42.4008 16.9093 42.4008Z" fill="white"/>
<path d="M19.8595 16.5938C20.1289 16.6265 20.3989 16.6488 20.6641 16.7176C21.898 17.0384 22.7339 18.0906 22.8203 19.4138C22.9241 21.002 21.9275 22.3011 20.3892 22.5715C19.676 22.697 18.9704 22.6662 18.2972 22.3602C17.3504 21.9299 16.7965 21.1715 16.6146 20.1127C16.6085 20.077 16.6006 20.0412 16.5938 20.0057C16.5938 19.7396 16.5938 19.4738 16.5938 19.2077C16.6417 19.0085 16.667 18.8038 16.7352 18.6098C17.1055 17.556 17.8466 16.9556 18.8695 16.6958C19.1087 16.635 19.3536 16.6243 19.5962 16.5938C19.6839 16.5938 19.7718 16.5938 19.8595 16.5938Z" fill="white"/>
</svg>
