<svg width="59" height="59" viewBox="0 0 59 59" fill="none" xmlns="http://www.w3.org/2000/svg">
<circle cx="29.5" cy="29.5" r="29.5" fill="#202020"/>
<g clip-path="url(#clip0_5000_161657)">
<path d="M16.5938 41.3462C16.6262 41.4611 16.687 41.4856 16.736 41.5213C17.291 41.9216 17.88 42.266 18.4915 42.5705C20.6289 43.6357 22.908 44.1547 25.2825 44.2404C27.2894 44.3128 29.2415 43.9652 31.1195 43.2588C33.9691 42.1867 36.3451 40.4391 38.2934 38.1091C40.0447 36.0144 41.2911 33.6445 42.0762 31.0324C42.6301 29.1906 42.9395 27.3078 42.9752 25.3829C42.9864 24.7893 42.9816 24.1953 42.9704 23.6017C42.9662 23.3712 43.0541 23.2185 43.2442 23.0971C43.935 22.6553 44.5422 22.1128 45.1057 21.5204C45.4977 21.1078 45.8653 20.6766 46.041 20.1188C46.0613 20.0538 46.1278 19.9809 46.0708 19.9218C45.9979 19.8462 45.9244 19.9314 45.8567 19.9607C45.4413 20.1385 45.0333 20.3354 44.6115 20.4962C44.0692 20.7022 43.5031 20.807 42.9209 20.7975C42.8213 20.7959 42.6743 20.8012 42.6471 20.6814C42.6146 20.5382 42.7739 20.534 42.8623 20.4951C44.1156 19.9436 44.7595 18.8976 45.1622 17.6594C45.2037 17.5327 45.282 17.3544 45.1515 17.2628C45.037 17.1825 44.9081 17.3251 44.7941 17.3821C43.9531 17.801 43.1148 18.2221 42.2248 18.5356C41.7188 18.7134 41.3422 18.7187 40.9134 18.2721C39.6085 16.9131 37.9361 16.442 36.1044 16.6352C33.029 16.9589 30.6636 19.6514 30.6364 22.7484C30.6311 23.3409 30.7286 23.9121 30.8623 24.4817C30.9145 24.7047 30.8308 24.7915 30.6114 24.8C29.1104 24.8591 27.6404 24.6941 26.2039 24.2389C24.0239 23.5474 22.0409 22.4897 20.2721 21.0434C19.2878 20.2391 18.3823 19.3549 17.7581 18.2264C17.6627 18.0539 17.5962 18.0683 17.5115 18.2322C17.3645 18.5165 17.2436 18.8114 17.1445 19.1148C16.6305 20.6905 16.5437 22.2629 17.2526 23.8046C17.8822 25.1742 18.7951 26.3022 20.1496 27.0283C20.2135 27.0624 20.3275 27.0762 20.2987 27.1805C20.2774 27.2583 20.1805 27.2471 20.1117 27.246C19.0247 27.2306 17.9461 27.1736 16.9842 26.5742C16.9282 26.5391 16.8638 26.471 16.7945 26.5284C16.7418 26.5721 16.7791 26.6456 16.7871 26.7052C17.0763 28.8169 17.961 30.5885 19.7378 31.8474C20.5767 32.442 21.4593 32.9397 22.4958 33.101C22.5496 33.1095 22.6263 33.1016 22.6353 33.1942C22.5352 33.2889 22.4063 33.3214 22.2806 33.3619C21.2723 33.6828 20.2641 33.7355 19.2531 33.372C19.1914 33.3496 19.1131 33.2905 19.0566 33.3565C19.0044 33.4172 19.0603 33.4912 19.0859 33.5546C20.1048 36.0868 21.854 37.6891 24.6705 37.9318C24.7477 37.9382 24.8558 37.9191 24.8819 38.0058C24.9134 38.1107 24.8004 38.1512 24.7312 38.198C24.1741 38.577 23.6063 38.9385 23.0284 39.285C21.389 40.2671 19.6287 40.9128 17.7384 41.1982C17.3634 41.2546 16.9868 41.2956 16.5938 41.3462Z" fill="white"/>
</g>
<defs>
<clipPath id="clip0_5000_161657">
<rect width="29.5" height="27.6562" fill="white" transform="translate(16.5938 16.5938)"/>
</clipPath>
</defs>
</svg>
