<svg width="60" height="60" viewBox="0 0 60 60" fill="none" xmlns="http://www.w3.org/2000/svg">
<rect width="59.5" height="59.5" rx="29.75" fill="black"/>
<path d="M14.9484 15.7868C14.9362 15.8051 15.9248 17.1538 17.1392 18.777C18.3536 20.4002 20.9349 23.8542 22.8755 26.4477L26.4026 31.1649L26.1769 31.4212C26.0487 31.5615 23.4552 34.3625 20.4162 37.6456C17.3772 40.9348 14.8813 43.6443 14.8752 43.6748C14.863 43.7053 15.3939 43.7297 16.1567 43.7236L17.4565 43.7175L17.8837 43.2476C18.1217 42.9913 20.3308 40.6053 22.7961 37.9386C25.2615 35.2718 27.3485 33.0139 27.434 32.9163L27.5865 32.7393L28.807 34.3748C29.4783 35.2718 31.3273 37.7494 32.9139 39.873L35.8064 43.7297H40.2307C43.9104 43.7297 44.6488 43.7175 44.6244 43.6504C44.6061 43.6016 43.4833 42.0882 42.1285 40.2758C40.7738 38.4695 39.2238 36.3946 38.6868 35.6746C38.1437 34.9545 36.5509 32.8125 35.1352 30.9269C33.7194 29.0351 32.56 27.4607 32.56 27.4363C32.56 27.3936 40.0415 19.2713 42.5862 16.5557L43.3124 15.7807H41.976L40.6457 15.7868L39.0895 17.4711C38.2352 18.3987 36.1421 20.6688 34.4334 22.5056L31.3395 25.8497L27.5865 20.8335L23.8274 15.8112L19.4032 15.7807C16.9683 15.7624 14.9606 15.7685 14.9484 15.7868ZM25.4324 21.1936C26.8786 23.1341 29.1121 26.1182 30.3936 27.833C31.6751 29.5416 34.5188 33.3495 36.7157 36.2848C38.9126 39.2262 40.7311 41.661 40.7616 41.7037C40.7982 41.7587 40.3649 41.777 38.7844 41.777H36.7645L32.7613 36.4191C23.5223 24.0739 18.8601 17.8372 18.8052 17.7457C18.7685 17.6908 19.1835 17.6725 20.7762 17.6725H22.7961L25.4324 21.1936Z" fill="white"/>
</svg>
